<?xml version="1.0" encoding="UTF-8" standalone="no"?>
<!DOCTYPE svg PUBLIC "-//W3C//DTD SVG 1.1//EN"
 "http://www.w3.org/Graphics/SVG/1.1/DTD/svg11.dtd">
<!-- Generated by graphviz version 2.36.0 (20140111.2315)
 -->
<!-- Title: controllers_diagram Pages: 1 -->
<svg width="1769pt" height="1413pt"
 viewBox="0.00 0.00 1768.90 1413.00" xmlns="http://www.w3.org/2000/svg" xmlns:xlink="http://www.w3.org/1999/xlink">
<g id="graph0" class="graph" transform="scale(1 1) rotate(0) translate(4 1409)">
<title>controllers_diagram</title>
<polygon fill="white" stroke="none" points="-4,4 -4,-1409 1764.9,-1409 1764.9,4 -4,4"/>
<!-- _diagram_info -->
<g id="node1" class="node"><title>_diagram_info</title>
<text text-anchor="start" x="1562" y="-1390.6" font-family="Times,serif" font-size="13.00">Controllers diagram</text>
<text text-anchor="start" x="1562" y="-1377.6" font-family="Times,serif" font-size="13.00">Date: Oct 07 2014 &#45; 12:24</text>
<text text-anchor="start" x="1562" y="-1364.6" font-family="Times,serif" font-size="13.00">Migration version: 20140928203114</text>
<text text-anchor="start" x="1562" y="-1351.6" font-family="Times,serif" font-size="13.00">Generated by RailRoady 1.1.2</text>
<text text-anchor="start" x="1562" y="-1338.6" font-family="Times,serif" font-size="13.00">http://railroady.prestonlee.com</text>
</g>
<!-- Admin::AccessTokensController -->
<g id="node2" class="node"><title>Admin::AccessTokensController</title>
<ellipse fill="none" stroke="black" cx="162.287" cy="-71.2025" rx="126.295" ry="18"/>
<text text-anchor="middle" x="162.287" y="-67.0025" font-family="Times,serif" font-size="14.00">Admin::AccessTokensController</text>
</g>
<!-- Admin::ActionsController -->
<g id="node3" class="node"><title>Admin::ActionsController</title>
<ellipse fill="none" stroke="black" cx="1261.79" cy="-297.286" rx="103.394" ry="18"/>
<text text-anchor="middle" x="1261.79" y="-293.086" font-family="Times,serif" font-size="14.00">Admin::ActionsController</text>
</g>
<!-- Admin::AffiliationsController -->
<g id="node4" class="node"><title>Admin::AffiliationsController</title>
<ellipse fill="none" stroke="black" cx="719.198" cy="-18" rx="116.449" ry="18"/>
<text text-anchor="middle" x="719.198" y="-13.8" font-family="Times,serif" font-size="14.00">Admin::AffiliationsController</text>
</g>
<!-- Admin::ArticlesController -->
<g id="node5" class="node"><title>Admin::ArticlesController</title>
<ellipse fill="none" stroke="black" cx="633.053" cy="-512.158" rx="103.861" ry="18"/>
<text text-anchor="middle" x="633.053" y="-507.958" font-family="Times,serif" font-size="14.00">Admin::ArticlesController</text>
</g>
<!-- Admin::BaseController -->
<g id="node6" class="node"><title>Admin::BaseController</title>
<ellipse fill="none" stroke="black" cx="835.559" cy="-476.479" rx="93.2533" ry="18"/>
<text text-anchor="middle" x="835.559" y="-472.279" font-family="Times,serif" font-size="14.00">Admin::BaseController</text>
</g>
<!-- Admin::BaseController&#45;&gt;Admin::AccessTokensController -->
<g id="edge1" class="edge"><title>Admin::BaseController&#45;&gt;Admin::AccessTokensController</title>
<path fill="none" stroke="black" d="M806.461,-459.337C750.906,-426.578 625.936,-352.733 521.228,-289.758 398.059,-215.68 251.898,-126.189 191.069,-88.8738"/>
</g>
<!-- Admin::BaseController&#45;&gt;Admin::ActionsController -->
<g id="edge2" class="edge"><title>Admin::BaseController&#45;&gt;Admin::ActionsController</title>
<path fill="none" stroke="black" d="M874.515,-460.102C955.383,-426.104 1140.71,-348.193 1222.16,-313.95"/>
</g>
<!-- Admin::BaseController&#45;&gt;Admin::AffiliationsController -->
<g id="edge3" class="edge"><title>Admin::BaseController&#45;&gt;Admin::AffiliationsController</title>
<path fill="none" stroke="black" d="M828.843,-458.507C816.184,-424.973 787.565,-350.747 759.795,-289.791 754.106,-277.302 749.739,-275.408 745.828,-262.254 721.514,-180.479 718.937,-77.3966 718.973,-36.2111"/>
</g>
<!-- Admin::BaseController&#45;&gt;Admin::ArticlesController -->
<g id="edge4" class="edge"><title>Admin::BaseController&#45;&gt;Admin::ArticlesController</title>
<path fill="none" stroke="black" d="M766.717,-488.608C747.225,-492.042 725.941,-495.792 706.204,-499.27"/>
</g>
<!-- Admin::CardStatusesController -->
<g id="node7" class="node"><title>Admin::CardStatusesController</title>
<ellipse fill="none" stroke="black" cx="416.627" cy="-336.298" rx="122.228" ry="18"/>
<text text-anchor="middle" x="416.627" y="-332.098" font-family="Times,serif" font-size="14.00">Admin::CardStatusesController</text>
</g>
<!-- Admin::BaseController&#45;&gt;Admin::CardStatusesController -->
<g id="edge6" class="edge"><title>Admin::BaseController&#45;&gt;Admin::CardStatusesController</title>
<path fill="none" stroke="black" d="M788.722,-460.807C708.975,-434.122 547.564,-380.112 466.074,-352.844"/>
</g>
<!-- Admin::CardTypesController -->
<g id="node8" class="node"><title>Admin::CardTypesController</title>
<ellipse fill="none" stroke="black" cx="466.399" cy="-32.5587" rx="114.242" ry="18"/>
<text text-anchor="middle" x="466.399" y="-28.3587" font-family="Times,serif" font-size="14.00">Admin::CardTypesController</text>
</g>
<!-- Admin::BaseController&#45;&gt;Admin::CardTypesController -->
<g id="edge7" class="edge"><title>Admin::BaseController&#45;&gt;Admin::CardTypesController</title>
<path fill="none" stroke="black" d="M831.232,-458.393C822.237,-423.381 799.026,-344.945 759.795,-289.791 682.642,-181.318 551.069,-87.8131 494.076,-50.2074"/>
</g>
<!-- Admin::CardsController -->
<g id="node9" class="node"><title>Admin::CardsController</title>
<ellipse fill="none" stroke="black" cx="1521.89" cy="-45.7056" rx="96.6363" ry="18"/>
<text text-anchor="middle" x="1521.89" y="-41.5056" font-family="Times,serif" font-size="14.00">Admin::CardsController</text>
</g>
<!-- Admin::BaseController&#45;&gt;Admin::CardsController -->
<g id="edge8" class="edge"><title>Admin::BaseController&#45;&gt;Admin::CardsController</title>
<path fill="none" stroke="black" d="M867.67,-459.477C923.227,-429.814 1040.53,-366.096 1136.38,-306.743 1276.22,-220.143 1437.34,-106.274 1497.54,-63.2117"/>
</g>
<!-- Admin::NewslettersController -->
<g id="node10" class="node"><title>Admin::NewslettersController</title>
<ellipse fill="none" stroke="black" cx="640.512" cy="-289.775" rx="117.868" ry="18"/>
<text text-anchor="middle" x="640.512" y="-285.575" font-family="Times,serif" font-size="14.00">Admin::NewslettersController</text>
</g>
<!-- Admin::BaseController&#45;&gt;Admin::NewslettersController -->
<g id="edge9" class="edge"><title>Admin::BaseController&#45;&gt;Admin::NewslettersController</title>
<path fill="none" stroke="black" d="M816.857,-458.577C779.576,-422.89 696.392,-343.265 659.157,-307.622"/>
</g>
<!-- Admin::OwnershipsController -->
<g id="node11" class="node"><title>Admin::OwnershipsController</title>
<ellipse fill="none" stroke="black" cx="961.549" cy="-23.1637" rx="118.369" ry="18"/>
<text text-anchor="middle" x="961.549" y="-18.9637" font-family="Times,serif" font-size="14.00">Admin::OwnershipsController</text>
</g>
<!-- Admin::BaseController&#45;&gt;Admin::OwnershipsController -->
<g id="edge10" class="edge"><title>Admin::BaseController&#45;&gt;Admin::OwnershipsController</title>
<path fill="none" stroke="black" d="M847.489,-458.542C870.482,-422.917 920.566,-339.97 942.164,-262.359 964.446,-182.283 963.772,-81.749 962.389,-41.2729"/>
</g>
<!-- Admin::PagesController -->
<g id="node12" class="node"><title>Admin::PagesController</title>
<ellipse fill="none" stroke="black" cx="843.996" cy="-262.306" rx="96.6363" ry="18"/>
<text text-anchor="middle" x="843.996" y="-258.106" font-family="Times,serif" font-size="14.00">Admin::PagesController</text>
</g>
<!-- Admin::BaseController&#45;&gt;Admin::PagesController -->
<g id="edge11" class="edge"><title>Admin::BaseController&#45;&gt;Admin::PagesController</title>
<path fill="none" stroke="black" d="M836.279,-458.219C837.873,-417.756 841.686,-320.941 843.278,-280.52"/>
</g>
<!-- Admin::ParentsController -->
<g id="node13" class="node"><title>Admin::ParentsController</title>
<ellipse fill="none" stroke="black" cx="147.523" cy="-437.502" rx="101.94" ry="18"/>
<text text-anchor="middle" x="147.523" y="-433.302" font-family="Times,serif" font-size="14.00">Admin::ParentsController</text>
</g>
<!-- Admin::BaseController&#45;&gt;Admin::ParentsController -->
<g id="edge12" class="edge"><title>Admin::BaseController&#45;&gt;Admin::ParentsController</title>
<path fill="none" stroke="black" d="M745.964,-471.404C616.586,-464.074 378.362,-450.579 244.817,-443.013"/>
</g>
<!-- Admin::ResponsablesController -->
<g id="node14" class="node"><title>Admin::ResponsablesController</title>
<ellipse fill="none" stroke="black" cx="1541.89" cy="-358.688" rx="124.157" ry="18"/>
<text text-anchor="middle" x="1541.89" y="-354.488" font-family="Times,serif" font-size="14.00">Admin::ResponsablesController</text>
</g>
<!-- Admin::BaseController&#45;&gt;Admin::ResponsablesController -->
<g id="edge13" class="edge"><title>Admin::BaseController&#45;&gt;Admin::ResponsablesController</title>
<path fill="none" stroke="black" d="M906.193,-464.7C1038,-442.719 1320.69,-395.576 1460.36,-372.284"/>
</g>
<!-- Admin::StatusesController -->
<g id="node15" class="node"><title>Admin::StatusesController</title>
<ellipse fill="none" stroke="black" cx="1273.16" cy="-535.64" rx="104.847" ry="18"/>
<text text-anchor="middle" x="1273.16" y="-531.44" font-family="Times,serif" font-size="14.00">Admin::StatusesController</text>
</g>
<!-- Admin::BaseController&#45;&gt;Admin::StatusesController -->
<g id="edge14" class="edge"><title>Admin::BaseController&#45;&gt;Admin::StatusesController</title>
<path fill="none" stroke="black" d="M912.61,-486.629C969.412,-494.14 1048.56,-504.663 1118.05,-514.114 1141.89,-517.357 1167.79,-520.93 1191.47,-524.217"/>
</g>
<!-- Admin::SubjectsController -->
<g id="node16" class="node"><title>Admin::SubjectsController</title>
<ellipse fill="none" stroke="black" cx="1041.78" cy="-527.927" rx="105.808" ry="18"/>
<text text-anchor="middle" x="1041.78" y="-523.727" font-family="Times,serif" font-size="14.00">Admin::SubjectsController</text>
</g>
<!-- Admin::BaseController&#45;&gt;Admin::SubjectsController -->
<g id="edge15" class="edge"><title>Admin::BaseController&#45;&gt;Admin::SubjectsController</title>
<path fill="none" stroke="black" d="M892.729,-490.742C920.502,-497.671 953.865,-505.994 981.979,-513.008"/>
</g>
<!-- Admin::TagsController -->
<g id="node17" class="node"><title>Admin::TagsController</title>
<ellipse fill="none" stroke="black" cx="1042.27" cy="-306.628" rx="92.5182" ry="18"/>
<text text-anchor="middle" x="1042.27" y="-302.428" font-family="Times,serif" font-size="14.00">Admin::TagsController</text>
</g>
<!-- Admin::BaseController&#45;&gt;Admin::TagsController -->
<g id="edge16" class="edge"><title>Admin::BaseController&#45;&gt;Admin::TagsController</title>
<path fill="none" stroke="black" d="M856.903,-458.942C896.513,-426.394 980.978,-356.992 1020.73,-324.324"/>
</g>
<!-- Admin::ThemesController -->
<g id="node18" class="node"><title>Admin::ThemesController</title>
<ellipse fill="none" stroke="black" cx="1207.39" cy="-25.2037" rx="103.861" ry="18"/>
<text text-anchor="middle" x="1207.39" y="-21.0037" font-family="Times,serif" font-size="14.00">Admin::ThemesController</text>
</g>
<!-- Admin::BaseController&#45;&gt;Admin::ThemesController -->
<g id="edge17" class="edge"><title>Admin::BaseController&#45;&gt;Admin::ThemesController</title>
<path fill="none" stroke="black" d="M846.18,-458.466C865.184,-426.714 906.891,-359.164 948.163,-306.513 1031.13,-200.672 1145.04,-86.2579 1189.02,-43.059"/>
</g>
<!-- Admin::UsersController -->
<g id="node19" class="node"><title>Admin::UsersController</title>
<ellipse fill="none" stroke="black" cx="420.884" cy="-607.616" rx="96.1518" ry="18"/>
<text text-anchor="middle" x="420.884" y="-603.416" font-family="Times,serif" font-size="14.00">Admin::UsersController</text>
</g>
<!-- Admin::BaseController&#45;&gt;Admin::UsersController -->
<g id="edge18" class="edge"><title>Admin::BaseController&#45;&gt;Admin::UsersController</title>
<path fill="none" stroke="black" d="M796.025,-492.848C770.832,-503.009 737.379,-516.007 707.261,-526.093 628.588,-552.441 535.997,-577.795 477.865,-593.045"/>
</g>
<!-- Admin::VerificatorCommentsController -->
<g id="node20" class="node"><title>Admin::VerificatorCommentsController</title>
<ellipse fill="none" stroke="black" cx="151.585" cy="-764.21" rx="151.67" ry="18"/>
<text text-anchor="middle" x="151.585" y="-760.01" font-family="Times,serif" font-size="14.00">Admin::VerificatorCommentsController</text>
</g>
<!-- Admin::BaseController&#45;&gt;Admin::VerificatorCommentsController -->
<g id="edge19" class="edge"><title>Admin::BaseController&#45;&gt;Admin::VerificatorCommentsController</title>
<path fill="none" stroke="black" d="M796.329,-492.982C676.399,-543.434 315.364,-695.313 192.807,-746.869"/>
</g>
<!-- ApplicationController -->
<g id="node21" class="node"><title>ApplicationController</title>
<ellipse fill="none" stroke="black" cx="890.424" cy="-681.663" rx="88.417" ry="18"/>
<text text-anchor="middle" x="890.424" y="-677.463" font-family="Times,serif" font-size="14.00">ApplicationController</text>
</g>
<!-- ApplicationController&#45;&gt;Admin::BaseController -->
<g id="edge5" class="edge"><title>ApplicationController&#45;&gt;Admin::BaseController</title>
<path fill="none" stroke="black" d="M885.555,-663.454C875.144,-624.517 850.819,-533.548 840.417,-494.647"/>
</g>
<!-- ArticlesController -->
<g id="node22" class="node"><title>ArticlesController</title>
<ellipse fill="none" stroke="black" cx="435.746" cy="-868.559" rx="74.4016" ry="18"/>
<text text-anchor="middle" x="435.746" y="-864.359" font-family="Times,serif" font-size="14.00">ArticlesController</text>
</g>
<!-- ApplicationController&#45;&gt;ArticlesController -->
<g id="edge20" class="edge"><title>ApplicationController&#45;&gt;ArticlesController</title>
<path fill="none" stroke="black" d="M850.87,-697.922C764.232,-733.535 558.664,-818.034 473.604,-852.998"/>
</g>
<!-- BaseController -->
<g id="node23" class="node"><title>BaseController</title>
<ellipse fill="none" stroke="black" cx="936.526" cy="-875.452" rx="63.7942" ry="18"/>
<text text-anchor="middle" x="936.526" y="-871.252" font-family="Times,serif" font-size="14.00">BaseController</text>
</g>
<!-- ApplicationController&#45;&gt;BaseController -->
<g id="edge21" class="edge"><title>ApplicationController&#45;&gt;BaseController</title>
<path fill="none" stroke="black" d="M894.761,-699.894C903.57,-736.923 923.463,-820.541 932.234,-857.41"/>
</g>
<!-- ErrorsController -->
<g id="node28" class="node"><title>ErrorsController</title>
<ellipse fill="none" stroke="black" cx="1541.6" cy="-627.367" rx="68.6133" ry="18"/>
<text text-anchor="middle" x="1541.6" y="-623.167" font-family="Times,serif" font-size="14.00">ErrorsController</text>
</g>
<!-- ApplicationController&#45;&gt;ErrorsController -->
<g id="edge26" class="edge"><title>ApplicationController&#45;&gt;ErrorsController</title>
<path fill="none" stroke="black" d="M972.237,-674.841C1102.9,-663.947 1356.1,-642.834 1475.83,-632.851"/>
</g>
<!-- CardAffiliationsController -->
<g id="node24" class="node"><title>CardAffiliationsController</title>
<ellipse fill="none" stroke="black" cx="1017.57" cy="-1190.97" rx="103.87" ry="18"/>
<text text-anchor="middle" x="1017.57" y="-1186.77" font-family="Times,serif" font-size="14.00">CardAffiliationsController</text>
</g>
<!-- BaseController&#45;&gt;CardAffiliationsController -->
<g id="edge22" class="edge"><title>BaseController&#45;&gt;CardAffiliationsController</title>
<path fill="none" stroke="black" d="M941.234,-893.78C955.592,-949.677 998.714,-1117.55 1012.95,-1172.99"/>
</g>
<!-- CardWizardsController -->
<g id="node25" class="node"><title>CardWizardsController</title>
<ellipse fill="none" stroke="black" cx="1258" cy="-1172.83" rx="92.5197" ry="18"/>
<text text-anchor="middle" x="1258" y="-1168.63" font-family="Times,serif" font-size="14.00">CardWizardsController</text>
</g>
<!-- BaseController&#45;&gt;CardWizardsController -->
<g id="edge23" class="edge"><title>BaseController&#45;&gt;CardWizardsController</title>
<path fill="none" stroke="black" d="M955.2,-892.726C1011.88,-945.161 1181.58,-1102.14 1238.87,-1155.14"/>
</g>
<!-- CardsController -->
<g id="node26" class="node"><title>CardsController</title>
<ellipse fill="none" stroke="black" cx="682.494" cy="-1206.72" rx="67.177" ry="18"/>
<text text-anchor="middle" x="682.494" y="-1202.52" font-family="Times,serif" font-size="14.00">CardsController</text>
</g>
<!-- BaseController&#45;&gt;CardsController -->
<g id="edge24" class="edge"><title>BaseController&#45;&gt;CardsController</title>
<path fill="none" stroke="black" d="M922.868,-893.262C878.76,-950.781 740.423,-1131.18 696.219,-1188.82"/>
</g>
<!-- DocumentsController -->
<g id="node27" class="node"><title>DocumentsController</title>
<ellipse fill="none" stroke="black" cx="1166.07" cy="-719.851" rx="86.9722" ry="18"/>
<text text-anchor="middle" x="1166.07" y="-715.651" font-family="Times,serif" font-size="14.00">DocumentsController</text>
</g>
<!-- BaseController&#45;&gt;DocumentsController -->
<g id="edge25" class="edge"><title>BaseController&#45;&gt;DocumentsController</title>
<path fill="none" stroke="black" d="M961.091,-858.8C1004.92,-829.086 1096.18,-767.226 1140.63,-737.093"/>
</g>
<!-- OratorsController -->
<g id="node29" class="node"><title>OratorsController</title>
<ellipse fill="none" stroke="black" cx="680.75" cy="-924.752" rx="72.9567" ry="18"/>
<text text-anchor="middle" x="680.75" y="-920.552" font-family="Times,serif" font-size="14.00">OratorsController</text>
</g>
<!-- BaseController&#45;&gt;OratorsController -->
<g id="edge27" class="edge"><title>BaseController&#45;&gt;OratorsController</title>
<path fill="none" stroke="black" d="M883.839,-885.607C841.43,-893.781 781.908,-905.254 738.264,-913.666"/>
</g>
<!-- PagesController -->
<g id="node30" class="node"><title>PagesController</title>
<ellipse fill="none" stroke="black" cx="669.221" cy="-716.373" rx="67.177" ry="18"/>
<text text-anchor="middle" x="669.221" y="-712.173" font-family="Times,serif" font-size="14.00">PagesController</text>
</g>
<!-- BaseController&#45;&gt;PagesController -->
<g id="edge28" class="edge"><title>BaseController&#45;&gt;PagesController</title>
<path fill="none" stroke="black" d="M908.927,-859.027C857.705,-828.543 748.481,-763.542 697.071,-732.947"/>
</g>
<!-- PasswordResetsController -->
<g id="node31" class="node"><title>PasswordResetsController</title>
<ellipse fill="none" stroke="black" cx="1491.42" cy="-861.617" rx="103.394" ry="18"/>
<text text-anchor="middle" x="1491.42" y="-857.417" font-family="Times,serif" font-size="14.00">PasswordResetsController</text>
</g>
<!-- BaseController&#45;&gt;PasswordResetsController -->
<g id="edge29" class="edge"><title>BaseController&#45;&gt;PasswordResetsController</title>
<path fill="none" stroke="black" d="M1000.18,-873.865C1095.19,-871.496 1275.07,-867.011 1388.8,-864.176"/>
</g>
<!-- SearchesController -->
<g id="node32" class="node"><title>SearchesController</title>
<ellipse fill="none" stroke="black" cx="850.28" cy="-1091.85" rx="77.7676" ry="18"/>
<text text-anchor="middle" x="850.28" y="-1087.65" font-family="Times,serif" font-size="14.00">SearchesController</text>
</g>
<!-- BaseController&#45;&gt;SearchesController -->
<g id="edge30" class="edge"><title>BaseController&#45;&gt;SearchesController</title>
<path fill="none" stroke="black" d="M929.321,-893.53C913.087,-934.263 873.798,-1032.84 857.525,-1073.67"/>
</g>
<!-- SessionsController -->
<g id="node33" class="node"><title>SessionsController</title>
<ellipse fill="none" stroke="black" cx="1178.42" cy="-920.369" rx="76.8502" ry="18"/>
<text text-anchor="middle" x="1178.42" y="-916.169" font-family="Times,serif" font-size="14.00">SessionsController</text>
</g>
<!-- BaseController&#45;&gt;SessionsController -->
<g id="edge31" class="edge"><title>BaseController&#45;&gt;SessionsController</title>
<path fill="none" stroke="black" d="M989.911,-885.365C1027.76,-892.392 1078.59,-901.832 1117.94,-909.138"/>
</g>
<!-- SubjectsController -->
<g id="node34" class="node"><title>SubjectsController</title>
<ellipse fill="none" stroke="black" cx="155.283" cy="-1128.59" rx="76.3484" ry="18"/>
<text text-anchor="middle" x="155.283" y="-1124.39" font-family="Times,serif" font-size="14.00">SubjectsController</text>
</g>
<!-- BaseController&#45;&gt;SubjectsController -->
<g id="edge32" class="edge"><title>BaseController&#45;&gt;SubjectsController</title>
<path fill="none" stroke="black" d="M894.523,-889.062C759.825,-932.706 339.388,-1068.93 200.395,-1113.97"/>
</g>
<!-- UserAffiliationsController -->
<g id="node35" class="node"><title>UserAffiliationsController</title>
<ellipse fill="none" stroke="black" cx="441.449" cy="-1165.77" rx="103.385" ry="18"/>
<text text-anchor="middle" x="441.449" y="-1161.57" font-family="Times,serif" font-size="14.00">UserAffiliationsController</text>
</g>
<!-- BaseController&#45;&gt;UserAffiliationsController -->
<g id="edge33" class="edge"><title>BaseController&#45;&gt;UserAffiliationsController</title>
<path fill="none" stroke="black" d="M908.848,-891.683C822.711,-942.195 559.874,-1096.33 471.1,-1148.39"/>
</g>
<!-- UsersController -->
<g id="node36" class="node"><title>UsersController</title>
<ellipse fill="none" stroke="black" cx="1541.98" cy="-1153.46" rx="66.6925" ry="18"/>
<text text-anchor="middle" x="1541.98" y="-1149.26" font-family="Times,serif" font-size="14.00">UsersController</text>
</g>
<!-- BaseController&#45;&gt;UsersController -->
<g id="edge34" class="edge"><title>BaseController&#45;&gt;UsersController</title>
<path fill="none" stroke="black" d="M969.941,-890.795C1075.55,-939.288 1401.43,-1088.93 1507.92,-1137.83"/>
</g>
</g>
</svg>
