<?xml version="1.0" encoding="UTF-8" standalone="no"?>
<!DOCTYPE svg PUBLIC "-//W3C//DTD SVG 1.1//EN"
 "http://www.w3.org/Graphics/SVG/1.1/DTD/svg11.dtd">
<!-- Generated by graphviz version 2.34.0 (20140206.1422)
 -->
<!-- Title: controllers_diagram Pages: 1 -->
<svg width="1814pt" height="1134pt"
 viewBox="0.00 0.00 1813.55 1134.00" xmlns="http://www.w3.org/2000/svg" xmlns:xlink="http://www.w3.org/1999/xlink">
<g id="graph0" class="graph" transform="scale(1 1) rotate(0) translate(4 1130)">
<title>controllers_diagram</title>
<polygon fill="white" stroke="white" points="-4,4 -4,-1130 1809.55,-1130 1809.55,4 -4,4"/>
<!-- _diagram_info -->
<g id="node1" class="node"><title>_diagram_info</title>
<text text-anchor="start" x="424" y="-1109" font-family="Times,serif" font-size="13.00">Controllers diagram</text>
<text text-anchor="start" x="424" y="-1093.4" font-family="Times,serif" font-size="13.00">Date: Feb 06 2014 &#45; 19:05</text>
<text text-anchor="start" x="424" y="-1077.8" font-family="Times,serif" font-size="13.00">Migration version: 20140206155026</text>
<text text-anchor="start" x="424" y="-1062.2" font-family="Times,serif" font-size="13.00">Generated by RailRoady 1.1.1</text>
<text text-anchor="start" x="424" y="-1046.6" font-family="Times,serif" font-size="13.00">http://railroady.prestonlee.com</text>
</g>
<!-- Admin::ActionsController -->
<g id="node2" class="node"><title>Admin::ActionsController</title>
<ellipse fill="none" stroke="black" cx="164.056" cy="-502.251" rx="112.925" ry="18"/>
<text text-anchor="middle" x="164.056" y="-496.651" font-family="Times,serif" font-size="14.00">Admin::ActionsController</text>
</g>
<!-- Admin::AffiliationsController -->
<g id="node3" class="node"><title>Admin::AffiliationsController</title>
<ellipse fill="none" stroke="black" cx="979.956" cy="-363.496" rx="126.83" ry="18"/>
<text text-anchor="middle" x="979.956" y="-357.896" font-family="Times,serif" font-size="14.00">Admin::AffiliationsController</text>
</g>
<!-- Admin::BaseController -->
<g id="node4" class="node"><title>Admin::BaseController</title>
<ellipse fill="none" stroke="black" cx="619.801" cy="-481.46" rx="101.886" ry="18"/>
<text text-anchor="middle" x="619.801" y="-475.86" font-family="Times,serif" font-size="14.00">Admin::BaseController</text>
</g>
<!-- Admin::BaseController&#45;&gt;Admin::ActionsController -->
<g id="edge1" class="edge"><title>Admin::BaseController&#45;&gt;Admin::ActionsController</title>
<path fill="none" stroke="black" d="M521.192,-485.958C449.752,-489.218 352.984,-493.632 278.196,-497.044"/>
<polyline fill="none" stroke="black" points="272.85,-497.288 277.845,-497.06 "/>
</g>
<!-- Admin::BaseController&#45;&gt;Admin::AffiliationsController -->
<g id="edge2" class="edge"><title>Admin::BaseController&#45;&gt;Admin::AffiliationsController</title>
<path fill="none" stroke="black" d="M668.373,-465.551C734.938,-443.748 854.213,-404.682 924.299,-381.726"/>
<polyline fill="none" stroke="black" points="929.258,-380.101 924.507,-381.658 "/>
</g>
<!-- Admin::CardTypesController -->
<g id="node5" class="node"><title>Admin::CardTypesController</title>
<ellipse fill="none" stroke="black" cx="573.24" cy="-886.997" rx="124.738" ry="18"/>
<text text-anchor="middle" x="573.24" y="-881.397" font-family="Times,serif" font-size="14.00">Admin::CardTypesController</text>
</g>
<!-- Admin::BaseController&#45;&gt;Admin::CardTypesController -->
<g id="edge4" class="edge"><title>Admin::BaseController&#45;&gt;Admin::CardTypesController</title>
<path fill="none" stroke="black" d="M617.71,-499.673C610.159,-565.446 584.3,-790.663 575.899,-863.833"/>
<polyline fill="none" stroke="black" points="575.325,-868.834 575.896,-863.867 "/>
</g>
<!-- Admin::CardsController -->
<g id="node6" class="node"><title>Admin::CardsController</title>
<ellipse fill="none" stroke="black" cx="926.051" cy="-640.294" rx="105.402" ry="18"/>
<text text-anchor="middle" x="926.051" y="-634.694" font-family="Times,serif" font-size="14.00">Admin::CardsController</text>
</g>
<!-- Admin::BaseController&#45;&gt;Admin::CardsController -->
<g id="edge5" class="edge"><title>Admin::BaseController&#45;&gt;Admin::CardsController</title>
<path fill="none" stroke="black" d="M652.866,-498.609C710.148,-528.317 827.498,-589.18 888.045,-620.583"/>
<polyline fill="none" stroke="black" points="892.66,-622.976 888.221,-620.674 "/>
</g>
<!-- Admin::OwnershipsController -->
<g id="node7" class="node"><title>Admin::OwnershipsController</title>
<ellipse fill="none" stroke="black" cx="129.056" cy="-900.963" rx="129.112" ry="18"/>
<text text-anchor="middle" x="129.056" y="-895.363" font-family="Times,serif" font-size="14.00">Admin::OwnershipsController</text>
</g>
<!-- Admin::BaseController&#45;&gt;Admin::OwnershipsController -->
<g id="edge6" class="edge"><title>Admin::BaseController&#45;&gt;Admin::OwnershipsController</title>
<path fill="none" stroke="black" d="M599.028,-499.217C520.191,-566.609 239.637,-806.435 154.036,-879.609"/>
<polyline fill="none" stroke="black" points="150.109,-882.966 153.909,-879.717 "/>
</g>
<!-- Admin::PagesController -->
<g id="node8" class="node"><title>Admin::PagesController</title>
<ellipse fill="none" stroke="black" cx="513.419" cy="-90.9431" rx="105.402" ry="18"/>
<text text-anchor="middle" x="513.419" y="-85.3431" font-family="Times,serif" font-size="14.00">Admin::PagesController</text>
</g>
<!-- Admin::BaseController&#45;&gt;Admin::PagesController -->
<g id="edge7" class="edge"><title>Admin::BaseController&#45;&gt;Admin::PagesController</title>
<path fill="none" stroke="black" d="M614.884,-463.408C597.525,-399.685 539.123,-185.3 519.734,-114.127"/>
<polyline fill="none" stroke="black" points="518.407,-109.254 519.721,-114.078 "/>
</g>
<!-- Admin::ResponsablesController -->
<g id="node9" class="node"><title>Admin::ResponsablesController</title>
<ellipse fill="none" stroke="black" cx="1326.73" cy="-131.61" rx="135.485" ry="18"/>
<text text-anchor="middle" x="1326.73" y="-126.01" font-family="Times,serif" font-size="14.00">Admin::ResponsablesController</text>
</g>
<!-- Admin::BaseController&#45;&gt;Admin::ResponsablesController -->
<g id="edge8" class="edge"><title>Admin::BaseController&#45;&gt;Admin::ResponsablesController</title>
<path fill="none" stroke="black" d="M653.08,-464.251C697.989,-441.081 780.546,-398.681 851.446,-363.323 1011.53,-283.488 1203.3,-190.932 1285.75,-151.281"/>
<polyline fill="none" stroke="black" points="1290.55,-148.975 1286.04,-151.142 "/>
</g>
<!-- Admin::TagsController -->
<g id="node10" class="node"><title>Admin::TagsController</title>
<ellipse fill="none" stroke="black" cx="106.705" cy="-94.8068" rx="101.037" ry="18"/>
<text text-anchor="middle" x="106.705" y="-89.2068" font-family="Times,serif" font-size="14.00">Admin::TagsController</text>
</g>
<!-- Admin::BaseController&#45;&gt;Admin::TagsController -->
<g id="edge9" class="edge"><title>Admin::BaseController&#45;&gt;Admin::TagsController</title>
<path fill="none" stroke="black" d="M596.421,-463.841C512.28,-400.435 225.091,-184.019 134.391,-115.67"/>
<polyline fill="none" stroke="black" points="130.222,-112.529 134.215,-115.538 "/>
</g>
<!-- Admin::UsersController -->
<g id="node11" class="node"><title>Admin::UsersController</title>
<ellipse fill="none" stroke="black" cx="1060.05" cy="-18" rx="104.827" ry="18"/>
<text text-anchor="middle" x="1060.05" y="-12.4" font-family="Times,serif" font-size="14.00">Admin::UsersController</text>
</g>
<!-- Admin::BaseController&#45;&gt;Admin::UsersController -->
<g id="edge10" class="edge"><title>Admin::BaseController&#45;&gt;Admin::UsersController</title>
<path fill="none" stroke="black" d="M636.79,-463.576C705.642,-391.095 963.827,-119.299 1039.25,-39.9056"/>
<polyline fill="none" stroke="black" points="1043.12,-35.8309 1039.67,-39.4561 "/>
</g>
<!-- Admin::VerificatorCommentsController -->
<g id="node12" class="node"><title>Admin::VerificatorCommentsController</title>
<ellipse fill="none" stroke="black" cx="789.032" cy="-78.1281" rx="165.558" ry="18"/>
<text text-anchor="middle" x="789.032" y="-72.5281" font-family="Times,serif" font-size="14.00">Admin::VerificatorCommentsController</text>
</g>
<!-- Admin::BaseController&#45;&gt;Admin::VerificatorCommentsController -->
<g id="edge11" class="edge"><title>Admin::BaseController&#45;&gt;Admin::VerificatorCommentsController</title>
<path fill="none" stroke="black" d="M627.402,-463.346C654.849,-397.931 748.832,-173.937 779.366,-101.166"/>
<polyline fill="none" stroke="black" points="781.453,-96.192 779.518,-100.803 "/>
</g>
<!-- ApplicationController -->
<g id="node13" class="node"><title>ApplicationController</title>
<ellipse fill="none" stroke="black" cx="1280.19" cy="-534.277" rx="96.1448" ry="18"/>
<text text-anchor="middle" x="1280.19" y="-528.677" font-family="Times,serif" font-size="14.00">ApplicationController</text>
</g>
<!-- ApplicationController&#45;&gt;Admin::BaseController -->
<g id="edge3" class="edge"><title>ApplicationController&#45;&gt;Admin::BaseController</title>
<path fill="none" stroke="black" d="M1191.47,-527.181C1068.21,-517.323 845.92,-499.544 717.87,-489.303"/>
<polyline fill="none" stroke="black" points="712.6,-488.882 717.584,-489.28 "/>
</g>
<!-- CardsController -->
<g id="node14" class="node"><title>CardsController</title>
<ellipse fill="none" stroke="black" cx="1711.32" cy="-902.426" rx="73.0201" ry="18"/>
<text text-anchor="middle" x="1711.32" y="-896.826" font-family="Times,serif" font-size="14.00">CardsController</text>
</g>
<!-- ApplicationController&#45;&gt;CardsController -->
<g id="edge12" class="edge"><title>ApplicationController&#45;&gt;CardsController</title>
<path fill="none" stroke="black" d="M1300.98,-552.033C1372.7,-613.274 1609.53,-815.509 1686.74,-881.441"/>
<polyline fill="none" stroke="black" points="1690.73,-884.848 1686.93,-881.601 "/>
</g>
<!-- PagesController -->
<g id="node15" class="node"><title>PagesController</title>
<ellipse fill="none" stroke="black" cx="1254.79" cy="-914.311" rx="73.0201" ry="18"/>
<text text-anchor="middle" x="1254.79" y="-908.711" font-family="Times,serif" font-size="14.00">PagesController</text>
</g>
<!-- ApplicationController&#45;&gt;PagesController -->
<g id="edge13" class="edge"><title>ApplicationController&#45;&gt;PagesController</title>
<path fill="none" stroke="black" d="M1278.98,-552.351C1274.81,-614.745 1261.02,-821.084 1256.35,-890.948"/>
<polyline fill="none" stroke="black" points="1256.01,-896.126 1256.34,-891.137 "/>
</g>
<!-- SearchesController -->
<g id="node16" class="node"><title>SearchesController</title>
<ellipse fill="none" stroke="black" cx="907.154" cy="-958.441" rx="85.0959" ry="18"/>
<text text-anchor="middle" x="907.154" y="-952.841" font-family="Times,serif" font-size="14.00">SearchesController</text>
</g>
<!-- ApplicationController&#45;&gt;SearchesController -->
<g id="edge14" class="edge"><title>ApplicationController&#45;&gt;SearchesController</title>
<path fill="none" stroke="black" d="M1264.4,-552.232C1204.45,-620.392 991.088,-863.003 926.086,-936.914"/>
<polyline fill="none" stroke="black" points="922.741,-940.717 926.043,-936.963 "/>
</g>
<!-- SessionsController -->
<g id="node17" class="node"><title>SessionsController</title>
<ellipse fill="none" stroke="black" cx="1721.55" cy="-493.237" rx="84.0023" ry="18"/>
<text text-anchor="middle" x="1721.55" y="-487.637" font-family="Times,serif" font-size="14.00">SessionsController</text>
</g>
<!-- ApplicationController&#45;&gt;SessionsController -->
<g id="edge15" class="edge"><title>ApplicationController&#45;&gt;SessionsController</title>
<path fill="none" stroke="black" d="M1366.6,-526.242C1445.55,-518.901 1561.48,-508.121 1639.15,-500.899"/>
<polyline fill="none" stroke="black" points="1644.21,-500.429 1639.23,-500.892 "/>
</g>
<!-- UsersController -->
<g id="node18" class="node"><title>UsersController</title>
<ellipse fill="none" stroke="black" cx="1729.84" cy="-78.8784" rx="72.9449" ry="18"/>
<text text-anchor="middle" x="1729.84" y="-73.2784" font-family="Times,serif" font-size="14.00">UsersController</text>
</g>
<!-- ApplicationController&#45;&gt;UsersController -->
<g id="edge16" class="edge"><title>ApplicationController&#45;&gt;UsersController</title>
<path fill="none" stroke="black" d="M1297.82,-516.425C1368.48,-444.855 1631.17,-178.812 1708.37,-100.622"/>
<polyline fill="none" stroke="black" points="1712.33,-96.6071 1708.82,-100.165 "/>
</g>
</g>
</svg>
