<?xml version="1.0" encoding="UTF-8" standalone="no"?>
<!DOCTYPE svg PUBLIC "-//W3C//DTD SVG 1.1//EN"
 "http://www.w3.org/Graphics/SVG/1.1/DTD/svg11.dtd">
<!-- Generated by graphviz version 2.36.0 (20140111.2315)
 -->
<!-- Title: controllers_diagram Pages: 1 -->
<svg width="1355pt" height="1372pt"
 viewBox="0.00 0.00 1355.38 1372.29" xmlns="http://www.w3.org/2000/svg" xmlns:xlink="http://www.w3.org/1999/xlink">
<g id="graph0" class="graph" transform="scale(1 1) rotate(0) translate(4 1368.29)">
<title>controllers_diagram</title>
<polygon fill="white" stroke="none" points="-4,4 -4,-1368.29 1351.38,-1368.29 1351.38,4 -4,4"/>
<!-- _diagram_info -->
<g id="node1" class="node"><title>_diagram_info</title>
<text text-anchor="start" x="1148" y="-1008.6" font-family="Times,serif" font-size="13.00">Controllers diagram</text>
<text text-anchor="start" x="1148" y="-995.6" font-family="Times,serif" font-size="13.00">Date: Feb 27 2014 &#45; 15:31</text>
<text text-anchor="start" x="1148" y="-982.6" font-family="Times,serif" font-size="13.00">Migration version: 20140222095137</text>
<text text-anchor="start" x="1148" y="-969.6" font-family="Times,serif" font-size="13.00">Generated by RailRoady 1.1.1</text>
<text text-anchor="start" x="1148" y="-956.6" font-family="Times,serif" font-size="13.00">http://railroady.prestonlee.com</text>
</g>
<!-- Admin::AccessTokensController -->
<g id="node2" class="node"><title>Admin::AccessTokensController</title>
<path fill="none" stroke="black" d="M18.928,-322.867C18.928,-322.867 195.027,-322.867 195.027,-322.867 201.027,-322.867 207.027,-328.867 207.027,-334.867 207.027,-334.867 207.027,-456.867 207.027,-456.867 207.027,-462.867 201.027,-468.867 195.027,-468.867 195.027,-468.867 18.928,-468.867 18.928,-468.867 12.928,-468.867 6.92795,-462.867 6.92795,-456.867 6.92795,-456.867 6.92795,-334.867 6.92795,-334.867 6.92795,-328.867 12.928,-322.867 18.928,-322.867"/>
<text text-anchor="middle" x="106.977" y="-453.667" font-family="Times,serif" font-size="14.00">Admin::AccessTokensController</text>
<polyline fill="none" stroke="black" points="6.92795,-446.867 207.027,-446.867 "/>
<text text-anchor="start" x="14.928" y="-431.667" font-family="Times,serif" font-size="14.00">create</text>
<text text-anchor="start" x="14.928" y="-417.667" font-family="Times,serif" font-size="14.00">destroy</text>
<text text-anchor="start" x="14.928" y="-403.667" font-family="Times,serif" font-size="14.00">index</text>
<polyline fill="none" stroke="black" points="6.92795,-396.867 207.027,-396.867 "/>
<polyline fill="none" stroke="black" points="6.92795,-372.867 207.027,-372.867 "/>
<text text-anchor="start" x="14.928" y="-357.667" font-family="Times,serif" font-size="14.00">_layout</text>
<text text-anchor="start" x="14.928" y="-343.667" font-family="Times,serif" font-size="14.00">access_token_params</text>
<text text-anchor="start" x="14.928" y="-329.667" font-family="Times,serif" font-size="14.00">current_resource</text>
</g>
<!-- Admin::ActionsController -->
<g id="node3" class="node"><title>Admin::ActionsController</title>
<path fill="none" stroke="black" d="M650.517,-381.681C650.517,-381.681 790.283,-381.681 790.283,-381.681 796.283,-381.681 802.283,-387.681 802.283,-393.681 802.283,-393.681 802.283,-557.681 802.283,-557.681 802.283,-563.681 796.283,-569.681 790.283,-569.681 790.283,-569.681 650.517,-569.681 650.517,-569.681 644.517,-569.681 638.517,-563.681 638.517,-557.681 638.517,-557.681 638.517,-393.681 638.517,-393.681 638.517,-387.681 644.517,-381.681 650.517,-381.681"/>
<text text-anchor="middle" x="720.4" y="-554.481" font-family="Times,serif" font-size="14.00">Admin::ActionsController</text>
<polyline fill="none" stroke="black" points="638.517,-547.681 802.283,-547.681 "/>
<text text-anchor="start" x="646.517" y="-532.481" font-family="Times,serif" font-size="14.00">create</text>
<text text-anchor="start" x="646.517" y="-518.481" font-family="Times,serif" font-size="14.00">destroy</text>
<text text-anchor="start" x="646.517" y="-504.481" font-family="Times,serif" font-size="14.00">edit</text>
<text text-anchor="start" x="646.517" y="-490.481" font-family="Times,serif" font-size="14.00">index</text>
<text text-anchor="start" x="646.517" y="-476.481" font-family="Times,serif" font-size="14.00">new</text>
<text text-anchor="start" x="646.517" y="-462.481" font-family="Times,serif" font-size="14.00">update</text>
<polyline fill="none" stroke="black" points="638.517,-455.681 802.283,-455.681 "/>
<polyline fill="none" stroke="black" points="638.517,-431.681 802.283,-431.681 "/>
<text text-anchor="start" x="646.517" y="-416.481" font-family="Times,serif" font-size="14.00">_layout</text>
<text text-anchor="start" x="646.517" y="-402.481" font-family="Times,serif" font-size="14.00">action_params</text>
<text text-anchor="start" x="646.517" y="-388.481" font-family="Times,serif" font-size="14.00">current_resource</text>
</g>
<!-- Admin::AffiliationsController -->
<g id="node4" class="node"><title>Admin::AffiliationsController</title>
<path fill="none" stroke="black" d="M336.721,-0.5C336.721,-0.5 496.714,-0.5 496.714,-0.5 502.714,-0.5 508.714,-6.5 508.714,-12.5 508.714,-12.5 508.714,-176.5 508.714,-176.5 508.714,-182.5 502.714,-188.5 496.714,-188.5 496.714,-188.5 336.721,-188.5 336.721,-188.5 330.721,-188.5 324.721,-182.5 324.721,-176.5 324.721,-176.5 324.721,-12.5 324.721,-12.5 324.721,-6.5 330.721,-0.5 336.721,-0.5"/>
<text text-anchor="middle" x="416.717" y="-173.3" font-family="Times,serif" font-size="14.00">Admin::AffiliationsController</text>
<polyline fill="none" stroke="black" points="324.721,-166.5 508.714,-166.5 "/>
<text text-anchor="start" x="332.721" y="-151.3" font-family="Times,serif" font-size="14.00">create</text>
<text text-anchor="start" x="332.721" y="-137.3" font-family="Times,serif" font-size="14.00">destroy</text>
<text text-anchor="start" x="332.721" y="-123.3" font-family="Times,serif" font-size="14.00">edit</text>
<text text-anchor="start" x="332.721" y="-109.3" font-family="Times,serif" font-size="14.00">index</text>
<text text-anchor="start" x="332.721" y="-95.3" font-family="Times,serif" font-size="14.00">new</text>
<text text-anchor="start" x="332.721" y="-81.3" font-family="Times,serif" font-size="14.00">update</text>
<polyline fill="none" stroke="black" points="324.721,-74.5 508.714,-74.5 "/>
<polyline fill="none" stroke="black" points="324.721,-50.5 508.714,-50.5 "/>
<text text-anchor="start" x="332.721" y="-35.3" font-family="Times,serif" font-size="14.00">_layout</text>
<text text-anchor="start" x="332.721" y="-21.3" font-family="Times,serif" font-size="14.00">affiliation_params</text>
<text text-anchor="start" x="332.721" y="-7.3" font-family="Times,serif" font-size="14.00">current_resource</text>
</g>
<!-- Admin::BaseController -->
<g id="node5" class="node"><title>Admin::BaseController</title>
<path fill="none" stroke="black" d="M478.89,-547.54C478.89,-547.54 602.317,-547.54 602.317,-547.54 608.317,-547.54 614.317,-553.54 614.317,-559.54 614.317,-559.54 614.317,-683.54 614.317,-683.54 614.317,-689.54 608.317,-695.54 602.317,-695.54 602.317,-695.54 478.89,-695.54 478.89,-695.54 472.89,-695.54 466.89,-689.54 466.89,-683.54 466.89,-683.54 466.89,-559.54 466.89,-559.54 466.89,-553.54 472.89,-547.54 478.89,-547.54"/>
<text text-anchor="middle" x="540.604" y="-680.34" font-family="Times,serif" font-size="14.00">Admin::BaseController</text>
<polyline fill="none" stroke="black" points="466.89,-673.54 614.317,-673.54 "/>
<polyline fill="none" stroke="black" points="466.89,-649.54 614.317,-649.54 "/>
<polyline fill="none" stroke="black" points="466.89,-625.54 614.317,-625.54 "/>
<text text-anchor="start" x="474.89" y="-610.34" font-family="Times,serif" font-size="14.00">_layout</text>
<text text-anchor="start" x="474.89" y="-596.34" font-family="Times,serif" font-size="14.00">authorize_action</text>
<text text-anchor="start" x="474.89" y="-582.34" font-family="Times,serif" font-size="14.00">authorize_create</text>
<text text-anchor="start" x="474.89" y="-568.34" font-family="Times,serif" font-size="14.00">authorize_modify</text>
<text text-anchor="start" x="474.89" y="-554.34" font-family="Times,serif" font-size="14.00">connected?</text>
</g>
<!-- Admin::BaseController&#45;&gt;Admin::AccessTokensController -->
<g id="edge1" class="edge"><title>Admin::BaseController&#45;&gt;Admin::AccessTokensController</title>
<path fill="none" stroke="black" d="M488.176,-547.501C461.893,-515.864 427.402,-481.508 388.631,-460.745 372.487,-452.1 365.957,-457.474 348.019,-453.786 301.541,-444.231 250.389,-432.163 207.21,-421.52"/>
</g>
<!-- Admin::BaseController&#45;&gt;Admin::ActionsController -->
<g id="edge2" class="edge"><title>Admin::BaseController&#45;&gt;Admin::ActionsController</title>
<path fill="none" stroke="black" d="M614.512,-561.582C622.357,-555.218 630.371,-548.717 638.302,-542.283"/>
</g>
<!-- Admin::BaseController&#45;&gt;Admin::AffiliationsController -->
<g id="edge3" class="edge"><title>Admin::BaseController&#45;&gt;Admin::AffiliationsController</title>
<path fill="none" stroke="black" d="M543.487,-547.405C544.209,-478.707 540.313,-374.321 515.847,-287.386 506.361,-253.68 490.684,-219.008 474.567,-188.52"/>
</g>
<!-- Admin::CardTypesController -->
<g id="node6" class="node"><title>Admin::CardTypesController</title>
<path fill="none" stroke="black" d="M635.443,-688.402C635.443,-688.402 792.107,-688.402 792.107,-688.402 798.107,-688.402 804.107,-694.402 804.107,-700.402 804.107,-700.402 804.107,-864.402 804.107,-864.402 804.107,-870.402 798.107,-876.402 792.107,-876.402 792.107,-876.402 635.443,-876.402 635.443,-876.402 629.443,-876.402 623.443,-870.402 623.443,-864.402 623.443,-864.402 623.443,-700.402 623.443,-700.402 623.443,-694.402 629.443,-688.402 635.443,-688.402"/>
<text text-anchor="middle" x="713.775" y="-861.202" font-family="Times,serif" font-size="14.00">Admin::CardTypesController</text>
<polyline fill="none" stroke="black" points="623.443,-854.402 804.107,-854.402 "/>
<text text-anchor="start" x="631.443" y="-839.202" font-family="Times,serif" font-size="14.00">create</text>
<text text-anchor="start" x="631.443" y="-825.202" font-family="Times,serif" font-size="14.00">destroy</text>
<text text-anchor="start" x="631.443" y="-811.202" font-family="Times,serif" font-size="14.00">edit</text>
<text text-anchor="start" x="631.443" y="-797.202" font-family="Times,serif" font-size="14.00">index</text>
<text text-anchor="start" x="631.443" y="-783.202" font-family="Times,serif" font-size="14.00">new</text>
<text text-anchor="start" x="631.443" y="-769.202" font-family="Times,serif" font-size="14.00">update</text>
<polyline fill="none" stroke="black" points="623.443,-762.402 804.107,-762.402 "/>
<polyline fill="none" stroke="black" points="623.443,-738.402 804.107,-738.402 "/>
<text text-anchor="start" x="631.443" y="-723.202" font-family="Times,serif" font-size="14.00">_layout</text>
<text text-anchor="start" x="631.443" y="-709.202" font-family="Times,serif" font-size="14.00">card_type_params</text>
<text text-anchor="start" x="631.443" y="-695.202" font-family="Times,serif" font-size="14.00">current_resource</text>
</g>
<!-- Admin::BaseController&#45;&gt;Admin::CardTypesController -->
<g id="edge5" class="edge"><title>Admin::BaseController&#45;&gt;Admin::CardTypesController</title>
<path fill="none" stroke="black" d="M614.546,-690.227C617.488,-692.959 620.449,-695.71 623.417,-698.467"/>
</g>
<!-- Admin::CardsController -->
<g id="node7" class="node"><title>Admin::CardsController</title>
<path fill="none" stroke="black" d="M244.555,-463.945C244.555,-463.945 373.431,-463.945 373.431,-463.945 379.431,-463.945 385.431,-469.945 385.431,-475.945 385.431,-475.945 385.431,-723.945 385.431,-723.945 385.431,-729.945 379.431,-735.945 373.431,-735.945 373.431,-735.945 244.555,-735.945 244.555,-735.945 238.555,-735.945 232.555,-729.945 232.555,-723.945 232.555,-723.945 232.555,-475.945 232.555,-475.945 232.555,-469.945 238.555,-463.945 244.555,-463.945"/>
<text text-anchor="middle" x="308.993" y="-720.745" font-family="Times,serif" font-size="14.00">Admin::CardsController</text>
<polyline fill="none" stroke="black" points="232.555,-713.945 385.431,-713.945 "/>
<text text-anchor="start" x="240.555" y="-698.745" font-family="Times,serif" font-size="14.00">create</text>
<text text-anchor="start" x="240.555" y="-684.745" font-family="Times,serif" font-size="14.00">destroy</text>
<text text-anchor="start" x="240.555" y="-670.745" font-family="Times,serif" font-size="14.00">edit</text>
<text text-anchor="start" x="240.555" y="-656.745" font-family="Times,serif" font-size="14.00">index</text>
<text text-anchor="start" x="240.555" y="-642.745" font-family="Times,serif" font-size="14.00">new</text>
<text text-anchor="start" x="240.555" y="-628.745" font-family="Times,serif" font-size="14.00">show</text>
<text text-anchor="start" x="240.555" y="-614.745" font-family="Times,serif" font-size="14.00">update</text>
<text text-anchor="start" x="240.555" y="-600.745" font-family="Times,serif" font-size="14.00">verificate</text>
<polyline fill="none" stroke="black" points="232.555,-593.945 385.431,-593.945 "/>
<polyline fill="none" stroke="black" points="232.555,-569.945 385.431,-569.945 "/>
<text text-anchor="start" x="240.555" y="-554.745" font-family="Times,serif" font-size="14.00">_layout</text>
<text text-anchor="start" x="240.555" y="-540.745" font-family="Times,serif" font-size="14.00">attributes</text>
<text text-anchor="start" x="240.555" y="-526.745" font-family="Times,serif" font-size="14.00">card_admins</text>
<text text-anchor="start" x="240.555" y="-512.745" font-family="Times,serif" font-size="14.00">card_params</text>
<text text-anchor="start" x="240.555" y="-498.745" font-family="Times,serif" font-size="14.00">current_resource</text>
<text text-anchor="start" x="240.555" y="-484.745" font-family="Times,serif" font-size="14.00">verificators_emails</text>
<text text-anchor="start" x="240.555" y="-470.745" font-family="Times,serif" font-size="14.00">verified?</text>
</g>
<!-- Admin::BaseController&#45;&gt;Admin::CardsController -->
<g id="edge6" class="edge"><title>Admin::BaseController&#45;&gt;Admin::CardsController</title>
<path fill="none" stroke="black" d="M466.684,-614.648C440.868,-612.241 411.843,-609.535 385.798,-607.107"/>
</g>
<!-- Admin::OwnershipsController -->
<g id="node8" class="node"><title>Admin::OwnershipsController</title>
<path fill="none" stroke="black" d="M28.9361,-19.0497C28.9361,-19.0497 192.033,-19.0497 192.033,-19.0497 198.033,-19.0497 204.033,-25.0497 204.033,-31.0497 204.033,-31.0497 204.033,-195.05 204.033,-195.05 204.033,-201.05 198.033,-207.05 192.033,-207.05 192.033,-207.05 28.9361,-207.05 28.9361,-207.05 22.9361,-207.05 16.9361,-201.05 16.9361,-195.05 16.9361,-195.05 16.9361,-31.0497 16.9361,-31.0497 16.9361,-25.0497 22.9361,-19.0497 28.9361,-19.0497"/>
<text text-anchor="middle" x="110.484" y="-191.85" font-family="Times,serif" font-size="14.00">Admin::OwnershipsController</text>
<polyline fill="none" stroke="black" points="16.9361,-185.05 204.033,-185.05 "/>
<text text-anchor="start" x="24.9361" y="-169.85" font-family="Times,serif" font-size="14.00">create</text>
<text text-anchor="start" x="24.9361" y="-155.85" font-family="Times,serif" font-size="14.00">destroy</text>
<text text-anchor="start" x="24.9361" y="-141.85" font-family="Times,serif" font-size="14.00">edit</text>
<text text-anchor="start" x="24.9361" y="-127.85" font-family="Times,serif" font-size="14.00">index</text>
<text text-anchor="start" x="24.9361" y="-113.85" font-family="Times,serif" font-size="14.00">new</text>
<text text-anchor="start" x="24.9361" y="-99.8497" font-family="Times,serif" font-size="14.00">update</text>
<polyline fill="none" stroke="black" points="16.9361,-93.0497 204.033,-93.0497 "/>
<polyline fill="none" stroke="black" points="16.9361,-69.0497 204.033,-69.0497 "/>
<text text-anchor="start" x="24.9361" y="-53.8497" font-family="Times,serif" font-size="14.00">_layout</text>
<text text-anchor="start" x="24.9361" y="-39.8497" font-family="Times,serif" font-size="14.00">current_resource</text>
<text text-anchor="start" x="24.9361" y="-25.8497" font-family="Times,serif" font-size="14.00">ownership_params</text>
</g>
<!-- Admin::BaseController&#45;&gt;Admin::OwnershipsController -->
<g id="edge7" class="edge"><title>Admin::BaseController&#45;&gt;Admin::OwnershipsController</title>
<path fill="none" stroke="black" d="M488.176,-547.501C461.893,-515.864 427.402,-481.508 388.631,-460.745 372.487,-452.1 363.477,-463.604 348.019,-453.786 255.647,-395.117 189.321,-286.275 150.621,-207.357"/>
</g>
<!-- Admin::PagesController -->
<g id="node9" class="node"><title>Admin::PagesController</title>
<path fill="none" stroke="black" d="M911.729,-344.895C911.729,-344.895 1040.6,-344.895 1040.6,-344.895 1046.6,-344.895 1052.6,-350.895 1052.6,-356.895 1052.6,-356.895 1052.6,-478.895 1052.6,-478.895 1052.6,-484.895 1046.6,-490.895 1040.6,-490.895 1040.6,-490.895 911.729,-490.895 911.729,-490.895 905.729,-490.895 899.729,-484.895 899.729,-478.895 899.729,-478.895 899.729,-356.895 899.729,-356.895 899.729,-350.895 905.729,-344.895 911.729,-344.895"/>
<text text-anchor="middle" x="976.167" y="-475.695" font-family="Times,serif" font-size="14.00">Admin::PagesController</text>
<polyline fill="none" stroke="black" points="899.729,-468.895 1052.6,-468.895 "/>
<text text-anchor="start" x="907.729" y="-453.695" font-family="Times,serif" font-size="14.00">edit</text>
<text text-anchor="start" x="907.729" y="-439.695" font-family="Times,serif" font-size="14.00">index</text>
<text text-anchor="start" x="907.729" y="-425.695" font-family="Times,serif" font-size="14.00">update</text>
<polyline fill="none" stroke="black" points="899.729,-418.895 1052.6,-418.895 "/>
<polyline fill="none" stroke="black" points="899.729,-394.895 1052.6,-394.895 "/>
<text text-anchor="start" x="907.729" y="-379.695" font-family="Times,serif" font-size="14.00">_layout</text>
<text text-anchor="start" x="907.729" y="-365.695" font-family="Times,serif" font-size="14.00">current_resource</text>
<text text-anchor="start" x="907.729" y="-351.695" font-family="Times,serif" font-size="14.00">page_params</text>
</g>
<!-- Admin::BaseController&#45;&gt;Admin::PagesController -->
<g id="edge8" class="edge"><title>Admin::BaseController&#45;&gt;Admin::PagesController</title>
<path fill="none" stroke="black" d="M614.552,-618.823C669.665,-614.28 745.451,-602.583 805.483,-572.881 845.663,-553.001 883.355,-520.851 913.046,-490.972"/>
</g>
<!-- Admin::ParentsController -->
<g id="node10" class="node"><title>Admin::ParentsController</title>
<path fill="none" stroke="black" d="M363.219,-290.586C363.219,-290.586 500.647,-290.586 500.647,-290.586 506.647,-290.586 512.647,-296.586 512.647,-302.586 512.647,-302.586 512.647,-438.586 512.647,-438.586 512.647,-444.586 506.647,-450.586 500.647,-450.586 500.647,-450.586 363.219,-450.586 363.219,-450.586 357.219,-450.586 351.219,-444.586 351.219,-438.586 351.219,-438.586 351.219,-302.586 351.219,-302.586 351.219,-296.586 357.219,-290.586 363.219,-290.586"/>
<text text-anchor="middle" x="431.933" y="-435.386" font-family="Times,serif" font-size="14.00">Admin::ParentsController</text>
<polyline fill="none" stroke="black" points="351.219,-428.586 512.647,-428.586 "/>
<text text-anchor="start" x="359.219" y="-413.386" font-family="Times,serif" font-size="14.00">edit</text>
<text text-anchor="start" x="359.219" y="-399.386" font-family="Times,serif" font-size="14.00">index</text>
<text text-anchor="start" x="359.219" y="-385.386" font-family="Times,serif" font-size="14.00">new</text>
<text text-anchor="start" x="359.219" y="-371.386" font-family="Times,serif" font-size="14.00">update</text>
<polyline fill="none" stroke="black" points="351.219,-364.586 512.647,-364.586 "/>
<polyline fill="none" stroke="black" points="351.219,-340.586 512.647,-340.586 "/>
<text text-anchor="start" x="359.219" y="-325.386" font-family="Times,serif" font-size="14.00">_layout</text>
<text text-anchor="start" x="359.219" y="-311.386" font-family="Times,serif" font-size="14.00">current_resource</text>
<text text-anchor="start" x="359.219" y="-297.386" font-family="Times,serif" font-size="14.00">parent_params</text>
</g>
<!-- Admin::BaseController&#45;&gt;Admin::ParentsController -->
<g id="edge9" class="edge"><title>Admin::BaseController&#45;&gt;Admin::ParentsController</title>
<path fill="none" stroke="black" d="M508.44,-547.264C495.297,-516.913 480.064,-481.737 466.668,-450.8"/>
</g>
<!-- Admin::ResponsablesController -->
<g id="node11" class="node"><title>Admin::ResponsablesController</title>
<path fill="none" stroke="black" d="M876.176,-18.2304C876.176,-18.2304 1048.6,-18.2304 1048.6,-18.2304 1054.6,-18.2304 1060.6,-24.2304 1060.6,-30.2304 1060.6,-30.2304 1060.6,-194.23 1060.6,-194.23 1060.6,-200.23 1054.6,-206.23 1048.6,-206.23 1048.6,-206.23 876.176,-206.23 876.176,-206.23 870.176,-206.23 864.176,-200.23 864.176,-194.23 864.176,-194.23 864.176,-30.2304 864.176,-30.2304 864.176,-24.2304 870.176,-18.2304 876.176,-18.2304"/>
<text text-anchor="middle" x="962.389" y="-191.03" font-family="Times,serif" font-size="14.00">Admin::ResponsablesController</text>
<polyline fill="none" stroke="black" points="864.176,-184.23 1060.6,-184.23 "/>
<text text-anchor="start" x="872.176" y="-169.03" font-family="Times,serif" font-size="14.00">create</text>
<text text-anchor="start" x="872.176" y="-155.03" font-family="Times,serif" font-size="14.00">destroy</text>
<text text-anchor="start" x="872.176" y="-141.03" font-family="Times,serif" font-size="14.00">edit</text>
<text text-anchor="start" x="872.176" y="-127.03" font-family="Times,serif" font-size="14.00">index</text>
<text text-anchor="start" x="872.176" y="-113.03" font-family="Times,serif" font-size="14.00">new</text>
<text text-anchor="start" x="872.176" y="-99.0304" font-family="Times,serif" font-size="14.00">update</text>
<polyline fill="none" stroke="black" points="864.176,-92.2304 1060.6,-92.2304 "/>
<polyline fill="none" stroke="black" points="864.176,-68.2304 1060.6,-68.2304 "/>
<text text-anchor="start" x="872.176" y="-53.0304" font-family="Times,serif" font-size="14.00">_layout</text>
<text text-anchor="start" x="872.176" y="-39.0304" font-family="Times,serif" font-size="14.00">current_resource</text>
<text text-anchor="start" x="872.176" y="-25.0304" font-family="Times,serif" font-size="14.00">responsable_params</text>
</g>
<!-- Admin::BaseController&#45;&gt;Admin::ResponsablesController -->
<g id="edge10" class="edge"><title>Admin::BaseController&#45;&gt;Admin::ResponsablesController</title>
<path fill="none" stroke="black" d="M558.645,-547.523C573.515,-496.648 598.252,-429.363 635.317,-378.481 668.512,-332.911 780.13,-245.817 863.805,-183.649"/>
</g>
<!-- Admin::TagsController -->
<g id="node12" class="node"><title>Admin::TagsController</title>
<path fill="none" stroke="black" d="M624.457,-57.5759C624.457,-57.5759 746.907,-57.5759 746.907,-57.5759 752.907,-57.5759 758.907,-63.5759 758.907,-69.5759 758.907,-69.5759 758.907,-233.576 758.907,-233.576 758.907,-239.576 752.907,-245.576 746.907,-245.576 746.907,-245.576 624.457,-245.576 624.457,-245.576 618.457,-245.576 612.457,-239.576 612.457,-233.576 612.457,-233.576 612.457,-69.5759 612.457,-69.5759 612.457,-63.5759 618.457,-57.5759 624.457,-57.5759"/>
<text text-anchor="middle" x="685.682" y="-230.376" font-family="Times,serif" font-size="14.00">Admin::TagsController</text>
<polyline fill="none" stroke="black" points="612.457,-223.576 758.907,-223.576 "/>
<text text-anchor="start" x="620.457" y="-208.376" font-family="Times,serif" font-size="14.00">create</text>
<text text-anchor="start" x="620.457" y="-194.376" font-family="Times,serif" font-size="14.00">destroy</text>
<text text-anchor="start" x="620.457" y="-180.376" font-family="Times,serif" font-size="14.00">edit</text>
<text text-anchor="start" x="620.457" y="-166.376" font-family="Times,serif" font-size="14.00">index</text>
<text text-anchor="start" x="620.457" y="-152.376" font-family="Times,serif" font-size="14.00">new</text>
<text text-anchor="start" x="620.457" y="-138.376" font-family="Times,serif" font-size="14.00">update</text>
<polyline fill="none" stroke="black" points="612.457,-131.576 758.907,-131.576 "/>
<polyline fill="none" stroke="black" points="612.457,-107.576 758.907,-107.576 "/>
<text text-anchor="start" x="620.457" y="-92.3759" font-family="Times,serif" font-size="14.00">_layout</text>
<text text-anchor="start" x="620.457" y="-78.3759" font-family="Times,serif" font-size="14.00">current_resource</text>
<text text-anchor="start" x="620.457" y="-64.3759" font-family="Times,serif" font-size="14.00">tag_params</text>
</g>
<!-- Admin::BaseController&#45;&gt;Admin::TagsController -->
<g id="edge11" class="edge"><title>Admin::BaseController&#45;&gt;Admin::TagsController</title>
<path fill="none" stroke="black" d="M563.512,-547.332C588.704,-465.726 629.238,-334.418 656.641,-245.649"/>
</g>
<!-- Admin::UsersController -->
<g id="node13" class="node"><title>Admin::UsersController</title>
<path fill="none" stroke="black" d="M12,-571.348C12,-571.348 140.097,-571.348 140.097,-571.348 146.097,-571.348 152.097,-577.348 152.097,-583.348 152.097,-583.348 152.097,-747.348 152.097,-747.348 152.097,-753.348 146.097,-759.348 140.097,-759.348 140.097,-759.348 12,-759.348 12,-759.348 6,-759.348 0,-753.348 0,-747.348 0,-747.348 0,-583.348 0,-583.348 0,-577.348 6,-571.348 12,-571.348"/>
<text text-anchor="middle" x="76.0483" y="-744.148" font-family="Times,serif" font-size="14.00">Admin::UsersController</text>
<polyline fill="none" stroke="black" points="0,-737.348 152.097,-737.348 "/>
<text text-anchor="start" x="8" y="-722.148" font-family="Times,serif" font-size="14.00">create</text>
<text text-anchor="start" x="8" y="-708.148" font-family="Times,serif" font-size="14.00">destroy</text>
<text text-anchor="start" x="8" y="-694.148" font-family="Times,serif" font-size="14.00">edit</text>
<text text-anchor="start" x="8" y="-680.148" font-family="Times,serif" font-size="14.00">index</text>
<text text-anchor="start" x="8" y="-666.148" font-family="Times,serif" font-size="14.00">new</text>
<text text-anchor="start" x="8" y="-652.148" font-family="Times,serif" font-size="14.00">update</text>
<polyline fill="none" stroke="black" points="0,-645.348 152.097,-645.348 "/>
<polyline fill="none" stroke="black" points="0,-621.348 152.097,-621.348 "/>
<text text-anchor="start" x="8" y="-606.148" font-family="Times,serif" font-size="14.00">_layout</text>
<text text-anchor="start" x="8" y="-592.148" font-family="Times,serif" font-size="14.00">current_resource</text>
<text text-anchor="start" x="8" y="-578.148" font-family="Times,serif" font-size="14.00">user_params</text>
</g>
<!-- Admin::BaseController&#45;&gt;Admin::UsersController -->
<g id="edge12" class="edge"><title>Admin::BaseController&#45;&gt;Admin::UsersController</title>
<path fill="none" stroke="black" d="M466.834,-694.128C443.656,-712.404 416.728,-729.544 388.631,-739.145 355.138,-750.591 263.863,-747.019 229.355,-739.145 203.148,-733.166 176.201,-722.113 152.352,-710.348"/>
</g>
<!-- Admin::VerificatorCommentsController -->
<g id="node14" class="node"><title>Admin::VerificatorCommentsController</title>
<path fill="none" stroke="black" d="M869.235,-626.991C869.235,-626.991 1085.21,-626.991 1085.21,-626.991 1091.21,-626.991 1097.21,-632.991 1097.21,-638.991 1097.21,-638.991 1097.21,-760.991 1097.21,-760.991 1097.21,-766.991 1091.21,-772.991 1085.21,-772.991 1085.21,-772.991 869.235,-772.991 869.235,-772.991 863.235,-772.991 857.235,-766.991 857.235,-760.991 857.235,-760.991 857.235,-638.991 857.235,-638.991 857.235,-632.991 863.235,-626.991 869.235,-626.991"/>
<text text-anchor="middle" x="977.222" y="-757.791" font-family="Times,serif" font-size="14.00">Admin::VerificatorCommentsController</text>
<polyline fill="none" stroke="black" points="857.235,-750.991 1097.21,-750.991 "/>
<text text-anchor="start" x="865.235" y="-735.791" font-family="Times,serif" font-size="14.00">create</text>
<text text-anchor="start" x="865.235" y="-721.791" font-family="Times,serif" font-size="14.00">destroy</text>
<text text-anchor="start" x="865.235" y="-707.791" font-family="Times,serif" font-size="14.00">update</text>
<polyline fill="none" stroke="black" points="857.235,-700.991 1097.21,-700.991 "/>
<polyline fill="none" stroke="black" points="857.235,-676.991 1097.21,-676.991 "/>
<text text-anchor="start" x="865.235" y="-661.791" font-family="Times,serif" font-size="14.00">_layout</text>
<text text-anchor="start" x="865.235" y="-647.791" font-family="Times,serif" font-size="14.00">current_resource</text>
<text text-anchor="start" x="865.235" y="-633.791" font-family="Times,serif" font-size="14.00">verificator_comment_params</text>
</g>
<!-- Admin::BaseController&#45;&gt;Admin::VerificatorCommentsController -->
<g id="edge13" class="edge"><title>Admin::BaseController&#45;&gt;Admin::VerificatorCommentsController</title>
<path fill="none" stroke="black" d="M614.67,-634.848C680.969,-646.761 779.394,-664.446 856.968,-678.384"/>
</g>
<!-- ApplicationController -->
<g id="node15" class="node"><title>ApplicationController</title>
<path fill="none" stroke="black" d="M341.291,-750.621C341.291,-750.621 456.933,-750.621 456.933,-750.621 462.933,-750.621 468.933,-756.621 468.933,-762.621 468.933,-762.621 468.933,-870.621 468.933,-870.621 468.933,-876.621 462.933,-882.621 456.933,-882.621 456.933,-882.621 341.291,-882.621 341.291,-882.621 335.291,-882.621 329.291,-876.621 329.291,-870.621 329.291,-870.621 329.291,-762.621 329.291,-762.621 329.291,-756.621 335.291,-750.621 341.291,-750.621"/>
<text text-anchor="middle" x="399.112" y="-867.421" font-family="Times,serif" font-size="14.00">ApplicationController</text>
<polyline fill="none" stroke="black" points="329.291,-860.621 468.933,-860.621 "/>
<text text-anchor="start" x="337.291" y="-845.421" font-family="Times,serif" font-size="14.00">current_permission</text>
<text text-anchor="start" x="337.291" y="-831.421" font-family="Times,serif" font-size="14.00">error</text>
<text text-anchor="start" x="337.291" y="-817.421" font-family="Times,serif" font-size="14.00">success</text>
<text text-anchor="start" x="337.291" y="-803.421" font-family="Times,serif" font-size="14.00">track_activity</text>
<polyline fill="none" stroke="black" points="329.291,-796.621 468.933,-796.621 "/>
<polyline fill="none" stroke="black" points="329.291,-772.621 468.933,-772.621 "/>
<text text-anchor="start" x="337.291" y="-757.421" font-family="Times,serif" font-size="14.00">_layout</text>
</g>
<!-- ApplicationController&#45;&gt;Admin::BaseController -->
<g id="edge4" class="edge"><title>ApplicationController&#45;&gt;Admin::BaseController</title>
<path fill="none" stroke="black" d="M447.015,-750.575C459.842,-732.89 473.792,-713.656 486.91,-695.57"/>
</g>
<!-- BaseController -->
<g id="node16" class="node"><title>BaseController</title>
<path fill="none" stroke="black" d="M573.22,-969.542C573.22,-969.542 649.979,-969.542 649.979,-969.542 655.979,-969.542 661.979,-975.542 661.979,-981.542 661.979,-981.542 661.979,-1049.54 661.979,-1049.54 661.979,-1055.54 655.979,-1061.54 649.979,-1061.54 649.979,-1061.54 573.22,-1061.54 573.22,-1061.54 567.22,-1061.54 561.22,-1055.54 561.22,-1049.54 561.22,-1049.54 561.22,-981.542 561.22,-981.542 561.22,-975.542 567.22,-969.542 573.22,-969.542"/>
<text text-anchor="middle" x="611.599" y="-1046.34" font-family="Times,serif" font-size="14.00">BaseController</text>
<polyline fill="none" stroke="black" points="561.22,-1039.54 661.979,-1039.54 "/>
<polyline fill="none" stroke="black" points="561.22,-1015.54 661.979,-1015.54 "/>
<polyline fill="none" stroke="black" points="561.22,-991.542 661.979,-991.542 "/>
<text text-anchor="start" x="569.22" y="-976.342" font-family="Times,serif" font-size="14.00">_layout</text>
</g>
<!-- ApplicationController&#45;&gt;BaseController -->
<g id="edge14" class="edge"><title>ApplicationController&#45;&gt;BaseController</title>
<path fill="none" stroke="black" d="M468.983,-882.03C499.465,-910.567 534.49,-943.355 562.202,-969.298"/>
</g>
<!-- CardsController -->
<g id="node17" class="node"><title>CardsController</title>
<path fill="none" stroke="black" d="M906.707,-892.582C906.707,-892.582 988.914,-892.582 988.914,-892.582 994.914,-892.582 1000.91,-898.582 1000.91,-904.582 1000.91,-904.582 1000.91,-1054.58 1000.91,-1054.58 1000.91,-1060.58 994.914,-1066.58 988.914,-1066.58 988.914,-1066.58 906.707,-1066.58 906.707,-1066.58 900.707,-1066.58 894.707,-1060.58 894.707,-1054.58 894.707,-1054.58 894.707,-904.582 894.707,-904.582 894.707,-898.582 900.707,-892.582 906.707,-892.582"/>
<text text-anchor="middle" x="947.811" y="-1051.38" font-family="Times,serif" font-size="14.00">CardsController</text>
<polyline fill="none" stroke="black" points="894.707,-1044.58 1000.91,-1044.58 "/>
<text text-anchor="start" x="902.707" y="-1029.38" font-family="Times,serif" font-size="14.00">change</text>
<text text-anchor="start" x="902.707" y="-1015.38" font-family="Times,serif" font-size="14.00">create</text>
<text text-anchor="start" x="902.707" y="-1001.38" font-family="Times,serif" font-size="14.00">index</text>
<text text-anchor="start" x="902.707" y="-987.382" font-family="Times,serif" font-size="14.00">new</text>
<text text-anchor="start" x="902.707" y="-973.382" font-family="Times,serif" font-size="14.00">show</text>
<polyline fill="none" stroke="black" points="894.707,-966.582 1000.91,-966.582 "/>
<polyline fill="none" stroke="black" points="894.707,-942.582 1000.91,-942.582 "/>
<text text-anchor="start" x="902.707" y="-927.382" font-family="Times,serif" font-size="14.00">_layout</text>
<text text-anchor="start" x="902.707" y="-913.382" font-family="Times,serif" font-size="14.00">card_params</text>
<text text-anchor="start" x="902.707" y="-899.382" font-family="Times,serif" font-size="14.00">validator</text>
</g>
<!-- BaseController&#45;&gt;CardsController -->
<g id="edge15" class="edge"><title>BaseController&#45;&gt;CardsController</title>
<path fill="none" stroke="black" d="M662.298,-1010.12C724.852,-1003.43 830.729,-992.104 894.474,-985.286"/>
</g>
<!-- OratorsController -->
<g id="node18" class="node"><title>OratorsController</title>
<path fill="none" stroke="black" d="M925.883,-1200.72C925.883,-1200.72 1017.41,-1200.72 1017.41,-1200.72 1023.41,-1200.72 1029.41,-1206.72 1029.41,-1212.72 1029.41,-1212.72 1029.41,-1348.72 1029.41,-1348.72 1029.41,-1354.72 1023.41,-1360.72 1017.41,-1360.72 1017.41,-1360.72 925.883,-1360.72 925.883,-1360.72 919.883,-1360.72 913.883,-1354.72 913.883,-1348.72 913.883,-1348.72 913.883,-1212.72 913.883,-1212.72 913.883,-1206.72 919.883,-1200.72 925.883,-1200.72"/>
<text text-anchor="middle" x="971.648" y="-1345.52" font-family="Times,serif" font-size="14.00">OratorsController</text>
<polyline fill="none" stroke="black" points="913.883,-1338.72 1029.41,-1338.72 "/>
<text text-anchor="start" x="921.883" y="-1323.52" font-family="Times,serif" font-size="14.00">create</text>
<text text-anchor="start" x="921.883" y="-1309.52" font-family="Times,serif" font-size="14.00">index</text>
<text text-anchor="start" x="921.883" y="-1295.52" font-family="Times,serif" font-size="14.00">new</text>
<text text-anchor="start" x="921.883" y="-1281.52" font-family="Times,serif" font-size="14.00">update</text>
<polyline fill="none" stroke="black" points="913.883,-1274.72 1029.41,-1274.72 "/>
<polyline fill="none" stroke="black" points="913.883,-1250.72 1029.41,-1250.72 "/>
<text text-anchor="start" x="921.883" y="-1235.52" font-family="Times,serif" font-size="14.00">_layout</text>
<text text-anchor="start" x="921.883" y="-1221.52" font-family="Times,serif" font-size="14.00">authorize_token</text>
<text text-anchor="start" x="921.883" y="-1207.52" font-family="Times,serif" font-size="14.00">orator_params</text>
</g>
<!-- BaseController&#45;&gt;OratorsController -->
<g id="edge16" class="edge"><title>BaseController&#45;&gt;OratorsController</title>
<path fill="none" stroke="black" d="M662.042,-1052.69C728.231,-1101.44 844.137,-1186.81 913.808,-1238.12"/>
</g>
<!-- PagesController -->
<g id="node19" class="node"><title>PagesController</title>
<path fill="none" stroke="black" d="M363.41,-1245.79C363.41,-1245.79 445.617,-1245.79 445.617,-1245.79 451.617,-1245.79 457.617,-1251.79 457.617,-1257.79 457.617,-1257.79 457.617,-1351.79 457.617,-1351.79 457.617,-1357.79 451.617,-1363.79 445.617,-1363.79 445.617,-1363.79 363.41,-1363.79 363.41,-1363.79 357.41,-1363.79 351.41,-1357.79 351.41,-1351.79 351.41,-1351.79 351.41,-1257.79 351.41,-1257.79 351.41,-1251.79 357.41,-1245.79 363.41,-1245.79"/>
<text text-anchor="middle" x="404.514" y="-1348.59" font-family="Times,serif" font-size="14.00">PagesController</text>
<polyline fill="none" stroke="black" points="351.41,-1341.79 457.617,-1341.79 "/>
<text text-anchor="start" x="359.41" y="-1326.59" font-family="Times,serif" font-size="14.00">contact</text>
<text text-anchor="start" x="359.41" y="-1312.59" font-family="Times,serif" font-size="14.00">home</text>
<text text-anchor="start" x="359.41" y="-1298.59" font-family="Times,serif" font-size="14.00">resj</text>
<polyline fill="none" stroke="black" points="351.41,-1291.79 457.617,-1291.79 "/>
<polyline fill="none" stroke="black" points="351.41,-1267.79 457.617,-1267.79 "/>
<text text-anchor="start" x="359.41" y="-1252.59" font-family="Times,serif" font-size="14.00">_layout</text>
</g>
<!-- BaseController&#45;&gt;PagesController -->
<g id="edge17" class="edge"><title>BaseController&#45;&gt;PagesController</title>
<path fill="none" stroke="black" d="M578.557,-1061.69C542.872,-1111.54 485.912,-1191.09 446.941,-1245.53"/>
</g>
<!-- PasswordResetsController -->
<g id="node20" class="node"><title>PasswordResetsController</title>
<path fill="none" stroke="black" d="M253.583,-966.235C253.583,-966.235 393.349,-966.235 393.349,-966.235 399.349,-966.235 405.349,-972.235 405.349,-978.235 405.349,-978.235 405.349,-1100.23 405.349,-1100.23 405.349,-1106.23 399.349,-1112.23 393.349,-1112.23 393.349,-1112.23 253.583,-1112.23 253.583,-1112.23 247.583,-1112.23 241.583,-1106.23 241.583,-1100.23 241.583,-1100.23 241.583,-978.235 241.583,-978.235 241.583,-972.235 247.583,-966.235 253.583,-966.235"/>
<text text-anchor="middle" x="323.466" y="-1097.03" font-family="Times,serif" font-size="14.00">PasswordResetsController</text>
<polyline fill="none" stroke="black" points="241.583,-1090.23 405.349,-1090.23 "/>
<text text-anchor="start" x="249.583" y="-1075.03" font-family="Times,serif" font-size="14.00">create</text>
<text text-anchor="start" x="249.583" y="-1061.03" font-family="Times,serif" font-size="14.00">edit</text>
<text text-anchor="start" x="249.583" y="-1047.03" font-family="Times,serif" font-size="14.00">new</text>
<text text-anchor="start" x="249.583" y="-1033.03" font-family="Times,serif" font-size="14.00">update</text>
<polyline fill="none" stroke="black" points="241.583,-1026.23 405.349,-1026.23 "/>
<polyline fill="none" stroke="black" points="241.583,-1002.23 405.349,-1002.23 "/>
<text text-anchor="start" x="249.583" y="-987.035" font-family="Times,serif" font-size="14.00">_layout</text>
<text text-anchor="start" x="249.583" y="-973.035" font-family="Times,serif" font-size="14.00">user_params</text>
</g>
<!-- BaseController&#45;&gt;PasswordResetsController -->
<g id="edge18" class="edge"><title>BaseController&#45;&gt;PasswordResetsController</title>
<path fill="none" stroke="black" d="M561.081,-1019.7C518.149,-1023.23 455.691,-1028.36 405.583,-1032.48"/>
</g>
<!-- SearchesController -->
<g id="node21" class="node"><title>SearchesController</title>
<path fill="none" stroke="black" d="M47.1008,-1199.9C47.1008,-1199.9 146.398,-1199.9 146.398,-1199.9 152.398,-1199.9 158.398,-1205.9 158.398,-1211.9 158.398,-1211.9 158.398,-1333.9 158.398,-1333.9 158.398,-1339.9 152.398,-1345.9 146.398,-1345.9 146.398,-1345.9 47.1008,-1345.9 47.1008,-1345.9 41.1008,-1345.9 35.1008,-1339.9 35.1008,-1333.9 35.1008,-1333.9 35.1008,-1211.9 35.1008,-1211.9 35.1008,-1205.9 41.1008,-1199.9 47.1008,-1199.9"/>
<text text-anchor="middle" x="96.7492" y="-1330.7" font-family="Times,serif" font-size="14.00">SearchesController</text>
<polyline fill="none" stroke="black" points="35.1008,-1323.9 158.398,-1323.9 "/>
<text text-anchor="start" x="43.1008" y="-1308.7" font-family="Times,serif" font-size="14.00">actions</text>
<text text-anchor="start" x="43.1008" y="-1294.7" font-family="Times,serif" font-size="14.00">affiliations</text>
<text text-anchor="start" x="43.1008" y="-1280.7" font-family="Times,serif" font-size="14.00">responsables</text>
<text text-anchor="start" x="43.1008" y="-1266.7" font-family="Times,serif" font-size="14.00">tags</text>
<text text-anchor="start" x="43.1008" y="-1252.7" font-family="Times,serif" font-size="14.00">themes</text>
<polyline fill="none" stroke="black" points="35.1008,-1245.9 158.398,-1245.9 "/>
<polyline fill="none" stroke="black" points="35.1008,-1221.9 158.398,-1221.9 "/>
<text text-anchor="start" x="43.1008" y="-1206.7" font-family="Times,serif" font-size="14.00">_layout</text>
</g>
<!-- BaseController&#45;&gt;SearchesController -->
<g id="edge19" class="edge"><title>BaseController&#45;&gt;SearchesController</title>
<path fill="none" stroke="black" d="M560.825,-1040.92C465.818,-1088.41 261.51,-1190.54 158.626,-1241.97"/>
</g>
<!-- SessionsController -->
<g id="node22" class="node"><title>SessionsController</title>
<path fill="none" stroke="black" d="M640.496,-1220.55C640.496,-1220.55 738.275,-1220.55 738.275,-1220.55 744.275,-1220.55 750.275,-1226.55 750.275,-1232.55 750.275,-1232.55 750.275,-1340.55 750.275,-1340.55 750.275,-1346.55 744.275,-1352.55 738.275,-1352.55 738.275,-1352.55 640.496,-1352.55 640.496,-1352.55 634.496,-1352.55 628.496,-1346.55 628.496,-1340.55 628.496,-1340.55 628.496,-1232.55 628.496,-1232.55 628.496,-1226.55 634.496,-1220.55 640.496,-1220.55"/>
<text text-anchor="middle" x="689.386" y="-1337.35" font-family="Times,serif" font-size="14.00">SessionsController</text>
<polyline fill="none" stroke="black" points="628.496,-1330.55 750.275,-1330.55 "/>
<text text-anchor="start" x="636.496" y="-1315.35" font-family="Times,serif" font-size="14.00">create</text>
<text text-anchor="start" x="636.496" y="-1301.35" font-family="Times,serif" font-size="14.00">destroy</text>
<text text-anchor="start" x="636.496" y="-1287.35" font-family="Times,serif" font-size="14.00">new</text>
<polyline fill="none" stroke="black" points="628.496,-1280.55 750.275,-1280.55 "/>
<polyline fill="none" stroke="black" points="628.496,-1256.55 750.275,-1256.55 "/>
<text text-anchor="start" x="636.496" y="-1241.35" font-family="Times,serif" font-size="14.00">_layout</text>
<text text-anchor="start" x="636.496" y="-1227.35" font-family="Times,serif" font-size="14.00">connected?</text>
</g>
<!-- BaseController&#45;&gt;SessionsController -->
<g id="edge20" class="edge"><title>BaseController&#45;&gt;SessionsController</title>
<path fill="none" stroke="black" d="M624.883,-1061.82C637.402,-1105.44 656.292,-1171.25 670.399,-1220.4"/>
</g>
<!-- UsersController -->
<g id="node23" class="node"><title>UsersController</title>
<path fill="none" stroke="black" d="M42.3744,-844.985C42.3744,-844.985 123.802,-844.985 123.802,-844.985 129.802,-844.985 135.802,-850.985 135.802,-856.985 135.802,-856.985 135.802,-1006.98 135.802,-1006.98 135.802,-1012.98 129.802,-1018.98 123.802,-1018.98 123.802,-1018.98 42.3744,-1018.98 42.3744,-1018.98 36.3744,-1018.98 30.3744,-1012.98 30.3744,-1006.98 30.3744,-1006.98 30.3744,-856.985 30.3744,-856.985 30.3744,-850.985 36.3744,-844.985 42.3744,-844.985"/>
<text text-anchor="middle" x="83.0882" y="-1003.78" font-family="Times,serif" font-size="14.00">UsersController</text>
<polyline fill="none" stroke="black" points="30.3744,-996.985 135.802,-996.985 "/>
<text text-anchor="start" x="38.3744" y="-981.785" font-family="Times,serif" font-size="14.00">create</text>
<text text-anchor="start" x="38.3744" y="-967.785" font-family="Times,serif" font-size="14.00">edit</text>
<text text-anchor="start" x="38.3744" y="-953.785" font-family="Times,serif" font-size="14.00">new</text>
<text text-anchor="start" x="38.3744" y="-939.785" font-family="Times,serif" font-size="14.00">profile</text>
<text text-anchor="start" x="38.3744" y="-925.785" font-family="Times,serif" font-size="14.00">update</text>
<polyline fill="none" stroke="black" points="30.3744,-918.985 135.802,-918.985 "/>
<polyline fill="none" stroke="black" points="30.3744,-894.985 135.802,-894.985 "/>
<text text-anchor="start" x="38.3744" y="-879.785" font-family="Times,serif" font-size="14.00">_layout</text>
<text text-anchor="start" x="38.3744" y="-865.785" font-family="Times,serif" font-size="14.00">connected?</text>
<text text-anchor="start" x="38.3744" y="-851.785" font-family="Times,serif" font-size="14.00">user_params</text>
</g>
<!-- BaseController&#45;&gt;UsersController -->
<g id="edge21" class="edge"><title>BaseController&#45;&gt;UsersController</title>
<path fill="none" stroke="black" d="M561.184,-1000.13C520.391,-988.242 461.264,-972.305 408.549,-963.035 313.235,-946.273 200.516,-938.065 135.854,-934.452"/>
</g>
</g>
</svg>
