<?xml version="1.0" encoding="UTF-8" standalone="no"?>
<!DOCTYPE svg PUBLIC "-//W3C//DTD SVG 1.1//EN"
 "http://www.w3.org/Graphics/SVG/1.1/DTD/svg11.dtd">
<!-- Generated by graphviz version 2.34.0 (20140206.1422)
 -->
<!-- Title: controllers_diagram Pages: 1 -->
<svg width="1398pt" height="1279pt"
 viewBox="0.00 0.00 1398.38 1279.45" xmlns="http://www.w3.org/2000/svg" xmlns:xlink="http://www.w3.org/1999/xlink">
<g id="graph0" class="graph" transform="scale(1 1) rotate(0) translate(4 1275.45)">
<title>controllers_diagram</title>
<polygon fill="white" stroke="white" points="-4,4 -4,-1275.45 1394.38,-1275.45 1394.38,4 -4,4"/>
<!-- _diagram_info -->
<g id="node1" class="node"><title>_diagram_info</title>
<text text-anchor="start" x="1191" y="-69" font-family="Times,serif" font-size="13.00">Controllers diagram</text>
<text text-anchor="start" x="1191" y="-53.4" font-family="Times,serif" font-size="13.00">Date: Feb 11 2014 &#45; 11:44</text>
<text text-anchor="start" x="1191" y="-37.8" font-family="Times,serif" font-size="13.00">Migration version: 20140208125910</text>
<text text-anchor="start" x="1191" y="-22.2" font-family="Times,serif" font-size="13.00">Generated by RailRoady 1.1.1</text>
<text text-anchor="start" x="1191" y="-6.6" font-family="Times,serif" font-size="13.00">http://railroady.prestonlee.com</text>
</g>
<!-- Admin::ActionsController -->
<g id="node2" class="node"><title>Admin::ActionsController</title>
<path fill="none" stroke="black" d="M24.6168,-525.189C24.6168,-525.189 164.382,-525.189 164.382,-525.189 170.382,-525.189 176.382,-531.189 176.382,-537.189 176.382,-537.189 176.382,-729.189 176.382,-729.189 176.382,-735.189 170.382,-741.189 164.382,-741.189 164.382,-741.189 24.6168,-741.189 24.6168,-741.189 18.6168,-741.189 12.6168,-735.189 12.6168,-729.189 12.6168,-729.189 12.6168,-537.189 12.6168,-537.189 12.6168,-531.189 18.6168,-525.189 24.6168,-525.189"/>
<text text-anchor="middle" x="94.4996" y="-723.189" font-family="Times,serif" font-size="14.00">Admin::ActionsController</text>
<polyline fill="none" stroke="black" points="12.6168,-716.389 176.382,-716.389 "/>
<text text-anchor="start" x="20.6168" y="-698.389" font-family="Times,serif" font-size="14.00">create</text>
<text text-anchor="start" x="20.6168" y="-681.589" font-family="Times,serif" font-size="14.00">destroy</text>
<text text-anchor="start" x="20.6168" y="-664.789" font-family="Times,serif" font-size="14.00">edit</text>
<text text-anchor="start" x="20.6168" y="-647.989" font-family="Times,serif" font-size="14.00">index</text>
<text text-anchor="start" x="20.6168" y="-631.189" font-family="Times,serif" font-size="14.00">new</text>
<text text-anchor="start" x="20.6168" y="-614.389" font-family="Times,serif" font-size="14.00">update</text>
<polyline fill="none" stroke="black" points="12.6168,-607.589 176.382,-607.589 "/>
<polyline fill="none" stroke="black" points="12.6168,-583.589 176.382,-583.589 "/>
<text text-anchor="start" x="20.6168" y="-565.589" font-family="Times,serif" font-size="14.00">_layout</text>
<text text-anchor="start" x="20.6168" y="-548.789" font-family="Times,serif" font-size="14.00">action_params</text>
<text text-anchor="start" x="20.6168" y="-531.989" font-family="Times,serif" font-size="14.00">current_resource</text>
</g>
<!-- Admin::AffiliationsController -->
<g id="node3" class="node"><title>Admin::AffiliationsController</title>
<path fill="none" stroke="black" d="M584.708,-367.939C584.708,-367.939 744.701,-367.939 744.701,-367.939 750.701,-367.939 756.701,-373.939 756.701,-379.939 756.701,-379.939 756.701,-571.939 756.701,-571.939 756.701,-577.939 750.701,-583.939 744.701,-583.939 744.701,-583.939 584.708,-583.939 584.708,-583.939 578.708,-583.939 572.708,-577.939 572.708,-571.939 572.708,-571.939 572.708,-379.939 572.708,-379.939 572.708,-373.939 578.708,-367.939 584.708,-367.939"/>
<text text-anchor="middle" x="664.704" y="-565.939" font-family="Times,serif" font-size="14.00">Admin::AffiliationsController</text>
<polyline fill="none" stroke="black" points="572.708,-559.139 756.701,-559.139 "/>
<text text-anchor="start" x="580.708" y="-541.139" font-family="Times,serif" font-size="14.00">create</text>
<text text-anchor="start" x="580.708" y="-524.339" font-family="Times,serif" font-size="14.00">destroy</text>
<text text-anchor="start" x="580.708" y="-507.539" font-family="Times,serif" font-size="14.00">edit</text>
<text text-anchor="start" x="580.708" y="-490.739" font-family="Times,serif" font-size="14.00">index</text>
<text text-anchor="start" x="580.708" y="-473.939" font-family="Times,serif" font-size="14.00">new</text>
<text text-anchor="start" x="580.708" y="-457.139" font-family="Times,serif" font-size="14.00">update</text>
<polyline fill="none" stroke="black" points="572.708,-450.339 756.701,-450.339 "/>
<polyline fill="none" stroke="black" points="572.708,-426.339 756.701,-426.339 "/>
<text text-anchor="start" x="580.708" y="-408.339" font-family="Times,serif" font-size="14.00">_layout</text>
<text text-anchor="start" x="580.708" y="-391.539" font-family="Times,serif" font-size="14.00">affiliation_params</text>
<text text-anchor="start" x="580.708" y="-374.739" font-family="Times,serif" font-size="14.00">current_resource</text>
</g>
<!-- Admin::BaseController -->
<g id="node4" class="node"><title>Admin::BaseController</title>
<path fill="none" stroke="black" d="M347.232,-419.958C347.232,-419.958 470.66,-419.958 470.66,-419.958 476.66,-419.958 482.66,-425.958 482.66,-431.958 482.66,-431.958 482.66,-573.558 482.66,-573.558 482.66,-579.558 476.66,-585.558 470.66,-585.558 470.66,-585.558 347.232,-585.558 347.232,-585.558 341.232,-585.558 335.232,-579.558 335.232,-573.558 335.232,-573.558 335.232,-431.958 335.232,-431.958 335.232,-425.958 341.232,-419.958 347.232,-419.958"/>
<text text-anchor="middle" x="408.946" y="-567.558" font-family="Times,serif" font-size="14.00">Admin::BaseController</text>
<polyline fill="none" stroke="black" points="335.232,-560.758 482.66,-560.758 "/>
<text text-anchor="start" x="343.232" y="-542.758" font-family="Times,serif" font-size="14.00">current_permission</text>
<polyline fill="none" stroke="black" points="335.232,-535.958 482.66,-535.958 "/>
<polyline fill="none" stroke="black" points="335.232,-511.958 482.66,-511.958 "/>
<text text-anchor="start" x="343.232" y="-493.958" font-family="Times,serif" font-size="14.00">_layout</text>
<text text-anchor="start" x="343.232" y="-477.158" font-family="Times,serif" font-size="14.00">authorize_action</text>
<text text-anchor="start" x="343.232" y="-460.358" font-family="Times,serif" font-size="14.00">authorize_create</text>
<text text-anchor="start" x="343.232" y="-443.558" font-family="Times,serif" font-size="14.00">authorize_modify</text>
<text text-anchor="start" x="343.232" y="-426.758" font-family="Times,serif" font-size="14.00">authorize_read</text>
</g>
<!-- Admin::BaseController&#45;&gt;Admin::ActionsController -->
<g id="edge1" class="edge"><title>Admin::BaseController&#45;&gt;Admin::ActionsController</title>
<path fill="none" stroke="black" d="M335.222,-533.338C289.149,-552.449 229.598,-577.151 181.255,-597.203"/>
<polyline fill="none" stroke="black" points="176.613,-599.129 181.231,-597.213 "/>
</g>
<!-- Admin::BaseController&#45;&gt;Admin::AffiliationsController -->
<g id="edge2" class="edge"><title>Admin::BaseController&#45;&gt;Admin::AffiliationsController</title>
<path fill="none" stroke="black" d="M482.922,-495.001C509.31,-492.234 539.446,-489.073 567.492,-486.133"/>
<polyline fill="none" stroke="black" points="572.703,-485.586 567.73,-486.108 "/>
</g>
<!-- Admin::CardTypesController -->
<g id="node5" class="node"><title>Admin::CardTypesController</title>
<path fill="none" stroke="black" d="M12,-1054.95C12,-1054.95 168.664,-1054.95 168.664,-1054.95 174.664,-1054.95 180.664,-1060.95 180.664,-1066.95 180.664,-1066.95 180.664,-1258.95 180.664,-1258.95 180.664,-1264.95 174.664,-1270.95 168.664,-1270.95 168.664,-1270.95 12,-1270.95 12,-1270.95 6,-1270.95 0,-1264.95 0,-1258.95 0,-1258.95 0,-1066.95 0,-1066.95 0,-1060.95 6,-1054.95 12,-1054.95"/>
<text text-anchor="middle" x="90.332" y="-1252.95" font-family="Times,serif" font-size="14.00">Admin::CardTypesController</text>
<polyline fill="none" stroke="black" points="0,-1246.15 180.664,-1246.15 "/>
<text text-anchor="start" x="8" y="-1228.15" font-family="Times,serif" font-size="14.00">create</text>
<text text-anchor="start" x="8" y="-1211.35" font-family="Times,serif" font-size="14.00">destroy</text>
<text text-anchor="start" x="8" y="-1194.55" font-family="Times,serif" font-size="14.00">edit</text>
<text text-anchor="start" x="8" y="-1177.75" font-family="Times,serif" font-size="14.00">index</text>
<text text-anchor="start" x="8" y="-1160.95" font-family="Times,serif" font-size="14.00">new</text>
<text text-anchor="start" x="8" y="-1144.15" font-family="Times,serif" font-size="14.00">update</text>
<polyline fill="none" stroke="black" points="0,-1137.35 180.664,-1137.35 "/>
<polyline fill="none" stroke="black" points="0,-1113.35 180.664,-1113.35 "/>
<text text-anchor="start" x="8" y="-1095.35" font-family="Times,serif" font-size="14.00">_layout</text>
<text text-anchor="start" x="8" y="-1078.55" font-family="Times,serif" font-size="14.00">card_type_params</text>
<text text-anchor="start" x="8" y="-1061.75" font-family="Times,serif" font-size="14.00">current_resource</text>
</g>
<!-- Admin::BaseController&#45;&gt;Admin::CardTypesController -->
<g id="edge4" class="edge"><title>Admin::BaseController&#45;&gt;Admin::CardTypesController</title>
<path fill="none" stroke="black" d="M355.271,-585.903C345.757,-601.954 336.312,-618.839 328.205,-635.097 254.726,-782.451 262.006,-830.619 191.708,-979.516 180.786,-1002.65 168.215,-1026.92 155.727,-1049.94"/>
<polyline fill="none" stroke="black" points="153.23,-1054.53 155.62,-1050.14 "/>
</g>
<!-- Admin::CardsController -->
<g id="node6" class="node"><title>Admin::CardsController</title>
<path fill="none" stroke="black" d="M343.405,-638.297C343.405,-638.297 472.281,-638.297 472.281,-638.297 478.281,-638.297 484.281,-644.297 484.281,-650.297 484.281,-650.297 484.281,-943.097 484.281,-943.097 484.281,-949.097 478.281,-955.097 472.281,-955.097 472.281,-955.097 343.405,-955.097 343.405,-955.097 337.405,-955.097 331.405,-949.097 331.405,-943.097 331.405,-943.097 331.405,-650.297 331.405,-650.297 331.405,-644.297 337.405,-638.297 343.405,-638.297"/>
<text text-anchor="middle" x="407.843" y="-937.097" font-family="Times,serif" font-size="14.00">Admin::CardsController</text>
<polyline fill="none" stroke="black" points="331.405,-930.297 484.281,-930.297 "/>
<text text-anchor="start" x="339.405" y="-912.297" font-family="Times,serif" font-size="14.00">create</text>
<text text-anchor="start" x="339.405" y="-895.497" font-family="Times,serif" font-size="14.00">destroy</text>
<text text-anchor="start" x="339.405" y="-878.697" font-family="Times,serif" font-size="14.00">edit</text>
<text text-anchor="start" x="339.405" y="-861.897" font-family="Times,serif" font-size="14.00">index</text>
<text text-anchor="start" x="339.405" y="-845.097" font-family="Times,serif" font-size="14.00">new</text>
<text text-anchor="start" x="339.405" y="-828.297" font-family="Times,serif" font-size="14.00">show</text>
<text text-anchor="start" x="339.405" y="-811.497" font-family="Times,serif" font-size="14.00">update</text>
<text text-anchor="start" x="339.405" y="-794.697" font-family="Times,serif" font-size="14.00">verificate</text>
<polyline fill="none" stroke="black" points="331.405,-787.897 484.281,-787.897 "/>
<polyline fill="none" stroke="black" points="331.405,-763.897 484.281,-763.897 "/>
<text text-anchor="start" x="339.405" y="-745.897" font-family="Times,serif" font-size="14.00">_layout</text>
<text text-anchor="start" x="339.405" y="-729.097" font-family="Times,serif" font-size="14.00">attributes</text>
<text text-anchor="start" x="339.405" y="-712.297" font-family="Times,serif" font-size="14.00">card_admins</text>
<text text-anchor="start" x="339.405" y="-695.497" font-family="Times,serif" font-size="14.00">card_params</text>
<text text-anchor="start" x="339.405" y="-678.697" font-family="Times,serif" font-size="14.00">current_resource</text>
<text text-anchor="start" x="339.405" y="-661.897" font-family="Times,serif" font-size="14.00">verificators_emails</text>
<text text-anchor="start" x="339.405" y="-645.097" font-family="Times,serif" font-size="14.00">verified?</text>
</g>
<!-- Admin::BaseController&#45;&gt;Admin::CardsController -->
<g id="edge5" class="edge"><title>Admin::BaseController&#45;&gt;Admin::CardsController</title>
<path fill="none" stroke="black" d="M408.634,-585.81C408.578,-600.734 408.518,-616.75 408.457,-633.042"/>
<polyline fill="none" stroke="black" points="408.438,-638.107 408.457,-633.107 "/>
</g>
<!-- Admin::OwnershipsController -->
<g id="node7" class="node"><title>Admin::OwnershipsController</title>
<path fill="none" stroke="black" d="M13.4116,-760.316C13.4116,-760.316 176.508,-760.316 176.508,-760.316 182.508,-760.316 188.508,-766.316 188.508,-772.316 188.508,-772.316 188.508,-964.316 188.508,-964.316 188.508,-970.316 182.508,-976.316 176.508,-976.316 176.508,-976.316 13.4116,-976.316 13.4116,-976.316 7.41155,-976.316 1.41155,-970.316 1.41155,-964.316 1.41155,-964.316 1.41155,-772.316 1.41155,-772.316 1.41155,-766.316 7.41155,-760.316 13.4116,-760.316"/>
<text text-anchor="middle" x="94.9599" y="-958.316" font-family="Times,serif" font-size="14.00">Admin::OwnershipsController</text>
<polyline fill="none" stroke="black" points="1.41155,-951.516 188.508,-951.516 "/>
<text text-anchor="start" x="9.41155" y="-933.516" font-family="Times,serif" font-size="14.00">create</text>
<text text-anchor="start" x="9.41155" y="-916.716" font-family="Times,serif" font-size="14.00">destroy</text>
<text text-anchor="start" x="9.41155" y="-899.916" font-family="Times,serif" font-size="14.00">edit</text>
<text text-anchor="start" x="9.41155" y="-883.116" font-family="Times,serif" font-size="14.00">index</text>
<text text-anchor="start" x="9.41155" y="-866.316" font-family="Times,serif" font-size="14.00">new</text>
<text text-anchor="start" x="9.41155" y="-849.516" font-family="Times,serif" font-size="14.00">update</text>
<polyline fill="none" stroke="black" points="1.41155,-842.716 188.508,-842.716 "/>
<polyline fill="none" stroke="black" points="1.41155,-818.716 188.508,-818.716 "/>
<text text-anchor="start" x="9.41155" y="-800.716" font-family="Times,serif" font-size="14.00">_layout</text>
<text text-anchor="start" x="9.41155" y="-783.916" font-family="Times,serif" font-size="14.00">current_resource</text>
<text text-anchor="start" x="9.41155" y="-767.116" font-family="Times,serif" font-size="14.00">ownership_params</text>
</g>
<!-- Admin::BaseController&#45;&gt;Admin::OwnershipsController -->
<g id="edge6" class="edge"><title>Admin::BaseController&#45;&gt;Admin::OwnershipsController</title>
<path fill="none" stroke="black" d="M337.697,-585.709C294.407,-636.109 238.57,-701.118 191.365,-756.077"/>
<polyline fill="none" stroke="black" points="187.981,-760.016 191.239,-756.223 "/>
</g>
<!-- Admin::PagesController -->
<g id="node8" class="node"><title>Admin::PagesController</title>
<path fill="none" stroke="black" d="M30.7226,-22.6321C30.7226,-22.6321 159.599,-22.6321 159.599,-22.6321 165.599,-22.6321 171.599,-28.6321 171.599,-34.6321 171.599,-34.6321 171.599,-176.232 171.599,-176.232 171.599,-182.232 165.599,-188.232 159.599,-188.232 159.599,-188.232 30.7226,-188.232 30.7226,-188.232 24.7226,-188.232 18.7226,-182.232 18.7226,-176.232 18.7226,-176.232 18.7226,-34.6321 18.7226,-34.6321 18.7226,-28.6321 24.7226,-22.6321 30.7226,-22.6321"/>
<text text-anchor="middle" x="95.1606" y="-170.232" font-family="Times,serif" font-size="14.00">Admin::PagesController</text>
<polyline fill="none" stroke="black" points="18.7226,-163.432 171.599,-163.432 "/>
<text text-anchor="start" x="26.7226" y="-145.432" font-family="Times,serif" font-size="14.00">edit</text>
<text text-anchor="start" x="26.7226" y="-128.632" font-family="Times,serif" font-size="14.00">index</text>
<text text-anchor="start" x="26.7226" y="-111.832" font-family="Times,serif" font-size="14.00">update</text>
<polyline fill="none" stroke="black" points="18.7226,-105.032 171.599,-105.032 "/>
<polyline fill="none" stroke="black" points="18.7226,-81.0321 171.599,-81.0321 "/>
<text text-anchor="start" x="26.7226" y="-63.0321" font-family="Times,serif" font-size="14.00">_layout</text>
<text text-anchor="start" x="26.7226" y="-46.2321" font-family="Times,serif" font-size="14.00">current_resource</text>
<text text-anchor="start" x="26.7226" y="-29.4321" font-family="Times,serif" font-size="14.00">page_params</text>
</g>
<!-- Admin::BaseController&#45;&gt;Admin::PagesController -->
<g id="edge7" class="edge"><title>Admin::BaseController&#45;&gt;Admin::PagesController</title>
<path fill="none" stroke="black" d="M343.548,-419.949C290.981,-353.387 217.35,-260.153 163.913,-192.488"/>
<polyline fill="none" stroke="black" points="160.744,-188.476 163.842,-192.399 "/>
</g>
<!-- Admin::ResponsablesController -->
<g id="node9" class="node"><title>Admin::ResponsablesController</title>
<path fill="none" stroke="black" d="M893.329,-0.5C893.329,-0.5 1065.76,-0.5 1065.76,-0.5 1071.76,-0.5 1077.76,-6.5 1077.76,-12.5 1077.76,-12.5 1077.76,-204.5 1077.76,-204.5 1077.76,-210.5 1071.76,-216.5 1065.76,-216.5 1065.76,-216.5 893.329,-216.5 893.329,-216.5 887.329,-216.5 881.329,-210.5 881.329,-204.5 881.329,-204.5 881.329,-12.5 881.329,-12.5 881.329,-6.5 887.329,-0.5 893.329,-0.5"/>
<text text-anchor="middle" x="979.543" y="-198.5" font-family="Times,serif" font-size="14.00">Admin::ResponsablesController</text>
<polyline fill="none" stroke="black" points="881.329,-191.7 1077.76,-191.7 "/>
<text text-anchor="start" x="889.329" y="-173.7" font-family="Times,serif" font-size="14.00">create</text>
<text text-anchor="start" x="889.329" y="-156.9" font-family="Times,serif" font-size="14.00">destroy</text>
<text text-anchor="start" x="889.329" y="-140.1" font-family="Times,serif" font-size="14.00">edit</text>
<text text-anchor="start" x="889.329" y="-123.3" font-family="Times,serif" font-size="14.00">index</text>
<text text-anchor="start" x="889.329" y="-106.5" font-family="Times,serif" font-size="14.00">new</text>
<text text-anchor="start" x="889.329" y="-89.7" font-family="Times,serif" font-size="14.00">update</text>
<polyline fill="none" stroke="black" points="881.329,-82.9 1077.76,-82.9 "/>
<polyline fill="none" stroke="black" points="881.329,-58.9 1077.76,-58.9 "/>
<text text-anchor="start" x="889.329" y="-40.9" font-family="Times,serif" font-size="14.00">_layout</text>
<text text-anchor="start" x="889.329" y="-24.1" font-family="Times,serif" font-size="14.00">current_resource</text>
<text text-anchor="start" x="889.329" y="-7.3" font-family="Times,serif" font-size="14.00">responsable_params</text>
</g>
<!-- Admin::BaseController&#45;&gt;Admin::ResponsablesController -->
<g id="edge8" class="edge"><title>Admin::BaseController&#45;&gt;Admin::ResponsablesController</title>
<path fill="none" stroke="black" d="M482.968,-435.03C509.542,-411.831 540.195,-386.304 569.508,-364.739 669.979,-290.821 791.959,-216.384 876.63,-166.934"/>
<polyline fill="none" stroke="black" points="881.139,-164.304 876.82,-166.823 "/>
</g>
<!-- Admin::TagsController -->
<g id="node10" class="node"><title>Admin::TagsController</title>
<path fill="none" stroke="black" d="M37.9476,-290.351C37.9476,-290.351 160.398,-290.351 160.398,-290.351 166.398,-290.351 172.398,-296.351 172.398,-302.351 172.398,-302.351 172.398,-494.351 172.398,-494.351 172.398,-500.351 166.398,-506.351 160.398,-506.351 160.398,-506.351 37.9476,-506.351 37.9476,-506.351 31.9476,-506.351 25.9476,-500.351 25.9476,-494.351 25.9476,-494.351 25.9476,-302.351 25.9476,-302.351 25.9476,-296.351 31.9476,-290.351 37.9476,-290.351"/>
<text text-anchor="middle" x="99.1727" y="-488.351" font-family="Times,serif" font-size="14.00">Admin::TagsController</text>
<polyline fill="none" stroke="black" points="25.9476,-481.551 172.398,-481.551 "/>
<text text-anchor="start" x="33.9476" y="-463.551" font-family="Times,serif" font-size="14.00">create</text>
<text text-anchor="start" x="33.9476" y="-446.751" font-family="Times,serif" font-size="14.00">destroy</text>
<text text-anchor="start" x="33.9476" y="-429.951" font-family="Times,serif" font-size="14.00">edit</text>
<text text-anchor="start" x="33.9476" y="-413.151" font-family="Times,serif" font-size="14.00">index</text>
<text text-anchor="start" x="33.9476" y="-396.351" font-family="Times,serif" font-size="14.00">new</text>
<text text-anchor="start" x="33.9476" y="-379.551" font-family="Times,serif" font-size="14.00">update</text>
<polyline fill="none" stroke="black" points="25.9476,-372.751 172.398,-372.751 "/>
<polyline fill="none" stroke="black" points="25.9476,-348.751 172.398,-348.751 "/>
<text text-anchor="start" x="33.9476" y="-330.751" font-family="Times,serif" font-size="14.00">_layout</text>
<text text-anchor="start" x="33.9476" y="-313.951" font-family="Times,serif" font-size="14.00">current_resource</text>
<text text-anchor="start" x="33.9476" y="-297.151" font-family="Times,serif" font-size="14.00">tag_params</text>
</g>
<!-- Admin::BaseController&#45;&gt;Admin::TagsController -->
<g id="edge9" class="edge"><title>Admin::BaseController&#45;&gt;Admin::TagsController</title>
<path fill="none" stroke="black" d="M335.141,-477.882C287.563,-461.847 225.769,-441.02 177.352,-424.701"/>
<polyline fill="none" stroke="black" points="172.412,-423.036 177.15,-424.633 "/>
</g>
<!-- Admin::UsersController -->
<g id="node11" class="node"><title>Admin::UsersController</title>
<path fill="none" stroke="black" d="M601.761,-26.3929C601.761,-26.3929 729.857,-26.3929 729.857,-26.3929 735.857,-26.3929 741.857,-32.3929 741.857,-38.3929 741.857,-38.3929 741.857,-230.393 741.857,-230.393 741.857,-236.393 735.857,-242.393 729.857,-242.393 729.857,-242.393 601.761,-242.393 601.761,-242.393 595.761,-242.393 589.761,-236.393 589.761,-230.393 589.761,-230.393 589.761,-38.3929 589.761,-38.3929 589.761,-32.3929 595.761,-26.3929 601.761,-26.3929"/>
<text text-anchor="middle" x="665.809" y="-224.393" font-family="Times,serif" font-size="14.00">Admin::UsersController</text>
<polyline fill="none" stroke="black" points="589.761,-217.593 741.857,-217.593 "/>
<text text-anchor="start" x="597.761" y="-199.593" font-family="Times,serif" font-size="14.00">create</text>
<text text-anchor="start" x="597.761" y="-182.793" font-family="Times,serif" font-size="14.00">destroy</text>
<text text-anchor="start" x="597.761" y="-165.993" font-family="Times,serif" font-size="14.00">edit</text>
<text text-anchor="start" x="597.761" y="-149.193" font-family="Times,serif" font-size="14.00">index</text>
<text text-anchor="start" x="597.761" y="-132.393" font-family="Times,serif" font-size="14.00">new</text>
<text text-anchor="start" x="597.761" y="-115.593" font-family="Times,serif" font-size="14.00">update</text>
<polyline fill="none" stroke="black" points="589.761,-108.793 741.857,-108.793 "/>
<polyline fill="none" stroke="black" points="589.761,-84.7929 741.857,-84.7929 "/>
<text text-anchor="start" x="597.761" y="-66.7929" font-family="Times,serif" font-size="14.00">_layout</text>
<text text-anchor="start" x="597.761" y="-49.9929" font-family="Times,serif" font-size="14.00">current_resource</text>
<text text-anchor="start" x="597.761" y="-33.1929" font-family="Times,serif" font-size="14.00">user_params</text>
</g>
<!-- Admin::BaseController&#45;&gt;Admin::UsersController -->
<g id="edge10" class="edge"><title>Admin::BaseController&#45;&gt;Admin::UsersController</title>
<path fill="none" stroke="black" d="M466.911,-419.63C502.531,-368.548 548.625,-302.446 587.469,-246.739"/>
<polyline fill="none" stroke="black" points="590.49,-242.407 587.63,-246.508 "/>
</g>
<!-- Admin::VerificatorCommentsController -->
<g id="node12" class="node"><title>Admin::VerificatorCommentsController</title>
<path fill="none" stroke="black" d="M300.456,-66.965C300.456,-66.965 516.429,-66.965 516.429,-66.965 522.429,-66.965 528.429,-72.965 528.429,-78.965 528.429,-78.965 528.429,-220.565 528.429,-220.565 528.429,-226.565 522.429,-232.565 516.429,-232.565 516.429,-232.565 300.456,-232.565 300.456,-232.565 294.456,-232.565 288.456,-226.565 288.456,-220.565 288.456,-220.565 288.456,-78.965 288.456,-78.965 288.456,-72.965 294.456,-66.965 300.456,-66.965"/>
<text text-anchor="middle" x="408.442" y="-214.565" font-family="Times,serif" font-size="14.00">Admin::VerificatorCommentsController</text>
<polyline fill="none" stroke="black" points="288.456,-207.765 528.429,-207.765 "/>
<text text-anchor="start" x="296.456" y="-189.765" font-family="Times,serif" font-size="14.00">create</text>
<text text-anchor="start" x="296.456" y="-172.965" font-family="Times,serif" font-size="14.00">destroy</text>
<text text-anchor="start" x="296.456" y="-156.165" font-family="Times,serif" font-size="14.00">update</text>
<polyline fill="none" stroke="black" points="288.456,-149.365 528.429,-149.365 "/>
<polyline fill="none" stroke="black" points="288.456,-125.365 528.429,-125.365 "/>
<text text-anchor="start" x="296.456" y="-107.365" font-family="Times,serif" font-size="14.00">_layout</text>
<text text-anchor="start" x="296.456" y="-90.565" font-family="Times,serif" font-size="14.00">current_resource</text>
<text text-anchor="start" x="296.456" y="-73.765" font-family="Times,serif" font-size="14.00">verificator_comment_params</text>
</g>
<!-- Admin::BaseController&#45;&gt;Admin::VerificatorCommentsController -->
<g id="edge11" class="edge"><title>Admin::BaseController&#45;&gt;Admin::VerificatorCommentsController</title>
<path fill="none" stroke="black" d="M408.827,-419.55C408.749,-364.953 408.648,-293.642 408.568,-238.049"/>
<polyline fill="none" stroke="black" points="408.561,-232.719 408.568,-237.719 "/>
</g>
<!-- ApplicationController -->
<g id="node13" class="node"><title>ApplicationController</title>
<path fill="none" stroke="black" d="M605.777,-711.509C605.777,-711.509 721.419,-711.509 721.419,-711.509 727.419,-711.509 733.419,-717.509 733.419,-723.509 733.419,-723.509 733.419,-814.709 733.419,-814.709 733.419,-820.709 727.419,-826.709 721.419,-826.709 721.419,-826.709 605.777,-826.709 605.777,-826.709 599.777,-826.709 593.777,-820.709 593.777,-814.709 593.777,-814.709 593.777,-723.509 593.777,-723.509 593.777,-717.509 599.777,-711.509 605.777,-711.509"/>
<text text-anchor="middle" x="663.598" y="-808.709" font-family="Times,serif" font-size="14.00">ApplicationController</text>
<polyline fill="none" stroke="black" points="593.777,-801.909 733.419,-801.909 "/>
<text text-anchor="start" x="601.777" y="-783.909" font-family="Times,serif" font-size="14.00">error</text>
<text text-anchor="start" x="601.777" y="-767.109" font-family="Times,serif" font-size="14.00">success</text>
<polyline fill="none" stroke="black" points="593.777,-760.309 733.419,-760.309 "/>
<polyline fill="none" stroke="black" points="593.777,-736.309 733.419,-736.309 "/>
<text text-anchor="start" x="601.777" y="-718.309" font-family="Times,serif" font-size="14.00">_layout</text>
</g>
<!-- ApplicationController&#45;&gt;Admin::BaseController -->
<g id="edge3" class="edge"><title>ApplicationController&#45;&gt;Admin::BaseController</title>
<path fill="none" stroke="black" d="M608.342,-711.315C572.703,-674.038 525.83,-625.012 486.485,-583.86"/>
<polyline fill="none" stroke="black" points="482.702,-579.902 486.157,-583.516 "/>
</g>
<!-- CardsController -->
<g id="node14" class="node"><title>CardsController</title>
<path fill="none" stroke="black" d="M931.058,-775.01C931.058,-775.01 1013.27,-775.01 1013.27,-775.01 1019.27,-775.01 1025.27,-781.01 1025.27,-787.01 1025.27,-787.01 1025.27,-962.21 1025.27,-962.21 1025.27,-968.21 1019.27,-974.21 1013.27,-974.21 1013.27,-974.21 931.058,-974.21 931.058,-974.21 925.058,-974.21 919.058,-968.21 919.058,-962.21 919.058,-962.21 919.058,-787.01 919.058,-787.01 919.058,-781.01 925.058,-775.01 931.058,-775.01"/>
<text text-anchor="middle" x="972.162" y="-956.21" font-family="Times,serif" font-size="14.00">CardsController</text>
<polyline fill="none" stroke="black" points="919.058,-949.41 1025.27,-949.41 "/>
<text text-anchor="start" x="927.058" y="-931.41" font-family="Times,serif" font-size="14.00">change</text>
<text text-anchor="start" x="927.058" y="-914.61" font-family="Times,serif" font-size="14.00">create</text>
<text text-anchor="start" x="927.058" y="-897.81" font-family="Times,serif" font-size="14.00">index</text>
<text text-anchor="start" x="927.058" y="-881.01" font-family="Times,serif" font-size="14.00">new</text>
<text text-anchor="start" x="927.058" y="-864.21" font-family="Times,serif" font-size="14.00">show</text>
<polyline fill="none" stroke="black" points="919.058,-857.41 1025.27,-857.41 "/>
<polyline fill="none" stroke="black" points="919.058,-833.41 1025.27,-833.41 "/>
<text text-anchor="start" x="927.058" y="-815.41" font-family="Times,serif" font-size="14.00">_layout</text>
<text text-anchor="start" x="927.058" y="-798.61" font-family="Times,serif" font-size="14.00">card_params</text>
<text text-anchor="start" x="927.058" y="-781.81" font-family="Times,serif" font-size="14.00">validator</text>
</g>
<!-- ApplicationController&#45;&gt;CardsController -->
<g id="edge12" class="edge"><title>ApplicationController&#45;&gt;CardsController</title>
<path fill="none" stroke="black" d="M733.616,-793.049C788.048,-811.66 862.667,-837.173 913.874,-854.681"/>
<polyline fill="none" stroke="black" points="918.755,-856.35 914.024,-854.732 "/>
</g>
<!-- PagesController -->
<g id="node15" class="node"><title>PagesController</title>
<path fill="none" stroke="black" d="M933.757,-1109.5C933.757,-1109.5 1015.96,-1109.5 1015.96,-1109.5 1021.96,-1109.5 1027.96,-1115.5 1027.96,-1121.5 1027.96,-1121.5 1027.96,-1212.7 1027.96,-1212.7 1027.96,-1218.7 1021.96,-1224.7 1015.96,-1224.7 1015.96,-1224.7 933.757,-1224.7 933.757,-1224.7 927.757,-1224.7 921.757,-1218.7 921.757,-1212.7 921.757,-1212.7 921.757,-1121.5 921.757,-1121.5 921.757,-1115.5 927.757,-1109.5 933.757,-1109.5"/>
<text text-anchor="middle" x="974.86" y="-1206.7" font-family="Times,serif" font-size="14.00">PagesController</text>
<polyline fill="none" stroke="black" points="921.757,-1199.9 1027.96,-1199.9 "/>
<text text-anchor="start" x="929.757" y="-1181.9" font-family="Times,serif" font-size="14.00">about</text>
<text text-anchor="start" x="929.757" y="-1165.1" font-family="Times,serif" font-size="14.00">home</text>
<polyline fill="none" stroke="black" points="921.757,-1158.3 1027.96,-1158.3 "/>
<polyline fill="none" stroke="black" points="921.757,-1134.3 1027.96,-1134.3 "/>
<text text-anchor="start" x="929.757" y="-1116.3" font-family="Times,serif" font-size="14.00">_layout</text>
</g>
<!-- ApplicationController&#45;&gt;PagesController -->
<g id="edge13" class="edge"><title>ApplicationController&#45;&gt;PagesController</title>
<path fill="none" stroke="black" d="M708.858,-826.981C766.917,-901.217 867.197,-1029.44 926.647,-1105.46"/>
<polyline fill="none" stroke="black" points="929.798,-1109.49 926.718,-1105.55 "/>
</g>
<!-- PasswordResetsController -->
<g id="node16" class="node"><title>PasswordResetsController</title>
<path fill="none" stroke="black" d="M591.141,-1039C591.141,-1039 730.907,-1039 730.907,-1039 736.907,-1039 742.907,-1045 742.907,-1051 742.907,-1051 742.907,-1192.6 742.907,-1192.6 742.907,-1198.6 736.907,-1204.6 730.907,-1204.6 730.907,-1204.6 591.141,-1204.6 591.141,-1204.6 585.141,-1204.6 579.141,-1198.6 579.141,-1192.6 579.141,-1192.6 579.141,-1051 579.141,-1051 579.141,-1045 585.141,-1039 591.141,-1039"/>
<text text-anchor="middle" x="661.024" y="-1186.6" font-family="Times,serif" font-size="14.00">PasswordResetsController</text>
<polyline fill="none" stroke="black" points="579.141,-1179.8 742.907,-1179.8 "/>
<text text-anchor="start" x="587.141" y="-1161.8" font-family="Times,serif" font-size="14.00">create</text>
<text text-anchor="start" x="587.141" y="-1145" font-family="Times,serif" font-size="14.00">edit</text>
<text text-anchor="start" x="587.141" y="-1128.2" font-family="Times,serif" font-size="14.00">new</text>
<text text-anchor="start" x="587.141" y="-1111.4" font-family="Times,serif" font-size="14.00">update</text>
<polyline fill="none" stroke="black" points="579.141,-1104.6 742.907,-1104.6 "/>
<polyline fill="none" stroke="black" points="579.141,-1080.6 742.907,-1080.6 "/>
<text text-anchor="start" x="587.141" y="-1062.6" font-family="Times,serif" font-size="14.00">_layout</text>
<text text-anchor="start" x="587.141" y="-1045.8" font-family="Times,serif" font-size="14.00">user_params</text>
</g>
<!-- ApplicationController&#45;&gt;PasswordResetsController -->
<g id="edge14" class="edge"><title>ApplicationController&#45;&gt;PasswordResetsController</title>
<path fill="none" stroke="black" d="M663.176,-826.954C662.766,-883.14 662.138,-969.198 661.666,-1033.86"/>
<polyline fill="none" stroke="black" points="661.629,-1038.87 661.666,-1033.87 "/>
</g>
<!-- SearchesController -->
<g id="node17" class="node"><title>SearchesController</title>
<path fill="none" stroke="black" d="M927.797,-564.622C927.797,-564.622 1027.09,-564.622 1027.09,-564.622 1033.09,-564.622 1039.09,-570.622 1039.09,-576.622 1039.09,-576.622 1039.09,-701.422 1039.09,-701.422 1039.09,-707.422 1033.09,-713.422 1027.09,-713.422 1027.09,-713.422 927.797,-713.422 927.797,-713.422 921.797,-713.422 915.797,-707.422 915.797,-701.422 915.797,-701.422 915.797,-576.622 915.797,-576.622 915.797,-570.622 921.797,-564.622 927.797,-564.622"/>
<text text-anchor="middle" x="977.446" y="-695.422" font-family="Times,serif" font-size="14.00">SearchesController</text>
<polyline fill="none" stroke="black" points="915.797,-688.622 1039.09,-688.622 "/>
<text text-anchor="start" x="923.797" y="-670.622" font-family="Times,serif" font-size="14.00">actions</text>
<text text-anchor="start" x="923.797" y="-653.822" font-family="Times,serif" font-size="14.00">affiliations</text>
<text text-anchor="start" x="923.797" y="-637.022" font-family="Times,serif" font-size="14.00">responsables</text>
<text text-anchor="start" x="923.797" y="-620.222" font-family="Times,serif" font-size="14.00">tags</text>
<polyline fill="none" stroke="black" points="915.797,-613.422 1039.09,-613.422 "/>
<polyline fill="none" stroke="black" points="915.797,-589.422 1039.09,-589.422 "/>
<text text-anchor="start" x="923.797" y="-571.422" font-family="Times,serif" font-size="14.00">_layout</text>
</g>
<!-- ApplicationController&#45;&gt;SearchesController -->
<g id="edge15" class="edge"><title>ApplicationController&#45;&gt;SearchesController</title>
<path fill="none" stroke="black" d="M733.641,-740.077C786.602,-718.125 858.842,-688.182 910.922,-666.595"/>
<polyline fill="none" stroke="black" points="915.582,-664.664 910.963,-666.579 "/>
</g>
<!-- SessionsController -->
<g id="node18" class="node"><title>SessionsController</title>
<path fill="none" stroke="black" d="M927.587,-336.99C927.587,-336.99 1025.37,-336.99 1025.37,-336.99 1031.37,-336.99 1037.37,-342.99 1037.37,-348.99 1037.37,-348.99 1037.37,-456.99 1037.37,-456.99 1037.37,-462.99 1031.37,-468.99 1025.37,-468.99 1025.37,-468.99 927.587,-468.99 927.587,-468.99 921.587,-468.99 915.587,-462.99 915.587,-456.99 915.587,-456.99 915.587,-348.99 915.587,-348.99 915.587,-342.99 921.587,-336.99 927.587,-336.99"/>
<text text-anchor="middle" x="976.476" y="-450.99" font-family="Times,serif" font-size="14.00">SessionsController</text>
<polyline fill="none" stroke="black" points="915.587,-444.19 1037.37,-444.19 "/>
<text text-anchor="start" x="923.587" y="-426.19" font-family="Times,serif" font-size="14.00">create</text>
<text text-anchor="start" x="923.587" y="-409.39" font-family="Times,serif" font-size="14.00">destroy</text>
<text text-anchor="start" x="923.587" y="-392.59" font-family="Times,serif" font-size="14.00">new</text>
<polyline fill="none" stroke="black" points="915.587,-385.79 1037.37,-385.79 "/>
<polyline fill="none" stroke="black" points="915.587,-361.79 1037.37,-361.79 "/>
<text text-anchor="start" x="923.587" y="-343.79" font-family="Times,serif" font-size="14.00">_layout</text>
</g>
<!-- ApplicationController&#45;&gt;SessionsController -->
<g id="edge16" class="edge"><title>ApplicationController&#45;&gt;SessionsController</title>
<path fill="none" stroke="black" d="M712.83,-711.5C767.92,-647.035 857.187,-542.578 916.358,-473.339"/>
<polyline fill="none" stroke="black" points="919.857,-469.243 916.609,-473.045 "/>
</g>
<!-- UsersController -->
<g id="node19" class="node"><title>UsersController</title>
<path fill="none" stroke="black" d="M362.756,-1038.79C362.756,-1038.79 444.184,-1038.79 444.184,-1038.79 450.184,-1038.79 456.184,-1044.79 456.184,-1050.79 456.184,-1050.79 456.184,-1225.99 456.184,-1225.99 456.184,-1231.99 450.184,-1237.99 444.184,-1237.99 444.184,-1237.99 362.756,-1237.99 362.756,-1237.99 356.756,-1237.99 350.756,-1231.99 350.756,-1225.99 350.756,-1225.99 350.756,-1050.79 350.756,-1050.79 350.756,-1044.79 356.756,-1038.79 362.756,-1038.79"/>
<text text-anchor="middle" x="403.47" y="-1219.99" font-family="Times,serif" font-size="14.00">UsersController</text>
<polyline fill="none" stroke="black" points="350.756,-1213.19 456.184,-1213.19 "/>
<text text-anchor="start" x="358.756" y="-1195.19" font-family="Times,serif" font-size="14.00">create</text>
<text text-anchor="start" x="358.756" y="-1178.39" font-family="Times,serif" font-size="14.00">edit</text>
<text text-anchor="start" x="358.756" y="-1161.59" font-family="Times,serif" font-size="14.00">new</text>
<text text-anchor="start" x="358.756" y="-1144.79" font-family="Times,serif" font-size="14.00">profile</text>
<text text-anchor="start" x="358.756" y="-1127.99" font-family="Times,serif" font-size="14.00">update</text>
<polyline fill="none" stroke="black" points="350.756,-1121.19 456.184,-1121.19 "/>
<polyline fill="none" stroke="black" points="350.756,-1097.19 456.184,-1097.19 "/>
<text text-anchor="start" x="358.756" y="-1079.19" font-family="Times,serif" font-size="14.00">_layout</text>
<text text-anchor="start" x="358.756" y="-1062.39" font-family="Times,serif" font-size="14.00">connected?</text>
<text text-anchor="start" x="358.756" y="-1045.59" font-family="Times,serif" font-size="14.00">user_params</text>
</g>
<!-- ApplicationController&#45;&gt;UsersController -->
<g id="edge17" class="edge"><title>ApplicationController&#45;&gt;UsersController</title>
<path fill="none" stroke="black" d="M622.953,-826.809C578.891,-889.36 508.292,-989.582 459.103,-1059.41"/>
<polyline fill="none" stroke="black" points="456.189,-1063.55 459.068,-1059.46 "/>
</g>
</g>
</svg>
