<?xml version="1.0" encoding="UTF-8" standalone="no"?>
<!DOCTYPE svg PUBLIC "-//W3C//DTD SVG 1.1//EN"
 "http://www.w3.org/Graphics/SVG/1.1/DTD/svg11.dtd">
<!-- Generated by graphviz version 2.34.0 (20140206.1422)
 -->
<!-- Title: controllers_diagram Pages: 1 -->
<svg width="1385pt" height="1234pt"
 viewBox="0.00 0.00 1385.38 1233.67" xmlns="http://www.w3.org/2000/svg" xmlns:xlink="http://www.w3.org/1999/xlink">
<g id="graph0" class="graph" transform="scale(1 1) rotate(0) translate(4 1229.67)">
<title>controllers_diagram</title>
<polygon fill="white" stroke="white" points="-4,4 -4,-1229.67 1381.38,-1229.67 1381.38,4 -4,4"/>
<!-- _diagram_info -->
<g id="node1" class="node"><title>_diagram_info</title>
<text text-anchor="start" x="1178" y="-429" font-family="Times,serif" font-size="13.00">Controllers diagram</text>
<text text-anchor="start" x="1178" y="-413.4" font-family="Times,serif" font-size="13.00">Date: Feb 06 2014 &#45; 19:05</text>
<text text-anchor="start" x="1178" y="-397.8" font-family="Times,serif" font-size="13.00">Migration version: 20140206155026</text>
<text text-anchor="start" x="1178" y="-382.2" font-family="Times,serif" font-size="13.00">Generated by RailRoady 1.1.1</text>
<text text-anchor="start" x="1178" y="-366.6" font-family="Times,serif" font-size="13.00">http://railroady.prestonlee.com</text>
</g>
<!-- Admin::ActionsController -->
<g id="node2" class="node"><title>Admin::ActionsController</title>
<path fill="none" stroke="black" d="M25.9491,-493.662C25.9491,-493.662 165.715,-493.662 165.715,-493.662 171.715,-493.662 177.715,-499.662 177.715,-505.662 177.715,-505.662 177.715,-697.662 177.715,-697.662 177.715,-703.662 171.715,-709.662 165.715,-709.662 165.715,-709.662 25.9491,-709.662 25.9491,-709.662 19.9491,-709.662 13.9491,-703.662 13.9491,-697.662 13.9491,-697.662 13.9491,-505.662 13.9491,-505.662 13.9491,-499.662 19.9491,-493.662 25.9491,-493.662"/>
<text text-anchor="middle" x="95.8319" y="-691.662" font-family="Times,serif" font-size="14.00">Admin::ActionsController</text>
<polyline fill="none" stroke="black" points="13.9491,-684.862 177.715,-684.862 "/>
<text text-anchor="start" x="21.9491" y="-666.862" font-family="Times,serif" font-size="14.00">create</text>
<text text-anchor="start" x="21.9491" y="-650.062" font-family="Times,serif" font-size="14.00">destroy</text>
<text text-anchor="start" x="21.9491" y="-633.262" font-family="Times,serif" font-size="14.00">edit</text>
<text text-anchor="start" x="21.9491" y="-616.462" font-family="Times,serif" font-size="14.00">index</text>
<text text-anchor="start" x="21.9491" y="-599.662" font-family="Times,serif" font-size="14.00">new</text>
<text text-anchor="start" x="21.9491" y="-582.862" font-family="Times,serif" font-size="14.00">update</text>
<polyline fill="none" stroke="black" points="13.9491,-576.062 177.715,-576.062 "/>
<polyline fill="none" stroke="black" points="13.9491,-552.062 177.715,-552.062 "/>
<text text-anchor="start" x="21.9491" y="-534.062" font-family="Times,serif" font-size="14.00">_layout</text>
<text text-anchor="start" x="21.9491" y="-517.262" font-family="Times,serif" font-size="14.00">action_params</text>
<text text-anchor="start" x="21.9491" y="-500.462" font-family="Times,serif" font-size="14.00">current_resource</text>
</g>
<!-- Admin::AffiliationsController -->
<g id="node3" class="node"><title>Admin::AffiliationsController</title>
<path fill="none" stroke="black" d="M610.934,-365.628C610.934,-365.628 770.927,-365.628 770.927,-365.628 776.927,-365.628 782.927,-371.628 782.927,-377.628 782.927,-377.628 782.927,-569.628 782.927,-569.628 782.927,-575.628 776.927,-581.628 770.927,-581.628 770.927,-581.628 610.934,-581.628 610.934,-581.628 604.934,-581.628 598.934,-575.628 598.934,-569.628 598.934,-569.628 598.934,-377.628 598.934,-377.628 598.934,-371.628 604.934,-365.628 610.934,-365.628"/>
<text text-anchor="middle" x="690.93" y="-563.628" font-family="Times,serif" font-size="14.00">Admin::AffiliationsController</text>
<polyline fill="none" stroke="black" points="598.934,-556.828 782.927,-556.828 "/>
<text text-anchor="start" x="606.934" y="-538.828" font-family="Times,serif" font-size="14.00">create</text>
<text text-anchor="start" x="606.934" y="-522.028" font-family="Times,serif" font-size="14.00">destroy</text>
<text text-anchor="start" x="606.934" y="-505.228" font-family="Times,serif" font-size="14.00">edit</text>
<text text-anchor="start" x="606.934" y="-488.428" font-family="Times,serif" font-size="14.00">index</text>
<text text-anchor="start" x="606.934" y="-471.628" font-family="Times,serif" font-size="14.00">new</text>
<text text-anchor="start" x="606.934" y="-454.828" font-family="Times,serif" font-size="14.00">update</text>
<polyline fill="none" stroke="black" points="598.934,-448.028 782.927,-448.028 "/>
<polyline fill="none" stroke="black" points="598.934,-424.028 782.927,-424.028 "/>
<text text-anchor="start" x="606.934" y="-406.028" font-family="Times,serif" font-size="14.00">_layout</text>
<text text-anchor="start" x="606.934" y="-389.228" font-family="Times,serif" font-size="14.00">affiliation_params</text>
<text text-anchor="start" x="606.934" y="-372.428" font-family="Times,serif" font-size="14.00">current_resource</text>
</g>
<!-- Admin::BaseController -->
<g id="node4" class="node"><title>Admin::BaseController</title>
<path fill="none" stroke="black" d="M364.116,-385.516C364.116,-385.516 487.543,-385.516 487.543,-385.516 493.543,-385.516 499.543,-391.516 499.543,-397.516 499.543,-397.516 499.543,-522.316 499.543,-522.316 499.543,-528.316 493.543,-534.316 487.543,-534.316 487.543,-534.316 364.116,-534.316 364.116,-534.316 358.116,-534.316 352.116,-528.316 352.116,-522.316 352.116,-522.316 352.116,-397.516 352.116,-397.516 352.116,-391.516 358.116,-385.516 364.116,-385.516"/>
<text text-anchor="middle" x="425.829" y="-516.316" font-family="Times,serif" font-size="14.00">Admin::BaseController</text>
<polyline fill="none" stroke="black" points="352.116,-509.516 499.543,-509.516 "/>
<text text-anchor="start" x="360.116" y="-491.516" font-family="Times,serif" font-size="14.00">current_permission</text>
<polyline fill="none" stroke="black" points="352.116,-484.716 499.543,-484.716 "/>
<polyline fill="none" stroke="black" points="352.116,-460.716 499.543,-460.716 "/>
<text text-anchor="start" x="360.116" y="-442.716" font-family="Times,serif" font-size="14.00">_layout</text>
<text text-anchor="start" x="360.116" y="-425.916" font-family="Times,serif" font-size="14.00">authorize_action</text>
<text text-anchor="start" x="360.116" y="-409.116" font-family="Times,serif" font-size="14.00">authorize_create</text>
<text text-anchor="start" x="360.116" y="-392.316" font-family="Times,serif" font-size="14.00">authorize_modify</text>
</g>
<!-- Admin::BaseController&#45;&gt;Admin::ActionsController -->
<g id="edge1" class="edge"><title>Admin::BaseController&#45;&gt;Admin::ActionsController</title>
<path fill="none" stroke="black" d="M351.772,-491.727C301.598,-513.278 235.11,-541.837 182.476,-564.445"/>
<polyline fill="none" stroke="black" points="177.749,-566.476 182.343,-564.502 "/>
</g>
<!-- Admin::BaseController&#45;&gt;Admin::AffiliationsController -->
<g id="edge2" class="edge"><title>Admin::BaseController&#45;&gt;Admin::AffiliationsController</title>
<path fill="none" stroke="black" d="M499.675,-463.736C528.64,-465.234 562.293,-466.974 593.221,-468.574"/>
<polyline fill="none" stroke="black" points="598.56,-468.85 593.567,-468.592 "/>
</g>
<!-- Admin::CardTypesController -->
<g id="node5" class="node"><title>Admin::CardTypesController</title>
<path fill="none" stroke="black" d="M20.8973,-1009.17C20.8973,-1009.17 177.561,-1009.17 177.561,-1009.17 183.561,-1009.17 189.561,-1015.17 189.561,-1021.17 189.561,-1021.17 189.561,-1213.17 189.561,-1213.17 189.561,-1219.17 183.561,-1225.17 177.561,-1225.17 177.561,-1225.17 20.8973,-1225.17 20.8973,-1225.17 14.8973,-1225.17 8.89732,-1219.17 8.89732,-1213.17 8.89732,-1213.17 8.89732,-1021.17 8.89732,-1021.17 8.89732,-1015.17 14.8973,-1009.17 20.8973,-1009.17"/>
<text text-anchor="middle" x="99.2294" y="-1207.17" font-family="Times,serif" font-size="14.00">Admin::CardTypesController</text>
<polyline fill="none" stroke="black" points="8.89732,-1200.37 189.561,-1200.37 "/>
<text text-anchor="start" x="16.8973" y="-1182.37" font-family="Times,serif" font-size="14.00">create</text>
<text text-anchor="start" x="16.8973" y="-1165.57" font-family="Times,serif" font-size="14.00">destroy</text>
<text text-anchor="start" x="16.8973" y="-1148.77" font-family="Times,serif" font-size="14.00">edit</text>
<text text-anchor="start" x="16.8973" y="-1131.97" font-family="Times,serif" font-size="14.00">index</text>
<text text-anchor="start" x="16.8973" y="-1115.17" font-family="Times,serif" font-size="14.00">new</text>
<text text-anchor="start" x="16.8973" y="-1098.37" font-family="Times,serif" font-size="14.00">update</text>
<polyline fill="none" stroke="black" points="8.89732,-1091.57 189.561,-1091.57 "/>
<polyline fill="none" stroke="black" points="8.89732,-1067.57 189.561,-1067.57 "/>
<text text-anchor="start" x="16.8973" y="-1049.57" font-family="Times,serif" font-size="14.00">_layout</text>
<text text-anchor="start" x="16.8973" y="-1032.77" font-family="Times,serif" font-size="14.00">card_type_params</text>
<text text-anchor="start" x="16.8973" y="-1015.97" font-family="Times,serif" font-size="14.00">current_resource</text>
</g>
<!-- Admin::BaseController&#45;&gt;Admin::CardTypesController -->
<g id="edge4" class="edge"><title>Admin::BaseController&#45;&gt;Admin::CardTypesController</title>
<path fill="none" stroke="black" d="M362.42,-534.34C351.05,-549.543 339.923,-565.833 330.766,-581.942 245.879,-731.269 261.228,-785.55 190.297,-941.988 181.085,-962.304 170.672,-983.612 160.263,-1004.09"/>
<polyline fill="none" stroke="black" points="157.902,-1008.73 160.173,-1004.27 "/>
</g>
<!-- Admin::CardsController -->
<g id="node6" class="node"><title>Admin::CardsController</title>
<path fill="none" stroke="black" d="M345.966,-585.142C345.966,-585.142 474.842,-585.142 474.842,-585.142 480.842,-585.142 486.842,-591.142 486.842,-597.142 486.842,-597.142 486.842,-889.942 486.842,-889.942 486.842,-895.942 480.842,-901.942 474.842,-901.942 474.842,-901.942 345.966,-901.942 345.966,-901.942 339.966,-901.942 333.966,-895.942 333.966,-889.942 333.966,-889.942 333.966,-597.142 333.966,-597.142 333.966,-591.142 339.966,-585.142 345.966,-585.142"/>
<text text-anchor="middle" x="410.404" y="-883.942" font-family="Times,serif" font-size="14.00">Admin::CardsController</text>
<polyline fill="none" stroke="black" points="333.966,-877.142 486.842,-877.142 "/>
<text text-anchor="start" x="341.966" y="-859.142" font-family="Times,serif" font-size="14.00">create</text>
<text text-anchor="start" x="341.966" y="-842.342" font-family="Times,serif" font-size="14.00">destroy</text>
<text text-anchor="start" x="341.966" y="-825.542" font-family="Times,serif" font-size="14.00">edit</text>
<text text-anchor="start" x="341.966" y="-808.742" font-family="Times,serif" font-size="14.00">index</text>
<text text-anchor="start" x="341.966" y="-791.942" font-family="Times,serif" font-size="14.00">new</text>
<text text-anchor="start" x="341.966" y="-775.142" font-family="Times,serif" font-size="14.00">show</text>
<text text-anchor="start" x="341.966" y="-758.342" font-family="Times,serif" font-size="14.00">update</text>
<text text-anchor="start" x="341.966" y="-741.542" font-family="Times,serif" font-size="14.00">verificate</text>
<polyline fill="none" stroke="black" points="333.966,-734.742 486.842,-734.742 "/>
<polyline fill="none" stroke="black" points="333.966,-710.742 486.842,-710.742 "/>
<text text-anchor="start" x="341.966" y="-692.742" font-family="Times,serif" font-size="14.00">_layout</text>
<text text-anchor="start" x="341.966" y="-675.942" font-family="Times,serif" font-size="14.00">attributes</text>
<text text-anchor="start" x="341.966" y="-659.142" font-family="Times,serif" font-size="14.00">card_admins</text>
<text text-anchor="start" x="341.966" y="-642.342" font-family="Times,serif" font-size="14.00">card_params</text>
<text text-anchor="start" x="341.966" y="-625.542" font-family="Times,serif" font-size="14.00">current_resource</text>
<text text-anchor="start" x="341.966" y="-608.742" font-family="Times,serif" font-size="14.00">verificators_emails</text>
<text text-anchor="start" x="341.966" y="-591.942" font-family="Times,serif" font-size="14.00">verified?</text>
</g>
<!-- Admin::BaseController&#45;&gt;Admin::CardsController -->
<g id="edge5" class="edge"><title>Admin::BaseController&#45;&gt;Admin::CardsController</title>
<path fill="none" stroke="black" d="M421.776,-534.436C421.007,-548.592 420.173,-563.912 419.32,-579.603"/>
<polyline fill="none" stroke="black" points="419.03,-584.938 419.301,-579.945 "/>
</g>
<!-- Admin::OwnershipsController -->
<g id="node7" class="node"><title>Admin::OwnershipsController</title>
<path fill="none" stroke="black" d="M12,-722.788C12,-722.788 175.097,-722.788 175.097,-722.788 181.097,-722.788 187.097,-728.788 187.097,-734.788 187.097,-734.788 187.097,-926.788 187.097,-926.788 187.097,-932.788 181.097,-938.788 175.097,-938.788 175.097,-938.788 12,-938.788 12,-938.788 6,-938.788 0,-932.788 0,-926.788 0,-926.788 0,-734.788 0,-734.788 0,-728.788 6,-722.788 12,-722.788"/>
<text text-anchor="middle" x="93.5483" y="-920.788" font-family="Times,serif" font-size="14.00">Admin::OwnershipsController</text>
<polyline fill="none" stroke="black" points="0,-913.988 187.097,-913.988 "/>
<text text-anchor="start" x="8" y="-895.988" font-family="Times,serif" font-size="14.00">create</text>
<text text-anchor="start" x="8" y="-879.188" font-family="Times,serif" font-size="14.00">destroy</text>
<text text-anchor="start" x="8" y="-862.388" font-family="Times,serif" font-size="14.00">edit</text>
<text text-anchor="start" x="8" y="-845.588" font-family="Times,serif" font-size="14.00">index</text>
<text text-anchor="start" x="8" y="-828.788" font-family="Times,serif" font-size="14.00">new</text>
<text text-anchor="start" x="8" y="-811.988" font-family="Times,serif" font-size="14.00">update</text>
<polyline fill="none" stroke="black" points="0,-805.188 187.097,-805.188 "/>
<polyline fill="none" stroke="black" points="0,-781.188 187.097,-781.188 "/>
<text text-anchor="start" x="8" y="-763.188" font-family="Times,serif" font-size="14.00">_layout</text>
<text text-anchor="start" x="8" y="-746.388" font-family="Times,serif" font-size="14.00">current_resource</text>
<text text-anchor="start" x="8" y="-729.588" font-family="Times,serif" font-size="14.00">ownership_params</text>
</g>
<!-- Admin::BaseController&#45;&gt;Admin::OwnershipsController -->
<g id="edge6" class="edge"><title>Admin::BaseController&#45;&gt;Admin::OwnershipsController</title>
<path fill="none" stroke="black" d="M358.987,-534.521C310.772,-588.336 244.933,-661.821 190.89,-722.141"/>
<polyline fill="none" stroke="black" points="187.348,-726.095 190.684,-722.371 "/>
</g>
<!-- Admin::PagesController -->
<g id="node8" class="node"><title>Admin::PagesController</title>
<path fill="none" stroke="black" d="M27.5694,-7.2186C27.5694,-7.2186 156.445,-7.2186 156.445,-7.2186 162.445,-7.2186 168.445,-13.2186 168.445,-19.2186 168.445,-19.2186 168.445,-160.819 168.445,-160.819 168.445,-166.819 162.445,-172.819 156.445,-172.819 156.445,-172.819 27.5694,-172.819 27.5694,-172.819 21.5694,-172.819 15.5694,-166.819 15.5694,-160.819 15.5694,-160.819 15.5694,-19.2186 15.5694,-19.2186 15.5694,-13.2186 21.5694,-7.2186 27.5694,-7.2186"/>
<text text-anchor="middle" x="92.0074" y="-154.819" font-family="Times,serif" font-size="14.00">Admin::PagesController</text>
<polyline fill="none" stroke="black" points="15.5694,-148.019 168.445,-148.019 "/>
<text text-anchor="start" x="23.5694" y="-130.019" font-family="Times,serif" font-size="14.00">edit</text>
<text text-anchor="start" x="23.5694" y="-113.219" font-family="Times,serif" font-size="14.00">index</text>
<text text-anchor="start" x="23.5694" y="-96.4186" font-family="Times,serif" font-size="14.00">update</text>
<polyline fill="none" stroke="black" points="15.5694,-89.6186 168.445,-89.6186 "/>
<polyline fill="none" stroke="black" points="15.5694,-65.6186 168.445,-65.6186 "/>
<text text-anchor="start" x="23.5694" y="-47.6186" font-family="Times,serif" font-size="14.00">_layout</text>
<text text-anchor="start" x="23.5694" y="-30.8186" font-family="Times,serif" font-size="14.00">current_resource</text>
<text text-anchor="start" x="23.5694" y="-14.0186" font-family="Times,serif" font-size="14.00">page_params</text>
</g>
<!-- Admin::BaseController&#45;&gt;Admin::PagesController -->
<g id="edge7" class="edge"><title>Admin::BaseController&#45;&gt;Admin::PagesController</title>
<path fill="none" stroke="black" d="M358.677,-385.507C304.261,-325.21 227.501,-240.155 170.299,-176.771"/>
<polyline fill="none" stroke="black" points="166.904,-173.01 170.254,-176.722 "/>
</g>
<!-- Admin::ResponsablesController -->
<g id="node9" class="node"><title>Admin::ResponsablesController</title>
<path fill="none" stroke="black" d="M906.733,-0.5C906.733,-0.5 1079.16,-0.5 1079.16,-0.5 1085.16,-0.5 1091.16,-6.5 1091.16,-12.5 1091.16,-12.5 1091.16,-204.5 1091.16,-204.5 1091.16,-210.5 1085.16,-216.5 1079.16,-216.5 1079.16,-216.5 906.733,-216.5 906.733,-216.5 900.733,-216.5 894.733,-210.5 894.733,-204.5 894.733,-204.5 894.733,-12.5 894.733,-12.5 894.733,-6.5 900.733,-0.5 906.733,-0.5"/>
<text text-anchor="middle" x="992.947" y="-198.5" font-family="Times,serif" font-size="14.00">Admin::ResponsablesController</text>
<polyline fill="none" stroke="black" points="894.733,-191.7 1091.16,-191.7 "/>
<text text-anchor="start" x="902.733" y="-173.7" font-family="Times,serif" font-size="14.00">create</text>
<text text-anchor="start" x="902.733" y="-156.9" font-family="Times,serif" font-size="14.00">destroy</text>
<text text-anchor="start" x="902.733" y="-140.1" font-family="Times,serif" font-size="14.00">edit</text>
<text text-anchor="start" x="902.733" y="-123.3" font-family="Times,serif" font-size="14.00">index</text>
<text text-anchor="start" x="902.733" y="-106.5" font-family="Times,serif" font-size="14.00">new</text>
<text text-anchor="start" x="902.733" y="-89.7" font-family="Times,serif" font-size="14.00">update</text>
<polyline fill="none" stroke="black" points="894.733,-82.9 1091.16,-82.9 "/>
<polyline fill="none" stroke="black" points="894.733,-58.9 1091.16,-58.9 "/>
<text text-anchor="start" x="902.733" y="-40.9" font-family="Times,serif" font-size="14.00">_layout</text>
<text text-anchor="start" x="902.733" y="-24.1" font-family="Times,serif" font-size="14.00">current_resource</text>
<text text-anchor="start" x="902.733" y="-7.3" font-family="Times,serif" font-size="14.00">responsable_params</text>
</g>
<!-- Admin::BaseController&#45;&gt;Admin::ResponsablesController -->
<g id="edge8" class="edge"><title>Admin::BaseController&#45;&gt;Admin::ResponsablesController</title>
<path fill="none" stroke="black" d="M499.679,-414.155C599.413,-352.355 777.618,-241.929 890.326,-172.089"/>
<polyline fill="none" stroke="black" points="894.641,-169.415 890.391,-172.049 "/>
</g>
<!-- Admin::TagsController -->
<g id="node10" class="node"><title>Admin::TagsController</title>
<path fill="none" stroke="black" d="M41.4119,-269.313C41.4119,-269.313 163.862,-269.313 163.862,-269.313 169.862,-269.313 175.862,-275.313 175.862,-281.313 175.862,-281.313 175.862,-473.313 175.862,-473.313 175.862,-479.313 169.862,-485.313 163.862,-485.313 163.862,-485.313 41.4119,-485.313 41.4119,-485.313 35.4119,-485.313 29.4119,-479.313 29.4119,-473.313 29.4119,-473.313 29.4119,-281.313 29.4119,-281.313 29.4119,-275.313 35.4119,-269.313 41.4119,-269.313"/>
<text text-anchor="middle" x="102.637" y="-467.313" font-family="Times,serif" font-size="14.00">Admin::TagsController</text>
<polyline fill="none" stroke="black" points="29.4119,-460.513 175.862,-460.513 "/>
<text text-anchor="start" x="37.4119" y="-442.513" font-family="Times,serif" font-size="14.00">create</text>
<text text-anchor="start" x="37.4119" y="-425.713" font-family="Times,serif" font-size="14.00">destroy</text>
<text text-anchor="start" x="37.4119" y="-408.913" font-family="Times,serif" font-size="14.00">edit</text>
<text text-anchor="start" x="37.4119" y="-392.113" font-family="Times,serif" font-size="14.00">index</text>
<text text-anchor="start" x="37.4119" y="-375.313" font-family="Times,serif" font-size="14.00">new</text>
<text text-anchor="start" x="37.4119" y="-358.513" font-family="Times,serif" font-size="14.00">update</text>
<polyline fill="none" stroke="black" points="29.4119,-351.713 175.862,-351.713 "/>
<polyline fill="none" stroke="black" points="29.4119,-327.713 175.862,-327.713 "/>
<text text-anchor="start" x="37.4119" y="-309.713" font-family="Times,serif" font-size="14.00">_layout</text>
<text text-anchor="start" x="37.4119" y="-292.913" font-family="Times,serif" font-size="14.00">current_resource</text>
<text text-anchor="start" x="37.4119" y="-276.113" font-family="Times,serif" font-size="14.00">tag_params</text>
</g>
<!-- Admin::BaseController&#45;&gt;Admin::TagsController -->
<g id="edge9" class="edge"><title>Admin::BaseController&#45;&gt;Admin::TagsController</title>
<path fill="none" stroke="black" d="M352.088,-441.069C301.012,-428.015 233.112,-410.661 181.05,-397.354"/>
<polyline fill="none" stroke="black" points="176.062,-396.08 180.906,-397.318 "/>
</g>
<!-- Admin::UsersController -->
<g id="node11" class="node"><title>Admin::UsersController</title>
<path fill="none" stroke="black" d="M612.489,-17.4777C612.489,-17.4777 740.585,-17.4777 740.585,-17.4777 746.585,-17.4777 752.585,-23.4777 752.585,-29.4777 752.585,-29.4777 752.585,-221.478 752.585,-221.478 752.585,-227.478 746.585,-233.478 740.585,-233.478 740.585,-233.478 612.489,-233.478 612.489,-233.478 606.489,-233.478 600.489,-227.478 600.489,-221.478 600.489,-221.478 600.489,-29.4777 600.489,-29.4777 600.489,-23.4777 606.489,-17.4777 612.489,-17.4777"/>
<text text-anchor="middle" x="676.537" y="-215.478" font-family="Times,serif" font-size="14.00">Admin::UsersController</text>
<polyline fill="none" stroke="black" points="600.489,-208.678 752.585,-208.678 "/>
<text text-anchor="start" x="608.489" y="-190.678" font-family="Times,serif" font-size="14.00">create</text>
<text text-anchor="start" x="608.489" y="-173.878" font-family="Times,serif" font-size="14.00">destroy</text>
<text text-anchor="start" x="608.489" y="-157.078" font-family="Times,serif" font-size="14.00">edit</text>
<text text-anchor="start" x="608.489" y="-140.278" font-family="Times,serif" font-size="14.00">index</text>
<text text-anchor="start" x="608.489" y="-123.478" font-family="Times,serif" font-size="14.00">new</text>
<text text-anchor="start" x="608.489" y="-106.678" font-family="Times,serif" font-size="14.00">update</text>
<polyline fill="none" stroke="black" points="600.489,-99.8777 752.585,-99.8777 "/>
<polyline fill="none" stroke="black" points="600.489,-75.8777 752.585,-75.8777 "/>
<text text-anchor="start" x="608.489" y="-57.8777" font-family="Times,serif" font-size="14.00">_layout</text>
<text text-anchor="start" x="608.489" y="-41.0777" font-family="Times,serif" font-size="14.00">current_resource</text>
<text text-anchor="start" x="608.489" y="-24.2777" font-family="Times,serif" font-size="14.00">user_params</text>
</g>
<!-- Admin::BaseController&#45;&gt;Admin::UsersController -->
<g id="edge10" class="edge"><title>Admin::BaseController&#45;&gt;Admin::UsersController</title>
<path fill="none" stroke="black" d="M481.781,-385.278C515.75,-339.964 559.648,-281.404 597.167,-231.356"/>
<polyline fill="none" stroke="black" points="600.315,-227.156 597.316,-231.156 "/>
</g>
<!-- Admin::VerificatorCommentsController -->
<g id="node12" class="node"><title>Admin::VerificatorCommentsController</title>
<path fill="none" stroke="black" d="M303.844,-37.3104C303.844,-37.3104 519.817,-37.3104 519.817,-37.3104 525.817,-37.3104 531.817,-43.3104 531.817,-49.3104 531.817,-49.3104 531.817,-190.91 531.817,-190.91 531.817,-196.91 525.817,-202.91 519.817,-202.91 519.817,-202.91 303.844,-202.91 303.844,-202.91 297.844,-202.91 291.844,-196.91 291.844,-190.91 291.844,-190.91 291.844,-49.3104 291.844,-49.3104 291.844,-43.3104 297.844,-37.3104 303.844,-37.3104"/>
<text text-anchor="middle" x="411.83" y="-184.91" font-family="Times,serif" font-size="14.00">Admin::VerificatorCommentsController</text>
<polyline fill="none" stroke="black" points="291.844,-178.11 531.817,-178.11 "/>
<text text-anchor="start" x="299.844" y="-160.11" font-family="Times,serif" font-size="14.00">create</text>
<text text-anchor="start" x="299.844" y="-143.31" font-family="Times,serif" font-size="14.00">destroy</text>
<text text-anchor="start" x="299.844" y="-126.51" font-family="Times,serif" font-size="14.00">update</text>
<polyline fill="none" stroke="black" points="291.844,-119.71 531.817,-119.71 "/>
<polyline fill="none" stroke="black" points="291.844,-95.7104 531.817,-95.7104 "/>
<text text-anchor="start" x="299.844" y="-77.7104" font-family="Times,serif" font-size="14.00">_layout</text>
<text text-anchor="start" x="299.844" y="-60.9104" font-family="Times,serif" font-size="14.00">current_resource</text>
<text text-anchor="start" x="299.844" y="-44.1104" font-family="Times,serif" font-size="14.00">verificator_comment_params</text>
</g>
<!-- Admin::BaseController&#45;&gt;Admin::VerificatorCommentsController -->
<g id="edge11" class="edge"><title>Admin::BaseController&#45;&gt;Admin::VerificatorCommentsController</title>
<path fill="none" stroke="black" d="M422.757,-385.344C420.609,-333.203 417.731,-263.351 415.468,-208.42"/>
<polyline fill="none" stroke="black" points="415.251,-203.152 415.457,-208.148 "/>
</g>
<!-- ApplicationController -->
<g id="node13" class="node"><title>ApplicationController</title>
<path fill="none" stroke="black" d="M619.825,-708.233C619.825,-708.233 735.466,-708.233 735.466,-708.233 741.466,-708.233 747.466,-714.233 747.466,-720.233 747.466,-720.233 747.466,-811.433 747.466,-811.433 747.466,-817.433 741.466,-823.433 735.466,-823.433 735.466,-823.433 619.825,-823.433 619.825,-823.433 613.825,-823.433 607.825,-817.433 607.825,-811.433 607.825,-811.433 607.825,-720.233 607.825,-720.233 607.825,-714.233 613.825,-708.233 619.825,-708.233"/>
<text text-anchor="middle" x="677.645" y="-805.433" font-family="Times,serif" font-size="14.00">ApplicationController</text>
<polyline fill="none" stroke="black" points="607.825,-798.633 747.466,-798.633 "/>
<text text-anchor="start" x="615.825" y="-780.633" font-family="Times,serif" font-size="14.00">error</text>
<text text-anchor="start" x="615.825" y="-763.833" font-family="Times,serif" font-size="14.00">success</text>
<polyline fill="none" stroke="black" points="607.825,-757.033 747.466,-757.033 "/>
<polyline fill="none" stroke="black" points="607.825,-733.033 747.466,-733.033 "/>
<text text-anchor="start" x="615.825" y="-715.033" font-family="Times,serif" font-size="14.00">_layout</text>
</g>
<!-- ApplicationController&#45;&gt;Admin::BaseController -->
<g id="edge3" class="edge"><title>ApplicationController&#45;&gt;Admin::BaseController</title>
<path fill="none" stroke="black" d="M629.985,-707.932C590.518,-659.987 534.059,-591.397 490.513,-538.496"/>
<polyline fill="none" stroke="black" points="487.136,-534.394 490.314,-538.254 "/>
</g>
<!-- CardsController -->
<g id="node14" class="node"><title>CardsController</title>
<path fill="none" stroke="black" d="M962.364,-977.516C962.364,-977.516 1044.57,-977.516 1044.57,-977.516 1050.57,-977.516 1056.57,-983.516 1056.57,-989.516 1056.57,-989.516 1056.57,-1164.72 1056.57,-1164.72 1056.57,-1170.72 1050.57,-1176.72 1044.57,-1176.72 1044.57,-1176.72 962.364,-1176.72 962.364,-1176.72 956.364,-1176.72 950.364,-1170.72 950.364,-1164.72 950.364,-1164.72 950.364,-989.516 950.364,-989.516 950.364,-983.516 956.364,-977.516 962.364,-977.516"/>
<text text-anchor="middle" x="1003.47" y="-1158.72" font-family="Times,serif" font-size="14.00">CardsController</text>
<polyline fill="none" stroke="black" points="950.364,-1151.92 1056.57,-1151.92 "/>
<text text-anchor="start" x="958.364" y="-1133.92" font-family="Times,serif" font-size="14.00">change</text>
<text text-anchor="start" x="958.364" y="-1117.12" font-family="Times,serif" font-size="14.00">create</text>
<text text-anchor="start" x="958.364" y="-1100.32" font-family="Times,serif" font-size="14.00">index</text>
<text text-anchor="start" x="958.364" y="-1083.52" font-family="Times,serif" font-size="14.00">new</text>
<text text-anchor="start" x="958.364" y="-1066.72" font-family="Times,serif" font-size="14.00">show</text>
<polyline fill="none" stroke="black" points="950.364,-1059.92 1056.57,-1059.92 "/>
<polyline fill="none" stroke="black" points="950.364,-1035.92 1056.57,-1035.92 "/>
<text text-anchor="start" x="958.364" y="-1017.92" font-family="Times,serif" font-size="14.00">_layout</text>
<text text-anchor="start" x="958.364" y="-1001.12" font-family="Times,serif" font-size="14.00">card_params</text>
<text text-anchor="start" x="958.364" y="-984.316" font-family="Times,serif" font-size="14.00">validator</text>
</g>
<!-- ApplicationController&#45;&gt;CardsController -->
<g id="edge12" class="edge"><title>ApplicationController&#45;&gt;CardsController</title>
<path fill="none" stroke="black" d="M738.167,-823.653C797.773,-880.6 888.133,-966.928 946.485,-1022.68"/>
<polyline fill="none" stroke="black" points="950.281,-1026.3 946.666,-1022.85 "/>
</g>
<!-- PagesController -->
<g id="node15" class="node"><title>PagesController</title>
<path fill="none" stroke="black" d="M651.423,-1049.49C651.423,-1049.49 733.63,-1049.49 733.63,-1049.49 739.63,-1049.49 745.63,-1055.49 745.63,-1061.49 745.63,-1061.49 745.63,-1135.89 745.63,-1135.89 745.63,-1141.89 739.63,-1147.89 733.63,-1147.89 733.63,-1147.89 651.423,-1147.89 651.423,-1147.89 645.423,-1147.89 639.423,-1141.89 639.423,-1135.89 639.423,-1135.89 639.423,-1061.49 639.423,-1061.49 639.423,-1055.49 645.423,-1049.49 651.423,-1049.49"/>
<text text-anchor="middle" x="692.527" y="-1129.89" font-family="Times,serif" font-size="14.00">PagesController</text>
<polyline fill="none" stroke="black" points="639.423,-1123.09 745.63,-1123.09 "/>
<text text-anchor="start" x="647.423" y="-1105.09" font-family="Times,serif" font-size="14.00">home</text>
<polyline fill="none" stroke="black" points="639.423,-1098.29 745.63,-1098.29 "/>
<polyline fill="none" stroke="black" points="639.423,-1074.29 745.63,-1074.29 "/>
<text text-anchor="start" x="647.423" y="-1056.29" font-family="Times,serif" font-size="14.00">_layout</text>
</g>
<!-- ApplicationController&#45;&gt;PagesController -->
<g id="edge13" class="edge"><title>ApplicationController&#45;&gt;PagesController</title>
<path fill="none" stroke="black" d="M680.221,-823.433C682.996,-885.511 687.38,-983.561 690.097,-1044.35"/>
<polyline fill="none" stroke="black" points="690.322,-1049.38 690.099,-1044.39 "/>
</g>
<!-- SearchesController -->
<g id="node16" class="node"><title>SearchesController</title>
<path fill="none" stroke="black" d="M372.969,-1005.02C372.969,-1005.02 472.266,-1005.02 472.266,-1005.02 478.266,-1005.02 484.266,-1011.02 484.266,-1017.02 484.266,-1017.02 484.266,-1141.82 484.266,-1141.82 484.266,-1147.82 478.266,-1153.82 472.266,-1153.82 472.266,-1153.82 372.969,-1153.82 372.969,-1153.82 366.969,-1153.82 360.969,-1147.82 360.969,-1141.82 360.969,-1141.82 360.969,-1017.02 360.969,-1017.02 360.969,-1011.02 366.969,-1005.02 372.969,-1005.02"/>
<text text-anchor="middle" x="422.618" y="-1135.82" font-family="Times,serif" font-size="14.00">SearchesController</text>
<polyline fill="none" stroke="black" points="360.969,-1129.02 484.266,-1129.02 "/>
<text text-anchor="start" x="368.969" y="-1111.02" font-family="Times,serif" font-size="14.00">actions</text>
<text text-anchor="start" x="368.969" y="-1094.22" font-family="Times,serif" font-size="14.00">affiliations</text>
<text text-anchor="start" x="368.969" y="-1077.42" font-family="Times,serif" font-size="14.00">responsables</text>
<text text-anchor="start" x="368.969" y="-1060.62" font-family="Times,serif" font-size="14.00">tags</text>
<polyline fill="none" stroke="black" points="360.969,-1053.82 484.266,-1053.82 "/>
<polyline fill="none" stroke="black" points="360.969,-1029.82 484.266,-1029.82 "/>
<text text-anchor="start" x="368.969" y="-1011.82" font-family="Times,serif" font-size="14.00">_layout</text>
</g>
<!-- ApplicationController&#45;&gt;SearchesController -->
<g id="edge14" class="edge"><title>ApplicationController&#45;&gt;SearchesController</title>
<path fill="none" stroke="black" d="M630.572,-823.714C590.024,-873.573 531.132,-945.986 486.363,-1001.03"/>
<polyline fill="none" stroke="black" points="483.165,-1004.97 486.32,-1001.09 "/>
</g>
<!-- SessionsController -->
<g id="node17" class="node"><title>SessionsController</title>
<path fill="none" stroke="black" d="M945.936,-664.595C945.936,-664.595 1043.71,-664.595 1043.71,-664.595 1049.71,-664.595 1055.71,-670.595 1055.71,-676.595 1055.71,-676.595 1055.71,-784.595 1055.71,-784.595 1055.71,-790.595 1049.71,-796.595 1043.71,-796.595 1043.71,-796.595 945.936,-796.595 945.936,-796.595 939.936,-796.595 933.936,-790.595 933.936,-784.595 933.936,-784.595 933.936,-676.595 933.936,-676.595 933.936,-670.595 939.936,-664.595 945.936,-664.595"/>
<text text-anchor="middle" x="994.825" y="-778.595" font-family="Times,serif" font-size="14.00">SessionsController</text>
<polyline fill="none" stroke="black" points="933.936,-771.795 1055.71,-771.795 "/>
<text text-anchor="start" x="941.936" y="-753.795" font-family="Times,serif" font-size="14.00">create</text>
<text text-anchor="start" x="941.936" y="-736.995" font-family="Times,serif" font-size="14.00">destroy</text>
<text text-anchor="start" x="941.936" y="-720.195" font-family="Times,serif" font-size="14.00">new</text>
<polyline fill="none" stroke="black" points="933.936,-713.395 1055.71,-713.395 "/>
<polyline fill="none" stroke="black" points="933.936,-689.395 1055.71,-689.395 "/>
<text text-anchor="start" x="941.936" y="-671.395" font-family="Times,serif" font-size="14.00">_layout</text>
</g>
<!-- ApplicationController&#45;&gt;SessionsController -->
<g id="edge15" class="edge"><title>ApplicationController&#45;&gt;SessionsController</title>
<path fill="none" stroke="black" d="M747.645,-758.056C801.636,-752.058 875.799,-743.819 928.773,-737.933"/>
<polyline fill="none" stroke="black" points="933.832,-737.371 928.863,-737.924 "/>
</g>
<!-- UsersController -->
<g id="node18" class="node"><title>UsersController</title>
<path fill="none" stroke="black" d="M959.631,-340.152C959.631,-340.152 1041.06,-340.152 1041.06,-340.152 1047.06,-340.152 1053.06,-346.152 1053.06,-352.152 1053.06,-352.152 1053.06,-527.352 1053.06,-527.352 1053.06,-533.352 1047.06,-539.352 1041.06,-539.352 1041.06,-539.352 959.631,-539.352 959.631,-539.352 953.631,-539.352 947.631,-533.352 947.631,-527.352 947.631,-527.352 947.631,-352.152 947.631,-352.152 947.631,-346.152 953.631,-340.152 959.631,-340.152"/>
<text text-anchor="middle" x="1000.34" y="-521.352" font-family="Times,serif" font-size="14.00">UsersController</text>
<polyline fill="none" stroke="black" points="947.631,-514.552 1053.06,-514.552 "/>
<text text-anchor="start" x="955.631" y="-496.552" font-family="Times,serif" font-size="14.00">create</text>
<text text-anchor="start" x="955.631" y="-479.752" font-family="Times,serif" font-size="14.00">edit</text>
<text text-anchor="start" x="955.631" y="-462.952" font-family="Times,serif" font-size="14.00">new</text>
<text text-anchor="start" x="955.631" y="-446.152" font-family="Times,serif" font-size="14.00">profile</text>
<text text-anchor="start" x="955.631" y="-429.352" font-family="Times,serif" font-size="14.00">update</text>
<polyline fill="none" stroke="black" points="947.631,-422.552 1053.06,-422.552 "/>
<polyline fill="none" stroke="black" points="947.631,-398.552 1053.06,-398.552 "/>
<text text-anchor="start" x="955.631" y="-380.552" font-family="Times,serif" font-size="14.00">_layout</text>
<text text-anchor="start" x="955.631" y="-363.752" font-family="Times,serif" font-size="14.00">connected?</text>
<text text-anchor="start" x="955.631" y="-346.952" font-family="Times,serif" font-size="14.00">user_params</text>
</g>
<!-- ApplicationController&#45;&gt;UsersController -->
<g id="edge16" class="edge"><title>ApplicationController&#45;&gt;UsersController</title>
<path fill="none" stroke="black" d="M734.966,-707.912C793.893,-648.367 885.091,-556.214 943.751,-496.939"/>
<polyline fill="none" stroke="black" points="947.567,-493.083 944.05,-496.637 "/>
</g>
</g>
</svg>
