<?xml version="1.0" encoding="UTF-8" standalone="no"?>
<!DOCTYPE svg PUBLIC "-//W3C//DTD SVG 1.1//EN"
 "http://www.w3.org/Graphics/SVG/1.1/DTD/svg11.dtd">
<!-- Generated by graphviz version 2.36.0 (20140111.2315)
 -->
<!-- Title: controllers_diagram Pages: 1 -->
<svg width="1142pt" height="1119pt"
 viewBox="0.00 0.00 1142.18 1119.01" xmlns="http://www.w3.org/2000/svg" xmlns:xlink="http://www.w3.org/1999/xlink">
<g id="graph0" class="graph" transform="scale(1 1) rotate(0) translate(4 1115.01)">
<title>controllers_diagram</title>
<polygon fill="white" stroke="none" points="-4,4 -4,-1115.01 1138.18,-1115.01 1138.18,4 -4,4"/>
<!-- _diagram_info -->
<g id="node1" class="node"><title>_diagram_info</title>
<text text-anchor="start" x="764" y="-58.6" font-family="Times,serif" font-size="13.00">Controllers diagram</text>
<text text-anchor="start" x="764" y="-45.6" font-family="Times,serif" font-size="13.00">Date: Feb 21 2014 &#45; 18:41</text>
<text text-anchor="start" x="764" y="-32.6" font-family="Times,serif" font-size="13.00">Migration version: 20140217211635</text>
<text text-anchor="start" x="764" y="-19.6" font-family="Times,serif" font-size="13.00">Generated by RailRoady 1.1.1</text>
<text text-anchor="start" x="764" y="-6.6" font-family="Times,serif" font-size="13.00">http://railroady.prestonlee.com</text>
</g>
<!-- Admin::ActionsController -->
<g id="node2" class="node"><title>Admin::ActionsController</title>
<path fill="none" stroke="black" d="M64.3691,-366.981C64.3691,-366.981 204.135,-366.981 204.135,-366.981 210.135,-366.981 216.135,-372.981 216.135,-378.981 216.135,-378.981 216.135,-542.981 216.135,-542.981 216.135,-548.981 210.135,-554.981 204.135,-554.981 204.135,-554.981 64.3691,-554.981 64.3691,-554.981 58.3691,-554.981 52.3691,-548.981 52.3691,-542.981 52.3691,-542.981 52.3691,-378.981 52.3691,-378.981 52.3691,-372.981 58.3691,-366.981 64.3691,-366.981"/>
<text text-anchor="middle" x="134.252" y="-539.781" font-family="Times,serif" font-size="14.00">Admin::ActionsController</text>
<polyline fill="none" stroke="black" points="52.3691,-532.981 216.135,-532.981 "/>
<text text-anchor="start" x="60.3691" y="-517.781" font-family="Times,serif" font-size="14.00">create</text>
<text text-anchor="start" x="60.3691" y="-503.781" font-family="Times,serif" font-size="14.00">destroy</text>
<text text-anchor="start" x="60.3691" y="-489.781" font-family="Times,serif" font-size="14.00">edit</text>
<text text-anchor="start" x="60.3691" y="-475.781" font-family="Times,serif" font-size="14.00">index</text>
<text text-anchor="start" x="60.3691" y="-461.781" font-family="Times,serif" font-size="14.00">new</text>
<text text-anchor="start" x="60.3691" y="-447.781" font-family="Times,serif" font-size="14.00">update</text>
<polyline fill="none" stroke="black" points="52.3691,-440.981 216.135,-440.981 "/>
<polyline fill="none" stroke="black" points="52.3691,-416.981 216.135,-416.981 "/>
<text text-anchor="start" x="60.3691" y="-401.781" font-family="Times,serif" font-size="14.00">_layout</text>
<text text-anchor="start" x="60.3691" y="-387.781" font-family="Times,serif" font-size="14.00">action_params</text>
<text text-anchor="start" x="60.3691" y="-373.781" font-family="Times,serif" font-size="14.00">current_resource</text>
</g>
<!-- Admin::AffiliationsController -->
<g id="node3" class="node"><title>Admin::AffiliationsController</title>
<path fill="none" stroke="black" d="M687.258,-409.43C687.258,-409.43 847.251,-409.43 847.251,-409.43 853.251,-409.43 859.251,-415.43 859.251,-421.43 859.251,-421.43 859.251,-585.43 859.251,-585.43 859.251,-591.43 853.251,-597.43 847.251,-597.43 847.251,-597.43 687.258,-597.43 687.258,-597.43 681.258,-597.43 675.258,-591.43 675.258,-585.43 675.258,-585.43 675.258,-421.43 675.258,-421.43 675.258,-415.43 681.258,-409.43 687.258,-409.43"/>
<text text-anchor="middle" x="767.254" y="-582.23" font-family="Times,serif" font-size="14.00">Admin::AffiliationsController</text>
<polyline fill="none" stroke="black" points="675.258,-575.43 859.251,-575.43 "/>
<text text-anchor="start" x="683.258" y="-560.23" font-family="Times,serif" font-size="14.00">create</text>
<text text-anchor="start" x="683.258" y="-546.23" font-family="Times,serif" font-size="14.00">destroy</text>
<text text-anchor="start" x="683.258" y="-532.23" font-family="Times,serif" font-size="14.00">edit</text>
<text text-anchor="start" x="683.258" y="-518.23" font-family="Times,serif" font-size="14.00">index</text>
<text text-anchor="start" x="683.258" y="-504.23" font-family="Times,serif" font-size="14.00">new</text>
<text text-anchor="start" x="683.258" y="-490.23" font-family="Times,serif" font-size="14.00">update</text>
<polyline fill="none" stroke="black" points="675.258,-483.43 859.251,-483.43 "/>
<polyline fill="none" stroke="black" points="675.258,-459.43 859.251,-459.43 "/>
<text text-anchor="start" x="683.258" y="-444.23" font-family="Times,serif" font-size="14.00">_layout</text>
<text text-anchor="start" x="683.258" y="-430.23" font-family="Times,serif" font-size="14.00">affiliation_params</text>
<text text-anchor="start" x="683.258" y="-416.23" font-family="Times,serif" font-size="14.00">current_resource</text>
</g>
<!-- Admin::BaseController -->
<g id="node4" class="node"><title>Admin::BaseController</title>
<path fill="none" stroke="black" d="M485.002,-364.413C485.002,-364.413 608.429,-364.413 608.429,-364.413 614.429,-364.413 620.429,-370.413 620.429,-376.413 620.429,-376.413 620.429,-498.413 620.429,-498.413 620.429,-504.413 614.429,-510.413 608.429,-510.413 608.429,-510.413 485.002,-510.413 485.002,-510.413 479.002,-510.413 473.002,-504.413 473.002,-498.413 473.002,-498.413 473.002,-376.413 473.002,-376.413 473.002,-370.413 479.002,-364.413 485.002,-364.413"/>
<text text-anchor="middle" x="546.715" y="-495.213" font-family="Times,serif" font-size="14.00">Admin::BaseController</text>
<polyline fill="none" stroke="black" points="473.002,-488.413 620.429,-488.413 "/>
<text text-anchor="start" x="481.002" y="-473.213" font-family="Times,serif" font-size="14.00">current_permission</text>
<polyline fill="none" stroke="black" points="473.002,-466.413 620.429,-466.413 "/>
<polyline fill="none" stroke="black" points="473.002,-442.413 620.429,-442.413 "/>
<text text-anchor="start" x="481.002" y="-427.213" font-family="Times,serif" font-size="14.00">_layout</text>
<text text-anchor="start" x="481.002" y="-413.213" font-family="Times,serif" font-size="14.00">authorize_action</text>
<text text-anchor="start" x="481.002" y="-399.213" font-family="Times,serif" font-size="14.00">authorize_create</text>
<text text-anchor="start" x="481.002" y="-385.213" font-family="Times,serif" font-size="14.00">authorize_modify</text>
<text text-anchor="start" x="481.002" y="-371.213" font-family="Times,serif" font-size="14.00">authorize_read</text>
</g>
<!-- Admin::BaseController&#45;&gt;Admin::ActionsController -->
<g id="edge1" class="edge"><title>Admin::BaseController&#45;&gt;Admin::ActionsController</title>
<path fill="none" stroke="black" d="M472.975,-441.627C400.795,-445.751 291.066,-452.021 216.194,-456.299"/>
</g>
<!-- Admin::BaseController&#45;&gt;Admin::AffiliationsController -->
<g id="edge2" class="edge"><title>Admin::BaseController&#45;&gt;Admin::AffiliationsController</title>
<path fill="none" stroke="black" d="M620.458,-459.488C637.989,-464.735 656.908,-470.399 675.146,-475.858"/>
</g>
<!-- Admin::CardTypesController -->
<g id="node5" class="node"><title>Admin::CardTypesController</title>
<path fill="none" stroke="black" d="M280.536,-725.977C280.536,-725.977 437.2,-725.977 437.2,-725.977 443.2,-725.977 449.2,-731.977 449.2,-737.977 449.2,-737.977 449.2,-901.977 449.2,-901.977 449.2,-907.977 443.2,-913.977 437.2,-913.977 437.2,-913.977 280.536,-913.977 280.536,-913.977 274.536,-913.977 268.536,-907.977 268.536,-901.977 268.536,-901.977 268.536,-737.977 268.536,-737.977 268.536,-731.977 274.536,-725.977 280.536,-725.977"/>
<text text-anchor="middle" x="358.868" y="-898.777" font-family="Times,serif" font-size="14.00">Admin::CardTypesController</text>
<polyline fill="none" stroke="black" points="268.536,-891.977 449.2,-891.977 "/>
<text text-anchor="start" x="276.536" y="-876.777" font-family="Times,serif" font-size="14.00">create</text>
<text text-anchor="start" x="276.536" y="-862.777" font-family="Times,serif" font-size="14.00">destroy</text>
<text text-anchor="start" x="276.536" y="-848.777" font-family="Times,serif" font-size="14.00">edit</text>
<text text-anchor="start" x="276.536" y="-834.777" font-family="Times,serif" font-size="14.00">index</text>
<text text-anchor="start" x="276.536" y="-820.777" font-family="Times,serif" font-size="14.00">new</text>
<text text-anchor="start" x="276.536" y="-806.777" font-family="Times,serif" font-size="14.00">update</text>
<polyline fill="none" stroke="black" points="268.536,-799.977 449.2,-799.977 "/>
<polyline fill="none" stroke="black" points="268.536,-775.977 449.2,-775.977 "/>
<text text-anchor="start" x="276.536" y="-760.777" font-family="Times,serif" font-size="14.00">_layout</text>
<text text-anchor="start" x="276.536" y="-746.777" font-family="Times,serif" font-size="14.00">card_type_params</text>
<text text-anchor="start" x="276.536" y="-732.777" font-family="Times,serif" font-size="14.00">current_resource</text>
</g>
<!-- Admin::BaseController&#45;&gt;Admin::CardTypesController -->
<g id="edge4" class="edge"><title>Admin::BaseController&#45;&gt;Admin::CardTypesController</title>
<path fill="none" stroke="black" d="M520.55,-510.562C503.896,-554.755 480.896,-611.764 456.362,-660.454 445.481,-682.048 432.677,-704.584 419.99,-725.685"/>
</g>
<!-- Admin::CardsController -->
<g id="node6" class="node"><title>Admin::CardsController</title>
<path fill="none" stroke="black" d="M520.629,-602.368C520.629,-602.368 649.505,-602.368 649.505,-602.368 655.505,-602.368 661.505,-608.368 661.505,-614.368 661.505,-614.368 661.505,-862.368 661.505,-862.368 661.505,-868.368 655.505,-874.368 649.505,-874.368 649.505,-874.368 520.629,-874.368 520.629,-874.368 514.629,-874.368 508.629,-868.368 508.629,-862.368 508.629,-862.368 508.629,-614.368 508.629,-614.368 508.629,-608.368 514.629,-602.368 520.629,-602.368"/>
<text text-anchor="middle" x="585.067" y="-859.168" font-family="Times,serif" font-size="14.00">Admin::CardsController</text>
<polyline fill="none" stroke="black" points="508.629,-852.368 661.505,-852.368 "/>
<text text-anchor="start" x="516.629" y="-837.168" font-family="Times,serif" font-size="14.00">create</text>
<text text-anchor="start" x="516.629" y="-823.168" font-family="Times,serif" font-size="14.00">destroy</text>
<text text-anchor="start" x="516.629" y="-809.168" font-family="Times,serif" font-size="14.00">edit</text>
<text text-anchor="start" x="516.629" y="-795.168" font-family="Times,serif" font-size="14.00">index</text>
<text text-anchor="start" x="516.629" y="-781.168" font-family="Times,serif" font-size="14.00">new</text>
<text text-anchor="start" x="516.629" y="-767.168" font-family="Times,serif" font-size="14.00">show</text>
<text text-anchor="start" x="516.629" y="-753.168" font-family="Times,serif" font-size="14.00">update</text>
<text text-anchor="start" x="516.629" y="-739.168" font-family="Times,serif" font-size="14.00">verificate</text>
<polyline fill="none" stroke="black" points="508.629,-732.368 661.505,-732.368 "/>
<polyline fill="none" stroke="black" points="508.629,-708.368 661.505,-708.368 "/>
<text text-anchor="start" x="516.629" y="-693.168" font-family="Times,serif" font-size="14.00">_layout</text>
<text text-anchor="start" x="516.629" y="-679.168" font-family="Times,serif" font-size="14.00">attributes</text>
<text text-anchor="start" x="516.629" y="-665.168" font-family="Times,serif" font-size="14.00">card_admins</text>
<text text-anchor="start" x="516.629" y="-651.168" font-family="Times,serif" font-size="14.00">card_params</text>
<text text-anchor="start" x="516.629" y="-637.168" font-family="Times,serif" font-size="14.00">current_resource</text>
<text text-anchor="start" x="516.629" y="-623.168" font-family="Times,serif" font-size="14.00">verificators_emails</text>
<text text-anchor="start" x="516.629" y="-609.168" font-family="Times,serif" font-size="14.00">verified?</text>
</g>
<!-- Admin::BaseController&#45;&gt;Admin::CardsController -->
<g id="edge5" class="edge"><title>Admin::BaseController&#45;&gt;Admin::CardsController</title>
<path fill="none" stroke="black" d="M556.048,-510.65C559.574,-538.315 563.708,-570.758 567.733,-602.344"/>
</g>
<!-- Admin::OwnershipsController -->
<g id="node7" class="node"><title>Admin::OwnershipsController</title>
<path fill="none" stroke="black" d="M278.066,-469.254C278.066,-469.254 441.162,-469.254 441.162,-469.254 447.162,-469.254 453.162,-475.254 453.162,-481.254 453.162,-481.254 453.162,-645.254 453.162,-645.254 453.162,-651.254 447.162,-657.254 441.162,-657.254 441.162,-657.254 278.066,-657.254 278.066,-657.254 272.066,-657.254 266.066,-651.254 266.066,-645.254 266.066,-645.254 266.066,-481.254 266.066,-481.254 266.066,-475.254 272.066,-469.254 278.066,-469.254"/>
<text text-anchor="middle" x="359.614" y="-642.054" font-family="Times,serif" font-size="14.00">Admin::OwnershipsController</text>
<polyline fill="none" stroke="black" points="266.066,-635.254 453.162,-635.254 "/>
<text text-anchor="start" x="274.066" y="-620.054" font-family="Times,serif" font-size="14.00">create</text>
<text text-anchor="start" x="274.066" y="-606.054" font-family="Times,serif" font-size="14.00">destroy</text>
<text text-anchor="start" x="274.066" y="-592.054" font-family="Times,serif" font-size="14.00">edit</text>
<text text-anchor="start" x="274.066" y="-578.054" font-family="Times,serif" font-size="14.00">index</text>
<text text-anchor="start" x="274.066" y="-564.054" font-family="Times,serif" font-size="14.00">new</text>
<text text-anchor="start" x="274.066" y="-550.054" font-family="Times,serif" font-size="14.00">update</text>
<polyline fill="none" stroke="black" points="266.066,-543.254 453.162,-543.254 "/>
<polyline fill="none" stroke="black" points="266.066,-519.254 453.162,-519.254 "/>
<text text-anchor="start" x="274.066" y="-504.054" font-family="Times,serif" font-size="14.00">_layout</text>
<text text-anchor="start" x="274.066" y="-490.054" font-family="Times,serif" font-size="14.00">current_resource</text>
<text text-anchor="start" x="274.066" y="-476.054" font-family="Times,serif" font-size="14.00">ownership_params</text>
</g>
<!-- Admin::BaseController&#45;&gt;Admin::OwnershipsController -->
<g id="edge6" class="edge"><title>Admin::BaseController&#45;&gt;Admin::OwnershipsController</title>
<path fill="none" stroke="black" d="M472.768,-487.149C466.333,-491.477 459.768,-495.892 453.203,-500.308"/>
</g>
<!-- Admin::PagesController -->
<g id="node8" class="node"><title>Admin::PagesController</title>
<path fill="none" stroke="black" d="M295.51,-157.733C295.51,-157.733 424.386,-157.733 424.386,-157.733 430.386,-157.733 436.386,-163.733 436.386,-169.733 436.386,-169.733 436.386,-291.733 436.386,-291.733 436.386,-297.733 430.386,-303.733 424.386,-303.733 424.386,-303.733 295.51,-303.733 295.51,-303.733 289.51,-303.733 283.51,-297.733 283.51,-291.733 283.51,-291.733 283.51,-169.733 283.51,-169.733 283.51,-163.733 289.51,-157.733 295.51,-157.733"/>
<text text-anchor="middle" x="359.948" y="-288.533" font-family="Times,serif" font-size="14.00">Admin::PagesController</text>
<polyline fill="none" stroke="black" points="283.51,-281.733 436.386,-281.733 "/>
<text text-anchor="start" x="291.51" y="-266.533" font-family="Times,serif" font-size="14.00">edit</text>
<text text-anchor="start" x="291.51" y="-252.533" font-family="Times,serif" font-size="14.00">index</text>
<text text-anchor="start" x="291.51" y="-238.533" font-family="Times,serif" font-size="14.00">update</text>
<polyline fill="none" stroke="black" points="283.51,-231.733 436.386,-231.733 "/>
<polyline fill="none" stroke="black" points="283.51,-207.733 436.386,-207.733 "/>
<text text-anchor="start" x="291.51" y="-192.533" font-family="Times,serif" font-size="14.00">_layout</text>
<text text-anchor="start" x="291.51" y="-178.533" font-family="Times,serif" font-size="14.00">current_resource</text>
<text text-anchor="start" x="291.51" y="-164.533" font-family="Times,serif" font-size="14.00">page_params</text>
</g>
<!-- Admin::BaseController&#45;&gt;Admin::PagesController -->
<g id="edge7" class="edge"><title>Admin::BaseController&#45;&gt;Admin::PagesController</title>
<path fill="none" stroke="black" d="M480.605,-364.255C462.871,-344.63 443.698,-323.413 425.969,-303.793"/>
</g>
<!-- Admin::ParentsController -->
<g id="node9" class="node"><title>Admin::ParentsController</title>
<path fill="none" stroke="black" d="M975.198,-120.811C975.198,-120.811 1112.63,-120.811 1112.63,-120.811 1118.63,-120.811 1124.63,-126.811 1124.63,-132.811 1124.63,-132.811 1124.63,-268.811 1124.63,-268.811 1124.63,-274.811 1118.63,-280.811 1112.63,-280.811 1112.63,-280.811 975.198,-280.811 975.198,-280.811 969.198,-280.811 963.198,-274.811 963.198,-268.811 963.198,-268.811 963.198,-132.811 963.198,-132.811 963.198,-126.811 969.198,-120.811 975.198,-120.811"/>
<text text-anchor="middle" x="1043.91" y="-265.611" font-family="Times,serif" font-size="14.00">Admin::ParentsController</text>
<polyline fill="none" stroke="black" points="963.198,-258.811 1124.63,-258.811 "/>
<text text-anchor="start" x="971.198" y="-243.611" font-family="Times,serif" font-size="14.00">edit</text>
<text text-anchor="start" x="971.198" y="-229.611" font-family="Times,serif" font-size="14.00">index</text>
<text text-anchor="start" x="971.198" y="-215.611" font-family="Times,serif" font-size="14.00">new</text>
<text text-anchor="start" x="971.198" y="-201.611" font-family="Times,serif" font-size="14.00">update</text>
<polyline fill="none" stroke="black" points="963.198,-194.811 1124.63,-194.811 "/>
<polyline fill="none" stroke="black" points="963.198,-170.811 1124.63,-170.811 "/>
<text text-anchor="start" x="971.198" y="-155.611" font-family="Times,serif" font-size="14.00">_layout</text>
<text text-anchor="start" x="971.198" y="-141.611" font-family="Times,serif" font-size="14.00">current_resource</text>
<text text-anchor="start" x="971.198" y="-127.611" font-family="Times,serif" font-size="14.00">parent_params</text>
</g>
<!-- Admin::BaseController&#45;&gt;Admin::ParentsController -->
<g id="edge8" class="edge"><title>Admin::BaseController&#45;&gt;Admin::ParentsController</title>
<path fill="none" stroke="black" d="M620.695,-418.079C690.214,-398.368 796.003,-364.347 881.114,-319.548 909.129,-304.802 937.682,-285.642 962.891,-267.033"/>
</g>
<!-- Admin::ResponsablesController -->
<g id="node10" class="node"><title>Admin::ResponsablesController</title>
<path fill="none" stroke="black" d="M40.5283,-99.9486C40.5283,-99.9486 212.956,-99.9486 212.956,-99.9486 218.956,-99.9486 224.956,-105.949 224.956,-111.949 224.956,-111.949 224.956,-275.949 224.956,-275.949 224.956,-281.949 218.956,-287.949 212.956,-287.949 212.956,-287.949 40.5283,-287.949 40.5283,-287.949 34.5283,-287.949 28.5283,-281.949 28.5283,-275.949 28.5283,-275.949 28.5283,-111.949 28.5283,-111.949 28.5283,-105.949 34.5283,-99.9486 40.5283,-99.9486"/>
<text text-anchor="middle" x="126.742" y="-272.749" font-family="Times,serif" font-size="14.00">Admin::ResponsablesController</text>
<polyline fill="none" stroke="black" points="28.5283,-265.949 224.956,-265.949 "/>
<text text-anchor="start" x="36.5283" y="-250.749" font-family="Times,serif" font-size="14.00">create</text>
<text text-anchor="start" x="36.5283" y="-236.749" font-family="Times,serif" font-size="14.00">destroy</text>
<text text-anchor="start" x="36.5283" y="-222.749" font-family="Times,serif" font-size="14.00">edit</text>
<text text-anchor="start" x="36.5283" y="-208.749" font-family="Times,serif" font-size="14.00">index</text>
<text text-anchor="start" x="36.5283" y="-194.749" font-family="Times,serif" font-size="14.00">new</text>
<text text-anchor="start" x="36.5283" y="-180.749" font-family="Times,serif" font-size="14.00">update</text>
<polyline fill="none" stroke="black" points="28.5283,-173.949 224.956,-173.949 "/>
<polyline fill="none" stroke="black" points="28.5283,-149.949 224.956,-149.949 "/>
<text text-anchor="start" x="36.5283" y="-134.749" font-family="Times,serif" font-size="14.00">_layout</text>
<text text-anchor="start" x="36.5283" y="-120.749" font-family="Times,serif" font-size="14.00">current_resource</text>
<text text-anchor="start" x="36.5283" y="-106.749" font-family="Times,serif" font-size="14.00">responsable_params</text>
</g>
<!-- Admin::BaseController&#45;&gt;Admin::ResponsablesController -->
<g id="edge9" class="edge"><title>Admin::BaseController&#45;&gt;Admin::ResponsablesController</title>
<path fill="none" stroke="black" d="M472.773,-405.513C418.242,-380.964 342.961,-344.904 280.31,-306.933 262.052,-295.867 243.246,-283.205 225.327,-270.454"/>
</g>
<!-- Admin::TagsController -->
<g id="node11" class="node"><title>Admin::TagsController</title>
<path fill="none" stroke="black" d="M743.464,-128.348C743.464,-128.348 865.914,-128.348 865.914,-128.348 871.914,-128.348 877.914,-134.348 877.914,-140.348 877.914,-140.348 877.914,-304.348 877.914,-304.348 877.914,-310.348 871.914,-316.348 865.914,-316.348 865.914,-316.348 743.464,-316.348 743.464,-316.348 737.464,-316.348 731.464,-310.348 731.464,-304.348 731.464,-304.348 731.464,-140.348 731.464,-140.348 731.464,-134.348 737.464,-128.348 743.464,-128.348"/>
<text text-anchor="middle" x="804.689" y="-301.148" font-family="Times,serif" font-size="14.00">Admin::TagsController</text>
<polyline fill="none" stroke="black" points="731.464,-294.348 877.914,-294.348 "/>
<text text-anchor="start" x="739.464" y="-279.148" font-family="Times,serif" font-size="14.00">create</text>
<text text-anchor="start" x="739.464" y="-265.148" font-family="Times,serif" font-size="14.00">destroy</text>
<text text-anchor="start" x="739.464" y="-251.148" font-family="Times,serif" font-size="14.00">edit</text>
<text text-anchor="start" x="739.464" y="-237.148" font-family="Times,serif" font-size="14.00">index</text>
<text text-anchor="start" x="739.464" y="-223.148" font-family="Times,serif" font-size="14.00">new</text>
<text text-anchor="start" x="739.464" y="-209.148" font-family="Times,serif" font-size="14.00">update</text>
<polyline fill="none" stroke="black" points="731.464,-202.348 877.914,-202.348 "/>
<polyline fill="none" stroke="black" points="731.464,-178.348 877.914,-178.348 "/>
<text text-anchor="start" x="739.464" y="-163.148" font-family="Times,serif" font-size="14.00">_layout</text>
<text text-anchor="start" x="739.464" y="-149.148" font-family="Times,serif" font-size="14.00">current_resource</text>
<text text-anchor="start" x="739.464" y="-135.148" font-family="Times,serif" font-size="14.00">tag_params</text>
</g>
<!-- Admin::BaseController&#45;&gt;Admin::TagsController -->
<g id="edge10" class="edge"><title>Admin::BaseController&#45;&gt;Admin::TagsController</title>
<path fill="none" stroke="black" d="M620.64,-375.784C655.331,-346.863 696.564,-312.489 731.2,-283.614"/>
</g>
<!-- Admin::UsersController -->
<g id="node12" class="node"><title>Admin::UsersController</title>
<path fill="none" stroke="black" d="M519.206,-84.5C519.206,-84.5 647.302,-84.5 647.302,-84.5 653.302,-84.5 659.302,-90.5 659.302,-96.5 659.302,-96.5 659.302,-260.5 659.302,-260.5 659.302,-266.5 653.302,-272.5 647.302,-272.5 647.302,-272.5 519.206,-272.5 519.206,-272.5 513.206,-272.5 507.206,-266.5 507.206,-260.5 507.206,-260.5 507.206,-96.5 507.206,-96.5 507.206,-90.5 513.206,-84.5 519.206,-84.5"/>
<text text-anchor="middle" x="583.254" y="-257.3" font-family="Times,serif" font-size="14.00">Admin::UsersController</text>
<polyline fill="none" stroke="black" points="507.206,-250.5 659.302,-250.5 "/>
<text text-anchor="start" x="515.206" y="-235.3" font-family="Times,serif" font-size="14.00">create</text>
<text text-anchor="start" x="515.206" y="-221.3" font-family="Times,serif" font-size="14.00">destroy</text>
<text text-anchor="start" x="515.206" y="-207.3" font-family="Times,serif" font-size="14.00">edit</text>
<text text-anchor="start" x="515.206" y="-193.3" font-family="Times,serif" font-size="14.00">index</text>
<text text-anchor="start" x="515.206" y="-179.3" font-family="Times,serif" font-size="14.00">new</text>
<text text-anchor="start" x="515.206" y="-165.3" font-family="Times,serif" font-size="14.00">update</text>
<polyline fill="none" stroke="black" points="507.206,-158.5 659.302,-158.5 "/>
<polyline fill="none" stroke="black" points="507.206,-134.5 659.302,-134.5 "/>
<text text-anchor="start" x="515.206" y="-119.3" font-family="Times,serif" font-size="14.00">_layout</text>
<text text-anchor="start" x="515.206" y="-105.3" font-family="Times,serif" font-size="14.00">current_resource</text>
<text text-anchor="start" x="515.206" y="-91.3" font-family="Times,serif" font-size="14.00">user_params</text>
</g>
<!-- Admin::BaseController&#45;&gt;Admin::UsersController -->
<g id="edge11" class="edge"><title>Admin::BaseController&#45;&gt;Admin::UsersController</title>
<path fill="none" stroke="black" d="M557.039,-364.257C561.049,-335.845 565.693,-302.939 569.948,-272.788"/>
</g>
<!-- Admin::VerificatorCommentsController -->
<g id="node13" class="node"><title>Admin::VerificatorCommentsController</title>
<path fill="none" stroke="black" d="M12,-664.486C12,-664.486 227.973,-664.486 227.973,-664.486 233.973,-664.486 239.973,-670.486 239.973,-676.486 239.973,-676.486 239.973,-798.486 239.973,-798.486 239.973,-804.486 233.973,-810.486 227.973,-810.486 227.973,-810.486 12,-810.486 12,-810.486 6,-810.486 0,-804.486 0,-798.486 0,-798.486 0,-676.486 0,-676.486 0,-670.486 6,-664.486 12,-664.486"/>
<text text-anchor="middle" x="119.986" y="-795.286" font-family="Times,serif" font-size="14.00">Admin::VerificatorCommentsController</text>
<polyline fill="none" stroke="black" points="0,-788.486 239.973,-788.486 "/>
<text text-anchor="start" x="8" y="-773.286" font-family="Times,serif" font-size="14.00">create</text>
<text text-anchor="start" x="8" y="-759.286" font-family="Times,serif" font-size="14.00">destroy</text>
<text text-anchor="start" x="8" y="-745.286" font-family="Times,serif" font-size="14.00">update</text>
<polyline fill="none" stroke="black" points="0,-738.486 239.973,-738.486 "/>
<polyline fill="none" stroke="black" points="0,-714.486 239.973,-714.486 "/>
<text text-anchor="start" x="8" y="-699.286" font-family="Times,serif" font-size="14.00">_layout</text>
<text text-anchor="start" x="8" y="-685.286" font-family="Times,serif" font-size="14.00">current_resource</text>
<text text-anchor="start" x="8" y="-671.286" font-family="Times,serif" font-size="14.00">verificator_comment_params</text>
</g>
<!-- Admin::BaseController&#45;&gt;Admin::VerificatorCommentsController -->
<g id="edge12" class="edge"><title>Admin::BaseController&#45;&gt;Admin::VerificatorCommentsController</title>
<path fill="none" stroke="black" d="M535.176,-510.466C523.574,-559.828 500.731,-622.662 456.362,-660.454 423.809,-688.181 322.969,-708.938 240.119,-721.877"/>
</g>
<!-- ApplicationController -->
<g id="node14" class="node"><title>ApplicationController</title>
<path fill="none" stroke="black" d="M760.072,-711.431C760.072,-711.431 875.714,-711.431 875.714,-711.431 881.714,-711.431 887.714,-717.431 887.714,-723.431 887.714,-723.431 887.714,-803.431 887.714,-803.431 887.714,-809.431 881.714,-815.431 875.714,-815.431 875.714,-815.431 760.072,-815.431 760.072,-815.431 754.072,-815.431 748.072,-809.431 748.072,-803.431 748.072,-803.431 748.072,-723.431 748.072,-723.431 748.072,-717.431 754.072,-711.431 760.072,-711.431"/>
<text text-anchor="middle" x="817.893" y="-800.231" font-family="Times,serif" font-size="14.00">ApplicationController</text>
<polyline fill="none" stroke="black" points="748.072,-793.431 887.714,-793.431 "/>
<text text-anchor="start" x="756.072" y="-778.231" font-family="Times,serif" font-size="14.00">error</text>
<text text-anchor="start" x="756.072" y="-764.231" font-family="Times,serif" font-size="14.00">success</text>
<polyline fill="none" stroke="black" points="748.072,-757.431 887.714,-757.431 "/>
<polyline fill="none" stroke="black" points="748.072,-733.431 887.714,-733.431 "/>
<text text-anchor="start" x="756.072" y="-718.231" font-family="Times,serif" font-size="14.00">_layout</text>
</g>
<!-- ApplicationController&#45;&gt;Admin::BaseController -->
<g id="edge3" class="edge"><title>ApplicationController&#45;&gt;Admin::BaseController</title>
<path fill="none" stroke="black" d="M769.244,-711.162C740.389,-679.662 703.439,-638.445 672.058,-600.63 648.101,-571.762 622.71,-539.117 601.092,-510.65"/>
</g>
<!-- CardsController -->
<g id="node15" class="node"><title>CardsController</title>
<path fill="none" stroke="black" d="M979.278,-933.11C979.278,-933.11 1061.48,-933.11 1061.48,-933.11 1067.48,-933.11 1073.48,-939.11 1073.48,-945.11 1073.48,-945.11 1073.48,-1095.11 1073.48,-1095.11 1073.48,-1101.11 1067.48,-1107.11 1061.48,-1107.11 1061.48,-1107.11 979.278,-1107.11 979.278,-1107.11 973.278,-1107.11 967.278,-1101.11 967.278,-1095.11 967.278,-1095.11 967.278,-945.11 967.278,-945.11 967.278,-939.11 973.278,-933.11 979.278,-933.11"/>
<text text-anchor="middle" x="1020.38" y="-1091.91" font-family="Times,serif" font-size="14.00">CardsController</text>
<polyline fill="none" stroke="black" points="967.278,-1085.11 1073.48,-1085.11 "/>
<text text-anchor="start" x="975.278" y="-1069.91" font-family="Times,serif" font-size="14.00">change</text>
<text text-anchor="start" x="975.278" y="-1055.91" font-family="Times,serif" font-size="14.00">create</text>
<text text-anchor="start" x="975.278" y="-1041.91" font-family="Times,serif" font-size="14.00">index</text>
<text text-anchor="start" x="975.278" y="-1027.91" font-family="Times,serif" font-size="14.00">new</text>
<text text-anchor="start" x="975.278" y="-1013.91" font-family="Times,serif" font-size="14.00">show</text>
<polyline fill="none" stroke="black" points="967.278,-1007.11 1073.48,-1007.11 "/>
<polyline fill="none" stroke="black" points="967.278,-983.11 1073.48,-983.11 "/>
<text text-anchor="start" x="975.278" y="-967.91" font-family="Times,serif" font-size="14.00">_layout</text>
<text text-anchor="start" x="975.278" y="-953.91" font-family="Times,serif" font-size="14.00">card_params</text>
<text text-anchor="start" x="975.278" y="-939.91" font-family="Times,serif" font-size="14.00">validator</text>
</g>
<!-- ApplicationController&#45;&gt;CardsController -->
<g id="edge13" class="edge"><title>ApplicationController&#45;&gt;CardsController</title>
<path fill="none" stroke="black" d="M859.113,-815.684C890.219,-855.114 933.155,-909.54 966.904,-952.321"/>
</g>
<!-- PagesController -->
<g id="node16" class="node"><title>PagesController</title>
<path fill="none" stroke="black" d="M690.667,-969.644C690.667,-969.644 772.874,-969.644 772.874,-969.644 778.874,-969.644 784.874,-975.644 784.874,-981.644 784.874,-981.644 784.874,-1061.64 784.874,-1061.64 784.874,-1067.64 778.874,-1073.64 772.874,-1073.64 772.874,-1073.64 690.667,-1073.64 690.667,-1073.64 684.667,-1073.64 678.667,-1067.64 678.667,-1061.64 678.667,-1061.64 678.667,-981.644 678.667,-981.644 678.667,-975.644 684.667,-969.644 690.667,-969.644"/>
<text text-anchor="middle" x="731.771" y="-1058.44" font-family="Times,serif" font-size="14.00">PagesController</text>
<polyline fill="none" stroke="black" points="678.667,-1051.64 784.874,-1051.64 "/>
<text text-anchor="start" x="686.667" y="-1036.44" font-family="Times,serif" font-size="14.00">about</text>
<text text-anchor="start" x="686.667" y="-1022.44" font-family="Times,serif" font-size="14.00">home</text>
<polyline fill="none" stroke="black" points="678.667,-1015.64 784.874,-1015.64 "/>
<polyline fill="none" stroke="black" points="678.667,-991.644 784.874,-991.644 "/>
<text text-anchor="start" x="686.667" y="-976.444" font-family="Times,serif" font-size="14.00">_layout</text>
</g>
<!-- ApplicationController&#45;&gt;PagesController -->
<g id="edge14" class="edge"><title>ApplicationController&#45;&gt;PagesController</title>
<path fill="none" stroke="black" d="M800.465,-815.685C785.523,-860.483 764.107,-924.693 749.173,-969.469"/>
</g>
<!-- PasswordResetsController -->
<g id="node17" class="node"><title>PasswordResetsController</title>
<path fill="none" stroke="black" d="M982.419,-668.551C982.419,-668.551 1122.18,-668.551 1122.18,-668.551 1128.18,-668.551 1134.18,-674.551 1134.18,-680.551 1134.18,-680.551 1134.18,-802.551 1134.18,-802.551 1134.18,-808.551 1128.18,-814.551 1122.18,-814.551 1122.18,-814.551 982.419,-814.551 982.419,-814.551 976.419,-814.551 970.419,-808.551 970.419,-802.551 970.419,-802.551 970.419,-680.551 970.419,-680.551 970.419,-674.551 976.419,-668.551 982.419,-668.551"/>
<text text-anchor="middle" x="1052.3" y="-799.351" font-family="Times,serif" font-size="14.00">PasswordResetsController</text>
<polyline fill="none" stroke="black" points="970.419,-792.551 1134.18,-792.551 "/>
<text text-anchor="start" x="978.419" y="-777.351" font-family="Times,serif" font-size="14.00">create</text>
<text text-anchor="start" x="978.419" y="-763.351" font-family="Times,serif" font-size="14.00">edit</text>
<text text-anchor="start" x="978.419" y="-749.351" font-family="Times,serif" font-size="14.00">new</text>
<text text-anchor="start" x="978.419" y="-735.351" font-family="Times,serif" font-size="14.00">update</text>
<polyline fill="none" stroke="black" points="970.419,-728.551 1134.18,-728.551 "/>
<polyline fill="none" stroke="black" points="970.419,-704.551 1134.18,-704.551 "/>
<text text-anchor="start" x="978.419" y="-689.351" font-family="Times,serif" font-size="14.00">_layout</text>
<text text-anchor="start" x="978.419" y="-675.351" font-family="Times,serif" font-size="14.00">user_params</text>
</g>
<!-- ApplicationController&#45;&gt;PasswordResetsController -->
<g id="edge15" class="edge"><title>ApplicationController&#45;&gt;PasswordResetsController</title>
<path fill="none" stroke="black" d="M887.906,-756.896C913.808,-754.479 943.402,-751.716 970.276,-749.208"/>
</g>
<!-- SearchesController -->
<g id="node18" class="node"><title>SearchesController</title>
<path fill="none" stroke="black" d="M977.1,-408.983C977.1,-408.983 1076.4,-408.983 1076.4,-408.983 1082.4,-408.983 1088.4,-414.983 1088.4,-420.983 1088.4,-420.983 1088.4,-528.983 1088.4,-528.983 1088.4,-534.983 1082.4,-540.983 1076.4,-540.983 1076.4,-540.983 977.1,-540.983 977.1,-540.983 971.1,-540.983 965.1,-534.983 965.1,-528.983 965.1,-528.983 965.1,-420.983 965.1,-420.983 965.1,-414.983 971.1,-408.983 977.1,-408.983"/>
<text text-anchor="middle" x="1026.75" y="-525.783" font-family="Times,serif" font-size="14.00">SearchesController</text>
<polyline fill="none" stroke="black" points="965.1,-518.983 1088.4,-518.983 "/>
<text text-anchor="start" x="973.1" y="-503.783" font-family="Times,serif" font-size="14.00">actions</text>
<text text-anchor="start" x="973.1" y="-489.783" font-family="Times,serif" font-size="14.00">affiliations</text>
<text text-anchor="start" x="973.1" y="-475.783" font-family="Times,serif" font-size="14.00">responsables</text>
<text text-anchor="start" x="973.1" y="-461.783" font-family="Times,serif" font-size="14.00">tags</text>
<polyline fill="none" stroke="black" points="965.1,-454.983 1088.4,-454.983 "/>
<polyline fill="none" stroke="black" points="965.1,-430.983 1088.4,-430.983 "/>
<text text-anchor="start" x="973.1" y="-415.783" font-family="Times,serif" font-size="14.00">_layout</text>
</g>
<!-- ApplicationController&#45;&gt;SearchesController -->
<g id="edge16" class="edge"><title>ApplicationController&#45;&gt;SearchesController</title>
<path fill="none" stroke="black" d="M855.715,-711.195C890.275,-663.465 941.539,-592.664 978.929,-541.026"/>
</g>
<!-- SessionsController -->
<g id="node19" class="node"><title>SessionsController</title>
<path fill="none" stroke="black" d="M411.38,-972.212C411.38,-972.212 509.159,-972.212 509.159,-972.212 515.159,-972.212 521.159,-978.212 521.159,-984.212 521.159,-984.212 521.159,-1092.21 521.159,-1092.21 521.159,-1098.21 515.159,-1104.21 509.159,-1104.21 509.159,-1104.21 411.38,-1104.21 411.38,-1104.21 405.38,-1104.21 399.38,-1098.21 399.38,-1092.21 399.38,-1092.21 399.38,-984.212 399.38,-984.212 399.38,-978.212 405.38,-972.212 411.38,-972.212"/>
<text text-anchor="middle" x="460.27" y="-1089.01" font-family="Times,serif" font-size="14.00">SessionsController</text>
<polyline fill="none" stroke="black" points="399.38,-1082.21 521.159,-1082.21 "/>
<text text-anchor="start" x="407.38" y="-1067.01" font-family="Times,serif" font-size="14.00">create</text>
<text text-anchor="start" x="407.38" y="-1053.01" font-family="Times,serif" font-size="14.00">destroy</text>
<text text-anchor="start" x="407.38" y="-1039.01" font-family="Times,serif" font-size="14.00">new</text>
<polyline fill="none" stroke="black" points="399.38,-1032.21 521.159,-1032.21 "/>
<polyline fill="none" stroke="black" points="399.38,-1008.21 521.159,-1008.21 "/>
<text text-anchor="start" x="407.38" y="-993.012" font-family="Times,serif" font-size="14.00">_layout</text>
<text text-anchor="start" x="407.38" y="-979.012" font-family="Times,serif" font-size="14.00">connected?</text>
</g>
<!-- ApplicationController&#45;&gt;SessionsController -->
<g id="edge17" class="edge"><title>ApplicationController&#45;&gt;SessionsController</title>
<path fill="none" stroke="black" d="M750.206,-815.439C684.293,-866.083 585.005,-942.372 521.417,-991.23"/>
</g>
<!-- UsersController -->
<g id="node20" class="node"><title>UsersController</title>
<path fill="none" stroke="black" d="M109.317,-936.511C109.317,-936.511 190.744,-936.511 190.744,-936.511 196.744,-936.511 202.744,-942.511 202.744,-948.511 202.744,-948.511 202.744,-1098.51 202.744,-1098.51 202.744,-1104.51 196.744,-1110.51 190.744,-1110.51 190.744,-1110.51 109.317,-1110.51 109.317,-1110.51 103.317,-1110.51 97.3166,-1104.51 97.3166,-1098.51 97.3166,-1098.51 97.3166,-948.511 97.3166,-948.511 97.3166,-942.511 103.317,-936.511 109.317,-936.511"/>
<text text-anchor="middle" x="150.03" y="-1095.31" font-family="Times,serif" font-size="14.00">UsersController</text>
<polyline fill="none" stroke="black" points="97.3166,-1088.51 202.744,-1088.51 "/>
<text text-anchor="start" x="105.317" y="-1073.31" font-family="Times,serif" font-size="14.00">create</text>
<text text-anchor="start" x="105.317" y="-1059.31" font-family="Times,serif" font-size="14.00">edit</text>
<text text-anchor="start" x="105.317" y="-1045.31" font-family="Times,serif" font-size="14.00">new</text>
<text text-anchor="start" x="105.317" y="-1031.31" font-family="Times,serif" font-size="14.00">profile</text>
<text text-anchor="start" x="105.317" y="-1017.31" font-family="Times,serif" font-size="14.00">update</text>
<polyline fill="none" stroke="black" points="97.3166,-1010.51 202.744,-1010.51 "/>
<polyline fill="none" stroke="black" points="97.3166,-986.511 202.744,-986.511 "/>
<text text-anchor="start" x="105.317" y="-971.311" font-family="Times,serif" font-size="14.00">_layout</text>
<text text-anchor="start" x="105.317" y="-957.311" font-family="Times,serif" font-size="14.00">connected?</text>
<text text-anchor="start" x="105.317" y="-943.311" font-family="Times,serif" font-size="14.00">user_params</text>
</g>
<!-- ApplicationController&#45;&gt;UsersController -->
<g id="edge18" class="edge"><title>ApplicationController&#45;&gt;UsersController</title>
<path fill="none" stroke="black" d="M758.633,-815.544C731.502,-837.232 698.017,-861.133 664.705,-877.568 581.831,-918.455 316.801,-983.964 202.889,-1011.11"/>
</g>
</g>
</svg>
