<?xml version="1.0" encoding="UTF-8" standalone="no"?>
<!DOCTYPE svg PUBLIC "-//W3C//DTD SVG 1.1//EN"
 "http://www.w3.org/Graphics/SVG/1.1/DTD/svg11.dtd">
<!-- Generated by graphviz version 2.36.0 (20140111.2315)
 -->
<!-- Title: controllers_diagram Pages: 1 -->
<svg width="1385pt" height="1154pt"
 viewBox="0.00 0.00 1385.38 1153.58" xmlns="http://www.w3.org/2000/svg" xmlns:xlink="http://www.w3.org/1999/xlink">
<g id="graph0" class="graph" transform="scale(1 1) rotate(0) translate(4 1149.58)">
<title>controllers_diagram</title>
<polygon fill="white" stroke="none" points="-4,4 -4,-1149.58 1381.38,-1149.58 1381.38,4 -4,4"/>
<!-- _diagram_info -->
<g id="node1" class="node"><title>_diagram_info</title>
<text text-anchor="start" x="1178" y="-868.6" font-family="Times,serif" font-size="13.00">Controllers diagram</text>
<text text-anchor="start" x="1178" y="-855.6" font-family="Times,serif" font-size="13.00">Date: Feb 21 2014 &#45; 18:48</text>
<text text-anchor="start" x="1178" y="-842.6" font-family="Times,serif" font-size="13.00">Migration version: 20140220192207</text>
<text text-anchor="start" x="1178" y="-829.6" font-family="Times,serif" font-size="13.00">Generated by RailRoady 1.1.1</text>
<text text-anchor="start" x="1178" y="-816.6" font-family="Times,serif" font-size="13.00">http://railroady.prestonlee.com</text>
</g>
<!-- Admin::ActionsController -->
<g id="node2" class="node"><title>Admin::ActionsController</title>
<path fill="none" stroke="black" d="M34.5742,-351.196C34.5742,-351.196 174.34,-351.196 174.34,-351.196 180.34,-351.196 186.34,-357.196 186.34,-363.196 186.34,-363.196 186.34,-527.196 186.34,-527.196 186.34,-533.196 180.34,-539.196 174.34,-539.196 174.34,-539.196 34.5742,-539.196 34.5742,-539.196 28.5742,-539.196 22.5742,-533.196 22.5742,-527.196 22.5742,-527.196 22.5742,-363.196 22.5742,-363.196 22.5742,-357.196 28.5742,-351.196 34.5742,-351.196"/>
<text text-anchor="middle" x="104.457" y="-523.996" font-family="Times,serif" font-size="14.00">Admin::ActionsController</text>
<polyline fill="none" stroke="black" points="22.5742,-517.196 186.34,-517.196 "/>
<text text-anchor="start" x="30.5742" y="-501.996" font-family="Times,serif" font-size="14.00">create</text>
<text text-anchor="start" x="30.5742" y="-487.996" font-family="Times,serif" font-size="14.00">destroy</text>
<text text-anchor="start" x="30.5742" y="-473.996" font-family="Times,serif" font-size="14.00">edit</text>
<text text-anchor="start" x="30.5742" y="-459.996" font-family="Times,serif" font-size="14.00">index</text>
<text text-anchor="start" x="30.5742" y="-445.996" font-family="Times,serif" font-size="14.00">new</text>
<text text-anchor="start" x="30.5742" y="-431.996" font-family="Times,serif" font-size="14.00">update</text>
<polyline fill="none" stroke="black" points="22.5742,-425.196 186.34,-425.196 "/>
<polyline fill="none" stroke="black" points="22.5742,-401.196 186.34,-401.196 "/>
<text text-anchor="start" x="30.5742" y="-385.996" font-family="Times,serif" font-size="14.00">_layout</text>
<text text-anchor="start" x="30.5742" y="-371.996" font-family="Times,serif" font-size="14.00">action_params</text>
<text text-anchor="start" x="30.5742" y="-357.996" font-family="Times,serif" font-size="14.00">current_resource</text>
</g>
<!-- Admin::AffiliationsController -->
<g id="node3" class="node"><title>Admin::AffiliationsController</title>
<path fill="none" stroke="black" d="M934.48,-272.625C934.48,-272.625 1094.47,-272.625 1094.47,-272.625 1100.47,-272.625 1106.47,-278.625 1106.47,-284.625 1106.47,-284.625 1106.47,-448.625 1106.47,-448.625 1106.47,-454.625 1100.47,-460.625 1094.47,-460.625 1094.47,-460.625 934.48,-460.625 934.48,-460.625 928.48,-460.625 922.48,-454.625 922.48,-448.625 922.48,-448.625 922.48,-284.625 922.48,-284.625 922.48,-278.625 928.48,-272.625 934.48,-272.625"/>
<text text-anchor="middle" x="1014.48" y="-445.425" font-family="Times,serif" font-size="14.00">Admin::AffiliationsController</text>
<polyline fill="none" stroke="black" points="922.48,-438.625 1106.47,-438.625 "/>
<text text-anchor="start" x="930.48" y="-423.425" font-family="Times,serif" font-size="14.00">create</text>
<text text-anchor="start" x="930.48" y="-409.425" font-family="Times,serif" font-size="14.00">destroy</text>
<text text-anchor="start" x="930.48" y="-395.425" font-family="Times,serif" font-size="14.00">edit</text>
<text text-anchor="start" x="930.48" y="-381.425" font-family="Times,serif" font-size="14.00">index</text>
<text text-anchor="start" x="930.48" y="-367.425" font-family="Times,serif" font-size="14.00">new</text>
<text text-anchor="start" x="930.48" y="-353.425" font-family="Times,serif" font-size="14.00">update</text>
<polyline fill="none" stroke="black" points="922.48,-346.625 1106.47,-346.625 "/>
<polyline fill="none" stroke="black" points="922.48,-322.625 1106.47,-322.625 "/>
<text text-anchor="start" x="930.48" y="-307.425" font-family="Times,serif" font-size="14.00">_layout</text>
<text text-anchor="start" x="930.48" y="-293.425" font-family="Times,serif" font-size="14.00">affiliation_params</text>
<text text-anchor="start" x="930.48" y="-279.425" font-family="Times,serif" font-size="14.00">current_resource</text>
</g>
<!-- Admin::BaseController -->
<g id="node4" class="node"><title>Admin::BaseController</title>
<path fill="none" stroke="black" d="M541.498,-330.511C541.498,-330.511 664.926,-330.511 664.926,-330.511 670.926,-330.511 676.926,-336.511 676.926,-342.511 676.926,-342.511 676.926,-464.511 676.926,-464.511 676.926,-470.511 670.926,-476.511 664.926,-476.511 664.926,-476.511 541.498,-476.511 541.498,-476.511 535.498,-476.511 529.498,-470.511 529.498,-464.511 529.498,-464.511 529.498,-342.511 529.498,-342.511 529.498,-336.511 535.498,-330.511 541.498,-330.511"/>
<text text-anchor="middle" x="603.212" y="-461.311" font-family="Times,serif" font-size="14.00">Admin::BaseController</text>
<polyline fill="none" stroke="black" points="529.498,-454.511 676.926,-454.511 "/>
<text text-anchor="start" x="537.498" y="-439.311" font-family="Times,serif" font-size="14.00">current_permission</text>
<polyline fill="none" stroke="black" points="529.498,-432.511 676.926,-432.511 "/>
<polyline fill="none" stroke="black" points="529.498,-408.511 676.926,-408.511 "/>
<text text-anchor="start" x="537.498" y="-393.311" font-family="Times,serif" font-size="14.00">_layout</text>
<text text-anchor="start" x="537.498" y="-379.311" font-family="Times,serif" font-size="14.00">authorize_action</text>
<text text-anchor="start" x="537.498" y="-365.311" font-family="Times,serif" font-size="14.00">authorize_create</text>
<text text-anchor="start" x="537.498" y="-351.311" font-family="Times,serif" font-size="14.00">authorize_modify</text>
<text text-anchor="start" x="537.498" y="-337.311" font-family="Times,serif" font-size="14.00">authorize_read</text>
</g>
<!-- Admin::BaseController&#45;&gt;Admin::ActionsController -->
<g id="edge1" class="edge"><title>Admin::BaseController&#45;&gt;Admin::ActionsController</title>
<path fill="none" stroke="black" d="M529.18,-433.602C509.577,-440.213 488.207,-446.242 467.883,-449.609 372.327,-465.437 260.701,-460.697 186.631,-454.364"/>
</g>
<!-- Admin::BaseController&#45;&gt;Admin::AffiliationsController -->
<g id="edge2" class="edge"><title>Admin::BaseController&#45;&gt;Admin::AffiliationsController</title>
<path fill="none" stroke="black" d="M677.063,-385.804C686.377,-384.02 695.808,-382.429 704.852,-381.234 777.541,-371.622 860.562,-368.104 922.327,-366.915"/>
</g>
<!-- Admin::CardTypesController -->
<g id="node5" class="node"><title>Admin::CardTypesController</title>
<path fill="none" stroke="black" d="M325.568,-706.396C325.568,-706.396 482.232,-706.396 482.232,-706.396 488.232,-706.396 494.232,-712.396 494.232,-718.396 494.232,-718.396 494.232,-882.396 494.232,-882.396 494.232,-888.396 488.232,-894.396 482.232,-894.396 482.232,-894.396 325.568,-894.396 325.568,-894.396 319.568,-894.396 313.568,-888.396 313.568,-882.396 313.568,-882.396 313.568,-718.396 313.568,-718.396 313.568,-712.396 319.568,-706.396 325.568,-706.396"/>
<text text-anchor="middle" x="403.9" y="-879.196" font-family="Times,serif" font-size="14.00">Admin::CardTypesController</text>
<polyline fill="none" stroke="black" points="313.568,-872.396 494.232,-872.396 "/>
<text text-anchor="start" x="321.568" y="-857.196" font-family="Times,serif" font-size="14.00">create</text>
<text text-anchor="start" x="321.568" y="-843.196" font-family="Times,serif" font-size="14.00">destroy</text>
<text text-anchor="start" x="321.568" y="-829.196" font-family="Times,serif" font-size="14.00">edit</text>
<text text-anchor="start" x="321.568" y="-815.196" font-family="Times,serif" font-size="14.00">index</text>
<text text-anchor="start" x="321.568" y="-801.196" font-family="Times,serif" font-size="14.00">new</text>
<text text-anchor="start" x="321.568" y="-787.196" font-family="Times,serif" font-size="14.00">update</text>
<polyline fill="none" stroke="black" points="313.568,-780.396 494.232,-780.396 "/>
<polyline fill="none" stroke="black" points="313.568,-756.396 494.232,-756.396 "/>
<text text-anchor="start" x="321.568" y="-741.196" font-family="Times,serif" font-size="14.00">_layout</text>
<text text-anchor="start" x="321.568" y="-727.196" font-family="Times,serif" font-size="14.00">card_type_params</text>
<text text-anchor="start" x="321.568" y="-713.196" font-family="Times,serif" font-size="14.00">current_resource</text>
</g>
<!-- Admin::BaseController&#45;&gt;Admin::CardTypesController -->
<g id="edge4" class="edge"><title>Admin::BaseController&#45;&gt;Admin::CardTypesController</title>
<path fill="none" stroke="black" d="M588.894,-476.682C575.634,-533.867 552.396,-613.949 516.054,-676.972 509.762,-687.882 502.371,-698.649 494.435,-709.005"/>
</g>
<!-- Admin::CardsController -->
<g id="node6" class="node"><title>Admin::CardsController</title>
<path fill="none" stroke="black" d="M720.052,-384.434C720.052,-384.434 848.928,-384.434 848.928,-384.434 854.928,-384.434 860.928,-390.434 860.928,-396.434 860.928,-396.434 860.928,-644.434 860.928,-644.434 860.928,-650.434 854.928,-656.434 848.928,-656.434 848.928,-656.434 720.052,-656.434 720.052,-656.434 714.052,-656.434 708.052,-650.434 708.052,-644.434 708.052,-644.434 708.052,-396.434 708.052,-396.434 708.052,-390.434 714.052,-384.434 720.052,-384.434"/>
<text text-anchor="middle" x="784.49" y="-641.234" font-family="Times,serif" font-size="14.00">Admin::CardsController</text>
<polyline fill="none" stroke="black" points="708.052,-634.434 860.928,-634.434 "/>
<text text-anchor="start" x="716.052" y="-619.234" font-family="Times,serif" font-size="14.00">create</text>
<text text-anchor="start" x="716.052" y="-605.234" font-family="Times,serif" font-size="14.00">destroy</text>
<text text-anchor="start" x="716.052" y="-591.234" font-family="Times,serif" font-size="14.00">edit</text>
<text text-anchor="start" x="716.052" y="-577.234" font-family="Times,serif" font-size="14.00">index</text>
<text text-anchor="start" x="716.052" y="-563.234" font-family="Times,serif" font-size="14.00">new</text>
<text text-anchor="start" x="716.052" y="-549.234" font-family="Times,serif" font-size="14.00">show</text>
<text text-anchor="start" x="716.052" y="-535.234" font-family="Times,serif" font-size="14.00">update</text>
<text text-anchor="start" x="716.052" y="-521.234" font-family="Times,serif" font-size="14.00">verificate</text>
<polyline fill="none" stroke="black" points="708.052,-514.434 860.928,-514.434 "/>
<polyline fill="none" stroke="black" points="708.052,-490.434 860.928,-490.434 "/>
<text text-anchor="start" x="716.052" y="-475.234" font-family="Times,serif" font-size="14.00">_layout</text>
<text text-anchor="start" x="716.052" y="-461.234" font-family="Times,serif" font-size="14.00">attributes</text>
<text text-anchor="start" x="716.052" y="-447.234" font-family="Times,serif" font-size="14.00">card_admins</text>
<text text-anchor="start" x="716.052" y="-433.234" font-family="Times,serif" font-size="14.00">card_params</text>
<text text-anchor="start" x="716.052" y="-419.234" font-family="Times,serif" font-size="14.00">current_resource</text>
<text text-anchor="start" x="716.052" y="-405.234" font-family="Times,serif" font-size="14.00">verificators_emails</text>
<text text-anchor="start" x="716.052" y="-391.234" font-family="Times,serif" font-size="14.00">verified?</text>
</g>
<!-- Admin::BaseController&#45;&gt;Admin::CardsController -->
<g id="edge5" class="edge"><title>Admin::BaseController&#45;&gt;Admin::CardsController</title>
<path fill="none" stroke="black" d="M676.945,-451.068C687.139,-457.643 697.629,-464.409 707.874,-471.017"/>
</g>
<!-- Admin::OwnershipsController -->
<g id="node7" class="node"><title>Admin::OwnershipsController</title>
<path fill="none" stroke="black" d="M337.757,-485.772C337.757,-485.772 500.854,-485.772 500.854,-485.772 506.854,-485.772 512.854,-491.772 512.854,-497.772 512.854,-497.772 512.854,-661.772 512.854,-661.772 512.854,-667.772 506.854,-673.772 500.854,-673.772 500.854,-673.772 337.757,-673.772 337.757,-673.772 331.757,-673.772 325.757,-667.772 325.757,-661.772 325.757,-661.772 325.757,-497.772 325.757,-497.772 325.757,-491.772 331.757,-485.772 337.757,-485.772"/>
<text text-anchor="middle" x="419.306" y="-658.572" font-family="Times,serif" font-size="14.00">Admin::OwnershipsController</text>
<polyline fill="none" stroke="black" points="325.757,-651.772 512.854,-651.772 "/>
<text text-anchor="start" x="333.757" y="-636.572" font-family="Times,serif" font-size="14.00">create</text>
<text text-anchor="start" x="333.757" y="-622.572" font-family="Times,serif" font-size="14.00">destroy</text>
<text text-anchor="start" x="333.757" y="-608.572" font-family="Times,serif" font-size="14.00">edit</text>
<text text-anchor="start" x="333.757" y="-594.572" font-family="Times,serif" font-size="14.00">index</text>
<text text-anchor="start" x="333.757" y="-580.572" font-family="Times,serif" font-size="14.00">new</text>
<text text-anchor="start" x="333.757" y="-566.572" font-family="Times,serif" font-size="14.00">update</text>
<polyline fill="none" stroke="black" points="325.757,-559.772 512.854,-559.772 "/>
<polyline fill="none" stroke="black" points="325.757,-535.772 512.854,-535.772 "/>
<text text-anchor="start" x="333.757" y="-520.572" font-family="Times,serif" font-size="14.00">_layout</text>
<text text-anchor="start" x="333.757" y="-506.572" font-family="Times,serif" font-size="14.00">current_resource</text>
<text text-anchor="start" x="333.757" y="-492.572" font-family="Times,serif" font-size="14.00">ownership_params</text>
</g>
<!-- Admin::BaseController&#45;&gt;Admin::OwnershipsController -->
<g id="edge6" class="edge"><title>Admin::BaseController&#45;&gt;Admin::OwnershipsController</title>
<path fill="none" stroke="black" d="M529.47,-474.188C524.074,-479.359 518.59,-484.615 513.098,-489.879"/>
</g>
<!-- Admin::PagesController -->
<g id="node8" class="node"><title>Admin::PagesController</title>
<path fill="none" stroke="black" d="M65.4673,-47.4532C65.4673,-47.4532 194.343,-47.4532 194.343,-47.4532 200.343,-47.4532 206.343,-53.4532 206.343,-59.4532 206.343,-59.4532 206.343,-181.453 206.343,-181.453 206.343,-187.453 200.343,-193.453 194.343,-193.453 194.343,-193.453 65.4673,-193.453 65.4673,-193.453 59.4673,-193.453 53.4673,-187.453 53.4673,-181.453 53.4673,-181.453 53.4673,-59.4532 53.4673,-59.4532 53.4673,-53.4532 59.4673,-47.4532 65.4673,-47.4532"/>
<text text-anchor="middle" x="129.905" y="-178.253" font-family="Times,serif" font-size="14.00">Admin::PagesController</text>
<polyline fill="none" stroke="black" points="53.4673,-171.453 206.343,-171.453 "/>
<text text-anchor="start" x="61.4673" y="-156.253" font-family="Times,serif" font-size="14.00">edit</text>
<text text-anchor="start" x="61.4673" y="-142.253" font-family="Times,serif" font-size="14.00">index</text>
<text text-anchor="start" x="61.4673" y="-128.253" font-family="Times,serif" font-size="14.00">update</text>
<polyline fill="none" stroke="black" points="53.4673,-121.453 206.343,-121.453 "/>
<polyline fill="none" stroke="black" points="53.4673,-97.4532 206.343,-97.4532 "/>
<text text-anchor="start" x="61.4673" y="-82.2532" font-family="Times,serif" font-size="14.00">_layout</text>
<text text-anchor="start" x="61.4673" y="-68.2532" font-family="Times,serif" font-size="14.00">current_resource</text>
<text text-anchor="start" x="61.4673" y="-54.2532" font-family="Times,serif" font-size="14.00">page_params</text>
</g>
<!-- Admin::BaseController&#45;&gt;Admin::PagesController -->
<g id="edge7" class="edge"><title>Admin::BaseController&#45;&gt;Admin::PagesController</title>
<path fill="none" stroke="black" d="M547.941,-330.182C525.349,-303.904 497.55,-275.734 467.883,-255.209 386.585,-198.961 278.377,-161.124 206.543,-140.208"/>
</g>
<!-- Admin::ParentsController -->
<g id="node9" class="node"><title>Admin::ParentsController</title>
<path fill="none" stroke="black" d="M962.101,-20.8879C962.101,-20.8879 1099.53,-20.8879 1099.53,-20.8879 1105.53,-20.8879 1111.53,-26.8879 1111.53,-32.8879 1111.53,-32.8879 1111.53,-168.888 1111.53,-168.888 1111.53,-174.888 1105.53,-180.888 1099.53,-180.888 1099.53,-180.888 962.101,-180.888 962.101,-180.888 956.101,-180.888 950.101,-174.888 950.101,-168.888 950.101,-168.888 950.101,-32.8879 950.101,-32.8879 950.101,-26.8879 956.101,-20.8879 962.101,-20.8879"/>
<text text-anchor="middle" x="1030.81" y="-165.688" font-family="Times,serif" font-size="14.00">Admin::ParentsController</text>
<polyline fill="none" stroke="black" points="950.101,-158.888 1111.53,-158.888 "/>
<text text-anchor="start" x="958.101" y="-143.688" font-family="Times,serif" font-size="14.00">edit</text>
<text text-anchor="start" x="958.101" y="-129.688" font-family="Times,serif" font-size="14.00">index</text>
<text text-anchor="start" x="958.101" y="-115.688" font-family="Times,serif" font-size="14.00">new</text>
<text text-anchor="start" x="958.101" y="-101.688" font-family="Times,serif" font-size="14.00">update</text>
<polyline fill="none" stroke="black" points="950.101,-94.8879 1111.53,-94.8879 "/>
<polyline fill="none" stroke="black" points="950.101,-70.8879 1111.53,-70.8879 "/>
<text text-anchor="start" x="958.101" y="-55.6879" font-family="Times,serif" font-size="14.00">_layout</text>
<text text-anchor="start" x="958.101" y="-41.6879" font-family="Times,serif" font-size="14.00">current_resource</text>
<text text-anchor="start" x="958.101" y="-27.6879" font-family="Times,serif" font-size="14.00">parent_params</text>
</g>
<!-- Admin::BaseController&#45;&gt;Admin::ParentsController -->
<g id="edge8" class="edge"><title>Admin::BaseController&#45;&gt;Admin::ParentsController</title>
<path fill="none" stroke="black" d="M677.207,-351.144C753.339,-297.263 871.588,-213.576 950.094,-158.016"/>
</g>
<!-- Admin::ResponsablesController -->
<g id="node10" class="node"><title>Admin::ResponsablesController</title>
<path fill="none" stroke="black" d="M280.255,-258.409C280.255,-258.409 452.683,-258.409 452.683,-258.409 458.683,-258.409 464.683,-264.409 464.683,-270.409 464.683,-270.409 464.683,-434.409 464.683,-434.409 464.683,-440.409 458.683,-446.409 452.683,-446.409 452.683,-446.409 280.255,-446.409 280.255,-446.409 274.255,-446.409 268.255,-440.409 268.255,-434.409 268.255,-434.409 268.255,-270.409 268.255,-270.409 268.255,-264.409 274.255,-258.409 280.255,-258.409"/>
<text text-anchor="middle" x="366.469" y="-431.209" font-family="Times,serif" font-size="14.00">Admin::ResponsablesController</text>
<polyline fill="none" stroke="black" points="268.255,-424.409 464.683,-424.409 "/>
<text text-anchor="start" x="276.255" y="-409.209" font-family="Times,serif" font-size="14.00">create</text>
<text text-anchor="start" x="276.255" y="-395.209" font-family="Times,serif" font-size="14.00">destroy</text>
<text text-anchor="start" x="276.255" y="-381.209" font-family="Times,serif" font-size="14.00">edit</text>
<text text-anchor="start" x="276.255" y="-367.209" font-family="Times,serif" font-size="14.00">index</text>
<text text-anchor="start" x="276.255" y="-353.209" font-family="Times,serif" font-size="14.00">new</text>
<text text-anchor="start" x="276.255" y="-339.209" font-family="Times,serif" font-size="14.00">update</text>
<polyline fill="none" stroke="black" points="268.255,-332.409 464.683,-332.409 "/>
<polyline fill="none" stroke="black" points="268.255,-308.409 464.683,-308.409 "/>
<text text-anchor="start" x="276.255" y="-293.209" font-family="Times,serif" font-size="14.00">_layout</text>
<text text-anchor="start" x="276.255" y="-279.209" font-family="Times,serif" font-size="14.00">current_resource</text>
<text text-anchor="start" x="276.255" y="-265.209" font-family="Times,serif" font-size="14.00">responsable_params</text>
</g>
<!-- Admin::BaseController&#45;&gt;Admin::ResponsablesController -->
<g id="edge9" class="edge"><title>Admin::BaseController&#45;&gt;Admin::ResponsablesController</title>
<path fill="none" stroke="black" d="M529.279,-387.552C508.928,-383.16 486.528,-378.324 465.025,-373.683"/>
</g>
<!-- Admin::TagsController -->
<g id="node11" class="node"><title>Admin::TagsController</title>
<path fill="none" stroke="black" d="M671.409,-43.7722C671.409,-43.7722 793.859,-43.7722 793.859,-43.7722 799.859,-43.7722 805.859,-49.7722 805.859,-55.7722 805.859,-55.7722 805.859,-219.772 805.859,-219.772 805.859,-225.772 799.859,-231.772 793.859,-231.772 793.859,-231.772 671.409,-231.772 671.409,-231.772 665.409,-231.772 659.409,-225.772 659.409,-219.772 659.409,-219.772 659.409,-55.7722 659.409,-55.7722 659.409,-49.7722 665.409,-43.7722 671.409,-43.7722"/>
<text text-anchor="middle" x="732.634" y="-216.572" font-family="Times,serif" font-size="14.00">Admin::TagsController</text>
<polyline fill="none" stroke="black" points="659.409,-209.772 805.859,-209.772 "/>
<text text-anchor="start" x="667.409" y="-194.572" font-family="Times,serif" font-size="14.00">create</text>
<text text-anchor="start" x="667.409" y="-180.572" font-family="Times,serif" font-size="14.00">destroy</text>
<text text-anchor="start" x="667.409" y="-166.572" font-family="Times,serif" font-size="14.00">edit</text>
<text text-anchor="start" x="667.409" y="-152.572" font-family="Times,serif" font-size="14.00">index</text>
<text text-anchor="start" x="667.409" y="-138.572" font-family="Times,serif" font-size="14.00">new</text>
<text text-anchor="start" x="667.409" y="-124.572" font-family="Times,serif" font-size="14.00">update</text>
<polyline fill="none" stroke="black" points="659.409,-117.772 805.859,-117.772 "/>
<polyline fill="none" stroke="black" points="659.409,-93.7722 805.859,-93.7722 "/>
<text text-anchor="start" x="667.409" y="-78.5722" font-family="Times,serif" font-size="14.00">_layout</text>
<text text-anchor="start" x="667.409" y="-64.5722" font-family="Times,serif" font-size="14.00">current_resource</text>
<text text-anchor="start" x="667.409" y="-50.5722" font-family="Times,serif" font-size="14.00">tag_params</text>
</g>
<!-- Admin::BaseController&#45;&gt;Admin::TagsController -->
<g id="edge10" class="edge"><title>Admin::BaseController&#45;&gt;Admin::TagsController</title>
<path fill="none" stroke="black" d="M638.92,-330.194C653.734,-299.775 671.106,-264.107 686.841,-231.798"/>
</g>
<!-- Admin::UsersController -->
<g id="node12" class="node"><title>Admin::UsersController</title>
<path fill="none" stroke="black" d="M402.175,-0.5C402.175,-0.5 530.271,-0.5 530.271,-0.5 536.271,-0.5 542.271,-6.5 542.271,-12.5 542.271,-12.5 542.271,-176.5 542.271,-176.5 542.271,-182.5 536.271,-188.5 530.271,-188.5 530.271,-188.5 402.175,-188.5 402.175,-188.5 396.175,-188.5 390.175,-182.5 390.175,-176.5 390.175,-176.5 390.175,-12.5 390.175,-12.5 390.175,-6.5 396.175,-0.5 402.175,-0.5"/>
<text text-anchor="middle" x="466.223" y="-173.3" font-family="Times,serif" font-size="14.00">Admin::UsersController</text>
<polyline fill="none" stroke="black" points="390.175,-166.5 542.271,-166.5 "/>
<text text-anchor="start" x="398.175" y="-151.3" font-family="Times,serif" font-size="14.00">create</text>
<text text-anchor="start" x="398.175" y="-137.3" font-family="Times,serif" font-size="14.00">destroy</text>
<text text-anchor="start" x="398.175" y="-123.3" font-family="Times,serif" font-size="14.00">edit</text>
<text text-anchor="start" x="398.175" y="-109.3" font-family="Times,serif" font-size="14.00">index</text>
<text text-anchor="start" x="398.175" y="-95.3" font-family="Times,serif" font-size="14.00">new</text>
<text text-anchor="start" x="398.175" y="-81.3" font-family="Times,serif" font-size="14.00">update</text>
<polyline fill="none" stroke="black" points="390.175,-74.5 542.271,-74.5 "/>
<polyline fill="none" stroke="black" points="390.175,-50.5 542.271,-50.5 "/>
<text text-anchor="start" x="398.175" y="-35.3" font-family="Times,serif" font-size="14.00">_layout</text>
<text text-anchor="start" x="398.175" y="-21.3" font-family="Times,serif" font-size="14.00">current_resource</text>
<text text-anchor="start" x="398.175" y="-7.3" font-family="Times,serif" font-size="14.00">user_params</text>
</g>
<!-- Admin::BaseController&#45;&gt;Admin::UsersController -->
<g id="edge11" class="edge"><title>Admin::BaseController&#45;&gt;Admin::UsersController</title>
<path fill="none" stroke="black" d="M570.748,-330.28C551.957,-287.892 528.108,-234.096 507.937,-188.595"/>
</g>
<!-- Admin::VerificatorCommentsController -->
<g id="node13" class="node"><title>Admin::VerificatorCommentsController</title>
<path fill="none" stroke="black" d="M12,-639.068C12,-639.068 227.973,-639.068 227.973,-639.068 233.973,-639.068 239.973,-645.068 239.973,-651.068 239.973,-651.068 239.973,-773.068 239.973,-773.068 239.973,-779.068 233.973,-785.068 227.973,-785.068 227.973,-785.068 12,-785.068 12,-785.068 6,-785.068 0,-779.068 0,-773.068 0,-773.068 0,-651.068 0,-651.068 0,-645.068 6,-639.068 12,-639.068"/>
<text text-anchor="middle" x="119.986" y="-769.868" font-family="Times,serif" font-size="14.00">Admin::VerificatorCommentsController</text>
<polyline fill="none" stroke="black" points="0,-763.068 239.973,-763.068 "/>
<text text-anchor="start" x="8" y="-747.868" font-family="Times,serif" font-size="14.00">create</text>
<text text-anchor="start" x="8" y="-733.868" font-family="Times,serif" font-size="14.00">destroy</text>
<text text-anchor="start" x="8" y="-719.868" font-family="Times,serif" font-size="14.00">update</text>
<polyline fill="none" stroke="black" points="0,-713.068 239.973,-713.068 "/>
<polyline fill="none" stroke="black" points="0,-689.068 239.973,-689.068 "/>
<text text-anchor="start" x="8" y="-673.868" font-family="Times,serif" font-size="14.00">_layout</text>
<text text-anchor="start" x="8" y="-659.868" font-family="Times,serif" font-size="14.00">current_resource</text>
<text text-anchor="start" x="8" y="-645.868" font-family="Times,serif" font-size="14.00">verificator_comment_params</text>
</g>
<!-- Admin::BaseController&#45;&gt;Admin::VerificatorCommentsController -->
<g id="edge12" class="edge"><title>Admin::BaseController&#45;&gt;Admin::VerificatorCommentsController</title>
<path fill="none" stroke="black" d="M529.201,-430.291C509.411,-437.02 487.944,-443.934 467.883,-449.609 404.154,-467.636 379.521,-448.786 322.557,-482.572 257.65,-521.069 202.423,-587.469 166.107,-638.973"/>
</g>
<!-- ApplicationController -->
<g id="node14" class="node"><title>ApplicationController</title>
<path fill="none" stroke="black" d="M598.966,-671.784C598.966,-671.784 714.608,-671.784 714.608,-671.784 720.608,-671.784 726.608,-677.784 726.608,-683.784 726.608,-683.784 726.608,-777.784 726.608,-777.784 726.608,-783.784 720.608,-789.784 714.608,-789.784 714.608,-789.784 598.966,-789.784 598.966,-789.784 592.966,-789.784 586.966,-783.784 586.966,-777.784 586.966,-777.784 586.966,-683.784 586.966,-683.784 586.966,-677.784 592.966,-671.784 598.966,-671.784"/>
<text text-anchor="middle" x="656.787" y="-774.584" font-family="Times,serif" font-size="14.00">ApplicationController</text>
<polyline fill="none" stroke="black" points="586.966,-767.784 726.608,-767.784 "/>
<text text-anchor="start" x="594.966" y="-752.584" font-family="Times,serif" font-size="14.00">error</text>
<text text-anchor="start" x="594.966" y="-738.584" font-family="Times,serif" font-size="14.00">success</text>
<text text-anchor="start" x="594.966" y="-724.584" font-family="Times,serif" font-size="14.00">track_activity</text>
<polyline fill="none" stroke="black" points="586.966,-717.784 726.608,-717.784 "/>
<polyline fill="none" stroke="black" points="586.966,-693.784 726.608,-693.784 "/>
<text text-anchor="start" x="594.966" y="-678.584" font-family="Times,serif" font-size="14.00">_layout</text>
</g>
<!-- ApplicationController&#45;&gt;Admin::BaseController -->
<g id="edge3" class="edge"><title>ApplicationController&#45;&gt;Admin::BaseController</title>
<path fill="none" stroke="black" d="M647.085,-671.518C638.129,-616.81 624.801,-535.39 615.186,-476.657"/>
</g>
<!-- CardsController -->
<g id="node15" class="node"><title>CardsController</title>
<path fill="none" stroke="black" d="M1018.96,-953.128C1018.96,-953.128 1101.17,-953.128 1101.17,-953.128 1107.17,-953.128 1113.17,-959.128 1113.17,-965.128 1113.17,-965.128 1113.17,-1115.13 1113.17,-1115.13 1113.17,-1121.13 1107.17,-1127.13 1101.17,-1127.13 1101.17,-1127.13 1018.96,-1127.13 1018.96,-1127.13 1012.96,-1127.13 1006.96,-1121.13 1006.96,-1115.13 1006.96,-1115.13 1006.96,-965.128 1006.96,-965.128 1006.96,-959.128 1012.96,-953.128 1018.96,-953.128"/>
<text text-anchor="middle" x="1060.06" y="-1111.93" font-family="Times,serif" font-size="14.00">CardsController</text>
<polyline fill="none" stroke="black" points="1006.96,-1105.13 1113.17,-1105.13 "/>
<text text-anchor="start" x="1014.96" y="-1089.93" font-family="Times,serif" font-size="14.00">change</text>
<text text-anchor="start" x="1014.96" y="-1075.93" font-family="Times,serif" font-size="14.00">create</text>
<text text-anchor="start" x="1014.96" y="-1061.93" font-family="Times,serif" font-size="14.00">index</text>
<text text-anchor="start" x="1014.96" y="-1047.93" font-family="Times,serif" font-size="14.00">new</text>
<text text-anchor="start" x="1014.96" y="-1033.93" font-family="Times,serif" font-size="14.00">show</text>
<polyline fill="none" stroke="black" points="1006.96,-1027.13 1113.17,-1027.13 "/>
<polyline fill="none" stroke="black" points="1006.96,-1003.13 1113.17,-1003.13 "/>
<text text-anchor="start" x="1014.96" y="-987.928" font-family="Times,serif" font-size="14.00">_layout</text>
<text text-anchor="start" x="1014.96" y="-973.928" font-family="Times,serif" font-size="14.00">card_params</text>
<text text-anchor="start" x="1014.96" y="-959.928" font-family="Times,serif" font-size="14.00">validator</text>
</g>
<!-- ApplicationController&#45;&gt;CardsController -->
<g id="edge13" class="edge"><title>ApplicationController&#45;&gt;CardsController</title>
<path fill="none" stroke="black" d="M727.032,-784.668C806.692,-845.774 934.813,-944.052 1006.71,-999.2"/>
</g>
<!-- OratorsController -->
<g id="node16" class="node"><title>OratorsController</title>
<path fill="none" stroke="black" d="M738.474,-989.329C738.474,-989.329 830.005,-989.329 830.005,-989.329 836.005,-989.329 842.005,-995.329 842.005,-1001.33 842.005,-1001.33 842.005,-1095.33 842.005,-1095.33 842.005,-1101.33 836.005,-1107.33 830.005,-1107.33 830.005,-1107.33 738.474,-1107.33 738.474,-1107.33 732.474,-1107.33 726.474,-1101.33 726.474,-1095.33 726.474,-1095.33 726.474,-1001.33 726.474,-1001.33 726.474,-995.329 732.474,-989.329 738.474,-989.329"/>
<text text-anchor="middle" x="784.239" y="-1092.13" font-family="Times,serif" font-size="14.00">OratorsController</text>
<polyline fill="none" stroke="black" points="726.474,-1085.33 842.005,-1085.33 "/>
<text text-anchor="start" x="734.474" y="-1070.13" font-family="Times,serif" font-size="14.00">create</text>
<text text-anchor="start" x="734.474" y="-1056.13" font-family="Times,serif" font-size="14.00">index</text>
<text text-anchor="start" x="734.474" y="-1042.13" font-family="Times,serif" font-size="14.00">new</text>
<polyline fill="none" stroke="black" points="726.474,-1035.33 842.005,-1035.33 "/>
<polyline fill="none" stroke="black" points="726.474,-1011.33 842.005,-1011.33 "/>
<text text-anchor="start" x="734.474" y="-996.129" font-family="Times,serif" font-size="14.00">_layout</text>
</g>
<!-- ApplicationController&#45;&gt;OratorsController -->
<g id="edge14" class="edge"><title>ApplicationController&#45;&gt;OratorsController</title>
<path fill="none" stroke="black" d="M680.61,-790.139C703.45,-847.044 737.732,-932.458 760.533,-989.265"/>
</g>
<!-- PagesController -->
<g id="node17" class="node"><title>PagesController</title>
<path fill="none" stroke="black" d="M895.369,-730.729C895.369,-730.729 977.576,-730.729 977.576,-730.729 983.576,-730.729 989.576,-736.729 989.576,-742.729 989.576,-742.729 989.576,-822.729 989.576,-822.729 989.576,-828.729 983.576,-834.729 977.576,-834.729 977.576,-834.729 895.369,-834.729 895.369,-834.729 889.369,-834.729 883.369,-828.729 883.369,-822.729 883.369,-822.729 883.369,-742.729 883.369,-742.729 883.369,-736.729 889.369,-730.729 895.369,-730.729"/>
<text text-anchor="middle" x="936.472" y="-819.529" font-family="Times,serif" font-size="14.00">PagesController</text>
<polyline fill="none" stroke="black" points="883.369,-812.729 989.576,-812.729 "/>
<text text-anchor="start" x="891.369" y="-797.529" font-family="Times,serif" font-size="14.00">about</text>
<text text-anchor="start" x="891.369" y="-783.529" font-family="Times,serif" font-size="14.00">home</text>
<polyline fill="none" stroke="black" points="883.369,-776.729 989.576,-776.729 "/>
<polyline fill="none" stroke="black" points="883.369,-752.729 989.576,-752.729 "/>
<text text-anchor="start" x="891.369" y="-737.529" font-family="Times,serif" font-size="14.00">_layout</text>
</g>
<!-- ApplicationController&#45;&gt;PagesController -->
<g id="edge15" class="edge"><title>ApplicationController&#45;&gt;PagesController</title>
<path fill="none" stroke="black" d="M726.642,-743.758C775.181,-752.773 838.878,-764.603 883.305,-772.854"/>
</g>
<!-- PasswordResetsController -->
<g id="node18" class="node"><title>PasswordResetsController</title>
<path fill="none" stroke="black" d="M1008.49,-536.061C1008.49,-536.061 1148.25,-536.061 1148.25,-536.061 1154.25,-536.061 1160.25,-542.061 1160.25,-548.061 1160.25,-548.061 1160.25,-670.061 1160.25,-670.061 1160.25,-676.061 1154.25,-682.061 1148.25,-682.061 1148.25,-682.061 1008.49,-682.061 1008.49,-682.061 1002.49,-682.061 996.486,-676.061 996.486,-670.061 996.486,-670.061 996.486,-548.061 996.486,-548.061 996.486,-542.061 1002.49,-536.061 1008.49,-536.061"/>
<text text-anchor="middle" x="1078.37" y="-666.861" font-family="Times,serif" font-size="14.00">PasswordResetsController</text>
<polyline fill="none" stroke="black" points="996.486,-660.061 1160.25,-660.061 "/>
<text text-anchor="start" x="1004.49" y="-644.861" font-family="Times,serif" font-size="14.00">create</text>
<text text-anchor="start" x="1004.49" y="-630.861" font-family="Times,serif" font-size="14.00">edit</text>
<text text-anchor="start" x="1004.49" y="-616.861" font-family="Times,serif" font-size="14.00">new</text>
<text text-anchor="start" x="1004.49" y="-602.861" font-family="Times,serif" font-size="14.00">update</text>
<polyline fill="none" stroke="black" points="996.486,-596.061 1160.25,-596.061 "/>
<polyline fill="none" stroke="black" points="996.486,-572.061 1160.25,-572.061 "/>
<text text-anchor="start" x="1004.49" y="-556.861" font-family="Times,serif" font-size="14.00">_layout</text>
<text text-anchor="start" x="1004.49" y="-542.861" font-family="Times,serif" font-size="14.00">user_params</text>
</g>
<!-- ApplicationController&#45;&gt;PasswordResetsController -->
<g id="edge16" class="edge"><title>ApplicationController&#45;&gt;PasswordResetsController</title>
<path fill="none" stroke="black" d="M726.876,-710.548C800.98,-689.151 917.782,-655.427 996.176,-632.793"/>
</g>
<!-- SearchesController -->
<g id="node19" class="node"><title>SearchesController</title>
<path fill="none" stroke="black" d="M316.061,-1013.08C316.061,-1013.08 415.358,-1013.08 415.358,-1013.08 421.358,-1013.08 427.358,-1019.08 427.358,-1025.08 427.358,-1025.08 427.358,-1133.08 427.358,-1133.08 427.358,-1139.08 421.358,-1145.08 415.358,-1145.08 415.358,-1145.08 316.061,-1145.08 316.061,-1145.08 310.061,-1145.08 304.061,-1139.08 304.061,-1133.08 304.061,-1133.08 304.061,-1025.08 304.061,-1025.08 304.061,-1019.08 310.061,-1013.08 316.061,-1013.08"/>
<text text-anchor="middle" x="365.71" y="-1129.88" font-family="Times,serif" font-size="14.00">SearchesController</text>
<polyline fill="none" stroke="black" points="304.061,-1123.08 427.358,-1123.08 "/>
<text text-anchor="start" x="312.061" y="-1107.88" font-family="Times,serif" font-size="14.00">actions</text>
<text text-anchor="start" x="312.061" y="-1093.88" font-family="Times,serif" font-size="14.00">affiliations</text>
<text text-anchor="start" x="312.061" y="-1079.88" font-family="Times,serif" font-size="14.00">responsables</text>
<text text-anchor="start" x="312.061" y="-1065.88" font-family="Times,serif" font-size="14.00">tags</text>
<polyline fill="none" stroke="black" points="304.061,-1059.08 427.358,-1059.08 "/>
<polyline fill="none" stroke="black" points="304.061,-1035.08 427.358,-1035.08 "/>
<text text-anchor="start" x="312.061" y="-1019.88" font-family="Times,serif" font-size="14.00">_layout</text>
</g>
<!-- ApplicationController&#45;&gt;SearchesController -->
<g id="edge17" class="edge"><title>ApplicationController&#45;&gt;SearchesController</title>
<path fill="none" stroke="black" d="M607.41,-789.867C555.749,-851.682 474.831,-948.506 421.046,-1012.86"/>
</g>
<!-- SessionsController -->
<g id="node20" class="node"><title>SessionsController</title>
<path fill="none" stroke="black" d="M51.5042,-962.77C51.5042,-962.77 149.283,-962.77 149.283,-962.77 155.283,-962.77 161.283,-968.77 161.283,-974.77 161.283,-974.77 161.283,-1082.77 161.283,-1082.77 161.283,-1088.77 155.283,-1094.77 149.283,-1094.77 149.283,-1094.77 51.5042,-1094.77 51.5042,-1094.77 45.5042,-1094.77 39.5042,-1088.77 39.5042,-1082.77 39.5042,-1082.77 39.5042,-974.77 39.5042,-974.77 39.5042,-968.77 45.5042,-962.77 51.5042,-962.77"/>
<text text-anchor="middle" x="100.394" y="-1079.57" font-family="Times,serif" font-size="14.00">SessionsController</text>
<polyline fill="none" stroke="black" points="39.5042,-1072.77 161.283,-1072.77 "/>
<text text-anchor="start" x="47.5042" y="-1057.57" font-family="Times,serif" font-size="14.00">create</text>
<text text-anchor="start" x="47.5042" y="-1043.57" font-family="Times,serif" font-size="14.00">destroy</text>
<text text-anchor="start" x="47.5042" y="-1029.57" font-family="Times,serif" font-size="14.00">new</text>
<polyline fill="none" stroke="black" points="39.5042,-1022.77 161.283,-1022.77 "/>
<polyline fill="none" stroke="black" points="39.5042,-998.77 161.283,-998.77 "/>
<text text-anchor="start" x="47.5042" y="-983.57" font-family="Times,serif" font-size="14.00">_layout</text>
<text text-anchor="start" x="47.5042" y="-969.57" font-family="Times,serif" font-size="14.00">connected?</text>
</g>
<!-- ApplicationController&#45;&gt;SessionsController -->
<g id="edge18" class="edge"><title>ApplicationController&#45;&gt;SessionsController</title>
<path fill="none" stroke="black" d="M612.629,-789.997C583.402,-825.552 542.29,-869.242 497.432,-897.596 389.738,-965.667 243.105,-1002.05 161.535,-1018.21"/>
</g>
<!-- UsersController -->
<g id="node21" class="node"><title>UsersController</title>
<path fill="none" stroke="black" d="M540.771,-950.693C540.771,-950.693 622.199,-950.693 622.199,-950.693 628.199,-950.693 634.199,-956.693 634.199,-962.693 634.199,-962.693 634.199,-1112.69 634.199,-1112.69 634.199,-1118.69 628.199,-1124.69 622.199,-1124.69 622.199,-1124.69 540.771,-1124.69 540.771,-1124.69 534.771,-1124.69 528.771,-1118.69 528.771,-1112.69 528.771,-1112.69 528.771,-962.693 528.771,-962.693 528.771,-956.693 534.771,-950.693 540.771,-950.693"/>
<text text-anchor="middle" x="581.485" y="-1109.49" font-family="Times,serif" font-size="14.00">UsersController</text>
<polyline fill="none" stroke="black" points="528.771,-1102.69 634.199,-1102.69 "/>
<text text-anchor="start" x="536.771" y="-1087.49" font-family="Times,serif" font-size="14.00">create</text>
<text text-anchor="start" x="536.771" y="-1073.49" font-family="Times,serif" font-size="14.00">edit</text>
<text text-anchor="start" x="536.771" y="-1059.49" font-family="Times,serif" font-size="14.00">new</text>
<text text-anchor="start" x="536.771" y="-1045.49" font-family="Times,serif" font-size="14.00">profile</text>
<text text-anchor="start" x="536.771" y="-1031.49" font-family="Times,serif" font-size="14.00">update</text>
<polyline fill="none" stroke="black" points="528.771,-1024.69 634.199,-1024.69 "/>
<polyline fill="none" stroke="black" points="528.771,-1000.69 634.199,-1000.69 "/>
<text text-anchor="start" x="536.771" y="-985.493" font-family="Times,serif" font-size="14.00">_layout</text>
<text text-anchor="start" x="536.771" y="-971.493" font-family="Times,serif" font-size="14.00">connected?</text>
<text text-anchor="start" x="536.771" y="-957.493" font-family="Times,serif" font-size="14.00">user_params</text>
</g>
<!-- ApplicationController&#45;&gt;UsersController -->
<g id="edge19" class="edge"><title>ApplicationController&#45;&gt;UsersController</title>
<path fill="none" stroke="black" d="M642.268,-789.959C631.092,-835.509 615.476,-899.154 602.871,-950.528"/>
</g>
</g>
</svg>
