<?xml version="1.0" encoding="UTF-8" standalone="no"?>
<!DOCTYPE svg PUBLIC "-//W3C//DTD SVG 1.1//EN"
 "http://www.w3.org/Graphics/SVG/1.1/DTD/svg11.dtd">
<!-- Generated by graphviz version 2.36.0 (20140111.2315)
 -->
<!-- Title: controllers_diagram Pages: 1 -->
<svg width="1671pt" height="1299pt"
 viewBox="0.00 0.00 1671.38 1299.16" xmlns="http://www.w3.org/2000/svg" xmlns:xlink="http://www.w3.org/1999/xlink">
<g id="graph0" class="graph" transform="scale(1 1) rotate(0) translate(4 1295.16)">
<title>controllers_diagram</title>
<polygon fill="white" stroke="none" points="-4,4 -4,-1295.16 1667.38,-1295.16 1667.38,4 -4,4"/>
<!-- _diagram_info -->
<g id="node1" class="node"><title>_diagram_info</title>
<text text-anchor="start" x="1464" y="-730.6" font-family="Times,serif" font-size="13.00">Controllers diagram</text>
<text text-anchor="start" x="1464" y="-717.6" font-family="Times,serif" font-size="13.00">Date: Sep 09 2014 &#45; 21:01</text>
<text text-anchor="start" x="1464" y="-704.6" font-family="Times,serif" font-size="13.00">Migration version: 20140626153501</text>
<text text-anchor="start" x="1464" y="-691.6" font-family="Times,serif" font-size="13.00">Generated by RailRoady 1.1.1</text>
<text text-anchor="start" x="1464" y="-678.6" font-family="Times,serif" font-size="13.00">http://railroady.prestonlee.com</text>
</g>
<!-- Admin::AccessTokensController -->
<g id="node2" class="node"><title>Admin::AccessTokensController</title>
<ellipse fill="none" stroke="black" cx="126.398" cy="-80.2592" rx="126.295" ry="18"/>
<text text-anchor="middle" x="126.398" y="-76.0592" font-family="Times,serif" font-size="14.00">Admin::AccessTokensController</text>
</g>
<!-- Admin::ActionsController -->
<g id="node3" class="node"><title>Admin::ActionsController</title>
<ellipse fill="none" stroke="black" cx="1223.51" cy="-634.073" rx="103.394" ry="18"/>
<text text-anchor="middle" x="1223.51" y="-629.873" font-family="Times,serif" font-size="14.00">Admin::ActionsController</text>
</g>
<!-- Admin::AffiliationsController -->
<g id="node4" class="node"><title>Admin::AffiliationsController</title>
<ellipse fill="none" stroke="black" cx="695.339" cy="-25.9494" rx="116.449" ry="18"/>
<text text-anchor="middle" x="695.339" y="-21.7494" font-family="Times,serif" font-size="14.00">Admin::AffiliationsController</text>
</g>
<!-- Admin::ArticlesController -->
<g id="node5" class="node"><title>Admin::ArticlesController</title>
<ellipse fill="none" stroke="black" cx="726.044" cy="-543.786" rx="103.861" ry="18"/>
<text text-anchor="middle" x="726.044" y="-539.586" font-family="Times,serif" font-size="14.00">Admin::ArticlesController</text>
</g>
<!-- Admin::BaseController -->
<g id="node6" class="node"><title>Admin::BaseController</title>
<ellipse fill="none" stroke="black" cx="979.825" cy="-513.655" rx="93.2533" ry="18"/>
<text text-anchor="middle" x="979.825" y="-509.455" font-family="Times,serif" font-size="14.00">Admin::BaseController</text>
</g>
<!-- Admin::BaseController&#45;&gt;Admin::AccessTokensController -->
<g id="edge1" class="edge"><title>Admin::BaseController&#45;&gt;Admin::AccessTokensController</title>
<path fill="none" stroke="black" d="M958.749,-495.921C916.895,-461.301 819.463,-383.656 728.437,-332.682 533.63,-223.591 282.129,-132.919 176.549,-96.9187"/>
</g>
<!-- Admin::BaseController&#45;&gt;Admin::ActionsController -->
<g id="edge2" class="edge"><title>Admin::BaseController&#45;&gt;Admin::ActionsController</title>
<path fill="none" stroke="black" d="M1013.96,-530.525C1060.2,-553.374 1142.29,-593.937 1188.81,-616.927"/>
</g>
<!-- Admin::BaseController&#45;&gt;Admin::AffiliationsController -->
<g id="edge3" class="edge"><title>Admin::BaseController&#45;&gt;Admin::AffiliationsController</title>
<path fill="none" stroke="black" d="M955.566,-496.274C911.609,-463.479 818.781,-388.019 769.429,-302.333 718.601,-214.085 701.667,-89.9406 696.937,-43.9791"/>
</g>
<!-- Admin::BaseController&#45;&gt;Admin::ArticlesController -->
<g id="edge4" class="edge"><title>Admin::BaseController&#45;&gt;Admin::ArticlesController</title>
<path fill="none" stroke="black" d="M900.224,-523.106C872.169,-526.437 840.515,-530.195 811.961,-533.585"/>
</g>
<!-- Admin::CardTypesController -->
<g id="node7" class="node"><title>Admin::CardTypesController</title>
<ellipse fill="none" stroke="black" cx="445.67" cy="-633.841" rx="114.242" ry="18"/>
<text text-anchor="middle" x="445.67" y="-629.641" font-family="Times,serif" font-size="14.00">Admin::CardTypesController</text>
</g>
<!-- Admin::BaseController&#45;&gt;Admin::CardTypesController -->
<g id="edge6" class="edge"><title>Admin::BaseController&#45;&gt;Admin::CardTypesController</title>
<path fill="none" stroke="black" d="M923.289,-527.975C887.963,-536.812 841.492,-548.234 800.18,-557.735 701.564,-580.414 587.014,-604.62 515.425,-619.493"/>
</g>
<!-- Admin::CardsController -->
<g id="node8" class="node"><title>Admin::CardsController</title>
<ellipse fill="none" stroke="black" cx="434.052" cy="-23.6326" rx="96.6363" ry="18"/>
<text text-anchor="middle" x="434.052" y="-19.4326" font-family="Times,serif" font-size="14.00">Admin::CardsController</text>
</g>
<!-- Admin::BaseController&#45;&gt;Admin::CardsController -->
<g id="edge7" class="edge"><title>Admin::BaseController&#45;&gt;Admin::CardsController</title>
<path fill="none" stroke="black" d="M960.078,-495.925C874.845,-419.399 538.953,-117.818 453.772,-41.3384"/>
</g>
<!-- Admin::NewslettersController -->
<g id="node9" class="node"><title>Admin::NewslettersController</title>
<ellipse fill="none" stroke="black" cx="1500.6" cy="-73.0949" rx="117.868" ry="18"/>
<text text-anchor="middle" x="1500.6" y="-68.8949" font-family="Times,serif" font-size="14.00">Admin::NewslettersController</text>
</g>
<!-- Admin::BaseController&#45;&gt;Admin::NewslettersController -->
<g id="edge8" class="edge"><title>Admin::BaseController&#45;&gt;Admin::NewslettersController</title>
<path fill="none" stroke="black" d="M1014.85,-496.849C1073.19,-467.903 1192.35,-404.624 1278.75,-331.193 1370.6,-253.135 1456.94,-135.587 1488.23,-91.054"/>
</g>
<!-- Admin::OwnershipsController -->
<g id="node10" class="node"><title>Admin::OwnershipsController</title>
<ellipse fill="none" stroke="black" cx="608.653" cy="-332.627" rx="118.369" ry="18"/>
<text text-anchor="middle" x="608.653" y="-328.427" font-family="Times,serif" font-size="14.00">Admin::OwnershipsController</text>
</g>
<!-- Admin::BaseController&#45;&gt;Admin::OwnershipsController -->
<g id="edge9" class="edge"><title>Admin::BaseController&#45;&gt;Admin::OwnershipsController</title>
<path fill="none" stroke="black" d="M945.24,-496.786C874.782,-462.423 715.277,-384.629 644.1,-349.915"/>
</g>
<!-- Admin::PagesController -->
<g id="node11" class="node"><title>Admin::PagesController</title>
<ellipse fill="none" stroke="black" cx="942.213" cy="-25.3166" rx="96.6363" ry="18"/>
<text text-anchor="middle" x="942.213" y="-21.1166" font-family="Times,serif" font-size="14.00">Admin::PagesController</text>
</g>
<!-- Admin::BaseController&#45;&gt;Admin::PagesController -->
<g id="edge10" class="edge"><title>Admin::BaseController&#45;&gt;Admin::PagesController</title>
<path fill="none" stroke="black" d="M980.201,-495.561C980.815,-459.038 981.514,-373.908 976.563,-302.631 969.739,-204.387 952.138,-87.5766 945.143,-43.4209"/>
</g>
<!-- Admin::ParentsController -->
<g id="node12" class="node"><title>Admin::ParentsController</title>
<ellipse fill="none" stroke="black" cx="872.996" cy="-302.482" rx="101.94" ry="18"/>
<text text-anchor="middle" x="872.996" y="-298.282" font-family="Times,serif" font-size="14.00">Admin::ParentsController</text>
</g>
<!-- Admin::BaseController&#45;&gt;Admin::ParentsController -->
<g id="edge11" class="edge"><title>Admin::BaseController&#45;&gt;Admin::ParentsController</title>
<path fill="none" stroke="black" d="M970.717,-495.65C950.534,-455.754 902.243,-360.295 882.081,-320.441"/>
</g>
<!-- Admin::ResponsablesController -->
<g id="node13" class="node"><title>Admin::ResponsablesController</title>
<ellipse fill="none" stroke="black" cx="362.201" cy="-351.714" rx="124.157" ry="18"/>
<text text-anchor="middle" x="362.201" y="-347.514" font-family="Times,serif" font-size="14.00">Admin::ResponsablesController</text>
</g>
<!-- Admin::BaseController&#45;&gt;Admin::ResponsablesController -->
<g id="edge12" class="edge"><title>Admin::BaseController&#45;&gt;Admin::ResponsablesController</title>
<path fill="none" stroke="black" d="M924.472,-499.141C808.85,-468.825 542.521,-398.994 422.63,-367.559"/>
</g>
<!-- Admin::SubjectsController -->
<g id="node14" class="node"><title>Admin::SubjectsController</title>
<ellipse fill="none" stroke="black" cx="1499.96" cy="-459.081" rx="105.808" ry="18"/>
<text text-anchor="middle" x="1499.96" y="-454.881" font-family="Times,serif" font-size="14.00">Admin::SubjectsController</text>
</g>
<!-- Admin::BaseController&#45;&gt;Admin::SubjectsController -->
<g id="edge13" class="edge"><title>Admin::BaseController&#45;&gt;Admin::SubjectsController</title>
<path fill="none" stroke="black" d="M1061.96,-505.037C1156.57,-495.11 1311.54,-478.85 1409.53,-468.57"/>
</g>
<!-- Admin::TagsController -->
<g id="node15" class="node"><title>Admin::TagsController</title>
<ellipse fill="none" stroke="black" cx="1508.25" cy="-820.116" rx="92.5182" ry="18"/>
<text text-anchor="middle" x="1508.25" y="-815.916" font-family="Times,serif" font-size="14.00">Admin::TagsController</text>
</g>
<!-- Admin::BaseController&#45;&gt;Admin::TagsController -->
<g id="edge14" class="edge"><title>Admin::BaseController&#45;&gt;Admin::TagsController</title>
<path fill="none" stroke="black" d="M997.378,-531.706C1022.52,-556.876 1071.01,-602.919 1118.46,-634.022 1236.37,-711.304 1391.31,-775.44 1465.31,-804.059"/>
</g>
<!-- Admin::ThemesController -->
<g id="node16" class="node"><title>Admin::ThemesController</title>
<ellipse fill="none" stroke="black" cx="963.784" cy="-742.934" rx="103.861" ry="18"/>
<text text-anchor="middle" x="963.784" y="-738.734" font-family="Times,serif" font-size="14.00">Admin::ThemesController</text>
</g>
<!-- Admin::BaseController&#45;&gt;Admin::ThemesController -->
<g id="edge15" class="edge"><title>Admin::BaseController&#45;&gt;Admin::ThemesController</title>
<path fill="none" stroke="black" d="M978.54,-532.03C975.529,-575.067 968.049,-681.982 965.054,-724.789"/>
</g>
<!-- Admin::UsersController -->
<g id="node17" class="node"><title>Admin::UsersController</title>
<ellipse fill="none" stroke="black" cx="1181.08" cy="-331.084" rx="96.1518" ry="18"/>
<text text-anchor="middle" x="1181.08" y="-326.884" font-family="Times,serif" font-size="14.00">Admin::UsersController</text>
</g>
<!-- Admin::BaseController&#45;&gt;Admin::UsersController -->
<g id="edge16" class="edge"><title>Admin::BaseController&#45;&gt;Admin::UsersController</title>
<path fill="none" stroke="black" d="M999.489,-495.817C1038.06,-460.824 1123.23,-383.56 1161.63,-348.726"/>
</g>
<!-- Admin::VerificatorCommentsController -->
<g id="node18" class="node"><title>Admin::VerificatorCommentsController</title>
<ellipse fill="none" stroke="black" cx="1196.14" cy="-18" rx="151.67" ry="18"/>
<text text-anchor="middle" x="1196.14" y="-13.8" font-family="Times,serif" font-size="14.00">Admin::VerificatorCommentsController</text>
</g>
<!-- Admin::BaseController&#45;&gt;Admin::VerificatorCommentsController -->
<g id="edge17" class="edge"><title>Admin::BaseController&#45;&gt;Admin::VerificatorCommentsController</title>
<path fill="none" stroke="black" d="M987.781,-495.426C1021.74,-417.618 1154.35,-113.753 1188.23,-36.132"/>
</g>
<!-- ApplicationController -->
<g id="node19" class="node"><title>ApplicationController</title>
<ellipse fill="none" stroke="black" cx="699.203" cy="-765.98" rx="88.417" ry="18"/>
<text text-anchor="middle" x="699.203" y="-761.78" font-family="Times,serif" font-size="14.00">ApplicationController</text>
</g>
<!-- ApplicationController&#45;&gt;Admin::BaseController -->
<g id="edge5" class="edge"><title>ApplicationController&#45;&gt;Admin::BaseController</title>
<path fill="none" stroke="black" d="M718.936,-748.237C770.461,-701.908 908.614,-577.685 960.114,-531.378"/>
</g>
<!-- ArticlesController -->
<g id="node20" class="node"><title>ArticlesController</title>
<ellipse fill="none" stroke="black" cx="121.152" cy="-510.6" rx="74.4016" ry="18"/>
<text text-anchor="middle" x="121.152" y="-506.4" font-family="Times,serif" font-size="14.00">ArticlesController</text>
</g>
<!-- ApplicationController&#45;&gt;ArticlesController -->
<g id="edge18" class="edge"><title>ApplicationController&#45;&gt;ArticlesController</title>
<path fill="none" stroke="black" d="M646.531,-751.443C573.404,-730.305 437.935,-687.655 329.95,-633.741 261.988,-599.81 186.062,-552.509 147.189,-527.56"/>
</g>
<!-- BaseController -->
<g id="node21" class="node"><title>BaseController</title>
<ellipse fill="none" stroke="black" cx="687.718" cy="-1001.16" rx="63.7942" ry="18"/>
<text text-anchor="middle" x="687.718" y="-996.956" font-family="Times,serif" font-size="14.00">BaseController</text>
</g>
<!-- ApplicationController&#45;&gt;BaseController -->
<g id="edge19" class="edge"><title>ApplicationController&#45;&gt;BaseController</title>
<path fill="none" stroke="black" d="M698.321,-784.043C696.183,-827.819 690.744,-939.192 688.603,-983.031"/>
</g>
<!-- CardsController -->
<g id="node22" class="node"><title>CardsController</title>
<ellipse fill="none" stroke="black" cx="942.065" cy="-984.5" rx="67.177" ry="18"/>
<text text-anchor="middle" x="942.065" y="-980.3" font-family="Times,serif" font-size="14.00">CardsController</text>
</g>
<!-- BaseController&#45;&gt;CardsController -->
<g id="edge20" class="edge"><title>BaseController&#45;&gt;CardsController</title>
<path fill="none" stroke="black" d="M749.938,-997.082C788.323,-994.568 837.5,-991.348 876.491,-988.794"/>
</g>
<!-- DocumentsController -->
<g id="node23" class="node"><title>DocumentsController</title>
<ellipse fill="none" stroke="black" cx="137.466" cy="-852.363" rx="86.9722" ry="18"/>
<text text-anchor="middle" x="137.466" y="-848.163" font-family="Times,serif" font-size="14.00">DocumentsController</text>
</g>
<!-- BaseController&#45;&gt;DocumentsController -->
<g id="edge21" class="edge"><title>BaseController&#45;&gt;DocumentsController</title>
<path fill="none" stroke="black" d="M632.719,-992.052C572.142,-981.508 472.111,-962.568 387.619,-939.287 312.489,-918.585 227.183,-887.191 178.112,-868.338"/>
</g>
<!-- OratorsController -->
<g id="node24" class="node"><title>OratorsController</title>
<ellipse fill="none" stroke="black" cx="820.484" cy="-1273.16" rx="72.9567" ry="18"/>
<text text-anchor="middle" x="820.484" y="-1268.96" font-family="Times,serif" font-size="14.00">OratorsController</text>
</g>
<!-- BaseController&#45;&gt;OratorsController -->
<g id="edge22" class="edge"><title>BaseController&#45;&gt;OratorsController</title>
<path fill="none" stroke="black" d="M696.429,-1019C720.486,-1068.29 787.646,-1205.88 811.741,-1255.24"/>
</g>
<!-- PagesController -->
<g id="node25" class="node"><title>PagesController</title>
<ellipse fill="none" stroke="black" cx="1133.88" cy="-1258.82" rx="67.177" ry="18"/>
<text text-anchor="middle" x="1133.88" y="-1254.62" font-family="Times,serif" font-size="14.00">PagesController</text>
</g>
<!-- BaseController&#45;&gt;PagesController -->
<g id="edge23" class="edge"><title>BaseController&#45;&gt;PagesController</title>
<path fill="none" stroke="black" d="M715.966,-1017.47C796.227,-1063.82 1025.01,-1195.95 1105.47,-1242.42"/>
</g>
<!-- PasswordResetsController -->
<g id="node26" class="node"><title>PasswordResetsController</title>
<ellipse fill="none" stroke="black" cx="504.43" cy="-1258.54" rx="103.394" ry="18"/>
<text text-anchor="middle" x="504.43" y="-1254.34" font-family="Times,serif" font-size="14.00">PasswordResetsController</text>
</g>
<!-- BaseController&#45;&gt;PasswordResetsController -->
<g id="edge24" class="edge"><title>BaseController&#45;&gt;PasswordResetsController</title>
<path fill="none" stroke="black" d="M675.12,-1018.85C641.717,-1065.75 551.14,-1192.95 517.361,-1240.38"/>
</g>
<!-- SearchesController -->
<g id="node27" class="node"><title>SearchesController</title>
<ellipse fill="none" stroke="black" cx="1209.25" cy="-932.706" rx="77.7676" ry="18"/>
<text text-anchor="middle" x="1209.25" y="-928.506" font-family="Times,serif" font-size="14.00">SearchesController</text>
</g>
<!-- BaseController&#45;&gt;SearchesController -->
<g id="edge25" class="edge"><title>BaseController&#45;&gt;SearchesController</title>
<path fill="none" stroke="black" d="M743.566,-992.446C784.931,-986.098 842.696,-977.451 893.534,-970.629 977.797,-959.322 1074.93,-947.895 1138.96,-940.584"/>
</g>
<!-- SessionsController -->
<g id="node28" class="node"><title>SessionsController</title>
<ellipse fill="none" stroke="black" cx="1483.31" cy="-1217.39" rx="76.8502" ry="18"/>
<text text-anchor="middle" x="1483.31" y="-1213.19" font-family="Times,serif" font-size="14.00">SessionsController</text>
</g>
<!-- BaseController&#45;&gt;SessionsController -->
<g id="edge26" class="edge"><title>BaseController&#45;&gt;SessionsController</title>
<path fill="none" stroke="black" d="M733.64,-1013.64C872.705,-1051.43 1288.54,-1164.45 1433.11,-1203.75"/>
</g>
<!-- SubjectsController -->
<g id="node29" class="node"><title>SubjectsController</title>
<ellipse fill="none" stroke="black" cx="157.752" cy="-1226.32" rx="76.3484" ry="18"/>
<text text-anchor="middle" x="157.752" y="-1222.12" font-family="Times,serif" font-size="14.00">SubjectsController</text>
</g>
<!-- BaseController&#45;&gt;SubjectsController -->
<g id="edge27" class="edge"><title>BaseController&#45;&gt;SubjectsController</title>
<path fill="none" stroke="black" d="M652.123,-1016.28C556.157,-1057.05 292.747,-1168.97 194.948,-1210.52"/>
</g>
<!-- UsersController -->
<g id="node30" class="node"><title>UsersController</title>
<ellipse fill="none" stroke="black" cx="436.295" cy="-925.559" rx="66.6925" ry="18"/>
<text text-anchor="middle" x="436.295" y="-921.359" font-family="Times,serif" font-size="14.00">UsersController</text>
</g>
<!-- BaseController&#45;&gt;UsersController -->
<g id="edge28" class="edge"><title>BaseController&#45;&gt;UsersController</title>
<path fill="none" stroke="black" d="M643.923,-987.988C598.198,-974.24 526.863,-952.791 480.855,-938.958"/>
</g>
</g>
</svg>
