<?xml version="1.0" encoding="UTF-8" standalone="no"?>
<!DOCTYPE svg PUBLIC "-//W3C//DTD SVG 1.1//EN"
 "http://www.w3.org/Graphics/SVG/1.1/DTD/svg11.dtd">
<!-- Generated by graphviz version 2.34.0 (20140206.1422)
 -->
<!-- Title: controllers_diagram Pages: 1 -->
<svg width="1602pt" height="1014pt"
 viewBox="0.00 0.00 1601.90 1014.00" xmlns="http://www.w3.org/2000/svg" xmlns:xlink="http://www.w3.org/1999/xlink">
<g id="graph0" class="graph" transform="scale(1 1) rotate(0) translate(4 1010)">
<title>controllers_diagram</title>
<polygon fill="white" stroke="white" points="-4,4 -4,-1010 1597.9,-1010 1597.9,4 -4,4"/>
<!-- _diagram_info -->
<g id="node1" class="node"><title>_diagram_info</title>
<text text-anchor="start" x="1112" y="-989" font-family="Times,serif" font-size="13.00">Controllers diagram</text>
<text text-anchor="start" x="1112" y="-973.4" font-family="Times,serif" font-size="13.00">Date: Feb 13 2014 &#45; 18:23</text>
<text text-anchor="start" x="1112" y="-957.8" font-family="Times,serif" font-size="13.00">Migration version: 20140208125910</text>
<text text-anchor="start" x="1112" y="-942.2" font-family="Times,serif" font-size="13.00">Generated by RailRoady 1.1.1</text>
<text text-anchor="start" x="1112" y="-926.6" font-family="Times,serif" font-size="13.00">http://railroady.prestonlee.com</text>
</g>
<!-- Admin::ActionsController -->
<g id="node2" class="node"><title>Admin::ActionsController</title>
<ellipse fill="none" stroke="black" cx="445.51" cy="-320.65" rx="112.925" ry="18"/>
<text text-anchor="middle" x="445.51" y="-315.05" font-family="Times,serif" font-size="14.00">Admin::ActionsController</text>
</g>
<!-- Admin::AffiliationsController -->
<g id="node3" class="node"><title>Admin::AffiliationsController</title>
<ellipse fill="none" stroke="black" cx="1119.66" cy="-403.999" rx="126.83" ry="18"/>
<text text-anchor="middle" x="1119.66" y="-398.399" font-family="Times,serif" font-size="14.00">Admin::AffiliationsController</text>
</g>
<!-- Admin::BaseController -->
<g id="node4" class="node"><title>Admin::BaseController</title>
<ellipse fill="none" stroke="black" cx="762.183" cy="-315.67" rx="101.886" ry="18"/>
<text text-anchor="middle" x="762.183" y="-310.07" font-family="Times,serif" font-size="14.00">Admin::BaseController</text>
</g>
<!-- Admin::BaseController&#45;&gt;Admin::ActionsController -->
<g id="edge1" class="edge"><title>Admin::BaseController&#45;&gt;Admin::ActionsController</title>
<path fill="none" stroke="black" d="M660.679,-317.266C629.597,-317.755 595.147,-318.296 563.088,-318.801"/>
<polyline fill="none" stroke="black" points="557.964,-318.881 562.964,-318.803 "/>
</g>
<!-- Admin::BaseController&#45;&gt;Admin::AffiliationsController -->
<g id="edge2" class="edge"><title>Admin::BaseController&#45;&gt;Admin::AffiliationsController</title>
<path fill="none" stroke="black" d="M821.615,-330.354C884.889,-345.988 984.872,-370.693 1051.35,-387.119"/>
<polyline fill="none" stroke="black" points="1056.48,-388.385 1051.62,-387.186 "/>
</g>
<!-- Admin::CardTypesController -->
<g id="node5" class="node"><title>Admin::CardTypesController</title>
<ellipse fill="none" stroke="black" cx="150.193" cy="-803.277" rx="124.738" ry="18"/>
<text text-anchor="middle" x="150.193" y="-797.677" font-family="Times,serif" font-size="14.00">Admin::CardTypesController</text>
</g>
<!-- Admin::BaseController&#45;&gt;Admin::CardTypesController -->
<g id="edge4" class="edge"><title>Admin::BaseController&#45;&gt;Admin::CardTypesController</title>
<path fill="none" stroke="black" d="M739.082,-333.319C685.478,-374.343 548.613,-479.48 435.85,-569.454 338.885,-646.824 225.247,-740.866 175.581,-782.14"/>
<polyline fill="none" stroke="black" points="171.545,-785.494 175.39,-782.298 "/>
</g>
<!-- Admin::CardsController -->
<g id="node6" class="node"><title>Admin::CardsController</title>
<ellipse fill="none" stroke="black" cx="542.9" cy="-569.538" rx="105.402" ry="18"/>
<text text-anchor="middle" x="542.9" y="-563.938" font-family="Times,serif" font-size="14.00">Admin::CardsController</text>
</g>
<!-- Admin::BaseController&#45;&gt;Admin::CardsController -->
<g id="edge5" class="edge"><title>Admin::BaseController&#45;&gt;Admin::CardsController</title>
<path fill="none" stroke="black" d="M746.764,-333.521C707.603,-378.859 604.399,-498.339 561.753,-547.712"/>
<polyline fill="none" stroke="black" points="558.303,-551.706 561.571,-547.922 "/>
</g>
<!-- Admin::OwnershipsController -->
<g id="node7" class="node"><title>Admin::OwnershipsController</title>
<ellipse fill="none" stroke="black" cx="129.056" cy="-454.891" rx="129.112" ry="18"/>
<text text-anchor="middle" x="129.056" y="-449.291" font-family="Times,serif" font-size="14.00">Admin::OwnershipsController</text>
</g>
<!-- Admin::BaseController&#45;&gt;Admin::OwnershipsController -->
<g id="edge6" class="edge"><title>Admin::BaseController&#45;&gt;Admin::OwnershipsController</title>
<path fill="none" stroke="black" d="M698.285,-329.72C580.295,-355.666 328.859,-410.955 203.428,-438.537"/>
<polyline fill="none" stroke="black" points="198.286,-439.668 203.169,-438.594 "/>
</g>
<!-- Admin::PagesController -->
<g id="node8" class="node"><title>Admin::PagesController</title>
<ellipse fill="none" stroke="black" cx="462.065" cy="-29.5261" rx="105.402" ry="18"/>
<text text-anchor="middle" x="462.065" y="-23.9261" font-family="Times,serif" font-size="14.00">Admin::PagesController</text>
</g>
<!-- Admin::BaseController&#45;&gt;Admin::PagesController -->
<g id="edge7" class="edge"><title>Admin::BaseController&#45;&gt;Admin::PagesController</title>
<path fill="none" stroke="black" d="M743.41,-297.77C690.776,-247.587 541.92,-105.663 484.784,-51.1875"/>
<polyline fill="none" stroke="black" points="480.832,-47.4189 484.45,-50.8692 "/>
</g>
<!-- Admin::ResponsablesController -->
<g id="node9" class="node"><title>Admin::ResponsablesController</title>
<ellipse fill="none" stroke="black" cx="1191.61" cy="-54.5708" rx="135.485" ry="18"/>
<text text-anchor="middle" x="1191.61" y="-48.9708" font-family="Times,serif" font-size="14.00">Admin::ResponsablesController</text>
</g>
<!-- Admin::BaseController&#45;&gt;Admin::ResponsablesController -->
<g id="edge8" class="edge"><title>Admin::BaseController&#45;&gt;Admin::ResponsablesController</title>
<path fill="none" stroke="black" d="M790.692,-298.336C867.006,-251.936 1075.7,-125.048 1157.8,-75.1315"/>
<polyline fill="none" stroke="black" points="1162.55,-72.2414 1158.28,-74.839 "/>
</g>
<!-- Admin::TagsController -->
<g id="node10" class="node"><title>Admin::TagsController</title>
<ellipse fill="none" stroke="black" cx="124.444" cy="-73.873" rx="101.037" ry="18"/>
<text text-anchor="middle" x="124.444" y="-68.273" font-family="Times,serif" font-size="14.00">Admin::TagsController</text>
</g>
<!-- Admin::BaseController&#45;&gt;Admin::TagsController -->
<g id="edge9" class="edge"><title>Admin::BaseController&#45;&gt;Admin::TagsController</title>
<path fill="none" stroke="black" d="M718.85,-299.24C603.958,-255.679 292.164,-137.464 172.29,-92.0136"/>
<polyline fill="none" stroke="black" points="167.417,-90.1659 172.092,-91.9386 "/>
</g>
<!-- Admin::UsersController -->
<g id="node11" class="node"><title>Admin::UsersController</title>
<ellipse fill="none" stroke="black" cx="948.861" cy="-80.7156" rx="104.827" ry="18"/>
<text text-anchor="middle" x="948.861" y="-75.1156" font-family="Times,serif" font-size="14.00">Admin::UsersController</text>
</g>
<!-- Admin::BaseController&#45;&gt;Admin::UsersController -->
<g id="edge10" class="edge"><title>Admin::BaseController&#45;&gt;Admin::UsersController</title>
<path fill="none" stroke="black" d="M776.522,-297.623C810.252,-255.17 894.542,-149.083 931.28,-102.843"/>
<polyline fill="none" stroke="black" points="934.474,-98.8234 931.364,-102.738 "/>
</g>
<!-- Admin::VerificatorCommentsController -->
<g id="node12" class="node"><title>Admin::VerificatorCommentsController</title>
<ellipse fill="none" stroke="black" cx="730.78" cy="-18" rx="165.558" ry="18"/>
<text text-anchor="middle" x="730.78" y="-12.4" font-family="Times,serif" font-size="14.00">Admin::VerificatorCommentsController</text>
</g>
<!-- Admin::BaseController&#45;&gt;Admin::VerificatorCommentsController -->
<g id="edge11" class="edge"><title>Admin::BaseController&#45;&gt;Admin::VerificatorCommentsController</title>
<path fill="none" stroke="black" d="M760.266,-297.497C754.835,-246.016 739.346,-99.204 733.27,-41.6025"/>
<polyline fill="none" stroke="black" points="732.712,-36.3129 733.236,-41.2853 "/>
</g>
<!-- ApplicationController -->
<g id="node13" class="node"><title>ApplicationController</title>
<ellipse fill="none" stroke="black" cx="869.903" cy="-560.929" rx="96.1448" ry="18"/>
<text text-anchor="middle" x="869.903" y="-555.329" font-family="Times,serif" font-size="14.00">ApplicationController</text>
</g>
<!-- ApplicationController&#45;&gt;Admin::BaseController -->
<g id="edge3" class="edge"><title>ApplicationController&#45;&gt;Admin::BaseController</title>
<path fill="none" stroke="black" d="M861.982,-542.895C842.723,-499.045 793.467,-386.898 772.205,-338.487"/>
<polyline fill="none" stroke="black" points="770.116,-333.731 772.127,-338.308 "/>
</g>
<!-- CardsController -->
<g id="node14" class="node"><title>CardsController</title>
<ellipse fill="none" stroke="black" cx="1491.25" cy="-799.533" rx="73.0201" ry="18"/>
<text text-anchor="middle" x="1491.25" y="-793.933" font-family="Times,serif" font-size="14.00">CardsController</text>
</g>
<!-- ApplicationController&#45;&gt;CardsController -->
<g id="edge12" class="edge"><title>ApplicationController&#45;&gt;CardsController</title>
<path fill="none" stroke="black" d="M912.122,-577.142C1024.74,-620.386 1331.51,-738.189 1446.72,-782.434"/>
<polyline fill="none" stroke="black" points="1451.4,-784.231 1446.74,-782.439 "/>
</g>
<!-- PagesController -->
<g id="node15" class="node"><title>PagesController</title>
<ellipse fill="none" stroke="black" cx="1140.95" cy="-785.276" rx="73.0201" ry="18"/>
<text text-anchor="middle" x="1140.95" y="-779.676" font-family="Times,serif" font-size="14.00">PagesController</text>
</g>
<!-- ApplicationController&#45;&gt;PagesController -->
<g id="edge13" class="edge"><title>ApplicationController&#45;&gt;PagesController</title>
<path fill="none" stroke="black" d="M891.171,-578.533C940.553,-619.407 1062.79,-720.585 1115.78,-764.444"/>
<polyline fill="none" stroke="black" points="1119.78,-767.753 1115.93,-764.565 "/>
</g>
<!-- PasswordResetsController -->
<g id="node16" class="node"><title>PasswordResetsController</title>
<ellipse fill="none" stroke="black" cx="834.228" cy="-839.441" rx="112.925" ry="18"/>
<text text-anchor="middle" x="834.228" y="-833.841" font-family="Times,serif" font-size="14.00">PasswordResetsController</text>
</g>
<!-- ApplicationController&#45;&gt;PasswordResetsController -->
<g id="edge14" class="edge"><title>ApplicationController&#45;&gt;PasswordResetsController</title>
<path fill="none" stroke="black" d="M867.562,-579.203C861.3,-628.091 844.168,-761.838 837.218,-816.102"/>
<polyline fill="none" stroke="black" points="836.577,-821.1 837.213,-816.141 "/>
</g>
<!-- SearchesController -->
<g id="node17" class="node"><title>SearchesController</title>
<ellipse fill="none" stroke="black" cx="1475.96" cy="-441.608" rx="85.0959" ry="18"/>
<text text-anchor="middle" x="1475.96" y="-436.008" font-family="Times,serif" font-size="14.00">SearchesController</text>
</g>
<!-- ApplicationController&#45;&gt;SearchesController -->
<g id="edge15" class="edge"><title>ApplicationController&#45;&gt;SearchesController</title>
<path fill="none" stroke="black" d="M936.495,-547.819C1052.69,-524.942 1291.23,-477.978 1408.23,-454.944"/>
<polyline fill="none" stroke="black" points="1413.36,-453.933 1408.46,-454.899 "/>
</g>
<!-- SessionsController -->
<g id="node18" class="node"><title>SessionsController</title>
<ellipse fill="none" stroke="black" cx="1509.9" cy="-74.4207" rx="84.0023" ry="18"/>
<text text-anchor="middle" x="1509.9" y="-68.8207" font-family="Times,serif" font-size="14.00">SessionsController</text>
</g>
<!-- ApplicationController&#45;&gt;SessionsController -->
<g id="edge16" class="edge"><title>ApplicationController&#45;&gt;SessionsController</title>
<path fill="none" stroke="black" d="M880.896,-542.808C900.344,-511.755 943.308,-447.503 991.153,-403.851 1149.88,-259.036 1379.92,-138.188 1470.83,-93.2243"/>
<polyline fill="none" stroke="black" points="1475.57,-90.8839 1471.09,-93.0957 "/>
</g>
<!-- UsersController -->
<g id="node19" class="node"><title>UsersController</title>
<ellipse fill="none" stroke="black" cx="518.144" cy="-836.958" rx="72.9449" ry="18"/>
<text text-anchor="middle" x="518.144" y="-831.358" font-family="Times,serif" font-size="14.00">UsersController</text>
</g>
<!-- ApplicationController&#45;&gt;UsersController -->
<g id="edge17" class="edge"><title>ApplicationController&#45;&gt;UsersController</title>
<path fill="none" stroke="black" d="M847.364,-578.616C785.045,-627.518 610.652,-764.366 544.259,-816.466"/>
<polyline fill="none" stroke="black" points="540.044,-819.773 543.978,-816.686 "/>
</g>
</g>
</svg>
