<?xml version="1.0" encoding="UTF-8" standalone="no"?>
<!DOCTYPE svg PUBLIC "-//W3C//DTD SVG 1.1//EN"
 "http://www.w3.org/Graphics/SVG/1.1/DTD/svg11.dtd">
<!-- Generated by graphviz version 2.36.0 (20140111.2315)
 -->
<!-- Title: controllers_diagram Pages: 1 -->
<svg width="1415pt" height="1221pt"
 viewBox="0.00 0.00 1415.38 1221.46" xmlns="http://www.w3.org/2000/svg" xmlns:xlink="http://www.w3.org/1999/xlink">
<g id="graph0" class="graph" transform="scale(1 1) rotate(0) translate(4 1217.46)">
<title>controllers_diagram</title>
<polygon fill="white" stroke="none" points="-4,4 -4,-1217.46 1411.38,-1217.46 1411.38,4 -4,4"/>
<!-- _diagram_info -->
<g id="node1" class="node"><title>_diagram_info</title>
<text text-anchor="start" x="1208" y="-958.6" font-family="Times,serif" font-size="13.00">Controllers diagram</text>
<text text-anchor="start" x="1208" y="-945.6" font-family="Times,serif" font-size="13.00">Date: Mar 24 2014 &#45; 23:55</text>
<text text-anchor="start" x="1208" y="-932.6" font-family="Times,serif" font-size="13.00">Migration version: 20140312164922</text>
<text text-anchor="start" x="1208" y="-919.6" font-family="Times,serif" font-size="13.00">Generated by RailRoady 1.1.1</text>
<text text-anchor="start" x="1208" y="-906.6" font-family="Times,serif" font-size="13.00">http://railroady.prestonlee.com</text>
</g>
<!-- Admin::AccessTokensController -->
<g id="node2" class="node"><title>Admin::AccessTokensController</title>
<ellipse fill="none" stroke="black" cx="126.398" cy="-61.5028" rx="126.295" ry="18"/>
<text text-anchor="middle" x="126.398" y="-57.3028" font-family="Times,serif" font-size="14.00">Admin::AccessTokensController</text>
</g>
<!-- Admin::ActionsController -->
<g id="node3" class="node"><title>Admin::ActionsController</title>
<ellipse fill="none" stroke="black" cx="970.96" cy="-598.118" rx="103.394" ry="18"/>
<text text-anchor="middle" x="970.96" y="-593.918" font-family="Times,serif" font-size="14.00">Admin::ActionsController</text>
</g>
<!-- Admin::AffiliationsController -->
<g id="node4" class="node"><title>Admin::AffiliationsController</title>
<ellipse fill="none" stroke="black" cx="589.332" cy="-18" rx="116.449" ry="18"/>
<text text-anchor="middle" x="589.332" y="-13.8" font-family="Times,serif" font-size="14.00">Admin::AffiliationsController</text>
</g>
<!-- Admin::ArticlesController -->
<g id="node5" class="node"><title>Admin::ArticlesController</title>
<ellipse fill="none" stroke="black" cx="626.551" cy="-525.833" rx="103.861" ry="18"/>
<text text-anchor="middle" x="626.551" y="-521.633" font-family="Times,serif" font-size="14.00">Admin::ArticlesController</text>
</g>
<!-- Admin::BaseController -->
<g id="node6" class="node"><title>Admin::BaseController</title>
<ellipse fill="none" stroke="black" cx="779.674" cy="-450.794" rx="93.2533" ry="18"/>
<text text-anchor="middle" x="779.674" y="-446.594" font-family="Times,serif" font-size="14.00">Admin::BaseController</text>
</g>
<!-- Admin::BaseController&#45;&gt;Admin::AccessTokensController -->
<g id="edge1" class="edge"><title>Admin::BaseController&#45;&gt;Admin::AccessTokensController</title>
<path fill="none" stroke="black" d="M759.41,-433.018C734.562,-411.721 690.658,-375.686 649.455,-349.866 501.422,-257.098 448.56,-262.656 297.286,-175.274 243.43,-144.165 183.594,-102.604 150.954,-79.2949"/>
</g>
<!-- Admin::BaseController&#45;&gt;Admin::ActionsController -->
<g id="edge2" class="edge"><title>Admin::BaseController&#45;&gt;Admin::ActionsController</title>
<path fill="none" stroke="black" d="M802.368,-468.272C839.084,-496.55 911.111,-552.024 947.998,-580.433"/>
</g>
<!-- Admin::BaseController&#45;&gt;Admin::AffiliationsController -->
<g id="edge3" class="edge"><title>Admin::BaseController&#45;&gt;Admin::AffiliationsController</title>
<path fill="none" stroke="black" d="M760.314,-432.956C725.762,-399.848 653.983,-325.039 620.72,-246.021 589.945,-172.913 588.024,-76.0864 588.713,-36.2782"/>
</g>
<!-- Admin::BaseController&#45;&gt;Admin::ArticlesController -->
<g id="edge4" class="edge"><title>Admin::BaseController&#45;&gt;Admin::ArticlesController</title>
<path fill="none" stroke="black" d="M745.31,-467.634C720.269,-479.906 686.468,-496.47 661.33,-508.789"/>
</g>
<!-- Admin::CardTypesController -->
<g id="node7" class="node"><title>Admin::CardTypesController</title>
<ellipse fill="none" stroke="black" cx="398.927" cy="-509.811" rx="114.242" ry="18"/>
<text text-anchor="middle" x="398.927" y="-505.611" font-family="Times,serif" font-size="14.00">Admin::CardTypesController</text>
</g>
<!-- Admin::BaseController&#45;&gt;Admin::CardTypesController -->
<g id="edge6" class="edge"><title>Admin::BaseController&#45;&gt;Admin::CardTypesController</title>
<path fill="none" stroke="black" d="M706.713,-462.103C642.042,-472.127 547.713,-486.749 480.552,-497.159"/>
</g>
<!-- Admin::CardsController -->
<g id="node8" class="node"><title>Admin::CardsController</title>
<ellipse fill="none" stroke="black" cx="395.452" cy="-175.386" rx="96.6363" ry="18"/>
<text text-anchor="middle" x="395.452" y="-171.186" font-family="Times,serif" font-size="14.00">Admin::CardsController</text>
</g>
<!-- Admin::BaseController&#45;&gt;Admin::CardsController -->
<g id="edge7" class="edge"><title>Admin::BaseController&#45;&gt;Admin::CardsController</title>
<path fill="none" stroke="black" d="M757.849,-433.259C732.218,-412.812 688.265,-378.2 649.455,-349.866 567.789,-290.244 468.261,-223.556 421.759,-192.732"/>
</g>
<!-- Admin::OwnershipsController -->
<g id="node9" class="node"><title>Admin::OwnershipsController</title>
<ellipse fill="none" stroke="black" cx="1244.77" cy="-99.5083" rx="118.369" ry="18"/>
<text text-anchor="middle" x="1244.77" y="-95.3083" font-family="Times,serif" font-size="14.00">Admin::OwnershipsController</text>
</g>
<!-- Admin::BaseController&#45;&gt;Admin::OwnershipsController -->
<g id="edge8" class="edge"><title>Admin::BaseController&#45;&gt;Admin::OwnershipsController</title>
<path fill="none" stroke="black" d="M784.53,-432.794C791.058,-411.329 804.417,-375.332 826.109,-351.235 934.914,-230.369 1115.61,-149.338 1199.46,-116.278"/>
</g>
<!-- Admin::PagesController -->
<g id="node10" class="node"><title>Admin::PagesController</title>
<ellipse fill="none" stroke="black" cx="551.287" cy="-349.826" rx="96.6363" ry="18"/>
<text text-anchor="middle" x="551.287" y="-345.626" font-family="Times,serif" font-size="14.00">Admin::PagesController</text>
</g>
<!-- Admin::BaseController&#45;&gt;Admin::PagesController -->
<g id="edge9" class="edge"><title>Admin::BaseController&#45;&gt;Admin::PagesController</title>
<path fill="none" stroke="black" d="M742.216,-434.234C699.949,-415.548 631.577,-385.321 589.146,-366.563"/>
</g>
<!-- Admin::ParentsController -->
<g id="node11" class="node"><title>Admin::ParentsController</title>
<ellipse fill="none" stroke="black" cx="919.193" cy="-40.1634" rx="101.94" ry="18"/>
<text text-anchor="middle" x="919.193" y="-35.9634" font-family="Times,serif" font-size="14.00">Admin::ParentsController</text>
</g>
<!-- Admin::BaseController&#45;&gt;Admin::ParentsController -->
<g id="edge10" class="edge"><title>Admin::BaseController&#45;&gt;Admin::ParentsController</title>
<path fill="none" stroke="black" d="M788.139,-432.599C809.744,-386.088 865.675,-265.161 872.076,-246.131 894.823,-178.508 910.203,-94.7467 916.28,-58.4048"/>
</g>
<!-- Admin::ResponsablesController -->
<g id="node12" class="node"><title>Admin::ResponsablesController</title>
<ellipse fill="none" stroke="black" cx="746.398" cy="-246.076" rx="124.157" ry="18"/>
<text text-anchor="middle" x="746.398" y="-241.876" font-family="Times,serif" font-size="14.00">Admin::ResponsablesController</text>
</g>
<!-- Admin::BaseController&#45;&gt;Admin::ResponsablesController -->
<g id="edge11" class="edge"><title>Admin::BaseController&#45;&gt;Admin::ResponsablesController</title>
<path fill="none" stroke="black" d="M776.721,-432.626C770.407,-393.778 755.653,-303.015 749.345,-264.203"/>
</g>
<!-- Admin::SubjectsController -->
<g id="node13" class="node"><title>Admin::SubjectsController</title>
<ellipse fill="none" stroke="black" cx="124.093" cy="-375.987" rx="105.808" ry="18"/>
<text text-anchor="middle" x="124.093" y="-371.787" font-family="Times,serif" font-size="14.00">Admin::SubjectsController</text>
</g>
<!-- Admin::BaseController&#45;&gt;Admin::SubjectsController -->
<g id="edge12" class="edge"><title>Admin::BaseController&#45;&gt;Admin::SubjectsController</title>
<path fill="none" stroke="black" d="M699.287,-441.621C575.771,-427.527 340.207,-400.647 212.199,-386.04"/>
</g>
<!-- Admin::TagsController -->
<g id="node14" class="node"><title>Admin::TagsController</title>
<ellipse fill="none" stroke="black" cx="1257.41" cy="-462.052" rx="92.5182" ry="18"/>
<text text-anchor="middle" x="1257.41" y="-457.852" font-family="Times,serif" font-size="14.00">Admin::TagsController</text>
</g>
<!-- Admin::BaseController&#45;&gt;Admin::TagsController -->
<g id="edge13" class="edge"><title>Admin::BaseController&#45;&gt;Admin::TagsController</title>
<path fill="none" stroke="black" d="M872.352,-452.978C956.875,-454.97 1081.08,-457.896 1165.39,-459.883"/>
</g>
<!-- Admin::ThemesController -->
<g id="node15" class="node"><title>Admin::ThemesController</title>
<ellipse fill="none" stroke="black" cx="1241.37" cy="-756.729" rx="103.861" ry="18"/>
<text text-anchor="middle" x="1241.37" y="-752.529" font-family="Times,serif" font-size="14.00">Admin::ThemesController</text>
</g>
<!-- Admin::BaseController&#45;&gt;Admin::ThemesController -->
<g id="edge14" class="edge"><title>Admin::BaseController&#45;&gt;Admin::ThemesController</title>
<path fill="none" stroke="black" d="M821.64,-466.914C881.143,-490.795 992.116,-539.168 1076.01,-598.171 1137.49,-641.417 1198.32,-707.231 1225.95,-738.718"/>
</g>
<!-- Admin::UsersController -->
<g id="node16" class="node"><title>Admin::UsersController</title>
<ellipse fill="none" stroke="black" cx="771.268" cy="-670.649" rx="96.1518" ry="18"/>
<text text-anchor="middle" x="771.268" y="-666.449" font-family="Times,serif" font-size="14.00">Admin::UsersController</text>
</g>
<!-- Admin::BaseController&#45;&gt;Admin::UsersController -->
<g id="edge15" class="edge"><title>Admin::BaseController&#45;&gt;Admin::UsersController</title>
<path fill="none" stroke="black" d="M778.972,-469.16C777.386,-510.648 773.541,-611.198 771.963,-652.489"/>
</g>
<!-- Admin::VerificatorCommentsController -->
<g id="node17" class="node"><title>Admin::VerificatorCommentsController</title>
<ellipse fill="none" stroke="black" cx="979.293" cy="-351.309" rx="151.67" ry="18"/>
<text text-anchor="middle" x="979.293" y="-347.109" font-family="Times,serif" font-size="14.00">Admin::VerificatorCommentsController</text>
</g>
<!-- Admin::BaseController&#45;&gt;Admin::VerificatorCommentsController -->
<g id="edge16" class="edge"><title>Admin::BaseController&#45;&gt;Admin::VerificatorCommentsController</title>
<path fill="none" stroke="black" d="M813.537,-433.918C849.799,-415.845 907.083,-387.297 943.918,-368.939"/>
</g>
<!-- ApplicationController -->
<g id="node18" class="node"><title>ApplicationController</title>
<ellipse fill="none" stroke="black" cx="574.01" cy="-675.36" rx="88.417" ry="18"/>
<text text-anchor="middle" x="574.01" y="-671.16" font-family="Times,serif" font-size="14.00">ApplicationController</text>
</g>
<!-- ApplicationController&#45;&gt;Admin::BaseController -->
<g id="edge5" class="edge"><title>ApplicationController&#45;&gt;Admin::BaseController</title>
<path fill="none" stroke="black" d="M595.835,-657.755C627.929,-631.23 688.731,-578.501 732.081,-525.884 746.999,-507.777 760.98,-484.7 769.878,-468.938"/>
</g>
<!-- ArticlesController -->
<g id="node19" class="node"><title>ArticlesController</title>
<ellipse fill="none" stroke="black" cx="110.892" cy="-607.234" rx="74.4016" ry="18"/>
<text text-anchor="middle" x="110.892" y="-603.034" font-family="Times,serif" font-size="14.00">ArticlesController</text>
</g>
<!-- ApplicationController&#45;&gt;ArticlesController -->
<g id="edge17" class="edge"><title>ApplicationController&#45;&gt;ArticlesController</title>
<path fill="none" stroke="black" d="M502.409,-664.828C412.784,-651.643 260.637,-629.262 174.784,-616.633"/>
</g>
<!-- BaseController -->
<g id="node20" class="node"><title>BaseController</title>
<ellipse fill="none" stroke="black" cx="653.329" cy="-860.98" rx="63.7942" ry="18"/>
<text text-anchor="middle" x="653.329" y="-856.78" font-family="Times,serif" font-size="14.00">BaseController</text>
</g>
<!-- ApplicationController&#45;&gt;BaseController -->
<g id="edge18" class="edge"><title>ApplicationController&#45;&gt;BaseController</title>
<path fill="none" stroke="black" d="M581.759,-693.496C596.962,-729.074 630.53,-807.628 645.664,-843.044"/>
</g>
<!-- CardsController -->
<g id="node21" class="node"><title>CardsController</title>
<ellipse fill="none" stroke="black" cx="414.705" cy="-976.222" rx="67.177" ry="18"/>
<text text-anchor="middle" x="414.705" y="-972.022" font-family="Times,serif" font-size="14.00">CardsController</text>
</g>
<!-- BaseController&#45;&gt;CardsController -->
<g id="edge19" class="edge"><title>BaseController&#45;&gt;CardsController</title>
<path fill="none" stroke="black" d="M621.147,-876.522C575.731,-898.455 493.281,-938.274 447.522,-960.373"/>
</g>
<!-- DocumentsController -->
<g id="node22" class="node"><title>DocumentsController</title>
<ellipse fill="none" stroke="black" cx="933.061" cy="-844.862" rx="86.9722" ry="18"/>
<text text-anchor="middle" x="933.061" y="-840.662" font-family="Times,serif" font-size="14.00">DocumentsController</text>
</g>
<!-- BaseController&#45;&gt;DocumentsController -->
<g id="edge20" class="edge"><title>BaseController&#45;&gt;DocumentsController</title>
<path fill="none" stroke="black" d="M715.758,-857.383C755.128,-855.114 806.451,-852.157 849.333,-849.686"/>
</g>
<!-- OratorsController -->
<g id="node23" class="node"><title>OratorsController</title>
<ellipse fill="none" stroke="black" cx="107.792" cy="-843.54" rx="72.9567" ry="18"/>
<text text-anchor="middle" x="107.792" y="-839.34" font-family="Times,serif" font-size="14.00">OratorsController</text>
</g>
<!-- BaseController&#45;&gt;OratorsController -->
<g id="edge21" class="edge"><title>BaseController&#45;&gt;OratorsController</title>
<path fill="none" stroke="black" d="M589.948,-858.954C487.888,-855.691 287.717,-849.292 180.188,-845.854"/>
</g>
<!-- PagesController -->
<g id="node24" class="node"><title>PagesController</title>
<ellipse fill="none" stroke="black" cx="756.515" cy="-1075.85" rx="67.177" ry="18"/>
<text text-anchor="middle" x="756.515" y="-1071.65" font-family="Times,serif" font-size="14.00">PagesController</text>
</g>
<!-- BaseController&#45;&gt;PagesController -->
<g id="edge22" class="edge"><title>BaseController&#45;&gt;PagesController</title>
<path fill="none" stroke="black" d="M661.949,-878.93C681.372,-919.376 728.378,-1017.26 747.847,-1057.8"/>
</g>
<!-- PasswordResetsController -->
<g id="node25" class="node"><title>PasswordResetsController</title>
<ellipse fill="none" stroke="black" cx="956.365" cy="-1167.66" rx="103.394" ry="18"/>
<text text-anchor="middle" x="956.365" y="-1163.46" font-family="Times,serif" font-size="14.00">PasswordResetsController</text>
</g>
<!-- BaseController&#45;&gt;PasswordResetsController -->
<g id="edge23" class="edge"><title>BaseController&#45;&gt;PasswordResetsController</title>
<path fill="none" stroke="black" d="M670.489,-878.348C723.577,-932.074 884.789,-1095.23 938.637,-1149.72"/>
</g>
<!-- SearchesController -->
<g id="node26" class="node"><title>SearchesController</title>
<ellipse fill="none" stroke="black" cx="545.636" cy="-1195.46" rx="77.7676" ry="18"/>
<text text-anchor="middle" x="545.636" y="-1191.26" font-family="Times,serif" font-size="14.00">SearchesController</text>
</g>
<!-- BaseController&#45;&gt;SearchesController -->
<g id="edge24" class="edge"><title>BaseController&#45;&gt;SearchesController</title>
<path fill="none" stroke="black" d="M647.539,-878.963C628.84,-937.04 570.195,-1119.19 551.455,-1177.39"/>
</g>
<!-- SessionsController -->
<g id="node27" class="node"><title>SessionsController</title>
<ellipse fill="none" stroke="black" cx="401.879" cy="-752.876" rx="76.8502" ry="18"/>
<text text-anchor="middle" x="401.879" y="-748.676" font-family="Times,serif" font-size="14.00">SessionsController</text>
</g>
<!-- BaseController&#45;&gt;SessionsController -->
<g id="edge25" class="edge"><title>BaseController&#45;&gt;SessionsController</title>
<path fill="none" stroke="black" d="M618.101,-845.835C570.794,-825.497 487.124,-789.525 438.912,-768.797"/>
</g>
<!-- SubjectsController -->
<g id="node28" class="node"><title>SubjectsController</title>
<ellipse fill="none" stroke="black" cx="1252.96" cy="-1104.96" rx="76.3484" ry="18"/>
<text text-anchor="middle" x="1252.96" y="-1100.76" font-family="Times,serif" font-size="14.00">SubjectsController</text>
</g>
<!-- BaseController&#45;&gt;SubjectsController -->
<g id="edge26" class="edge"><title>BaseController&#45;&gt;SubjectsController</title>
<path fill="none" stroke="black" d="M689.936,-875.875C796.478,-919.225 1105.71,-1045.04 1214.53,-1089.32"/>
</g>
<!-- UsersController -->
<g id="node29" class="node"><title>UsersController</title>
<ellipse fill="none" stroke="black" cx="139.646" cy="-1153.85" rx="66.6925" ry="18"/>
<text text-anchor="middle" x="139.646" y="-1149.65" font-family="Times,serif" font-size="14.00">UsersController</text>
</g>
<!-- BaseController&#45;&gt;UsersController -->
<g id="edge27" class="edge"><title>BaseController&#45;&gt;UsersController</title>
<path fill="none" stroke="black" d="M628.874,-877.653C595.883,-900.133 535.267,-941.383 483.39,-976.405 474.264,-982.567 472.318,-984.645 462.817,-990.21 360.527,-1050.12 233.659,-1110.53 173.867,-1138.21"/>
</g>
</g>
</svg>
