<?xml version="1.0" encoding="UTF-8" standalone="no"?>
<!DOCTYPE svg PUBLIC "-//W3C//DTD SVG 1.1//EN"
 "http://www.w3.org/Graphics/SVG/1.1/DTD/svg11.dtd">
<!-- Generated by graphviz version 2.36.0 (20140111.2315)
 -->
<!-- Title: models_diagram Pages: 1 -->
<svg width="2147pt" height="594pt"
 viewBox="0.00 0.00 2147.00 594.00" xmlns="http://www.w3.org/2000/svg" xmlns:xlink="http://www.w3.org/1999/xlink">
<g id="graph0" class="graph" transform="scale(1 1) rotate(0) translate(4 590)">
<title>models_diagram</title>
<polygon fill="white" stroke="none" points="-4,4 -4,-590 2143,-590 2143,4 -4,4"/>
<!-- _diagram_info -->
<g id="node1" class="node"><title>_diagram_info</title>
<text text-anchor="start" x="784.312" y="-571.1" font-family="Times,serif" font-size="13.00">Models diagram</text>
<text text-anchor="start" x="784.312" y="-558.1" font-family="Times,serif" font-size="13.00">Date: Sep 09 2014 &#45; 21:01</text>
<text text-anchor="start" x="784.312" y="-545.1" font-family="Times,serif" font-size="13.00">Migration version: 20140626153501</text>
<text text-anchor="start" x="784.312" y="-532.1" font-family="Times,serif" font-size="13.00">Generated by RailRoady 1.1.1</text>
<text text-anchor="start" x="784.312" y="-519.1" font-family="Times,serif" font-size="13.00">http://railroady.prestonlee.com</text>
</g>
<!-- AccessToken -->
<g id="node2" class="node"><title>AccessToken</title>
<ellipse fill="none" stroke="black" cx="559" cy="-92" rx="57.19" ry="18"/>
<text text-anchor="middle" x="559" y="-87.8" font-family="Times,serif" font-size="14.00">AccessToken</text>
</g>
<!-- Action -->
<g id="node3" class="node"><title>Action</title>
<ellipse fill="none" stroke="black" cx="81" cy="-240" rx="34.2643" ry="18"/>
<text text-anchor="middle" x="81" y="-235.8" font-family="Times,serif" font-size="14.00">Action</text>
</g>
<!-- Ownership -->
<g id="node24" class="node"><title>Ownership</title>
<ellipse fill="none" stroke="black" cx="149" cy="-166" rx="48.3713" ry="18"/>
<text text-anchor="middle" x="149" y="-161.8" font-family="Times,serif" font-size="14.00">Ownership</text>
</g>
<!-- Action&#45;&gt;Ownership -->
<g id="edge3" class="edge"><title>Action&#45;&gt;Ownership</title>
<path fill="none" stroke="#fa5ca6" d="M102.713,-216.009C110.243,-208.036 118.702,-199.08 126.309,-191.026"/>
<polygon fill="#fa5ca6" stroke="#fa5ca6" points="102.621,-216.107 92.4834,-220.287 99.1881,-219.742 95.755,-223.377 95.755,-223.377 95.755,-223.377 99.1881,-219.742 99.0266,-226.467 102.621,-216.107 102.621,-216.107"/>
<polygon fill="#fa5ca6" stroke="#fa5ca6" points="126.699,-190.612 136.837,-186.432 130.133,-186.977 133.566,-183.342 133.566,-183.342 133.566,-183.342 130.133,-186.977 130.294,-180.252 126.699,-190.612 126.699,-190.612"/>
</g>
<!-- OwnershipAction -->
<g id="node25" class="node"><title>OwnershipAction</title>
<ellipse fill="none" stroke="black" cx="72" cy="-92" rx="72.4741" ry="18"/>
<text text-anchor="middle" x="72" y="-87.8" font-family="Times,serif" font-size="14.00">OwnershipAction</text>
</g>
<!-- Action&#45;&gt;OwnershipAction -->
<g id="edge2" class="edge"><title>Action&#45;&gt;OwnershipAction</title>
<path fill="none" stroke="#45b89f" d="M79.4466,-213.8C77.8455,-187.827 75.3564,-147.449 73.7027,-120.622"/>
<ellipse fill="none" stroke="#45b89f" cx="79.7038" cy="-217.974" rx="4" ry="4"/>
<polygon fill="#45b89f" stroke="#45b89f" points="73.6866,-120.359 77.5627,-110.101 73.3789,-115.368 73.0712,-110.378 73.0712,-110.378 73.0712,-110.378 73.3789,-115.368 68.5798,-110.655 73.6866,-120.359 73.6866,-120.359"/>
</g>
<!-- Activity -->
<g id="node4" class="node"><title>Activity</title>
<ellipse fill="none" stroke="black" cx="255" cy="-166" rx="39.135" ry="18"/>
<text text-anchor="middle" x="255" y="-161.8" font-family="Times,serif" font-size="14.00">Activity</text>
</g>
<!-- Affiliation -->
<g id="node5" class="node"><title>Affiliation</title>
<ellipse fill="none" stroke="black" cx="564" cy="-456" rx="46.4303" ry="18"/>
<text text-anchor="middle" x="564" y="-451.8" font-family="Times,serif" font-size="14.00">Affiliation</text>
</g>
<!-- Card -->
<g id="node9" class="node"><title>Card</title>
<ellipse fill="none" stroke="black" cx="825" cy="-348" rx="26.9483" ry="18"/>
<text text-anchor="middle" x="825" y="-343.8" font-family="Times,serif" font-size="14.00">Card</text>
</g>
<!-- Affiliation&#45;&gt;Card -->
<g id="edge7" class="edge"><title>Affiliation&#45;&gt;Card</title>
<path fill="none" stroke="#87527d" d="M619.269,-450.44C654.061,-445.976 699.187,-437.199 736,-420 761.7,-407.993 786.556,-387.134 803.437,-371.122"/>
<polygon fill="#87527d" stroke="#87527d" points="619.214,-450.446 608.748,-447.171 614.25,-451.043 609.285,-451.639 609.285,-451.639 609.285,-451.639 614.25,-451.043 609.822,-456.107 619.214,-450.446 619.214,-450.446"/>
<polygon fill="#87527d" stroke="#87527d" points="803.886,-370.686 814.191,-366.936 807.469,-367.199 811.052,-363.711 811.052,-363.711 811.052,-363.711 807.469,-367.199 807.914,-360.486 803.886,-370.686 803.886,-370.686"/>
</g>
<!-- CardAffiliation -->
<g id="node10" class="node"><title>CardAffiliation</title>
<ellipse fill="none" stroke="black" cx="517" cy="-240" rx="64.2154" ry="18"/>
<text text-anchor="middle" x="517" y="-235.8" font-family="Times,serif" font-size="14.00">CardAffiliation</text>
</g>
<!-- Affiliation&#45;&gt;CardAffiliation -->
<g id="edge6" class="edge"><title>Affiliation&#45;&gt;CardAffiliation</title>
<path fill="none" stroke="#9064f7" d="M558.497,-429.945C549.611,-389.483 532.17,-310.072 522.985,-268.249"/>
<ellipse fill="none" stroke="#9064f7" cx="559.375" cy="-433.942" rx="4.00001" ry="4.00001"/>
<polygon fill="#9064f7" stroke="#9064f7" points="522.93,-268 525.18,-257.267 521.857,-263.116 520.785,-258.232 520.785,-258.232 520.785,-258.232 521.857,-263.116 516.389,-259.198 522.93,-268 522.93,-268"/>
</g>
<!-- Article -->
<g id="node6" class="node"><title>Article</title>
<ellipse fill="none" stroke="black" cx="1045" cy="-166" rx="34.4885" ry="18"/>
<text text-anchor="middle" x="1045" y="-161.8" font-family="Times,serif" font-size="14.00">Article</text>
</g>
<!-- ArticleTheme -->
<g id="node7" class="node"><title>ArticleTheme</title>
<ellipse fill="none" stroke="black" cx="1204" cy="-18" rx="59.3187" ry="18"/>
<text text-anchor="middle" x="1204" y="-13.8" font-family="Times,serif" font-size="14.00">ArticleTheme</text>
</g>
<!-- Article&#45;&gt;ArticleTheme -->
<g id="edge9" class="edge"><title>Article&#45;&gt;ArticleTheme</title>
<path fill="none" stroke="#f888d5" d="M1067.42,-144.417C1096.6,-117.616 1147.51,-70.8738 1178.25,-42.6467"/>
<ellipse fill="none" stroke="#f888d5" cx="1064.36" cy="-147.22" rx="4.00002" ry="4.00002"/>
<polygon fill="#f888d5" stroke="#f888d5" points="1178.61,-42.3141 1189.02,-38.8651 1182.29,-38.9323 1185.98,-35.5505 1185.98,-35.5505 1185.98,-35.5505 1182.29,-38.9323 1182.93,-32.2359 1178.61,-42.3141 1178.61,-42.3141"/>
</g>
<!-- Theme -->
<g id="node35" class="node"><title>Theme</title>
<ellipse fill="none" stroke="black" cx="1385" cy="-92" rx="34.4885" ry="18"/>
<text text-anchor="middle" x="1385" y="-87.8" font-family="Times,serif" font-size="14.00">Theme</text>
</g>
<!-- Article&#45;&gt;Theme -->
<g id="edge10" class="edge"><title>Article&#45;&gt;Theme</title>
<path fill="none" stroke="#17f204" d="M1080.95,-150.495C1083.65,-149.593 1086.36,-148.749 1089,-148 1177.24,-122.989 1283.57,-106.425 1341.75,-98.4791"/>
<polygon fill="#17f204" stroke="#17f204" points="1080.68,-150.592 1069.75,-149.707 1075.97,-152.269 1071.26,-153.946 1071.26,-153.946 1071.26,-153.946 1075.97,-152.269 1072.76,-158.185 1080.68,-150.592 1080.68,-150.592"/>
<polygon fill="#17f204" stroke="#17f204" points="1341.78,-98.4748 1352.29,-101.601 1346.73,-97.8079 1351.69,-97.141 1351.69,-97.141 1351.69,-97.141 1346.73,-97.8079 1351.09,-92.6812 1341.78,-98.4748 1341.78,-98.4748"/>
</g>
<!-- Canton -->
<g id="node8" class="node"><title>Canton</title>
<ellipse fill="none" stroke="black" cx="1897" cy="-456" rx="35.4783" ry="18"/>
<text text-anchor="middle" x="1897" y="-451.8" font-family="Times,serif" font-size="14.00">Canton</text>
</g>
<!-- Location -->
<g id="node20" class="node"><title>Location</title>
<ellipse fill="none" stroke="black" cx="1932" cy="-348" rx="41.3072" ry="18"/>
<text text-anchor="middle" x="1932" y="-343.8" font-family="Times,serif" font-size="14.00">Location</text>
</g>
<!-- Canton&#45;&gt;Location -->
<g id="edge13" class="edge"><title>Canton&#45;&gt;Location</title>
<path fill="none" stroke="#ab8af9" d="M1905.17,-430.271C1910.57,-413.914 1917.64,-392.476 1923.18,-375.725"/>
<ellipse fill="none" stroke="#ab8af9" cx="1903.88" cy="-434.171" rx="4.00001" ry="4.00001"/>
<polygon fill="#ab8af9" stroke="#ab8af9" points="1923.26,-375.484 1930.66,-367.399 1924.82,-370.736 1926.39,-365.988 1926.39,-365.988 1926.39,-365.988 1924.82,-370.736 1922.12,-364.578 1923.26,-375.484 1923.26,-375.484"/>
</g>
<!-- Card&#45;&gt;Card -->
<g id="edge25" class="edge"><title>Card&#45;&gt;Card</title>
<path fill="none" stroke="#5e1158" d="M861.35,-352.546C866.525,-351.813 870,-350.297 870,-348 870,-345.703 866.525,-344.187 861.35,-343.454"/>
<polygon fill="#5e1158" stroke="#5e1158" points="861.334,-352.547 851.123,-348.548 856.34,-352.795 851.347,-353.043 851.347,-353.043 851.347,-353.043 856.34,-352.795 851.57,-357.537 861.334,-352.547 861.334,-352.547"/>
<polygon fill="#5e1158" stroke="#5e1158" points="861.334,-343.453 851.57,-338.463 856.34,-343.205 851.347,-342.957 851.347,-342.957 851.347,-342.957 856.34,-343.205 851.123,-347.452 861.334,-343.453 861.334,-343.453"/>
</g>
<!-- Card&#45;&gt;Card -->
<g id="edge26" class="edge"><title>Card&#45;&gt;Card</title>
<path fill="none" stroke="#2fcd0b" d="M859.225,-357.959C874.642,-358.933 888,-355.614 888,-348 888,-340.386 874.642,-337.067 859.225,-338.041"/>
<polygon fill="#2fcd0b" stroke="#2fcd0b" points="858.844,-357.913 849.462,-352.234 853.88,-357.307 848.917,-356.701 848.917,-356.701 848.917,-356.701 853.88,-357.307 848.372,-361.168 858.844,-357.913 858.844,-357.913"/>
<polygon fill="#2fcd0b" stroke="#2fcd0b" points="858.844,-338.087 848.372,-334.832 853.88,-338.693 848.917,-339.299 848.917,-339.299 848.917,-339.299 853.88,-338.693 849.462,-343.766 858.844,-338.087 858.844,-338.087"/>
<text text-anchor="middle" x="908.214" y="-343.8" font-family="Times,serif" font-size="14.00">parents</text>
</g>
<!-- Card&#45;&gt;CardAffiliation -->
<g id="edge19" class="edge"><title>Card&#45;&gt;CardAffiliation</title>
<path fill="none" stroke="#91d6ca" d="M791.541,-339.865C763.562,-333.564 722.761,-323.59 688,-312 642.566,-296.851 592.095,-275.286 557.84,-259.905"/>
<ellipse fill="none" stroke="#91d6ca" cx="795.53" cy="-340.753" rx="4.00001" ry="4.00001"/>
<polygon fill="#91d6ca" stroke="#91d6ca" points="557.739,-259.859 550.479,-251.64 553.182,-257.8 548.626,-255.741 548.626,-255.741 548.626,-255.741 553.182,-257.8 546.773,-259.841 557.739,-259.859 557.739,-259.859"/>
</g>
<!-- CardParent -->
<g id="node11" class="node"><title>CardParent</title>
<ellipse fill="none" stroke="black" cx="967" cy="-240" rx="49.3354" ry="18"/>
<text text-anchor="middle" x="967" y="-235.8" font-family="Times,serif" font-size="14.00">CardParent</text>
</g>
<!-- Card&#45;&gt;CardParent -->
<g id="edge24" class="edge"><title>Card&#45;&gt;CardParent</title>
<path fill="none" stroke="#18391c" d="M856.404,-336.37C871.31,-330.485 888.901,-322.269 903,-312 920.605,-299.177 936.98,-280.842 948.759,-266.016"/>
<ellipse fill="none" stroke="#18391c" cx="852.624" cy="-337.809" rx="4.00001" ry="4.00001"/>
<polygon fill="#18391c" stroke="#18391c" points="949.024,-265.673 958.699,-260.511 952.081,-261.717 955.138,-257.76 955.138,-257.76 955.138,-257.76 952.081,-261.717 951.577,-255.009 949.024,-265.673 949.024,-265.673"/>
</g>
<!-- CardResponsable -->
<g id="node12" class="node"><title>CardResponsable</title>
<ellipse fill="none" stroke="black" cx="1411" cy="-166" rx="71.4972" ry="18"/>
<text text-anchor="middle" x="1411" y="-161.8" font-family="Times,serif" font-size="14.00">CardResponsable</text>
</g>
<!-- Card&#45;&gt;CardResponsable -->
<g id="edge15" class="edge"><title>Card&#45;&gt;CardResponsable</title>
<path fill="none" stroke="#3891b1" d="M845.746,-326.693C850.026,-322.051 854.339,-317.005 858,-312 885.015,-275.068 869.646,-246.956 908,-222 986.735,-170.768 1236.08,-197.779 1329,-184 1335.67,-183.011 1342.61,-181.823 1349.51,-180.54"/>
<ellipse fill="none" stroke="#3891b1" cx="842.755" cy="-329.834" rx="4.00002" ry="4.00002"/>
<polygon fill="#3891b1" stroke="#3891b1" points="1349.73,-180.498 1360.4,-183.024 1354.64,-179.552 1359.54,-178.605 1359.54,-178.605 1359.54,-178.605 1354.64,-179.552 1358.69,-174.187 1349.73,-180.498 1349.73,-180.498"/>
</g>
<!-- CardUser -->
<g id="node14" class="node"><title>CardUser</title>
<ellipse fill="none" stroke="black" cx="813" cy="-166" rx="43.4929" ry="18"/>
<text text-anchor="middle" x="813" y="-161.8" font-family="Times,serif" font-size="14.00">CardUser</text>
</g>
<!-- Card&#45;&gt;CardUser -->
<g id="edge23" class="edge"><title>Card&#45;&gt;CardUser</title>
<path fill="none" stroke="#ad5771" d="M823.294,-321.415C821.054,-287.811 817.136,-229.036 814.834,-194.504"/>
<ellipse fill="none" stroke="#ad5771" cx="823.583" cy="-325.75" rx="4" ry="4"/>
<polygon fill="#ad5771" stroke="#ad5771" points="814.812,-194.185 818.637,-183.908 814.48,-189.196 814.147,-184.207 814.147,-184.207 814.147,-184.207 814.48,-189.196 809.657,-184.506 814.812,-194.185 814.812,-194.185"/>
</g>
<!-- CardVerification -->
<g id="node15" class="node"><title>CardVerification</title>
<ellipse fill="none" stroke="black" cx="500" cy="-166" rx="68.3347" ry="18"/>
<text text-anchor="middle" x="500" y="-161.8" font-family="Times,serif" font-size="14.00">CardVerification</text>
</g>
<!-- Card&#45;&gt;CardVerification -->
<g id="edge17" class="edge"><title>Card&#45;&gt;CardVerification</title>
<path fill="none" stroke="#47b404" d="M803.75,-327.021C788.239,-312.596 766.59,-292.784 747,-276 717.957,-251.116 713.791,-239.913 680,-222 658.461,-210.581 600.878,-193.788 556.586,-181.765"/>
<ellipse fill="none" stroke="#47b404" cx="807.072" cy="-330.12" rx="4.00002" ry="4.00002"/>
<polygon fill="#47b404" stroke="#47b404" points="556.442,-181.726 547.958,-174.779 551.614,-180.425 546.787,-179.124 546.787,-179.124 546.787,-179.124 551.614,-180.425 545.615,-183.469 556.442,-181.726 556.442,-181.726"/>
</g>
<!-- Responsable -->
<g id="node30" class="node"><title>Responsable</title>
<ellipse fill="none" stroke="black" cx="1238" cy="-240" rx="54.2137" ry="18"/>
<text text-anchor="middle" x="1238" y="-235.8" font-family="Times,serif" font-size="14.00">Responsable</text>
</g>
<!-- Card&#45;&gt;Responsable -->
<g id="edge16" class="edge"><title>Card&#45;&gt;Responsable</title>
<path fill="none" stroke="#ee37b3" d="M860.719,-340.383C894.852,-333.865 947.671,-323.272 993,-312 1062.15,-294.803 1141.17,-271.173 1190.33,-255.992"/>
<polygon fill="#ee37b3" stroke="#ee37b3" points="860.58,-340.409 849.917,-337.849 855.667,-341.34 850.755,-342.271 850.755,-342.271 850.755,-342.271 855.667,-341.34 851.592,-346.692 860.58,-340.409 860.58,-340.409"/>
<polygon fill="#ee37b3" stroke="#ee37b3" points="1190.5,-255.939 1201.38,-257.277 1195.28,-254.459 1200.05,-252.979 1200.05,-252.979 1200.05,-252.979 1195.28,-254.459 1198.72,-248.681 1190.5,-255.939 1190.5,-255.939"/>
</g>
<!-- Tag -->
<g id="node33" class="node"><title>Tag</title>
<ellipse fill="none" stroke="black" cx="1100" cy="-240" rx="27" ry="18"/>
<text text-anchor="middle" x="1100" y="-235.8" font-family="Times,serif" font-size="14.00">Tag</text>
</g>
<!-- Card&#45;&gt;Tag -->
<g id="edge21" class="edge"><title>Card&#45;&gt;Tag</title>
<path fill="none" stroke="#b7f7d6" d="M859.111,-337.237C881.227,-330.665 910.553,-321.492 936,-312 983.156,-294.411 1036.4,-270.604 1069.08,-255.522"/>
<polygon fill="#b7f7d6" stroke="#b7f7d6" points="859.09,-337.243 848.227,-335.749 854.294,-338.655 849.497,-340.066 849.497,-340.066 849.497,-340.066 854.294,-338.655 850.767,-344.383 859.09,-337.243 859.09,-337.243"/>
<polygon fill="#b7f7d6" stroke="#b7f7d6" points="1069.47,-255.346 1080.43,-255.221 1074,-253.242 1078.54,-251.138 1078.54,-251.138 1078.54,-251.138 1074,-253.242 1076.64,-247.056 1069.47,-255.346 1069.47,-255.346"/>
</g>
<!-- Tagging -->
<g id="node34" class="node"><title>Tagging</title>
<ellipse fill="none" stroke="black" cx="1137" cy="-166" rx="38.4411" ry="18"/>
<text text-anchor="middle" x="1137" y="-161.8" font-family="Times,serif" font-size="14.00">Tagging</text>
</g>
<!-- Card&#45;&gt;Tagging -->
<g id="edge20" class="edge"><title>Card&#45;&gt;Tagging</title>
<path fill="none" stroke="#3a830f" d="M833.342,-322.549C845.313,-288.088 866.82,-228.661 875,-222 949.565,-161.279 994.954,-208.279 1088,-184 1091.37,-183.121 1094.84,-182.119 1098.3,-181.053"/>
<ellipse fill="none" stroke="#3a830f" cx="831.965" cy="-326.535" rx="4.00001" ry="4.00001"/>
<polygon fill="#3a830f" stroke="#3a830f" points="1098.44,-181.007 1109.34,-182.201 1103.2,-179.464 1107.95,-177.921 1107.95,-177.921 1107.95,-177.921 1103.2,-179.464 1106.56,-173.64 1098.44,-181.007 1098.44,-181.007"/>
</g>
<!-- User -->
<g id="node36" class="node"><title>User</title>
<ellipse fill="none" stroke="black" cx="626" cy="-240" rx="27" ry="18"/>
<text text-anchor="middle" x="626" y="-235.8" font-family="Times,serif" font-size="14.00">User</text>
</g>
<!-- Card&#45;&gt;User -->
<g id="edge18" class="edge"><title>Card&#45;&gt;User</title>
<path fill="none" stroke="#7c0cc8" d="M791.925,-334.526C777.817,-327.925 761.485,-319.627 747,-312 713.91,-294.577 676.465,-274.037 651.94,-259.545"/>
<polygon fill="#7c0cc8" stroke="#7c0cc8" points="792.189,-334.646 799.42,-342.89 796.738,-336.721 801.287,-338.796 801.287,-338.796 801.287,-338.796 796.738,-336.721 803.154,-334.701 792.189,-334.646 792.189,-334.646"/>
<polygon fill="#7c0cc8" stroke="#7c0cc8" points="651.783,-259.451 645.524,-250.447 647.496,-256.878 643.209,-254.305 643.209,-254.305 643.209,-254.305 647.496,-256.878 640.893,-258.164 651.783,-259.451 651.783,-259.451"/>
</g>
<!-- VerificatorComment -->
<g id="node38" class="node"><title>VerificatorComment</title>
<ellipse fill="none" stroke="black" cx="669" cy="-166" rx="81.9719" ry="18"/>
<text text-anchor="middle" x="669" y="-161.8" font-family="Times,serif" font-size="14.00">VerificatorComment</text>
</g>
<!-- Card&#45;&gt;VerificatorComment -->
<g id="edge22" class="edge"><title>Card&#45;&gt;VerificatorComment</title>
<path fill="none" stroke="#d64656" d="M817.647,-322.002C807.158,-290.269 785.073,-235.62 749,-202 741.921,-195.403 733.399,-189.919 724.594,-185.405"/>
<ellipse fill="none" stroke="#d64656" cx="818.964" cy="-326.119" rx="4.00001" ry="4.00001"/>
<polygon fill="#d64656" stroke="#d64656" points="724.405,-185.316 717.285,-176.976 719.884,-183.18 715.363,-181.045 715.363,-181.045 715.363,-181.045 719.884,-183.18 713.441,-185.113 724.405,-185.316 724.405,-185.316"/>
</g>
<!-- CardType -->
<g id="node13" class="node"><title>CardType</title>
<ellipse fill="none" stroke="black" cx="947" cy="-456" rx="44.2773" ry="18"/>
<text text-anchor="middle" x="947" y="-451.8" font-family="Times,serif" font-size="14.00">CardType</text>
</g>
<!-- CardType&#45;&gt;Card -->
<g id="edge31" class="edge"><title>CardType&#45;&gt;Card</title>
<path fill="none" stroke="#fa6eaf" d="M922.786,-433.962C901.18,-415.19 869.748,-387.879 848.395,-369.327"/>
<ellipse fill="none" stroke="#fa6eaf" cx="925.979" cy="-436.736" rx="4.00002" ry="4.00002"/>
<polygon fill="#fa6eaf" stroke="#fa6eaf" points="848.295,-369.24 843.698,-359.284 844.521,-365.961 840.746,-362.681 840.746,-362.681 840.746,-362.681 844.521,-365.961 837.795,-366.078 848.295,-369.24 848.295,-369.24"/>
</g>
<!-- Connection -->
<g id="node16" class="node"><title>Connection</title>
<ellipse fill="none" stroke="black" cx="363" cy="-166" rx="50.3188" ry="18"/>
<text text-anchor="middle" x="363" y="-161.8" font-family="Times,serif" font-size="14.00">Connection</text>
</g>
<!-- Disponibility -->
<g id="node17" class="node"><title>Disponibility</title>
<ellipse fill="none" stroke="black" cx="1710" cy="-240" rx="56.1805" ry="18"/>
<text text-anchor="middle" x="1710" y="-235.8" font-family="Times,serif" font-size="14.00">Disponibility</text>
</g>
<!-- Orator -->
<g id="node21" class="node"><title>Orator</title>
<ellipse fill="none" stroke="black" cx="1648" cy="-166" rx="33.2811" ry="18"/>
<text text-anchor="middle" x="1648" y="-161.8" font-family="Times,serif" font-size="14.00">Orator</text>
</g>
<!-- Disponibility&#45;&gt;Orator -->
<g id="edge37" class="edge"><title>Disponibility&#45;&gt;Orator</title>
<path fill="none" stroke="#60766f" d="M1688.97,-214.58C1682.29,-206.82 1674.91,-198.256 1668.29,-190.558"/>
<polygon fill="#60766f" stroke="#60766f" points="1689.09,-214.723 1692.21,-225.237 1692.36,-218.512 1695.62,-222.301 1695.62,-222.301 1695.62,-222.301 1692.36,-218.512 1699.03,-219.364 1689.09,-214.723 1689.09,-214.723"/>
<polygon fill="#60766f" stroke="#60766f" points="1667.98,-190.201 1664.86,-179.687 1664.72,-186.412 1661.45,-182.623 1661.45,-182.623 1661.45,-182.623 1664.72,-186.412 1658.04,-185.559 1667.98,-190.201 1667.98,-190.201"/>
</g>
<!-- OratorDisponibility -->
<g id="node22" class="node"><title>OratorDisponibility</title>
<ellipse fill="none" stroke="black" cx="1725" cy="-92" rx="79.2995" ry="18"/>
<text text-anchor="middle" x="1725" y="-87.8" font-family="Times,serif" font-size="14.00">OratorDisponibility</text>
</g>
<!-- Disponibility&#45;&gt;OratorDisponibility -->
<g id="edge36" class="edge"><title>Disponibility&#45;&gt;OratorDisponibility</title>
<path fill="none" stroke="#e5a5bf" d="M1712.59,-213.8C1715.26,-187.827 1719.41,-147.449 1722.16,-120.622"/>
<ellipse fill="none" stroke="#e5a5bf" cx="1712.16" cy="-217.987" rx="4" ry="4"/>
<polygon fill="#e5a5bf" stroke="#e5a5bf" points="1722.19,-120.325 1727.69,-110.838 1722.7,-115.352 1723.21,-110.378 1723.21,-110.378 1723.21,-110.378 1722.7,-115.352 1718.74,-109.918 1722.19,-120.325 1722.19,-120.325"/>
</g>
<!-- Document -->
<g id="node18" class="node"><title>Document</title>
<ellipse fill="none" stroke="black" cx="1496" cy="-92" rx="46.4174" ry="18"/>
<text text-anchor="middle" x="1496" y="-87.8" font-family="Times,serif" font-size="14.00">Document</text>
</g>
<!-- Element -->
<g id="node19" class="node"><title>Element</title>
<ellipse fill="none" stroke="black" cx="122" cy="-294" rx="39.3599" ry="18"/>
<text text-anchor="middle" x="122" y="-289.8" font-family="Times,serif" font-size="14.00">Element</text>
</g>
<!-- Element&#45;&gt;Ownership -->
<g id="edge40" class="edge"><title>Element&#45;&gt;Ownership</title>
<path fill="none" stroke="#1459fc" d="M127.333,-268.113C131.906,-246.774 138.481,-216.089 143.187,-194.127"/>
<ellipse fill="none" stroke="#1459fc" cx="126.479" cy="-272.096" rx="4.00001" ry="4.00001"/>
<polygon fill="#1459fc" stroke="#1459fc" points="143.235,-193.904 149.73,-185.069 144.282,-189.015 145.33,-184.126 145.33,-184.126 145.33,-184.126 144.282,-189.015 140.93,-183.183 143.235,-193.904 143.235,-193.904"/>
</g>
<!-- Orator&#45;&gt;OratorDisponibility -->
<g id="edge45" class="edge"><title>Orator&#45;&gt;OratorDisponibility</title>
<path fill="none" stroke="#940b0c" d="M1669.86,-144.557C1679.18,-135.845 1690.11,-125.628 1699.76,-116.598"/>
<ellipse fill="none" stroke="#940b0c" cx="1666.88" cy="-147.35" rx="4.00002" ry="4.00002"/>
<polygon fill="#940b0c" stroke="#940b0c" points="1699.88,-116.491 1710.26,-112.948 1703.53,-113.076 1707.18,-109.661 1707.18,-109.661 1707.18,-109.661 1703.53,-113.076 1704.11,-106.374 1699.88,-116.491 1699.88,-116.491"/>
</g>
<!-- OratorTheme -->
<g id="node23" class="node"><title>OratorTheme</title>
<ellipse fill="none" stroke="black" cx="1617" cy="-18" rx="57.6091" ry="18"/>
<text text-anchor="middle" x="1617" y="-13.8" font-family="Times,serif" font-size="14.00">OratorTheme</text>
</g>
<!-- Orator&#45;&gt;OratorTheme -->
<g id="edge43" class="edge"><title>Orator&#45;&gt;OratorTheme</title>
<path fill="none" stroke="#1b48b5" d="M1642.46,-139.846C1640.41,-130.48 1638.08,-119.758 1636,-110 1631.41,-88.4936 1626.32,-64.1009 1622.57,-45.9873"/>
<ellipse fill="none" stroke="#1b48b5" cx="1643.32" cy="-143.762" rx="4.00001" ry="4.00001"/>
<polygon fill="#1b48b5" stroke="#1b48b5" points="1622.55,-45.9096 1624.93,-35.2052 1621.54,-41.0133 1620.53,-36.117 1620.53,-36.117 1620.53,-36.117 1621.54,-41.0133 1616.12,-37.0289 1622.55,-45.9096 1622.55,-45.9096"/>
</g>
<!-- Orator&#45;&gt;Theme -->
<g id="edge44" class="edge"><title>Orator&#45;&gt;Theme</title>
<path fill="none" stroke="#d03328" d="M1609.26,-154.5C1581.62,-147.034 1543.55,-136.81 1510,-128 1478.93,-119.84 1470.91,-118.746 1440,-110 1434.59,-108.469 1428.9,-106.791 1423.32,-105.103"/>
<polygon fill="#d03328" stroke="#d03328" points="1609.29,-154.508 1617.77,-161.462 1614.12,-155.813 1618.95,-157.118 1618.95,-157.118 1618.95,-157.118 1614.12,-155.813 1620.12,-152.773 1609.29,-154.508 1609.29,-154.508"/>
<polygon fill="#d03328" stroke="#d03328" points="1423.03,-105.014 1414.79,-97.7823 1418.25,-103.549 1413.47,-102.085 1413.47,-102.085 1413.47,-102.085 1418.25,-103.549 1412.15,-106.388 1423.03,-105.014 1423.03,-105.014"/>
</g>
<!-- Ownership&#45;&gt;AccessToken -->
<g id="edge50" class="edge"><title>Ownership&#45;&gt;AccessToken</title>
<path fill="none" stroke="#31bce1" d="M192.709,-151.533C197.509,-150.25 202.342,-149.042 207,-148 307.249,-125.576 425.575,-109.099 496.33,-100.29"/>
<ellipse fill="none" stroke="#31bce1" cx="188.556" cy="-152.68" rx="4.00001" ry="4.00001"/>
<polygon fill="#31bce1" stroke="#31bce1" points="496.492,-100.27 506.967,-103.513 501.454,-99.6585 506.416,-99.0465 506.416,-99.0465 506.416,-99.0465 501.454,-99.6585 505.866,-94.5803 496.492,-100.27 496.492,-100.27"/>
</g>
<!-- Ownership&#45;&gt;OwnershipAction -->
<g id="edge49" class="edge"><title>Ownership&#45;&gt;OwnershipAction</title>
<path fill="none" stroke="#74ed18" d="M125.764,-143.273C116.759,-134.852 106.424,-125.188 97.2366,-116.598"/>
<ellipse fill="none" stroke="#74ed18" cx="128.989" cy="-146.289" rx="4.00002" ry="4.00002"/>
<polygon fill="#74ed18" stroke="#74ed18" points="97.148,-116.515 92.9172,-106.398 93.4959,-113.1 89.8437,-109.685 89.8437,-109.685 89.8437,-109.685 93.4959,-113.1 86.7703,-112.972 97.148,-116.515 97.148,-116.515"/>
</g>
<!-- OwnershipType -->
<g id="node26" class="node"><title>OwnershipType</title>
<ellipse fill="none" stroke="black" cx="181" cy="-402" rx="66.2001" ry="18"/>
<text text-anchor="middle" x="181" y="-397.8" font-family="Times,serif" font-size="14.00">OwnershipType</text>
</g>
<!-- OwnershipType&#45;&gt;Ownership -->
<g id="edge53" class="edge"><title>OwnershipType&#45;&gt;Ownership</title>
<path fill="none" stroke="#a97631" d="M178.576,-375.457C174.793,-337.474 166.789,-263.927 156,-202 155.553,-199.436 155.065,-196.771 154.56,-194.108"/>
<ellipse fill="none" stroke="#a97631" cx="179.012" cy="-379.901" rx="4" ry="4"/>
<polygon fill="#a97631" stroke="#a97631" points="154.514,-193.871 157.005,-183.192 153.551,-188.964 152.589,-184.058 152.589,-184.058 152.589,-184.058 153.551,-188.964 148.173,-184.924 154.514,-193.871 154.514,-193.871"/>
</g>
<!-- Page -->
<g id="node27" class="node"><title>Page</title>
<ellipse fill="none" stroke="black" cx="2016" cy="-456" rx="26.9483" ry="18"/>
<text text-anchor="middle" x="2016" y="-451.8" font-family="Times,serif" font-size="14.00">Page</text>
</g>
<!-- Parent -->
<g id="node28" class="node"><title>Parent</title>
<ellipse fill="none" stroke="black" cx="960" cy="-166" rx="32.5477" ry="18"/>
<text text-anchor="middle" x="960" y="-161.8" font-family="Times,serif" font-size="14.00">Parent</text>
</g>
<!-- Permission -->
<g id="node29" class="node"><title>Permission</title>
<polygon fill="none" stroke="black" points="2139.17,-474 2060.83,-474 2060.83,-438 2139.17,-438 2139.17,-474"/>
<text text-anchor="middle" x="2100" y="-451.8" font-family="Times,serif" font-size="14.00">Permission</text>
</g>
<!-- Responsable&#45;&gt;CardResponsable -->
<g id="edge58" class="edge"><title>Responsable&#45;&gt;CardResponsable</title>
<path fill="none" stroke="#1dfa24" d="M1278.19,-222.275C1304.56,-211.298 1339.09,-196.93 1366.32,-185.594"/>
<ellipse fill="none" stroke="#1dfa24" cx="1274.23" cy="-223.92" rx="4.00001" ry="4.00001"/>
<polygon fill="#1dfa24" stroke="#1dfa24" points="1366.4,-185.563 1377.36,-185.875 1371.01,-183.642 1375.63,-181.721 1375.63,-181.721 1375.63,-181.721 1371.01,-183.642 1373.9,-177.566 1366.4,-185.563 1366.4,-185.563"/>
</g>
<!-- Subject -->
<g id="node31" class="node"><title>Subject</title>
<ellipse fill="none" stroke="black" cx="1284" cy="-166" rx="36.4487" ry="18"/>
<text text-anchor="middle" x="1284" y="-161.8" font-family="Times,serif" font-size="14.00">Subject</text>
</g>
<!-- Subject&#45;&gt;Document -->
<g id="edge60" class="edge"><title>Subject&#45;&gt;Document</title>
<path fill="none" stroke="#23b7bf" d="M1319.71,-151.667C1323.18,-150.412 1326.66,-149.172 1330,-148 1370.9,-133.672 1417.79,-118.224 1451.29,-107.358"/>
<ellipse fill="none" stroke="#23b7bf" cx="1315.92" cy="-153.049" rx="4.00001" ry="4.00001"/>
<polygon fill="#23b7bf" stroke="#23b7bf" points="1451.71,-107.22 1462.61,-108.421 1456.47,-105.68 1461.23,-104.14 1461.23,-104.14 1461.23,-104.14 1456.47,-105.68 1459.84,-99.8586 1451.71,-107.22 1451.71,-107.22"/>
</g>
<!-- SubjectTheme -->
<g id="node32" class="node"><title>SubjectTheme</title>
<ellipse fill="none" stroke="black" cx="1385" cy="-18" rx="61.2787" ry="18"/>
<text text-anchor="middle" x="1385" y="-13.8" font-family="Times,serif" font-size="14.00">SubjectTheme</text>
</g>
<!-- Subject&#45;&gt;SubjectTheme -->
<g id="edge61" class="edge"><title>Subject&#45;&gt;SubjectTheme</title>
<path fill="none" stroke="#c1c4cc" d="M1297.68,-141.538C1308.8,-122.872 1325.19,-96.2795 1341,-74 1348.22,-63.8188 1356.69,-53.0108 1364.25,-43.6951"/>
<ellipse fill="none" stroke="#c1c4cc" cx="1295.58" cy="-145.082" rx="4.00002" ry="4.00002"/>
<polygon fill="#c1c4cc" stroke="#c1c4cc" points="1364.26,-43.6762 1374.08,-38.8009 1367.43,-39.8111 1370.61,-35.9461 1370.61,-35.9461 1370.61,-35.9461 1367.43,-39.8111 1367.13,-33.0913 1364.26,-43.6762 1364.26,-43.6762"/>
</g>
<!-- Subject&#45;&gt;Theme -->
<g id="edge62" class="edge"><title>Subject&#45;&gt;Theme</title>
<path fill="none" stroke="#898aac" d="M1312.37,-144.773C1326.39,-134.782 1343.24,-122.77 1357.18,-112.833"/>
<polygon fill="#898aac" stroke="#898aac" points="1312.1,-144.97 1301.34,-147.111 1308.03,-147.873 1303.95,-150.775 1303.95,-150.775 1303.95,-150.775 1308.03,-147.873 1306.57,-154.439 1312.1,-144.97 1312.1,-144.97"/>
<polygon fill="#898aac" stroke="#898aac" points="1357.29,-112.755 1368.04,-110.615 1361.36,-109.853 1365.43,-106.95 1365.43,-106.95 1365.43,-106.95 1361.36,-109.853 1362.82,-103.286 1357.29,-112.755 1357.29,-112.755"/>
</g>
<!-- Tag&#45;&gt;Tagging -->
<g id="edge65" class="edge"><title>Tag&#45;&gt;Tagging</title>
<path fill="none" stroke="#719687" d="M1112.1,-215.462C1115.83,-208.186 1119.97,-200.136 1123.78,-192.72"/>
<ellipse fill="none" stroke="#719687" cx="1110.22" cy="-219.104" rx="4.00002" ry="4.00002"/>
<polygon fill="#719687" stroke="#719687" points="1123.81,-192.667 1132.38,-185.83 1126.1,-188.22 1128.38,-183.773 1128.38,-183.773 1128.38,-183.773 1126.1,-188.22 1124.38,-181.716 1123.81,-192.667 1123.81,-192.667"/>
</g>
<!-- Theme&#45;&gt;ArticleTheme -->
<g id="edge69" class="edge"><title>Theme&#45;&gt;ArticleTheme</title>
<path fill="none" stroke="#9ff53d" d="M1350.48,-77.267C1321.36,-65.6838 1279.51,-49.0362 1247.99,-36.4993"/>
<ellipse fill="none" stroke="#9ff53d" cx="1354.58" cy="-78.8976" rx="4.00001" ry="4.00001"/>
<polygon fill="#9ff53d" stroke="#9ff53d" points="1247.86,-36.4469 1240.23,-28.5693 1243.21,-34.5988 1238.57,-32.7506 1238.57,-32.7506 1238.57,-32.7506 1243.21,-34.5988 1236.9,-36.9319 1247.86,-36.4469 1247.86,-36.4469"/>
</g>
<!-- Theme&#45;&gt;OratorTheme -->
<g id="edge68" class="edge"><title>Theme&#45;&gt;OratorTheme</title>
<path fill="none" stroke="#51be05" d="M1421.78,-79.5846C1461.32,-67.315 1524.36,-47.7509 1568.06,-34.1886"/>
<ellipse fill="none" stroke="#51be05" cx="1417.73" cy="-80.8411" rx="4.00001" ry="4.00001"/>
<polygon fill="#51be05" stroke="#51be05" points="1568.07,-34.1842 1578.96,-35.518 1572.85,-32.7022 1577.62,-31.2202 1577.62,-31.2202 1577.62,-31.2202 1572.85,-32.7022 1576.29,-26.9224 1568.07,-34.1842 1568.07,-34.1842"/>
</g>
<!-- Theme&#45;&gt;SubjectTheme -->
<g id="edge70" class="edge"><title>Theme&#45;&gt;SubjectTheme</title>
<path fill="none" stroke="#f0caa3" d="M1385,-65.7923C1385,-59.5805 1385,-52.8963 1385,-46.5786"/>
<ellipse fill="none" stroke="#f0caa3" cx="1385" cy="-69.937" rx="4" ry="4"/>
<polygon fill="#f0caa3" stroke="#f0caa3" points="1385,-46.4407 1389.5,-36.4406 1385,-41.4407 1385,-36.4407 1385,-36.4407 1385,-36.4407 1385,-41.4407 1380.5,-36.4407 1385,-46.4407 1385,-46.4407"/>
</g>
<!-- User&#45;&gt;Activity -->
<g id="edge78" class="edge"><title>User&#45;&gt;Activity</title>
<path fill="none" stroke="#3cacd1" d="M597.826,-224.705C595.219,-223.686 592.586,-222.762 590,-222 466.573,-185.65 428.102,-214.086 303,-184 299.82,-183.235 296.556,-182.336 293.299,-181.358"/>
<ellipse fill="none" stroke="#3cacd1" cx="601.812" cy="-226.409" rx="4.00002" ry="4.00002"/>
<polygon fill="#3cacd1" stroke="#3cacd1" points="293.158,-181.313 285.024,-173.958 288.4,-179.776 283.642,-178.24 283.642,-178.24 283.642,-178.24 288.4,-179.776 282.259,-182.523 293.158,-181.313 293.158,-181.313"/>
</g>
<!-- User&#45;&gt;Article -->
<g id="edge81" class="edge"><title>User&#45;&gt;Article</title>
<path fill="none" stroke="#ba5ad9" d="M659.458,-231.865C698.713,-223.7 765.834,-210.377 824,-202 902.265,-190.728 924.101,-202.413 1001,-184 1003.84,-183.321 1006.74,-182.501 1009.63,-181.594"/>
<ellipse fill="none" stroke="#ba5ad9" cx="655.433" cy="-232.707" rx="4.00001" ry="4.00001"/>
<polygon fill="#ba5ad9" stroke="#ba5ad9" points="1009.86,-181.514 1020.78,-182.498 1014.58,-179.88 1019.31,-178.245 1019.31,-178.245 1019.31,-178.245 1014.58,-179.88 1017.84,-173.992 1009.86,-181.514 1009.86,-181.514"/>
</g>
<!-- User&#45;&gt;Card -->
<g id="edge73" class="edge"><title>User&#45;&gt;Card</title>
<path fill="none" stroke="#f421ac" d="M655.839,-253.981C684.181,-268.383 727.402,-292.203 765,-312 775.92,-317.75 787.889,-323.88 798.331,-329.378"/>
<ellipse fill="none" stroke="#f421ac" cx="652.187" cy="-252.149" rx="4.00002" ry="4.00002"/>
<polygon fill="#f421ac" stroke="#f421ac" points="798.593,-329.517 805.302,-338.191 803.006,-331.869 807.418,-334.22 807.418,-334.22 807.418,-334.22 803.006,-331.869 809.535,-330.248 798.593,-329.517 798.593,-329.517"/>
</g>
<!-- User&#45;&gt;CardUser -->
<g id="edge79" class="edge"><title>User&#45;&gt;CardUser</title>
<path fill="none" stroke="#f455d5" d="M643.447,-217.228C649.105,-211.46 655.797,-205.79 663,-202 701.802,-181.58 717.483,-194.718 760,-184 763.584,-183.097 767.28,-182.084 770.975,-181.014"/>
<ellipse fill="none" stroke="#f455d5" cx="640.444" cy="-220.497" rx="4.00002" ry="4.00002"/>
<polygon fill="#f455d5" stroke="#f455d5" points="771.101,-180.976 781.975,-182.395 775.888,-179.531 780.675,-178.087 780.675,-178.087 780.675,-178.087 775.888,-179.531 779.374,-173.779 771.101,-180.976 771.101,-180.976"/>
</g>
<!-- User&#45;&gt;CardVerification -->
<g id="edge72" class="edge"><title>User&#45;&gt;CardVerification</title>
<path fill="none" stroke="#df211b" d="M598.926,-223.529C580.604,-213.06 556.193,-199.111 536.205,-187.689"/>
<ellipse fill="none" stroke="#df211b" cx="602.562" cy="-225.607" rx="4.00002" ry="4.00002"/>
<polygon fill="#df211b" stroke="#df211b" points="536.053,-187.602 529.603,-178.733 531.712,-185.121 527.37,-182.64 527.37,-182.64 527.37,-182.64 531.712,-185.121 525.138,-186.547 536.053,-187.602 536.053,-187.602"/>
</g>
<!-- User&#45;&gt;Connection -->
<g id="edge82" class="edge"><title>User&#45;&gt;Connection</title>
<path fill="none" stroke="#5987a5" d="M597.746,-224.956C595.156,-223.883 592.549,-222.878 590,-222 517.623,-197.062 496.145,-203.05 422,-184 418.161,-183.014 414.192,-181.955 410.212,-180.866"/>
<ellipse fill="none" stroke="#5987a5" cx="601.722" cy="-226.708" rx="4.00002" ry="4.00002"/>
<polygon fill="#5987a5" stroke="#5987a5" points="409.997,-180.806 401.573,-173.786 405.18,-179.463 400.364,-178.12 400.364,-178.12 400.364,-178.12 405.18,-179.463 399.156,-182.455 409.997,-180.806 409.997,-180.806"/>
</g>
<!-- User&#45;&gt;Orator -->
<g id="edge80" class="edge"><title>User&#45;&gt;Orator</title>
<path fill="none" stroke="#6aaa7d" d="M661.18,-236.856C812.907,-227.596 1407.4,-191.18 1491,-184 1530.74,-180.586 1576.03,-175.562 1607.71,-171.86"/>
<ellipse fill="none" stroke="#6aaa7d" cx="657.048" cy="-237.108" rx="4" ry="4"/>
<ellipse fill="#6aaa7d" stroke="#6aaa7d" cx="1611.89" cy="-171.368" rx="4.00001" ry="4.00001"/>
</g>
<!-- User&#45;&gt;Ownership -->
<g id="edge74" class="edge"><title>User&#45;&gt;Ownership</title>
<path fill="none" stroke="#b8a15f" d="M597.852,-224.613C595.24,-223.614 592.598,-222.719 590,-222 507.57,-199.184 290.957,-200.321 207,-184 202.828,-183.189 198.525,-182.209 194.236,-181.134"/>
<ellipse fill="none" stroke="#b8a15f" cx="601.841" cy="-226.301" rx="4.00001" ry="4.00001"/>
<polygon fill="#b8a15f" stroke="#b8a15f" points="193.985,-181.067 185.484,-174.14 189.154,-179.778 184.323,-178.488 184.323,-178.488 184.323,-178.488 189.154,-179.778 183.163,-182.836 193.985,-181.067 193.985,-181.067"/>
</g>
<!-- User&#45;&gt;Parent -->
<g id="edge75" class="edge"><title>User&#45;&gt;Parent</title>
<path fill="none" stroke="#45b13e" d="M658.51,-230.286C688.41,-222.411 734.033,-210.748 774,-202 801.156,-196.056 873.669,-182.679 919.719,-174.292"/>
<ellipse fill="none" stroke="#45b13e" cx="654.379" cy="-231.378" rx="4.00001" ry="4.00001"/>
<polygon fill="#45b13e" stroke="#45b13e" points="919.844,-174.27 930.487,-176.907 924.763,-173.375 929.682,-172.48 929.682,-172.48 929.682,-172.48 924.763,-173.375 928.877,-168.053 919.844,-174.27 919.844,-174.27"/>
</g>
<!-- User&#45;&gt;Subject -->
<g id="edge83" class="edge"><title>User&#45;&gt;Subject</title>
<path fill="none" stroke="#0c5233" d="M660.709,-235.901C766.148,-226.436 1081.73,-197.716 1184,-184 1202.68,-181.495 1223.21,-178.115 1240.79,-175.028"/>
<ellipse fill="none" stroke="#0c5233" cx="656.598" cy="-236.27" rx="4" ry="4"/>
<polygon fill="#0c5233" stroke="#0c5233" points="1240.91,-175.005 1251.54,-177.683 1245.83,-174.129 1250.76,-173.253 1250.76,-173.253 1250.76,-173.253 1245.83,-174.129 1249.97,-168.822 1240.91,-175.005 1240.91,-175.005"/>
</g>
<!-- User&#45;&gt;User -->
<g id="edge76" class="edge"><title>User&#45;&gt;User</title>
<path fill="none" stroke="#c4f7c5" d="M661.488,-246.212C667.136,-245.301 671,-243.23 671,-240 671,-236.77 667.136,-234.699 661.488,-233.788"/>
<polygon fill="#c4f7c5" stroke="#c4f7c5" points="661.432,-246.215 651.229,-242.196 656.438,-246.453 651.443,-246.691 651.443,-246.691 651.443,-246.691 656.438,-246.453 651.658,-251.186 661.432,-246.215 661.432,-246.215"/>
<polygon fill="#c4f7c5" stroke="#c4f7c5" points="661.432,-233.785 651.658,-228.814 656.438,-233.547 651.443,-233.309 651.443,-233.309 651.443,-233.309 656.438,-233.547 651.229,-237.804 661.432,-233.785 661.432,-233.785"/>
</g>
<!-- User&#45;&gt;VerificatorComment -->
<g id="edge77" class="edge"><title>User&#45;&gt;VerificatorComment</title>
<path fill="none" stroke="#6505c1" d="M632.346,-214.553C633.905,-210.236 635.78,-205.884 638,-202 640.027,-198.454 642.454,-194.95 645.046,-191.609"/>
<ellipse fill="none" stroke="#6505c1" cx="631.107" cy="-218.373" rx="4.00001" ry="4.00001"/>
<polygon fill="#6505c1" stroke="#6505c1" points="645.258,-191.358 655.139,-186.603 648.477,-187.532 651.696,-183.706 651.696,-183.706 651.696,-183.706 648.477,-187.532 648.252,-180.809 645.258,-191.358 645.258,-191.358"/>
</g>
<!-- UserType -->
<g id="node37" class="node"><title>UserType</title>
<ellipse fill="none" stroke="black" cx="683" cy="-402" rx="44.038" ry="18"/>
<text text-anchor="middle" x="683" y="-397.8" font-family="Times,serif" font-size="14.00">UserType</text>
</g>
<!-- UserType&#45;&gt;User -->
<g id="edge85" class="edge"><title>UserType&#45;&gt;User</title>
<path fill="none" stroke="#b4b5c1" d="M674.121,-376.077C663.607,-346.565 646.171,-297.62 635.424,-267.455"/>
<ellipse fill="none" stroke="#b4b5c1" cx="675.558" cy="-380.109" rx="4.00001" ry="4.00001"/>
<polygon fill="#b4b5c1" stroke="#b4b5c1" points="635.412,-267.42 636.295,-256.49 633.734,-262.71 632.056,-258 632.056,-258 632.056,-258 633.734,-262.71 627.817,-259.51 635.412,-267.42 635.412,-267.42"/>
</g>
<!-- ActiveRecord::Base -->
<g id="node39" class="node"><title>ActiveRecord::Base</title>
<ellipse fill="none" stroke="black" cx="1083" cy="-549" rx="80.9821" ry="18"/>
<text text-anchor="middle" x="1083" y="-544.8" font-family="Times,serif" font-size="14.00">ActiveRecord::Base</text>
</g>
<!-- ActiveRecord::Base&#45;&gt;AccessToken -->
<g id="edge1" class="edge"><title>ActiveRecord::Base&#45;&gt;AccessToken</title>
<path fill="none" stroke="black" d="M1082.18,-530.921C1078.96,-470.739 1065.32,-269.592 1025,-222 992.381,-183.493 963.017,-206.808 918,-184 892.599,-171.13 891.367,-158.754 865,-148 781.909,-114.112 677.687,-101.043 614.822,-96.0447"/>
</g>
<!-- ActiveRecord::Base&#45;&gt;Action -->
<g id="edge4" class="edge"><title>ActiveRecord::Base&#45;&gt;Action</title>
<path fill="none" stroke="black" d="M1051.42,-532.311C1034.29,-524.628 1012.48,-516.155 992,-512 897.173,-492.76 196.583,-535.642 122,-474 56.7818,-420.098 69.9757,-302.072 77.6175,-258.024"/>
</g>
<!-- ActiveRecord::Base&#45;&gt;Activity -->
<g id="edge5" class="edge"><title>ActiveRecord::Base&#45;&gt;Activity</title>
<path fill="none" stroke="black" d="M1051.4,-532.38C1034.27,-524.717 1012.46,-516.241 992,-512 869.647,-486.641 553.873,-510.391 430,-494 370.447,-486.12 300,-517.072 300,-457 300,-457 300,-457 300,-293 300,-251.654 278.244,-206.889 264.987,-183.448"/>
</g>
<!-- ActiveRecord::Base&#45;&gt;Affiliation -->
<g id="edge8" class="edge"><title>ActiveRecord::Base&#45;&gt;Affiliation</title>
<path fill="none" stroke="black" d="M1050.96,-532.335C1033.88,-524.76 1012.26,-516.379 992,-512 912.189,-494.75 703.076,-517.905 625,-494 610.077,-489.431 595.067,-480.396 583.67,-472.399"/>
</g>
<!-- ActiveRecord::Base&#45;&gt;Article -->
<g id="edge11" class="edge"><title>ActiveRecord::Base&#45;&gt;Article</title>
<path fill="none" stroke="black" d="M1161.57,-544.36C1238.07,-538.973 1346.57,-525.806 1373,-494 1388.91,-474.858 1375.16,-462.795 1373,-438 1364.52,-340.895 1404.64,-290.201 1335,-222 1295.48,-183.297 1142.44,-198.273 1089,-184 1082.99,-182.394 1076.67,-180.243 1070.75,-178.013"/>
</g>
<!-- ActiveRecord::Base&#45;&gt;ArticleTheme -->
<g id="edge12" class="edge"><title>ActiveRecord::Base&#45;&gt;ArticleTheme</title>
<path fill="none" stroke="black" d="M1107.38,-531.578C1128.26,-515.344 1155,-488.427 1155,-457 1155,-457 1155,-457 1155,-293 1155,-242.87 1174.52,-233.224 1184,-184 1194.26,-130.731 1200.24,-66.7154 1202.69,-36.4654"/>
</g>
<!-- ActiveRecord::Base&#45;&gt;Canton -->
<g id="edge14" class="edge"><title>ActiveRecord::Base&#45;&gt;Canton</title>
<path fill="none" stroke="black" d="M1164.19,-547.962C1334.51,-546.961 1723.59,-539.582 1847,-494 1859.76,-489.286 1872.08,-480.249 1881.29,-472.286"/>
</g>
<!-- ActiveRecord::Base&#45;&gt;Card -->
<g id="edge27" class="edge"><title>ActiveRecord::Base&#45;&gt;Card</title>
<path fill="none" stroke="black" d="M1045.4,-533.026C1029.01,-526.525 1009.57,-518.848 992,-512 948.087,-494.887 928.447,-505.06 893,-474 858.811,-444.043 838.64,-392.574 829.998,-365.992"/>
</g>
<!-- ActiveRecord::Base&#45;&gt;CardAffiliation -->
<g id="edge28" class="edge"><title>ActiveRecord::Base&#45;&gt;CardAffiliation</title>
<path fill="none" stroke="black" d="M1050.96,-532.325C1033.88,-524.748 1012.26,-516.367 992,-512 939.268,-500.635 542.497,-515.471 508,-474 455.189,-410.511 492.261,-300.25 509.5,-258.076"/>
</g>
<!-- ActiveRecord::Base&#45;&gt;CardParent -->
<g id="edge29" class="edge"><title>ActiveRecord::Base&#45;&gt;CardParent</title>
<path fill="none" stroke="black" d="M1076.43,-530.615C1056.01,-476.579 993.816,-311.969 973.497,-258.195"/>
</g>
<!-- ActiveRecord::Base&#45;&gt;CardResponsable -->
<g id="edge30" class="edge"><title>ActiveRecord::Base&#45;&gt;CardResponsable</title>
<path fill="none" stroke="black" d="M1162.86,-545.396C1276.96,-539.466 1473,-520.096 1473,-457 1473,-457 1473,-457 1473,-239 1473,-215.411 1453.65,-195.709 1436.58,-182.913"/>
</g>
<!-- ActiveRecord::Base&#45;&gt;CardType -->
<g id="edge32" class="edge"><title>ActiveRecord::Base&#45;&gt;CardType</title>
<path fill="none" stroke="black" d="M1058.69,-531.731C1033.32,-514.758 993.89,-488.375 969.301,-471.922"/>
</g>
<!-- ActiveRecord::Base&#45;&gt;CardUser -->
<g id="edge33" class="edge"><title>ActiveRecord::Base&#45;&gt;CardUser</title>
<path fill="none" stroke="black" d="M1047.55,-532.626C1030.89,-525.751 1010.63,-517.888 992,-512 934.196,-493.73 909.547,-510.308 861,-474 789.667,-420.651 770.577,-396.699 743,-312 726.99,-262.827 770.676,-209.001 796.139,-182.926"/>
</g>
<!-- ActiveRecord::Base&#45;&gt;CardVerification -->
<g id="edge34" class="edge"><title>ActiveRecord::Base&#45;&gt;CardVerification</title>
<path fill="none" stroke="black" d="M1050.98,-532.243C1033.9,-524.644 1012.28,-516.268 992,-512 925.947,-498.102 387,-524.499 387,-457 387,-457 387,-457 387,-239 387,-206.899 419.836,-188.484 450.108,-178.329"/>
</g>
<!-- ActiveRecord::Base&#45;&gt;Connection -->
<g id="edge35" class="edge"><title>ActiveRecord::Base&#45;&gt;Connection</title>
<path fill="none" stroke="black" d="M1051.4,-532.403C1034.26,-524.747 1012.46,-516.27 992,-512 921.807,-497.35 349,-528.705 349,-457 349,-457 349,-457 349,-293 349,-253.823 355.768,-208.211 359.893,-184.053"/>
</g>
<!-- ActiveRecord::Base&#45;&gt;Disponibility -->
<g id="edge38" class="edge"><title>ActiveRecord::Base&#45;&gt;Disponibility</title>
<path fill="none" stroke="black" d="M1162.33,-545.2C1307.25,-539.377 1603.24,-523.941 1639,-494 1711.58,-433.234 1713.15,-304.758 1711.14,-258.258"/>
</g>
<!-- ActiveRecord::Base&#45;&gt;Document -->
<g id="edge39" class="edge"><title>ActiveRecord::Base&#45;&gt;Document</title>
<path fill="none" stroke="black" d="M1164.17,-548.55C1297.68,-547.241 1549,-534.485 1549,-457 1549,-457 1549,-457 1549,-165 1549,-142.028 1531.29,-121.553 1516.34,-108.366"/>
</g>
<!-- ActiveRecord::Base&#45;&gt;Element -->
<g id="edge41" class="edge"><title>ActiveRecord::Base&#45;&gt;Element</title>
<path fill="none" stroke="black" d="M1051.42,-532.314C1034.29,-524.632 1012.48,-516.159 992,-512 828.838,-478.863 406.098,-527.447 243,-494 178.251,-480.722 144.85,-478.456 114,-420 95.6292,-385.19 107.235,-337.117 115.612,-311.937"/>
</g>
<!-- ActiveRecord::Base&#45;&gt;Location -->
<g id="edge42" class="edge"><title>ActiveRecord::Base&#45;&gt;Location</title>
<path fill="none" stroke="black" d="M1163.95,-547.323C1306.41,-545.039 1610.8,-535.271 1864,-494 1898.9,-488.312 1919.37,-501.968 1941,-474 1965.36,-442.505 1950.29,-392.163 1939.72,-366.013"/>
</g>
<!-- ActiveRecord::Base&#45;&gt;Orator -->
<g id="edge46" class="edge"><title>ActiveRecord::Base&#45;&gt;Orator</title>
<path fill="none" stroke="black" d="M1164.23,-547.922C1291.25,-546.422 1529.73,-537.659 1601,-494 1617.71,-483.761 1625,-476.601 1625,-457 1625,-457 1625,-457 1625,-239 1625,-219.317 1632.9,-197.98 1639.44,-183.686"/>
</g>
<!-- ActiveRecord::Base&#45;&gt;OratorDisponibility -->
<g id="edge47" class="edge"><title>ActiveRecord::Base&#45;&gt;OratorDisponibility</title>
<path fill="none" stroke="black" d="M1163.29,-546.004C1349.5,-540.308 1795,-520.087 1795,-457 1795,-457 1795,-457 1795,-165 1795,-140.593 1774.06,-121.348 1755.09,-108.918"/>
</g>
<!-- ActiveRecord::Base&#45;&gt;OratorTheme -->
<g id="edge48" class="edge"><title>ActiveRecord::Base&#45;&gt;OratorTheme</title>
<path fill="none" stroke="black" d="M1163.62,-546.533C1357.33,-541.939 1833,-523.852 1833,-457 1833,-457 1833,-457 1833,-91 1833,-56.5608 1732.93,-35.6468 1669.01,-25.8016"/>
</g>
<!-- ActiveRecord::Base&#45;&gt;Ownership -->
<g id="edge51" class="edge"><title>ActiveRecord::Base&#45;&gt;Ownership</title>
<path fill="none" stroke="black" d="M1051.41,-532.337C1034.28,-524.662 1012.47,-516.187 992,-512 845.643,-482.066 462.833,-537.763 320,-494 290.765,-485.043 262,-487.576 262,-457 262,-457 262,-457 262,-239 262,-219.518 213.624,-194.707 180.177,-179.88"/>
</g>
<!-- ActiveRecord::Base&#45;&gt;OwnershipAction -->
<g id="edge52" class="edge"><title>ActiveRecord::Base&#45;&gt;OwnershipAction</title>
<path fill="none" stroke="black" d="M1051.42,-532.297C1034.29,-524.61 1012.48,-516.138 992,-512 813.343,-475.909 352.737,-517.558 172,-494 102.627,-484.958 19,-526.96 19,-457 19,-457 19,-457 19,-165 19,-142.649 35.7695,-122.662 50.4429,-109.451"/>
</g>
<!-- ActiveRecord::Base&#45;&gt;OwnershipType -->
<g id="edge54" class="edge"><title>ActiveRecord::Base&#45;&gt;OwnershipType</title>
<path fill="none" stroke="black" d="M1051.42,-532.315C1034.29,-524.634 1012.48,-516.161 992,-512 951.482,-503.768 284.67,-513.099 248,-494 217.724,-478.231 197.652,-441.858 187.9,-420.175"/>
</g>
<!-- ActiveRecord::Base&#45;&gt;Page -->
<g id="edge55" class="edge"><title>ActiveRecord::Base&#45;&gt;Page</title>
<path fill="none" stroke="black" d="M1163.36,-546.163C1368.63,-541.043 1901.32,-524.916 1975,-494 1986.14,-489.325 1996.25,-480.289 2003.64,-472.317"/>
</g>
<!-- ActiveRecord::Base&#45;&gt;Parent -->
<g id="edge56" class="edge"><title>ActiveRecord::Base&#45;&gt;Parent</title>
<path fill="none" stroke="black" d="M1144.29,-537.074C1214.81,-522.719 1321,-494.822 1321,-457 1321,-457 1321,-457 1321,-293 1321,-260.216 1325.84,-243.397 1301,-222 1250.09,-178.141 1065.95,-201.245 1001,-184 995.34,-182.497 989.427,-180.388 983.91,-178.166"/>
</g>
<!-- ActiveRecord::Base&#45;&gt;Responsable -->
<g id="edge59" class="edge"><title>ActiveRecord::Base&#45;&gt;Responsable</title>
<path fill="none" stroke="black" d="M1119.36,-532.859C1136.71,-523.919 1156.4,-510.992 1169,-494 1224.6,-419.037 1235.4,-301.896 1237.5,-258.197"/>
</g>
<!-- ActiveRecord::Base&#45;&gt;Subject -->
<g id="edge63" class="edge"><title>ActiveRecord::Base&#45;&gt;Subject</title>
<path fill="none" stroke="black" d="M1160.68,-543.484C1264.34,-535.29 1435,-513.256 1435,-457 1435,-457 1435,-457 1435,-293 1435,-260.052 1349.18,-205.168 1306.93,-180.15"/>
</g>
<!-- ActiveRecord::Base&#45;&gt;SubjectTheme -->
<g id="edge64" class="edge"><title>ActiveRecord::Base&#45;&gt;SubjectTheme</title>
<path fill="none" stroke="black" d="M1161.37,-544.111C1273.96,-537.624 1475.28,-522.414 1542,-494 1565.82,-483.854 1587,-482.892 1587,-457 1587,-457 1587,-457 1587,-202 1587,-142.904 1591.82,-116.733 1551,-74 1522.69,-44.3628 1478.07,-30.6885 1442.22,-24.3832"/>
</g>
<!-- ActiveRecord::Base&#45;&gt;Tag -->
<g id="edge66" class="edge"><title>ActiveRecord::Base&#45;&gt;Tag</title>
<path fill="none" stroke="black" d="M1083.96,-530.615C1086.95,-476.579 1096.07,-311.969 1099.05,-258.195"/>
</g>
<!-- ActiveRecord::Base&#45;&gt;Tagging -->
<g id="edge67" class="edge"><title>ActiveRecord::Base&#45;&gt;Tagging</title>
<path fill="none" stroke="black" d="M1158.27,-542.142C1224.28,-535.256 1313.06,-521.14 1335,-494 1411,-399.989 1389.38,-329.965 1335,-222 1328.28,-208.663 1321.64,-208.086 1308,-202 1295.75,-196.536 1218.7,-181.896 1172.3,-173.381"/>
</g>
<!-- ActiveRecord::Base&#45;&gt;Theme -->
<g id="edge71" class="edge"><title>ActiveRecord::Base&#45;&gt;Theme</title>
<path fill="none" stroke="black" d="M1163.75,-547.091C1287.79,-543.479 1511,-527.222 1511,-457 1511,-457 1511,-457 1511,-202 1511,-176.407 1507.94,-167.183 1491,-148 1470.55,-124.846 1438,-110.013 1414.36,-101.658"/>
</g>
<!-- ActiveRecord::Base&#45;&gt;User -->
<g id="edge84" class="edge"><title>ActiveRecord::Base&#45;&gt;User</title>
<path fill="none" stroke="black" d="M1050.5,-532.297C1033.48,-524.812 1012.05,-516.522 992,-512 875.111,-485.645 837.717,-528.606 723,-494 705.847,-488.826 702.026,-485.147 688,-474 662.393,-453.65 650.946,-450.037 638,-420 614.207,-364.797 619.469,-291.091 623.5,-258.157"/>
</g>
<!-- ActiveRecord::Base&#45;&gt;UserType -->
<g id="edge86" class="edge"><title>ActiveRecord::Base&#45;&gt;UserType</title>
<path fill="none" stroke="black" d="M1050.5,-532.308C1033.48,-524.825 1012.05,-516.534 992,-512 934.645,-499.03 776.868,-526.707 728,-494 702.661,-477.041 691.019,-441.445 686.133,-420.146"/>
</g>
<!-- ActiveRecord::Base&#45;&gt;VerificatorComment -->
<g id="edge87" class="edge"><title>ActiveRecord::Base&#45;&gt;VerificatorComment</title>
<path fill="none" stroke="black" d="M1050.97,-532.273C1033.89,-524.682 1012.28,-516.304 992,-512 930.084,-498.856 425,-520.296 425,-457 425,-457 425,-457 425,-293 425,-260.334 420.652,-244.846 444,-222 455.892,-210.364 546.445,-190.786 608.983,-178.398"/>
</g>
<!-- Object -->
<g id="node40" class="node"><title>Object</title>
<ellipse fill="none" stroke="black" cx="2100" cy="-549" rx="33.5181" ry="18"/>
<text text-anchor="middle" x="2100" y="-544.8" font-family="Times,serif" font-size="14.00">Object</text>
</g>
<!-- Object&#45;&gt;Permission -->
<g id="edge57" class="edge"><title>Object&#45;&gt;Permission</title>
<path fill="none" stroke="black" d="M2100,-530.884C2100,-514.614 2100,-490.284 2100,-474.04"/>
</g>
</g>
</svg>
