<?xml version="1.0" encoding="UTF-8" standalone="no"?>
<!DOCTYPE svg PUBLIC "-//W3C//DTD SVG 1.1//EN"
 "http://www.w3.org/Graphics/SVG/1.1/DTD/svg11.dtd">
<!-- Generated by graphviz version 2.36.0 (20140111.2315)
 -->
<!-- Title: models_diagram Pages: 1 -->
<svg width="2012pt" height="514pt"
 viewBox="0.00 0.00 2012.00 514.00" xmlns="http://www.w3.org/2000/svg" xmlns:xlink="http://www.w3.org/1999/xlink">
<g id="graph0" class="graph" transform="scale(1 1) rotate(0) translate(4 510)">
<title>models_diagram</title>
<polygon fill="white" stroke="none" points="-4,4 -4,-510 2008,-510 2008,4 -4,4"/>
<!-- _diagram_info -->
<g id="node1" class="node"><title>_diagram_info</title>
<text text-anchor="start" x="617.312" y="-491.1" font-family="Times,serif" font-size="13.00">Models diagram</text>
<text text-anchor="start" x="617.312" y="-478.1" font-family="Times,serif" font-size="13.00">Date: Mar 16 2014 &#45; 19:47</text>
<text text-anchor="start" x="617.312" y="-465.1" font-family="Times,serif" font-size="13.00">Migration version: 20140312164922</text>
<text text-anchor="start" x="617.312" y="-452.1" font-family="Times,serif" font-size="13.00">Generated by RailRoady 1.1.1</text>
<text text-anchor="start" x="617.312" y="-439.1" font-family="Times,serif" font-size="13.00">http://railroady.prestonlee.com</text>
</g>
<!-- AccessToken -->
<g id="node2" class="node"><title>AccessToken</title>
<ellipse fill="none" stroke="black" cx="227" cy="-90" rx="57.19" ry="18"/>
<text text-anchor="middle" x="227" y="-85.8" font-family="Times,serif" font-size="14.00">AccessToken</text>
</g>
<!-- Action -->
<g id="node3" class="node"><title>Action</title>
<ellipse fill="none" stroke="black" cx="72" cy="-234" rx="34.2643" ry="18"/>
<text text-anchor="middle" x="72" y="-229.8" font-family="Times,serif" font-size="14.00">Action</text>
</g>
<!-- Ownership -->
<g id="node20" class="node"><title>Ownership</title>
<ellipse fill="none" stroke="black" cx="157" cy="-162" rx="48.3713" ry="18"/>
<text text-anchor="middle" x="157" y="-157.8" font-family="Times,serif" font-size="14.00">Ownership</text>
</g>
<!-- Action&#45;&gt;Ownership -->
<g id="edge3" class="edge"><title>Action&#45;&gt;Ownership</title>
<path fill="none" stroke="#8a56aa" d="M97.6972,-211.838C107.91,-203.427 119.665,-193.746 130.003,-185.233"/>
<polygon fill="#8a56aa" stroke="#8a56aa" points="97.3314,-212.139 86.7514,-215.022 93.4717,-215.317 89.6121,-218.496 89.6121,-218.496 89.6121,-218.496 93.4717,-215.317 92.4728,-221.97 97.3314,-212.139 97.3314,-212.139"/>
<polygon fill="#8a56aa" stroke="#8a56aa" points="130.213,-185.06 140.793,-182.176 134.073,-181.881 137.933,-178.703 137.933,-178.703 137.933,-178.703 134.073,-181.881 135.072,-175.229 130.213,-185.06 130.213,-185.06"/>
</g>
<!-- OwnershipAction -->
<g id="node21" class="node"><title>OwnershipAction</title>
<ellipse fill="none" stroke="black" cx="72" cy="-90" rx="72.4741" ry="18"/>
<text text-anchor="middle" x="72" y="-85.8" font-family="Times,serif" font-size="14.00">OwnershipAction</text>
</g>
<!-- Action&#45;&gt;OwnershipAction -->
<g id="edge2" class="edge"><title>Action&#45;&gt;OwnershipAction</title>
<path fill="none" stroke="#0858b3" d="M72,-207.558C72,-182.444 72,-144.164 72,-118.393"/>
<ellipse fill="none" stroke="#0858b3" cx="72" cy="-211.871" rx="4" ry="4"/>
<polygon fill="#0858b3" stroke="#0858b3" points="72.0001,-118.189 76.5,-108.189 72,-113.189 72,-108.189 72,-108.189 72,-108.189 72,-113.189 67.5,-108.189 72.0001,-118.189 72.0001,-118.189"/>
</g>
<!-- Activity -->
<g id="node4" class="node"><title>Activity</title>
<ellipse fill="none" stroke="black" cx="301" cy="-162" rx="39.135" ry="18"/>
<text text-anchor="middle" x="301" y="-157.8" font-family="Times,serif" font-size="14.00">Activity</text>
</g>
<!-- Affiliation -->
<g id="node5" class="node"><title>Affiliation</title>
<ellipse fill="none" stroke="black" cx="916" cy="-378" rx="46.4303" ry="18"/>
<text text-anchor="middle" x="916" y="-373.8" font-family="Times,serif" font-size="14.00">Affiliation</text>
</g>
<!-- Card -->
<g id="node8" class="node"><title>Card</title>
<ellipse fill="none" stroke="black" cx="800" cy="-306" rx="26.9483" ry="18"/>
<text text-anchor="middle" x="800" y="-301.8" font-family="Times,serif" font-size="14.00">Card</text>
</g>
<!-- Affiliation&#45;&gt;Card -->
<g id="edge7" class="edge"><title>Affiliation&#45;&gt;Card</title>
<path fill="none" stroke="#90a857" d="M883.215,-357.216C865.844,-346.733 844.726,-333.99 828.11,-323.963"/>
<polygon fill="#90a857" stroke="#90a857" points="883.403,-357.329 889.64,-366.349 887.684,-359.913 891.965,-362.496 891.965,-362.496 891.965,-362.496 887.684,-359.913 894.29,-358.643 883.403,-357.329 883.403,-357.329"/>
<polygon fill="#90a857" stroke="#90a857" points="827.957,-323.871 821.72,-314.851 823.676,-321.287 819.395,-318.704 819.395,-318.704 819.395,-318.704 823.676,-321.287 817.07,-322.557 827.957,-323.871 827.957,-323.871"/>
</g>
<!-- CardAffiliation -->
<g id="node9" class="node"><title>CardAffiliation</title>
<ellipse fill="none" stroke="black" cx="1058" cy="-234" rx="64.2154" ry="18"/>
<text text-anchor="middle" x="1058" y="-229.8" font-family="Times,serif" font-size="14.00">CardAffiliation</text>
</g>
<!-- Affiliation&#45;&gt;CardAffiliation -->
<g id="edge6" class="edge"><title>Affiliation&#45;&gt;CardAffiliation</title>
<path fill="none" stroke="#b49a00" d="M937.766,-355.234C963.837,-329.163 1007.35,-285.648 1034.27,-258.734"/>
<ellipse fill="none" stroke="#b49a00" cx="934.842" cy="-358.158" rx="4.00002" ry="4.00002"/>
<polygon fill="#b49a00" stroke="#b49a00" points="1034.32,-258.683 1044.57,-254.794 1037.85,-255.147 1041.39,-251.612 1041.39,-251.612 1041.39,-251.612 1037.85,-255.147 1038.21,-248.43 1034.32,-258.683 1034.32,-258.683"/>
</g>
<!-- Article -->
<g id="node6" class="node"><title>Article</title>
<ellipse fill="none" stroke="black" cx="393" cy="-162" rx="34.4885" ry="18"/>
<text text-anchor="middle" x="393" y="-157.8" font-family="Times,serif" font-size="14.00">Article</text>
</g>
<!-- Canton -->
<g id="node7" class="node"><title>Canton</title>
<ellipse fill="none" stroke="black" cx="1762" cy="-378" rx="35.4783" ry="18"/>
<text text-anchor="middle" x="1762" y="-373.8" font-family="Times,serif" font-size="14.00">Canton</text>
</g>
<!-- Location -->
<g id="node16" class="node"><title>Location</title>
<ellipse fill="none" stroke="black" cx="1818" cy="-306" rx="41.3072" ry="18"/>
<text text-anchor="middle" x="1818" y="-301.8" font-family="Times,serif" font-size="14.00">Location</text>
</g>
<!-- Canton&#45;&gt;Location -->
<g id="edge10" class="edge"><title>Canton&#45;&gt;Location</title>
<path fill="none" stroke="#29aee7" d="M1779.84,-354.7C1785.83,-347.214 1792.54,-338.831 1798.64,-331.206"/>
<ellipse fill="none" stroke="#29aee7" cx="1777.21" cy="-357.992" rx="4.00002" ry="4.00002"/>
<polygon fill="#29aee7" stroke="#29aee7" points="1798.71,-331.116 1808.47,-326.118 1801.83,-327.211 1804.95,-323.307 1804.95,-323.307 1804.95,-323.307 1801.83,-327.211 1801.44,-320.496 1798.71,-331.116 1798.71,-331.116"/>
</g>
<!-- Card&#45;&gt;Card -->
<g id="edge21" class="edge"><title>Card&#45;&gt;Card</title>
<path fill="none" stroke="#26deb8" d="M828.098,-319.5C837.485,-319.509 845,-315.009 845,-306 845,-296.991 837.485,-292.491 828.098,-292.5"/>
<ellipse fill="none" stroke="#26deb8" cx="823.862" cy="-318.949" rx="4.00001" ry="4.00001"/>
<ellipse fill="#26deb8" stroke="#26deb8" cx="823.862" cy="-293.051" rx="4.00001" ry="4.00001"/>
</g>
<!-- Card&#45;&gt;CardAffiliation -->
<g id="edge16" class="edge"><title>Card&#45;&gt;CardAffiliation</title>
<path fill="none" stroke="#216ff9" d="M832.572,-296.163C875.643,-284.477 952.129,-263.725 1003.93,-249.669"/>
<ellipse fill="none" stroke="#216ff9" cx="828.599" cy="-297.241" rx="4.00001" ry="4.00001"/>
<polygon fill="#216ff9" stroke="#216ff9" points="1003.98,-249.658 1014.81,-251.382 1008.8,-248.348 1013.63,-247.039 1013.63,-247.039 1013.63,-247.039 1008.8,-248.348 1012.45,-242.696 1003.98,-249.658 1003.98,-249.658"/>
</g>
<!-- CardResponsable -->
<g id="node10" class="node"><title>CardResponsable</title>
<ellipse fill="none" stroke="black" cx="1045" cy="-162" rx="71.4972" ry="18"/>
<text text-anchor="middle" x="1045" y="-157.8" font-family="Times,serif" font-size="14.00">CardResponsable</text>
</g>
<!-- Card&#45;&gt;CardResponsable -->
<g id="edge12" class="edge"><title>Card&#45;&gt;CardResponsable</title>
<path fill="none" stroke="#6c84f3" d="M800.148,-279.61C801.66,-259.632 807.034,-232.498 824,-216 829.807,-210.354 919.1,-190.143 982.383,-176.376"/>
<ellipse fill="none" stroke="#6c84f3" cx="799.928" cy="-283.688" rx="4" ry="4"/>
<polygon fill="#6c84f3" stroke="#6c84f3" points="982.527,-176.345 993.254,-178.623 987.413,-175.285 992.3,-174.225 992.3,-174.225 992.3,-174.225 987.413,-175.285 991.346,-169.828 982.527,-176.345 982.527,-176.345"/>
</g>
<!-- CardUser -->
<g id="node12" class="node"><title>CardUser</title>
<ellipse fill="none" stroke="black" cx="490" cy="-162" rx="43.4929" ry="18"/>
<text text-anchor="middle" x="490" y="-157.8" font-family="Times,serif" font-size="14.00">CardUser</text>
</g>
<!-- Card&#45;&gt;CardUser -->
<g id="edge20" class="edge"><title>Card&#45;&gt;CardUser</title>
<path fill="none" stroke="#f14aa9" d="M770.652,-291.557C714.056,-265.632 589.916,-208.768 527.457,-180.158"/>
<ellipse fill="none" stroke="#f14aa9" cx="774.565" cy="-293.349" rx="4.00002" ry="4.00002"/>
<polygon fill="#f14aa9" stroke="#f14aa9" points="527.435,-180.148 520.217,-171.892 522.889,-178.065 518.343,-175.983 518.343,-175.983 518.343,-175.983 522.889,-178.065 516.469,-180.074 527.435,-180.148 527.435,-180.148"/>
</g>
<!-- CardVerification -->
<g id="node13" class="node"><title>CardVerification</title>
<ellipse fill="none" stroke="black" cx="704" cy="-162" rx="68.3347" ry="18"/>
<text text-anchor="middle" x="704" y="-157.8" font-family="Times,serif" font-size="14.00">CardVerification</text>
</g>
<!-- Card&#45;&gt;CardVerification -->
<g id="edge14" class="edge"><title>Card&#45;&gt;CardVerification</title>
<path fill="none" stroke="#e1a718" d="M784.779,-282.485C767.507,-256.937 739.394,-215.354 721.304,-188.595"/>
<ellipse fill="none" stroke="#e1a718" cx="787.119" cy="-285.947" rx="4.00002" ry="4.00002"/>
<polygon fill="#e1a718" stroke="#e1a718" points="721.184,-188.417 719.311,-177.613 718.383,-184.275 715.583,-180.133 715.583,-180.133 715.583,-180.133 718.383,-184.275 711.855,-182.653 721.184,-188.417 721.184,-188.417"/>
</g>
<!-- Responsable -->
<g id="node27" class="node"><title>Responsable</title>
<ellipse fill="none" stroke="black" cx="921" cy="-234" rx="54.2137" ry="18"/>
<text text-anchor="middle" x="921" y="-229.8" font-family="Times,serif" font-size="14.00">Responsable</text>
</g>
<!-- Card&#45;&gt;Responsable -->
<g id="edge13" class="edge"><title>Card&#45;&gt;Responsable</title>
<path fill="none" stroke="#862790" d="M828.443,-288.545C845.669,-278.58 867.771,-265.794 886.056,-255.215"/>
<polygon fill="#862790" stroke="#862790" points="828.366,-288.59 817.457,-289.702 824.038,-291.094 819.71,-293.597 819.71,-293.597 819.71,-293.597 824.038,-291.094 821.963,-297.493 828.366,-288.59 828.366,-288.59"/>
<polygon fill="#862790" stroke="#862790" points="886.299,-255.075 897.209,-253.962 890.627,-252.571 894.955,-250.067 894.955,-250.067 894.955,-250.067 890.627,-252.571 892.702,-246.172 886.299,-255.075 886.299,-255.075"/>
</g>
<!-- Tag -->
<g id="node30" class="node"><title>Tag</title>
<ellipse fill="none" stroke="black" cx="1205" cy="-234" rx="27" ry="18"/>
<text text-anchor="middle" x="1205" y="-229.8" font-family="Times,serif" font-size="14.00">Tag</text>
</g>
<!-- Card&#45;&gt;Tag -->
<g id="edge18" class="edge"><title>Card&#45;&gt;Tag</title>
<path fill="none" stroke="#0c56f6" d="M836.189,-300.016C897.209,-291.431 1024.35,-272.765 1131,-252 1143.84,-249.5 1157.84,-246.385 1170.18,-243.506"/>
<polygon fill="#0c56f6" stroke="#0c56f6" points="836.183,-300.017 825.656,-296.947 831.232,-300.71 826.28,-301.403 826.28,-301.403 826.28,-301.403 831.232,-300.71 826.904,-305.86 836.183,-300.017 836.183,-300.017"/>
<polygon fill="#0c56f6" stroke="#0c56f6" points="1170.35,-243.464 1181.12,-245.542 1175.22,-242.313 1180.08,-241.162 1180.08,-241.162 1180.08,-241.162 1175.22,-242.313 1179.05,-236.783 1170.35,-243.464 1170.35,-243.464"/>
</g>
<!-- Tagging -->
<g id="node31" class="node"><title>Tagging</title>
<ellipse fill="none" stroke="black" cx="1205" cy="-162" rx="38.4411" ry="18"/>
<text text-anchor="middle" x="1205" y="-157.8" font-family="Times,serif" font-size="14.00">Tagging</text>
</g>
<!-- Card&#45;&gt;Tagging -->
<g id="edge17" class="edge"><title>Card&#45;&gt;Tagging</title>
<path fill="none" stroke="#1ad7f2" d="M812.243,-281.228C824.868,-257.68 844.433,-224.008 857,-216 958.352,-151.415 1006.58,-200.505 1125,-180 1136.79,-177.958 1149.5,-175.417 1161.23,-172.927"/>
<ellipse fill="none" stroke="#1ad7f2" cx="810.278" cy="-284.937" rx="4.00002" ry="4.00002"/>
<polygon fill="#1ad7f2" stroke="#1ad7f2" points="1161.47,-172.876 1172.19,-175.165 1166.36,-171.821 1171.24,-170.767 1171.24,-170.767 1171.24,-170.767 1166.36,-171.821 1170.3,-166.368 1161.47,-172.876 1161.47,-172.876"/>
</g>
<!-- User -->
<g id="node33" class="node"><title>User</title>
<ellipse fill="none" stroke="black" cx="499" cy="-234" rx="27" ry="18"/>
<text text-anchor="middle" x="499" y="-229.8" font-family="Times,serif" font-size="14.00">User</text>
</g>
<!-- Card&#45;&gt;User -->
<g id="edge15" class="edge"><title>Card&#45;&gt;User</title>
<path fill="none" stroke="#2b204b" d="M764.295,-297.702C705.81,-284.822 590.753,-258.094 533.237,-244.058"/>
<polygon fill="#2b204b" stroke="#2b204b" points="764.621,-297.773 773.428,-304.306 769.505,-298.841 774.39,-299.909 774.39,-299.909 774.39,-299.909 769.505,-298.841 775.351,-295.513 764.621,-297.773 764.621,-297.773"/>
<polygon fill="#2b204b" stroke="#2b204b" points="533.235,-244.058 524.597,-237.302 528.379,-242.865 523.524,-241.673 523.524,-241.673 523.524,-241.673 528.379,-242.865 522.45,-246.043 533.235,-244.058 533.235,-244.058"/>
</g>
<!-- VerificatorComment -->
<g id="node35" class="node"><title>VerificatorComment</title>
<ellipse fill="none" stroke="black" cx="873" cy="-162" rx="81.9719" ry="18"/>
<text text-anchor="middle" x="873" y="-157.8" font-family="Times,serif" font-size="14.00">VerificatorComment</text>
</g>
<!-- Card&#45;&gt;VerificatorComment -->
<g id="edge19" class="edge"><title>Card&#45;&gt;VerificatorComment</title>
<path fill="none" stroke="#e3a48d" d="M788.423,-281.238C781.027,-262.416 774.739,-236.046 786,-216 794.178,-201.443 808.155,-190.414 822.543,-182.292"/>
<ellipse fill="none" stroke="#e3a48d" cx="790.058" cy="-285.116" rx="4.00002" ry="4.00002"/>
<polygon fill="#e3a48d" stroke="#e3a48d" points="822.645,-182.239 833.592,-181.592 827.076,-179.922 831.507,-177.605 831.507,-177.605 831.507,-177.605 827.076,-179.922 829.421,-173.617 822.645,-182.239 822.645,-182.239"/>
</g>
<!-- CardType -->
<g id="node11" class="node"><title>CardType</title>
<ellipse fill="none" stroke="black" cx="768" cy="-378" rx="44.2773" ry="18"/>
<text text-anchor="middle" x="768" y="-373.8" font-family="Times,serif" font-size="14.00">CardType</text>
</g>
<!-- CardType&#45;&gt;Card -->
<g id="edge25" class="edge"><title>CardType&#45;&gt;Card</title>
<path fill="none" stroke="#882af4" d="M779.102,-352.714C781.965,-346.451 785.06,-339.68 787.969,-333.318"/>
<ellipse fill="none" stroke="#882af4" cx="777.409" cy="-356.417" rx="4.00002" ry="4.00002"/>
<polygon fill="#882af4" stroke="#882af4" points="788.167,-332.884 796.418,-325.66 790.246,-328.336 792.325,-323.789 792.325,-323.789 792.325,-323.789 790.246,-328.336 788.232,-321.918 788.167,-332.884 788.167,-332.884"/>
</g>
<!-- Disponibility -->
<g id="node14" class="node"><title>Disponibility</title>
<ellipse fill="none" stroke="black" cx="1383" cy="-234" rx="56.1805" ry="18"/>
<text text-anchor="middle" x="1383" y="-229.8" font-family="Times,serif" font-size="14.00">Disponibility</text>
</g>
<!-- Orator -->
<g id="node17" class="node"><title>Orator</title>
<ellipse fill="none" stroke="black" cx="1444" cy="-162" rx="33.2811" ry="18"/>
<text text-anchor="middle" x="1444" y="-157.8" font-family="Times,serif" font-size="14.00">Orator</text>
</g>
<!-- Disponibility&#45;&gt;Orator -->
<g id="edge30" class="edge"><title>Disponibility&#45;&gt;Orator</title>
<path fill="none" stroke="#c4ac04" d="M1404.16,-208.723C1410.43,-201.52 1417.29,-193.646 1423.53,-186.493"/>
<polygon fill="#c4ac04" stroke="#c4ac04" points="1404.03,-208.872 1394.06,-213.455 1400.74,-212.641 1397.46,-216.411 1397.46,-216.411 1397.46,-216.411 1400.74,-212.641 1400.85,-219.367 1404.03,-208.872 1404.03,-208.872"/>
<polygon fill="#c4ac04" stroke="#c4ac04" points="1423.91,-186.05 1433.88,-181.467 1427.2,-182.28 1430.48,-178.511 1430.48,-178.511 1430.48,-178.511 1427.2,-182.28 1427.09,-175.554 1423.91,-186.05 1423.91,-186.05"/>
</g>
<!-- OratorDisponibility -->
<g id="node18" class="node"><title>OratorDisponibility</title>
<ellipse fill="none" stroke="black" cx="1348" cy="-90" rx="79.2995" ry="18"/>
<text text-anchor="middle" x="1348" y="-85.8" font-family="Times,serif" font-size="14.00">OratorDisponibility</text>
</g>
<!-- Disponibility&#45;&gt;OratorDisponibility -->
<g id="edge29" class="edge"><title>Disponibility&#45;&gt;OratorDisponibility</title>
<path fill="none" stroke="#9c09cd" d="M1376.82,-207.929C1370.61,-182.725 1361.06,-143.994 1354.68,-118.095"/>
<ellipse fill="none" stroke="#9c09cd" cx="1377.82" cy="-211.988" rx="4.00001" ry="4.00001"/>
<polygon fill="#9c09cd" stroke="#9c09cd" points="1354.63,-117.899 1356.61,-107.112 1353.43,-113.044 1352.24,-108.189 1352.24,-108.189 1352.24,-108.189 1353.43,-113.044 1347.87,-109.266 1354.63,-117.899 1354.63,-117.899"/>
</g>
<!-- Element -->
<g id="node15" class="node"><title>Element</title>
<ellipse fill="none" stroke="black" cx="240" cy="-306" rx="39.3599" ry="18"/>
<text text-anchor="middle" x="240" y="-301.8" font-family="Times,serif" font-size="14.00">Element</text>
</g>
<!-- Element&#45;&gt;Ownership -->
<g id="edge32" class="edge"><title>Element&#45;&gt;Ownership</title>
<path fill="none" stroke="#25cd94" d="M226.104,-281.226C211.113,-255.579 187.329,-214.888 171.943,-188.565"/>
<ellipse fill="none" stroke="#25cd94" cx="228.298" cy="-284.98" rx="4.00002" ry="4.00002"/>
<polygon fill="#25cd94" stroke="#25cd94" points="171.926,-188.535 170.764,-177.631 169.402,-184.218 166.879,-179.902 166.879,-179.902 166.879,-179.902 169.402,-184.218 162.994,-182.173 171.926,-188.535 171.926,-188.535"/>
</g>
<!-- Orator&#45;&gt;OratorDisponibility -->
<g id="edge37" class="edge"><title>Orator&#45;&gt;OratorDisponibility</title>
<path fill="none" stroke="#8e9f75" d="M1418.49,-142.397C1406.28,-133.496 1391.57,-122.768 1378.75,-113.42"/>
<ellipse fill="none" stroke="#8e9f75" cx="1421.8" cy="-144.814" rx="4.00002" ry="4.00002"/>
<polygon fill="#8e9f75" stroke="#8e9f75" points="1378.72,-113.402 1373.29,-103.874 1374.68,-110.456 1370.64,-107.51 1370.64,-107.51 1370.64,-107.51 1374.68,-110.456 1367.99,-111.146 1378.72,-113.402 1378.72,-113.402"/>
</g>
<!-- OratorTheme -->
<g id="node19" class="node"><title>OratorTheme</title>
<ellipse fill="none" stroke="black" cx="1519" cy="-18" rx="57.6091" ry="18"/>
<text text-anchor="middle" x="1519" y="-13.8" font-family="Times,serif" font-size="14.00">OratorTheme</text>
</g>
<!-- Orator&#45;&gt;OratorTheme -->
<g id="edge35" class="edge"><title>Orator&#45;&gt;OratorTheme</title>
<path fill="none" stroke="#a5597d" d="M1450.15,-135.893C1455.26,-117.48 1463.56,-92.2626 1475,-72 1480.76,-61.7947 1488.56,-51.6359 1495.99,-42.9836"/>
<ellipse fill="none" stroke="#a5597d" cx="1449.06" cy="-139.968" rx="4.00001" ry="4.00001"/>
<polygon fill="#a5597d" stroke="#a5597d" points="1496,-42.9756 1506.01,-38.4934 1499.32,-39.2393 1502.64,-35.503 1502.64,-35.503 1502.64,-35.503 1499.32,-39.2393 1499.28,-32.5125 1496,-42.9756 1496,-42.9756"/>
</g>
<!-- Theme -->
<g id="node32" class="node"><title>Theme</title>
<ellipse fill="none" stroke="black" cx="1519" cy="-90" rx="34.4885" ry="18"/>
<text text-anchor="middle" x="1519" y="-85.8" font-family="Times,serif" font-size="14.00">Theme</text>
</g>
<!-- Orator&#45;&gt;Theme -->
<g id="edge36" class="edge"><title>Orator&#45;&gt;Theme</title>
<path fill="none" stroke="#ca6404" d="M1467.48,-139.09C1476.37,-130.786 1486.5,-121.334 1495.41,-113.021"/>
<polygon fill="#ca6404" stroke="#ca6404" points="1467.22,-139.332 1456.84,-142.865 1463.56,-142.743 1459.91,-146.155 1459.91,-146.155 1459.91,-146.155 1463.56,-142.743 1462.98,-149.445 1467.22,-139.332 1467.22,-139.332"/>
<polygon fill="#ca6404" stroke="#ca6404" points="1495.55,-112.888 1505.93,-109.355 1499.2,-109.477 1502.86,-106.065 1502.86,-106.065 1502.86,-106.065 1499.2,-109.477 1499.79,-102.775 1495.55,-112.888 1495.55,-112.888"/>
</g>
<!-- Ownership&#45;&gt;AccessToken -->
<g id="edge42" class="edge"><title>Ownership&#45;&gt;AccessToken</title>
<path fill="none" stroke="#d8ed11" d="M178.981,-139.019C186.592,-131.408 195.159,-122.841 202.929,-115.071"/>
<ellipse fill="none" stroke="#d8ed11" cx="176.064" cy="-141.936" rx="4.00002" ry="4.00002"/>
<polygon fill="#d8ed11" stroke="#d8ed11" points="203.296,-114.704 213.549,-110.815 206.831,-111.169 210.367,-107.633 210.367,-107.633 210.367,-107.633 206.831,-111.169 207.185,-104.451 203.296,-114.704 203.296,-114.704"/>
</g>
<!-- Ownership&#45;&gt;OwnershipAction -->
<g id="edge41" class="edge"><title>Ownership&#45;&gt;OwnershipAction</title>
<path fill="none" stroke="#653a93" d="M131.375,-139.897C121.443,-131.718 110.044,-122.331 99.9064,-113.982"/>
<ellipse fill="none" stroke="#653a93" cx="134.624" cy="-142.573" rx="4.00002" ry="4.00002"/>
<polygon fill="#653a93" stroke="#653a93" points="99.8177,-113.909 94.9591,-104.078 95.958,-110.73 92.0984,-107.552 92.0984,-107.552 92.0984,-107.552 95.958,-110.73 89.2377,-111.025 99.8177,-113.909 99.8177,-113.909"/>
</g>
<!-- OwnershipType -->
<g id="node22" class="node"><title>OwnershipType</title>
<ellipse fill="none" stroke="black" cx="138" cy="-378" rx="66.2001" ry="18"/>
<text text-anchor="middle" x="138" y="-373.8" font-family="Times,serif" font-size="14.00">OwnershipType</text>
</g>
<!-- OwnershipType&#45;&gt;Ownership -->
<g id="edge45" class="edge"><title>OwnershipType&#45;&gt;Ownership</title>
<path fill="none" stroke="#6f796f" d="M140.249,-351.67C143.849,-311.116 150.878,-231.949 154.583,-190.227"/>
<ellipse fill="none" stroke="#6f796f" cx="139.877" cy="-355.865" rx="4" ry="4"/>
<polygon fill="#6f796f" stroke="#6f796f" points="154.586,-190.193 159.952,-180.63 155.028,-185.213 155.47,-180.232 155.47,-180.232 155.47,-180.232 155.028,-185.213 150.988,-179.834 154.586,-190.193 154.586,-190.193"/>
</g>
<!-- Page -->
<g id="node23" class="node"><title>Page</title>
<ellipse fill="none" stroke="black" cx="1881" cy="-378" rx="26.9483" ry="18"/>
<text text-anchor="middle" x="1881" y="-373.8" font-family="Times,serif" font-size="14.00">Page</text>
</g>
<!-- Parent -->
<g id="node24" class="node"><title>Parent</title>
<ellipse fill="none" stroke="black" cx="585" cy="-162" rx="32.5477" ry="18"/>
<text text-anchor="middle" x="585" y="-157.8" font-family="Times,serif" font-size="14.00">Parent</text>
</g>
<!-- Permission -->
<g id="node25" class="node"><title>Permission</title>
<polygon fill="none" stroke="black" points="2004.17,-396 1925.83,-396 1925.83,-360 2004.17,-360 2004.17,-396"/>
<text text-anchor="middle" x="1965" y="-373.8" font-family="Times,serif" font-size="14.00">Permission</text>
</g>
<!-- Resource -->
<g id="node26" class="node"><title>Resource</title>
<ellipse fill="none" stroke="black" cx="1483" cy="-306" rx="43.0161" ry="18"/>
<text text-anchor="middle" x="1483" y="-301.8" font-family="Times,serif" font-size="14.00">Resource</text>
</g>
<!-- Responsable&#45;&gt;CardResponsable -->
<g id="edge51" class="edge"><title>Responsable&#45;&gt;CardResponsable</title>
<path fill="none" stroke="#ee3559" d="M954.278,-214.214C970.821,-204.875 990.867,-193.559 1007.9,-183.942"/>
<ellipse fill="none" stroke="#ee3559" cx="950.781" cy="-216.188" rx="4.00002" ry="4.00002"/>
<polygon fill="#ee3559" stroke="#ee3559" points="1008.31,-183.713 1019.23,-182.715 1012.66,-181.255 1017.02,-178.797 1017.02,-178.797 1017.02,-178.797 1012.66,-181.255 1014.81,-174.878 1008.31,-183.713 1008.31,-183.713"/>
</g>
<!-- Subject -->
<g id="node28" class="node"><title>Subject</title>
<ellipse fill="none" stroke="black" cx="1535" cy="-378" rx="36.4487" ry="18"/>
<text text-anchor="middle" x="1535" y="-373.8" font-family="Times,serif" font-size="14.00">Subject</text>
</g>
<!-- Subject&#45;&gt;Resource -->
<g id="edge53" class="edge"><title>Subject&#45;&gt;Resource</title>
<path fill="none" stroke="#95129e" d="M1518.03,-354.161C1512.72,-347.008 1506.83,-339.081 1501.42,-331.8"/>
<ellipse fill="none" stroke="#95129e" cx="1520.55" cy="-357.554" rx="4.00002" ry="4.00002"/>
<polygon fill="#95129e" stroke="#95129e" points="1501.32,-331.661 1498.97,-320.95 1498.34,-327.647 1495.36,-323.633 1495.36,-323.633 1495.36,-323.633 1498.34,-327.647 1491.74,-326.317 1501.32,-331.661 1501.32,-331.661"/>
</g>
<!-- SubjectTheme -->
<g id="node29" class="node"><title>SubjectTheme</title>
<ellipse fill="none" stroke="black" cx="1643" cy="-306" rx="61.2787" ry="18"/>
<text text-anchor="middle" x="1643" y="-301.8" font-family="Times,serif" font-size="14.00">SubjectTheme</text>
</g>
<!-- Subject&#45;&gt;SubjectTheme -->
<g id="edge54" class="edge"><title>Subject&#45;&gt;SubjectTheme</title>
<path fill="none" stroke="#09b527" d="M1563.19,-358.729C1577.67,-349.344 1595.39,-337.861 1610.45,-328.1"/>
<ellipse fill="none" stroke="#09b527" cx="1559.44" cy="-361.162" rx="4.00002" ry="4.00002"/>
<polygon fill="#09b527" stroke="#09b527" points="1610.57,-328.02 1621.41,-326.357 1614.77,-325.3 1618.96,-322.581 1618.96,-322.581 1618.96,-322.581 1614.77,-325.3 1616.51,-318.805 1610.57,-328.02 1610.57,-328.02"/>
</g>
<!-- Subject&#45;&gt;Theme -->
<g id="edge55" class="edge"><title>Subject&#45;&gt;Theme</title>
<path fill="none" stroke="#4f174d" d="M1535.57,-349.784C1535.8,-332.158 1535.84,-308.712 1535,-288 1532.54,-227.305 1525.83,-156.351 1521.93,-118.349"/>
<polygon fill="#4f174d" stroke="#4f174d" points="1535.57,-349.931 1530.91,-359.859 1535.49,-354.93 1535.41,-359.93 1535.41,-359.93 1535.41,-359.93 1535.49,-354.93 1539.91,-360.001 1535.57,-349.931 1535.57,-349.931"/>
<polygon fill="#4f174d" stroke="#4f174d" points="1521.89,-118.046 1525.33,-107.633 1521.38,-113.073 1520.86,-108.1 1520.86,-108.1 1520.86,-108.1 1521.38,-113.073 1516.38,-108.566 1521.89,-118.046 1521.89,-118.046"/>
</g>
<!-- Tag&#45;&gt;Tagging -->
<g id="edge58" class="edge"><title>Tag&#45;&gt;Tagging</title>
<path fill="none" stroke="#8fa17f" d="M1205,-207.64C1205,-202.063 1205,-196.132 1205,-190.476"/>
<ellipse fill="none" stroke="#8fa17f" cx="1205" cy="-211.697" rx="4" ry="4"/>
<polygon fill="#8fa17f" stroke="#8fa17f" points="1205,-190.104 1209.5,-180.104 1205,-185.104 1205,-180.104 1205,-180.104 1205,-180.104 1205,-185.104 1200.5,-180.104 1205,-190.104 1205,-190.104"/>
</g>
<!-- Theme&#45;&gt;OratorTheme -->
<g id="edge61" class="edge"><title>Theme&#45;&gt;OratorTheme</title>
<path fill="none" stroke="#2564e5" d="M1519,-63.6398C1519,-58.0629 1519,-52.1319 1519,-46.4761"/>
<ellipse fill="none" stroke="#2564e5" cx="1519" cy="-67.6966" rx="4" ry="4"/>
<polygon fill="#2564e5" stroke="#2564e5" points="1519,-46.1043 1523.5,-36.1043 1519,-41.1043 1519,-36.1043 1519,-36.1043 1519,-36.1043 1519,-41.1043 1514.5,-36.1044 1519,-46.1043 1519,-46.1043"/>
</g>
<!-- User&#45;&gt;Activity -->
<g id="edge69" class="edge"><title>User&#45;&gt;Activity</title>
<path fill="none" stroke="#cc78fa" d="M467.908,-222.022C437.57,-211.308 390.112,-194.543 349,-180 346.265,-179.033 343.443,-178.034 340.601,-177.028"/>
<ellipse fill="none" stroke="#cc78fa" cx="471.843" cy="-223.411" rx="4.00001" ry="4.00001"/>
<polygon fill="#cc78fa" stroke="#cc78fa" points="340.383,-176.951 332.459,-169.372 335.67,-175.282 330.957,-173.614 330.957,-173.614 330.957,-173.614 335.67,-175.282 329.455,-177.856 340.383,-176.951 340.383,-176.951"/>
</g>
<!-- User&#45;&gt;Article -->
<g id="edge72" class="edge"><title>User&#45;&gt;Article</title>
<path fill="none" stroke="#d30b5c" d="M473.558,-216.199C458.016,-205.935 438.094,-192.779 421.95,-182.118"/>
<ellipse fill="none" stroke="#d30b5c" cx="477.198" cy="-218.603" rx="4.00002" ry="4.00002"/>
<polygon fill="#d30b5c" stroke="#d30b5c" points="421.767,-181.997 415.902,-172.731 417.595,-179.242 413.422,-176.486 413.422,-176.486 413.422,-176.486 417.595,-179.242 410.942,-180.241 421.767,-181.997 421.767,-181.997"/>
</g>
<!-- User&#45;&gt;Card -->
<g id="edge64" class="edge"><title>User&#45;&gt;Card</title>
<path fill="none" stroke="#5495e2" d="M532.904,-241.902C590.67,-254.595 707.141,-281.642 765.382,-295.849"/>
<ellipse fill="none" stroke="#5495e2" cx="528.728" cy="-240.99" rx="4.00001" ry="4.00001"/>
<polygon fill="#5495e2" stroke="#5495e2" points="765.606,-295.904 774.245,-302.658 770.462,-297.096 775.318,-298.288 775.318,-298.288 775.318,-298.288 770.462,-297.096 776.391,-293.918 765.606,-295.904 765.606,-295.904"/>
</g>
<!-- User&#45;&gt;CardUser -->
<g id="edge70" class="edge"><title>User&#45;&gt;CardUser</title>
<path fill="none" stroke="#96ef75" d="M495.784,-207.987C495.046,-202.249 494.258,-196.121 493.509,-190.293"/>
<ellipse fill="none" stroke="#96ef75" cx="496.311" cy="-212.088" rx="4.00001" ry="4.00001"/>
<polygon fill="#96ef75" stroke="#96ef75" points="493.496,-190.194 496.684,-179.701 492.859,-185.234 492.221,-180.275 492.221,-180.275 492.221,-180.275 492.859,-185.234 487.758,-180.849 493.496,-190.194 493.496,-190.194"/>
</g>
<!-- User&#45;&gt;CardVerification -->
<g id="edge63" class="edge"><title>User&#45;&gt;CardVerification</title>
<path fill="none" stroke="#da819d" d="M530.223,-222.338C563.213,-211.073 615.713,-193.147 654.383,-179.942"/>
<ellipse fill="none" stroke="#da819d" cx="526.302" cy="-223.678" rx="4.00001" ry="4.00001"/>
<polygon fill="#da819d" stroke="#da819d" points="654.432,-179.926 665.35,-180.953 659.164,-178.31 663.896,-176.694 663.896,-176.694 663.896,-176.694 659.164,-178.31 662.442,-172.436 654.432,-179.926 654.432,-179.926"/>
</g>
<!-- User&#45;&gt;Orator -->
<g id="edge71" class="edge"><title>User&#45;&gt;Orator</title>
<path fill="none" stroke="#a119af" d="M534.268,-230.745C641.904,-223.813 975.666,-201.957 1252,-180 1304.26,-175.848 1364.45,-170.412 1403.31,-166.818"/>
<ellipse fill="none" stroke="#a119af" cx="530.019" cy="-231.018" rx="4" ry="4"/>
<ellipse fill="#a119af" stroke="#a119af" cx="1407.76" cy="-166.405" rx="4" ry="4"/>
</g>
<!-- User&#45;&gt;Ownership -->
<g id="edge65" class="edge"><title>User&#45;&gt;Ownership</title>
<path fill="none" stroke="#9d548b" d="M465.555,-226.155C405.606,-213.884 279.497,-188.073 208.461,-173.533"/>
<ellipse fill="none" stroke="#9d548b" cx="469.655" cy="-226.994" rx="4.00001" ry="4.00001"/>
<polygon fill="#9d548b" stroke="#9d548b" points="208.191,-173.478 199.296,-167.064 203.292,-172.475 198.394,-171.472 198.394,-171.472 198.394,-171.472 203.292,-172.475 197.491,-175.881 208.191,-173.478 208.191,-173.478"/>
</g>
<!-- User&#45;&gt;Parent -->
<g id="edge66" class="edge"><title>User&#45;&gt;Parent</title>
<path fill="none" stroke="#8097c4" d="M521.868,-214.386C533.522,-204.901 547.723,-193.342 559.703,-183.59"/>
<ellipse fill="none" stroke="#8097c4" cx="518.684" cy="-216.978" rx="4.00002" ry="4.00002"/>
<polygon fill="#8097c4" stroke="#8097c4" points="559.828,-183.489 570.424,-180.666 563.706,-180.332 567.584,-177.176 567.584,-177.176 567.584,-177.176 563.706,-180.332 564.743,-173.686 559.828,-183.489 559.828,-183.489"/>
</g>
<!-- User&#45;&gt;User -->
<g id="edge67" class="edge"><title>User&#45;&gt;User</title>
<path fill="none" stroke="#b523ab" d="M529.039,-247.436C537.501,-246.857 544,-242.378 544,-234 544,-225.622 537.501,-221.143 529.039,-220.564"/>
<polygon fill="#b523ab" stroke="#b523ab" points="528.846,-247.417 519.338,-241.954 523.871,-246.924 518.895,-246.432 518.895,-246.432 518.895,-246.432 523.871,-246.924 518.452,-250.91 528.846,-247.417 528.846,-247.417"/>
<polygon fill="#b523ab" stroke="#b523ab" points="528.846,-220.583 518.452,-217.09 523.871,-221.076 518.895,-221.568 518.895,-221.568 518.895,-221.568 523.871,-221.076 519.338,-226.046 528.846,-220.583 528.846,-220.583"/>
</g>
<!-- User&#45;&gt;VerificatorComment -->
<g id="edge68" class="edge"><title>User&#45;&gt;VerificatorComment</title>
<path fill="none" stroke="#987fc2" d="M532.772,-226.679C593.466,-215.319 722.149,-191.234 802.702,-176.157"/>
<ellipse fill="none" stroke="#987fc2" cx="528.638" cy="-227.453" rx="4.00001" ry="4.00001"/>
<polygon fill="#987fc2" stroke="#987fc2" points="802.935,-176.114 813.592,-178.697 807.85,-175.194 812.764,-174.274 812.764,-174.274 812.764,-174.274 807.85,-175.194 811.937,-169.851 802.935,-176.114 802.935,-176.114"/>
</g>
<!-- UserType -->
<g id="node34" class="node"><title>UserType</title>
<ellipse fill="none" stroke="black" cx="494" cy="-306" rx="44.038" ry="18"/>
<text text-anchor="middle" x="494" y="-301.8" font-family="Times,serif" font-size="14.00">UserType</text>
</g>
<!-- UserType&#45;&gt;User -->
<g id="edge74" class="edge"><title>UserType&#45;&gt;User</title>
<path fill="none" stroke="#346f91" d="M495.811,-279.64C496.21,-274.063 496.633,-268.132 497.037,-262.476"/>
<ellipse fill="none" stroke="#346f91" cx="495.521" cy="-283.707" rx="4" ry="4"/>
<polygon fill="#346f91" stroke="#346f91" points="497.066,-262.079 502.267,-252.425 497.422,-257.092 497.778,-252.104 497.778,-252.104 497.778,-252.104 497.422,-257.092 493.29,-251.784 497.066,-262.079 497.066,-262.079"/>
</g>
<!-- ActiveRecord::Base -->
<g id="node36" class="node"><title>ActiveRecord::Base</title>
<ellipse fill="none" stroke="black" cx="916" cy="-469" rx="80.9821" ry="18"/>
<text text-anchor="middle" x="916" y="-464.8" font-family="Times,serif" font-size="14.00">ActiveRecord::Base</text>
</g>
<!-- ActiveRecord::Base&#45;&gt;AccessToken -->
<g id="edge1" class="edge"><title>ActiveRecord::Base&#45;&gt;AccessToken</title>
<path fill="none" stroke="black" d="M883.474,-452.418C866.446,-444.964 845.021,-436.667 825,-432 729.025,-409.63 467.435,-446.816 383,-396 362.185,-383.473 278.76,-239.898 253,-180 242.634,-155.896 234.928,-126.405 230.697,-108.16"/>
</g>
<!-- ActiveRecord::Base&#45;&gt;Action -->
<g id="edge4" class="edge"><title>ActiveRecord::Base&#45;&gt;Action</title>
<path fill="none" stroke="black" d="M883.959,-452.32C866.881,-444.741 845.264,-436.361 825,-432 742.136,-414.168 121.504,-457.333 63,-396 25.4173,-356.6 50.1379,-284.133 64.1843,-251.589"/>
</g>
<!-- ActiveRecord::Base&#45;&gt;Activity -->
<g id="edge5" class="edge"><title>ActiveRecord::Base&#45;&gt;Activity</title>
<path fill="none" stroke="black" d="M883.458,-452.487C866.425,-445.051 845.002,-436.749 825,-432 737.951,-411.331 498.478,-445.577 424,-396 345.561,-343.786 313.715,-224.731 304.267,-180.217"/>
</g>
<!-- ActiveRecord::Base&#45;&gt;Affiliation -->
<g id="edge8" class="edge"><title>ActiveRecord::Base&#45;&gt;Affiliation</title>
<path fill="none" stroke="black" d="M916,-450.84C916,-435.08 916,-411.851 916,-396.107"/>
</g>
<!-- ActiveRecord::Base&#45;&gt;Article -->
<g id="edge9" class="edge"><title>ActiveRecord::Base&#45;&gt;Article</title>
<path fill="none" stroke="black" d="M883.018,-452.372C866.051,-445.001 844.817,-436.792 825,-432 745.348,-412.74 522.993,-445.912 458,-396 389.387,-343.307 389.109,-224.544 391.618,-180.163"/>
</g>
<!-- ActiveRecord::Base&#45;&gt;Canton -->
<g id="edge11" class="edge"><title>ActiveRecord::Base&#45;&gt;Canton</title>
<path fill="none" stroke="black" d="M996.874,-466.998C1141.78,-463.81 1454.6,-450.586 1712,-396 1719.53,-394.402 1727.51,-392.023 1734.82,-389.546"/>
</g>
<!-- ActiveRecord::Base&#45;&gt;Card -->
<g id="edge22" class="edge"><title>ActiveRecord::Base&#45;&gt;Card</title>
<path fill="none" stroke="black" d="M902.317,-451.083C890.769,-436.647 873.939,-415.234 860,-396 841.848,-370.952 822.009,-340.966 810.303,-322.978"/>
</g>
<!-- ActiveRecord::Base&#45;&gt;CardAffiliation -->
<g id="edge23" class="edge"><title>ActiveRecord::Base&#45;&gt;CardAffiliation</title>
<path fill="none" stroke="black" d="M936.411,-451.36C952.099,-437.752 973.475,-417.334 988,-396 1020.59,-348.132 1043.36,-282.632 1052.94,-252.041"/>
</g>
<!-- ActiveRecord::Base&#45;&gt;CardResponsable -->
<g id="edge24" class="edge"><title>ActiveRecord::Base&#45;&gt;CardResponsable</title>
<path fill="none" stroke="black" d="M943.573,-451.945C993.509,-420.947 1096.9,-347.413 1131,-252 1136.38,-236.933 1138.8,-229.97 1131,-216 1121,-198.084 1102.17,-185.474 1084.68,-177.062"/>
</g>
<!-- ActiveRecord::Base&#45;&gt;CardType -->
<g id="edge26" class="edge"><title>ActiveRecord::Base&#45;&gt;CardType</title>
<path fill="none" stroke="black" d="M889.198,-451.883C861.376,-435.152 818.277,-409.234 791.672,-393.235"/>
</g>
<!-- ActiveRecord::Base&#45;&gt;CardUser -->
<g id="edge27" class="edge"><title>ActiveRecord::Base&#45;&gt;CardUser</title>
<path fill="none" stroke="black" d="M882.982,-452.521C866.004,-445.189 844.773,-436.968 825,-432 690.478,-398.2 640.276,-455.538 515,-396 473.555,-376.303 458.85,-366.273 441,-324 419.405,-272.86 456.857,-208.945 477.603,-179.388"/>
</g>
<!-- ActiveRecord::Base&#45;&gt;CardVerification -->
<g id="edge28" class="edge"><title>ActiveRecord::Base&#45;&gt;CardVerification</title>
<path fill="none" stroke="black" d="M880.021,-452.724C863.425,-445.948 843.37,-438.138 825,-432 767.731,-412.866 730.604,-444.02 694,-396 644.051,-330.472 679.832,-221.891 696.609,-180.111"/>
</g>
<!-- ActiveRecord::Base&#45;&gt;Disponibility -->
<g id="edge31" class="edge"><title>ActiveRecord::Base&#45;&gt;Disponibility</title>
<path fill="none" stroke="black" d="M991.985,-462.601C1092.72,-454.05 1263.44,-434.289 1312,-396 1313.53,-394.794 1357.71,-293.274 1375.59,-252.081"/>
</g>
<!-- ActiveRecord::Base&#45;&gt;Element -->
<g id="edge33" class="edge"><title>ActiveRecord::Base&#45;&gt;Element</title>
<path fill="none" stroke="black" d="M883.501,-452.305C866.479,-444.821 845.052,-436.531 825,-432 709.637,-405.936 395.041,-457.472 294,-396 267.289,-379.749 252.019,-344.818 244.925,-323.875"/>
</g>
<!-- ActiveRecord::Base&#45;&gt;Location -->
<g id="edge34" class="edge"><title>ActiveRecord::Base&#45;&gt;Location</title>
<path fill="none" stroke="black" d="M996.821,-467.136C1205.1,-464.125 1747.96,-451.027 1806,-396 1825.23,-377.764 1824.22,-344.501 1821.36,-324.21"/>
</g>
<!-- ActiveRecord::Base&#45;&gt;Orator -->
<g id="edge38" class="edge"><title>ActiveRecord::Base&#45;&gt;Orator</title>
<path fill="none" stroke="black" d="M992.185,-462.596C1097.5,-453.851 1280.72,-433.651 1335,-396 1380.66,-364.328 1360.64,-329.133 1398,-288 1416.41,-267.731 1435.52,-276.372 1448,-252 1459.71,-229.148 1454.55,-198.51 1449.48,-179.793"/>
</g>
<!-- ActiveRecord::Base&#45;&gt;OratorDisponibility -->
<g id="edge39" class="edge"><title>ActiveRecord::Base&#45;&gt;OratorDisponibility</title>
<path fill="none" stroke="black" d="M997.48,-468.089C1109.67,-463.438 1298,-436.364 1298,-307 1298,-307 1298,-307 1298,-233 1298,-185.693 1322.99,-134.296 1337.64,-108.241"/>
</g>
<!-- ActiveRecord::Base&#45;&gt;OratorTheme -->
<g id="edge40" class="edge"><title>ActiveRecord::Base&#45;&gt;OratorTheme</title>
<path fill="none" stroke="black" d="M995.026,-464.895C1152.7,-457.875 1500.78,-438.017 1612,-396 1663.57,-376.518 1682.75,-370.085 1713,-324 1735.2,-290.188 1732,-275.447 1732,-235 1732,-235 1732,-235 1732,-161 1732,-81.7796 1628.73,-44.0356 1566.01,-28.4163"/>
</g>
<!-- ActiveRecord::Base&#45;&gt;Ownership -->
<g id="edge43" class="edge"><title>ActiveRecord::Base&#45;&gt;Ownership</title>
<path fill="none" stroke="black" d="M883.93,-452.454C866.843,-444.913 845.228,-436.525 825,-432 701.791,-404.44 372.1,-450.048 258,-396 238.248,-386.644 201.069,-343.398 191,-324 166.125,-276.078 159.448,-211.161 157.656,-180.464"/>
</g>
<!-- ActiveRecord::Base&#45;&gt;OwnershipAction -->
<g id="edge44" class="edge"><title>ActiveRecord::Base&#45;&gt;OwnershipAction</title>
<path fill="none" stroke="black" d="M883.961,-452.309C866.884,-444.728 845.267,-436.348 825,-432 739.846,-413.732 113.075,-446.333 42,-396 7.17826,-371.341 6,-349.669 6,-307 6,-307 6,-307 6,-233 6,-183.794 38.993,-133.184 58.3248,-107.752"/>
</g>
<!-- ActiveRecord::Base&#45;&gt;OwnershipType -->
<g id="edge46" class="edge"><title>ActiveRecord::Base&#45;&gt;OwnershipType</title>
<path fill="none" stroke="black" d="M883.937,-452.42C866.853,-444.869 845.237,-436.482 825,-432 561.143,-373.557 485.818,-432.189 218,-396 207.587,-394.593 196.51,-392.579 186.022,-390.426"/>
</g>
<!-- ActiveRecord::Base&#45;&gt;Page -->
<g id="edge47" class="edge"><title>ActiveRecord::Base&#45;&gt;Page</title>
<path fill="none" stroke="black" d="M995.485,-465.019C1189.02,-457.244 1680.5,-434.257 1840,-396 1846.59,-394.418 1853.5,-391.915 1859.72,-389.311"/>
</g>
<!-- ActiveRecord::Base&#45;&gt;Parent -->
<g id="edge48" class="edge"><title>ActiveRecord::Base&#45;&gt;Parent</title>
<path fill="none" stroke="black" d="M880.555,-452.601C863.895,-445.72 843.639,-437.86 825,-432 758.772,-411.177 725.143,-441.836 673,-396 606.423,-337.476 590.043,-223.27 586.159,-180.089"/>
</g>
<!-- ActiveRecord::Base&#45;&gt;Resource -->
<g id="edge50" class="edge"><title>ActiveRecord::Base&#45;&gt;Resource</title>
<path fill="none" stroke="black" d="M995.105,-464.807C1120.1,-458.458 1356.25,-440.774 1426,-396 1452.56,-378.951 1469.16,-344.635 1477.19,-323.952"/>
</g>
<!-- ActiveRecord::Base&#45;&gt;Responsable -->
<g id="edge52" class="edge"><title>ActiveRecord::Base&#45;&gt;Responsable</title>
<path fill="none" stroke="black" d="M933.932,-451.316C947.018,-437.835 963.692,-417.606 971,-396 988.631,-343.877 953.401,-281.481 933.441,-252.011"/>
</g>
<!-- ActiveRecord::Base&#45;&gt;Subject -->
<g id="edge56" class="edge"><title>ActiveRecord::Base&#45;&gt;Subject</title>
<path fill="none" stroke="black" d="M992.13,-462.631C1101.34,-453.952 1308.35,-433.861 1481,-396 1489.26,-394.189 1498.06,-391.677 1506.11,-389.138"/>
</g>
<!-- ActiveRecord::Base&#45;&gt;SubjectTheme -->
<g id="edge57" class="edge"><title>ActiveRecord::Base&#45;&gt;SubjectTheme</title>
<path fill="none" stroke="black" d="M996.913,-467.406C1151.71,-464.956 1483.04,-452.997 1580,-396 1608.07,-379.5 1626.86,-344.996 1636.17,-324.129"/>
</g>
<!-- ActiveRecord::Base&#45;&gt;Tag -->
<g id="edge59" class="edge"><title>ActiveRecord::Base&#45;&gt;Tag</title>
<path fill="none" stroke="black" d="M995.149,-464.904C1049.78,-458.54 1120.2,-441.274 1164,-396 1202.7,-355.989 1206.35,-284.799 1205.81,-252.183"/>
</g>
<!-- ActiveRecord::Base&#45;&gt;Tagging -->
<g id="edge60" class="edge"><title>ActiveRecord::Base&#45;&gt;Tagging</title>
<path fill="none" stroke="black" d="M996.492,-466.242C1056.73,-460.771 1137.45,-444.038 1190,-396 1251.37,-339.896 1265.44,-295.476 1241,-216 1236.75,-202.178 1227.53,-188.727 1219.49,-178.834"/>
</g>
<!-- ActiveRecord::Base&#45;&gt;Theme -->
<g id="edge62" class="edge"><title>ActiveRecord::Base&#45;&gt;Theme</title>
<path fill="none" stroke="black" d="M993.084,-463.289C1104.73,-455.198 1304.58,-435.567 1364,-396 1411.02,-364.693 1396.22,-332.51 1431,-288 1444.74,-270.416 1454.44,-271.086 1466,-252 1494.97,-204.179 1510.13,-138.657 1516.02,-108.05"/>
</g>
<!-- ActiveRecord::Base&#45;&gt;User -->
<g id="edge73" class="edge"><title>ActiveRecord::Base&#45;&gt;User</title>
<path fill="none" stroke="black" d="M882.049,-452.462C865.198,-445.296 844.352,-437.238 825,-432 723.008,-404.391 672.693,-461.776 590,-396 549.567,-363.838 574.331,-331.844 547,-288 537.937,-273.462 524.697,-259.196 514.417,-249.134"/>
</g>
<!-- ActiveRecord::Base&#45;&gt;UserType -->
<g id="edge75" class="edge"><title>ActiveRecord::Base&#45;&gt;UserType</title>
<path fill="none" stroke="black" d="M882.523,-452.468C865.609,-445.215 844.57,-437.079 825,-432 706.54,-401.258 655.549,-461.234 552,-396 525.16,-379.091 508.204,-344.728 499.967,-323.997"/>
</g>
<!-- ActiveRecord::Base&#45;&gt;VerificatorComment -->
<g id="edge76" class="edge"><title>ActiveRecord::Base&#45;&gt;VerificatorComment</title>
<path fill="none" stroke="black" d="M879.01,-452.754C862.563,-446.134 842.906,-438.438 825,-432 776.196,-414.452 744.496,-437.95 714,-396 676.543,-344.474 701.87,-297.407 776,-216 791.375,-199.115 813.416,-186.476 832.603,-177.783"/>
</g>
<!-- Object -->
<g id="node37" class="node"><title>Object</title>
<ellipse fill="none" stroke="black" cx="1965" cy="-469" rx="33.5181" ry="18"/>
<text text-anchor="middle" x="1965" y="-464.8" font-family="Times,serif" font-size="14.00">Object</text>
</g>
<!-- Object&#45;&gt;Permission -->
<g id="edge49" class="edge"><title>Object&#45;&gt;Permission</title>
<path fill="none" stroke="black" d="M1965,-450.84C1965,-435.08 1965,-411.851 1965,-396.107"/>
</g>
</g>
</svg>
