<?xml version="1.0" encoding="UTF-8" standalone="no"?>
<!DOCTYPE svg PUBLIC "-//W3C//DTD SVG 1.1//EN"
 "http://www.w3.org/Graphics/SVG/1.1/DTD/svg11.dtd">
<!-- Generated by graphviz version 2.36.0 (20140111.2315)
 -->
<!-- Title: models_diagram Pages: 1 -->
<svg width="2575pt" height="1344pt"
 viewBox="0.00 0.00 2574.90 1344.00" xmlns="http://www.w3.org/2000/svg" xmlns:xlink="http://www.w3.org/1999/xlink">
<g id="graph0" class="graph" transform="scale(1 1) rotate(0) translate(4 1340)">
<title>models_diagram</title>
<polygon fill="white" stroke="none" points="-4,4 -4,-1340 2570.9,-1340 2570.9,4 -4,4"/>
<!-- _diagram_info -->
<g id="node1" class="node"><title>_diagram_info</title>
<text text-anchor="start" x="880.209" y="-1321.1" font-family="Times,serif" font-size="13.00">Models diagram</text>
<text text-anchor="start" x="880.209" y="-1308.1" font-family="Times,serif" font-size="13.00">Date: Mar 11 2014 &#45; 21:08</text>
<text text-anchor="start" x="880.209" y="-1295.1" font-family="Times,serif" font-size="13.00">Migration version: 20140310171454</text>
<text text-anchor="start" x="880.209" y="-1282.1" font-family="Times,serif" font-size="13.00">Generated by RailRoady 1.1.1</text>
<text text-anchor="start" x="880.209" y="-1269.1" font-family="Times,serif" font-size="13.00">http://railroady.prestonlee.com</text>
</g>
<!-- AccessToken -->
<g id="node2" class="node"><title>AccessToken</title>
<path fill="none" stroke="black" d="M204.66,-139C204.66,-139 319.133,-139 319.133,-139 325.133,-139 331.133,-145 331.133,-151 331.133,-151 331.133,-241 331.133,-241 331.133,-247 325.133,-253 319.133,-253 319.133,-253 204.66,-253 204.66,-253 198.66,-253 192.66,-247 192.66,-241 192.66,-241 192.66,-151 192.66,-151 192.66,-145 198.66,-139 204.66,-139"/>
<text text-anchor="middle" x="261.897" y="-237.8" font-family="Times,serif" font-size="14.00">AccessToken</text>
<polyline fill="none" stroke="black" points="192.66,-231 331.133,-231 "/>
<text text-anchor="start" x="200.66" y="-215.8" font-family="Times,serif" font-size="14.00">id :integer</text>
<text text-anchor="start" x="200.66" y="-201.8" font-family="Times,serif" font-size="14.00">token :string</text>
<text text-anchor="start" x="200.66" y="-187.8" font-family="Times,serif" font-size="14.00">is_valid :boolean</text>
<text text-anchor="start" x="200.66" y="-173.8" font-family="Times,serif" font-size="14.00">ownership_id :integer</text>
<text text-anchor="start" x="200.66" y="-159.8" font-family="Times,serif" font-size="14.00">created_at :datetime</text>
<text text-anchor="start" x="200.66" y="-145.8" font-family="Times,serif" font-size="14.00">updated_at :datetime</text>
</g>
<!-- Action -->
<g id="node3" class="node"><title>Action</title>
<path fill="none" stroke="black" d="M54.3911,-576C54.3911,-576 163.402,-576 163.402,-576 169.402,-576 175.402,-582 175.402,-588 175.402,-588 175.402,-650 175.402,-650 175.402,-656 169.402,-662 163.402,-662 163.402,-662 54.3911,-662 54.3911,-662 48.3911,-662 42.3911,-656 42.3911,-650 42.3911,-650 42.3911,-588 42.3911,-588 42.3911,-582 48.3911,-576 54.3911,-576"/>
<text text-anchor="middle" x="108.897" y="-646.8" font-family="Times,serif" font-size="14.00">Action</text>
<polyline fill="none" stroke="black" points="42.3911,-640 175.402,-640 "/>
<text text-anchor="start" x="50.3911" y="-624.8" font-family="Times,serif" font-size="14.00">id :integer</text>
<text text-anchor="start" x="50.3911" y="-610.8" font-family="Times,serif" font-size="14.00">name :string</text>
<text text-anchor="start" x="50.3911" y="-596.8" font-family="Times,serif" font-size="14.00">created_at :datetime</text>
<text text-anchor="start" x="50.3911" y="-582.8" font-family="Times,serif" font-size="14.00">updated_at :datetime</text>
</g>
<!-- Ownership -->
<g id="node20" class="node"><title>Ownership</title>
<path fill="none" stroke="black" d="M111.108,-291C111.108,-291 256.685,-291 256.685,-291 262.685,-291 268.685,-297 268.685,-303 268.685,-303 268.685,-463 268.685,-463 268.685,-469 262.685,-475 256.685,-475 256.685,-475 111.108,-475 111.108,-475 105.108,-475 99.1084,-469 99.1084,-463 99.1084,-463 99.1084,-303 99.1084,-303 99.1084,-297 105.108,-291 111.108,-291"/>
<text text-anchor="middle" x="183.897" y="-459.8" font-family="Times,serif" font-size="14.00">Ownership</text>
<polyline fill="none" stroke="black" points="99.1084,-453 268.685,-453 "/>
<text text-anchor="start" x="107.108" y="-437.8" font-family="Times,serif" font-size="14.00">id :integer</text>
<text text-anchor="start" x="107.108" y="-423.8" font-family="Times,serif" font-size="14.00">element_id :integer</text>
<text text-anchor="start" x="107.108" y="-409.8" font-family="Times,serif" font-size="14.00">user_id :integer</text>
<text text-anchor="start" x="107.108" y="-395.8" font-family="Times,serif" font-size="14.00">ownership_type_id :integer</text>
<text text-anchor="start" x="107.108" y="-381.8" font-family="Times,serif" font-size="14.00">right_create :boolean</text>
<text text-anchor="start" x="107.108" y="-367.8" font-family="Times,serif" font-size="14.00">right_read :boolean</text>
<text text-anchor="start" x="107.108" y="-353.8" font-family="Times,serif" font-size="14.00">right_update :boolean</text>
<text text-anchor="start" x="107.108" y="-339.8" font-family="Times,serif" font-size="14.00">right_delete :boolean</text>
<text text-anchor="start" x="107.108" y="-325.8" font-family="Times,serif" font-size="14.00">id_element :integer</text>
<text text-anchor="start" x="107.108" y="-311.8" font-family="Times,serif" font-size="14.00">created_at :datetime</text>
<text text-anchor="start" x="107.108" y="-297.8" font-family="Times,serif" font-size="14.00">updated_at :datetime</text>
</g>
<!-- Action&#45;&gt;Ownership -->
<g id="edge3" class="edge"><title>Action&#45;&gt;Ownership</title>
<path fill="none" stroke="#5dfc38" d="M125.447,-566.361C133.117,-542.433 142.507,-513.134 151.499,-485.08"/>
<polygon fill="#5dfc38" stroke="#5dfc38" points="125.444,-566.372 118.106,-574.522 123.918,-571.134 122.392,-575.895 122.392,-575.895 122.392,-575.895 123.918,-571.134 126.677,-577.269 125.444,-566.372 125.444,-566.372"/>
<polygon fill="#5dfc38" stroke="#5dfc38" points="151.607,-484.743 158.945,-476.593 153.133,-479.981 154.659,-475.22 154.659,-475.22 154.659,-475.22 153.133,-479.981 150.374,-473.846 151.607,-484.743 151.607,-484.743"/>
</g>
<!-- OwnershipAction -->
<g id="node21" class="node"><title>OwnershipAction</title>
<path fill="none" stroke="black" d="M13.6602,-146C13.6602,-146 128.133,-146 128.133,-146 134.133,-146 140.133,-152 140.133,-158 140.133,-158 140.133,-234 140.133,-234 140.133,-240 134.133,-246 128.133,-246 128.133,-246 13.6602,-246 13.6602,-246 7.66018,-246 1.66018,-240 1.66018,-234 1.66018,-234 1.66018,-158 1.66018,-158 1.66018,-152 7.66018,-146 13.6602,-146"/>
<text text-anchor="middle" x="70.8965" y="-230.8" font-family="Times,serif" font-size="14.00">OwnershipAction</text>
<polyline fill="none" stroke="black" points="1.66018,-224 140.133,-224 "/>
<text text-anchor="start" x="9.66018" y="-208.8" font-family="Times,serif" font-size="14.00">id :integer</text>
<text text-anchor="start" x="9.66018" y="-194.8" font-family="Times,serif" font-size="14.00">action_id :integer</text>
<text text-anchor="start" x="9.66018" y="-180.8" font-family="Times,serif" font-size="14.00">ownership_id :integer</text>
<text text-anchor="start" x="9.66018" y="-166.8" font-family="Times,serif" font-size="14.00">created_at :datetime</text>
<text text-anchor="start" x="9.66018" y="-152.8" font-family="Times,serif" font-size="14.00">updated_at :datetime</text>
</g>
<!-- Action&#45;&gt;OwnershipAction -->
<g id="edge2" class="edge"><title>Action&#45;&gt;OwnershipAction</title>
<path fill="none" stroke="#112cb7" d="M101.349,-567.654C97.4905,-540.547 92.9723,-506.501 89.8965,-476 82.2726,-400.399 76.8691,-312.957 73.8206,-256.409"/>
<ellipse fill="none" stroke="#112cb7" cx="101.955" cy="-571.873" rx="4.00001" ry="4.00001"/>
<polygon fill="#112cb7" stroke="#112cb7" points="73.8099,-256.206 77.7725,-245.981 73.5444,-251.213 73.2788,-246.22 73.2788,-246.22 73.2788,-246.22 73.5444,-251.213 68.7852,-246.459 73.8099,-256.206 73.8099,-256.206"/>
</g>
<!-- Activity -->
<g id="node4" class="node"><title>Activity</title>
<path fill="none" stroke="black" d="M337.057,-319C337.057,-319 450.736,-319 450.736,-319 456.736,-319 462.736,-325 462.736,-331 462.736,-331 462.736,-435 462.736,-435 462.736,-441 456.736,-447 450.736,-447 450.736,-447 337.057,-447 337.057,-447 331.057,-447 325.057,-441 325.057,-435 325.057,-435 325.057,-331 325.057,-331 325.057,-325 331.057,-319 337.057,-319"/>
<text text-anchor="middle" x="393.897" y="-431.8" font-family="Times,serif" font-size="14.00">Activity</text>
<polyline fill="none" stroke="black" points="325.057,-425 462.736,-425 "/>
<text text-anchor="start" x="333.057" y="-409.8" font-family="Times,serif" font-size="14.00">id :integer</text>
<text text-anchor="start" x="333.057" y="-395.8" font-family="Times,serif" font-size="14.00">user_id :integer</text>
<text text-anchor="start" x="333.057" y="-381.8" font-family="Times,serif" font-size="14.00">action :string</text>
<text text-anchor="start" x="333.057" y="-367.8" font-family="Times,serif" font-size="14.00">trackable_id :integer</text>
<text text-anchor="start" x="333.057" y="-353.8" font-family="Times,serif" font-size="14.00">trackable_type :string</text>
<text text-anchor="start" x="333.057" y="-339.8" font-family="Times,serif" font-size="14.00">created_at :datetime</text>
<text text-anchor="start" x="333.057" y="-325.8" font-family="Times,serif" font-size="14.00">updated_at :datetime</text>
</g>
<!-- Affiliation -->
<g id="node5" class="node"><title>Affiliation</title>
<path fill="none" stroke="black" d="M1124.39,-1132C1124.39,-1132 1233.4,-1132 1233.4,-1132 1239.4,-1132 1245.4,-1138 1245.4,-1144 1245.4,-1144 1245.4,-1206 1245.4,-1206 1245.4,-1212 1239.4,-1218 1233.4,-1218 1233.4,-1218 1124.39,-1218 1124.39,-1218 1118.39,-1218 1112.39,-1212 1112.39,-1206 1112.39,-1206 1112.39,-1144 1112.39,-1144 1112.39,-1138 1118.39,-1132 1124.39,-1132"/>
<text text-anchor="middle" x="1178.9" y="-1202.8" font-family="Times,serif" font-size="14.00">Affiliation</text>
<polyline fill="none" stroke="black" points="1112.39,-1196 1245.4,-1196 "/>
<text text-anchor="start" x="1120.39" y="-1180.8" font-family="Times,serif" font-size="14.00">id :integer</text>
<text text-anchor="start" x="1120.39" y="-1166.8" font-family="Times,serif" font-size="14.00">name :string</text>
<text text-anchor="start" x="1120.39" y="-1152.8" font-family="Times,serif" font-size="14.00">created_at :datetime</text>
<text text-anchor="start" x="1120.39" y="-1138.8" font-family="Times,serif" font-size="14.00">updated_at :datetime</text>
</g>
<!-- Card -->
<g id="node8" class="node"><title>Card</title>
<path fill="none" stroke="black" d="M978.595,-763C978.595,-763 1103.2,-763 1103.2,-763 1109.2,-763 1115.2,-769 1115.2,-775 1115.2,-775 1115.2,-1075 1115.2,-1075 1115.2,-1081 1109.2,-1087 1103.2,-1087 1103.2,-1087 978.595,-1087 978.595,-1087 972.595,-1087 966.595,-1081 966.595,-1075 966.595,-1075 966.595,-775 966.595,-775 966.595,-769 972.595,-763 978.595,-763"/>
<text text-anchor="middle" x="1040.9" y="-1071.8" font-family="Times,serif" font-size="14.00">Card</text>
<polyline fill="none" stroke="black" points="966.595,-1065 1115.2,-1065 "/>
<text text-anchor="start" x="974.595" y="-1049.8" font-family="Times,serif" font-size="14.00">id :integer</text>
<text text-anchor="start" x="974.595" y="-1035.8" font-family="Times,serif" font-size="14.00">card_type_id :integer</text>
<text text-anchor="start" x="974.595" y="-1021.8" font-family="Times,serif" font-size="14.00">name :string</text>
<text text-anchor="start" x="974.595" y="-1007.8" font-family="Times,serif" font-size="14.00">email :string</text>
<text text-anchor="start" x="974.595" y="-993.8" font-family="Times,serif" font-size="14.00">street :string</text>
<text text-anchor="start" x="974.595" y="-979.8" font-family="Times,serif" font-size="14.00">place :string</text>
<text text-anchor="start" x="974.595" y="-965.8" font-family="Times,serif" font-size="14.00">website :string</text>
<text text-anchor="start" x="974.595" y="-951.8" font-family="Times,serif" font-size="14.00">password_digest :string</text>
<text text-anchor="start" x="974.595" y="-937.8" font-family="Times,serif" font-size="14.00">description :text</text>
<text text-anchor="start" x="974.595" y="-923.8" font-family="Times,serif" font-size="14.00">affiliation :text</text>
<text text-anchor="start" x="974.595" y="-909.8" font-family="Times,serif" font-size="14.00">validated :boolean</text>
<text text-anchor="start" x="974.595" y="-895.8" font-family="Times,serif" font-size="14.00">created_at :datetime</text>
<text text-anchor="start" x="974.595" y="-881.8" font-family="Times,serif" font-size="14.00">updated_at :datetime</text>
<text text-anchor="start" x="974.595" y="-867.8" font-family="Times,serif" font-size="14.00">latitude :float</text>
<text text-anchor="start" x="974.595" y="-853.8" font-family="Times,serif" font-size="14.00">longitude :float</text>
<text text-anchor="start" x="974.595" y="-839.8" font-family="Times,serif" font-size="14.00">avatar :string</text>
<text text-anchor="start" x="974.595" y="-825.8" font-family="Times,serif" font-size="14.00">banner :string</text>
<text text-anchor="start" x="974.595" y="-811.8" font-family="Times,serif" font-size="14.00">card_id :integer</text>
<text text-anchor="start" x="974.595" y="-797.8" font-family="Times,serif" font-size="14.00">location_id :integer</text>
<text text-anchor="start" x="974.595" y="-783.8" font-family="Times,serif" font-size="14.00">user_id :integer</text>
<text text-anchor="start" x="974.595" y="-769.8" font-family="Times,serif" font-size="14.00">visible :boolean</text>
</g>
<!-- Affiliation&#45;&gt;Card -->
<g id="edge7" class="edge"><title>Affiliation&#45;&gt;Card</title>
<path fill="none" stroke="#b1054a" d="M1150.55,-1123.06C1141.54,-1106.88 1131.1,-1088.11 1120.32,-1068.72"/>
<polygon fill="#b1054a" stroke="#b1054a" points="1150.62,-1123.19 1151.55,-1134.12 1153.06,-1127.56 1155.49,-1131.93 1155.49,-1131.93 1155.49,-1131.93 1153.06,-1127.56 1159.42,-1129.74 1150.62,-1123.19 1150.62,-1123.19"/>
<polygon fill="#b1054a" stroke="#b1054a" points="1120.2,-1068.52 1119.27,-1057.59 1117.77,-1064.15 1115.34,-1059.78 1115.34,-1059.78 1115.34,-1059.78 1117.77,-1064.15 1111.41,-1061.97 1120.2,-1068.52 1120.2,-1068.52"/>
</g>
<!-- CardAffiliation -->
<g id="node9" class="node"><title>CardAffiliation</title>
<path fill="none" stroke="black" d="M1270.61,-569C1270.61,-569 1381.19,-569 1381.19,-569 1387.19,-569 1393.19,-575 1393.19,-581 1393.19,-581 1393.19,-657 1393.19,-657 1393.19,-663 1387.19,-669 1381.19,-669 1381.19,-669 1270.61,-669 1270.61,-669 1264.61,-669 1258.61,-663 1258.61,-657 1258.61,-657 1258.61,-581 1258.61,-581 1258.61,-575 1264.61,-569 1270.61,-569"/>
<text text-anchor="middle" x="1325.9" y="-653.8" font-family="Times,serif" font-size="14.00">CardAffiliation</text>
<polyline fill="none" stroke="black" points="1258.61,-647 1393.19,-647 "/>
<text text-anchor="start" x="1266.61" y="-631.8" font-family="Times,serif" font-size="14.00">id :integer</text>
<text text-anchor="start" x="1266.61" y="-617.8" font-family="Times,serif" font-size="14.00">card_id :integer</text>
<text text-anchor="start" x="1266.61" y="-603.8" font-family="Times,serif" font-size="14.00">affiliation_id :integer</text>
<text text-anchor="start" x="1266.61" y="-589.8" font-family="Times,serif" font-size="14.00">created_at :datetime</text>
<text text-anchor="start" x="1266.61" y="-575.8" font-family="Times,serif" font-size="14.00">updated_at :datetime</text>
</g>
<!-- Affiliation&#45;&gt;CardAffiliation -->
<g id="edge6" class="edge"><title>Affiliation&#45;&gt;CardAffiliation</title>
<path fill="none" stroke="#dbd6a5" d="M1192.18,-1123.94C1219.36,-1021.52 1281.19,-788.499 1310.25,-678.965"/>
<ellipse fill="none" stroke="#dbd6a5" cx="1191.09" cy="-1128.04" rx="4.00001" ry="4.00001"/>
<polygon fill="#dbd6a5" stroke="#dbd6a5" points="1310.31,-678.741 1317.22,-670.23 1311.59,-673.908 1312.87,-669.075 1312.87,-669.075 1312.87,-669.075 1311.59,-673.908 1308.53,-667.921 1310.31,-678.741 1310.31,-678.741"/>
</g>
<!-- Article -->
<g id="node6" class="node"><title>Article</title>
<path fill="none" stroke="black" d="M492.391,-312C492.391,-312 601.402,-312 601.402,-312 607.402,-312 613.402,-318 613.402,-324 613.402,-324 613.402,-442 613.402,-442 613.402,-448 607.402,-454 601.402,-454 601.402,-454 492.391,-454 492.391,-454 486.391,-454 480.391,-448 480.391,-442 480.391,-442 480.391,-324 480.391,-324 480.391,-318 486.391,-312 492.391,-312"/>
<text text-anchor="middle" x="546.897" y="-438.8" font-family="Times,serif" font-size="14.00">Article</text>
<polyline fill="none" stroke="black" points="480.391,-432 613.402,-432 "/>
<text text-anchor="start" x="488.391" y="-416.8" font-family="Times,serif" font-size="14.00">id :integer</text>
<text text-anchor="start" x="488.391" y="-402.8" font-family="Times,serif" font-size="14.00">title :string</text>
<text text-anchor="start" x="488.391" y="-388.8" font-family="Times,serif" font-size="14.00">content :text</text>
<text text-anchor="start" x="488.391" y="-374.8" font-family="Times,serif" font-size="14.00">user_id :integer</text>
<text text-anchor="start" x="488.391" y="-360.8" font-family="Times,serif" font-size="14.00">image :string</text>
<text text-anchor="start" x="488.391" y="-346.8" font-family="Times,serif" font-size="14.00">likes :integer</text>
<text text-anchor="start" x="488.391" y="-332.8" font-family="Times,serif" font-size="14.00">created_at :datetime</text>
<text text-anchor="start" x="488.391" y="-318.8" font-family="Times,serif" font-size="14.00">updated_at :datetime</text>
</g>
<!-- Canton -->
<g id="node7" class="node"><title>Canton</title>
<path fill="none" stroke="black" d="M2159.39,-1125C2159.39,-1125 2268.4,-1125 2268.4,-1125 2274.4,-1125 2280.4,-1131 2280.4,-1137 2280.4,-1137 2280.4,-1213 2280.4,-1213 2280.4,-1219 2274.4,-1225 2268.4,-1225 2268.4,-1225 2159.39,-1225 2159.39,-1225 2153.39,-1225 2147.39,-1219 2147.39,-1213 2147.39,-1213 2147.39,-1137 2147.39,-1137 2147.39,-1131 2153.39,-1125 2159.39,-1125"/>
<text text-anchor="middle" x="2213.9" y="-1209.8" font-family="Times,serif" font-size="14.00">Canton</text>
<polyline fill="none" stroke="black" points="2147.39,-1203 2280.4,-1203 "/>
<text text-anchor="start" x="2155.39" y="-1187.8" font-family="Times,serif" font-size="14.00">id :integer</text>
<text text-anchor="start" x="2155.39" y="-1173.8" font-family="Times,serif" font-size="14.00">name :string</text>
<text text-anchor="start" x="2155.39" y="-1159.8" font-family="Times,serif" font-size="14.00">abbreviation :string</text>
<text text-anchor="start" x="2155.39" y="-1145.8" font-family="Times,serif" font-size="14.00">created_at :datetime</text>
<text text-anchor="start" x="2155.39" y="-1131.8" font-family="Times,serif" font-size="14.00">updated_at :datetime</text>
</g>
<!-- Location -->
<g id="node16" class="node"><title>Location</title>
<path fill="none" stroke="black" d="M2230.39,-861C2230.39,-861 2339.4,-861 2339.4,-861 2345.4,-861 2351.4,-867 2351.4,-873 2351.4,-873 2351.4,-977 2351.4,-977 2351.4,-983 2345.4,-989 2339.4,-989 2339.4,-989 2230.39,-989 2230.39,-989 2224.39,-989 2218.39,-983 2218.39,-977 2218.39,-977 2218.39,-873 2218.39,-873 2218.39,-867 2224.39,-861 2230.39,-861"/>
<text text-anchor="middle" x="2284.9" y="-973.8" font-family="Times,serif" font-size="14.00">Location</text>
<polyline fill="none" stroke="black" points="2218.39,-967 2351.4,-967 "/>
<text text-anchor="start" x="2226.39" y="-951.8" font-family="Times,serif" font-size="14.00">id :integer</text>
<text text-anchor="start" x="2226.39" y="-937.8" font-family="Times,serif" font-size="14.00">npa :integer</text>
<text text-anchor="start" x="2226.39" y="-923.8" font-family="Times,serif" font-size="14.00">official_name :string</text>
<text text-anchor="start" x="2226.39" y="-909.8" font-family="Times,serif" font-size="14.00">post_name :string</text>
<text text-anchor="start" x="2226.39" y="-895.8" font-family="Times,serif" font-size="14.00">canton_id :integer</text>
<text text-anchor="start" x="2226.39" y="-881.8" font-family="Times,serif" font-size="14.00">created_at :datetime</text>
<text text-anchor="start" x="2226.39" y="-867.8" font-family="Times,serif" font-size="14.00">updated_at :datetime</text>
</g>
<!-- Canton&#45;&gt;Location -->
<g id="edge10" class="edge"><title>Canton&#45;&gt;Location</title>
<path fill="none" stroke="#6f3be8" d="M2230.28,-1116.77C2240.29,-1081.81 2253.19,-1036.76 2263.94,-999.215"/>
<ellipse fill="none" stroke="#6f3be8" cx="2229.11" cy="-1120.86" rx="4.00001" ry="4.00001"/>
<polygon fill="#6f3be8" stroke="#6f3be8" points="2264.01,-998.956 2271.09,-990.581 2265.39,-994.149 2266.76,-989.342 2266.76,-989.342 2266.76,-989.342 2265.39,-994.149 2262.44,-988.104 2264.01,-998.956 2264.01,-998.956"/>
</g>
<!-- Card&#45;&gt;Card -->
<g id="edge21" class="edge"><title>Card&#45;&gt;Card</title>
<path fill="none" stroke="#cc3983" d="M1121.65,-961.565C1128.57,-953.782 1132.9,-941.594 1132.9,-925 1132.9,-908.406 1128.57,-896.218 1121.65,-888.435"/>
<ellipse fill="none" stroke="#cc3983" cx="1118.29" cy="-964.456" rx="4.00002" ry="4.00002"/>
<ellipse fill="#cc3983" stroke="#cc3983" cx="1118.29" cy="-885.544" rx="4.00002" ry="4.00002"/>
</g>
<!-- Card&#45;&gt;CardAffiliation -->
<g id="edge16" class="edge"><title>Card&#45;&gt;CardAffiliation</title>
<path fill="none" stroke="#c312ec" d="M1120.89,-831.807C1143.45,-807.941 1168.73,-783.056 1193.9,-762 1216.3,-743.251 1227.74,-746.15 1248.9,-726 1263.83,-711.773 1277.85,-694.323 1289.73,-677.719"/>
<ellipse fill="none" stroke="#c312ec" cx="1117.95" cy="-834.934" rx="4.00002" ry="4.00002"/>
<polygon fill="#c312ec" stroke="#c312ec" points="1290,-677.327 1299.42,-671.715 1292.87,-673.231 1295.73,-669.135 1295.73,-669.135 1295.73,-669.135 1292.87,-673.231 1292.05,-666.554 1290,-677.327 1290,-677.327"/>
</g>
<!-- CardResponsable -->
<g id="node10" class="node"><title>CardResponsable</title>
<path fill="none" stroke="black" d="M1265.78,-333C1265.78,-333 1388.02,-333 1388.02,-333 1394.02,-333 1400.02,-339 1400.02,-345 1400.02,-345 1400.02,-421 1400.02,-421 1400.02,-427 1394.02,-433 1388.02,-433 1388.02,-433 1265.78,-433 1265.78,-433 1259.78,-433 1253.78,-427 1253.78,-421 1253.78,-421 1253.78,-345 1253.78,-345 1253.78,-339 1259.78,-333 1265.78,-333"/>
<text text-anchor="middle" x="1326.9" y="-417.8" font-family="Times,serif" font-size="14.00">CardResponsable</text>
<polyline fill="none" stroke="black" points="1253.78,-411 1400.02,-411 "/>
<text text-anchor="start" x="1261.78" y="-395.8" font-family="Times,serif" font-size="14.00">id :integer</text>
<text text-anchor="start" x="1261.78" y="-381.8" font-family="Times,serif" font-size="14.00">card_id :integer</text>
<text text-anchor="start" x="1261.78" y="-367.8" font-family="Times,serif" font-size="14.00">responsable_id :integer</text>
<text text-anchor="start" x="1261.78" y="-353.8" font-family="Times,serif" font-size="14.00">created_at :datetime</text>
<text text-anchor="start" x="1261.78" y="-339.8" font-family="Times,serif" font-size="14.00">updated_at :datetime</text>
</g>
<!-- Card&#45;&gt;CardResponsable -->
<g id="edge12" class="edge"><title>Card&#45;&gt;CardResponsable</title>
<path fill="none" stroke="#801f49" d="M1030.55,-754.732C1028.4,-657.586 1033.68,-547.94 1064.9,-512 1118.11,-450.739 1173.38,-516.154 1243.9,-476 1259.37,-467.191 1273.51,-454.463 1285.56,-441.27"/>
<ellipse fill="none" stroke="#801f49" cx="1030.65" cy="-758.895" rx="4" ry="4"/>
<polygon fill="#801f49" stroke="#801f49" points="1285.81,-440.986 1295.8,-436.446 1289.12,-437.231 1292.42,-433.475 1292.42,-433.475 1292.42,-433.475 1289.12,-437.231 1289.04,-430.504 1285.81,-440.986 1285.81,-440.986"/>
</g>
<!-- CardUser -->
<g id="node12" class="node"><title>CardUser</title>
<path fill="none" stroke="black" d="M643.843,-319C643.843,-319 769.95,-319 769.95,-319 775.95,-319 781.95,-325 781.95,-331 781.95,-331 781.95,-435 781.95,-435 781.95,-441 775.95,-447 769.95,-447 769.95,-447 643.843,-447 643.843,-447 637.843,-447 631.843,-441 631.843,-435 631.843,-435 631.843,-331 631.843,-331 631.843,-325 637.843,-319 643.843,-319"/>
<text text-anchor="middle" x="706.897" y="-431.8" font-family="Times,serif" font-size="14.00">CardUser</text>
<polyline fill="none" stroke="black" points="631.843,-425 781.95,-425 "/>
<text text-anchor="start" x="639.843" y="-409.8" font-family="Times,serif" font-size="14.00">id :integer</text>
<text text-anchor="start" x="639.843" y="-395.8" font-family="Times,serif" font-size="14.00">card_id :integer</text>
<text text-anchor="start" x="639.843" y="-381.8" font-family="Times,serif" font-size="14.00">user_id :integer</text>
<text text-anchor="start" x="639.843" y="-367.8" font-family="Times,serif" font-size="14.00">user_validated :boolean</text>
<text text-anchor="start" x="639.843" y="-353.8" font-family="Times,serif" font-size="14.00">card_validated :boolean</text>
<text text-anchor="start" x="639.843" y="-339.8" font-family="Times,serif" font-size="14.00">created_at :datetime</text>
<text text-anchor="start" x="639.843" y="-325.8" font-family="Times,serif" font-size="14.00">updated_at :datetime</text>
</g>
<!-- Card&#45;&gt;CardUser -->
<g id="edge20" class="edge"><title>Card&#45;&gt;CardUser</title>
<path fill="none" stroke="#7bf7a6" d="M962.258,-788.456C914.651,-707.516 852.081,-603.074 793.897,-512 782.042,-493.444 768.862,-473.652 756.419,-455.316"/>
<ellipse fill="none" stroke="#7bf7a6" cx="964.5" cy="-792.27" rx="4.00002" ry="4.00002"/>
<polygon fill="#7bf7a6" stroke="#7bf7a6" points="756.389,-455.271 754.482,-444.472 753.575,-451.137 750.762,-447.004 750.762,-447.004 750.762,-447.004 753.575,-451.137 747.042,-449.536 756.389,-455.271 756.389,-455.271"/>
</g>
<!-- CardVerification -->
<g id="node13" class="node"><title>CardVerification</title>
<path fill="none" stroke="black" d="M963.391,-333C963.391,-333 1072.4,-333 1072.4,-333 1078.4,-333 1084.4,-339 1084.4,-345 1084.4,-345 1084.4,-421 1084.4,-421 1084.4,-427 1078.4,-433 1072.4,-433 1072.4,-433 963.391,-433 963.391,-433 957.391,-433 951.391,-427 951.391,-421 951.391,-421 951.391,-345 951.391,-345 951.391,-339 957.391,-333 963.391,-333"/>
<text text-anchor="middle" x="1017.9" y="-417.8" font-family="Times,serif" font-size="14.00">CardVerification</text>
<polyline fill="none" stroke="black" points="951.391,-411 1084.4,-411 "/>
<text text-anchor="start" x="959.391" y="-395.8" font-family="Times,serif" font-size="14.00">id :integer</text>
<text text-anchor="start" x="959.391" y="-381.8" font-family="Times,serif" font-size="14.00">card_id :integer</text>
<text text-anchor="start" x="959.391" y="-367.8" font-family="Times,serif" font-size="14.00">user_id :integer</text>
<text text-anchor="start" x="959.391" y="-353.8" font-family="Times,serif" font-size="14.00">created_at :datetime</text>
<text text-anchor="start" x="959.391" y="-339.8" font-family="Times,serif" font-size="14.00">updated_at :datetime</text>
</g>
<!-- Card&#45;&gt;CardVerification -->
<g id="edge14" class="edge"><title>Card&#45;&gt;CardVerification</title>
<path fill="none" stroke="#622bf2" d="M993.412,-754.726C991.646,-745.055 990.114,-735.432 988.897,-726 976.717,-631.672 978.323,-606.522 988.897,-512 991.444,-489.226 996.466,-464.591 1001.62,-443.071"/>
<ellipse fill="none" stroke="#622bf2" cx="994.206" cy="-758.928" rx="4.00001" ry="4.00001"/>
<polygon fill="#622bf2" stroke="#622bf2" points="1001.69,-442.812 1008.45,-434.176 1002.88,-437.957 1004.08,-433.102 1004.08,-433.102 1004.08,-433.102 1002.88,-437.957 999.707,-432.027 1001.69,-442.812 1001.69,-442.812"/>
</g>
<!-- Responsable -->
<g id="node27" class="node"><title>Responsable</title>
<path fill="none" stroke="black" d="M1119.39,-562C1119.39,-562 1228.4,-562 1228.4,-562 1234.4,-562 1240.4,-568 1240.4,-574 1240.4,-574 1240.4,-664 1240.4,-664 1240.4,-670 1234.4,-676 1228.4,-676 1228.4,-676 1119.39,-676 1119.39,-676 1113.39,-676 1107.39,-670 1107.39,-664 1107.39,-664 1107.39,-574 1107.39,-574 1107.39,-568 1113.39,-562 1119.39,-562"/>
<text text-anchor="middle" x="1173.9" y="-660.8" font-family="Times,serif" font-size="14.00">Responsable</text>
<polyline fill="none" stroke="black" points="1107.39,-654 1240.4,-654 "/>
<text text-anchor="start" x="1115.39" y="-638.8" font-family="Times,serif" font-size="14.00">id :integer</text>
<text text-anchor="start" x="1115.39" y="-624.8" font-family="Times,serif" font-size="14.00">firstname :string</text>
<text text-anchor="start" x="1115.39" y="-610.8" font-family="Times,serif" font-size="14.00">lastname :string</text>
<text text-anchor="start" x="1115.39" y="-596.8" font-family="Times,serif" font-size="14.00">email :string</text>
<text text-anchor="start" x="1115.39" y="-582.8" font-family="Times,serif" font-size="14.00">created_at :datetime</text>
<text text-anchor="start" x="1115.39" y="-568.8" font-family="Times,serif" font-size="14.00">updated_at :datetime</text>
</g>
<!-- Card&#45;&gt;Responsable -->
<g id="edge13" class="edge"><title>Card&#45;&gt;Responsable</title>
<path fill="none" stroke="#54188c" d="M1115.62,-753.193C1126.13,-729.179 1136.36,-705.801 1145.24,-685.507"/>
<polygon fill="#54188c" stroke="#54188c" points="1115.49,-753.492 1107.36,-760.85 1113.49,-758.073 1111.49,-762.654 1111.49,-762.654 1111.49,-762.654 1113.49,-758.073 1115.61,-764.457 1115.49,-753.492 1115.49,-753.492"/>
<polygon fill="#54188c" stroke="#54188c" points="1145.34,-685.268 1153.47,-677.91 1147.35,-680.687 1149.35,-676.106 1149.35,-676.106 1149.35,-676.106 1147.35,-680.687 1145.23,-674.303 1145.34,-685.268 1145.34,-685.268"/>
</g>
<!-- Tag -->
<g id="node30" class="node"><title>Tag</title>
<path fill="none" stroke="black" d="M1461.39,-569C1461.39,-569 1570.4,-569 1570.4,-569 1576.4,-569 1582.4,-575 1582.4,-581 1582.4,-581 1582.4,-657 1582.4,-657 1582.4,-663 1576.4,-669 1570.4,-669 1570.4,-669 1461.39,-669 1461.39,-669 1455.39,-669 1449.39,-663 1449.39,-657 1449.39,-657 1449.39,-581 1449.39,-581 1449.39,-575 1455.39,-569 1461.39,-569"/>
<text text-anchor="middle" x="1515.9" y="-653.8" font-family="Times,serif" font-size="14.00">Tag</text>
<polyline fill="none" stroke="black" points="1449.39,-647 1582.4,-647 "/>
<text text-anchor="start" x="1457.39" y="-631.8" font-family="Times,serif" font-size="14.00">id :integer</text>
<text text-anchor="start" x="1457.39" y="-617.8" font-family="Times,serif" font-size="14.00">name :string</text>
<text text-anchor="start" x="1457.39" y="-603.8" font-family="Times,serif" font-size="14.00">popularity :integer</text>
<text text-anchor="start" x="1457.39" y="-589.8" font-family="Times,serif" font-size="14.00">created_at :datetime</text>
<text text-anchor="start" x="1457.39" y="-575.8" font-family="Times,serif" font-size="14.00">updated_at :datetime</text>
</g>
<!-- Card&#45;&gt;Tag -->
<g id="edge18" class="edge"><title>Card&#45;&gt;Tag</title>
<path fill="none" stroke="#0f8004" d="M1124.31,-885.603C1199.8,-849.178 1312.51,-790.537 1401.9,-726 1422.22,-711.327 1442.78,-693.372 1460.74,-676.439"/>
<polygon fill="#0f8004" stroke="#0f8004" points="1124.31,-885.604 1113.35,-885.877 1119.8,-887.769 1115.3,-889.934 1115.3,-889.934 1115.3,-889.934 1119.8,-887.769 1117.24,-893.99 1124.31,-885.604 1124.31,-885.604"/>
<polygon fill="#0f8004" stroke="#0f8004" points="1461.03,-676.16 1471.37,-672.514 1464.65,-672.708 1468.27,-669.257 1468.27,-669.257 1468.27,-669.257 1464.65,-672.708 1465.16,-666.001 1461.03,-676.16 1461.03,-676.16"/>
</g>
<!-- Tagging -->
<g id="node31" class="node"><title>Tagging</title>
<path fill="none" stroke="black" d="M1461.39,-333C1461.39,-333 1570.4,-333 1570.4,-333 1576.4,-333 1582.4,-339 1582.4,-345 1582.4,-345 1582.4,-421 1582.4,-421 1582.4,-427 1576.4,-433 1570.4,-433 1570.4,-433 1461.39,-433 1461.39,-433 1455.39,-433 1449.39,-427 1449.39,-421 1449.39,-421 1449.39,-345 1449.39,-345 1449.39,-339 1455.39,-333 1461.39,-333"/>
<text text-anchor="middle" x="1515.9" y="-417.8" font-family="Times,serif" font-size="14.00">Tagging</text>
<polyline fill="none" stroke="black" points="1449.39,-411 1582.4,-411 "/>
<text text-anchor="start" x="1457.39" y="-395.8" font-family="Times,serif" font-size="14.00">id :integer</text>
<text text-anchor="start" x="1457.39" y="-381.8" font-family="Times,serif" font-size="14.00">card_id :integer</text>
<text text-anchor="start" x="1457.39" y="-367.8" font-family="Times,serif" font-size="14.00">tag_id :integer</text>
<text text-anchor="start" x="1457.39" y="-353.8" font-family="Times,serif" font-size="14.00">created_at :datetime</text>
<text text-anchor="start" x="1457.39" y="-339.8" font-family="Times,serif" font-size="14.00">updated_at :datetime</text>
</g>
<!-- Card&#45;&gt;Tagging -->
<g id="edge17" class="edge"><title>Card&#45;&gt;Tagging</title>
<path fill="none" stroke="#f678e1" d="M1059.57,-754.597C1072.44,-644.93 1088.8,-520.897 1097.9,-512 1147.64,-463.355 1345.17,-503.905 1408.9,-476 1428.47,-467.429 1447.13,-454.018 1463.22,-440.06"/>
<ellipse fill="none" stroke="#f678e1" cx="1059.07" cy="-758.828" rx="4.00001" ry="4.00001"/>
<polygon fill="#f678e1" stroke="#f678e1" points="1463.46,-439.851 1473.91,-436.537 1467.18,-436.517 1470.91,-433.183 1470.91,-433.183 1470.91,-433.183 1467.18,-436.517 1467.91,-429.829 1463.46,-439.851 1463.46,-439.851"/>
</g>
<!-- User -->
<g id="node33" class="node"><title>User</title>
<path fill="none" stroke="black" d="M628.833,-513C628.833,-513 754.96,-513 754.96,-513 760.96,-513 766.96,-519 766.96,-525 766.96,-525 766.96,-713 766.96,-713 766.96,-719 760.96,-725 754.96,-725 754.96,-725 628.833,-725 628.833,-725 622.833,-725 616.833,-719 616.833,-713 616.833,-713 616.833,-525 616.833,-525 616.833,-519 622.833,-513 628.833,-513"/>
<text text-anchor="middle" x="691.897" y="-709.8" font-family="Times,serif" font-size="14.00">User</text>
<polyline fill="none" stroke="black" points="616.833,-703 766.96,-703 "/>
<text text-anchor="start" x="624.833" y="-687.8" font-family="Times,serif" font-size="14.00">id :integer</text>
<text text-anchor="start" x="624.833" y="-673.8" font-family="Times,serif" font-size="14.00">email :string</text>
<text text-anchor="start" x="624.833" y="-659.8" font-family="Times,serif" font-size="14.00">gravatar_email :string</text>
<text text-anchor="start" x="624.833" y="-645.8" font-family="Times,serif" font-size="14.00">password_digest :string</text>
<text text-anchor="start" x="624.833" y="-631.8" font-family="Times,serif" font-size="14.00">remember_token :string</text>
<text text-anchor="start" x="624.833" y="-617.8" font-family="Times,serif" font-size="14.00">user_type_id :integer</text>
<text text-anchor="start" x="624.833" y="-603.8" font-family="Times,serif" font-size="14.00">uid :string</text>
<text text-anchor="start" x="624.833" y="-589.8" font-family="Times,serif" font-size="14.00">created_at :datetime</text>
<text text-anchor="start" x="624.833" y="-575.8" font-family="Times,serif" font-size="14.00">updated_at :datetime</text>
<text text-anchor="start" x="624.833" y="-561.8" font-family="Times,serif" font-size="14.00">reset_token :string</text>
<text text-anchor="start" x="624.833" y="-547.8" font-family="Times,serif" font-size="14.00">reset_sent_at :datetime</text>
<text text-anchor="start" x="624.833" y="-533.8" font-family="Times,serif" font-size="14.00">firstname :string</text>
<text text-anchor="start" x="624.833" y="-519.8" font-family="Times,serif" font-size="14.00">lastname :string</text>
</g>
<!-- Card&#45;&gt;User -->
<g id="edge15" class="edge"><title>Card&#45;&gt;User</title>
<path fill="none" stroke="#0f21be" d="M958.744,-857.402C903.315,-810.258 830.474,-746.889 774.875,-697.48"/>
<polygon fill="#0f21be" stroke="#0f21be" points="958.82,-857.466 963.529,-867.369 962.631,-860.703 966.442,-863.939 966.442,-863.939 966.442,-863.939 962.631,-860.703 969.355,-860.509 958.82,-857.466 958.82,-857.466"/>
<polygon fill="#0f21be" stroke="#0f21be" points="774.618,-697.251 770.139,-687.242 770.883,-693.927 767.148,-690.604 767.148,-690.604 767.148,-690.604 770.883,-693.927 764.156,-693.965 774.618,-697.251 774.618,-697.251"/>
</g>
<!-- VerificatorComment -->
<g id="node35" class="node"><title>VerificatorComment</title>
<path fill="none" stroke="black" d="M1114.39,-326C1114.39,-326 1223.4,-326 1223.4,-326 1229.4,-326 1235.4,-332 1235.4,-338 1235.4,-338 1235.4,-428 1235.4,-428 1235.4,-434 1229.4,-440 1223.4,-440 1223.4,-440 1114.39,-440 1114.39,-440 1108.39,-440 1102.39,-434 1102.39,-428 1102.39,-428 1102.39,-338 1102.39,-338 1102.39,-332 1108.39,-326 1114.39,-326"/>
<text text-anchor="middle" x="1168.9" y="-424.8" font-family="Times,serif" font-size="14.00">VerificatorComment</text>
<polyline fill="none" stroke="black" points="1102.39,-418 1235.4,-418 "/>
<text text-anchor="start" x="1110.39" y="-402.8" font-family="Times,serif" font-size="14.00">id :integer</text>
<text text-anchor="start" x="1110.39" y="-388.8" font-family="Times,serif" font-size="14.00">content :text</text>
<text text-anchor="start" x="1110.39" y="-374.8" font-family="Times,serif" font-size="14.00">user_id :integer</text>
<text text-anchor="start" x="1110.39" y="-360.8" font-family="Times,serif" font-size="14.00">card_id :integer</text>
<text text-anchor="start" x="1110.39" y="-346.8" font-family="Times,serif" font-size="14.00">created_at :datetime</text>
<text text-anchor="start" x="1110.39" y="-332.8" font-family="Times,serif" font-size="14.00">updated_at :datetime</text>
</g>
<!-- Card&#45;&gt;VerificatorComment -->
<g id="edge19" class="edge"><title>Card&#45;&gt;VerificatorComment</title>
<path fill="none" stroke="#4773d2" d="M1017.12,-755.007C1007.22,-659.953 1002.89,-552.442 1026.9,-512 1043.95,-483.268 1067.12,-497.265 1092.9,-476 1102.96,-467.7 1112.66,-457.918 1121.59,-447.886"/>
<ellipse fill="none" stroke="#4773d2" cx="1017.55" cy="-759.014" rx="4" ry="4"/>
<polygon fill="#4773d2" stroke="#4773d2" points="1121.7,-447.749 1131.65,-443.13 1124.98,-443.967 1128.25,-440.186 1128.25,-440.186 1128.25,-440.186 1124.98,-443.967 1124.84,-437.242 1121.7,-447.749 1121.7,-447.749"/>
</g>
<!-- CardType -->
<g id="node11" class="node"><title>CardType</title>
<path fill="none" stroke="black" d="M934.391,-1132C934.391,-1132 1043.4,-1132 1043.4,-1132 1049.4,-1132 1055.4,-1138 1055.4,-1144 1055.4,-1144 1055.4,-1206 1055.4,-1206 1055.4,-1212 1049.4,-1218 1043.4,-1218 1043.4,-1218 934.391,-1218 934.391,-1218 928.391,-1218 922.391,-1212 922.391,-1206 922.391,-1206 922.391,-1144 922.391,-1144 922.391,-1138 928.391,-1132 934.391,-1132"/>
<text text-anchor="middle" x="988.897" y="-1202.8" font-family="Times,serif" font-size="14.00">CardType</text>
<polyline fill="none" stroke="black" points="922.391,-1196 1055.4,-1196 "/>
<text text-anchor="start" x="930.391" y="-1180.8" font-family="Times,serif" font-size="14.00">id :integer</text>
<text text-anchor="start" x="930.391" y="-1166.8" font-family="Times,serif" font-size="14.00">name :string</text>
<text text-anchor="start" x="930.391" y="-1152.8" font-family="Times,serif" font-size="14.00">created_at :datetime</text>
<text text-anchor="start" x="930.391" y="-1138.8" font-family="Times,serif" font-size="14.00">updated_at :datetime</text>
</g>
<!-- CardType&#45;&gt;Card -->
<g id="edge25" class="edge"><title>CardType&#45;&gt;Card</title>
<path fill="none" stroke="#73f165" d="M999.382,-1123.99C1001.13,-1115.66 1003.02,-1106.63 1005.01,-1097.17"/>
<ellipse fill="none" stroke="#73f165" cx="998.538" cy="-1128.02" rx="4.00001" ry="4.00001"/>
<polygon fill="#73f165" stroke="#73f165" points="1005.05,-1096.95 1011.51,-1088.09 1006.08,-1092.06 1007.1,-1087.17 1007.1,-1087.17 1007.1,-1087.17 1006.08,-1092.06 1002.7,-1086.24 1005.05,-1096.95 1005.05,-1096.95"/>
</g>
<!-- Disponibility -->
<g id="node14" class="node"><title>Disponibility</title>
<path fill="none" stroke="black" d="M1689.39,-576C1689.39,-576 1798.4,-576 1798.4,-576 1804.4,-576 1810.4,-582 1810.4,-588 1810.4,-588 1810.4,-650 1810.4,-650 1810.4,-656 1804.4,-662 1798.4,-662 1798.4,-662 1689.39,-662 1689.39,-662 1683.39,-662 1677.39,-656 1677.39,-650 1677.39,-650 1677.39,-588 1677.39,-588 1677.39,-582 1683.39,-576 1689.39,-576"/>
<text text-anchor="middle" x="1743.9" y="-646.8" font-family="Times,serif" font-size="14.00">Disponibility</text>
<polyline fill="none" stroke="black" points="1677.39,-640 1810.4,-640 "/>
<text text-anchor="start" x="1685.39" y="-624.8" font-family="Times,serif" font-size="14.00">id :integer</text>
<text text-anchor="start" x="1685.39" y="-610.8" font-family="Times,serif" font-size="14.00">name :string</text>
<text text-anchor="start" x="1685.39" y="-596.8" font-family="Times,serif" font-size="14.00">created_at :datetime</text>
<text text-anchor="start" x="1685.39" y="-582.8" font-family="Times,serif" font-size="14.00">updated_at :datetime</text>
</g>
<!-- Orator -->
<g id="node17" class="node"><title>Orator</title>
<path fill="none" stroke="black" d="M1727.39,-312C1727.39,-312 1836.4,-312 1836.4,-312 1842.4,-312 1848.4,-318 1848.4,-324 1848.4,-324 1848.4,-442 1848.4,-442 1848.4,-448 1842.4,-454 1836.4,-454 1836.4,-454 1727.39,-454 1727.39,-454 1721.39,-454 1715.39,-448 1715.39,-442 1715.39,-442 1715.39,-324 1715.39,-324 1715.39,-318 1721.39,-312 1727.39,-312"/>
<text text-anchor="middle" x="1781.9" y="-438.8" font-family="Times,serif" font-size="14.00">Orator</text>
<polyline fill="none" stroke="black" points="1715.39,-432 1848.4,-432 "/>
<text text-anchor="start" x="1723.39" y="-416.8" font-family="Times,serif" font-size="14.00">id :integer</text>
<text text-anchor="start" x="1723.39" y="-402.8" font-family="Times,serif" font-size="14.00">user_id :integer</text>
<text text-anchor="start" x="1723.39" y="-388.8" font-family="Times,serif" font-size="14.00">street :string</text>
<text text-anchor="start" x="1723.39" y="-374.8" font-family="Times,serif" font-size="14.00">location_id :integer</text>
<text text-anchor="start" x="1723.39" y="-360.8" font-family="Times,serif" font-size="14.00">phone :string</text>
<text text-anchor="start" x="1723.39" y="-346.8" font-family="Times,serif" font-size="14.00">disponibility :string</text>
<text text-anchor="start" x="1723.39" y="-332.8" font-family="Times,serif" font-size="14.00">created_at :datetime</text>
<text text-anchor="start" x="1723.39" y="-318.8" font-family="Times,serif" font-size="14.00">updated_at :datetime</text>
</g>
<!-- Disponibility&#45;&gt;Orator -->
<g id="edge30" class="edge"><title>Disponibility&#45;&gt;Orator</title>
<path fill="none" stroke="#97d743" d="M1752.34,-566.024C1757.18,-536.199 1763.37,-498.113 1768.82,-464.496"/>
<polygon fill="#97d743" stroke="#97d743" points="1752.34,-566.025 1746.29,-575.174 1751.54,-570.96 1750.73,-575.895 1750.73,-575.895 1750.73,-575.895 1751.54,-570.96 1755.18,-576.617 1752.34,-566.025 1752.34,-566.025"/>
<polygon fill="#97d743" stroke="#97d743" points="1768.89,-464.091 1774.93,-454.942 1769.69,-459.156 1770.49,-454.221 1770.49,-454.221 1770.49,-454.221 1769.69,-459.156 1766.05,-453.499 1768.89,-464.091 1768.89,-464.091"/>
</g>
<!-- OratorDisponibility -->
<g id="node18" class="node"><title>OratorDisponibility</title>
<path fill="none" stroke="black" d="M1619.43,-146C1619.43,-146 1746.36,-146 1746.36,-146 1752.36,-146 1758.36,-152 1758.36,-158 1758.36,-158 1758.36,-234 1758.36,-234 1758.36,-240 1752.36,-246 1746.36,-246 1746.36,-246 1619.43,-246 1619.43,-246 1613.43,-246 1607.43,-240 1607.43,-234 1607.43,-234 1607.43,-158 1607.43,-158 1607.43,-152 1613.43,-146 1619.43,-146"/>
<text text-anchor="middle" x="1682.9" y="-230.8" font-family="Times,serif" font-size="14.00">OratorDisponibility</text>
<polyline fill="none" stroke="black" points="1607.43,-224 1758.36,-224 "/>
<text text-anchor="start" x="1615.43" y="-208.8" font-family="Times,serif" font-size="14.00">id :integer</text>
<text text-anchor="start" x="1615.43" y="-194.8" font-family="Times,serif" font-size="14.00">orator_id :integer</text>
<text text-anchor="start" x="1615.43" y="-180.8" font-family="Times,serif" font-size="14.00">disponibility_id :integer</text>
<text text-anchor="start" x="1615.43" y="-166.8" font-family="Times,serif" font-size="14.00">created_at :datetime</text>
<text text-anchor="start" x="1615.43" y="-152.8" font-family="Times,serif" font-size="14.00">updated_at :datetime</text>
</g>
<!-- Disponibility&#45;&gt;OratorDisponibility -->
<g id="edge29" class="edge"><title>Disponibility&#45;&gt;OratorDisponibility</title>
<path fill="none" stroke="#a2ab81" d="M1728.19,-568.099C1720.29,-541.097 1711.28,-507.009 1705.9,-476 1692.87,-400.942 1687.17,-313.203 1684.71,-256.451"/>
<ellipse fill="none" stroke="#a2ab81" cx="1729.36" cy="-572.044" rx="4.00001" ry="4.00001"/>
<polygon fill="#a2ab81" stroke="#a2ab81" points="1684.7,-256.216 1688.79,-246.038 1684.5,-251.22 1684.29,-246.224 1684.29,-246.224 1684.29,-246.224 1684.5,-251.22 1679.79,-246.41 1684.7,-256.216 1684.7,-256.216"/>
</g>
<!-- Element -->
<g id="node15" class="node"><title>Element</title>
<path fill="none" stroke="black" d="M287.391,-882C287.391,-882 396.402,-882 396.402,-882 402.402,-882 408.402,-888 408.402,-894 408.402,-894 408.402,-956 408.402,-956 408.402,-962 402.402,-968 396.402,-968 396.402,-968 287.391,-968 287.391,-968 281.391,-968 275.391,-962 275.391,-956 275.391,-956 275.391,-894 275.391,-894 275.391,-888 281.391,-882 287.391,-882"/>
<text text-anchor="middle" x="341.897" y="-952.8" font-family="Times,serif" font-size="14.00">Element</text>
<polyline fill="none" stroke="black" points="275.391,-946 408.402,-946 "/>
<text text-anchor="start" x="283.391" y="-930.8" font-family="Times,serif" font-size="14.00">id :integer</text>
<text text-anchor="start" x="283.391" y="-916.8" font-family="Times,serif" font-size="14.00">name :string</text>
<text text-anchor="start" x="283.391" y="-902.8" font-family="Times,serif" font-size="14.00">created_at :datetime</text>
<text text-anchor="start" x="283.391" y="-888.8" font-family="Times,serif" font-size="14.00">updated_at :datetime</text>
</g>
<!-- Element&#45;&gt;Ownership -->
<g id="edge32" class="edge"><title>Element&#45;&gt;Ownership</title>
<path fill="none" stroke="#7f00be" d="M337.638,-873.384C329.719,-794.074 308.953,-636.695 260.897,-512 257.329,-502.744 253.109,-493.397 248.511,-484.191"/>
<ellipse fill="none" stroke="#7f00be" cx="338.064" cy="-877.756" rx="4" ry="4"/>
<polygon fill="#7f00be" stroke="#7f00be" points="248.377,-483.932 247.797,-472.981 246.087,-479.487 243.797,-475.042 243.797,-475.042 243.797,-475.042 246.087,-479.487 239.796,-477.104 248.377,-483.932 248.377,-483.932"/>
</g>
<!-- Orator&#45;&gt;OratorDisponibility -->
<g id="edge37" class="edge"><title>Orator&#45;&gt;OratorDisponibility</title>
<path fill="none" stroke="#2349e1" d="M1740.46,-304.562C1731.61,-288.035 1722.42,-270.849 1714.04,-255.192"/>
<ellipse fill="none" stroke="#2349e1" cx="1742.44" cy="-308.269" rx="4.00002" ry="4.00002"/>
<polygon fill="#2349e1" stroke="#2349e1" points="1713.93,-254.983 1713.17,-244.043 1711.57,-250.574 1709.21,-246.166 1709.21,-246.166 1709.21,-246.166 1711.57,-250.574 1705.24,-248.289 1713.93,-254.983 1713.93,-254.983"/>
</g>
<!-- OratorTheme -->
<g id="node19" class="node"><title>OratorTheme</title>
<path fill="none" stroke="black" d="M1826.39,-1C1826.39,-1 1935.4,-1 1935.4,-1 1941.4,-1 1947.4,-7 1947.4,-13 1947.4,-13 1947.4,-89 1947.4,-89 1947.4,-95 1941.4,-101 1935.4,-101 1935.4,-101 1826.39,-101 1826.39,-101 1820.39,-101 1814.39,-95 1814.39,-89 1814.39,-89 1814.39,-13 1814.39,-13 1814.39,-7 1820.39,-1 1826.39,-1"/>
<text text-anchor="middle" x="1880.9" y="-85.8" font-family="Times,serif" font-size="14.00">OratorTheme</text>
<polyline fill="none" stroke="black" points="1814.39,-79 1947.4,-79 "/>
<text text-anchor="start" x="1822.39" y="-63.8" font-family="Times,serif" font-size="14.00">id :integer</text>
<text text-anchor="start" x="1822.39" y="-49.8" font-family="Times,serif" font-size="14.00">orator_id :integer</text>
<text text-anchor="start" x="1822.39" y="-35.8" font-family="Times,serif" font-size="14.00">theme_id :integer</text>
<text text-anchor="start" x="1822.39" y="-21.8" font-family="Times,serif" font-size="14.00">created_at :datetime</text>
<text text-anchor="start" x="1822.39" y="-7.8" font-family="Times,serif" font-size="14.00">updated_at :datetime</text>
</g>
<!-- Orator&#45;&gt;OratorTheme -->
<g id="edge35" class="edge"><title>Orator&#45;&gt;OratorTheme</title>
<path fill="none" stroke="#b29d48" d="M1777.14,-303.733C1777.02,-254.298 1782.3,-190.146 1804.9,-138 1809.26,-127.922 1815.27,-118.196 1822.02,-109.138"/>
<ellipse fill="none" stroke="#b29d48" cx="1777.18" cy="-307.848" rx="4" ry="4"/>
<polygon fill="#b29d48" stroke="#b29d48" points="1822.22,-108.884 1831.93,-103.795 1825.3,-104.951 1828.39,-101.017 1828.39,-101.017 1828.39,-101.017 1825.3,-104.951 1824.85,-98.2392 1822.22,-108.884 1822.22,-108.884"/>
</g>
<!-- Theme -->
<g id="node32" class="node"><title>Theme</title>
<path fill="none" stroke="black" d="M1826.39,-146C1826.39,-146 1935.4,-146 1935.4,-146 1941.4,-146 1947.4,-152 1947.4,-158 1947.4,-158 1947.4,-234 1947.4,-234 1947.4,-240 1941.4,-246 1935.4,-246 1935.4,-246 1826.39,-246 1826.39,-246 1820.39,-246 1814.39,-240 1814.39,-234 1814.39,-234 1814.39,-158 1814.39,-158 1814.39,-152 1820.39,-146 1826.39,-146"/>
<text text-anchor="middle" x="1880.9" y="-230.8" font-family="Times,serif" font-size="14.00">Theme</text>
<polyline fill="none" stroke="black" points="1814.39,-224 1947.4,-224 "/>
<text text-anchor="start" x="1822.39" y="-208.8" font-family="Times,serif" font-size="14.00">id :integer</text>
<text text-anchor="start" x="1822.39" y="-194.8" font-family="Times,serif" font-size="14.00">name :string</text>
<text text-anchor="start" x="1822.39" y="-180.8" font-family="Times,serif" font-size="14.00">description :text</text>
<text text-anchor="start" x="1822.39" y="-166.8" font-family="Times,serif" font-size="14.00">created_at :datetime</text>
<text text-anchor="start" x="1822.39" y="-152.8" font-family="Times,serif" font-size="14.00">updated_at :datetime</text>
</g>
<!-- Orator&#45;&gt;Theme -->
<g id="edge36" class="edge"><title>Orator&#45;&gt;Theme</title>
<path fill="none" stroke="#31515a" d="M1824.31,-302.738C1832.83,-286.825 1841.63,-270.378 1849.68,-255.334"/>
<polygon fill="#31515a" stroke="#31515a" points="1824.18,-302.979 1815.5,-309.672 1821.82,-307.387 1819.47,-311.796 1819.47,-311.796 1819.47,-311.796 1821.82,-307.387 1823.43,-313.919 1824.18,-302.979 1824.18,-302.979"/>
<polygon fill="#31515a" stroke="#31515a" points="1849.87,-254.983 1858.55,-248.289 1852.23,-250.574 1854.59,-246.166 1854.59,-246.166 1854.59,-246.166 1852.23,-250.574 1850.62,-244.043 1849.87,-254.983 1849.87,-254.983"/>
</g>
<!-- Ownership&#45;&gt;AccessToken -->
<g id="edge42" class="edge"><title>Ownership&#45;&gt;AccessToken</title>
<path fill="none" stroke="#e20d08" d="M225.501,-283.323C228.427,-276.384 231.333,-269.491 234.153,-262.801"/>
<ellipse fill="none" stroke="#e20d08" cx="223.879" cy="-287.169" rx="4.00002" ry="4.00002"/>
<polygon fill="#e20d08" stroke="#e20d08" points="234.331,-262.379 242.363,-254.913 236.274,-257.772 238.216,-253.165 238.216,-253.165 238.216,-253.165 236.274,-257.772 234.07,-251.416 234.331,-262.379 234.331,-262.379"/>
</g>
<!-- Ownership&#45;&gt;OwnershipAction -->
<g id="edge41" class="edge"><title>Ownership&#45;&gt;OwnershipAction</title>
<path fill="none" stroke="#30ed10" d="M123.839,-283.675C117.864,-273.894 111.943,-264.201 106.344,-255.034"/>
<ellipse fill="none" stroke="#30ed10" cx="126.139" cy="-287.441" rx="4.00002" ry="4.00002"/>
<polygon fill="#30ed10" stroke="#30ed10" points="106.296,-254.955 104.924,-244.075 103.69,-250.688 101.083,-246.421 101.083,-246.421 101.083,-246.421 103.69,-250.688 97.243,-248.767 106.296,-254.955 106.296,-254.955"/>
</g>
<!-- OwnershipType -->
<g id="node22" class="node"><title>OwnershipType</title>
<path fill="none" stroke="black" d="M149.391,-1132C149.391,-1132 258.402,-1132 258.402,-1132 264.402,-1132 270.402,-1138 270.402,-1144 270.402,-1144 270.402,-1206 270.402,-1206 270.402,-1212 264.402,-1218 258.402,-1218 258.402,-1218 149.391,-1218 149.391,-1218 143.391,-1218 137.391,-1212 137.391,-1206 137.391,-1206 137.391,-1144 137.391,-1144 137.391,-1138 143.391,-1132 149.391,-1132"/>
<text text-anchor="middle" x="203.897" y="-1202.8" font-family="Times,serif" font-size="14.00">OwnershipType</text>
<polyline fill="none" stroke="black" points="137.391,-1196 270.402,-1196 "/>
<text text-anchor="start" x="145.391" y="-1180.8" font-family="Times,serif" font-size="14.00">id :integer</text>
<text text-anchor="start" x="145.391" y="-1166.8" font-family="Times,serif" font-size="14.00">name :string</text>
<text text-anchor="start" x="145.391" y="-1152.8" font-family="Times,serif" font-size="14.00">created_at :datetime</text>
<text text-anchor="start" x="145.391" y="-1138.8" font-family="Times,serif" font-size="14.00">updated_at :datetime</text>
</g>
<!-- OwnershipType&#45;&gt;Ownership -->
<g id="edge45" class="edge"><title>OwnershipType&#45;&gt;Ownership</title>
<path fill="none" stroke="#540ced" d="M202.619,-1123.52C199.376,-995.455 190.782,-655.964 186.457,-485.156"/>
<ellipse fill="none" stroke="#540ced" cx="202.727" cy="-1127.81" rx="4" ry="4"/>
<polygon fill="#540ced" stroke="#540ced" points="186.457,-485.149 190.703,-475.038 186.331,-480.15 186.204,-475.152 186.204,-475.152 186.204,-475.152 186.331,-480.15 181.706,-475.266 186.457,-485.149 186.457,-485.149"/>
</g>
<!-- Page -->
<g id="node23" class="node"><title>Page</title>
<path fill="none" stroke="black" d="M2349.39,-1125C2349.39,-1125 2458.4,-1125 2458.4,-1125 2464.4,-1125 2470.4,-1131 2470.4,-1137 2470.4,-1137 2470.4,-1213 2470.4,-1213 2470.4,-1219 2464.4,-1225 2458.4,-1225 2458.4,-1225 2349.39,-1225 2349.39,-1225 2343.39,-1225 2337.39,-1219 2337.39,-1213 2337.39,-1213 2337.39,-1137 2337.39,-1137 2337.39,-1131 2343.39,-1125 2349.39,-1125"/>
<text text-anchor="middle" x="2403.9" y="-1209.8" font-family="Times,serif" font-size="14.00">Page</text>
<polyline fill="none" stroke="black" points="2337.39,-1203 2470.4,-1203 "/>
<text text-anchor="start" x="2345.39" y="-1187.8" font-family="Times,serif" font-size="14.00">id :integer</text>
<text text-anchor="start" x="2345.39" y="-1173.8" font-family="Times,serif" font-size="14.00">name :string</text>
<text text-anchor="start" x="2345.39" y="-1159.8" font-family="Times,serif" font-size="14.00">content :text</text>
<text text-anchor="start" x="2345.39" y="-1145.8" font-family="Times,serif" font-size="14.00">created_at :datetime</text>
<text text-anchor="start" x="2345.39" y="-1131.8" font-family="Times,serif" font-size="14.00">updated_at :datetime</text>
</g>
<!-- Parent -->
<g id="node24" class="node"><title>Parent</title>
<path fill="none" stroke="black" d="M812.391,-333C812.391,-333 921.402,-333 921.402,-333 927.402,-333 933.402,-339 933.402,-345 933.402,-345 933.402,-421 933.402,-421 933.402,-427 927.402,-433 921.402,-433 921.402,-433 812.391,-433 812.391,-433 806.391,-433 800.391,-427 800.391,-421 800.391,-421 800.391,-345 800.391,-345 800.391,-339 806.391,-333 812.391,-333"/>
<text text-anchor="middle" x="866.897" y="-417.8" font-family="Times,serif" font-size="14.00">Parent</text>
<polyline fill="none" stroke="black" points="800.391,-411 933.402,-411 "/>
<text text-anchor="start" x="808.391" y="-395.8" font-family="Times,serif" font-size="14.00">id :integer</text>
<text text-anchor="start" x="808.391" y="-381.8" font-family="Times,serif" font-size="14.00">user_id :integer</text>
<text text-anchor="start" x="808.391" y="-367.8" font-family="Times,serif" font-size="14.00">parent_id :integer</text>
<text text-anchor="start" x="808.391" y="-353.8" font-family="Times,serif" font-size="14.00">created_at :datetime</text>
<text text-anchor="start" x="808.391" y="-339.8" font-family="Times,serif" font-size="14.00">updated_at :datetime</text>
</g>
<!-- Permission -->
<g id="node25" class="node"><title>Permission</title>
<polygon fill="none" stroke="black" points="2488.78,-1153 2488.78,-1197 2567.01,-1197 2567.01,-1153 2488.78,-1153"/>
<text text-anchor="middle" x="2527.9" y="-1181.8" font-family="Times,serif" font-size="14.00">Permission</text>
<polyline fill="none" stroke="black" points="2488.78,-1175 2567.01,-1175 "/>
<text text-anchor="middle" x="2527.9" y="-1159.8" font-family="Times,serif" font-size="14.00"> </text>
</g>
<!-- Resource -->
<g id="node26" class="node"><title>Resource</title>
<path fill="none" stroke="black" d="M1803.39,-868C1803.39,-868 1912.4,-868 1912.4,-868 1918.4,-868 1924.4,-874 1924.4,-880 1924.4,-880 1924.4,-970 1924.4,-970 1924.4,-976 1918.4,-982 1912.4,-982 1912.4,-982 1803.39,-982 1803.39,-982 1797.39,-982 1791.39,-976 1791.39,-970 1791.39,-970 1791.39,-880 1791.39,-880 1791.39,-874 1797.39,-868 1803.39,-868"/>
<text text-anchor="middle" x="1857.9" y="-966.8" font-family="Times,serif" font-size="14.00">Resource</text>
<polyline fill="none" stroke="black" points="1791.39,-960 1924.4,-960 "/>
<text text-anchor="start" x="1799.39" y="-944.8" font-family="Times,serif" font-size="14.00">id :integer</text>
<text text-anchor="start" x="1799.39" y="-930.8" font-family="Times,serif" font-size="14.00">name :string</text>
<text text-anchor="start" x="1799.39" y="-916.8" font-family="Times,serif" font-size="14.00">file :string</text>
<text text-anchor="start" x="1799.39" y="-902.8" font-family="Times,serif" font-size="14.00">created_at :datetime</text>
<text text-anchor="start" x="1799.39" y="-888.8" font-family="Times,serif" font-size="14.00">updated_at :datetime</text>
<text text-anchor="start" x="1799.39" y="-874.8" font-family="Times,serif" font-size="14.00">subject_id :integer</text>
</g>
<!-- Responsable&#45;&gt;CardResponsable -->
<g id="edge51" class="edge"><title>Responsable&#45;&gt;CardResponsable</title>
<path fill="none" stroke="#ea277f" d="M1215.13,-554.934C1238.17,-519.696 1266.68,-476.103 1289.13,-441.76"/>
<ellipse fill="none" stroke="#ea277f" cx="1212.73" cy="-558.603" rx="4.00002" ry="4.00002"/>
<polygon fill="#ea277f" stroke="#ea277f" points="1289.23,-441.609 1298.47,-435.702 1291.97,-437.424 1294.7,-433.239 1294.7,-433.239 1294.7,-433.239 1291.97,-437.424 1290.94,-430.776 1289.23,-441.609 1289.23,-441.609"/>
</g>
<!-- Subject -->
<g id="node28" class="node"><title>Subject</title>
<path fill="none" stroke="black" d="M1848.39,-1125C1848.39,-1125 1957.4,-1125 1957.4,-1125 1963.4,-1125 1969.4,-1131 1969.4,-1137 1969.4,-1137 1969.4,-1213 1969.4,-1213 1969.4,-1219 1963.4,-1225 1957.4,-1225 1957.4,-1225 1848.39,-1225 1848.39,-1225 1842.39,-1225 1836.39,-1219 1836.39,-1213 1836.39,-1213 1836.39,-1137 1836.39,-1137 1836.39,-1131 1842.39,-1125 1848.39,-1125"/>
<text text-anchor="middle" x="1902.9" y="-1209.8" font-family="Times,serif" font-size="14.00">Subject</text>
<polyline fill="none" stroke="black" points="1836.39,-1203 1969.4,-1203 "/>
<text text-anchor="start" x="1844.39" y="-1187.8" font-family="Times,serif" font-size="14.00">id :integer</text>
<text text-anchor="start" x="1844.39" y="-1173.8" font-family="Times,serif" font-size="14.00">name :string</text>
<text text-anchor="start" x="1844.39" y="-1159.8" font-family="Times,serif" font-size="14.00">description :text</text>
<text text-anchor="start" x="1844.39" y="-1145.8" font-family="Times,serif" font-size="14.00">created_at :datetime</text>
<text text-anchor="start" x="1844.39" y="-1131.8" font-family="Times,serif" font-size="14.00">updated_at :datetime</text>
</g>
<!-- Subject&#45;&gt;Resource -->
<g id="edge53" class="edge"><title>Subject&#45;&gt;Resource</title>
<path fill="none" stroke="#40c884" d="M1892.52,-1116.8C1885.78,-1079.66 1876.97,-1031.12 1869.92,-992.29"/>
<ellipse fill="none" stroke="#40c884" cx="1893.24" cy="-1120.77" rx="4.00001" ry="4.00001"/>
<polygon fill="#40c884" stroke="#40c884" points="1869.87,-991.968 1872.51,-981.326 1868.97,-987.049 1868.08,-982.129 1868.08,-982.129 1868.08,-982.129 1868.97,-987.049 1863.65,-982.933 1869.87,-991.968 1869.87,-991.968"/>
</g>
<!-- SubjectTheme -->
<g id="node29" class="node"><title>SubjectTheme</title>
<path fill="none" stroke="black" d="M1993.39,-875C1993.39,-875 2102.4,-875 2102.4,-875 2108.4,-875 2114.4,-881 2114.4,-887 2114.4,-887 2114.4,-963 2114.4,-963 2114.4,-969 2108.4,-975 2102.4,-975 2102.4,-975 1993.39,-975 1993.39,-975 1987.39,-975 1981.39,-969 1981.39,-963 1981.39,-963 1981.39,-887 1981.39,-887 1981.39,-881 1987.39,-875 1993.39,-875"/>
<text text-anchor="middle" x="2047.9" y="-959.8" font-family="Times,serif" font-size="14.00">SubjectTheme</text>
<polyline fill="none" stroke="black" points="1981.39,-953 2114.4,-953 "/>
<text text-anchor="start" x="1989.39" y="-937.8" font-family="Times,serif" font-size="14.00">id :integer</text>
<text text-anchor="start" x="1989.39" y="-923.8" font-family="Times,serif" font-size="14.00">subject_id :integer</text>
<text text-anchor="start" x="1989.39" y="-909.8" font-family="Times,serif" font-size="14.00">theme_id :integer</text>
<text text-anchor="start" x="1989.39" y="-895.8" font-family="Times,serif" font-size="14.00">created_at :datetime</text>
<text text-anchor="start" x="1989.39" y="-881.8" font-family="Times,serif" font-size="14.00">updated_at :datetime</text>
</g>
<!-- Subject&#45;&gt;SubjectTheme -->
<g id="edge54" class="edge"><title>Subject&#45;&gt;SubjectTheme</title>
<path fill="none" stroke="#c635dd" d="M1946.84,-1117.88C1953.85,-1108.12 1960.79,-1097.92 1966.9,-1088 1987.37,-1054.73 2007.05,-1015.6 2021.88,-984.13"/>
<ellipse fill="none" stroke="#c635dd" cx="1944.34" cy="-1121.33" rx="4.00002" ry="4.00002"/>
<polygon fill="#c635dd" stroke="#c635dd" points="2021.9,-984.107 2030.21,-976.955 2024.01,-979.578 2026.13,-975.048 2026.13,-975.048 2026.13,-975.048 2024.01,-979.578 2022.05,-973.142 2021.9,-984.107 2021.9,-984.107"/>
</g>
<!-- Subject&#45;&gt;Theme -->
<g id="edge55" class="edge"><title>Subject&#45;&gt;Theme</title>
<path fill="none" stroke="#15f9f5" d="M1926.33,-1115.13C1929.05,-1106.17 1931.38,-1096.93 1932.9,-1088 1985.41,-778.051 1922.03,-399.77 1893.47,-256.131"/>
<polygon fill="#15f9f5" stroke="#15f9f5" points="1926.31,-1115.2 1918.97,-1123.35 1924.78,-1119.96 1923.25,-1124.72 1923.25,-1124.72 1923.25,-1124.72 1924.78,-1119.96 1927.54,-1126.1 1926.31,-1115.2 1926.31,-1115.2"/>
<polygon fill="#15f9f5" stroke="#15f9f5" points="1893.44,-256.003 1895.88,-245.313 1892.46,-251.101 1891.47,-246.199 1891.47,-246.199 1891.47,-246.199 1892.46,-251.101 1887.06,-247.085 1893.44,-256.003 1893.44,-256.003"/>
</g>
<!-- Tag&#45;&gt;Tagging -->
<g id="edge58" class="edge"><title>Tag&#45;&gt;Tagging</title>
<path fill="none" stroke="#d47c35" d="M1515.9,-560.813C1515.9,-525.3 1515.9,-479.731 1515.9,-443.748"/>
<ellipse fill="none" stroke="#d47c35" cx="1515.9" cy="-564.946" rx="4" ry="4"/>
<polygon fill="#d47c35" stroke="#d47c35" points="1515.9,-443.392 1520.4,-433.392 1515.9,-438.392 1515.9,-433.392 1515.9,-433.392 1515.9,-433.392 1515.9,-438.392 1511.4,-433.392 1515.9,-443.392 1515.9,-443.392"/>
</g>
<!-- Theme&#45;&gt;OratorTheme -->
<g id="edge61" class="edge"><title>Theme&#45;&gt;OratorTheme</title>
<path fill="none" stroke="#334d87" d="M1880.9,-137.575C1880.9,-128.939 1880.9,-120.018 1880.9,-111.342"/>
<ellipse fill="none" stroke="#334d87" cx="1880.9" cy="-141.788" rx="4" ry="4"/>
<polygon fill="#334d87" stroke="#334d87" points="1880.9,-111.303 1885.4,-101.303 1880.9,-106.303 1880.9,-101.303 1880.9,-101.303 1880.9,-101.303 1880.9,-106.303 1876.4,-101.303 1880.9,-111.303 1880.9,-111.303"/>
</g>
<!-- User&#45;&gt;Activity -->
<g id="edge69" class="edge"><title>User&#45;&gt;Activity</title>
<path fill="none" stroke="#028fbf" d="M609.651,-573.263C566.167,-547.668 513.187,-513.28 470.897,-476 463.514,-469.492 456.234,-462.253 449.269,-454.773"/>
<ellipse fill="none" stroke="#028fbf" cx="613.369" cy="-575.436" rx="4.00002" ry="4.00002"/>
<polygon fill="#028fbf" stroke="#028fbf" points="449.142,-454.633 445.749,-444.206 445.78,-450.932 442.418,-447.232 442.418,-447.232 442.418,-447.232 445.78,-450.932 439.087,-450.258 449.142,-454.633 449.142,-454.633"/>
</g>
<!-- User&#45;&gt;Article -->
<g id="edge72" class="edge"><title>User&#45;&gt;Article</title>
<path fill="none" stroke="#304e97" d="M622.469,-505.958C613.407,-491.334 604.281,-476.606 595.658,-462.692"/>
<ellipse fill="none" stroke="#304e97" cx="624.712" cy="-509.578" rx="4.00002" ry="4.00002"/>
<polygon fill="#304e97" stroke="#304e97" points="595.627,-462.641 594.185,-451.771 592.994,-458.391 590.36,-454.141 590.36,-454.141 590.36,-454.141 592.994,-458.391 586.535,-456.511 595.627,-462.641 595.627,-462.641"/>
</g>
<!-- User&#45;&gt;Card -->
<g id="edge64" class="edge"><title>User&#45;&gt;Card</title>
<path fill="none" stroke="#47561a" d="M773.557,-686.18C829.236,-733.527 902.654,-797.399 958.489,-847.028"/>
<ellipse fill="none" stroke="#47561a" cx="770.249" cy="-683.37" rx="4.00002" ry="4.00002"/>
<polygon fill="#47561a" stroke="#47561a" points="958.712,-847.226 963.19,-857.236 962.447,-850.55 966.182,-853.875 966.182,-853.875 966.182,-853.875 962.447,-850.55 969.173,-850.513 958.712,-847.226 958.712,-847.226"/>
</g>
<!-- User&#45;&gt;CardUser -->
<g id="edge70" class="edge"><title>User&#45;&gt;CardUser</title>
<path fill="none" stroke="#896506" d="M699.153,-504.793C700.187,-488.674 701.226,-472.459 702.193,-457.373"/>
<ellipse fill="none" stroke="#896506" cx="698.885" cy="-508.987" rx="4" ry="4"/>
<polygon fill="#896506" stroke="#896506" points="702.21,-457.104 707.341,-447.412 702.53,-452.114 702.85,-447.124 702.85,-447.124 702.85,-447.124 702.53,-452.114 698.359,-446.837 702.21,-457.104 702.21,-457.104"/>
</g>
<!-- User&#45;&gt;CardVerification -->
<g id="edge63" class="edge"><title>User&#45;&gt;CardVerification</title>
<path fill="none" stroke="#f909b0" d="M773.658,-551.682C793.606,-537.379 815.41,-523.207 836.897,-512 880.637,-489.185 901.329,-504.072 941.897,-476 955.581,-466.53 968.161,-453.945 978.982,-441.132"/>
<ellipse fill="none" stroke="#f909b0" cx="770.205" cy="-554.185" rx="4.00002" ry="4.00002"/>
<polygon fill="#f909b0" stroke="#f909b0" points="979.169,-440.903 988.974,-435.993 982.327,-437.027 985.486,-433.151 985.486,-433.151 985.486,-433.151 982.327,-437.027 981.997,-430.308 979.169,-440.903 979.169,-440.903"/>
</g>
<!-- User&#45;&gt;Orator -->
<g id="edge71" class="edge"><title>User&#45;&gt;Orator</title>
<path fill="none" stroke="#a6e14d" d="M775.058,-591.516C856.455,-566.735 984.41,-530.797 1097.9,-512 1314.64,-476.101 1378.64,-532.667 1590.9,-476 1631.4,-465.187 1673.67,-445.784 1708.12,-427.576"/>
<ellipse fill="none" stroke="#a6e14d" cx="771.154" cy="-592.709" rx="4.00001" ry="4.00001"/>
<ellipse fill="#a6e14d" stroke="#a6e14d" cx="1711.82" cy="-425.598" rx="4.00002" ry="4.00002"/>
</g>
<!-- User&#45;&gt;Ownership -->
<g id="edge65" class="edge"><title>User&#45;&gt;Ownership</title>
<path fill="none" stroke="#a99f90" d="M608.891,-593.217C530.967,-568.443 412.287,-526.783 315.897,-476 303.146,-469.282 290.173,-461.536 277.586,-453.447"/>
<ellipse fill="none" stroke="#a99f90" cx="612.959" cy="-594.503" rx="4.00001" ry="4.00001"/>
<polygon fill="#a99f90" stroke="#a99f90" points="277.313,-453.27 271.401,-444.034 273.127,-450.536 268.941,-447.802 268.941,-447.802 268.941,-447.802 273.127,-450.536 266.48,-451.57 277.313,-453.27 277.313,-453.27"/>
</g>
<!-- User&#45;&gt;Parent -->
<g id="edge66" class="edge"><title>User&#45;&gt;Parent</title>
<path fill="none" stroke="#dcd332" d="M772.011,-510.876C789.98,-486.848 808.368,-462.261 824.114,-441.207"/>
<ellipse fill="none" stroke="#dcd332" cx="769.524" cy="-514.202" rx="4.00002" ry="4.00002"/>
<polygon fill="#dcd332" stroke="#dcd332" points="824.248,-441.027 833.841,-435.714 827.243,-437.023 830.237,-433.018 830.237,-433.018 830.237,-433.018 827.243,-437.023 826.634,-430.323 824.248,-441.027 824.248,-441.027"/>
</g>
<!-- User&#45;&gt;User -->
<g id="edge67" class="edge"><title>User&#45;&gt;User</title>
<path fill="none" stroke="#9b4422" d="M774.757,-652.15C781.035,-644.775 784.897,-633.725 784.897,-619 784.897,-604.275 781.035,-593.225 774.757,-585.85"/>
<polygon fill="#9b4422" stroke="#9b4422" points="774.674,-652.221 764.145,-655.286 770.869,-655.465 767.065,-658.71 767.065,-658.71 767.065,-658.71 770.869,-655.465 769.985,-662.134 774.674,-652.221 774.674,-652.221"/>
<polygon fill="#9b4422" stroke="#9b4422" points="774.674,-585.779 769.985,-575.866 770.869,-582.535 767.065,-579.29 767.065,-579.29 767.065,-579.29 770.869,-582.535 764.145,-582.714 774.674,-585.779 774.674,-585.779"/>
</g>
<!-- User&#45;&gt;VerificatorComment -->
<g id="edge68" class="edge"><title>User&#45;&gt;VerificatorComment</title>
<path fill="none" stroke="#cb8069" d="M774.07,-561.918C804.564,-543.433 840.196,-524.445 874.897,-512 967.333,-478.85 1007.77,-524.965 1092.9,-476 1105.44,-468.782 1116.81,-458.65 1126.69,-447.733"/>
<ellipse fill="none" stroke="#cb8069" cx="770.653" cy="-564.012" rx="4.00002" ry="4.00002"/>
<polygon fill="#cb8069" stroke="#cb8069" points="1126.76,-447.648 1136.7,-443.015 1130.03,-443.861 1133.3,-440.075 1133.3,-440.075 1133.3,-440.075 1130.03,-443.861 1129.89,-437.136 1126.76,-447.648 1126.76,-447.648"/>
</g>
<!-- UserType -->
<g id="node34" class="node"><title>UserType</title>
<path fill="none" stroke="black" d="M625.391,-882C625.391,-882 734.402,-882 734.402,-882 740.402,-882 746.402,-888 746.402,-894 746.402,-894 746.402,-956 746.402,-956 746.402,-962 740.402,-968 734.402,-968 734.402,-968 625.391,-968 625.391,-968 619.391,-968 613.391,-962 613.391,-956 613.391,-956 613.391,-894 613.391,-894 613.391,-888 619.391,-882 625.391,-882"/>
<text text-anchor="middle" x="679.897" y="-952.8" font-family="Times,serif" font-size="14.00">UserType</text>
<polyline fill="none" stroke="black" points="613.391,-946 746.402,-946 "/>
<text text-anchor="start" x="621.391" y="-930.8" font-family="Times,serif" font-size="14.00">id :integer</text>
<text text-anchor="start" x="621.391" y="-916.8" font-family="Times,serif" font-size="14.00">name :string</text>
<text text-anchor="start" x="621.391" y="-902.8" font-family="Times,serif" font-size="14.00">created_at :datetime</text>
<text text-anchor="start" x="621.391" y="-888.8" font-family="Times,serif" font-size="14.00">updated_at :datetime</text>
</g>
<!-- UserType&#45;&gt;User -->
<g id="edge74" class="edge"><title>UserType&#45;&gt;User</title>
<path fill="none" stroke="#03656d" d="M681.884,-873.655C683.37,-836.009 685.462,-783.002 687.35,-735.172"/>
<ellipse fill="none" stroke="#03656d" cx="681.723" cy="-877.733" rx="4" ry="4"/>
<polygon fill="#03656d" stroke="#03656d" points="687.355,-735.044 692.246,-725.229 687.552,-730.048 687.75,-725.052 687.75,-725.052 687.75,-725.052 687.552,-730.048 683.253,-724.874 687.355,-735.044 687.355,-735.044"/>
</g>
<!-- ActiveRecord::Base -->
<g id="node36" class="node"><title>ActiveRecord::Base</title>
<ellipse fill="none" stroke="black" cx="1178.9" cy="-1299" rx="80.9821" ry="18"/>
<text text-anchor="middle" x="1178.9" y="-1294.8" font-family="Times,serif" font-size="14.00">ActiveRecord::Base</text>
</g>
<!-- ActiveRecord::Base&#45;&gt;AccessToken -->
<g id="edge1" class="edge"><title>ActiveRecord::Base&#45;&gt;AccessToken</title>
<path fill="none" stroke="black" d="M1146.83,-1282.46C1129.74,-1274.91 1108.12,-1266.53 1087.9,-1262 964.905,-1234.48 626.948,-1295.63 521.897,-1226 464.739,-1188.12 472.296,-1153.77 452.897,-1088 411.658,-948.185 449.38,-904.104 416.897,-762 386.856,-630.585 351.246,-606.087 315.897,-476 304.722,-434.877 284.039,-322.208 271.769,-253.278"/>
</g>
<!-- ActiveRecord::Base&#45;&gt;Action -->
<g id="edge4" class="edge"><title>ActiveRecord::Base&#45;&gt;Action</title>
<path fill="none" stroke="black" d="M1146.87,-1282.24C1129.8,-1274.64 1108.18,-1266.26 1087.9,-1262 1035.67,-1251.03 165.519,-1263.85 127.897,-1226 -25.1436,-1072.02 56.0813,-772.8 93.431,-662.318"/>
</g>
<!-- ActiveRecord::Base&#45;&gt;Activity -->
<g id="edge5" class="edge"><title>ActiveRecord::Base&#45;&gt;Activity</title>
<path fill="none" stroke="black" d="M1146.4,-1282.3C1129.38,-1274.82 1107.95,-1266.53 1087.9,-1262 1030.11,-1248.95 601.401,-1263.94 555.897,-1226 525.562,-1200.71 434.168,-638.557 403.816,-447.154"/>
</g>
<!-- ActiveRecord::Base&#45;&gt;Affiliation -->
<g id="edge8" class="edge"><title>ActiveRecord::Base&#45;&gt;Affiliation</title>
<path fill="none" stroke="black" d="M1178.9,-1280.78C1178.9,-1264.56 1178.9,-1239.6 1178.9,-1218.11"/>
</g>
<!-- ActiveRecord::Base&#45;&gt;Article -->
<g id="edge9" class="edge"><title>ActiveRecord::Base&#45;&gt;Article</title>
<path fill="none" stroke="black" d="M1146.38,-1282.37C1129.36,-1274.9 1107.93,-1266.61 1087.9,-1262 984.517,-1238.22 694.018,-1293.15 611.897,-1226 494.422,-1129.94 524.427,-638.709 540.217,-454.177"/>
</g>
<!-- ActiveRecord::Base&#45;&gt;Canton -->
<g id="edge11" class="edge"><title>ActiveRecord::Base&#45;&gt;Canton</title>
<path fill="none" stroke="black" d="M1259.58,-1296.8C1459.14,-1293.06 1971.38,-1278.48 2132.9,-1226 2137.61,-1224.47 2142.33,-1222.61 2147,-1220.52"/>
</g>
<!-- ActiveRecord::Base&#45;&gt;Card -->
<g id="edge22" class="edge"><title>ActiveRecord::Base&#45;&gt;Card</title>
<path fill="none" stroke="black" d="M1154.94,-1281.57C1137.77,-1268.51 1115.54,-1248.71 1102.9,-1226 1079.48,-1183.95 1064.87,-1134.14 1055.77,-1087.31"/>
</g>
<!-- ActiveRecord::Base&#45;&gt;CardAffiliation -->
<g id="edge23" class="edge"><title>ActiveRecord::Base&#45;&gt;CardAffiliation</title>
<path fill="none" stroke="black" d="M1211.23,-1282.32C1232.61,-1270.12 1259.14,-1251.05 1272.9,-1226 1374.06,-1041.79 1349.97,-777.784 1334.23,-669.353"/>
</g>
<!-- ActiveRecord::Base&#45;&gt;CardResponsable -->
<g id="edge24" class="edge"><title>ActiveRecord::Base&#45;&gt;CardResponsable</title>
<path fill="none" stroke="black" d="M1221.58,-1283.68C1249.76,-1272.19 1285.5,-1253.41 1307.9,-1226 1348.63,-1176.15 1337.66,-1150.78 1351.9,-1088 1408.71,-837.397 1469.2,-759.992 1401.9,-512 1394.31,-484.036 1378.9,-455.931 1364.02,-433.208"/>
</g>
<!-- ActiveRecord::Base&#45;&gt;CardType -->
<g id="edge26" class="edge"><title>ActiveRecord::Base&#45;&gt;CardType</title>
<path fill="none" stroke="black" d="M1153.67,-1281.8C1128.43,-1265.6 1088.55,-1239.99 1054.35,-1218.03"/>
</g>
<!-- ActiveRecord::Base&#45;&gt;CardUser -->
<g id="edge27" class="edge"><title>ActiveRecord::Base&#45;&gt;CardUser</title>
<path fill="none" stroke="black" d="M1146.35,-1282.5C1129.32,-1275.07 1107.89,-1266.77 1087.9,-1262 1002.81,-1241.7 771.053,-1270.76 695.897,-1226 632.565,-1188.28 625.258,-1158.55 603.897,-1088 566.803,-965.489 565.551,-632.796 607.897,-512 616.028,-488.802 630.167,-466.509 645.256,-447.212"/>
</g>
<!-- ActiveRecord::Base&#45;&gt;CardVerification -->
<g id="edge28" class="edge"><title>ActiveRecord::Base&#45;&gt;CardVerification</title>
<path fill="none" stroke="black" d="M1144.91,-1282.58C1128.05,-1275.44 1107.21,-1267.37 1087.9,-1262 1041.23,-1249.02 905.122,-1262.17 872.897,-1226 832.044,-1180.15 867.453,-1149.39 865.897,-1088 859.39,-831.302 800.479,-743.828 910.897,-512 919.976,-492.937 928.283,-492.14 941.897,-476 953.517,-462.222 966.017,-447.184 977.456,-433.333"/>
</g>
<!-- ActiveRecord::Base&#45;&gt;Disponibility -->
<g id="edge31" class="edge"><title>ActiveRecord::Base&#45;&gt;Disponibility</title>
<path fill="none" stroke="black" d="M1259.9,-1297.51C1383.09,-1294.93 1608.95,-1282.41 1662.9,-1226 1734.54,-1151.08 1693.8,-864.241 1710.9,-762 1716.55,-728.175 1725.47,-690.375 1732.61,-662.284"/>
</g>
<!-- ActiveRecord::Base&#45;&gt;Element -->
<g id="edge33" class="edge"><title>ActiveRecord::Base&#45;&gt;Element</title>
<path fill="none" stroke="black" d="M1146.84,-1282.38C1129.76,-1274.81 1108.15,-1266.43 1087.9,-1262 1015.61,-1246.18 480.407,-1272.56 422.897,-1226 345.433,-1163.28 337.59,-1034.84 339.226,-968.206"/>
</g>
<!-- ActiveRecord::Base&#45;&gt;Location -->
<g id="edge34" class="edge"><title>ActiveRecord::Base&#45;&gt;Location</title>
<path fill="none" stroke="black" d="M1258.91,-1295.78C1507.78,-1288.48 2253.72,-1263.54 2288.9,-1226 2319.8,-1193.03 2306.98,-1066.95 2295.5,-989.116"/>
</g>
<!-- ActiveRecord::Base&#45;&gt;Orator -->
<g id="edge38" class="edge"><title>ActiveRecord::Base&#45;&gt;Orator</title>
<path fill="none" stroke="black" d="M1260.26,-1298.33C1390.46,-1297.01 1637,-1286.36 1695.9,-1226 1840.85,-1077.43 1630.88,-932.75 1748.9,-762 1768.79,-733.221 1800.67,-755.863 1818.9,-726 1869.53,-643.031 1840.83,-527.33 1813.2,-454.049"/>
</g>
<!-- ActiveRecord::Base&#45;&gt;OratorDisponibility -->
<g id="edge39" class="edge"><title>ActiveRecord::Base&#45;&gt;OratorDisponibility</title>
<path fill="none" stroke="black" d="M1249.76,-1290.1C1336.95,-1279.2 1478.66,-1257.28 1520.9,-1226 1637.39,-1139.73 1648.9,-1070.96 1648.9,-926 1648.9,-926 1648.9,-926 1648.9,-618 1648.9,-483.076 1666.46,-324.616 1676.34,-246.155"/>
</g>
<!-- ActiveRecord::Base&#45;&gt;OratorTheme -->
<g id="edge40" class="edge"><title>ActiveRecord::Base&#45;&gt;OratorTheme</title>
<path fill="none" stroke="black" d="M1258.12,-1294.96C1455.18,-1286.87 1956.27,-1262.89 2021.9,-1226 2261.31,-1091.42 2142.9,-894.65 2142.9,-620 2142.9,-620 2142.9,-620 2142.9,-382 2142.9,-256.543 2025.31,-151.076 1947.69,-95.1206"/>
</g>
<!-- ActiveRecord::Base&#45;&gt;Ownership -->
<g id="edge43" class="edge"><title>ActiveRecord::Base&#45;&gt;Ownership</title>
<path fill="none" stroke="black" d="M1146.85,-1282.34C1129.77,-1274.76 1108.16,-1266.38 1087.9,-1262 1008.41,-1244.81 427.528,-1266.3 356.897,-1226 324.991,-1207.79 278.323,-1122.57 265.897,-1088 178.794,-845.702 237.558,-767.269 203.897,-512 202.323,-500.07 200.534,-487.536 198.688,-475.172"/>
</g>
<!-- ActiveRecord::Base&#45;&gt;OwnershipAction -->
<g id="edge44" class="edge"><title>ActiveRecord::Base&#45;&gt;OwnershipAction</title>
<path fill="none" stroke="black" d="M1147.3,-1282.41C1130.16,-1274.75 1108.35,-1266.27 1087.9,-1262 1032.18,-1250.36 107.456,-1262.65 63.8965,-1226 -39.541,-1138.98 13.8965,-1061.17 13.8965,-926 13.8965,-926 13.8965,-926 13.8965,-618 13.8965,-482.471 43.2628,-324.602 59.8387,-246.287"/>
</g>
<!-- ActiveRecord::Base&#45;&gt;OwnershipType -->
<g id="edge46" class="edge"><title>ActiveRecord::Base&#45;&gt;OwnershipType</title>
<path fill="none" stroke="black" d="M1146.86,-1282.3C1129.78,-1274.72 1108.17,-1266.34 1087.9,-1262 913.225,-1224.63 455.599,-1278.6 284.897,-1226 278.263,-1223.96 271.627,-1221.24 265.166,-1218.12"/>
</g>
<!-- ActiveRecord::Base&#45;&gt;Page -->
<g id="edge47" class="edge"><title>ActiveRecord::Base&#45;&gt;Page</title>
<path fill="none" stroke="black" d="M1259.97,-1297.99C1486.87,-1297.14 2124.6,-1289.07 2322.9,-1226 2327.62,-1224.5 2332.35,-1222.66 2337.02,-1220.59"/>
</g>
<!-- ActiveRecord::Base&#45;&gt;Parent -->
<g id="edge48" class="edge"><title>ActiveRecord::Base&#45;&gt;Parent</title>
<path fill="none" stroke="black" d="M1144.95,-1282.45C1128.1,-1275.28 1107.25,-1267.22 1087.9,-1262 1036.25,-1248.07 886.079,-1265.4 849.897,-1226 742.565,-1109.13 827.581,-669.933 842.897,-512 845.439,-485.783 850.638,-456.919 855.549,-433.247"/>
</g>
<!-- ActiveRecord::Base&#45;&gt;Resource -->
<g id="edge50" class="edge"><title>ActiveRecord::Base&#45;&gt;Resource</title>
<path fill="none" stroke="black" d="M1256.25,-1293.48C1409.04,-1283.86 1738.2,-1259.49 1776.9,-1226 1813.46,-1194.36 1838.53,-1059.94 1850.28,-982.194"/>
</g>
<!-- ActiveRecord::Base&#45;&gt;Responsable -->
<g id="edge52" class="edge"><title>ActiveRecord::Base&#45;&gt;Responsable</title>
<path fill="none" stroke="black" d="M1204.66,-1281.64C1222.18,-1268.88 1243.92,-1249.41 1253.9,-1226 1271.67,-1184.3 1257.46,-1169.19 1253.9,-1124 1240.97,-960.164 1204.77,-769.133 1185.82,-676.341"/>
</g>
<!-- ActiveRecord::Base&#45;&gt;Subject -->
<g id="edge56" class="edge"><title>ActiveRecord::Base&#45;&gt;Subject</title>
<path fill="none" stroke="black" d="M1256.1,-1293.28C1402.4,-1283.67 1714.51,-1259.87 1816.9,-1226 1823.29,-1223.88 1829.73,-1221.25 1836.06,-1218.31"/>
</g>
<!-- ActiveRecord::Base&#45;&gt;SubjectTheme -->
<g id="edge57" class="edge"><title>ActiveRecord::Base&#45;&gt;SubjectTheme</title>
<path fill="none" stroke="black" d="M1259.18,-1296.02C1451.08,-1290.57 1924.43,-1272.49 1977.9,-1226 2049.74,-1163.53 2055.52,-1042.9 2052.37,-975.183"/>
</g>
<!-- ActiveRecord::Base&#45;&gt;Tag -->
<g id="edge59" class="edge"><title>ActiveRecord::Base&#45;&gt;Tag</title>
<path fill="none" stroke="black" d="M1243.48,-1288.08C1310.8,-1276.36 1409.93,-1254.77 1434.9,-1226 1574.91,-1064.67 1544.84,-782.481 1525.58,-669.16"/>
</g>
<!-- ActiveRecord::Base&#45;&gt;Tagging -->
<g id="edge60" class="edge"><title>ActiveRecord::Base&#45;&gt;Tagging</title>
<path fill="none" stroke="black" d="M1246.41,-1288.89C1323.88,-1277.26 1444.77,-1255.09 1479.9,-1226 1531.68,-1183.11 1523.42,-1152.65 1541.9,-1088 1612.5,-840.968 1658.19,-759.956 1590.9,-512 1583.31,-484.036 1567.9,-455.931 1553.02,-433.208"/>
</g>
<!-- ActiveRecord::Base&#45;&gt;Theme -->
<g id="edge62" class="edge"><title>ActiveRecord::Base&#45;&gt;Theme</title>
<path fill="none" stroke="black" d="M1256.13,-1293.29C1401.24,-1283.69 1703.02,-1259.87 1735.9,-1226 1808.07,-1151.65 1724.95,-848.563 1781.9,-762 1800.05,-734.411 1829.23,-753.899 1846.9,-726 1896.75,-647.281 1889.01,-362.1 1883.59,-246.341"/>
</g>
<!-- ActiveRecord::Base&#45;&gt;User -->
<g id="edge73" class="edge"><title>ActiveRecord::Base&#45;&gt;User</title>
<path fill="none" stroke="black" d="M1145.44,-1282.41C1128.52,-1275.14 1107.48,-1267.01 1087.9,-1262 1025.2,-1245.97 843.982,-1272.43 798.897,-1226 726.743,-1151.69 781.128,-862.197 754.897,-762 751.72,-749.868 747.619,-737.458 743.034,-725.272"/>
</g>
<!-- ActiveRecord::Base&#45;&gt;UserType -->
<g id="edge75" class="edge"><title>ActiveRecord::Base&#45;&gt;UserType</title>
<path fill="none" stroke="black" d="M1145.89,-1282.47C1128.92,-1275.13 1107.68,-1266.91 1087.9,-1262 1016.94,-1244.4 816.415,-1273.56 760.897,-1226 685.41,-1161.33 676.624,-1034.35 677.629,-968.248"/>
</g>
<!-- ActiveRecord::Base&#45;&gt;VerificatorComment -->
<g id="edge76" class="edge"><title>ActiveRecord::Base&#45;&gt;VerificatorComment</title>
<path fill="none" stroke="black" d="M1143.96,-1282.53C1127.24,-1275.55 1106.78,-1267.63 1087.9,-1262 1011.8,-1239.31 963.071,-1287.55 912.897,-1226 811.794,-1101.98 904.779,-636.006 1005.9,-512 1032.34,-479.569 1059.24,-500.868 1092.9,-476 1106.39,-466.028 1118.96,-453.156 1129.83,-440.217"/>
</g>
<!-- Object -->
<g id="node37" class="node"><title>Object</title>
<ellipse fill="none" stroke="black" cx="2527.9" cy="-1299" rx="33.5181" ry="18"/>
<text text-anchor="middle" x="2527.9" y="-1294.8" font-family="Times,serif" font-size="14.00">Object</text>
</g>
<!-- Object&#45;&gt;Permission -->
<g id="edge49" class="edge"><title>Object&#45;&gt;Permission</title>
<path fill="none" stroke="black" d="M2527.9,-1280.78C2527.9,-1258.84 2527.9,-1220.94 2527.9,-1197.23"/>
</g>
</g>
</svg>
