<?xml version="1.0" encoding="UTF-8" standalone="no"?>
<!DOCTYPE svg PUBLIC "-//W3C//DTD SVG 1.1//EN"
 "http://www.w3.org/Graphics/SVG/1.1/DTD/svg11.dtd">
<!-- Generated by graphviz version 2.34.0 (20140206.1422)
 -->
<!-- Title: models_diagram Pages: 1 -->
<svg width="1684pt" height="1354pt"
 viewBox="0.00 0.00 1684.05 1354.00" xmlns="http://www.w3.org/2000/svg" xmlns:xlink="http://www.w3.org/1999/xlink">
<g id="graph0" class="graph" transform="scale(1 1) rotate(0) translate(4 1350)">
<title>models_diagram</title>
<polygon fill="white" stroke="white" points="-4,4 -4,-1350 1680.05,-1350 1680.05,4 -4,4"/>
<!-- _diagram_info -->
<g id="node1" class="node"><title>_diagram_info</title>
<text text-anchor="start" x="429.365" y="-1329" font-family="Times,serif" font-size="13.00">Models diagram</text>
<text text-anchor="start" x="429.365" y="-1313.4" font-family="Times,serif" font-size="13.00">Date: Feb 11 2014 &#45; 11:44</text>
<text text-anchor="start" x="429.365" y="-1297.8" font-family="Times,serif" font-size="13.00">Migration version: 20140208125910</text>
<text text-anchor="start" x="429.365" y="-1282.2" font-family="Times,serif" font-size="13.00">Generated by RailRoady 1.1.1</text>
<text text-anchor="start" x="429.365" y="-1266.6" font-family="Times,serif" font-size="13.00">http://railroady.prestonlee.com</text>
</g>
<!-- Action -->
<g id="node2" class="node"><title>Action</title>
<path fill="none" stroke="black" d="M319.547,-1115C319.547,-1115 428.558,-1115 428.558,-1115 434.558,-1115 440.558,-1121 440.558,-1127 440.558,-1127 440.558,-1203 440.558,-1203 440.558,-1209 434.558,-1215 428.558,-1215 428.558,-1215 319.547,-1215 319.547,-1215 313.547,-1215 307.547,-1209 307.547,-1203 307.547,-1203 307.547,-1127 307.547,-1127 307.547,-1121 313.547,-1115 319.547,-1115"/>
<text text-anchor="middle" x="374.053" y="-1197" font-family="Times,serif" font-size="14.00">Action</text>
<polyline fill="none" stroke="black" points="307.547,-1190.2 440.558,-1190.2 "/>
<text text-anchor="start" x="315.547" y="-1172.2" font-family="Times,serif" font-size="14.00">id :integer</text>
<text text-anchor="start" x="315.547" y="-1155.4" font-family="Times,serif" font-size="14.00">name :string</text>
<text text-anchor="start" x="315.547" y="-1138.6" font-family="Times,serif" font-size="14.00">created_at :datetime</text>
<text text-anchor="start" x="315.547" y="-1121.8" font-family="Times,serif" font-size="14.00">updated_at :datetime</text>
</g>
<!-- Ownership -->
<g id="node10" class="node"><title>Ownership</title>
<path fill="none" stroke="black" d="M225.265,-155.2C225.265,-155.2 370.841,-155.2 370.841,-155.2 376.841,-155.2 382.841,-161.2 382.841,-167.2 382.841,-167.2 382.841,-360.8 382.841,-360.8 382.841,-366.8 376.841,-372.8 370.841,-372.8 370.841,-372.8 225.265,-372.8 225.265,-372.8 219.265,-372.8 213.265,-366.8 213.265,-360.8 213.265,-360.8 213.265,-167.2 213.265,-167.2 213.265,-161.2 219.265,-155.2 225.265,-155.2"/>
<text text-anchor="middle" x="298.053" y="-354.8" font-family="Times,serif" font-size="14.00">Ownership</text>
<polyline fill="none" stroke="black" points="213.265,-348 382.841,-348 "/>
<text text-anchor="start" x="221.265" y="-330" font-family="Times,serif" font-size="14.00">id :integer</text>
<text text-anchor="start" x="221.265" y="-313.2" font-family="Times,serif" font-size="14.00">element_id :integer</text>
<text text-anchor="start" x="221.265" y="-296.4" font-family="Times,serif" font-size="14.00">user_id :integer</text>
<text text-anchor="start" x="221.265" y="-279.6" font-family="Times,serif" font-size="14.00">ownership_type_id :integer</text>
<text text-anchor="start" x="221.265" y="-262.8" font-family="Times,serif" font-size="14.00">right_create :boolean</text>
<text text-anchor="start" x="221.265" y="-246" font-family="Times,serif" font-size="14.00">right_read :boolean</text>
<text text-anchor="start" x="221.265" y="-229.2" font-family="Times,serif" font-size="14.00">right_update :boolean</text>
<text text-anchor="start" x="221.265" y="-212.4" font-family="Times,serif" font-size="14.00">right_delete :boolean</text>
<text text-anchor="start" x="221.265" y="-195.6" font-family="Times,serif" font-size="14.00">id_element :integer</text>
<text text-anchor="start" x="221.265" y="-178.8" font-family="Times,serif" font-size="14.00">created_at :datetime</text>
<text text-anchor="start" x="221.265" y="-162" font-family="Times,serif" font-size="14.00">updated_at :datetime</text>
</g>
<!-- Action&#45;&gt;Ownership -->
<g id="edge2" class="edge"><title>Action&#45;&gt;Ownership</title>
<path fill="none" stroke="#2e7be5" d="M377.266,-1104.82C381.46,-1013.76 386.76,-833.872 373.053,-682 363.871,-580.275 342.585,-466.22 325.026,-383.138"/>
<polygon fill="#2e7be5" stroke="#2e7be5" points="377.26,-1104.96 372.293,-1114.74 377.024,-1109.96 376.788,-1114.95 376.788,-1114.95 376.788,-1114.95 377.024,-1109.96 381.283,-1115.16 377.26,-1104.96 377.26,-1104.96"/>
<polygon fill="#2e7be5" stroke="#2e7be5" points="324.985,-382.944 327.306,-372.226 323.944,-378.053 322.904,-373.162 322.904,-373.162 322.904,-373.162 323.944,-378.053 318.503,-374.099 324.985,-382.944 324.985,-382.944"/>
</g>
<!-- OwnershipAction -->
<g id="node11" class="node"><title>OwnershipAction</title>
<path fill="none" stroke="black" d="M240.816,-0.6C240.816,-0.6 355.289,-0.6 355.289,-0.6 361.289,-0.6 367.289,-6.6 367.289,-12.6 367.289,-12.6 367.289,-105.4 367.289,-105.4 367.289,-111.4 361.289,-117.4 355.289,-117.4 355.289,-117.4 240.816,-117.4 240.816,-117.4 234.816,-117.4 228.816,-111.4 228.816,-105.4 228.816,-105.4 228.816,-12.6 228.816,-12.6 228.816,-6.6 234.816,-0.6 240.816,-0.6"/>
<text text-anchor="middle" x="298.053" y="-99.4" font-family="Times,serif" font-size="14.00">OwnershipAction</text>
<polyline fill="none" stroke="black" points="228.816,-92.6 367.289,-92.6 "/>
<text text-anchor="start" x="236.816" y="-74.6" font-family="Times,serif" font-size="14.00">id :integer</text>
<text text-anchor="start" x="236.816" y="-57.8" font-family="Times,serif" font-size="14.00">action_id :integer</text>
<text text-anchor="start" x="236.816" y="-41" font-family="Times,serif" font-size="14.00">ownership_id :integer</text>
<text text-anchor="start" x="236.816" y="-24.2" font-family="Times,serif" font-size="14.00">created_at :datetime</text>
<text text-anchor="start" x="236.816" y="-7.4" font-family="Times,serif" font-size="14.00">updated_at :datetime</text>
</g>
<!-- Action&#45;&gt;OwnershipAction -->
<g id="edge1" class="edge"><title>Action&#45;&gt;OwnershipAction</title>
<path fill="none" stroke="#22f880" d="M386.739,-1107.09C388.951,-1094.91 390.907,-1082.08 392.053,-1070 400.607,-979.845 401.033,-178.214 391.053,-154 386.756,-143.576 380.685,-133.692 373.679,-124.524"/>
<ellipse fill="none" stroke="#22f880" cx="385.995" cy="-1111.05" rx="4.00001" ry="4.00001"/>
<polygon fill="#22f880" stroke="#22f880" points="373.598,-124.425 370.798,-113.823 370.45,-120.541 367.302,-116.657 367.302,-116.657 367.302,-116.657 370.45,-120.541 363.806,-119.49 373.598,-124.425 373.598,-124.425"/>
</g>
<!-- Affiliation -->
<g id="node3" class="node"><title>Affiliation</title>
<path fill="none" stroke="black" d="M813.547,-1115C813.547,-1115 922.558,-1115 922.558,-1115 928.558,-1115 934.558,-1121 934.558,-1127 934.558,-1127 934.558,-1203 934.558,-1203 934.558,-1209 928.558,-1215 922.558,-1215 922.558,-1215 813.547,-1215 813.547,-1215 807.547,-1215 801.547,-1209 801.547,-1203 801.547,-1203 801.547,-1127 801.547,-1127 801.547,-1121 807.547,-1115 813.547,-1115"/>
<text text-anchor="middle" x="868.053" y="-1197" font-family="Times,serif" font-size="14.00">Affiliation</text>
<polyline fill="none" stroke="black" points="801.547,-1190.2 934.558,-1190.2 "/>
<text text-anchor="start" x="809.547" y="-1172.2" font-family="Times,serif" font-size="14.00">id :integer</text>
<text text-anchor="start" x="809.547" y="-1155.4" font-family="Times,serif" font-size="14.00">name :string</text>
<text text-anchor="start" x="809.547" y="-1138.6" font-family="Times,serif" font-size="14.00">created_at :datetime</text>
<text text-anchor="start" x="809.547" y="-1121.8" font-family="Times,serif" font-size="14.00">updated_at :datetime</text>
</g>
<!-- Card -->
<g id="node4" class="node"><title>Card</title>
<path fill="none" stroke="black" d="M938.751,-683.2C938.751,-683.2 1063.35,-683.2 1063.35,-683.2 1069.35,-683.2 1075.35,-689.2 1075.35,-695.2 1075.35,-695.2 1075.35,-1056.8 1075.35,-1056.8 1075.35,-1062.8 1069.35,-1068.8 1063.35,-1068.8 1063.35,-1068.8 938.751,-1068.8 938.751,-1068.8 932.751,-1068.8 926.751,-1062.8 926.751,-1056.8 926.751,-1056.8 926.751,-695.2 926.751,-695.2 926.751,-689.2 932.751,-683.2 938.751,-683.2"/>
<text text-anchor="middle" x="1001.05" y="-1050.8" font-family="Times,serif" font-size="14.00">Card</text>
<polyline fill="none" stroke="black" points="926.751,-1044 1075.35,-1044 "/>
<text text-anchor="start" x="934.751" y="-1026" font-family="Times,serif" font-size="14.00">id :integer</text>
<text text-anchor="start" x="934.751" y="-1009.2" font-family="Times,serif" font-size="14.00">card_type_id :integer</text>
<text text-anchor="start" x="934.751" y="-992.4" font-family="Times,serif" font-size="14.00">name :string</text>
<text text-anchor="start" x="934.751" y="-975.6" font-family="Times,serif" font-size="14.00">responsable_id :integer</text>
<text text-anchor="start" x="934.751" y="-958.8" font-family="Times,serif" font-size="14.00">email :string</text>
<text text-anchor="start" x="934.751" y="-942" font-family="Times,serif" font-size="14.00">street :string</text>
<text text-anchor="start" x="934.751" y="-925.2" font-family="Times,serif" font-size="14.00">npa :integer</text>
<text text-anchor="start" x="934.751" y="-908.4" font-family="Times,serif" font-size="14.00">city :string</text>
<text text-anchor="start" x="934.751" y="-891.6" font-family="Times,serif" font-size="14.00">place :string</text>
<text text-anchor="start" x="934.751" y="-874.8" font-family="Times,serif" font-size="14.00">website :string</text>
<text text-anchor="start" x="934.751" y="-858" font-family="Times,serif" font-size="14.00">password_digest :string</text>
<text text-anchor="start" x="934.751" y="-841.2" font-family="Times,serif" font-size="14.00">description :text</text>
<text text-anchor="start" x="934.751" y="-824.4" font-family="Times,serif" font-size="14.00">affiliation :text</text>
<text text-anchor="start" x="934.751" y="-807.6" font-family="Times,serif" font-size="14.00">validated :boolean</text>
<text text-anchor="start" x="934.751" y="-790.8" font-family="Times,serif" font-size="14.00">created_at :datetime</text>
<text text-anchor="start" x="934.751" y="-774" font-family="Times,serif" font-size="14.00">updated_at :datetime</text>
<text text-anchor="start" x="934.751" y="-757.2" font-family="Times,serif" font-size="14.00">latitude :float</text>
<text text-anchor="start" x="934.751" y="-740.4" font-family="Times,serif" font-size="14.00">longitude :float</text>
<text text-anchor="start" x="934.751" y="-723.6" font-family="Times,serif" font-size="14.00">avatar :string</text>
<text text-anchor="start" x="934.751" y="-706.8" font-family="Times,serif" font-size="14.00">banner :string</text>
<text text-anchor="start" x="934.751" y="-690" font-family="Times,serif" font-size="14.00">card_id :integer</text>
</g>
<!-- Affiliation&#45;&gt;Card -->
<g id="edge5" class="edge"><title>Affiliation&#45;&gt;Card</title>
<path fill="none" stroke="#5fed40" d="M895.083,-1105.67C903.271,-1088 912.709,-1067.64 922.509,-1046.49"/>
<polygon fill="#5fed40" stroke="#5fed40" points="894.97,-1105.92 886.682,-1113.1 892.867,-1110.45 890.765,-1114.99 890.765,-1114.99 890.765,-1114.99 892.867,-1110.45 894.848,-1116.88 894.97,-1105.92 894.97,-1105.92"/>
<polygon fill="#5fed40" stroke="#5fed40" points="922.524,-1046.46 930.812,-1039.28 924.627,-1041.92 926.729,-1037.38 926.729,-1037.38 926.729,-1037.38 924.627,-1041.92 922.646,-1035.49 922.524,-1046.46 922.524,-1046.46"/>
</g>
<!-- CardAffiliation -->
<g id="node5" class="node"><title>CardAffiliation</title>
<path fill="none" stroke="black" d="M774.761,-469.6C774.761,-469.6 885.344,-469.6 885.344,-469.6 891.344,-469.6 897.344,-475.6 897.344,-481.6 897.344,-481.6 897.344,-574.4 897.344,-574.4 897.344,-580.4 891.344,-586.4 885.344,-586.4 885.344,-586.4 774.761,-586.4 774.761,-586.4 768.761,-586.4 762.761,-580.4 762.761,-574.4 762.761,-574.4 762.761,-481.6 762.761,-481.6 762.761,-475.6 768.761,-469.6 774.761,-469.6"/>
<text text-anchor="middle" x="830.053" y="-568.4" font-family="Times,serif" font-size="14.00">CardAffiliation</text>
<polyline fill="none" stroke="black" points="762.761,-561.6 897.344,-561.6 "/>
<text text-anchor="start" x="770.761" y="-543.6" font-family="Times,serif" font-size="14.00">id :integer</text>
<text text-anchor="start" x="770.761" y="-526.8" font-family="Times,serif" font-size="14.00">card_id :integer</text>
<text text-anchor="start" x="770.761" y="-510" font-family="Times,serif" font-size="14.00">affiliation_id :integer</text>
<text text-anchor="start" x="770.761" y="-493.2" font-family="Times,serif" font-size="14.00">created_at :datetime</text>
<text text-anchor="start" x="770.761" y="-476.4" font-family="Times,serif" font-size="14.00">updated_at :datetime</text>
</g>
<!-- Affiliation&#45;&gt;CardAffiliation -->
<g id="edge4" class="edge"><title>Affiliation&#45;&gt;CardAffiliation</title>
<path fill="none" stroke="#cb4b95" d="M864.636,-1106.91C857.623,-989.712 841.628,-722.427 834.105,-596.718"/>
<ellipse fill="none" stroke="#cb4b95" cx="864.879" cy="-1110.97" rx="4" ry="4"/>
<polygon fill="#cb4b95" stroke="#cb4b95" points="834.089,-596.441 837.983,-586.19 833.79,-591.45 833.491,-586.459 833.491,-586.459 833.491,-586.459 833.79,-591.45 828.999,-586.727 834.089,-596.441 834.089,-596.441"/>
</g>
<!-- Card&#45;&gt;Card -->
<g id="edge15" class="edge"><title>Card&#45;&gt;Card</title>
<path fill="none" stroke="#cb05de" d="M1081.39,-918.654C1088.55,-909.717 1093.05,-895.499 1093.05,-876 1093.05,-856.501 1088.55,-842.283 1081.39,-833.346"/>
<ellipse fill="none" stroke="#cb05de" cx="1078.28" cy="-921.672" rx="4.00002" ry="4.00002"/>
<ellipse fill="#cb05de" stroke="#cb05de" cx="1078.28" cy="-830.328" rx="4.00002" ry="4.00002"/>
</g>
<!-- Card&#45;&gt;CardAffiliation -->
<g id="edge11" class="edge"><title>Card&#45;&gt;CardAffiliation</title>
<path fill="none" stroke="#d55ac5" d="M922.986,-717.04C901.864,-674.303 880.133,-630.332 863.001,-595.667"/>
<ellipse fill="none" stroke="#d55ac5" cx="924.899" cy="-720.911" rx="4.00002" ry="4.00002"/>
<polygon fill="#d55ac5" stroke="#d55ac5" points="862.952,-595.569 862.556,-584.61 860.737,-591.086 858.522,-586.604 858.522,-586.604 858.522,-586.604 860.737,-591.086 854.487,-588.598 862.952,-595.569 862.952,-595.569"/>
</g>
<!-- CardResponsable -->
<g id="node6" class="node"><title>CardResponsable</title>
<path fill="none" stroke="black" d="M1068.93,-205.6C1068.93,-205.6 1191.17,-205.6 1191.17,-205.6 1197.17,-205.6 1203.17,-211.6 1203.17,-217.6 1203.17,-217.6 1203.17,-310.4 1203.17,-310.4 1203.17,-316.4 1197.17,-322.4 1191.17,-322.4 1191.17,-322.4 1068.93,-322.4 1068.93,-322.4 1062.93,-322.4 1056.93,-316.4 1056.93,-310.4 1056.93,-310.4 1056.93,-217.6 1056.93,-217.6 1056.93,-211.6 1062.93,-205.6 1068.93,-205.6"/>
<text text-anchor="middle" x="1130.05" y="-304.4" font-family="Times,serif" font-size="14.00">CardResponsable</text>
<polyline fill="none" stroke="black" points="1056.93,-297.6 1203.17,-297.6 "/>
<text text-anchor="start" x="1064.93" y="-279.6" font-family="Times,serif" font-size="14.00">id :integer</text>
<text text-anchor="start" x="1064.93" y="-262.8" font-family="Times,serif" font-size="14.00">card_id :integer</text>
<text text-anchor="start" x="1064.93" y="-246" font-family="Times,serif" font-size="14.00">responsable_id :integer</text>
<text text-anchor="start" x="1064.93" y="-229.2" font-family="Times,serif" font-size="14.00">created_at :datetime</text>
<text text-anchor="start" x="1064.93" y="-212.4" font-family="Times,serif" font-size="14.00">updated_at :datetime</text>
</g>
<!-- Card&#45;&gt;CardResponsable -->
<g id="edge7" class="edge"><title>Card&#45;&gt;CardResponsable</title>
<path fill="none" stroke="#adbb14" d="M986.703,-674.94C986.924,-590.988 995.547,-493.635 1025.05,-410 1035.04,-381.684 1052.45,-354.089 1070.24,-330.704"/>
<ellipse fill="none" stroke="#adbb14" cx="986.705" cy="-679.022" rx="4" ry="4"/>
<polygon fill="#adbb14" stroke="#adbb14" points="1070.4,-330.503 1080.1,-325.379 1073.47,-326.559 1076.55,-322.614 1076.55,-322.614 1076.55,-322.614 1073.47,-326.559 1073,-319.849 1070.4,-330.503 1070.4,-330.503"/>
</g>
<!-- CardVerification -->
<g id="node8" class="node"><title>CardVerification</title>
<path fill="none" stroke="black" d="M481.547,-205.6C481.547,-205.6 590.558,-205.6 590.558,-205.6 596.558,-205.6 602.558,-211.6 602.558,-217.6 602.558,-217.6 602.558,-310.4 602.558,-310.4 602.558,-316.4 596.558,-322.4 590.558,-322.4 590.558,-322.4 481.547,-322.4 481.547,-322.4 475.547,-322.4 469.547,-316.4 469.547,-310.4 469.547,-310.4 469.547,-217.6 469.547,-217.6 469.547,-211.6 475.547,-205.6 481.547,-205.6"/>
<text text-anchor="middle" x="536.053" y="-304.4" font-family="Times,serif" font-size="14.00">CardVerification</text>
<polyline fill="none" stroke="black" points="469.547,-297.6 602.558,-297.6 "/>
<text text-anchor="start" x="477.547" y="-279.6" font-family="Times,serif" font-size="14.00">id :integer</text>
<text text-anchor="start" x="477.547" y="-262.8" font-family="Times,serif" font-size="14.00">card_id :integer</text>
<text text-anchor="start" x="477.547" y="-246" font-family="Times,serif" font-size="14.00">user_id :integer</text>
<text text-anchor="start" x="477.547" y="-229.2" font-family="Times,serif" font-size="14.00">created_at :datetime</text>
<text text-anchor="start" x="477.547" y="-212.4" font-family="Times,serif" font-size="14.00">updated_at :datetime</text>
</g>
<!-- Card&#45;&gt;CardVerification -->
<g id="edge9" class="edge"><title>Card&#45;&gt;CardVerification</title>
<path fill="none" stroke="#ef2ec5" d="M945.37,-675.115C943.128,-665.296 941.006,-655.552 939.053,-646 928.446,-594.118 943.823,-447.116 906.053,-410 811.842,-317.423 724.016,-442.449 611.053,-374 593.905,-363.61 579.732,-347.633 568.498,-331.088"/>
<ellipse fill="none" stroke="#ef2ec5" cx="946.293" cy="-679.105" rx="4.00001" ry="4.00001"/>
<polygon fill="#ef2ec5" stroke="#ef2ec5" points="568.318,-330.809 566.671,-319.968 565.605,-326.61 562.891,-322.41 562.891,-322.41 562.891,-322.41 565.605,-326.61 559.112,-324.852 568.318,-330.809 568.318,-330.809"/>
</g>
<!-- Responsable -->
<g id="node16" class="node"><title>Responsable</title>
<path fill="none" stroke="black" d="M1079.55,-461.2C1079.55,-461.2 1188.56,-461.2 1188.56,-461.2 1194.56,-461.2 1200.56,-467.2 1200.56,-473.2 1200.56,-473.2 1200.56,-582.8 1200.56,-582.8 1200.56,-588.8 1194.56,-594.8 1188.56,-594.8 1188.56,-594.8 1079.55,-594.8 1079.55,-594.8 1073.55,-594.8 1067.55,-588.8 1067.55,-582.8 1067.55,-582.8 1067.55,-473.2 1067.55,-473.2 1067.55,-467.2 1073.55,-461.2 1079.55,-461.2"/>
<text text-anchor="middle" x="1134.05" y="-576.8" font-family="Times,serif" font-size="14.00">Responsable</text>
<polyline fill="none" stroke="black" points="1067.55,-570 1200.56,-570 "/>
<text text-anchor="start" x="1075.55" y="-552" font-family="Times,serif" font-size="14.00">id :integer</text>
<text text-anchor="start" x="1075.55" y="-535.2" font-family="Times,serif" font-size="14.00">firstname :string</text>
<text text-anchor="start" x="1075.55" y="-518.4" font-family="Times,serif" font-size="14.00">lastname :string</text>
<text text-anchor="start" x="1075.55" y="-501.6" font-family="Times,serif" font-size="14.00">email :string</text>
<text text-anchor="start" x="1075.55" y="-484.8" font-family="Times,serif" font-size="14.00">created_at :datetime</text>
<text text-anchor="start" x="1075.55" y="-468" font-family="Times,serif" font-size="14.00">updated_at :datetime</text>
</g>
<!-- Card&#45;&gt;Responsable -->
<g id="edge8" class="edge"><title>Card&#45;&gt;Responsable</title>
<path fill="none" stroke="#37414b" d="M1078.54,-673.426C1087.94,-648.966 1097.04,-625.289 1105.06,-604.425"/>
<polygon fill="#37414b" stroke="#37414b" points="1078.43,-673.693 1070.65,-681.413 1076.64,-678.361 1074.85,-683.028 1074.85,-683.028 1074.85,-683.028 1076.64,-678.361 1079.05,-684.642 1078.43,-673.693 1078.43,-673.693"/>
<polygon fill="#37414b" stroke="#37414b" points="1105.08,-604.379 1112.87,-596.659 1106.87,-599.712 1108.67,-595.045 1108.67,-595.045 1108.67,-595.045 1106.87,-599.712 1104.47,-593.43 1105.08,-604.379 1105.08,-604.379"/>
</g>
<!-- Tag -->
<g id="node17" class="node"><title>Tag</title>
<path fill="none" stroke="black" d="M1230.55,-469.6C1230.55,-469.6 1339.56,-469.6 1339.56,-469.6 1345.56,-469.6 1351.56,-475.6 1351.56,-481.6 1351.56,-481.6 1351.56,-574.4 1351.56,-574.4 1351.56,-580.4 1345.56,-586.4 1339.56,-586.4 1339.56,-586.4 1230.55,-586.4 1230.55,-586.4 1224.55,-586.4 1218.55,-580.4 1218.55,-574.4 1218.55,-574.4 1218.55,-481.6 1218.55,-481.6 1218.55,-475.6 1224.55,-469.6 1230.55,-469.6"/>
<text text-anchor="middle" x="1285.05" y="-568.4" font-family="Times,serif" font-size="14.00">Tag</text>
<polyline fill="none" stroke="black" points="1218.55,-561.6 1351.56,-561.6 "/>
<text text-anchor="start" x="1226.55" y="-543.6" font-family="Times,serif" font-size="14.00">id :integer</text>
<text text-anchor="start" x="1226.55" y="-526.8" font-family="Times,serif" font-size="14.00">name :string</text>
<text text-anchor="start" x="1226.55" y="-510" font-family="Times,serif" font-size="14.00">popularity :integer</text>
<text text-anchor="start" x="1226.55" y="-493.2" font-family="Times,serif" font-size="14.00">created_at :datetime</text>
<text text-anchor="start" x="1226.55" y="-476.4" font-family="Times,serif" font-size="14.00">updated_at :datetime</text>
</g>
<!-- Card&#45;&gt;Tag -->
<g id="edge13" class="edge"><title>Card&#45;&gt;Tag</title>
<path fill="none" stroke="#e4762b" d="M1082.61,-791.789C1122.45,-749.539 1170.08,-696.561 1209.05,-646 1221.33,-630.072 1233.64,-612.169 1244.67,-595.248"/>
<polygon fill="#e4762b" stroke="#e4762b" points="1082.4,-792.016 1072.26,-796.187 1078.96,-795.648 1075.53,-799.28 1075.53,-799.28 1075.53,-799.28 1078.96,-795.648 1078.8,-802.373 1082.4,-792.016 1082.4,-792.016"/>
<polygon fill="#e4762b" stroke="#e4762b" points="1244.89,-594.906 1254.09,-588.944 1247.6,-590.705 1250.31,-586.504 1250.31,-586.504 1250.31,-586.504 1247.6,-590.705 1246.53,-584.064 1244.89,-594.906 1244.89,-594.906"/>
</g>
<!-- Tagging -->
<g id="node18" class="node"><title>Tagging</title>
<path fill="none" stroke="black" d="M1233.55,-205.6C1233.55,-205.6 1342.56,-205.6 1342.56,-205.6 1348.56,-205.6 1354.56,-211.6 1354.56,-217.6 1354.56,-217.6 1354.56,-310.4 1354.56,-310.4 1354.56,-316.4 1348.56,-322.4 1342.56,-322.4 1342.56,-322.4 1233.55,-322.4 1233.55,-322.4 1227.55,-322.4 1221.55,-316.4 1221.55,-310.4 1221.55,-310.4 1221.55,-217.6 1221.55,-217.6 1221.55,-211.6 1227.55,-205.6 1233.55,-205.6"/>
<text text-anchor="middle" x="1288.05" y="-304.4" font-family="Times,serif" font-size="14.00">Tagging</text>
<polyline fill="none" stroke="black" points="1221.55,-297.6 1354.56,-297.6 "/>
<text text-anchor="start" x="1229.55" y="-279.6" font-family="Times,serif" font-size="14.00">id :integer</text>
<text text-anchor="start" x="1229.55" y="-262.8" font-family="Times,serif" font-size="14.00">card_id :integer</text>
<text text-anchor="start" x="1229.55" y="-246" font-family="Times,serif" font-size="14.00">tag_id :integer</text>
<text text-anchor="start" x="1229.55" y="-229.2" font-family="Times,serif" font-size="14.00">created_at :datetime</text>
<text text-anchor="start" x="1229.55" y="-212.4" font-family="Times,serif" font-size="14.00">updated_at :datetime</text>
</g>
<!-- Card&#45;&gt;Tagging -->
<g id="edge12" class="edge"><title>Card&#45;&gt;Tagging</title>
<path fill="none" stroke="#7fee28" d="M1020.39,-674.974C1032.97,-553.741 1048.72,-420.401 1058.05,-410 1105.01,-357.695 1153.87,-413.443 1212.05,-374 1228.31,-362.976 1242.17,-347.225 1253.41,-331.112"/>
<ellipse fill="none" stroke="#7fee28" cx="1019.98" cy="-678.962" rx="4" ry="4"/>
<polygon fill="#7fee28" stroke="#7fee28" points="1253.49,-330.988 1262.8,-325.178 1256.27,-326.832 1259.05,-322.676 1259.05,-322.676 1259.05,-322.676 1256.27,-326.832 1255.31,-320.174 1253.49,-330.988 1253.49,-330.988"/>
</g>
<!-- User -->
<g id="node19" class="node"><title>User</title>
<path fill="none" stroke="black" d="M512.989,-410.8C512.989,-410.8 639.117,-410.8 639.117,-410.8 645.117,-410.8 651.117,-416.8 651.117,-422.8 651.117,-422.8 651.117,-633.2 651.117,-633.2 651.117,-639.2 645.117,-645.2 639.117,-645.2 639.117,-645.2 512.989,-645.2 512.989,-645.2 506.989,-645.2 500.989,-639.2 500.989,-633.2 500.989,-633.2 500.989,-422.8 500.989,-422.8 500.989,-416.8 506.989,-410.8 512.989,-410.8"/>
<text text-anchor="middle" x="576.053" y="-627.2" font-family="Times,serif" font-size="14.00">User</text>
<polyline fill="none" stroke="black" points="500.989,-620.4 651.117,-620.4 "/>
<text text-anchor="start" x="508.989" y="-602.4" font-family="Times,serif" font-size="14.00">id :integer</text>
<text text-anchor="start" x="508.989" y="-585.6" font-family="Times,serif" font-size="14.00">name :string</text>
<text text-anchor="start" x="508.989" y="-568.8" font-family="Times,serif" font-size="14.00">email :string</text>
<text text-anchor="start" x="508.989" y="-552" font-family="Times,serif" font-size="14.00">gravatar_email :string</text>
<text text-anchor="start" x="508.989" y="-535.2" font-family="Times,serif" font-size="14.00">password_digest :string</text>
<text text-anchor="start" x="508.989" y="-518.4" font-family="Times,serif" font-size="14.00">remember_token :string</text>
<text text-anchor="start" x="508.989" y="-501.6" font-family="Times,serif" font-size="14.00">user_type_id :integer</text>
<text text-anchor="start" x="508.989" y="-484.8" font-family="Times,serif" font-size="14.00">uid :string</text>
<text text-anchor="start" x="508.989" y="-468" font-family="Times,serif" font-size="14.00">created_at :datetime</text>
<text text-anchor="start" x="508.989" y="-451.2" font-family="Times,serif" font-size="14.00">updated_at :datetime</text>
<text text-anchor="start" x="508.989" y="-434.4" font-family="Times,serif" font-size="14.00">reset_token :string</text>
<text text-anchor="start" x="508.989" y="-417.6" font-family="Times,serif" font-size="14.00">reset_sent_at :datetime</text>
</g>
<!-- Card&#45;&gt;User -->
<g id="edge10" class="edge"><title>Card&#45;&gt;User</title>
<path fill="none" stroke="#c337b6" d="M918.691,-807.948C843.944,-747.095 734.263,-657.802 659.256,-596.737"/>
<polygon fill="#c337b6" stroke="#c337b6" points="918.782,-808.022 923.696,-817.825 922.659,-811.179 926.537,-814.335 926.537,-814.335 926.537,-814.335 922.659,-811.179 929.378,-810.846 918.782,-808.022 918.782,-808.022"/>
<polygon fill="#c337b6" stroke="#c337b6" points="658.953,-596.491 654.039,-586.687 655.075,-593.334 651.198,-590.177 651.198,-590.177 651.198,-590.177 655.075,-593.334 648.357,-593.667 658.953,-596.491 658.953,-596.491"/>
</g>
<!-- VerificatorComment -->
<g id="node21" class="node"><title>VerificatorComment</title>
<path fill="none" stroke="black" d="M783.547,-197.2C783.547,-197.2 892.558,-197.2 892.558,-197.2 898.558,-197.2 904.558,-203.2 904.558,-209.2 904.558,-209.2 904.558,-318.8 904.558,-318.8 904.558,-324.8 898.558,-330.8 892.558,-330.8 892.558,-330.8 783.547,-330.8 783.547,-330.8 777.547,-330.8 771.547,-324.8 771.547,-318.8 771.547,-318.8 771.547,-209.2 771.547,-209.2 771.547,-203.2 777.547,-197.2 783.547,-197.2"/>
<text text-anchor="middle" x="838.053" y="-312.8" font-family="Times,serif" font-size="14.00">VerificatorComment</text>
<polyline fill="none" stroke="black" points="771.547,-306 904.558,-306 "/>
<text text-anchor="start" x="779.547" y="-288" font-family="Times,serif" font-size="14.00">id :integer</text>
<text text-anchor="start" x="779.547" y="-271.2" font-family="Times,serif" font-size="14.00">content :text</text>
<text text-anchor="start" x="779.547" y="-254.4" font-family="Times,serif" font-size="14.00">user_id :integer</text>
<text text-anchor="start" x="779.547" y="-237.6" font-family="Times,serif" font-size="14.00">card_id :integer</text>
<text text-anchor="start" x="779.547" y="-220.8" font-family="Times,serif" font-size="14.00">created_at :datetime</text>
<text text-anchor="start" x="779.547" y="-204" font-family="Times,serif" font-size="14.00">updated_at :datetime</text>
</g>
<!-- Card&#45;&gt;VerificatorComment -->
<g id="edge14" class="edge"><title>Card&#45;&gt;VerificatorComment</title>
<path fill="none" stroke="#a89e72" d="M983.783,-674.869C973.021,-571.822 957.679,-457.955 939.053,-410 929.45,-385.276 914.814,-360.714 899.639,-339.024"/>
<ellipse fill="none" stroke="#a89e72" cx="984.203" cy="-678.921" rx="4" ry="4"/>
<polygon fill="#a89e72" stroke="#a89e72" points="899.619,-338.996 897.468,-328.242 896.712,-334.927 893.806,-330.858 893.806,-330.858 893.806,-330.858 896.712,-334.927 890.145,-333.473 899.619,-338.996 899.619,-338.996"/>
</g>
<!-- CardType -->
<g id="node7" class="node"><title>CardType</title>
<path fill="none" stroke="black" d="M964.547,-1115C964.547,-1115 1073.56,-1115 1073.56,-1115 1079.56,-1115 1085.56,-1121 1085.56,-1127 1085.56,-1127 1085.56,-1203 1085.56,-1203 1085.56,-1209 1079.56,-1215 1073.56,-1215 1073.56,-1215 964.547,-1215 964.547,-1215 958.547,-1215 952.547,-1209 952.547,-1203 952.547,-1203 952.547,-1127 952.547,-1127 952.547,-1121 958.547,-1115 964.547,-1115"/>
<text text-anchor="middle" x="1019.05" y="-1197" font-family="Times,serif" font-size="14.00">CardType</text>
<polyline fill="none" stroke="black" points="952.547,-1190.2 1085.56,-1190.2 "/>
<text text-anchor="start" x="960.547" y="-1172.2" font-family="Times,serif" font-size="14.00">id :integer</text>
<text text-anchor="start" x="960.547" y="-1155.4" font-family="Times,serif" font-size="14.00">name :string</text>
<text text-anchor="start" x="960.547" y="-1138.6" font-family="Times,serif" font-size="14.00">created_at :datetime</text>
<text text-anchor="start" x="960.547" y="-1121.8" font-family="Times,serif" font-size="14.00">updated_at :datetime</text>
</g>
<!-- CardType&#45;&gt;Card -->
<g id="edge19" class="edge"><title>CardType&#45;&gt;Card</title>
<path fill="none" stroke="#5b33a3" d="M1015.46,-1106.74C1014.92,-1098.11 1014.34,-1088.81 1013.73,-1079.09"/>
<ellipse fill="none" stroke="#5b33a3" cx="1015.73" cy="-1111" rx="4" ry="4"/>
<polygon fill="#5b33a3" stroke="#5b33a3" points="1013.71,-1078.78 1017.57,-1068.52 1013.39,-1073.79 1013.08,-1068.8 1013.08,-1068.8 1013.08,-1068.8 1013.39,-1073.79 1008.59,-1069.08 1013.71,-1078.78 1013.71,-1078.78"/>
</g>
<!-- Element -->
<g id="node9" class="node"><title>Element</title>
<path fill="none" stroke="black" d="M92.5473,-826C92.5473,-826 201.558,-826 201.558,-826 207.558,-826 213.558,-832 213.558,-838 213.558,-838 213.558,-914 213.558,-914 213.558,-920 207.558,-926 201.558,-926 201.558,-926 92.5473,-926 92.5473,-926 86.5473,-926 80.5473,-920 80.5473,-914 80.5473,-914 80.5473,-838 80.5473,-838 80.5473,-832 86.5473,-826 92.5473,-826"/>
<text text-anchor="middle" x="147.053" y="-908" font-family="Times,serif" font-size="14.00">Element</text>
<polyline fill="none" stroke="black" points="80.5473,-901.2 213.558,-901.2 "/>
<text text-anchor="start" x="88.5473" y="-883.2" font-family="Times,serif" font-size="14.00">id :integer</text>
<text text-anchor="start" x="88.5473" y="-866.4" font-family="Times,serif" font-size="14.00">name :string</text>
<text text-anchor="start" x="88.5473" y="-849.6" font-family="Times,serif" font-size="14.00">created_at :datetime</text>
<text text-anchor="start" x="88.5473" y="-832.8" font-family="Times,serif" font-size="14.00">updated_at :datetime</text>
</g>
<!-- Element&#45;&gt;Ownership -->
<g id="edge22" class="edge"><title>Element&#45;&gt;Ownership</title>
<path fill="none" stroke="#0415ec" d="M161.198,-817.857C185.692,-718.909 236.476,-513.753 268.821,-383.087"/>
<ellipse fill="none" stroke="#0415ec" cx="160.179" cy="-821.973" rx="4.00001" ry="4.00001"/>
<polygon fill="#0415ec" stroke="#0415ec" points="268.908,-382.737 275.679,-374.111 270.109,-377.883 271.311,-373.03 271.311,-373.03 271.311,-373.03 270.109,-377.883 266.943,-371.949 268.908,-382.737 268.908,-382.737"/>
</g>
<!-- Ownership&#45;&gt;OwnershipAction -->
<g id="edge24" class="edge"><title>Ownership&#45;&gt;OwnershipAction</title>
<path fill="none" stroke="#1bbeb8" d="M298.053,-146.84C298.053,-140.379 298.053,-133.999 298.053,-127.808"/>
<ellipse fill="none" stroke="#1bbeb8" cx="298.053" cy="-150.962" rx="4" ry="4"/>
<polygon fill="#1bbeb8" stroke="#1bbeb8" points="298.053,-127.586 302.553,-117.586 298.053,-122.586 298.053,-117.586 298.053,-117.586 298.053,-117.586 298.053,-122.586 293.553,-117.586 298.053,-127.586 298.053,-127.586"/>
</g>
<!-- OwnershipType -->
<g id="node12" class="node"><title>OwnershipType</title>
<path fill="none" stroke="black" d="M243.547,-826C243.547,-826 352.558,-826 352.558,-826 358.558,-826 364.558,-832 364.558,-838 364.558,-838 364.558,-914 364.558,-914 364.558,-920 358.558,-926 352.558,-926 352.558,-926 243.547,-926 243.547,-926 237.547,-926 231.547,-920 231.547,-914 231.547,-914 231.547,-838 231.547,-838 231.547,-832 237.547,-826 243.547,-826"/>
<text text-anchor="middle" x="298.053" y="-908" font-family="Times,serif" font-size="14.00">OwnershipType</text>
<polyline fill="none" stroke="black" points="231.547,-901.2 364.558,-901.2 "/>
<text text-anchor="start" x="239.547" y="-883.2" font-family="Times,serif" font-size="14.00">id :integer</text>
<text text-anchor="start" x="239.547" y="-866.4" font-family="Times,serif" font-size="14.00">name :string</text>
<text text-anchor="start" x="239.547" y="-849.6" font-family="Times,serif" font-size="14.00">created_at :datetime</text>
<text text-anchor="start" x="239.547" y="-832.8" font-family="Times,serif" font-size="14.00">updated_at :datetime</text>
</g>
<!-- OwnershipType&#45;&gt;Ownership -->
<g id="edge27" class="edge"><title>OwnershipType&#45;&gt;Ownership</title>
<path fill="none" stroke="#dd6b68" d="M298.053,-817.551C298.053,-718.484 298.053,-513.608 298.053,-383.077"/>
<ellipse fill="none" stroke="#dd6b68" cx="298.053" cy="-821.855" rx="4" ry="4"/>
<polygon fill="#dd6b68" stroke="#dd6b68" points="298.053,-383.03 302.553,-373.03 298.053,-378.03 298.053,-373.03 298.053,-373.03 298.053,-373.03 298.053,-378.03 293.553,-373.03 298.053,-383.03 298.053,-383.03"/>
</g>
<!-- Page -->
<g id="node13" class="node"><title>Page</title>
<path fill="none" stroke="black" d="M1458.55,-1106.6C1458.55,-1106.6 1567.56,-1106.6 1567.56,-1106.6 1573.56,-1106.6 1579.56,-1112.6 1579.56,-1118.6 1579.56,-1118.6 1579.56,-1211.4 1579.56,-1211.4 1579.56,-1217.4 1573.56,-1223.4 1567.56,-1223.4 1567.56,-1223.4 1458.55,-1223.4 1458.55,-1223.4 1452.55,-1223.4 1446.55,-1217.4 1446.55,-1211.4 1446.55,-1211.4 1446.55,-1118.6 1446.55,-1118.6 1446.55,-1112.6 1452.55,-1106.6 1458.55,-1106.6"/>
<text text-anchor="middle" x="1513.05" y="-1205.4" font-family="Times,serif" font-size="14.00">Page</text>
<polyline fill="none" stroke="black" points="1446.55,-1198.6 1579.56,-1198.6 "/>
<text text-anchor="start" x="1454.55" y="-1180.6" font-family="Times,serif" font-size="14.00">id :integer</text>
<text text-anchor="start" x="1454.55" y="-1163.8" font-family="Times,serif" font-size="14.00">name :string</text>
<text text-anchor="start" x="1454.55" y="-1147" font-family="Times,serif" font-size="14.00">content :text</text>
<text text-anchor="start" x="1454.55" y="-1130.2" font-family="Times,serif" font-size="14.00">created_at :datetime</text>
<text text-anchor="start" x="1454.55" y="-1113.4" font-family="Times,serif" font-size="14.00">updated_at :datetime</text>
</g>
<!-- Parent -->
<g id="node14" class="node"><title>Parent</title>
<path fill="none" stroke="black" d="M632.547,-205.6C632.547,-205.6 741.558,-205.6 741.558,-205.6 747.558,-205.6 753.558,-211.6 753.558,-217.6 753.558,-217.6 753.558,-310.4 753.558,-310.4 753.558,-316.4 747.558,-322.4 741.558,-322.4 741.558,-322.4 632.547,-322.4 632.547,-322.4 626.547,-322.4 620.547,-316.4 620.547,-310.4 620.547,-310.4 620.547,-217.6 620.547,-217.6 620.547,-211.6 626.547,-205.6 632.547,-205.6"/>
<text text-anchor="middle" x="687.053" y="-304.4" font-family="Times,serif" font-size="14.00">Parent</text>
<polyline fill="none" stroke="black" points="620.547,-297.6 753.558,-297.6 "/>
<text text-anchor="start" x="628.547" y="-279.6" font-family="Times,serif" font-size="14.00">id :integer</text>
<text text-anchor="start" x="628.547" y="-262.8" font-family="Times,serif" font-size="14.00">user_id :integer</text>
<text text-anchor="start" x="628.547" y="-246" font-family="Times,serif" font-size="14.00">parent_id :integer</text>
<text text-anchor="start" x="628.547" y="-229.2" font-family="Times,serif" font-size="14.00">created_at :datetime</text>
<text text-anchor="start" x="628.547" y="-212.4" font-family="Times,serif" font-size="14.00">updated_at :datetime</text>
</g>
<!-- Permission -->
<g id="node15" class="node"><title>Permission</title>
<polygon fill="none" stroke="black" points="1597.94,-1140.2 1597.94,-1189.8 1676.17,-1189.8 1676.17,-1140.2 1597.94,-1140.2"/>
<text text-anchor="middle" x="1637.05" y="-1171.8" font-family="Times,serif" font-size="14.00">Permission</text>
<polyline fill="none" stroke="black" points="1597.94,-1165 1676.17,-1165 "/>
<text text-anchor="middle" x="1637.05" y="-1147" font-family="Times,serif" font-size="14.00"> </text>
</g>
<!-- Responsable&#45;&gt;CardResponsable -->
<g id="edge32" class="edge"><title>Responsable&#45;&gt;CardResponsable</title>
<path fill="none" stroke="#07053d" d="M1132.92,-452.762C1132.34,-415.035 1131.65,-369.521 1131.09,-332.753"/>
<ellipse fill="none" stroke="#07053d" cx="1132.98" cy="-456.887" rx="4" ry="4"/>
<polygon fill="#07053d" stroke="#07053d" points="1131.09,-332.628 1135.43,-322.56 1131.01,-327.628 1130.93,-322.629 1130.93,-322.629 1130.93,-322.629 1131.01,-327.628 1126.43,-322.697 1131.09,-332.628 1131.09,-332.628"/>
</g>
<!-- Tag&#45;&gt;Tagging -->
<g id="edge34" class="edge"><title>Tag&#45;&gt;Tagging</title>
<path fill="none" stroke="#e7c437" d="M1285.8,-461.427C1286.25,-422.23 1286.82,-372.519 1287.28,-332.914"/>
<ellipse fill="none" stroke="#e7c437" cx="1285.76" cy="-465.503" rx="4" ry="4"/>
<polygon fill="#e7c437" stroke="#e7c437" points="1287.28,-332.814 1291.89,-322.867 1287.33,-327.815 1287.39,-322.815 1287.39,-322.815 1287.39,-322.815 1287.33,-327.815 1282.89,-322.763 1287.28,-332.814 1287.28,-332.814"/>
</g>
<!-- User&#45;&gt;CardVerification -->
<g id="edge37" class="edge"><title>User&#45;&gt;CardVerification</title>
<path fill="none" stroke="#b831f9" d="M557.018,-402.322C553.345,-378.268 549.63,-353.929 546.367,-332.559"/>
<ellipse fill="none" stroke="#b831f9" cx="557.671" cy="-406.603" rx="4.00001" ry="4.00001"/>
<polygon fill="#b831f9" stroke="#b831f9" points="546.362,-332.528 549.302,-321.963 545.608,-327.585 544.853,-322.643 544.853,-322.643 544.853,-322.643 545.608,-327.585 540.405,-323.322 546.362,-332.528 546.362,-332.528"/>
</g>
<!-- User&#45;&gt;Ownership -->
<g id="edge38" class="edge"><title>User&#45;&gt;Ownership</title>
<path fill="none" stroke="#51a355" d="M494.795,-450.419C462.179,-419.68 424.404,-384.079 390.726,-352.339"/>
<ellipse fill="none" stroke="#51a355" cx="497.911" cy="-453.356" rx="4.00002" ry="4.00002"/>
<polygon fill="#51a355" stroke="#51a355" points="390.436,-352.066 386.245,-341.933 386.797,-348.637 383.159,-345.208 383.159,-345.208 383.159,-345.208 386.797,-348.637 380.072,-348.483 390.436,-352.066 390.436,-352.066"/>
</g>
<!-- User&#45;&gt;Parent -->
<g id="edge39" class="edge"><title>User&#45;&gt;Parent</title>
<path fill="none" stroke="#875d56" d="M628.57,-403.039C638.939,-378.565 649.447,-353.763 658.641,-332.062"/>
<ellipse fill="none" stroke="#875d56" cx="626.946" cy="-406.874" rx="4.00002" ry="4.00002"/>
<polygon fill="#875d56" stroke="#875d56" points="658.73,-331.85 666.775,-324.398 660.681,-327.247 662.632,-322.643 662.632,-322.643 662.632,-322.643 660.681,-327.247 658.488,-320.887 658.73,-331.85 658.73,-331.85"/>
</g>
<!-- User&#45;&gt;User -->
<g id="edge40" class="edge"><title>User&#45;&gt;User</title>
<path fill="none" stroke="#e5c0ba" d="M658.712,-565.345C665.108,-557.095 669.053,-544.647 669.053,-528 669.053,-511.353 665.108,-498.905 658.712,-490.655"/>
<polygon fill="#e5c0ba" stroke="#e5c0ba" points="658.49,-565.554 648.131,-569.15 654.856,-568.988 651.221,-572.421 651.221,-572.421 651.221,-572.421 654.856,-568.988 654.311,-575.692 658.49,-565.554 658.49,-565.554"/>
<polygon fill="#e5c0ba" stroke="#e5c0ba" points="658.49,-490.446 654.311,-480.308 654.856,-487.012 651.221,-483.579 651.221,-483.579 651.221,-483.579 654.856,-487.012 648.131,-486.85 658.49,-490.446 658.49,-490.446"/>
</g>
<!-- User&#45;&gt;VerificatorComment -->
<g id="edge41" class="edge"><title>User&#45;&gt;VerificatorComment</title>
<path fill="none" stroke="#9a155f" d="M657.572,-461.651C703.146,-424.815 752.654,-384.176 762.053,-374 771.908,-363.328 781.514,-351.312 790.396,-339.257"/>
<ellipse fill="none" stroke="#9a155f" cx="654.284" cy="-464.307" rx="4.00002" ry="4.00002"/>
<polygon fill="#9a155f" stroke="#9a155f" points="790.563,-339.026 800.07,-333.559 793.493,-334.974 796.423,-330.922 796.423,-330.922 796.423,-330.922 793.493,-334.974 792.777,-328.285 790.563,-339.026 790.563,-339.026"/>
</g>
<!-- UserType -->
<g id="node20" class="node"><title>UserType</title>
<path fill="none" stroke="black" d="M547.547,-826C547.547,-826 656.558,-826 656.558,-826 662.558,-826 668.558,-832 668.558,-838 668.558,-838 668.558,-914 668.558,-914 668.558,-920 662.558,-926 656.558,-926 656.558,-926 547.547,-926 547.547,-926 541.547,-926 535.547,-920 535.547,-914 535.547,-914 535.547,-838 535.547,-838 535.547,-832 541.547,-826 547.547,-826"/>
<text text-anchor="middle" x="602.053" y="-908" font-family="Times,serif" font-size="14.00">UserType</text>
<polyline fill="none" stroke="black" points="535.547,-901.2 668.558,-901.2 "/>
<text text-anchor="start" x="543.547" y="-883.2" font-family="Times,serif" font-size="14.00">id :integer</text>
<text text-anchor="start" x="543.547" y="-866.4" font-family="Times,serif" font-size="14.00">name :string</text>
<text text-anchor="start" x="543.547" y="-849.6" font-family="Times,serif" font-size="14.00">created_at :datetime</text>
<text text-anchor="start" x="543.547" y="-832.8" font-family="Times,serif" font-size="14.00">updated_at :datetime</text>
</g>
<!-- UserType&#45;&gt;User -->
<g id="edge43" class="edge"><title>UserType&#45;&gt;User</title>
<path fill="none" stroke="#a777ab" d="M597.739,-817.599C594.43,-773.557 589.735,-711.087 585.56,-655.525"/>
<ellipse fill="none" stroke="#a777ab" cx="598.055" cy="-821.805" rx="4" ry="4"/>
<polygon fill="#a777ab" stroke="#a777ab" points="585.537,-655.209 589.275,-644.899 585.162,-650.223 584.787,-645.237 584.787,-645.237 584.787,-645.237 585.162,-650.223 580.3,-645.574 585.537,-655.209 585.537,-655.209"/>
</g>
<!-- ActiveRecord::Base -->
<g id="node22" class="node"><title>ActiveRecord::Base</title>
<ellipse fill="none" stroke="black" cx="735.053" cy="-1303" rx="88.2033" ry="18"/>
<text text-anchor="middle" x="735.053" y="-1297.4" font-family="Times,serif" font-size="14.00">ActiveRecord::Base</text>
</g>
<!-- ActiveRecord::Base&#45;&gt;Action -->
<g id="edge3" class="edge"><title>ActiveRecord::Base&#45;&gt;Action</title>
<path fill="none" stroke="black" d="M702.586,-1286.05C683.805,-1277.34 659.511,-1266.95 637.053,-1260 558.281,-1235.63 530.729,-1256.74 455.053,-1224 450.739,-1222.13 446.429,-1220.01 442.17,-1217.71"/>
<polyline fill="none" stroke="black" points="437.571,-1215.14 441.936,-1217.57 "/>
</g>
<!-- ActiveRecord::Base&#45;&gt;Affiliation -->
<g id="edge6" class="edge"><title>ActiveRecord::Base&#45;&gt;Affiliation</title>
<path fill="none" stroke="black" d="M751.628,-1285.05C767.822,-1268.49 793.325,-1242.41 816.339,-1218.88"/>
<polyline fill="none" stroke="black" points="820.009,-1215.13 816.514,-1218.7 "/>
</g>
<!-- ActiveRecord::Base&#45;&gt;Card -->
<g id="edge16" class="edge"><title>ActiveRecord::Base&#45;&gt;Card</title>
<path fill="none" stroke="black" d="M816.602,-1295.92C911.582,-1286.94 1059.88,-1266.39 1094.05,-1224 1147.39,-1157.84 1117.6,-1063.8 1078.06,-990.306"/>
<polyline fill="none" stroke="black" points="1075.45,-985.495 1077.84,-989.887 "/>
</g>
<!-- ActiveRecord::Base&#45;&gt;CardAffiliation -->
<g id="edge17" class="edge"><title>ActiveRecord::Base&#45;&gt;CardAffiliation</title>
<path fill="none" stroke="black" d="M738.414,-1285.01C741.459,-1269.24 745.933,-1245.1 749.053,-1224 783.406,-991.688 812.066,-713.907 824.041,-591.809"/>
<polyline fill="none" stroke="black" points="824.53,-586.822 824.042,-591.798 "/>
</g>
<!-- ActiveRecord::Base&#45;&gt;CardResponsable -->
<g id="edge18" class="edge"><title>ActiveRecord::Base&#45;&gt;CardResponsable</title>
<path fill="none" stroke="black" d="M819.367,-1297.54C942.064,-1289.59 1162.17,-1269.32 1226.05,-1224 1289.47,-1179.01 1285.55,-1144.12 1309.05,-1070 1353.51,-929.775 1450.95,-525.659 1360.05,-410 1318.22,-356.775 1268.6,-411.224 1212.05,-374 1193.82,-361.996 1178.08,-344.502 1165.41,-327.03"/>
<polyline fill="none" stroke="black" points="1162.26,-322.591 1165.15,-326.667 "/>
</g>
<!-- ActiveRecord::Base&#45;&gt;CardType -->
<g id="edge20" class="edge"><title>ActiveRecord::Base&#45;&gt;CardType</title>
<path fill="none" stroke="black" d="M784.322,-1288.02C827.628,-1274.7 891.589,-1252.47 943.053,-1224 946.448,-1222.12 949.856,-1220.1 953.247,-1217.99"/>
<polyline fill="none" stroke="black" points="957.859,-1215.04 953.645,-1217.73 "/>
</g>
<!-- ActiveRecord::Base&#45;&gt;CardVerification -->
<g id="edge21" class="edge"><title>ActiveRecord::Base&#45;&gt;CardVerification</title>
<path fill="none" stroke="black" d="M699.858,-1286.38C681.278,-1278.27 658.037,-1268.34 637.053,-1260 593.935,-1242.85 571.035,-1257.62 539.053,-1224 489.639,-1172.06 501.842,-1140.88 491.053,-1070 446.906,-780.007 448.465,-700.077 492.053,-410 496.194,-382.44 504.442,-352.859 512.69,-327.65"/>
<polyline fill="none" stroke="black" points="514.338,-322.668 512.767,-327.415 "/>
</g>
<!-- ActiveRecord::Base&#45;&gt;Element -->
<g id="edge23" class="edge"><title>ActiveRecord::Base&#45;&gt;Element</title>
<path fill="none" stroke="black" d="M704.585,-1286.01C685.666,-1276.83 660.555,-1265.97 637.053,-1260 553.341,-1238.73 316.803,-1278.81 250.053,-1224 162.493,-1152.1 147.177,-1009.37 145.776,-931.231"/>
<polyline fill="none" stroke="black" points="145.703,-926.179 145.775,-931.178 "/>
</g>
<!-- ActiveRecord::Base&#45;&gt;Ownership -->
<g id="edge25" class="edge"><title>ActiveRecord::Base&#45;&gt;Ownership</title>
<path fill="none" stroke="black" d="M704.617,-1285.88C685.71,-1276.65 660.6,-1265.79 637.053,-1260 536.625,-1235.3 262.201,-1276.43 173.053,-1224 102.287,-1182.38 94.7248,-1148.61 71.0527,-1070 -15.1542,-783.729 53.0929,-669.79 201.053,-410 207.14,-399.312 213.736,-388.367 220.528,-377.514"/>
<polyline fill="none" stroke="black" points="223.242,-373.198 220.58,-377.431 "/>
</g>
<!-- ActiveRecord::Base&#45;&gt;OwnershipAction -->
<g id="edge26" class="edge"><title>ActiveRecord::Base&#45;&gt;OwnershipAction</title>
<path fill="none" stroke="black" d="M705.075,-1285.98C686.129,-1276.67 660.817,-1265.68 637.053,-1260 576.626,-1245.55 127.997,-1262.27 79.0527,-1224 -44.5551,-1127.36 14.0527,-1033.9 14.0527,-877 14.0527,-877 14.0527,-877 14.0527,-527 14.0527,-361.433 145.979,-204.619 229.999,-121.538"/>
<polyline fill="none" stroke="black" points="233.963,-117.638 230.399,-121.145 "/>
</g>
<!-- ActiveRecord::Base&#45;&gt;OwnershipType -->
<g id="edge28" class="edge"><title>ActiveRecord::Base&#45;&gt;OwnershipType</title>
<path fill="none" stroke="black" d="M704.122,-1285.91C685.244,-1276.81 660.336,-1266.08 637.053,-1260 563.752,-1240.87 348.714,-1280.33 298.053,-1224 226.11,-1144.01 254.538,-1006.77 278.313,-931.068"/>
<polyline fill="none" stroke="black" points="279.871,-926.172 278.354,-930.936 "/>
</g>
<!-- ActiveRecord::Base&#45;&gt;Page -->
<g id="edge29" class="edge"><title>ActiveRecord::Base&#45;&gt;Page</title>
<path fill="none" stroke="black" d="M820.045,-1297.85C980.579,-1289.14 1322.14,-1266.18 1432.05,-1224 1435.23,-1222.78 1438.4,-1221.4 1441.54,-1219.9"/>
<polyline fill="none" stroke="black" points="1446.46,-1217.45 1441.98,-1219.69 "/>
</g>
<!-- ActiveRecord::Base&#45;&gt;Parent -->
<g id="edge30" class="edge"><title>ActiveRecord::Base&#45;&gt;Parent</title>
<path fill="none" stroke="black" d="M731.229,-1284.75C727.914,-1269.01 723.305,-1245.07 721.053,-1224 685.081,-887.571 684.785,-481.375 686.2,-327.845"/>
<polyline fill="none" stroke="black" points="686.251,-322.491 686.203,-327.491 "/>
</g>
<!-- ActiveRecord::Base&#45;&gt;Responsable -->
<g id="edge33" class="edge"><title>ActiveRecord::Base&#45;&gt;Responsable</title>
<path fill="none" stroke="black" d="M818.973,-1297.12C921.207,-1289.24 1085.03,-1269.68 1123.05,-1224 1272.87,-1043.99 1201.86,-737.484 1158.73,-599.729"/>
<polyline fill="none" stroke="black" points="1157.21,-594.901 1158.71,-599.67 "/>
</g>
<!-- ActiveRecord::Base&#45;&gt;Tag -->
<g id="edge35" class="edge"><title>ActiveRecord::Base&#45;&gt;Tag</title>
<path fill="none" stroke="black" d="M819.217,-1297.33C930.652,-1289.43 1118.94,-1269.59 1169.05,-1224 1349.52,-1059.83 1319.2,-729.647 1297,-591.752"/>
<polyline fill="none" stroke="black" points="1296.14,-586.529 1296.95,-591.464 "/>
</g>
<!-- ActiveRecord::Base&#45;&gt;Tagging -->
<g id="edge36" class="edge"><title>ActiveRecord::Base&#45;&gt;Tagging</title>
<path fill="none" stroke="black" d="M821.09,-1298.78C954.822,-1292.29 1204.73,-1273.71 1277.05,-1224 1341.66,-1179.59 1340.73,-1145.15 1363.05,-1070 1446.67,-788.543 1481.93,-689.522 1392.05,-410 1382.37,-379.89 1363.87,-350.735 1345.13,-326.561"/>
<polyline fill="none" stroke="black" points="1341.87,-322.417 1344.96,-326.35 "/>
</g>
<!-- ActiveRecord::Base&#45;&gt;User -->
<g id="edge42" class="edge"><title>ActiveRecord::Base&#45;&gt;User</title>
<path fill="none" stroke="black" d="M710.453,-1285.58C662.767,-1251.97 559.5,-1170 526.053,-1070 471.351,-906.461 498.932,-852.298 526.053,-682 527.711,-671.59 529.966,-660.925 532.606,-650.307"/>
<polyline fill="none" stroke="black" points="533.845,-645.433 532.613,-650.279 "/>
</g>
<!-- ActiveRecord::Base&#45;&gt;UserType -->
<g id="edge44" class="edge"><title>ActiveRecord::Base&#45;&gt;UserType</title>
<path fill="none" stroke="black" d="M721.147,-1285.08C709.372,-1269.94 692.883,-1246.7 683.053,-1224 640.466,-1125.66 618.424,-1001.51 608.623,-931.517"/>
<polyline fill="none" stroke="black" points="607.882,-926.159 608.567,-931.111 "/>
</g>
<!-- ActiveRecord::Base&#45;&gt;VerificatorComment -->
<g id="edge45" class="edge"><title>ActiveRecord::Base&#45;&gt;VerificatorComment</title>
<path fill="none" stroke="black" d="M734.26,-1284.86C729.41,-1176.31 705.523,-583.203 754.053,-410 761.264,-384.262 774.118,-358.322 787.637,-335.641"/>
<polyline fill="none" stroke="black" points="790.348,-331.149 787.764,-335.429 "/>
</g>
<!-- Object -->
<g id="node23" class="node"><title>Object</title>
<ellipse fill="none" stroke="black" cx="1637.05" cy="-1303" rx="36.1697" ry="18"/>
<text text-anchor="middle" x="1637.05" y="-1297.4" font-family="Times,serif" font-size="14.00">Object</text>
</g>
<!-- Object&#45;&gt;Permission -->
<g id="edge31" class="edge"><title>Object&#45;&gt;Permission</title>
<path fill="none" stroke="black" d="M1637.05,-1284.78C1637.05,-1262.26 1637.05,-1222.49 1637.05,-1195.22"/>
<polyline fill="none" stroke="black" points="1637.05,-1189.94 1637.05,-1194.94 "/>
</g>
</g>
</svg>
