<?xml version="1.0" encoding="UTF-8" standalone="no"?>
<!DOCTYPE svg PUBLIC "-//W3C//DTD SVG 1.1//EN"
 "http://www.w3.org/Graphics/SVG/1.1/DTD/svg11.dtd">
<!-- Generated by graphviz version 2.36.0 (20140111.2315)
 -->
<!-- Title: models_diagram Pages: 1 -->
<svg width="2575pt" height="1358pt"
 viewBox="0.00 0.00 2575.44 1358.00" xmlns="http://www.w3.org/2000/svg" xmlns:xlink="http://www.w3.org/1999/xlink">
<g id="graph0" class="graph" transform="scale(1 1) rotate(0) translate(4 1354)">
<title>models_diagram</title>
<polygon fill="white" stroke="none" points="-4,4 -4,-1354 2571.44,-1354 2571.44,4 -4,4"/>
<!-- _diagram_info -->
<g id="node1" class="node"><title>_diagram_info</title>
<text text-anchor="start" x="880.749" y="-1335.1" font-family="Times,serif" font-size="13.00">Models diagram</text>
<text text-anchor="start" x="880.749" y="-1322.1" font-family="Times,serif" font-size="13.00">Date: Mar 20 2014 &#45; 17:58</text>
<text text-anchor="start" x="880.749" y="-1309.1" font-family="Times,serif" font-size="13.00">Migration version: 20140312164922</text>
<text text-anchor="start" x="880.749" y="-1296.1" font-family="Times,serif" font-size="13.00">Generated by RailRoady 1.1.1</text>
<text text-anchor="start" x="880.749" y="-1283.1" font-family="Times,serif" font-size="13.00">http://railroady.prestonlee.com</text>
</g>
<!-- AccessToken -->
<g id="node2" class="node"><title>AccessToken</title>
<path fill="none" stroke="black" d="M205.201,-139C205.201,-139 319.673,-139 319.673,-139 325.673,-139 331.673,-145 331.673,-151 331.673,-151 331.673,-241 331.673,-241 331.673,-247 325.673,-253 319.673,-253 319.673,-253 205.201,-253 205.201,-253 199.201,-253 193.201,-247 193.201,-241 193.201,-241 193.201,-151 193.201,-151 193.201,-145 199.201,-139 205.201,-139"/>
<text text-anchor="middle" x="262.437" y="-237.8" font-family="Times,serif" font-size="14.00">AccessToken</text>
<polyline fill="none" stroke="black" points="193.201,-231 331.673,-231 "/>
<text text-anchor="start" x="201.201" y="-215.8" font-family="Times,serif" font-size="14.00">id :integer</text>
<text text-anchor="start" x="201.201" y="-201.8" font-family="Times,serif" font-size="14.00">token :string</text>
<text text-anchor="start" x="201.201" y="-187.8" font-family="Times,serif" font-size="14.00">is_valid :boolean</text>
<text text-anchor="start" x="201.201" y="-173.8" font-family="Times,serif" font-size="14.00">ownership_id :integer</text>
<text text-anchor="start" x="201.201" y="-159.8" font-family="Times,serif" font-size="14.00">created_at :datetime</text>
<text text-anchor="start" x="201.201" y="-145.8" font-family="Times,serif" font-size="14.00">updated_at :datetime</text>
</g>
<!-- Action -->
<g id="node3" class="node"><title>Action</title>
<path fill="none" stroke="black" d="M54.9317,-583C54.9317,-583 163.942,-583 163.942,-583 169.942,-583 175.942,-589 175.942,-595 175.942,-595 175.942,-657 175.942,-657 175.942,-663 169.942,-669 163.942,-669 163.942,-669 54.9317,-669 54.9317,-669 48.9317,-669 42.9317,-663 42.9317,-657 42.9317,-657 42.9317,-595 42.9317,-595 42.9317,-589 48.9317,-583 54.9317,-583"/>
<text text-anchor="middle" x="109.437" y="-653.8" font-family="Times,serif" font-size="14.00">Action</text>
<polyline fill="none" stroke="black" points="42.9317,-647 175.942,-647 "/>
<text text-anchor="start" x="50.9317" y="-631.8" font-family="Times,serif" font-size="14.00">id :integer</text>
<text text-anchor="start" x="50.9317" y="-617.8" font-family="Times,serif" font-size="14.00">name :string</text>
<text text-anchor="start" x="50.9317" y="-603.8" font-family="Times,serif" font-size="14.00">created_at :datetime</text>
<text text-anchor="start" x="50.9317" y="-589.8" font-family="Times,serif" font-size="14.00">updated_at :datetime</text>
</g>
<!-- Ownership -->
<g id="node21" class="node"><title>Ownership</title>
<path fill="none" stroke="black" d="M111.649,-291C111.649,-291 257.225,-291 257.225,-291 263.225,-291 269.225,-297 269.225,-303 269.225,-303 269.225,-463 269.225,-463 269.225,-469 263.225,-475 257.225,-475 257.225,-475 111.649,-475 111.649,-475 105.649,-475 99.649,-469 99.649,-463 99.649,-463 99.649,-303 99.649,-303 99.649,-297 105.649,-291 111.649,-291"/>
<text text-anchor="middle" x="184.437" y="-459.8" font-family="Times,serif" font-size="14.00">Ownership</text>
<polyline fill="none" stroke="black" points="99.649,-453 269.225,-453 "/>
<text text-anchor="start" x="107.649" y="-437.8" font-family="Times,serif" font-size="14.00">id :integer</text>
<text text-anchor="start" x="107.649" y="-423.8" font-family="Times,serif" font-size="14.00">element_id :integer</text>
<text text-anchor="start" x="107.649" y="-409.8" font-family="Times,serif" font-size="14.00">user_id :integer</text>
<text text-anchor="start" x="107.649" y="-395.8" font-family="Times,serif" font-size="14.00">ownership_type_id :integer</text>
<text text-anchor="start" x="107.649" y="-381.8" font-family="Times,serif" font-size="14.00">right_create :boolean</text>
<text text-anchor="start" x="107.649" y="-367.8" font-family="Times,serif" font-size="14.00">right_read :boolean</text>
<text text-anchor="start" x="107.649" y="-353.8" font-family="Times,serif" font-size="14.00">right_update :boolean</text>
<text text-anchor="start" x="107.649" y="-339.8" font-family="Times,serif" font-size="14.00">right_delete :boolean</text>
<text text-anchor="start" x="107.649" y="-325.8" font-family="Times,serif" font-size="14.00">id_element :integer</text>
<text text-anchor="start" x="107.649" y="-311.8" font-family="Times,serif" font-size="14.00">created_at :datetime</text>
<text text-anchor="start" x="107.649" y="-297.8" font-family="Times,serif" font-size="14.00">updated_at :datetime</text>
</g>
<!-- Action&#45;&gt;Ownership -->
<g id="edge3" class="edge"><title>Action&#45;&gt;Ownership</title>
<path fill="none" stroke="#6a2202" d="M125.622,-572.993C133.632,-547.254 143.585,-515.273 153.011,-484.982"/>
<polygon fill="#6a2202" stroke="#6a2202" points="125.558,-573.197 118.29,-581.408 124.073,-577.971 122.587,-582.745 122.587,-582.745 122.587,-582.745 124.073,-577.971 126.884,-584.082 125.558,-573.197 125.558,-573.197"/>
<polygon fill="#6a2202" stroke="#6a2202" points="153.079,-484.765 160.347,-476.554 154.564,-479.991 156.05,-475.216 156.05,-475.216 156.05,-475.216 154.564,-479.991 151.754,-473.879 153.079,-484.765 153.079,-484.765"/>
</g>
<!-- OwnershipAction -->
<g id="node22" class="node"><title>OwnershipAction</title>
<path fill="none" stroke="black" d="M14.2008,-146C14.2008,-146 128.673,-146 128.673,-146 134.673,-146 140.673,-152 140.673,-158 140.673,-158 140.673,-234 140.673,-234 140.673,-240 134.673,-246 128.673,-246 128.673,-246 14.2008,-246 14.2008,-246 8.20079,-246 2.20079,-240 2.20079,-234 2.20079,-234 2.20079,-158 2.20079,-158 2.20079,-152 8.20079,-146 14.2008,-146"/>
<text text-anchor="middle" x="71.4371" y="-230.8" font-family="Times,serif" font-size="14.00">OwnershipAction</text>
<polyline fill="none" stroke="black" points="2.20079,-224 140.673,-224 "/>
<text text-anchor="start" x="10.2008" y="-208.8" font-family="Times,serif" font-size="14.00">id :integer</text>
<text text-anchor="start" x="10.2008" y="-194.8" font-family="Times,serif" font-size="14.00">action_id :integer</text>
<text text-anchor="start" x="10.2008" y="-180.8" font-family="Times,serif" font-size="14.00">ownership_id :integer</text>
<text text-anchor="start" x="10.2008" y="-166.8" font-family="Times,serif" font-size="14.00">created_at :datetime</text>
<text text-anchor="start" x="10.2008" y="-152.8" font-family="Times,serif" font-size="14.00">updated_at :datetime</text>
</g>
<!-- Action&#45;&gt;OwnershipAction -->
<g id="edge2" class="edge"><title>Action&#45;&gt;OwnershipAction</title>
<path fill="none" stroke="#1ef1a4" d="M102.234,-574.403C98.3233,-545.605 93.6458,-508.835 90.4371,-476 83.0469,-400.376 77.5913,-312.939 74.4671,-256.399"/>
<ellipse fill="none" stroke="#1ef1a4" cx="102.825" cy="-578.723" rx="4.00001" ry="4.00001"/>
<polygon fill="#1ef1a4" stroke="#1ef1a4" points="74.4561,-256.196 78.4043,-245.966 74.1835,-251.203 73.9109,-246.211 73.9109,-246.211 73.9109,-246.211 74.1835,-251.203 69.4176,-246.456 74.4561,-256.196 74.4561,-256.196"/>
</g>
<!-- Activity -->
<g id="node4" class="node"><title>Activity</title>
<path fill="none" stroke="black" d="M337.597,-319C337.597,-319 451.277,-319 451.277,-319 457.277,-319 463.277,-325 463.277,-331 463.277,-331 463.277,-435 463.277,-435 463.277,-441 457.277,-447 451.277,-447 451.277,-447 337.597,-447 337.597,-447 331.597,-447 325.597,-441 325.597,-435 325.597,-435 325.597,-331 325.597,-331 325.597,-325 331.597,-319 337.597,-319"/>
<text text-anchor="middle" x="394.437" y="-431.8" font-family="Times,serif" font-size="14.00">Activity</text>
<polyline fill="none" stroke="black" points="325.597,-425 463.277,-425 "/>
<text text-anchor="start" x="333.597" y="-409.8" font-family="Times,serif" font-size="14.00">id :integer</text>
<text text-anchor="start" x="333.597" y="-395.8" font-family="Times,serif" font-size="14.00">user_id :integer</text>
<text text-anchor="start" x="333.597" y="-381.8" font-family="Times,serif" font-size="14.00">action :string</text>
<text text-anchor="start" x="333.597" y="-367.8" font-family="Times,serif" font-size="14.00">trackable_id :integer</text>
<text text-anchor="start" x="333.597" y="-353.8" font-family="Times,serif" font-size="14.00">trackable_type :string</text>
<text text-anchor="start" x="333.597" y="-339.8" font-family="Times,serif" font-size="14.00">created_at :datetime</text>
<text text-anchor="start" x="333.597" y="-325.8" font-family="Times,serif" font-size="14.00">updated_at :datetime</text>
</g>
<!-- Affiliation -->
<g id="node5" class="node"><title>Affiliation</title>
<path fill="none" stroke="black" d="M1124.93,-1146C1124.93,-1146 1233.94,-1146 1233.94,-1146 1239.94,-1146 1245.94,-1152 1245.94,-1158 1245.94,-1158 1245.94,-1220 1245.94,-1220 1245.94,-1226 1239.94,-1232 1233.94,-1232 1233.94,-1232 1124.93,-1232 1124.93,-1232 1118.93,-1232 1112.93,-1226 1112.93,-1220 1112.93,-1220 1112.93,-1158 1112.93,-1158 1112.93,-1152 1118.93,-1146 1124.93,-1146"/>
<text text-anchor="middle" x="1179.44" y="-1216.8" font-family="Times,serif" font-size="14.00">Affiliation</text>
<polyline fill="none" stroke="black" points="1112.93,-1210 1245.94,-1210 "/>
<text text-anchor="start" x="1120.93" y="-1194.8" font-family="Times,serif" font-size="14.00">id :integer</text>
<text text-anchor="start" x="1120.93" y="-1180.8" font-family="Times,serif" font-size="14.00">name :string</text>
<text text-anchor="start" x="1120.93" y="-1166.8" font-family="Times,serif" font-size="14.00">created_at :datetime</text>
<text text-anchor="start" x="1120.93" y="-1152.8" font-family="Times,serif" font-size="14.00">updated_at :datetime</text>
</g>
<!-- Card -->
<g id="node8" class="node"><title>Card</title>
<path fill="none" stroke="black" d="M979.135,-777C979.135,-777 1103.74,-777 1103.74,-777 1109.74,-777 1115.74,-783 1115.74,-789 1115.74,-789 1115.74,-1089 1115.74,-1089 1115.74,-1095 1109.74,-1101 1103.74,-1101 1103.74,-1101 979.135,-1101 979.135,-1101 973.135,-1101 967.135,-1095 967.135,-1089 967.135,-1089 967.135,-789 967.135,-789 967.135,-783 973.135,-777 979.135,-777"/>
<text text-anchor="middle" x="1041.44" y="-1085.8" font-family="Times,serif" font-size="14.00">Card</text>
<polyline fill="none" stroke="black" points="967.135,-1079 1115.74,-1079 "/>
<text text-anchor="start" x="975.135" y="-1063.8" font-family="Times,serif" font-size="14.00">id :integer</text>
<text text-anchor="start" x="975.135" y="-1049.8" font-family="Times,serif" font-size="14.00">card_type_id :integer</text>
<text text-anchor="start" x="975.135" y="-1035.8" font-family="Times,serif" font-size="14.00">name :string</text>
<text text-anchor="start" x="975.135" y="-1021.8" font-family="Times,serif" font-size="14.00">email :string</text>
<text text-anchor="start" x="975.135" y="-1007.8" font-family="Times,serif" font-size="14.00">street :string</text>
<text text-anchor="start" x="975.135" y="-993.8" font-family="Times,serif" font-size="14.00">place :string</text>
<text text-anchor="start" x="975.135" y="-979.8" font-family="Times,serif" font-size="14.00">website :string</text>
<text text-anchor="start" x="975.135" y="-965.8" font-family="Times,serif" font-size="14.00">password_digest :string</text>
<text text-anchor="start" x="975.135" y="-951.8" font-family="Times,serif" font-size="14.00">description :text</text>
<text text-anchor="start" x="975.135" y="-937.8" font-family="Times,serif" font-size="14.00">affiliation :text</text>
<text text-anchor="start" x="975.135" y="-923.8" font-family="Times,serif" font-size="14.00">validated :boolean</text>
<text text-anchor="start" x="975.135" y="-909.8" font-family="Times,serif" font-size="14.00">created_at :datetime</text>
<text text-anchor="start" x="975.135" y="-895.8" font-family="Times,serif" font-size="14.00">updated_at :datetime</text>
<text text-anchor="start" x="975.135" y="-881.8" font-family="Times,serif" font-size="14.00">latitude :float</text>
<text text-anchor="start" x="975.135" y="-867.8" font-family="Times,serif" font-size="14.00">longitude :float</text>
<text text-anchor="start" x="975.135" y="-853.8" font-family="Times,serif" font-size="14.00">avatar :string</text>
<text text-anchor="start" x="975.135" y="-839.8" font-family="Times,serif" font-size="14.00">banner :string</text>
<text text-anchor="start" x="975.135" y="-825.8" font-family="Times,serif" font-size="14.00">card_id :integer</text>
<text text-anchor="start" x="975.135" y="-811.8" font-family="Times,serif" font-size="14.00">location_id :integer</text>
<text text-anchor="start" x="975.135" y="-797.8" font-family="Times,serif" font-size="14.00">user_id :integer</text>
<text text-anchor="start" x="975.135" y="-783.8" font-family="Times,serif" font-size="14.00">visible :boolean</text>
</g>
<!-- Affiliation&#45;&gt;Card -->
<g id="edge7" class="edge"><title>Affiliation&#45;&gt;Card</title>
<path fill="none" stroke="#834e4b" d="M1151.09,-1137.06C1142.09,-1120.88 1131.64,-1102.11 1120.86,-1082.72"/>
<polygon fill="#834e4b" stroke="#834e4b" points="1151.16,-1137.19 1152.1,-1148.12 1153.6,-1141.56 1156.03,-1145.93 1156.03,-1145.93 1156.03,-1145.93 1153.6,-1141.56 1159.96,-1143.74 1151.16,-1137.19 1151.16,-1137.19"/>
<polygon fill="#834e4b" stroke="#834e4b" points="1120.74,-1082.52 1119.81,-1071.59 1118.31,-1078.15 1115.88,-1073.78 1115.88,-1073.78 1115.88,-1073.78 1118.31,-1078.15 1111.95,-1075.97 1120.74,-1082.52 1120.74,-1082.52"/>
</g>
<!-- CardAffiliation -->
<g id="node9" class="node"><title>CardAffiliation</title>
<path fill="none" stroke="black" d="M1271.15,-576C1271.15,-576 1381.73,-576 1381.73,-576 1387.73,-576 1393.73,-582 1393.73,-588 1393.73,-588 1393.73,-664 1393.73,-664 1393.73,-670 1387.73,-676 1381.73,-676 1381.73,-676 1271.15,-676 1271.15,-676 1265.15,-676 1259.15,-670 1259.15,-664 1259.15,-664 1259.15,-588 1259.15,-588 1259.15,-582 1265.15,-576 1271.15,-576"/>
<text text-anchor="middle" x="1326.44" y="-660.8" font-family="Times,serif" font-size="14.00">CardAffiliation</text>
<polyline fill="none" stroke="black" points="1259.15,-654 1393.73,-654 "/>
<text text-anchor="start" x="1267.15" y="-638.8" font-family="Times,serif" font-size="14.00">id :integer</text>
<text text-anchor="start" x="1267.15" y="-624.8" font-family="Times,serif" font-size="14.00">card_id :integer</text>
<text text-anchor="start" x="1267.15" y="-610.8" font-family="Times,serif" font-size="14.00">affiliation_id :integer</text>
<text text-anchor="start" x="1267.15" y="-596.8" font-family="Times,serif" font-size="14.00">created_at :datetime</text>
<text text-anchor="start" x="1267.15" y="-582.8" font-family="Times,serif" font-size="14.00">updated_at :datetime</text>
</g>
<!-- Affiliation&#45;&gt;CardAffiliation -->
<g id="edge6" class="edge"><title>Affiliation&#45;&gt;CardAffiliation</title>
<path fill="none" stroke="#22ad76" d="M1192.6,-1137.78C1219.76,-1034.12 1281.92,-796.895 1310.96,-686.076"/>
<ellipse fill="none" stroke="#22ad76" cx="1191.5" cy="-1141.96" rx="4.00001" ry="4.00001"/>
<polygon fill="#22ad76" stroke="#22ad76" points="1310.96,-686.068 1317.85,-677.536 1312.23,-681.232 1313.49,-676.395 1313.49,-676.395 1313.49,-676.395 1312.23,-681.232 1309.14,-675.254 1310.96,-686.068 1310.96,-686.068"/>
</g>
<!-- Article -->
<g id="node6" class="node"><title>Article</title>
<path fill="none" stroke="black" d="M492.932,-312C492.932,-312 601.942,-312 601.942,-312 607.942,-312 613.942,-318 613.942,-324 613.942,-324 613.942,-442 613.942,-442 613.942,-448 607.942,-454 601.942,-454 601.942,-454 492.932,-454 492.932,-454 486.932,-454 480.932,-448 480.932,-442 480.932,-442 480.932,-324 480.932,-324 480.932,-318 486.932,-312 492.932,-312"/>
<text text-anchor="middle" x="547.437" y="-438.8" font-family="Times,serif" font-size="14.00">Article</text>
<polyline fill="none" stroke="black" points="480.932,-432 613.942,-432 "/>
<text text-anchor="start" x="488.932" y="-416.8" font-family="Times,serif" font-size="14.00">id :integer</text>
<text text-anchor="start" x="488.932" y="-402.8" font-family="Times,serif" font-size="14.00">title :string</text>
<text text-anchor="start" x="488.932" y="-388.8" font-family="Times,serif" font-size="14.00">content :text</text>
<text text-anchor="start" x="488.932" y="-374.8" font-family="Times,serif" font-size="14.00">user_id :integer</text>
<text text-anchor="start" x="488.932" y="-360.8" font-family="Times,serif" font-size="14.00">image :string</text>
<text text-anchor="start" x="488.932" y="-346.8" font-family="Times,serif" font-size="14.00">likes :integer</text>
<text text-anchor="start" x="488.932" y="-332.8" font-family="Times,serif" font-size="14.00">created_at :datetime</text>
<text text-anchor="start" x="488.932" y="-318.8" font-family="Times,serif" font-size="14.00">updated_at :datetime</text>
</g>
<!-- Canton -->
<g id="node7" class="node"><title>Canton</title>
<path fill="none" stroke="black" d="M2159.93,-1139C2159.93,-1139 2268.94,-1139 2268.94,-1139 2274.94,-1139 2280.94,-1145 2280.94,-1151 2280.94,-1151 2280.94,-1227 2280.94,-1227 2280.94,-1233 2274.94,-1239 2268.94,-1239 2268.94,-1239 2159.93,-1239 2159.93,-1239 2153.93,-1239 2147.93,-1233 2147.93,-1227 2147.93,-1227 2147.93,-1151 2147.93,-1151 2147.93,-1145 2153.93,-1139 2159.93,-1139"/>
<text text-anchor="middle" x="2214.44" y="-1223.8" font-family="Times,serif" font-size="14.00">Canton</text>
<polyline fill="none" stroke="black" points="2147.93,-1217 2280.94,-1217 "/>
<text text-anchor="start" x="2155.93" y="-1201.8" font-family="Times,serif" font-size="14.00">id :integer</text>
<text text-anchor="start" x="2155.93" y="-1187.8" font-family="Times,serif" font-size="14.00">name :string</text>
<text text-anchor="start" x="2155.93" y="-1173.8" font-family="Times,serif" font-size="14.00">abbreviation :string</text>
<text text-anchor="start" x="2155.93" y="-1159.8" font-family="Times,serif" font-size="14.00">created_at :datetime</text>
<text text-anchor="start" x="2155.93" y="-1145.8" font-family="Times,serif" font-size="14.00">updated_at :datetime</text>
</g>
<!-- Location -->
<g id="node17" class="node"><title>Location</title>
<path fill="none" stroke="black" d="M2230.93,-875C2230.93,-875 2339.94,-875 2339.94,-875 2345.94,-875 2351.94,-881 2351.94,-887 2351.94,-887 2351.94,-991 2351.94,-991 2351.94,-997 2345.94,-1003 2339.94,-1003 2339.94,-1003 2230.93,-1003 2230.93,-1003 2224.93,-1003 2218.93,-997 2218.93,-991 2218.93,-991 2218.93,-887 2218.93,-887 2218.93,-881 2224.93,-875 2230.93,-875"/>
<text text-anchor="middle" x="2285.44" y="-987.8" font-family="Times,serif" font-size="14.00">Location</text>
<polyline fill="none" stroke="black" points="2218.93,-981 2351.94,-981 "/>
<text text-anchor="start" x="2226.93" y="-965.8" font-family="Times,serif" font-size="14.00">id :integer</text>
<text text-anchor="start" x="2226.93" y="-951.8" font-family="Times,serif" font-size="14.00">npa :integer</text>
<text text-anchor="start" x="2226.93" y="-937.8" font-family="Times,serif" font-size="14.00">official_name :string</text>
<text text-anchor="start" x="2226.93" y="-923.8" font-family="Times,serif" font-size="14.00">post_name :string</text>
<text text-anchor="start" x="2226.93" y="-909.8" font-family="Times,serif" font-size="14.00">canton_id :integer</text>
<text text-anchor="start" x="2226.93" y="-895.8" font-family="Times,serif" font-size="14.00">created_at :datetime</text>
<text text-anchor="start" x="2226.93" y="-881.8" font-family="Times,serif" font-size="14.00">updated_at :datetime</text>
</g>
<!-- Canton&#45;&gt;Location -->
<g id="edge10" class="edge"><title>Canton&#45;&gt;Location</title>
<path fill="none" stroke="#ec9e14" d="M2230.82,-1130.77C2240.83,-1095.81 2253.73,-1050.76 2264.48,-1013.21"/>
<ellipse fill="none" stroke="#ec9e14" cx="2229.65" cy="-1134.86" rx="4.00001" ry="4.00001"/>
<polygon fill="#ec9e14" stroke="#ec9e14" points="2264.55,-1012.96 2271.63,-1004.58 2265.93,-1008.15 2267.3,-1003.34 2267.3,-1003.34 2267.3,-1003.34 2265.93,-1008.15 2262.98,-1002.1 2264.55,-1012.96 2264.55,-1012.96"/>
</g>
<!-- Card&#45;&gt;Card -->
<g id="edge21" class="edge"><title>Card&#45;&gt;Card</title>
<path fill="none" stroke="#df166e" d="M1122.19,-975.565C1129.11,-967.782 1133.44,-955.594 1133.44,-939 1133.44,-922.406 1129.11,-910.218 1122.19,-902.435"/>
<ellipse fill="none" stroke="#df166e" cx="1118.83" cy="-978.456" rx="4.00002" ry="4.00002"/>
<ellipse fill="#df166e" stroke="#df166e" cx="1118.83" cy="-899.544" rx="4.00002" ry="4.00002"/>
</g>
<!-- Card&#45;&gt;CardAffiliation -->
<g id="edge16" class="edge"><title>Card&#45;&gt;CardAffiliation</title>
<path fill="none" stroke="#4bd16d" d="M1121.43,-845.807C1143.99,-821.941 1169.27,-797.056 1194.44,-776 1216.84,-757.251 1228.59,-760.465 1249.44,-740 1265.97,-723.776 1281.08,-703.507 1293.46,-684.632"/>
<ellipse fill="none" stroke="#4bd16d" cx="1118.49" cy="-848.934" rx="4.00002" ry="4.00002"/>
<polygon fill="#4bd16d" stroke="#4bd16d" points="1293.54,-684.494 1302.73,-678.507 1296.24,-680.285 1298.94,-676.077 1298.94,-676.077 1298.94,-676.077 1296.24,-680.285 1295.16,-673.647 1293.54,-684.494 1293.54,-684.494"/>
</g>
<!-- CardResponsable -->
<g id="node10" class="node"><title>CardResponsable</title>
<path fill="none" stroke="black" d="M1266.32,-333C1266.32,-333 1388.56,-333 1388.56,-333 1394.56,-333 1400.56,-339 1400.56,-345 1400.56,-345 1400.56,-421 1400.56,-421 1400.56,-427 1394.56,-433 1388.56,-433 1388.56,-433 1266.32,-433 1266.32,-433 1260.32,-433 1254.32,-427 1254.32,-421 1254.32,-421 1254.32,-345 1254.32,-345 1254.32,-339 1260.32,-333 1266.32,-333"/>
<text text-anchor="middle" x="1327.44" y="-417.8" font-family="Times,serif" font-size="14.00">CardResponsable</text>
<polyline fill="none" stroke="black" points="1254.32,-411 1400.56,-411 "/>
<text text-anchor="start" x="1262.32" y="-395.8" font-family="Times,serif" font-size="14.00">id :integer</text>
<text text-anchor="start" x="1262.32" y="-381.8" font-family="Times,serif" font-size="14.00">card_id :integer</text>
<text text-anchor="start" x="1262.32" y="-367.8" font-family="Times,serif" font-size="14.00">responsable_id :integer</text>
<text text-anchor="start" x="1262.32" y="-353.8" font-family="Times,serif" font-size="14.00">created_at :datetime</text>
<text text-anchor="start" x="1262.32" y="-339.8" font-family="Times,serif" font-size="14.00">updated_at :datetime</text>
</g>
<!-- Card&#45;&gt;CardResponsable -->
<g id="edge12" class="edge"><title>Card&#45;&gt;CardResponsable</title>
<path fill="none" stroke="#89c393" d="M1030.52,-768.531C1027.77,-666.757 1032.6,-549.872 1065.44,-512 1118.6,-450.688 1173.92,-516.154 1244.44,-476 1259.91,-467.191 1274.05,-454.463 1286.11,-441.27"/>
<ellipse fill="none" stroke="#89c393" cx="1030.64" cy="-772.766" rx="4" ry="4"/>
<polygon fill="#89c393" stroke="#89c393" points="1286.35,-440.986 1296.34,-436.446 1289.66,-437.231 1292.96,-433.475 1292.96,-433.475 1292.96,-433.475 1289.66,-437.231 1289.58,-430.504 1286.35,-440.986 1286.35,-440.986"/>
</g>
<!-- CardUser -->
<g id="node12" class="node"><title>CardUser</title>
<path fill="none" stroke="black" d="M644.383,-319C644.383,-319 770.491,-319 770.491,-319 776.491,-319 782.491,-325 782.491,-331 782.491,-331 782.491,-435 782.491,-435 782.491,-441 776.491,-447 770.491,-447 770.491,-447 644.383,-447 644.383,-447 638.383,-447 632.383,-441 632.383,-435 632.383,-435 632.383,-331 632.383,-331 632.383,-325 638.383,-319 644.383,-319"/>
<text text-anchor="middle" x="707.437" y="-431.8" font-family="Times,serif" font-size="14.00">CardUser</text>
<polyline fill="none" stroke="black" points="632.383,-425 782.491,-425 "/>
<text text-anchor="start" x="640.383" y="-409.8" font-family="Times,serif" font-size="14.00">id :integer</text>
<text text-anchor="start" x="640.383" y="-395.8" font-family="Times,serif" font-size="14.00">card_id :integer</text>
<text text-anchor="start" x="640.383" y="-381.8" font-family="Times,serif" font-size="14.00">user_id :integer</text>
<text text-anchor="start" x="640.383" y="-367.8" font-family="Times,serif" font-size="14.00">user_validated :boolean</text>
<text text-anchor="start" x="640.383" y="-353.8" font-family="Times,serif" font-size="14.00">card_validated :boolean</text>
<text text-anchor="start" x="640.383" y="-339.8" font-family="Times,serif" font-size="14.00">created_at :datetime</text>
<text text-anchor="start" x="640.383" y="-325.8" font-family="Times,serif" font-size="14.00">updated_at :datetime</text>
</g>
<!-- Card&#45;&gt;CardUser -->
<g id="edge20" class="edge"><title>Card&#45;&gt;CardUser</title>
<path fill="none" stroke="#08f57e" d="M963.119,-797.138C915.741,-713.414 853.296,-605.63 794.437,-512 782.78,-493.457 769.726,-473.745 757.346,-455.488"/>
<ellipse fill="none" stroke="#08f57e" cx="965.11" cy="-800.659" rx="4.00002" ry="4.00002"/>
<polygon fill="#08f57e" stroke="#08f57e" points="757.34,-455.478 755.433,-444.679 754.526,-451.345 751.713,-447.212 751.713,-447.212 751.713,-447.212 754.526,-451.345 747.993,-449.744 757.34,-455.478 757.34,-455.478"/>
</g>
<!-- CardVerification -->
<g id="node13" class="node"><title>CardVerification</title>
<path fill="none" stroke="black" d="M963.932,-333C963.932,-333 1072.94,-333 1072.94,-333 1078.94,-333 1084.94,-339 1084.94,-345 1084.94,-345 1084.94,-421 1084.94,-421 1084.94,-427 1078.94,-433 1072.94,-433 1072.94,-433 963.932,-433 963.932,-433 957.932,-433 951.932,-427 951.932,-421 951.932,-421 951.932,-345 951.932,-345 951.932,-339 957.932,-333 963.932,-333"/>
<text text-anchor="middle" x="1018.44" y="-417.8" font-family="Times,serif" font-size="14.00">CardVerification</text>
<polyline fill="none" stroke="black" points="951.932,-411 1084.94,-411 "/>
<text text-anchor="start" x="959.932" y="-395.8" font-family="Times,serif" font-size="14.00">id :integer</text>
<text text-anchor="start" x="959.932" y="-381.8" font-family="Times,serif" font-size="14.00">card_id :integer</text>
<text text-anchor="start" x="959.932" y="-367.8" font-family="Times,serif" font-size="14.00">user_id :integer</text>
<text text-anchor="start" x="959.932" y="-353.8" font-family="Times,serif" font-size="14.00">created_at :datetime</text>
<text text-anchor="start" x="959.932" y="-339.8" font-family="Times,serif" font-size="14.00">updated_at :datetime</text>
</g>
<!-- Card&#45;&gt;CardVerification -->
<g id="edge14" class="edge"><title>Card&#45;&gt;CardVerification</title>
<path fill="none" stroke="#54ee10" d="M993.952,-768.726C992.186,-759.055 990.655,-749.432 989.437,-740 976.46,-639.501 978.172,-612.705 989.437,-512 991.985,-489.226 997.006,-464.591 1002.17,-443.071"/>
<ellipse fill="none" stroke="#54ee10" cx="994.746" cy="-772.928" rx="4.00001" ry="4.00001"/>
<polygon fill="#54ee10" stroke="#54ee10" points="1002.23,-442.812 1008.99,-434.176 1003.42,-437.957 1004.62,-433.102 1004.62,-433.102 1004.62,-433.102 1003.42,-437.957 1000.25,-432.027 1002.23,-442.812 1002.23,-442.812"/>
</g>
<!-- Responsable -->
<g id="node27" class="node"><title>Responsable</title>
<path fill="none" stroke="black" d="M1119.93,-569C1119.93,-569 1228.94,-569 1228.94,-569 1234.94,-569 1240.94,-575 1240.94,-581 1240.94,-581 1240.94,-671 1240.94,-671 1240.94,-677 1234.94,-683 1228.94,-683 1228.94,-683 1119.93,-683 1119.93,-683 1113.93,-683 1107.93,-677 1107.93,-671 1107.93,-671 1107.93,-581 1107.93,-581 1107.93,-575 1113.93,-569 1119.93,-569"/>
<text text-anchor="middle" x="1174.44" y="-667.8" font-family="Times,serif" font-size="14.00">Responsable</text>
<polyline fill="none" stroke="black" points="1107.93,-661 1240.94,-661 "/>
<text text-anchor="start" x="1115.93" y="-645.8" font-family="Times,serif" font-size="14.00">id :integer</text>
<text text-anchor="start" x="1115.93" y="-631.8" font-family="Times,serif" font-size="14.00">firstname :string</text>
<text text-anchor="start" x="1115.93" y="-617.8" font-family="Times,serif" font-size="14.00">lastname :string</text>
<text text-anchor="start" x="1115.93" y="-603.8" font-family="Times,serif" font-size="14.00">email :string</text>
<text text-anchor="start" x="1115.93" y="-589.8" font-family="Times,serif" font-size="14.00">created_at :datetime</text>
<text text-anchor="start" x="1115.93" y="-575.8" font-family="Times,serif" font-size="14.00">updated_at :datetime</text>
</g>
<!-- Card&#45;&gt;Responsable -->
<g id="edge13" class="edge"><title>Card&#45;&gt;Responsable</title>
<path fill="none" stroke="#eca75b" d="M1114.5,-767.151C1125.84,-740.626 1136.93,-714.703 1146.42,-692.509"/>
<polygon fill="#eca75b" stroke="#eca75b" points="1114.4,-767.384 1106.33,-774.809 1112.44,-771.982 1110.47,-776.579 1110.47,-776.579 1110.47,-776.579 1112.44,-771.982 1114.61,-778.348 1114.4,-767.384 1114.4,-767.384"/>
<polygon fill="#eca75b" stroke="#eca75b" points="1146.46,-692.429 1154.53,-685.004 1148.42,-687.832 1150.39,-683.235 1150.39,-683.235 1150.39,-683.235 1148.42,-687.832 1146.25,-681.465 1146.46,-692.429 1146.46,-692.429"/>
</g>
<!-- Tag -->
<g id="node30" class="node"><title>Tag</title>
<path fill="none" stroke="black" d="M1461.93,-576C1461.93,-576 1570.94,-576 1570.94,-576 1576.94,-576 1582.94,-582 1582.94,-588 1582.94,-588 1582.94,-664 1582.94,-664 1582.94,-670 1576.94,-676 1570.94,-676 1570.94,-676 1461.93,-676 1461.93,-676 1455.93,-676 1449.93,-670 1449.93,-664 1449.93,-664 1449.93,-588 1449.93,-588 1449.93,-582 1455.93,-576 1461.93,-576"/>
<text text-anchor="middle" x="1516.44" y="-660.8" font-family="Times,serif" font-size="14.00">Tag</text>
<polyline fill="none" stroke="black" points="1449.93,-654 1582.94,-654 "/>
<text text-anchor="start" x="1457.93" y="-638.8" font-family="Times,serif" font-size="14.00">id :integer</text>
<text text-anchor="start" x="1457.93" y="-624.8" font-family="Times,serif" font-size="14.00">name :string</text>
<text text-anchor="start" x="1457.93" y="-610.8" font-family="Times,serif" font-size="14.00">popularity :integer</text>
<text text-anchor="start" x="1457.93" y="-596.8" font-family="Times,serif" font-size="14.00">created_at :datetime</text>
<text text-anchor="start" x="1457.93" y="-582.8" font-family="Times,serif" font-size="14.00">updated_at :datetime</text>
</g>
<!-- Card&#45;&gt;Tag -->
<g id="edge18" class="edge"><title>Card&#45;&gt;Tag</title>
<path fill="none" stroke="#600884" d="M1124.99,-900.444C1200.82,-864.488 1313.96,-806.059 1402.44,-740 1424.71,-723.369 1446.94,-702.541 1465.77,-683.312"/>
<polygon fill="#600884" stroke="#600884" points="1124.98,-900.45 1114.02,-900.646 1120.46,-902.583 1115.94,-904.716 1115.94,-904.716 1115.94,-904.716 1120.46,-902.583 1117.86,-908.786 1124.98,-900.45 1124.98,-900.45"/>
<polygon fill="#600884" stroke="#600884" points="1465.86,-683.219 1476.05,-679.162 1469.34,-679.626 1472.81,-676.032 1472.81,-676.032 1472.81,-676.032 1469.34,-679.626 1469.58,-672.903 1465.86,-683.219 1465.86,-683.219"/>
</g>
<!-- Tagging -->
<g id="node31" class="node"><title>Tagging</title>
<path fill="none" stroke="black" d="M1461.93,-333C1461.93,-333 1570.94,-333 1570.94,-333 1576.94,-333 1582.94,-339 1582.94,-345 1582.94,-345 1582.94,-421 1582.94,-421 1582.94,-427 1576.94,-433 1570.94,-433 1570.94,-433 1461.93,-433 1461.93,-433 1455.93,-433 1449.93,-427 1449.93,-421 1449.93,-421 1449.93,-345 1449.93,-345 1449.93,-339 1455.93,-333 1461.93,-333"/>
<text text-anchor="middle" x="1516.44" y="-417.8" font-family="Times,serif" font-size="14.00">Tagging</text>
<polyline fill="none" stroke="black" points="1449.93,-411 1582.94,-411 "/>
<text text-anchor="start" x="1457.93" y="-395.8" font-family="Times,serif" font-size="14.00">id :integer</text>
<text text-anchor="start" x="1457.93" y="-381.8" font-family="Times,serif" font-size="14.00">card_id :integer</text>
<text text-anchor="start" x="1457.93" y="-367.8" font-family="Times,serif" font-size="14.00">tag_id :integer</text>
<text text-anchor="start" x="1457.93" y="-353.8" font-family="Times,serif" font-size="14.00">created_at :datetime</text>
<text text-anchor="start" x="1457.93" y="-339.8" font-family="Times,serif" font-size="14.00">updated_at :datetime</text>
</g>
<!-- Card&#45;&gt;Tagging -->
<g id="edge17" class="edge"><title>Card&#45;&gt;Tagging</title>
<path fill="none" stroke="#0fb026" d="M1059.31,-768.48C1072.18,-653.748 1088.9,-521.367 1098.44,-512 1148.07,-463.244 1345.71,-503.905 1409.44,-476 1429.01,-467.429 1447.67,-454.018 1463.76,-440.06"/>
<ellipse fill="none" stroke="#0fb026" cx="1058.83" cy="-772.733" rx="4.00001" ry="4.00001"/>
<polygon fill="#0fb026" stroke="#0fb026" points="1464,-439.851 1474.45,-436.537 1467.72,-436.517 1471.45,-433.183 1471.45,-433.183 1471.45,-433.183 1467.72,-436.517 1468.45,-429.829 1464,-439.851 1464,-439.851"/>
</g>
<!-- User -->
<g id="node33" class="node"><title>User</title>
<path fill="none" stroke="black" d="M629.373,-513C629.373,-513 755.501,-513 755.501,-513 761.501,-513 767.501,-519 767.501,-525 767.501,-525 767.501,-727 767.501,-727 767.501,-733 761.501,-739 755.501,-739 755.501,-739 629.373,-739 629.373,-739 623.373,-739 617.373,-733 617.373,-727 617.373,-727 617.373,-525 617.373,-525 617.373,-519 623.373,-513 629.373,-513"/>
<text text-anchor="middle" x="692.437" y="-723.8" font-family="Times,serif" font-size="14.00">User</text>
<polyline fill="none" stroke="black" points="617.373,-717 767.501,-717 "/>
<text text-anchor="start" x="625.373" y="-701.8" font-family="Times,serif" font-size="14.00">id :integer</text>
<text text-anchor="start" x="625.373" y="-687.8" font-family="Times,serif" font-size="14.00">email :string</text>
<text text-anchor="start" x="625.373" y="-673.8" font-family="Times,serif" font-size="14.00">gravatar_email :string</text>
<text text-anchor="start" x="625.373" y="-659.8" font-family="Times,serif" font-size="14.00">password_digest :string</text>
<text text-anchor="start" x="625.373" y="-645.8" font-family="Times,serif" font-size="14.00">remember_token :string</text>
<text text-anchor="start" x="625.373" y="-631.8" font-family="Times,serif" font-size="14.00">user_type_id :integer</text>
<text text-anchor="start" x="625.373" y="-617.8" font-family="Times,serif" font-size="14.00">uid :string</text>
<text text-anchor="start" x="625.373" y="-603.8" font-family="Times,serif" font-size="14.00">created_at :datetime</text>
<text text-anchor="start" x="625.373" y="-589.8" font-family="Times,serif" font-size="14.00">updated_at :datetime</text>
<text text-anchor="start" x="625.373" y="-575.8" font-family="Times,serif" font-size="14.00">reset_token :string</text>
<text text-anchor="start" x="625.373" y="-561.8" font-family="Times,serif" font-size="14.00">reset_sent_at :datetime</text>
<text text-anchor="start" x="625.373" y="-547.8" font-family="Times,serif" font-size="14.00">firstname :string</text>
<text text-anchor="start" x="625.373" y="-533.8" font-family="Times,serif" font-size="14.00">lastname :string</text>
<text text-anchor="start" x="625.373" y="-519.8" font-family="Times,serif" font-size="14.00">confirmed :boolean</text>
</g>
<!-- Card&#45;&gt;User -->
<g id="edge15" class="edge"><title>Card&#45;&gt;User</title>
<path fill="none" stroke="#6f1419" d="M959.284,-869.868C903.856,-821.639 831.015,-756.811 775.416,-706.264"/>
<polygon fill="#6f1419" stroke="#6f1419" points="959.433,-869.998 964.031,-879.953 963.208,-873.277 966.982,-876.556 966.982,-876.556 966.982,-876.556 963.208,-873.277 969.934,-873.159 959.433,-869.998 959.433,-869.998"/>
<polygon fill="#6f1419" stroke="#6f1419" points="775.083,-705.961 770.718,-695.902 771.386,-702.595 767.689,-699.229 767.689,-699.229 767.689,-699.229 771.386,-702.595 764.659,-702.557 775.083,-705.961 775.083,-705.961"/>
</g>
<!-- VerificatorComment -->
<g id="node35" class="node"><title>VerificatorComment</title>
<path fill="none" stroke="black" d="M1114.93,-326C1114.93,-326 1223.94,-326 1223.94,-326 1229.94,-326 1235.94,-332 1235.94,-338 1235.94,-338 1235.94,-428 1235.94,-428 1235.94,-434 1229.94,-440 1223.94,-440 1223.94,-440 1114.93,-440 1114.93,-440 1108.93,-440 1102.93,-434 1102.93,-428 1102.93,-428 1102.93,-338 1102.93,-338 1102.93,-332 1108.93,-326 1114.93,-326"/>
<text text-anchor="middle" x="1169.44" y="-424.8" font-family="Times,serif" font-size="14.00">VerificatorComment</text>
<polyline fill="none" stroke="black" points="1102.93,-418 1235.94,-418 "/>
<text text-anchor="start" x="1110.93" y="-402.8" font-family="Times,serif" font-size="14.00">id :integer</text>
<text text-anchor="start" x="1110.93" y="-388.8" font-family="Times,serif" font-size="14.00">content :text</text>
<text text-anchor="start" x="1110.93" y="-374.8" font-family="Times,serif" font-size="14.00">user_id :integer</text>
<text text-anchor="start" x="1110.93" y="-360.8" font-family="Times,serif" font-size="14.00">card_id :integer</text>
<text text-anchor="start" x="1110.93" y="-346.8" font-family="Times,serif" font-size="14.00">created_at :datetime</text>
<text text-anchor="start" x="1110.93" y="-332.8" font-family="Times,serif" font-size="14.00">updated_at :datetime</text>
</g>
<!-- Card&#45;&gt;VerificatorComment -->
<g id="edge19" class="edge"><title>Card&#45;&gt;VerificatorComment</title>
<path fill="none" stroke="#5645b5" d="M1017.66,-768.733C1007.14,-669.138 1002.15,-554.593 1027.44,-512 1044.49,-483.268 1067.66,-497.265 1093.44,-476 1103.5,-467.7 1113.21,-457.918 1122.13,-447.886"/>
<ellipse fill="none" stroke="#5645b5" cx="1018.09" cy="-772.813" rx="4" ry="4"/>
<polygon fill="#5645b5" stroke="#5645b5" points="1122.25,-447.749 1132.19,-443.13 1125.52,-443.967 1128.79,-440.186 1128.79,-440.186 1128.79,-440.186 1125.52,-443.967 1125.38,-437.242 1122.25,-447.749 1122.25,-447.749"/>
</g>
<!-- CardType -->
<g id="node11" class="node"><title>CardType</title>
<path fill="none" stroke="black" d="M934.932,-1146C934.932,-1146 1043.94,-1146 1043.94,-1146 1049.94,-1146 1055.94,-1152 1055.94,-1158 1055.94,-1158 1055.94,-1220 1055.94,-1220 1055.94,-1226 1049.94,-1232 1043.94,-1232 1043.94,-1232 934.932,-1232 934.932,-1232 928.932,-1232 922.932,-1226 922.932,-1220 922.932,-1220 922.932,-1158 922.932,-1158 922.932,-1152 928.932,-1146 934.932,-1146"/>
<text text-anchor="middle" x="989.437" y="-1216.8" font-family="Times,serif" font-size="14.00">CardType</text>
<polyline fill="none" stroke="black" points="922.932,-1210 1055.94,-1210 "/>
<text text-anchor="start" x="930.932" y="-1194.8" font-family="Times,serif" font-size="14.00">id :integer</text>
<text text-anchor="start" x="930.932" y="-1180.8" font-family="Times,serif" font-size="14.00">name :string</text>
<text text-anchor="start" x="930.932" y="-1166.8" font-family="Times,serif" font-size="14.00">created_at :datetime</text>
<text text-anchor="start" x="930.932" y="-1152.8" font-family="Times,serif" font-size="14.00">updated_at :datetime</text>
</g>
<!-- CardType&#45;&gt;Card -->
<g id="edge25" class="edge"><title>CardType&#45;&gt;Card</title>
<path fill="none" stroke="#532052" d="M999.922,-1137.99C1001.67,-1129.66 1003.56,-1120.63 1005.55,-1111.17"/>
<ellipse fill="none" stroke="#532052" cx="999.079" cy="-1142.02" rx="4.00001" ry="4.00001"/>
<polygon fill="#532052" stroke="#532052" points="1005.59,-1110.95 1012.05,-1102.09 1006.62,-1106.06 1007.64,-1101.17 1007.64,-1101.17 1007.64,-1101.17 1006.62,-1106.06 1003.24,-1100.24 1005.59,-1110.95 1005.59,-1110.95"/>
</g>
<!-- Disponibility -->
<g id="node14" class="node"><title>Disponibility</title>
<path fill="none" stroke="black" d="M1689.93,-583C1689.93,-583 1798.94,-583 1798.94,-583 1804.94,-583 1810.94,-589 1810.94,-595 1810.94,-595 1810.94,-657 1810.94,-657 1810.94,-663 1804.94,-669 1798.94,-669 1798.94,-669 1689.93,-669 1689.93,-669 1683.93,-669 1677.93,-663 1677.93,-657 1677.93,-657 1677.93,-595 1677.93,-595 1677.93,-589 1683.93,-583 1689.93,-583"/>
<text text-anchor="middle" x="1744.44" y="-653.8" font-family="Times,serif" font-size="14.00">Disponibility</text>
<polyline fill="none" stroke="black" points="1677.93,-647 1810.94,-647 "/>
<text text-anchor="start" x="1685.93" y="-631.8" font-family="Times,serif" font-size="14.00">id :integer</text>
<text text-anchor="start" x="1685.93" y="-617.8" font-family="Times,serif" font-size="14.00">name :string</text>
<text text-anchor="start" x="1685.93" y="-603.8" font-family="Times,serif" font-size="14.00">created_at :datetime</text>
<text text-anchor="start" x="1685.93" y="-589.8" font-family="Times,serif" font-size="14.00">updated_at :datetime</text>
</g>
<!-- Orator -->
<g id="node18" class="node"><title>Orator</title>
<path fill="none" stroke="black" d="M1727.93,-312C1727.93,-312 1836.94,-312 1836.94,-312 1842.94,-312 1848.94,-318 1848.94,-324 1848.94,-324 1848.94,-442 1848.94,-442 1848.94,-448 1842.94,-454 1836.94,-454 1836.94,-454 1727.93,-454 1727.93,-454 1721.93,-454 1715.93,-448 1715.93,-442 1715.93,-442 1715.93,-324 1715.93,-324 1715.93,-318 1721.93,-312 1727.93,-312"/>
<text text-anchor="middle" x="1782.44" y="-438.8" font-family="Times,serif" font-size="14.00">Orator</text>
<polyline fill="none" stroke="black" points="1715.93,-432 1848.94,-432 "/>
<text text-anchor="start" x="1723.93" y="-416.8" font-family="Times,serif" font-size="14.00">id :integer</text>
<text text-anchor="start" x="1723.93" y="-402.8" font-family="Times,serif" font-size="14.00">user_id :integer</text>
<text text-anchor="start" x="1723.93" y="-388.8" font-family="Times,serif" font-size="14.00">street :string</text>
<text text-anchor="start" x="1723.93" y="-374.8" font-family="Times,serif" font-size="14.00">location_id :integer</text>
<text text-anchor="start" x="1723.93" y="-360.8" font-family="Times,serif" font-size="14.00">phone :string</text>
<text text-anchor="start" x="1723.93" y="-346.8" font-family="Times,serif" font-size="14.00">disponibility :string</text>
<text text-anchor="start" x="1723.93" y="-332.8" font-family="Times,serif" font-size="14.00">created_at :datetime</text>
<text text-anchor="start" x="1723.93" y="-318.8" font-family="Times,serif" font-size="14.00">updated_at :datetime</text>
</g>
<!-- Disponibility&#45;&gt;Orator -->
<g id="edge30" class="edge"><title>Disponibility&#45;&gt;Orator</title>
<path fill="none" stroke="#9f6c1a" d="M1752.67,-572.808C1757.67,-541.057 1764.17,-499.858 1769.82,-464.051"/>
<polygon fill="#9f6c1a" stroke="#9f6c1a" points="1752.66,-572.867 1746.65,-582.044 1751.88,-577.806 1751.1,-582.745 1751.1,-582.745 1751.1,-582.745 1751.88,-577.806 1755.54,-583.446 1752.66,-572.867 1752.66,-572.867"/>
<polygon fill="#9f6c1a" stroke="#9f6c1a" points="1769.83,-463.984 1775.83,-454.807 1770.6,-459.045 1771.38,-454.106 1771.38,-454.106 1771.38,-454.106 1770.6,-459.045 1766.94,-453.405 1769.83,-463.984 1769.83,-463.984"/>
</g>
<!-- OratorDisponibility -->
<g id="node19" class="node"><title>OratorDisponibility</title>
<path fill="none" stroke="black" d="M1619.97,-146C1619.97,-146 1746.9,-146 1746.9,-146 1752.9,-146 1758.9,-152 1758.9,-158 1758.9,-158 1758.9,-234 1758.9,-234 1758.9,-240 1752.9,-246 1746.9,-246 1746.9,-246 1619.97,-246 1619.97,-246 1613.97,-246 1607.97,-240 1607.97,-234 1607.97,-234 1607.97,-158 1607.97,-158 1607.97,-152 1613.97,-146 1619.97,-146"/>
<text text-anchor="middle" x="1683.44" y="-230.8" font-family="Times,serif" font-size="14.00">OratorDisponibility</text>
<polyline fill="none" stroke="black" points="1607.97,-224 1758.9,-224 "/>
<text text-anchor="start" x="1615.97" y="-208.8" font-family="Times,serif" font-size="14.00">id :integer</text>
<text text-anchor="start" x="1615.97" y="-194.8" font-family="Times,serif" font-size="14.00">orator_id :integer</text>
<text text-anchor="start" x="1615.97" y="-180.8" font-family="Times,serif" font-size="14.00">disponibility_id :integer</text>
<text text-anchor="start" x="1615.97" y="-166.8" font-family="Times,serif" font-size="14.00">created_at :datetime</text>
<text text-anchor="start" x="1615.97" y="-152.8" font-family="Times,serif" font-size="14.00">updated_at :datetime</text>
</g>
<!-- Disponibility&#45;&gt;OratorDisponibility -->
<g id="edge29" class="edge"><title>Disponibility&#45;&gt;OratorDisponibility</title>
<path fill="none" stroke="#73edbf" d="M1729.41,-574.826C1721.38,-546.136 1712.02,-509.332 1706.44,-476 1693.85,-400.866 1688.05,-313.145 1685.45,-256.417"/>
<ellipse fill="none" stroke="#73edbf" cx="1730.54" cy="-578.844" rx="4.00001" ry="4.00001"/>
<polygon fill="#73edbf" stroke="#73edbf" points="1685.44,-256.185 1689.5,-245.997 1685.22,-251.19 1685,-246.195 1685,-246.195 1685,-246.195 1685.22,-251.19 1680.51,-246.393 1685.44,-256.185 1685.44,-256.185"/>
</g>
<!-- Document -->
<g id="node15" class="node"><title>Document</title>
<path fill="none" stroke="black" d="M1803.93,-882C1803.93,-882 1912.94,-882 1912.94,-882 1918.94,-882 1924.94,-888 1924.94,-894 1924.94,-894 1924.94,-984 1924.94,-984 1924.94,-990 1918.94,-996 1912.94,-996 1912.94,-996 1803.93,-996 1803.93,-996 1797.93,-996 1791.93,-990 1791.93,-984 1791.93,-984 1791.93,-894 1791.93,-894 1791.93,-888 1797.93,-882 1803.93,-882"/>
<text text-anchor="middle" x="1858.44" y="-980.8" font-family="Times,serif" font-size="14.00">Document</text>
<polyline fill="none" stroke="black" points="1791.93,-974 1924.94,-974 "/>
<text text-anchor="start" x="1799.93" y="-958.8" font-family="Times,serif" font-size="14.00">id :integer</text>
<text text-anchor="start" x="1799.93" y="-944.8" font-family="Times,serif" font-size="14.00">name :string</text>
<text text-anchor="start" x="1799.93" y="-930.8" font-family="Times,serif" font-size="14.00">file :string</text>
<text text-anchor="start" x="1799.93" y="-916.8" font-family="Times,serif" font-size="14.00">created_at :datetime</text>
<text text-anchor="start" x="1799.93" y="-902.8" font-family="Times,serif" font-size="14.00">updated_at :datetime</text>
<text text-anchor="start" x="1799.93" y="-888.8" font-family="Times,serif" font-size="14.00">subject_id :integer</text>
</g>
<!-- Element -->
<g id="node16" class="node"><title>Element</title>
<path fill="none" stroke="black" d="M287.932,-896C287.932,-896 396.942,-896 396.942,-896 402.942,-896 408.942,-902 408.942,-908 408.942,-908 408.942,-970 408.942,-970 408.942,-976 402.942,-982 396.942,-982 396.942,-982 287.932,-982 287.932,-982 281.932,-982 275.932,-976 275.932,-970 275.932,-970 275.932,-908 275.932,-908 275.932,-902 281.932,-896 287.932,-896"/>
<text text-anchor="middle" x="342.437" y="-966.8" font-family="Times,serif" font-size="14.00">Element</text>
<polyline fill="none" stroke="black" points="275.932,-960 408.942,-960 "/>
<text text-anchor="start" x="283.932" y="-944.8" font-family="Times,serif" font-size="14.00">id :integer</text>
<text text-anchor="start" x="283.932" y="-930.8" font-family="Times,serif" font-size="14.00">name :string</text>
<text text-anchor="start" x="283.932" y="-916.8" font-family="Times,serif" font-size="14.00">created_at :datetime</text>
<text text-anchor="start" x="283.932" y="-902.8" font-family="Times,serif" font-size="14.00">updated_at :datetime</text>
</g>
<!-- Element&#45;&gt;Ownership -->
<g id="edge33" class="edge"><title>Element&#45;&gt;Ownership</title>
<path fill="none" stroke="#29deaf" d="M338.654,-887.765C331.272,-806.465 311.089,-642.042 261.437,-512 257.899,-502.733 253.699,-493.378 249.114,-484.167"/>
<ellipse fill="none" stroke="#29deaf" cx="339.016" cy="-891.858" rx="4" ry="4"/>
<polygon fill="#29deaf" stroke="#29deaf" points="248.981,-483.909 248.414,-472.958 246.696,-479.461 244.411,-475.014 244.411,-475.014 244.411,-475.014 246.696,-479.461 240.409,-477.071 248.981,-483.909 248.981,-483.909"/>
</g>
<!-- Orator&#45;&gt;OratorDisponibility -->
<g id="edge38" class="edge"><title>Orator&#45;&gt;OratorDisponibility</title>
<path fill="none" stroke="#eb1237" d="M1741,-304.562C1732.15,-288.035 1722.96,-270.849 1714.58,-255.192"/>
<ellipse fill="none" stroke="#eb1237" cx="1742.98" cy="-308.269" rx="4.00002" ry="4.00002"/>
<polygon fill="#eb1237" stroke="#eb1237" points="1714.47,-254.983 1713.72,-244.043 1712.11,-250.574 1709.75,-246.166 1709.75,-246.166 1709.75,-246.166 1712.11,-250.574 1705.78,-248.289 1714.47,-254.983 1714.47,-254.983"/>
</g>
<!-- OratorTheme -->
<g id="node20" class="node"><title>OratorTheme</title>
<path fill="none" stroke="black" d="M1826.93,-1C1826.93,-1 1935.94,-1 1935.94,-1 1941.94,-1 1947.94,-7 1947.94,-13 1947.94,-13 1947.94,-89 1947.94,-89 1947.94,-95 1941.94,-101 1935.94,-101 1935.94,-101 1826.93,-101 1826.93,-101 1820.93,-101 1814.93,-95 1814.93,-89 1814.93,-89 1814.93,-13 1814.93,-13 1814.93,-7 1820.93,-1 1826.93,-1"/>
<text text-anchor="middle" x="1881.44" y="-85.8" font-family="Times,serif" font-size="14.00">OratorTheme</text>
<polyline fill="none" stroke="black" points="1814.93,-79 1947.94,-79 "/>
<text text-anchor="start" x="1822.93" y="-63.8" font-family="Times,serif" font-size="14.00">id :integer</text>
<text text-anchor="start" x="1822.93" y="-49.8" font-family="Times,serif" font-size="14.00">orator_id :integer</text>
<text text-anchor="start" x="1822.93" y="-35.8" font-family="Times,serif" font-size="14.00">theme_id :integer</text>
<text text-anchor="start" x="1822.93" y="-21.8" font-family="Times,serif" font-size="14.00">created_at :datetime</text>
<text text-anchor="start" x="1822.93" y="-7.8" font-family="Times,serif" font-size="14.00">updated_at :datetime</text>
</g>
<!-- Orator&#45;&gt;OratorTheme -->
<g id="edge36" class="edge"><title>Orator&#45;&gt;OratorTheme</title>
<path fill="none" stroke="#b288b6" d="M1777.68,-303.733C1777.56,-254.298 1782.84,-190.146 1805.44,-138 1809.8,-127.922 1815.81,-118.196 1822.56,-109.138"/>
<ellipse fill="none" stroke="#b288b6" cx="1777.72" cy="-307.848" rx="4" ry="4"/>
<polygon fill="#b288b6" stroke="#b288b6" points="1822.76,-108.884 1832.47,-103.795 1825.84,-104.951 1828.93,-101.017 1828.93,-101.017 1828.93,-101.017 1825.84,-104.951 1825.39,-98.2392 1822.76,-108.884 1822.76,-108.884"/>
</g>
<!-- Theme -->
<g id="node32" class="node"><title>Theme</title>
<path fill="none" stroke="black" d="M1826.93,-146C1826.93,-146 1935.94,-146 1935.94,-146 1941.94,-146 1947.94,-152 1947.94,-158 1947.94,-158 1947.94,-234 1947.94,-234 1947.94,-240 1941.94,-246 1935.94,-246 1935.94,-246 1826.93,-246 1826.93,-246 1820.93,-246 1814.93,-240 1814.93,-234 1814.93,-234 1814.93,-158 1814.93,-158 1814.93,-152 1820.93,-146 1826.93,-146"/>
<text text-anchor="middle" x="1881.44" y="-230.8" font-family="Times,serif" font-size="14.00">Theme</text>
<polyline fill="none" stroke="black" points="1814.93,-224 1947.94,-224 "/>
<text text-anchor="start" x="1822.93" y="-208.8" font-family="Times,serif" font-size="14.00">id :integer</text>
<text text-anchor="start" x="1822.93" y="-194.8" font-family="Times,serif" font-size="14.00">name :string</text>
<text text-anchor="start" x="1822.93" y="-180.8" font-family="Times,serif" font-size="14.00">description :text</text>
<text text-anchor="start" x="1822.93" y="-166.8" font-family="Times,serif" font-size="14.00">created_at :datetime</text>
<text text-anchor="start" x="1822.93" y="-152.8" font-family="Times,serif" font-size="14.00">updated_at :datetime</text>
</g>
<!-- Orator&#45;&gt;Theme -->
<g id="edge37" class="edge"><title>Orator&#45;&gt;Theme</title>
<path fill="none" stroke="#ae5b14" d="M1824.85,-302.738C1833.37,-286.825 1842.17,-270.378 1850.22,-255.334"/>
<polygon fill="#ae5b14" stroke="#ae5b14" points="1824.72,-302.979 1816.04,-309.672 1822.37,-307.387 1820.01,-311.796 1820.01,-311.796 1820.01,-311.796 1822.37,-307.387 1823.97,-313.919 1824.72,-302.979 1824.72,-302.979"/>
<polygon fill="#ae5b14" stroke="#ae5b14" points="1850.41,-254.983 1859.09,-248.289 1852.77,-250.574 1855.13,-246.166 1855.13,-246.166 1855.13,-246.166 1852.77,-250.574 1851.16,-244.043 1850.41,-254.983 1850.41,-254.983"/>
</g>
<!-- Ownership&#45;&gt;AccessToken -->
<g id="edge43" class="edge"><title>Ownership&#45;&gt;AccessToken</title>
<path fill="none" stroke="#e6e0c3" d="M226.041,-283.323C228.967,-276.384 231.874,-269.491 234.694,-262.801"/>
<ellipse fill="none" stroke="#e6e0c3" cx="224.42" cy="-287.169" rx="4.00002" ry="4.00002"/>
<polygon fill="#e6e0c3" stroke="#e6e0c3" points="234.872,-262.379 242.903,-254.913 236.814,-257.772 238.757,-253.165 238.757,-253.165 238.757,-253.165 236.814,-257.772 234.61,-251.416 234.872,-262.379 234.872,-262.379"/>
</g>
<!-- Ownership&#45;&gt;OwnershipAction -->
<g id="edge42" class="edge"><title>Ownership&#45;&gt;OwnershipAction</title>
<path fill="none" stroke="#511d95" d="M124.379,-283.675C118.405,-273.894 112.484,-264.201 106.885,-255.034"/>
<ellipse fill="none" stroke="#511d95" cx="126.68" cy="-287.441" rx="4.00002" ry="4.00002"/>
<polygon fill="#511d95" stroke="#511d95" points="106.837,-254.955 105.464,-244.075 104.23,-250.688 101.624,-246.421 101.624,-246.421 101.624,-246.421 104.23,-250.688 97.7836,-248.767 106.837,-254.955 106.837,-254.955"/>
</g>
<!-- OwnershipType -->
<g id="node23" class="node"><title>OwnershipType</title>
<path fill="none" stroke="black" d="M149.932,-1146C149.932,-1146 258.942,-1146 258.942,-1146 264.942,-1146 270.942,-1152 270.942,-1158 270.942,-1158 270.942,-1220 270.942,-1220 270.942,-1226 264.942,-1232 258.942,-1232 258.942,-1232 149.932,-1232 149.932,-1232 143.932,-1232 137.932,-1226 137.932,-1220 137.932,-1220 137.932,-1158 137.932,-1158 137.932,-1152 143.932,-1146 149.932,-1146"/>
<text text-anchor="middle" x="204.437" y="-1216.8" font-family="Times,serif" font-size="14.00">OwnershipType</text>
<polyline fill="none" stroke="black" points="137.932,-1210 270.942,-1210 "/>
<text text-anchor="start" x="145.932" y="-1194.8" font-family="Times,serif" font-size="14.00">id :integer</text>
<text text-anchor="start" x="145.932" y="-1180.8" font-family="Times,serif" font-size="14.00">name :string</text>
<text text-anchor="start" x="145.932" y="-1166.8" font-family="Times,serif" font-size="14.00">created_at :datetime</text>
<text text-anchor="start" x="145.932" y="-1152.8" font-family="Times,serif" font-size="14.00">updated_at :datetime</text>
</g>
<!-- OwnershipType&#45;&gt;Ownership -->
<g id="edge46" class="edge"><title>OwnershipType&#45;&gt;Ownership</title>
<path fill="none" stroke="#a69dd6" d="M203.191,-1137.89C199.962,-1008.11 191.279,-659.031 186.955,-485.209"/>
<ellipse fill="none" stroke="#a69dd6" cx="203.29" cy="-1141.91" rx="4" ry="4"/>
<polygon fill="#a69dd6" stroke="#a69dd6" points="186.95,-485.03 191.2,-474.921 186.826,-480.031 186.702,-475.033 186.702,-475.033 186.702,-475.033 186.826,-480.031 182.203,-475.145 186.95,-485.03 186.95,-485.03"/>
</g>
<!-- Page -->
<g id="node24" class="node"><title>Page</title>
<path fill="none" stroke="black" d="M2349.93,-1139C2349.93,-1139 2458.94,-1139 2458.94,-1139 2464.94,-1139 2470.94,-1145 2470.94,-1151 2470.94,-1151 2470.94,-1227 2470.94,-1227 2470.94,-1233 2464.94,-1239 2458.94,-1239 2458.94,-1239 2349.93,-1239 2349.93,-1239 2343.93,-1239 2337.93,-1233 2337.93,-1227 2337.93,-1227 2337.93,-1151 2337.93,-1151 2337.93,-1145 2343.93,-1139 2349.93,-1139"/>
<text text-anchor="middle" x="2404.44" y="-1223.8" font-family="Times,serif" font-size="14.00">Page</text>
<polyline fill="none" stroke="black" points="2337.93,-1217 2470.94,-1217 "/>
<text text-anchor="start" x="2345.93" y="-1201.8" font-family="Times,serif" font-size="14.00">id :integer</text>
<text text-anchor="start" x="2345.93" y="-1187.8" font-family="Times,serif" font-size="14.00">name :string</text>
<text text-anchor="start" x="2345.93" y="-1173.8" font-family="Times,serif" font-size="14.00">content :text</text>
<text text-anchor="start" x="2345.93" y="-1159.8" font-family="Times,serif" font-size="14.00">created_at :datetime</text>
<text text-anchor="start" x="2345.93" y="-1145.8" font-family="Times,serif" font-size="14.00">updated_at :datetime</text>
</g>
<!-- Parent -->
<g id="node25" class="node"><title>Parent</title>
<path fill="none" stroke="black" d="M812.932,-333C812.932,-333 921.942,-333 921.942,-333 927.942,-333 933.942,-339 933.942,-345 933.942,-345 933.942,-421 933.942,-421 933.942,-427 927.942,-433 921.942,-433 921.942,-433 812.932,-433 812.932,-433 806.932,-433 800.932,-427 800.932,-421 800.932,-421 800.932,-345 800.932,-345 800.932,-339 806.932,-333 812.932,-333"/>
<text text-anchor="middle" x="867.437" y="-417.8" font-family="Times,serif" font-size="14.00">Parent</text>
<polyline fill="none" stroke="black" points="800.932,-411 933.942,-411 "/>
<text text-anchor="start" x="808.932" y="-395.8" font-family="Times,serif" font-size="14.00">id :integer</text>
<text text-anchor="start" x="808.932" y="-381.8" font-family="Times,serif" font-size="14.00">user_id :integer</text>
<text text-anchor="start" x="808.932" y="-367.8" font-family="Times,serif" font-size="14.00">parent_id :integer</text>
<text text-anchor="start" x="808.932" y="-353.8" font-family="Times,serif" font-size="14.00">created_at :datetime</text>
<text text-anchor="start" x="808.932" y="-339.8" font-family="Times,serif" font-size="14.00">updated_at :datetime</text>
</g>
<!-- Permission -->
<g id="node26" class="node"><title>Permission</title>
<polygon fill="none" stroke="black" points="2489.32,-1167 2489.32,-1211 2567.55,-1211 2567.55,-1167 2489.32,-1167"/>
<text text-anchor="middle" x="2528.44" y="-1195.8" font-family="Times,serif" font-size="14.00">Permission</text>
<polyline fill="none" stroke="black" points="2489.32,-1189 2567.55,-1189 "/>
<text text-anchor="middle" x="2528.44" y="-1173.8" font-family="Times,serif" font-size="14.00"> </text>
</g>
<!-- Responsable&#45;&gt;CardResponsable -->
<g id="edge51" class="edge"><title>Responsable&#45;&gt;CardResponsable</title>
<path fill="none" stroke="#6ec54e" d="M1214.47,-561.947C1238.07,-524.77 1267.72,-478.069 1290.72,-441.839"/>
<ellipse fill="none" stroke="#6ec54e" cx="1212.26" cy="-565.423" rx="4.00002" ry="4.00002"/>
<polygon fill="#6ec54e" stroke="#6ec54e" points="1290.76,-441.78 1299.91,-435.749 1293.44,-437.558 1296.12,-433.337 1296.12,-433.337 1296.12,-433.337 1293.44,-437.558 1292.32,-430.925 1290.76,-441.78 1290.76,-441.78"/>
</g>
<!-- Subject -->
<g id="node28" class="node"><title>Subject</title>
<path fill="none" stroke="black" d="M1848.93,-1139C1848.93,-1139 1957.94,-1139 1957.94,-1139 1963.94,-1139 1969.94,-1145 1969.94,-1151 1969.94,-1151 1969.94,-1227 1969.94,-1227 1969.94,-1233 1963.94,-1239 1957.94,-1239 1957.94,-1239 1848.93,-1239 1848.93,-1239 1842.93,-1239 1836.93,-1233 1836.93,-1227 1836.93,-1227 1836.93,-1151 1836.93,-1151 1836.93,-1145 1842.93,-1139 1848.93,-1139"/>
<text text-anchor="middle" x="1903.44" y="-1223.8" font-family="Times,serif" font-size="14.00">Subject</text>
<polyline fill="none" stroke="black" points="1836.93,-1217 1969.94,-1217 "/>
<text text-anchor="start" x="1844.93" y="-1201.8" font-family="Times,serif" font-size="14.00">id :integer</text>
<text text-anchor="start" x="1844.93" y="-1187.8" font-family="Times,serif" font-size="14.00">name :string</text>
<text text-anchor="start" x="1844.93" y="-1173.8" font-family="Times,serif" font-size="14.00">description :text</text>
<text text-anchor="start" x="1844.93" y="-1159.8" font-family="Times,serif" font-size="14.00">created_at :datetime</text>
<text text-anchor="start" x="1844.93" y="-1145.8" font-family="Times,serif" font-size="14.00">updated_at :datetime</text>
</g>
<!-- Subject&#45;&gt;Document -->
<g id="edge53" class="edge"><title>Subject&#45;&gt;Document</title>
<path fill="none" stroke="#7e0cc1" d="M1893.06,-1130.8C1886.32,-1093.66 1877.51,-1045.12 1870.47,-1006.29"/>
<ellipse fill="none" stroke="#7e0cc1" cx="1893.78" cy="-1134.77" rx="4.00001" ry="4.00001"/>
<polygon fill="#7e0cc1" stroke="#7e0cc1" points="1870.41,-1005.97 1873.05,-995.326 1869.51,-1001.05 1868.62,-996.129 1868.62,-996.129 1868.62,-996.129 1869.51,-1001.05 1864.19,-996.933 1870.41,-1005.97 1870.41,-1005.97"/>
</g>
<!-- SubjectTheme -->
<g id="node29" class="node"><title>SubjectTheme</title>
<path fill="none" stroke="black" d="M1993.93,-889C1993.93,-889 2102.94,-889 2102.94,-889 2108.94,-889 2114.94,-895 2114.94,-901 2114.94,-901 2114.94,-977 2114.94,-977 2114.94,-983 2108.94,-989 2102.94,-989 2102.94,-989 1993.93,-989 1993.93,-989 1987.93,-989 1981.93,-983 1981.93,-977 1981.93,-977 1981.93,-901 1981.93,-901 1981.93,-895 1987.93,-889 1993.93,-889"/>
<text text-anchor="middle" x="2048.44" y="-973.8" font-family="Times,serif" font-size="14.00">SubjectTheme</text>
<polyline fill="none" stroke="black" points="1981.93,-967 2114.94,-967 "/>
<text text-anchor="start" x="1989.93" y="-951.8" font-family="Times,serif" font-size="14.00">id :integer</text>
<text text-anchor="start" x="1989.93" y="-937.8" font-family="Times,serif" font-size="14.00">subject_id :integer</text>
<text text-anchor="start" x="1989.93" y="-923.8" font-family="Times,serif" font-size="14.00">theme_id :integer</text>
<text text-anchor="start" x="1989.93" y="-909.8" font-family="Times,serif" font-size="14.00">created_at :datetime</text>
<text text-anchor="start" x="1989.93" y="-895.8" font-family="Times,serif" font-size="14.00">updated_at :datetime</text>
</g>
<!-- Subject&#45;&gt;SubjectTheme -->
<g id="edge54" class="edge"><title>Subject&#45;&gt;SubjectTheme</title>
<path fill="none" stroke="#c9e6c2" d="M1947.38,-1131.88C1954.39,-1122.12 1961.33,-1111.92 1967.44,-1102 1987.91,-1068.73 2007.59,-1029.6 2022.42,-998.13"/>
<ellipse fill="none" stroke="#c9e6c2" cx="1944.88" cy="-1135.33" rx="4.00002" ry="4.00002"/>
<polygon fill="#c9e6c2" stroke="#c9e6c2" points="2022.44,-998.107 2030.75,-990.955 2024.55,-993.578 2026.67,-989.048 2026.67,-989.048 2026.67,-989.048 2024.55,-993.578 2022.6,-987.142 2022.44,-998.107 2022.44,-998.107"/>
</g>
<!-- Subject&#45;&gt;Theme -->
<g id="edge55" class="edge"><title>Subject&#45;&gt;Theme</title>
<path fill="none" stroke="#cea719" d="M1926.87,-1129.13C1929.59,-1120.17 1931.92,-1110.93 1933.44,-1102 1986.83,-786.819 1922.76,-402.038 1894.01,-256.537"/>
<polygon fill="#cea719" stroke="#cea719" points="1926.85,-1129.2 1919.51,-1137.35 1925.32,-1133.96 1923.79,-1138.72 1923.79,-1138.72 1923.79,-1138.72 1925.32,-1133.96 1928.08,-1140.1 1926.85,-1129.2 1926.85,-1129.2"/>
<polygon fill="#cea719" stroke="#cea719" points="1893.96,-256.285 1896.42,-245.598 1892.98,-251.382 1892,-246.478 1892,-246.478 1892,-246.478 1892.98,-251.382 1887.59,-247.359 1893.96,-256.285 1893.96,-256.285"/>
</g>
<!-- Tag&#45;&gt;Tagging -->
<g id="edge58" class="edge"><title>Tag&#45;&gt;Tagging</title>
<path fill="none" stroke="#6dae06" d="M1516.44,-567.691C1516.44,-530.318 1516.44,-481.635 1516.44,-443.777"/>
<ellipse fill="none" stroke="#6dae06" cx="1516.44" cy="-571.94" rx="4" ry="4"/>
<polygon fill="#6dae06" stroke="#6dae06" points="1516.44,-443.405 1520.94,-433.405 1516.44,-438.405 1516.44,-433.405 1516.44,-433.405 1516.44,-433.405 1516.44,-438.405 1511.94,-433.405 1516.44,-443.405 1516.44,-443.405"/>
</g>
<!-- Theme&#45;&gt;OratorTheme -->
<g id="edge61" class="edge"><title>Theme&#45;&gt;OratorTheme</title>
<path fill="none" stroke="#492325" d="M1881.44,-137.575C1881.44,-128.939 1881.44,-120.018 1881.44,-111.342"/>
<ellipse fill="none" stroke="#492325" cx="1881.44" cy="-141.788" rx="4" ry="4"/>
<polygon fill="#492325" stroke="#492325" points="1881.44,-111.303 1885.94,-101.303 1881.44,-106.303 1881.44,-101.303 1881.44,-101.303 1881.44,-101.303 1881.44,-106.303 1876.94,-101.303 1881.44,-111.303 1881.44,-111.303"/>
</g>
<!-- User&#45;&gt;Activity -->
<g id="edge69" class="edge"><title>User&#45;&gt;Activity</title>
<path fill="none" stroke="#5d1030" d="M610.37,-577.412C566.929,-550.363 513.933,-514.304 471.437,-476 464.127,-469.411 456.892,-462.12 449.954,-454.611"/>
<ellipse fill="none" stroke="#5d1030" cx="613.856" cy="-579.569" rx="4.00002" ry="4.00002"/>
<polygon fill="#5d1030" stroke="#5d1030" points="449.825,-454.469 446.463,-444.031 446.474,-450.758 443.123,-447.047 443.123,-447.047 443.123,-447.047 446.474,-450.758 439.783,-450.063 449.825,-454.469 449.825,-454.469"/>
</g>
<!-- User&#45;&gt;Article -->
<g id="edge72" class="edge"><title>User&#45;&gt;Article</title>
<path fill="none" stroke="#b904e2" d="M620.787,-505.913C612.039,-491.372 603.274,-476.804 595.002,-463.055"/>
<ellipse fill="none" stroke="#b904e2" cx="622.969" cy="-509.539" rx="4.00002" ry="4.00002"/>
<polygon fill="#b904e2" stroke="#b904e2" points="594.797,-462.716 593.498,-451.827 592.22,-458.432 589.642,-454.147 589.642,-454.147 589.642,-454.147 592.22,-458.432 585.786,-456.467 594.797,-462.716 594.797,-462.716"/>
</g>
<!-- User&#45;&gt;Card -->
<g id="edge64" class="edge"><title>User&#45;&gt;Card</title>
<path fill="none" stroke="#4f5a5c" d="M774.098,-694.704C829.776,-743.141 903.195,-808.484 959.03,-859.256"/>
<ellipse fill="none" stroke="#4f5a5c" cx="770.761" cy="-691.804" rx="4.00002" ry="4.00002"/>
<polygon fill="#4f5a5c" stroke="#4f5a5c" points="959.328,-859.527 963.692,-869.587 963.025,-862.894 966.722,-866.26 966.722,-866.26 966.722,-866.26 963.025,-862.894 969.752,-862.932 959.328,-859.527 959.328,-859.527"/>
</g>
<!-- User&#45;&gt;CardUser -->
<g id="edge70" class="edge"><title>User&#45;&gt;CardUser</title>
<path fill="none" stroke="#2b8fdd" d="M699.922,-504.738C700.93,-488.551 701.938,-472.358 702.873,-457.328"/>
<ellipse fill="none" stroke="#2b8fdd" cx="699.659" cy="-508.974" rx="4" ry="4"/>
<polygon fill="#2b8fdd" stroke="#2b8fdd" points="702.887,-457.104 708,-447.403 703.198,-452.113 703.508,-447.123 703.508,-447.123 703.508,-447.123 703.198,-452.113 699.017,-446.844 702.887,-457.104 702.887,-457.104"/>
</g>
<!-- User&#45;&gt;CardVerification -->
<g id="edge63" class="edge"><title>User&#45;&gt;CardVerification</title>
<path fill="none" stroke="#47873b" d="M774.16,-553.766C794.012,-538.641 815.783,-523.721 837.437,-512 880.822,-488.515 901.869,-504.072 942.437,-476 956.122,-466.53 968.702,-453.945 979.522,-441.132"/>
<ellipse fill="none" stroke="#47873b" cx="770.953" cy="-556.239" rx="4.00002" ry="4.00002"/>
<polygon fill="#47873b" stroke="#47873b" points="979.709,-440.903 989.515,-435.993 982.868,-437.027 986.026,-433.151 986.026,-433.151 986.026,-433.151 982.868,-437.027 982.538,-430.308 979.709,-440.903 979.709,-440.903"/>
</g>
<!-- User&#45;&gt;Orator -->
<g id="edge71" class="edge"><title>User&#45;&gt;Orator</title>
<path fill="none" stroke="#792588" d="M775.45,-596.66C856.737,-570.162 984.613,-531.794 1098.44,-512 1314.88,-474.361 1379.18,-532.667 1591.44,-476 1631.94,-465.187 1674.21,-445.784 1708.66,-427.576"/>
<ellipse fill="none" stroke="#792588" cx="771.533" cy="-597.942" rx="4.00001" ry="4.00001"/>
<ellipse fill="#792588" stroke="#792588" cx="1712.36" cy="-425.598" rx="4.00002" ry="4.00002"/>
</g>
<!-- User&#45;&gt;Ownership -->
<g id="edge65" class="edge"><title>User&#45;&gt;Ownership</title>
<path fill="none" stroke="#5b548c" d="M609.156,-598.233C531.288,-571.771 412.867,-527.806 316.437,-476 303.641,-469.126 290.598,-461.248 277.934,-453.059"/>
<ellipse fill="none" stroke="#5b548c" cx="613.244" cy="-599.615" rx="4.00001" ry="4.00001"/>
<polygon fill="#5b548c" stroke="#5b548c" points="277.595,-452.836 271.706,-443.586 273.416,-450.092 269.236,-447.347 269.236,-447.347 269.236,-447.347 273.416,-450.092 266.766,-451.109 277.595,-452.836 277.595,-452.836"/>
</g>
<!-- User&#45;&gt;Parent -->
<g id="edge66" class="edge"><title>User&#45;&gt;Parent</title>
<path fill="none" stroke="#5d981e" d="M772.372,-514.918C790.802,-489.538 809.682,-463.537 825.71,-441.464"/>
<ellipse fill="none" stroke="#5d981e" cx="770.019" cy="-518.159" rx="4.00002" ry="4.00002"/>
<polygon fill="#5d981e" stroke="#5d981e" points="825.831,-441.298 835.348,-435.85 828.769,-437.252 831.707,-433.206 831.707,-433.206 831.707,-433.206 828.769,-437.252 828.065,-430.562 825.831,-441.298 825.831,-441.298"/>
</g>
<!-- User&#45;&gt;User -->
<g id="edge67" class="edge"><title>User&#45;&gt;User</title>
<path fill="none" stroke="#4f8d00" d="M775.298,-659.992C781.575,-652.43 785.437,-641.099 785.437,-626 785.437,-610.901 781.575,-599.57 775.298,-592.008"/>
<polygon fill="#4f8d00" stroke="#4f8d00" points="775.133,-660.136 764.643,-663.332 771.369,-663.428 767.606,-666.72 767.606,-666.72 767.606,-666.72 771.369,-663.428 770.568,-670.107 775.133,-660.136 775.133,-660.136"/>
<polygon fill="#4f8d00" stroke="#4f8d00" points="775.133,-591.864 770.568,-581.893 771.369,-588.572 767.606,-585.28 767.606,-585.28 767.606,-585.28 771.369,-588.572 764.643,-588.668 775.133,-591.864 775.133,-591.864"/>
</g>
<!-- User&#45;&gt;VerificatorComment -->
<g id="edge68" class="edge"><title>User&#45;&gt;VerificatorComment</title>
<path fill="none" stroke="#ece2d4" d="M774.581,-564.814C804.939,-545.183 840.491,-525.091 875.437,-512 967.398,-477.552 1008.31,-524.965 1093.44,-476 1105.99,-468.782 1117.35,-458.65 1127.23,-447.733"/>
<ellipse fill="none" stroke="#ece2d4" cx="771.133" cy="-567.068" rx="4.00002" ry="4.00002"/>
<polygon fill="#ece2d4" stroke="#ece2d4" points="1127.31,-447.648 1137.24,-443.015 1130.57,-443.861 1133.84,-440.075 1133.84,-440.075 1133.84,-440.075 1130.57,-443.861 1130.43,-437.136 1127.31,-447.648 1127.31,-447.648"/>
</g>
<!-- UserType -->
<g id="node34" class="node"><title>UserType</title>
<path fill="none" stroke="black" d="M625.932,-896C625.932,-896 734.942,-896 734.942,-896 740.942,-896 746.942,-902 746.942,-908 746.942,-908 746.942,-970 746.942,-970 746.942,-976 740.942,-982 734.942,-982 734.942,-982 625.932,-982 625.932,-982 619.932,-982 613.932,-976 613.932,-970 613.932,-970 613.932,-908 613.932,-908 613.932,-902 619.932,-896 625.932,-896"/>
<text text-anchor="middle" x="680.437" y="-966.8" font-family="Times,serif" font-size="14.00">UserType</text>
<polyline fill="none" stroke="black" points="613.932,-960 746.942,-960 "/>
<text text-anchor="start" x="621.932" y="-944.8" font-family="Times,serif" font-size="14.00">id :integer</text>
<text text-anchor="start" x="621.932" y="-930.8" font-family="Times,serif" font-size="14.00">name :string</text>
<text text-anchor="start" x="621.932" y="-916.8" font-family="Times,serif" font-size="14.00">created_at :datetime</text>
<text text-anchor="start" x="621.932" y="-902.8" font-family="Times,serif" font-size="14.00">updated_at :datetime</text>
</g>
<!-- UserType&#45;&gt;User -->
<g id="edge74" class="edge"><title>UserType&#45;&gt;User</title>
<path fill="none" stroke="#56f802" d="M682.377,-887.713C683.82,-850.317 685.853,-797.632 687.714,-749.402"/>
<ellipse fill="none" stroke="#56f802" cx="682.222" cy="-891.736" rx="4" ry="4"/>
<polygon fill="#56f802" stroke="#56f802" points="687.723,-749.178 692.605,-739.359 687.916,-744.181 688.108,-739.185 688.108,-739.185 688.108,-739.185 687.916,-744.181 683.612,-739.011 687.723,-749.178 687.723,-749.178"/>
</g>
<!-- ActiveRecord::Base -->
<g id="node36" class="node"><title>ActiveRecord::Base</title>
<ellipse fill="none" stroke="black" cx="1179.44" cy="-1313" rx="80.9821" ry="18"/>
<text text-anchor="middle" x="1179.44" y="-1308.8" font-family="Times,serif" font-size="14.00">ActiveRecord::Base</text>
</g>
<!-- ActiveRecord::Base&#45;&gt;AccessToken -->
<g id="edge1" class="edge"><title>ActiveRecord::Base&#45;&gt;AccessToken</title>
<path fill="none" stroke="black" d="M1147.37,-1296.45C1130.28,-1288.91 1108.67,-1280.52 1088.44,-1276 965.01,-1248.4 625.039,-1311.09 520.437,-1240 464.366,-1201.89 474.05,-1167.19 455.437,-1102 415.389,-961.735 449.326,-918.341 417.437,-776 386.681,-638.716 352.328,-612.032 316.437,-476 305.566,-434.796 284.777,-322.155 272.406,-253.252"/>
</g>
<!-- ActiveRecord::Base&#45;&gt;Action -->
<g id="edge4" class="edge"><title>ActiveRecord::Base&#45;&gt;Action</title>
<path fill="none" stroke="black" d="M1147.41,-1296.24C1130.34,-1288.64 1108.72,-1280.26 1088.44,-1276 1036.21,-1265.03 166.053,-1277.86 128.437,-1240 -26.5288,-1084.02 56.1462,-780.821 93.912,-669.398"/>
</g>
<!-- ActiveRecord::Base&#45;&gt;Activity -->
<g id="edge5" class="edge"><title>ActiveRecord::Base&#45;&gt;Activity</title>
<path fill="none" stroke="black" d="M1146.94,-1296.3C1129.92,-1288.82 1108.49,-1280.53 1088.44,-1276 1030.54,-1262.93 601.029,-1278.01 555.437,-1240 524.567,-1214.26 433.912,-640.776 404.078,-447.178"/>
</g>
<!-- ActiveRecord::Base&#45;&gt;Affiliation -->
<g id="edge8" class="edge"><title>ActiveRecord::Base&#45;&gt;Affiliation</title>
<path fill="none" stroke="black" d="M1179.44,-1294.78C1179.44,-1278.56 1179.44,-1253.6 1179.44,-1232.11"/>
</g>
<!-- ActiveRecord::Base&#45;&gt;Article -->
<g id="edge9" class="edge"><title>ActiveRecord::Base&#45;&gt;Article</title>
<path fill="none" stroke="black" d="M1146.92,-1296.37C1129.9,-1288.9 1108.47,-1280.61 1088.44,-1276 985.057,-1252.22 694.783,-1306.87 612.437,-1240 492.405,-1142.52 524.252,-640.684 540.627,-454.034"/>
</g>
<!-- ActiveRecord::Base&#45;&gt;Canton -->
<g id="edge11" class="edge"><title>ActiveRecord::Base&#45;&gt;Canton</title>
<path fill="none" stroke="black" d="M1260.12,-1310.8C1459.68,-1307.06 1971.92,-1292.48 2133.44,-1240 2138.15,-1238.47 2142.87,-1236.61 2147.54,-1234.52"/>
</g>
<!-- ActiveRecord::Base&#45;&gt;Card -->
<g id="edge22" class="edge"><title>ActiveRecord::Base&#45;&gt;Card</title>
<path fill="none" stroke="black" d="M1155.48,-1295.57C1138.31,-1282.51 1116.08,-1262.71 1103.44,-1240 1080.02,-1197.95 1065.41,-1148.14 1056.31,-1101.31"/>
</g>
<!-- ActiveRecord::Base&#45;&gt;CardAffiliation -->
<g id="edge23" class="edge"><title>ActiveRecord::Base&#45;&gt;CardAffiliation</title>
<path fill="none" stroke="black" d="M1211.78,-1296.33C1233.16,-1284.13 1259.7,-1265.05 1273.44,-1240 1375.92,-1053.16 1350.86,-785.248 1334.81,-676.094"/>
</g>
<!-- ActiveRecord::Base&#45;&gt;CardResponsable -->
<g id="edge24" class="edge"><title>ActiveRecord::Base&#45;&gt;CardResponsable</title>
<path fill="none" stroke="black" d="M1222.12,-1297.68C1250.3,-1286.19 1286.04,-1267.41 1308.44,-1240 1349.18,-1190.15 1338.2,-1164.78 1352.44,-1102 1410.62,-845.351 1471.36,-765.975 1402.44,-512 1394.85,-484.036 1379.45,-455.931 1364.56,-433.208"/>
</g>
<!-- ActiveRecord::Base&#45;&gt;CardType -->
<g id="edge26" class="edge"><title>ActiveRecord::Base&#45;&gt;CardType</title>
<path fill="none" stroke="black" d="M1154.21,-1295.8C1128.97,-1279.6 1089.09,-1253.99 1054.89,-1232.03"/>
</g>
<!-- ActiveRecord::Base&#45;&gt;CardUser -->
<g id="edge27" class="edge"><title>ActiveRecord::Base&#45;&gt;CardUser</title>
<path fill="none" stroke="black" d="M1146.89,-1296.5C1129.86,-1289.07 1108.43,-1280.77 1088.44,-1276 1003.35,-1255.7 771.594,-1284.76 696.437,-1240 633.106,-1202.28 625.798,-1172.55 604.437,-1102 566.442,-976.512 565.115,-635.75 608.437,-512 616.559,-488.799 630.695,-466.504 645.784,-447.207"/>
</g>
<!-- ActiveRecord::Base&#45;&gt;CardVerification -->
<g id="edge28" class="edge"><title>ActiveRecord::Base&#45;&gt;CardVerification</title>
<path fill="none" stroke="black" d="M1145.46,-1296.57C1128.6,-1289.43 1107.75,-1281.37 1088.44,-1276 1041.55,-1262.98 904.822,-1276.32 872.437,-1240 818.543,-1179.56 871.156,-584.4 907.437,-512 917.435,-492.049 927.541,-492.616 942.437,-476 954.607,-462.425 967.39,-447.312 978.928,-433.322"/>
</g>
<!-- ActiveRecord::Base&#45;&gt;Disponibility -->
<g id="edge31" class="edge"><title>ActiveRecord::Base&#45;&gt;Disponibility</title>
<path fill="none" stroke="black" d="M1260.44,-1311.51C1383.63,-1308.93 1609.49,-1296.41 1663.44,-1240 1735.08,-1165.08 1694.87,-878.329 1711.44,-776 1717.32,-739.646 1726.55,-698.842 1733.75,-669.139"/>
</g>
<!-- ActiveRecord::Base&#45;&gt;Document -->
<g id="edge32" class="edge"><title>ActiveRecord::Base&#45;&gt;Document</title>
<path fill="none" stroke="black" d="M1256.79,-1307.48C1409.58,-1297.86 1738.74,-1273.49 1777.44,-1240 1814,-1208.36 1839.07,-1073.94 1850.82,-996.194"/>
</g>
<!-- ActiveRecord::Base&#45;&gt;Element -->
<g id="edge34" class="edge"><title>ActiveRecord::Base&#45;&gt;Element</title>
<path fill="none" stroke="black" d="M1147.38,-1296.38C1130.3,-1288.81 1108.69,-1280.43 1088.44,-1276 1016.15,-1260.18 480.948,-1286.56 423.437,-1240 345.973,-1177.28 338.131,-1048.84 339.766,-982.206"/>
</g>
<!-- ActiveRecord::Base&#45;&gt;Location -->
<g id="edge35" class="edge"><title>ActiveRecord::Base&#45;&gt;Location</title>
<path fill="none" stroke="black" d="M1259.45,-1309.78C1508.32,-1302.48 2254.26,-1277.54 2289.44,-1240 2320.34,-1207.03 2307.52,-1080.95 2296.04,-1003.12"/>
</g>
<!-- ActiveRecord::Base&#45;&gt;Orator -->
<g id="edge39" class="edge"><title>ActiveRecord::Base&#45;&gt;Orator</title>
<path fill="none" stroke="black" d="M1260.8,-1312.33C1391,-1311.01 1637.54,-1300.36 1696.44,-1240 1841.39,-1091.43 1631.42,-946.75 1749.44,-776 1769.33,-747.221 1801.21,-769.863 1819.44,-740 1872.22,-653.499 1833.65,-612.332 1819.44,-512 1816.74,-492.99 1811.91,-472.852 1806.6,-454.315"/>
</g>
<!-- ActiveRecord::Base&#45;&gt;OratorDisponibility -->
<g id="edge40" class="edge"><title>ActiveRecord::Base&#45;&gt;OratorDisponibility</title>
<path fill="none" stroke="black" d="M1250.3,-1304.1C1337.49,-1293.2 1479.2,-1271.28 1521.44,-1240 1637.93,-1153.73 1649.44,-1084.96 1649.44,-940 1649.44,-940 1649.44,-940 1649.44,-625 1649.44,-487.288 1667.15,-325.432 1677,-246.004"/>
</g>
<!-- ActiveRecord::Base&#45;&gt;OratorTheme -->
<g id="edge41" class="edge"><title>ActiveRecord::Base&#45;&gt;OratorTheme</title>
<path fill="none" stroke="black" d="M1258.66,-1308.96C1455.72,-1300.87 1956.81,-1276.89 2022.44,-1240 2264.51,-1103.92 2143.44,-904.701 2143.44,-627 2143.44,-627 2143.44,-627 2143.44,-382 2143.44,-256.543 2025.85,-151.076 1948.23,-95.1206"/>
</g>
<!-- ActiveRecord::Base&#45;&gt;Ownership -->
<g id="edge44" class="edge"><title>ActiveRecord::Base&#45;&gt;Ownership</title>
<path fill="none" stroke="black" d="M1147.39,-1296.34C1130.31,-1288.76 1108.7,-1280.38 1088.44,-1276 1008.95,-1258.81 428.069,-1280.3 357.437,-1240 325.532,-1221.79 278.791,-1136.59 266.437,-1102 177.779,-853.736 240.348,-773.298 205.437,-512 203.842,-500.058 201.996,-487.517 200.074,-475.15"/>
</g>
<!-- ActiveRecord::Base&#45;&gt;OwnershipAction -->
<g id="edge45" class="edge"><title>ActiveRecord::Base&#45;&gt;OwnershipAction</title>
<path fill="none" stroke="black" d="M1147.84,-1296.41C1130.7,-1288.75 1108.89,-1280.27 1088.44,-1276 1032.66,-1264.35 107.04,-1276.68 63.4371,-1240 -39.9466,-1153.03 14.4371,-1075.1 14.4371,-940 14.4371,-940 14.4371,-940 14.4371,-625 14.4371,-486.696 44.0437,-325.435 60.5817,-246.145"/>
</g>
<!-- ActiveRecord::Base&#45;&gt;OwnershipType -->
<g id="edge47" class="edge"><title>ActiveRecord::Base&#45;&gt;OwnershipType</title>
<path fill="none" stroke="black" d="M1147.4,-1296.3C1130.32,-1288.72 1108.71,-1280.34 1088.44,-1276 913.766,-1238.63 456.14,-1292.6 285.437,-1240 278.804,-1237.96 272.167,-1235.24 265.706,-1232.12"/>
</g>
<!-- ActiveRecord::Base&#45;&gt;Page -->
<g id="edge48" class="edge"><title>ActiveRecord::Base&#45;&gt;Page</title>
<path fill="none" stroke="black" d="M1260.51,-1311.99C1487.41,-1311.14 2125.14,-1303.07 2323.44,-1240 2328.16,-1238.5 2332.89,-1236.66 2337.56,-1234.59"/>
</g>
<!-- ActiveRecord::Base&#45;&gt;Parent -->
<g id="edge49" class="edge"><title>ActiveRecord::Base&#45;&gt;Parent</title>
<path fill="none" stroke="black" d="M1145.49,-1296.43C1128.65,-1289.26 1107.8,-1281.2 1088.44,-1276 1036.14,-1261.95 883.082,-1280.76 847.437,-1240 742.125,-1119.56 828.049,-596.484 858.073,-433.008"/>
</g>
<!-- ActiveRecord::Base&#45;&gt;Responsable -->
<g id="edge52" class="edge"><title>ActiveRecord::Base&#45;&gt;Responsable</title>
<path fill="none" stroke="black" d="M1205.2,-1295.64C1222.72,-1282.88 1244.46,-1263.41 1254.44,-1240 1272.21,-1198.3 1257.95,-1183.2 1254.44,-1138 1241.48,-971.483 1205.12,-777.183 1186.2,-683.375"/>
</g>
<!-- ActiveRecord::Base&#45;&gt;Subject -->
<g id="edge56" class="edge"><title>ActiveRecord::Base&#45;&gt;Subject</title>
<path fill="none" stroke="black" d="M1256.64,-1307.28C1402.94,-1297.67 1715.05,-1273.87 1817.44,-1240 1823.83,-1237.88 1830.27,-1235.25 1836.6,-1232.31"/>
</g>
<!-- ActiveRecord::Base&#45;&gt;SubjectTheme -->
<g id="edge57" class="edge"><title>ActiveRecord::Base&#45;&gt;SubjectTheme</title>
<path fill="none" stroke="black" d="M1259.72,-1310.02C1451.62,-1304.57 1924.97,-1286.49 1978.44,-1240 2050.28,-1177.53 2056.06,-1056.9 2052.91,-989.183"/>
</g>
<!-- ActiveRecord::Base&#45;&gt;Tag -->
<g id="edge59" class="edge"><title>ActiveRecord::Base&#45;&gt;Tag</title>
<path fill="none" stroke="black" d="M1244.03,-1302.09C1311.36,-1290.38 1410.49,-1268.79 1435.44,-1240 1577.09,-1076.53 1545.93,-790.617 1526.25,-676.292"/>
</g>
<!-- ActiveRecord::Base&#45;&gt;Tagging -->
<g id="edge60" class="edge"><title>ActiveRecord::Base&#45;&gt;Tagging</title>
<path fill="none" stroke="black" d="M1246.95,-1302.89C1324.43,-1291.26 1445.31,-1269.09 1480.44,-1240 1532.22,-1197.11 1523.96,-1166.65 1542.44,-1102 1614.75,-849.006 1660.35,-765.939 1591.44,-512 1583.85,-484.036 1568.45,-455.931 1553.56,-433.208"/>
</g>
<!-- ActiveRecord::Base&#45;&gt;Theme -->
<g id="edge62" class="edge"><title>ActiveRecord::Base&#45;&gt;Theme</title>
<path fill="none" stroke="black" d="M1256.67,-1307.29C1401.78,-1297.69 1703.56,-1273.87 1736.44,-1240 1808.61,-1165.65 1725.49,-862.563 1782.44,-776 1800.59,-748.411 1829.79,-767.913 1847.44,-740 1898.73,-658.864 1890.01,-364.284 1884.23,-246.329"/>
</g>
<!-- ActiveRecord::Base&#45;&gt;User -->
<g id="edge73" class="edge"><title>ActiveRecord::Base&#45;&gt;User</title>
<path fill="none" stroke="black" d="M1145.98,-1296.41C1129.07,-1289.14 1108.03,-1281.01 1088.44,-1276 1025.74,-1259.97 844.523,-1286.43 799.437,-1240 727.283,-1165.69 780.789,-876.423 755.437,-776 752.378,-763.882 748.479,-751.475 744.124,-739.245"/>
</g>
<!-- ActiveRecord::Base&#45;&gt;UserType -->
<g id="edge75" class="edge"><title>ActiveRecord::Base&#45;&gt;UserType</title>
<path fill="none" stroke="black" d="M1146.43,-1296.47C1129.46,-1289.13 1108.23,-1280.91 1088.44,-1276 1017.48,-1258.4 816.955,-1287.56 761.437,-1240 685.95,-1175.33 677.165,-1048.35 678.17,-982.248"/>
</g>
<!-- ActiveRecord::Base&#45;&gt;VerificatorComment -->
<g id="edge76" class="edge"><title>ActiveRecord::Base&#45;&gt;VerificatorComment</title>
<path fill="none" stroke="black" d="M1144.5,-1296.53C1127.78,-1289.55 1107.32,-1281.63 1088.44,-1276 1012.34,-1253.31 963.611,-1301.55 913.437,-1240 810.402,-1113.61 902.988,-638.863 1005.44,-512 1031.99,-479.124 1059.4,-501.043 1093.44,-476 1106.95,-466.055 1119.53,-453.193 1130.4,-440.255"/>
</g>
<!-- Object -->
<g id="node37" class="node"><title>Object</title>
<ellipse fill="none" stroke="black" cx="2528.44" cy="-1313" rx="33.5181" ry="18"/>
<text text-anchor="middle" x="2528.44" y="-1308.8" font-family="Times,serif" font-size="14.00">Object</text>
</g>
<!-- Object&#45;&gt;Permission -->
<g id="edge50" class="edge"><title>Object&#45;&gt;Permission</title>
<path fill="none" stroke="black" d="M2528.44,-1294.78C2528.44,-1272.84 2528.44,-1234.94 2528.44,-1211.23"/>
</g>
</g>
</svg>
