<?xml version="1.0" encoding="UTF-8" standalone="no"?>
<!DOCTYPE svg PUBLIC "-//W3C//DTD SVG 1.1//EN"
 "http://www.w3.org/Graphics/SVG/1.1/DTD/svg11.dtd">
<!-- Generated by graphviz version 2.36.0 (20140111.2315)
 -->
<!-- Title: models_diagram Pages: 1 -->
<svg width="2716pt" height="1584pt"
 viewBox="0.00 0.00 2716.00 1584.00" xmlns="http://www.w3.org/2000/svg" xmlns:xlink="http://www.w3.org/1999/xlink">
<g id="graph0" class="graph" transform="scale(1 1) rotate(0) translate(4 1580)">
<title>models_diagram</title>
<polygon fill="white" stroke="none" points="-4,4 -4,-1580 2712,-1580 2712,4 -4,4"/>
<!-- _diagram_info -->
<g id="node1" class="node"><title>_diagram_info</title>
<text text-anchor="start" x="1111.31" y="-1561.1" font-family="Times,serif" font-size="13.00">Models diagram</text>
<text text-anchor="start" x="1111.31" y="-1548.1" font-family="Times,serif" font-size="13.00">Date: Sep 09 2014 &#45; 21:01</text>
<text text-anchor="start" x="1111.31" y="-1535.1" font-family="Times,serif" font-size="13.00">Migration version: 20140626153501</text>
<text text-anchor="start" x="1111.31" y="-1522.1" font-family="Times,serif" font-size="13.00">Generated by RailRoady 1.1.1</text>
<text text-anchor="start" x="1111.31" y="-1509.1" font-family="Times,serif" font-size="13.00">http://railroady.prestonlee.com</text>
</g>
<!-- AccessToken -->
<g id="node2" class="node"><title>AccessToken</title>
<path fill="none" stroke="black" d="M591.764,-148C591.764,-148 706.236,-148 706.236,-148 712.236,-148 718.236,-154 718.236,-160 718.236,-160 718.236,-264 718.236,-264 718.236,-270 712.236,-276 706.236,-276 706.236,-276 591.764,-276 591.764,-276 585.764,-276 579.764,-270 579.764,-264 579.764,-264 579.764,-160 579.764,-160 579.764,-154 585.764,-148 591.764,-148"/>
<text text-anchor="middle" x="649" y="-260.8" font-family="Times,serif" font-size="14.00">AccessToken</text>
<polyline fill="none" stroke="black" points="579.764,-254 718.236,-254 "/>
<text text-anchor="start" x="587.764" y="-238.8" font-family="Times,serif" font-size="14.00">id :integer</text>
<text text-anchor="start" x="587.764" y="-224.8" font-family="Times,serif" font-size="14.00">token :string</text>
<text text-anchor="start" x="587.764" y="-210.8" font-family="Times,serif" font-size="14.00">is_valid :boolean</text>
<text text-anchor="start" x="587.764" y="-196.8" font-family="Times,serif" font-size="14.00">ownership_id :integer</text>
<text text-anchor="start" x="587.764" y="-182.8" font-family="Times,serif" font-size="14.00">created_at :datetime</text>
<text text-anchor="start" x="587.764" y="-168.8" font-family="Times,serif" font-size="14.00">updated_at :datetime</text>
<text text-anchor="start" x="587.764" y="-154.8" font-family="Times,serif" font-size="14.00">exp_at :date</text>
</g>
<!-- Action -->
<g id="node3" class="node"><title>Action</title>
<path fill="none" stroke="black" d="M89.4946,-631C89.4946,-631 198.505,-631 198.505,-631 204.505,-631 210.505,-637 210.505,-643 210.505,-643 210.505,-705 210.505,-705 210.505,-711 204.505,-717 198.505,-717 198.505,-717 89.4946,-717 89.4946,-717 83.4946,-717 77.4946,-711 77.4946,-705 77.4946,-705 77.4946,-643 77.4946,-643 77.4946,-637 83.4946,-631 89.4946,-631"/>
<text text-anchor="middle" x="144" y="-701.8" font-family="Times,serif" font-size="14.00">Action</text>
<polyline fill="none" stroke="black" points="77.4946,-695 210.505,-695 "/>
<text text-anchor="start" x="85.4946" y="-679.8" font-family="Times,serif" font-size="14.00">id :integer</text>
<text text-anchor="start" x="85.4946" y="-665.8" font-family="Times,serif" font-size="14.00">name :string</text>
<text text-anchor="start" x="85.4946" y="-651.8" font-family="Times,serif" font-size="14.00">created_at :datetime</text>
<text text-anchor="start" x="85.4946" y="-637.8" font-family="Times,serif" font-size="14.00">updated_at :datetime</text>
</g>
<!-- Ownership -->
<g id="node24" class="node"><title>Ownership</title>
<path fill="none" stroke="black" d="M109.212,-323C109.212,-323 254.788,-323 254.788,-323 260.788,-323 266.788,-329 266.788,-335 266.788,-335 266.788,-495 266.788,-495 266.788,-501 260.788,-507 254.788,-507 254.788,-507 109.212,-507 109.212,-507 103.212,-507 97.2119,-501 97.2119,-495 97.2119,-495 97.2119,-335 97.2119,-335 97.2119,-329 103.212,-323 109.212,-323"/>
<text text-anchor="middle" x="182" y="-491.8" font-family="Times,serif" font-size="14.00">Ownership</text>
<polyline fill="none" stroke="black" points="97.2119,-485 266.788,-485 "/>
<text text-anchor="start" x="105.212" y="-469.8" font-family="Times,serif" font-size="14.00">id :integer</text>
<text text-anchor="start" x="105.212" y="-455.8" font-family="Times,serif" font-size="14.00">element_id :integer</text>
<text text-anchor="start" x="105.212" y="-441.8" font-family="Times,serif" font-size="14.00">user_id :integer</text>
<text text-anchor="start" x="105.212" y="-427.8" font-family="Times,serif" font-size="14.00">ownership_type_id :integer</text>
<text text-anchor="start" x="105.212" y="-413.8" font-family="Times,serif" font-size="14.00">right_create :boolean</text>
<text text-anchor="start" x="105.212" y="-399.8" font-family="Times,serif" font-size="14.00">right_read :boolean</text>
<text text-anchor="start" x="105.212" y="-385.8" font-family="Times,serif" font-size="14.00">right_update :boolean</text>
<text text-anchor="start" x="105.212" y="-371.8" font-family="Times,serif" font-size="14.00">right_delete :boolean</text>
<text text-anchor="start" x="105.212" y="-357.8" font-family="Times,serif" font-size="14.00">id_element :integer</text>
<text text-anchor="start" x="105.212" y="-343.8" font-family="Times,serif" font-size="14.00">created_at :datetime</text>
<text text-anchor="start" x="105.212" y="-329.8" font-family="Times,serif" font-size="14.00">updated_at :datetime</text>
</g>
<!-- Action&#45;&gt;Ownership -->
<g id="edge3" class="edge"><title>Action&#45;&gt;Ownership</title>
<path fill="none" stroke="#f3b4fa" d="M151.741,-620.648C156.145,-590.865 161.811,-552.543 167.047,-517.13"/>
<polygon fill="#f3b4fa" stroke="#f3b4fa" points="151.695,-620.957 145.781,-630.191 150.964,-625.903 150.232,-630.849 150.232,-630.849 150.232,-630.849 150.964,-625.903 154.684,-631.508 151.695,-620.957 151.695,-620.957"/>
<polygon fill="#f3b4fa" stroke="#f3b4fa" points="167.048,-517.121 172.963,-507.887 167.78,-512.174 168.511,-507.228 168.511,-507.228 168.511,-507.228 167.78,-512.174 164.059,-506.57 167.048,-517.121 167.048,-517.121"/>
</g>
<!-- OwnershipAction -->
<g id="node25" class="node"><title>OwnershipAction</title>
<path fill="none" stroke="black" d="M11.7637,-162C11.7637,-162 126.236,-162 126.236,-162 132.236,-162 138.236,-168 138.236,-174 138.236,-174 138.236,-250 138.236,-250 138.236,-256 132.236,-262 126.236,-262 126.236,-262 11.7637,-262 11.7637,-262 5.76367,-262 -0.236328,-256 -0.236328,-250 -0.236328,-250 -0.236328,-174 -0.236328,-174 -0.236328,-168 5.76367,-162 11.7637,-162"/>
<text text-anchor="middle" x="69" y="-246.8" font-family="Times,serif" font-size="14.00">OwnershipAction</text>
<polyline fill="none" stroke="black" points="-0.236328,-240 138.236,-240 "/>
<text text-anchor="start" x="7.76367" y="-224.8" font-family="Times,serif" font-size="14.00">id :integer</text>
<text text-anchor="start" x="7.76367" y="-210.8" font-family="Times,serif" font-size="14.00">action_id :integer</text>
<text text-anchor="start" x="7.76367" y="-196.8" font-family="Times,serif" font-size="14.00">ownership_id :integer</text>
<text text-anchor="start" x="7.76367" y="-182.8" font-family="Times,serif" font-size="14.00">created_at :datetime</text>
<text text-anchor="start" x="7.76367" y="-168.8" font-family="Times,serif" font-size="14.00">updated_at :datetime</text>
</g>
<!-- Action&#45;&gt;OwnershipAction -->
<g id="edge2" class="edge"><title>Action&#45;&gt;OwnershipAction</title>
<path fill="none" stroke="#c5a77d" d="M123.277,-623.225C110.808,-590.96 95.8714,-547.695 88,-508 72.0051,-427.338 68.5893,-332.082 68.2722,-272.1"/>
<ellipse fill="none" stroke="#c5a77d" cx="124.767" cy="-627.04" rx="4.00001" ry="4.00001"/>
<polygon fill="#c5a77d" stroke="#c5a77d" points="68.2722,-272.054 72.7464,-262.043 68.2593,-267.054 68.2464,-262.054 68.2464,-262.054 68.2464,-262.054 68.2593,-267.054 63.7464,-262.066 68.2722,-272.054 68.2722,-272.054"/>
</g>
<!-- Activity -->
<g id="node4" class="node"><title>Activity</title>
<path fill="none" stroke="black" d="M297.16,-344C297.16,-344 410.84,-344 410.84,-344 416.84,-344 422.84,-350 422.84,-356 422.84,-356 422.84,-474 422.84,-474 422.84,-480 416.84,-486 410.84,-486 410.84,-486 297.16,-486 297.16,-486 291.16,-486 285.16,-480 285.16,-474 285.16,-474 285.16,-356 285.16,-356 285.16,-350 291.16,-344 297.16,-344"/>
<text text-anchor="middle" x="354" y="-470.8" font-family="Times,serif" font-size="14.00">Activity</text>
<polyline fill="none" stroke="black" points="285.16,-464 422.84,-464 "/>
<text text-anchor="start" x="293.16" y="-448.8" font-family="Times,serif" font-size="14.00">id :integer</text>
<text text-anchor="start" x="293.16" y="-434.8" font-family="Times,serif" font-size="14.00">user_id :integer</text>
<text text-anchor="start" x="293.16" y="-420.8" font-family="Times,serif" font-size="14.00">action :string</text>
<text text-anchor="start" x="293.16" y="-406.8" font-family="Times,serif" font-size="14.00">trackable_id :integer</text>
<text text-anchor="start" x="293.16" y="-392.8" font-family="Times,serif" font-size="14.00">trackable_type :string</text>
<text text-anchor="start" x="293.16" y="-378.8" font-family="Times,serif" font-size="14.00">created_at :datetime</text>
<text text-anchor="start" x="293.16" y="-364.8" font-family="Times,serif" font-size="14.00">updated_at :datetime</text>
<text text-anchor="start" x="293.16" y="-350.8" font-family="Times,serif" font-size="14.00">controller :string</text>
</g>
<!-- Affiliation -->
<g id="node5" class="node"><title>Affiliation</title>
<path fill="none" stroke="black" d="M719.495,-1370C719.495,-1370 828.505,-1370 828.505,-1370 834.505,-1370 840.505,-1376 840.505,-1382 840.505,-1382 840.505,-1444 840.505,-1444 840.505,-1450 834.505,-1456 828.505,-1456 828.505,-1456 719.495,-1456 719.495,-1456 713.495,-1456 707.495,-1450 707.495,-1444 707.495,-1444 707.495,-1382 707.495,-1382 707.495,-1376 713.495,-1370 719.495,-1370"/>
<text text-anchor="middle" x="774" y="-1440.8" font-family="Times,serif" font-size="14.00">Affiliation</text>
<polyline fill="none" stroke="black" points="707.495,-1434 840.505,-1434 "/>
<text text-anchor="start" x="715.495" y="-1418.8" font-family="Times,serif" font-size="14.00">id :integer</text>
<text text-anchor="start" x="715.495" y="-1404.8" font-family="Times,serif" font-size="14.00">name :string</text>
<text text-anchor="start" x="715.495" y="-1390.8" font-family="Times,serif" font-size="14.00">created_at :datetime</text>
<text text-anchor="start" x="715.495" y="-1376.8" font-family="Times,serif" font-size="14.00">updated_at :datetime</text>
</g>
<!-- Card -->
<g id="node9" class="node"><title>Card</title>
<path fill="none" stroke="black" d="M1035.7,-927C1035.7,-927 1160.3,-927 1160.3,-927 1166.3,-927 1172.3,-933 1172.3,-939 1172.3,-939 1172.3,-1225 1172.3,-1225 1172.3,-1231 1166.3,-1237 1160.3,-1237 1160.3,-1237 1035.7,-1237 1035.7,-1237 1029.7,-1237 1023.7,-1231 1023.7,-1225 1023.7,-1225 1023.7,-939 1023.7,-939 1023.7,-933 1029.7,-927 1035.7,-927"/>
<text text-anchor="middle" x="1098" y="-1221.8" font-family="Times,serif" font-size="14.00">Card</text>
<polyline fill="none" stroke="black" points="1023.7,-1215 1172.3,-1215 "/>
<text text-anchor="start" x="1031.7" y="-1199.8" font-family="Times,serif" font-size="14.00">id :integer</text>
<text text-anchor="start" x="1031.7" y="-1185.8" font-family="Times,serif" font-size="14.00">card_type_id :integer</text>
<text text-anchor="start" x="1031.7" y="-1171.8" font-family="Times,serif" font-size="14.00">name :string</text>
<text text-anchor="start" x="1031.7" y="-1157.8" font-family="Times,serif" font-size="14.00">email :string</text>
<text text-anchor="start" x="1031.7" y="-1143.8" font-family="Times,serif" font-size="14.00">street :string</text>
<text text-anchor="start" x="1031.7" y="-1129.8" font-family="Times,serif" font-size="14.00">place :string</text>
<text text-anchor="start" x="1031.7" y="-1115.8" font-family="Times,serif" font-size="14.00">website :string</text>
<text text-anchor="start" x="1031.7" y="-1101.8" font-family="Times,serif" font-size="14.00">password_digest :string</text>
<text text-anchor="start" x="1031.7" y="-1087.8" font-family="Times,serif" font-size="14.00">description :text</text>
<text text-anchor="start" x="1031.7" y="-1073.8" font-family="Times,serif" font-size="14.00">affiliation :text</text>
<text text-anchor="start" x="1031.7" y="-1059.8" font-family="Times,serif" font-size="14.00">validated :boolean</text>
<text text-anchor="start" x="1031.7" y="-1045.8" font-family="Times,serif" font-size="14.00">created_at :datetime</text>
<text text-anchor="start" x="1031.7" y="-1031.8" font-family="Times,serif" font-size="14.00">updated_at :datetime</text>
<text text-anchor="start" x="1031.7" y="-1017.8" font-family="Times,serif" font-size="14.00">latitude :float</text>
<text text-anchor="start" x="1031.7" y="-1003.8" font-family="Times,serif" font-size="14.00">longitude :float</text>
<text text-anchor="start" x="1031.7" y="-989.8" font-family="Times,serif" font-size="14.00">avatar :string</text>
<text text-anchor="start" x="1031.7" y="-975.8" font-family="Times,serif" font-size="14.00">banner :string</text>
<text text-anchor="start" x="1031.7" y="-961.8" font-family="Times,serif" font-size="14.00">location_id :integer</text>
<text text-anchor="start" x="1031.7" y="-947.8" font-family="Times,serif" font-size="14.00">user_id :integer</text>
<text text-anchor="start" x="1031.7" y="-933.8" font-family="Times,serif" font-size="14.00">visible :boolean</text>
</g>
<!-- Affiliation&#45;&gt;Card -->
<g id="edge7" class="edge"><title>Affiliation&#45;&gt;Card</title>
<path fill="none" stroke="#1a4d52" d="M850.624,-1408.14C902.104,-1401.62 968.123,-1385.1 1011,-1344 1038.38,-1317.76 1057.14,-1282.68 1070,-1246.78"/>
<polygon fill="#1a4d52" stroke="#1a4d52" points="850.466,-1408.16 840.013,-1404.84 845.499,-1408.73 840.533,-1409.31 840.533,-1409.31 840.533,-1409.31 845.499,-1408.73 841.053,-1413.78 850.466,-1408.16 850.466,-1408.16"/>
<polygon fill="#1a4d52" stroke="#1a4d52" points="1070.07,-1246.6 1077.57,-1238.6 1071.69,-1241.87 1073.31,-1237.14 1073.31,-1237.14 1073.31,-1237.14 1071.69,-1241.87 1069.06,-1235.68 1070.07,-1246.6 1070.07,-1246.6"/>
</g>
<!-- CardAffiliation -->
<g id="node10" class="node"><title>CardAffiliation</title>
<path fill="none" stroke="black" d="M631.708,-624C631.708,-624 742.292,-624 742.292,-624 748.292,-624 754.292,-630 754.292,-636 754.292,-636 754.292,-712 754.292,-712 754.292,-718 748.292,-724 742.292,-724 742.292,-724 631.708,-724 631.708,-724 625.708,-724 619.708,-718 619.708,-712 619.708,-712 619.708,-636 619.708,-636 619.708,-630 625.708,-624 631.708,-624"/>
<text text-anchor="middle" x="687" y="-708.8" font-family="Times,serif" font-size="14.00">CardAffiliation</text>
<polyline fill="none" stroke="black" points="619.708,-702 754.292,-702 "/>
<text text-anchor="start" x="627.708" y="-686.8" font-family="Times,serif" font-size="14.00">id :integer</text>
<text text-anchor="start" x="627.708" y="-672.8" font-family="Times,serif" font-size="14.00">card_id :integer</text>
<text text-anchor="start" x="627.708" y="-658.8" font-family="Times,serif" font-size="14.00">affiliation_id :integer</text>
<text text-anchor="start" x="627.708" y="-644.8" font-family="Times,serif" font-size="14.00">created_at :datetime</text>
<text text-anchor="start" x="627.708" y="-630.8" font-family="Times,serif" font-size="14.00">updated_at :datetime</text>
</g>
<!-- Affiliation&#45;&gt;CardAffiliation -->
<g id="edge6" class="edge"><title>Affiliation&#45;&gt;CardAffiliation</title>
<path fill="none" stroke="#2a4170" d="M768.079,-1361.84C752.553,-1230.32 710.718,-875.918 694.021,-734.478"/>
<ellipse fill="none" stroke="#2a4170" cx="768.573" cy="-1366.02" rx="4.00001" ry="4.00001"/>
<polygon fill="#2a4170" stroke="#2a4170" points="693.988,-734.197 697.285,-723.739 693.402,-729.232 692.816,-724.266 692.816,-724.266 692.816,-724.266 693.402,-729.232 688.347,-724.794 693.988,-734.197 693.988,-734.197"/>
</g>
<!-- Article -->
<g id="node6" class="node"><title>Article</title>
<path fill="none" stroke="black" d="M1263.49,-344C1263.49,-344 1372.51,-344 1372.51,-344 1378.51,-344 1384.51,-350 1384.51,-356 1384.51,-356 1384.51,-474 1384.51,-474 1384.51,-480 1378.51,-486 1372.51,-486 1372.51,-486 1263.49,-486 1263.49,-486 1257.49,-486 1251.49,-480 1251.49,-474 1251.49,-474 1251.49,-356 1251.49,-356 1251.49,-350 1257.49,-344 1263.49,-344"/>
<text text-anchor="middle" x="1318" y="-470.8" font-family="Times,serif" font-size="14.00">Article</text>
<polyline fill="none" stroke="black" points="1251.49,-464 1384.51,-464 "/>
<text text-anchor="start" x="1259.49" y="-448.8" font-family="Times,serif" font-size="14.00">id :integer</text>
<text text-anchor="start" x="1259.49" y="-434.8" font-family="Times,serif" font-size="14.00">title :string</text>
<text text-anchor="start" x="1259.49" y="-420.8" font-family="Times,serif" font-size="14.00">content :text</text>
<text text-anchor="start" x="1259.49" y="-406.8" font-family="Times,serif" font-size="14.00">user_id :integer</text>
<text text-anchor="start" x="1259.49" y="-392.8" font-family="Times,serif" font-size="14.00">image :string</text>
<text text-anchor="start" x="1259.49" y="-378.8" font-family="Times,serif" font-size="14.00">likes :integer</text>
<text text-anchor="start" x="1259.49" y="-364.8" font-family="Times,serif" font-size="14.00">created_at :datetime</text>
<text text-anchor="start" x="1259.49" y="-350.8" font-family="Times,serif" font-size="14.00">updated_at :datetime</text>
</g>
<!-- ArticleTheme -->
<g id="node7" class="node"><title>ArticleTheme</title>
<path fill="none" stroke="black" d="M1509.49,-1C1509.49,-1 1618.51,-1 1618.51,-1 1624.51,-1 1630.51,-7 1630.51,-13 1630.51,-13 1630.51,-89 1630.51,-89 1630.51,-95 1624.51,-101 1618.51,-101 1618.51,-101 1509.49,-101 1509.49,-101 1503.49,-101 1497.49,-95 1497.49,-89 1497.49,-89 1497.49,-13 1497.49,-13 1497.49,-7 1503.49,-1 1509.49,-1"/>
<text text-anchor="middle" x="1564" y="-85.8" font-family="Times,serif" font-size="14.00">ArticleTheme</text>
<polyline fill="none" stroke="black" points="1497.49,-79 1630.51,-79 "/>
<text text-anchor="start" x="1505.49" y="-63.8" font-family="Times,serif" font-size="14.00">id :integer</text>
<text text-anchor="start" x="1505.49" y="-49.8" font-family="Times,serif" font-size="14.00">article_id :integer</text>
<text text-anchor="start" x="1505.49" y="-35.8" font-family="Times,serif" font-size="14.00">theme_id :integer</text>
<text text-anchor="start" x="1505.49" y="-21.8" font-family="Times,serif" font-size="14.00">created_at :datetime</text>
<text text-anchor="start" x="1505.49" y="-7.8" font-family="Times,serif" font-size="14.00">updated_at :datetime</text>
</g>
<!-- Article&#45;&gt;ArticleTheme -->
<g id="edge9" class="edge"><title>Article&#45;&gt;ArticleTheme</title>
<path fill="none" stroke="#2939bc" d="M1370.34,-336.978C1416.61,-268.884 1483.08,-171.079 1524.87,-109.577"/>
<ellipse fill="none" stroke="#2939bc" cx="1367.97" cy="-340.465" rx="4.00002" ry="4.00002"/>
<polygon fill="#2939bc" stroke="#2939bc" points="1524.98,-109.418 1534.32,-103.676 1527.79,-105.282 1530.6,-101.147 1530.6,-101.147 1530.6,-101.147 1527.79,-105.282 1526.88,-98.6175 1524.98,-109.418 1524.98,-109.418"/>
</g>
<!-- Theme -->
<g id="node35" class="node"><title>Theme</title>
<path fill="none" stroke="black" d="M1693.49,-162C1693.49,-162 1802.51,-162 1802.51,-162 1808.51,-162 1814.51,-168 1814.51,-174 1814.51,-174 1814.51,-250 1814.51,-250 1814.51,-256 1808.51,-262 1802.51,-262 1802.51,-262 1693.49,-262 1693.49,-262 1687.49,-262 1681.49,-256 1681.49,-250 1681.49,-250 1681.49,-174 1681.49,-174 1681.49,-168 1687.49,-162 1693.49,-162"/>
<text text-anchor="middle" x="1748" y="-246.8" font-family="Times,serif" font-size="14.00">Theme</text>
<polyline fill="none" stroke="black" points="1681.49,-240 1814.51,-240 "/>
<text text-anchor="start" x="1689.49" y="-224.8" font-family="Times,serif" font-size="14.00">id :integer</text>
<text text-anchor="start" x="1689.49" y="-210.8" font-family="Times,serif" font-size="14.00">name :string</text>
<text text-anchor="start" x="1689.49" y="-196.8" font-family="Times,serif" font-size="14.00">description :text</text>
<text text-anchor="start" x="1689.49" y="-182.8" font-family="Times,serif" font-size="14.00">created_at :datetime</text>
<text text-anchor="start" x="1689.49" y="-168.8" font-family="Times,serif" font-size="14.00">updated_at :datetime</text>
</g>
<!-- Article&#45;&gt;Theme -->
<g id="edge10" class="edge"><title>Article&#45;&gt;Theme</title>
<path fill="none" stroke="#7b7f63" d="M1374.74,-336.672C1380.52,-331.277 1386.63,-326.288 1393,-322 1416.46,-306.209 1574.55,-260.854 1671.69,-233.883"/>
<polygon fill="#7b7f63" stroke="#7b7f63" points="1374.72,-336.688 1364.44,-340.492 1371.16,-340.194 1367.59,-343.7 1367.59,-343.7 1367.59,-343.7 1371.16,-340.194 1370.75,-346.909 1374.72,-336.688 1374.72,-336.688"/>
<polygon fill="#7b7f63" stroke="#7b7f63" points="1671.83,-233.842 1682.67,-235.507 1676.65,-232.506 1681.47,-231.171 1681.47,-231.171 1681.47,-231.171 1676.65,-232.506 1680.27,-226.834 1671.83,-233.842 1671.83,-233.842"/>
</g>
<!-- Canton -->
<g id="node8" class="node"><title>Canton</title>
<path fill="none" stroke="black" d="M2300.49,-1363C2300.49,-1363 2409.51,-1363 2409.51,-1363 2415.51,-1363 2421.51,-1369 2421.51,-1375 2421.51,-1375 2421.51,-1451 2421.51,-1451 2421.51,-1457 2415.51,-1463 2409.51,-1463 2409.51,-1463 2300.49,-1463 2300.49,-1463 2294.49,-1463 2288.49,-1457 2288.49,-1451 2288.49,-1451 2288.49,-1375 2288.49,-1375 2288.49,-1369 2294.49,-1363 2300.49,-1363"/>
<text text-anchor="middle" x="2355" y="-1447.8" font-family="Times,serif" font-size="14.00">Canton</text>
<polyline fill="none" stroke="black" points="2288.49,-1441 2421.51,-1441 "/>
<text text-anchor="start" x="2296.49" y="-1425.8" font-family="Times,serif" font-size="14.00">id :integer</text>
<text text-anchor="start" x="2296.49" y="-1411.8" font-family="Times,serif" font-size="14.00">name :string</text>
<text text-anchor="start" x="2296.49" y="-1397.8" font-family="Times,serif" font-size="14.00">abbreviation :string</text>
<text text-anchor="start" x="2296.49" y="-1383.8" font-family="Times,serif" font-size="14.00">created_at :datetime</text>
<text text-anchor="start" x="2296.49" y="-1369.8" font-family="Times,serif" font-size="14.00">updated_at :datetime</text>
</g>
<!-- Location -->
<g id="node20" class="node"><title>Location</title>
<path fill="none" stroke="black" d="M2348.49,-1004C2348.49,-1004 2457.51,-1004 2457.51,-1004 2463.51,-1004 2469.51,-1010 2469.51,-1016 2469.51,-1016 2469.51,-1148 2469.51,-1148 2469.51,-1154 2463.51,-1160 2457.51,-1160 2457.51,-1160 2348.49,-1160 2348.49,-1160 2342.49,-1160 2336.49,-1154 2336.49,-1148 2336.49,-1148 2336.49,-1016 2336.49,-1016 2336.49,-1010 2342.49,-1004 2348.49,-1004"/>
<text text-anchor="middle" x="2403" y="-1144.8" font-family="Times,serif" font-size="14.00">Location</text>
<polyline fill="none" stroke="black" points="2336.49,-1138 2469.51,-1138 "/>
<text text-anchor="start" x="2344.49" y="-1122.8" font-family="Times,serif" font-size="14.00">id :integer</text>
<text text-anchor="start" x="2344.49" y="-1108.8" font-family="Times,serif" font-size="14.00">npa :integer</text>
<text text-anchor="start" x="2344.49" y="-1094.8" font-family="Times,serif" font-size="14.00">official_name :string</text>
<text text-anchor="start" x="2344.49" y="-1080.8" font-family="Times,serif" font-size="14.00">post_name :string</text>
<text text-anchor="start" x="2344.49" y="-1066.8" font-family="Times,serif" font-size="14.00">canton_id :integer</text>
<text text-anchor="start" x="2344.49" y="-1052.8" font-family="Times,serif" font-size="14.00">created_at :datetime</text>
<text text-anchor="start" x="2344.49" y="-1038.8" font-family="Times,serif" font-size="14.00">updated_at :datetime</text>
<text text-anchor="start" x="2344.49" y="-1024.8" font-family="Times,serif" font-size="14.00">latitude :float</text>
<text text-anchor="start" x="2344.49" y="-1010.8" font-family="Times,serif" font-size="14.00">longitude :float</text>
</g>
<!-- Canton&#45;&gt;Location -->
<g id="edge13" class="edge"><title>Canton&#45;&gt;Location</title>
<path fill="none" stroke="#365728" d="M2363.36,-1354.67C2370.8,-1303.71 2381.78,-1228.48 2390.29,-1170.09"/>
<ellipse fill="none" stroke="#365728" cx="2362.76" cy="-1358.79" rx="4.00001" ry="4.00001"/>
<polygon fill="#365728" stroke="#365728" points="2390.3,-1170.03 2396.2,-1160.78 2391.02,-1165.08 2391.75,-1160.13 2391.75,-1160.13 2391.75,-1160.13 2391.02,-1165.08 2387.29,-1159.48 2390.3,-1170.03 2390.3,-1170.03"/>
</g>
<!-- Card&#45;&gt;Card -->
<g id="edge25" class="edge"><title>Card&#45;&gt;Card</title>
<path fill="none" stroke="#c559bc" d="M1181.87,-1096.17C1186.95,-1092.8 1190,-1088.08 1190,-1082 1190,-1075.92 1186.95,-1071.2 1181.87,-1067.83"/>
<polygon fill="#c559bc" stroke="#c559bc" points="1181.52,-1096.32 1170.55,-1096.22 1176.94,-1098.33 1172.36,-1100.34 1172.36,-1100.34 1172.36,-1100.34 1176.94,-1098.33 1174.17,-1104.46 1181.52,-1096.32 1181.52,-1096.32"/>
<polygon fill="#c559bc" stroke="#c559bc" points="1181.52,-1067.68 1174.17,-1059.54 1176.94,-1065.67 1172.36,-1063.66 1172.36,-1063.66 1172.36,-1063.66 1176.94,-1065.67 1170.55,-1067.78 1181.52,-1067.68 1181.52,-1067.68"/>
</g>
<!-- Card&#45;&gt;Card -->
<g id="edge26" class="edge"><title>Card&#45;&gt;Card</title>
<path fill="none" stroke="#de5324" d="M1182.45,-1120.46C1197.5,-1115.45 1208,-1102.63 1208,-1082 1208,-1061.37 1197.5,-1048.55 1182.45,-1043.54"/>
<polygon fill="#de5324" stroke="#de5324" points="1182.33,-1120.49 1171.61,-1118.17 1177.44,-1121.53 1172.55,-1122.57 1172.55,-1122.57 1172.55,-1122.57 1177.44,-1121.53 1173.49,-1126.97 1182.33,-1120.49 1182.33,-1120.49"/>
<polygon fill="#de5324" stroke="#de5324" points="1182.33,-1043.51 1173.49,-1037.03 1177.44,-1042.47 1172.55,-1041.43 1172.55,-1041.43 1172.55,-1041.43 1177.44,-1042.47 1171.61,-1045.83 1182.33,-1043.51 1182.33,-1043.51"/>
<text text-anchor="middle" x="1228.21" y="-1077.8" font-family="Times,serif" font-size="14.00">parents</text>
</g>
<!-- Card&#45;&gt;CardAffiliation -->
<g id="edge19" class="edge"><title>Card&#45;&gt;CardAffiliation</title>
<path fill="none" stroke="#490674" d="M1016.63,-1025.38C944.329,-973.309 838.68,-890.44 763,-802 745.228,-781.232 729.103,-755.794 716.325,-733.153"/>
<ellipse fill="none" stroke="#490674" cx="1020.27" cy="-1027.99" rx="4.00002" ry="4.00002"/>
<polygon fill="#490674" stroke="#490674" points="716.266,-733.048 715.352,-722.12 713.841,-728.675 711.417,-724.303 711.417,-724.303 711.417,-724.303 713.841,-728.675 707.481,-726.485 716.266,-733.048 716.266,-733.048"/>
</g>
<!-- CardParent -->
<g id="node11" class="node"><title>CardParent</title>
<path fill="none" stroke="black" d="M1198.49,-624C1198.49,-624 1307.51,-624 1307.51,-624 1313.51,-624 1319.51,-630 1319.51,-636 1319.51,-636 1319.51,-712 1319.51,-712 1319.51,-718 1313.51,-724 1307.51,-724 1307.51,-724 1198.49,-724 1198.49,-724 1192.49,-724 1186.49,-718 1186.49,-712 1186.49,-712 1186.49,-636 1186.49,-636 1186.49,-630 1192.49,-624 1198.49,-624"/>
<text text-anchor="middle" x="1253" y="-708.8" font-family="Times,serif" font-size="14.00">CardParent</text>
<polyline fill="none" stroke="black" points="1186.49,-702 1319.51,-702 "/>
<text text-anchor="start" x="1194.49" y="-686.8" font-family="Times,serif" font-size="14.00">id :integer</text>
<text text-anchor="start" x="1194.49" y="-672.8" font-family="Times,serif" font-size="14.00">card_id :integer</text>
<text text-anchor="start" x="1194.49" y="-658.8" font-family="Times,serif" font-size="14.00">parent_id :integer</text>
<text text-anchor="start" x="1194.49" y="-644.8" font-family="Times,serif" font-size="14.00">created_at :datetime</text>
<text text-anchor="start" x="1194.49" y="-630.8" font-family="Times,serif" font-size="14.00">updated_at :datetime</text>
</g>
<!-- Card&#45;&gt;CardParent -->
<g id="edge24" class="edge"><title>Card&#45;&gt;CardParent</title>
<path fill="none" stroke="#bc460a" d="M1167.72,-918.951C1169.17,-915.272 1170.6,-911.618 1172,-908 1194.74,-849.276 1218.08,-781.142 1233.83,-733.782"/>
<ellipse fill="none" stroke="#bc460a" cx="1166.18" cy="-922.819" rx="4.00001" ry="4.00001"/>
<polygon fill="#bc460a" stroke="#bc460a" points="1233.92,-733.494 1241.34,-725.418 1235.5,-728.748 1237.07,-724.002 1237.07,-724.002 1237.07,-724.002 1235.5,-728.748 1232.8,-722.586 1233.92,-733.494 1233.92,-733.494"/>
</g>
<!-- CardResponsable -->
<g id="node12" class="node"><title>CardResponsable</title>
<path fill="none" stroke="black" d="M1755.88,-365C1755.88,-365 1878.12,-365 1878.12,-365 1884.12,-365 1890.12,-371 1890.12,-377 1890.12,-377 1890.12,-453 1890.12,-453 1890.12,-459 1884.12,-465 1878.12,-465 1878.12,-465 1755.88,-465 1755.88,-465 1749.88,-465 1743.88,-459 1743.88,-453 1743.88,-453 1743.88,-377 1743.88,-377 1743.88,-371 1749.88,-365 1755.88,-365"/>
<text text-anchor="middle" x="1817" y="-449.8" font-family="Times,serif" font-size="14.00">CardResponsable</text>
<polyline fill="none" stroke="black" points="1743.88,-443 1890.12,-443 "/>
<text text-anchor="start" x="1751.88" y="-427.8" font-family="Times,serif" font-size="14.00">id :integer</text>
<text text-anchor="start" x="1751.88" y="-413.8" font-family="Times,serif" font-size="14.00">card_id :integer</text>
<text text-anchor="start" x="1751.88" y="-399.8" font-family="Times,serif" font-size="14.00">responsable_id :integer</text>
<text text-anchor="start" x="1751.88" y="-385.8" font-family="Times,serif" font-size="14.00">created_at :datetime</text>
<text text-anchor="start" x="1751.88" y="-371.8" font-family="Times,serif" font-size="14.00">updated_at :datetime</text>
</g>
<!-- Card&#45;&gt;CardResponsable -->
<g id="edge15" class="edge"><title>Card&#45;&gt;CardResponsable</title>
<path fill="none" stroke="#47518a" d="M1125.73,-918.801C1132,-880.538 1138.44,-839.863 1144,-802 1152.33,-745.249 1135.24,-585.323 1177,-546 1267.32,-460.947 1622.42,-562.238 1734,-508 1750.65,-499.906 1765.49,-486.857 1777.85,-473.099"/>
<ellipse fill="none" stroke="#47518a" cx="1125.05" cy="-922.98" rx="4.00001" ry="4.00001"/>
<polygon fill="#47518a" stroke="#47518a" points="1777.94,-472.994 1787.87,-468.342 1781.19,-469.201 1784.45,-465.409 1784.45,-465.409 1784.45,-465.409 1781.19,-469.201 1781.04,-462.476 1777.94,-472.994 1777.94,-472.994"/>
</g>
<!-- CardUser -->
<g id="node14" class="node"><title>CardUser</title>
<path fill="none" stroke="black" d="M905.946,-351C905.946,-351 1032.05,-351 1032.05,-351 1038.05,-351 1044.05,-357 1044.05,-363 1044.05,-363 1044.05,-467 1044.05,-467 1044.05,-473 1038.05,-479 1032.05,-479 1032.05,-479 905.946,-479 905.946,-479 899.946,-479 893.946,-473 893.946,-467 893.946,-467 893.946,-363 893.946,-363 893.946,-357 899.946,-351 905.946,-351"/>
<text text-anchor="middle" x="969" y="-463.8" font-family="Times,serif" font-size="14.00">CardUser</text>
<polyline fill="none" stroke="black" points="893.946,-457 1044.05,-457 "/>
<text text-anchor="start" x="901.946" y="-441.8" font-family="Times,serif" font-size="14.00">id :integer</text>
<text text-anchor="start" x="901.946" y="-427.8" font-family="Times,serif" font-size="14.00">card_id :integer</text>
<text text-anchor="start" x="901.946" y="-413.8" font-family="Times,serif" font-size="14.00">user_id :integer</text>
<text text-anchor="start" x="901.946" y="-399.8" font-family="Times,serif" font-size="14.00">user_validated :boolean</text>
<text text-anchor="start" x="901.946" y="-385.8" font-family="Times,serif" font-size="14.00">card_validated :boolean</text>
<text text-anchor="start" x="901.946" y="-371.8" font-family="Times,serif" font-size="14.00">created_at :datetime</text>
<text text-anchor="start" x="901.946" y="-357.8" font-family="Times,serif" font-size="14.00">updated_at :datetime</text>
</g>
<!-- Card&#45;&gt;CardUser -->
<g id="edge23" class="edge"><title>Card&#45;&gt;CardUser</title>
<path fill="none" stroke="#7c38ea" d="M1105.15,-918.932C1105.28,-810.888 1096.44,-667.03 1058,-546 1051.56,-525.725 1040.82,-505.771 1028.99,-487.814"/>
<ellipse fill="none" stroke="#7c38ea" cx="1105.13" cy="-922.976" rx="4" ry="4"/>
<polygon fill="#7c38ea" stroke="#7c38ea" points="1028.73,-487.435 1026.82,-476.635 1025.91,-483.301 1023.1,-479.167 1023.1,-479.167 1023.1,-479.167 1025.91,-483.301 1019.38,-481.698 1028.73,-487.435 1028.73,-487.435"/>
</g>
<!-- CardVerification -->
<g id="node15" class="node"><title>CardVerification</title>
<path fill="none" stroke="black" d="M603.495,-365C603.495,-365 712.505,-365 712.505,-365 718.505,-365 724.505,-371 724.505,-377 724.505,-377 724.505,-453 724.505,-453 724.505,-459 718.505,-465 712.505,-465 712.505,-465 603.495,-465 603.495,-465 597.495,-465 591.495,-459 591.495,-453 591.495,-453 591.495,-377 591.495,-377 591.495,-371 597.495,-365 603.495,-365"/>
<text text-anchor="middle" x="658" y="-449.8" font-family="Times,serif" font-size="14.00">CardVerification</text>
<polyline fill="none" stroke="black" points="591.495,-443 724.505,-443 "/>
<text text-anchor="start" x="599.495" y="-427.8" font-family="Times,serif" font-size="14.00">id :integer</text>
<text text-anchor="start" x="599.495" y="-413.8" font-family="Times,serif" font-size="14.00">card_id :integer</text>
<text text-anchor="start" x="599.495" y="-399.8" font-family="Times,serif" font-size="14.00">user_id :integer</text>
<text text-anchor="start" x="599.495" y="-385.8" font-family="Times,serif" font-size="14.00">created_at :datetime</text>
<text text-anchor="start" x="599.495" y="-371.8" font-family="Times,serif" font-size="14.00">updated_at :datetime</text>
</g>
<!-- Card&#45;&gt;CardVerification -->
<g id="edge17" class="edge"><title>Card&#45;&gt;CardVerification</title>
<path fill="none" stroke="#20a456" d="M1052.56,-918.666C1041.86,-880.409 1030.52,-839.77 1020,-802 988.327,-688.255 1036.42,-625.37 949,-546 876.834,-480.476 817.077,-557.318 733,-508 718.141,-499.284 704.99,-486.451 694.014,-473.118"/>
<ellipse fill="none" stroke="#20a456" cx="1053.75" cy="-922.939" rx="4.00001" ry="4.00001"/>
<polygon fill="#20a456" stroke="#20a456" points="693.995,-473.094 691.342,-462.453 690.901,-469.166 687.807,-465.238 687.807,-465.238 687.807,-465.238 690.901,-469.166 684.272,-468.022 693.995,-473.094 693.995,-473.094"/>
</g>
<!-- Responsable -->
<g id="node30" class="node"><title>Responsable</title>
<path fill="none" stroke="black" d="M1578.49,-617C1578.49,-617 1687.51,-617 1687.51,-617 1693.51,-617 1699.51,-623 1699.51,-629 1699.51,-629 1699.51,-719 1699.51,-719 1699.51,-725 1693.51,-731 1687.51,-731 1687.51,-731 1578.49,-731 1578.49,-731 1572.49,-731 1566.49,-725 1566.49,-719 1566.49,-719 1566.49,-629 1566.49,-629 1566.49,-623 1572.49,-617 1578.49,-617"/>
<text text-anchor="middle" x="1633" y="-715.8" font-family="Times,serif" font-size="14.00">Responsable</text>
<polyline fill="none" stroke="black" points="1566.49,-709 1699.51,-709 "/>
<text text-anchor="start" x="1574.49" y="-693.8" font-family="Times,serif" font-size="14.00">id :integer</text>
<text text-anchor="start" x="1574.49" y="-679.8" font-family="Times,serif" font-size="14.00">firstname :string</text>
<text text-anchor="start" x="1574.49" y="-665.8" font-family="Times,serif" font-size="14.00">lastname :string</text>
<text text-anchor="start" x="1574.49" y="-651.8" font-family="Times,serif" font-size="14.00">email :string</text>
<text text-anchor="start" x="1574.49" y="-637.8" font-family="Times,serif" font-size="14.00">created_at :datetime</text>
<text text-anchor="start" x="1574.49" y="-623.8" font-family="Times,serif" font-size="14.00">updated_at :datetime</text>
</g>
<!-- Card&#45;&gt;Responsable -->
<g id="edge16" class="edge"><title>Card&#45;&gt;Responsable</title>
<path fill="none" stroke="#f2f767" d="M1181.35,-1034.05C1269.31,-982.636 1409.91,-895.025 1518,-802 1539.99,-783.077 1561.91,-760.141 1580.63,-738.995"/>
<polygon fill="#f2f767" stroke="#f2f767" points="1181.12,-1034.19 1170.21,-1035.33 1176.8,-1036.7 1172.48,-1039.22 1172.48,-1039.22 1172.48,-1039.22 1176.8,-1036.7 1174.74,-1043.11 1181.12,-1034.19 1181.12,-1034.19"/>
<polygon fill="#f2f767" stroke="#f2f767" points="1580.78,-738.818 1590.76,-734.262 1584.08,-735.057 1587.37,-731.297 1587.37,-731.297 1587.37,-731.297 1584.08,-735.057 1583.99,-728.331 1580.78,-738.818 1580.78,-738.818"/>
</g>
<!-- Tag -->
<g id="node33" class="node"><title>Tag</title>
<path fill="none" stroke="black" d="M1388.49,-624C1388.49,-624 1497.51,-624 1497.51,-624 1503.51,-624 1509.51,-630 1509.51,-636 1509.51,-636 1509.51,-712 1509.51,-712 1509.51,-718 1503.51,-724 1497.51,-724 1497.51,-724 1388.49,-724 1388.49,-724 1382.49,-724 1376.49,-718 1376.49,-712 1376.49,-712 1376.49,-636 1376.49,-636 1376.49,-630 1382.49,-624 1388.49,-624"/>
<text text-anchor="middle" x="1443" y="-708.8" font-family="Times,serif" font-size="14.00">Tag</text>
<polyline fill="none" stroke="black" points="1376.49,-702 1509.51,-702 "/>
<text text-anchor="start" x="1384.49" y="-686.8" font-family="Times,serif" font-size="14.00">id :integer</text>
<text text-anchor="start" x="1384.49" y="-672.8" font-family="Times,serif" font-size="14.00">name :string</text>
<text text-anchor="start" x="1384.49" y="-658.8" font-family="Times,serif" font-size="14.00">popularity :integer</text>
<text text-anchor="start" x="1384.49" y="-644.8" font-family="Times,serif" font-size="14.00">created_at :datetime</text>
<text text-anchor="start" x="1384.49" y="-630.8" font-family="Times,serif" font-size="14.00">updated_at :datetime</text>
</g>
<!-- Card&#45;&gt;Tag -->
<g id="edge21" class="edge"><title>Card&#45;&gt;Tag</title>
<path fill="none" stroke="#36d5fc" d="M1179.08,-985.581C1245.98,-906.857 1338.67,-797.777 1394.53,-732.038"/>
<polygon fill="#36d5fc" stroke="#36d5fc" points="1178.91,-985.784 1169.01,-990.49 1175.67,-989.594 1172.44,-993.404 1172.44,-993.404 1172.44,-993.404 1175.67,-989.594 1175.86,-996.318 1178.91,-985.784 1178.91,-985.784"/>
<polygon fill="#36d5fc" stroke="#36d5fc" points="1394.68,-731.861 1404.59,-727.155 1397.92,-728.051 1401.16,-724.241 1401.16,-724.241 1401.16,-724.241 1397.92,-728.051 1397.73,-721.327 1394.68,-731.861 1394.68,-731.861"/>
</g>
<!-- Tagging -->
<g id="node34" class="node"><title>Tagging</title>
<path fill="none" stroke="black" d="M1414.49,-365C1414.49,-365 1523.51,-365 1523.51,-365 1529.51,-365 1535.51,-371 1535.51,-377 1535.51,-377 1535.51,-453 1535.51,-453 1535.51,-459 1529.51,-465 1523.51,-465 1523.51,-465 1414.49,-465 1414.49,-465 1408.49,-465 1402.49,-459 1402.49,-453 1402.49,-453 1402.49,-377 1402.49,-377 1402.49,-371 1408.49,-365 1414.49,-365"/>
<text text-anchor="middle" x="1469" y="-449.8" font-family="Times,serif" font-size="14.00">Tagging</text>
<polyline fill="none" stroke="black" points="1402.49,-443 1535.51,-443 "/>
<text text-anchor="start" x="1410.49" y="-427.8" font-family="Times,serif" font-size="14.00">id :integer</text>
<text text-anchor="start" x="1410.49" y="-413.8" font-family="Times,serif" font-size="14.00">card_id :integer</text>
<text text-anchor="start" x="1410.49" y="-399.8" font-family="Times,serif" font-size="14.00">tag_id :integer</text>
<text text-anchor="start" x="1410.49" y="-385.8" font-family="Times,serif" font-size="14.00">created_at :datetime</text>
<text text-anchor="start" x="1410.49" y="-371.8" font-family="Times,serif" font-size="14.00">updated_at :datetime</text>
</g>
<!-- Card&#45;&gt;Tagging -->
<g id="edge20" class="edge"><title>Card&#45;&gt;Tagging</title>
<path fill="none" stroke="#2096b0" d="M1107.11,-918.549C1116.4,-766.17 1131.23,-559.642 1144,-546 1220.52,-464.285 1295.62,-563.226 1393,-508 1408.06,-499.457 1421.39,-486.683 1432.52,-473.353"/>
<ellipse fill="none" stroke="#2096b0" cx="1106.86" cy="-922.683" rx="4" ry="4"/>
<polygon fill="#2096b0" stroke="#2096b0" points="1432.57,-473.285 1442.32,-468.274 1435.69,-469.376 1438.81,-465.468 1438.81,-465.468 1438.81,-465.468 1435.69,-469.376 1435.29,-462.662 1432.57,-473.285 1432.57,-473.285"/>
</g>
<!-- User -->
<g id="node36" class="node"><title>User</title>
<path fill="none" stroke="black" d="M783.936,-547C783.936,-547 910.064,-547 910.064,-547 916.064,-547 922.064,-553 922.064,-559 922.064,-559 922.064,-789 922.064,-789 922.064,-795 916.064,-801 910.064,-801 910.064,-801 783.936,-801 783.936,-801 777.936,-801 771.936,-795 771.936,-789 771.936,-789 771.936,-559 771.936,-559 771.936,-553 777.936,-547 783.936,-547"/>
<text text-anchor="middle" x="847" y="-785.8" font-family="Times,serif" font-size="14.00">User</text>
<polyline fill="none" stroke="black" points="771.936,-779 922.064,-779 "/>
<text text-anchor="start" x="779.936" y="-763.8" font-family="Times,serif" font-size="14.00">id :integer</text>
<text text-anchor="start" x="779.936" y="-749.8" font-family="Times,serif" font-size="14.00">email :string</text>
<text text-anchor="start" x="779.936" y="-735.8" font-family="Times,serif" font-size="14.00">gravatar_email :string</text>
<text text-anchor="start" x="779.936" y="-721.8" font-family="Times,serif" font-size="14.00">password_digest :string</text>
<text text-anchor="start" x="779.936" y="-707.8" font-family="Times,serif" font-size="14.00">remember_token :string</text>
<text text-anchor="start" x="779.936" y="-693.8" font-family="Times,serif" font-size="14.00">user_type_id :integer</text>
<text text-anchor="start" x="779.936" y="-679.8" font-family="Times,serif" font-size="14.00">uid :string</text>
<text text-anchor="start" x="779.936" y="-665.8" font-family="Times,serif" font-size="14.00">created_at :datetime</text>
<text text-anchor="start" x="779.936" y="-651.8" font-family="Times,serif" font-size="14.00">updated_at :datetime</text>
<text text-anchor="start" x="779.936" y="-637.8" font-family="Times,serif" font-size="14.00">reset_token :string</text>
<text text-anchor="start" x="779.936" y="-623.8" font-family="Times,serif" font-size="14.00">reset_sent_at :datetime</text>
<text text-anchor="start" x="779.936" y="-609.8" font-family="Times,serif" font-size="14.00">firstname :string</text>
<text text-anchor="start" x="779.936" y="-595.8" font-family="Times,serif" font-size="14.00">lastname :string</text>
<text text-anchor="start" x="779.936" y="-581.8" font-family="Times,serif" font-size="14.00">confirmed :boolean</text>
<text text-anchor="start" x="779.936" y="-567.8" font-family="Times,serif" font-size="14.00">avatar :string</text>
<text text-anchor="start" x="779.936" y="-553.8" font-family="Times,serif" font-size="14.00">gravatar :boolean</text>
</g>
<!-- Card&#45;&gt;User -->
<g id="edge18" class="edge"><title>Card&#45;&gt;User</title>
<path fill="none" stroke="#f67f54" d="M1018.29,-962.929C990.439,-918.065 958.952,-866.564 930,-820 927.891,-816.608 925.75,-813.173 923.589,-809.711"/>
<polygon fill="#f67f54" stroke="#f67f54" points="1018.35,-963.025 1019.8,-973.893 1020.99,-967.271 1023.63,-971.518 1023.63,-971.518 1023.63,-971.518 1020.99,-967.271 1027.45,-969.143 1018.35,-963.025 1018.35,-963.025"/>
<polygon fill="#f67f54" stroke="#f67f54" points="923.478,-809.533 921.996,-798.668 920.829,-805.293 918.18,-801.053 918.18,-801.053 918.18,-801.053 920.829,-805.293 914.363,-803.437 923.478,-809.533 923.478,-809.533"/>
</g>
<!-- VerificatorComment -->
<g id="node38" class="node"><title>VerificatorComment</title>
<path fill="none" stroke="black" d="M754.495,-358C754.495,-358 863.505,-358 863.505,-358 869.505,-358 875.505,-364 875.505,-370 875.505,-370 875.505,-460 875.505,-460 875.505,-466 869.505,-472 863.505,-472 863.505,-472 754.495,-472 754.495,-472 748.495,-472 742.495,-466 742.495,-460 742.495,-460 742.495,-370 742.495,-370 742.495,-364 748.495,-358 754.495,-358"/>
<text text-anchor="middle" x="809" y="-456.8" font-family="Times,serif" font-size="14.00">VerificatorComment</text>
<polyline fill="none" stroke="black" points="742.495,-450 875.505,-450 "/>
<text text-anchor="start" x="750.495" y="-434.8" font-family="Times,serif" font-size="14.00">id :integer</text>
<text text-anchor="start" x="750.495" y="-420.8" font-family="Times,serif" font-size="14.00">content :text</text>
<text text-anchor="start" x="750.495" y="-406.8" font-family="Times,serif" font-size="14.00">user_id :integer</text>
<text text-anchor="start" x="750.495" y="-392.8" font-family="Times,serif" font-size="14.00">card_id :integer</text>
<text text-anchor="start" x="750.495" y="-378.8" font-family="Times,serif" font-size="14.00">created_at :datetime</text>
<text text-anchor="start" x="750.495" y="-364.8" font-family="Times,serif" font-size="14.00">updated_at :datetime</text>
</g>
<!-- Card&#45;&gt;VerificatorComment -->
<g id="edge22" class="edge"><title>Card&#45;&gt;VerificatorComment</title>
<path fill="none" stroke="#a501f8" d="M1074.67,-918.617C1051.13,-754.904 1018.22,-526.22 1018,-526 975.639,-484.004 937.134,-536.986 885,-508 872.348,-500.965 860.94,-490.917 851.041,-480.024"/>
<ellipse fill="none" stroke="#a501f8" cx="1075.28" cy="-922.892" rx="4.00001" ry="4.00001"/>
<polygon fill="#a501f8" stroke="#a501f8" points="850.969,-479.941 847.836,-469.432 847.7,-476.158 844.431,-472.374 844.431,-472.374 844.431,-472.374 847.7,-476.158 841.026,-475.316 850.969,-479.941 850.969,-479.941"/>
</g>
<!-- CardType -->
<g id="node13" class="node"><title>CardType</title>
<path fill="none" stroke="black" d="M1166.49,-1370C1166.49,-1370 1275.51,-1370 1275.51,-1370 1281.51,-1370 1287.51,-1376 1287.51,-1382 1287.51,-1382 1287.51,-1444 1287.51,-1444 1287.51,-1450 1281.51,-1456 1275.51,-1456 1275.51,-1456 1166.49,-1456 1166.49,-1456 1160.49,-1456 1154.49,-1450 1154.49,-1444 1154.49,-1444 1154.49,-1382 1154.49,-1382 1154.49,-1376 1160.49,-1370 1166.49,-1370"/>
<text text-anchor="middle" x="1221" y="-1440.8" font-family="Times,serif" font-size="14.00">CardType</text>
<polyline fill="none" stroke="black" points="1154.49,-1434 1287.51,-1434 "/>
<text text-anchor="start" x="1162.49" y="-1418.8" font-family="Times,serif" font-size="14.00">id :integer</text>
<text text-anchor="start" x="1162.49" y="-1404.8" font-family="Times,serif" font-size="14.00">name :string</text>
<text text-anchor="start" x="1162.49" y="-1390.8" font-family="Times,serif" font-size="14.00">created_at :datetime</text>
<text text-anchor="start" x="1162.49" y="-1376.8" font-family="Times,serif" font-size="14.00">updated_at :datetime</text>
</g>
<!-- CardType&#45;&gt;Card -->
<g id="edge31" class="edge"><title>CardType&#45;&gt;Card</title>
<path fill="none" stroke="#83b78d" d="M1202.37,-1362.18C1190.71,-1330.99 1174.96,-1288.84 1159.23,-1246.76"/>
<ellipse fill="none" stroke="#83b78d" cx="1203.9" cy="-1366.25" rx="4.00001" ry="4.00001"/>
<polygon fill="#83b78d" stroke="#83b78d" points="1159.16,-1246.59 1159.87,-1235.65 1157.41,-1241.91 1155.66,-1237.22 1155.66,-1237.22 1155.66,-1237.22 1157.41,-1241.91 1151.44,-1238.8 1159.16,-1246.59 1159.16,-1246.59"/>
</g>
<!-- Connection -->
<g id="node16" class="node"><title>Connection</title>
<path fill="none" stroke="black" d="M452.495,-365C452.495,-365 561.505,-365 561.505,-365 567.505,-365 573.505,-371 573.505,-377 573.505,-377 573.505,-453 573.505,-453 573.505,-459 567.505,-465 561.505,-465 561.505,-465 452.495,-465 452.495,-465 446.495,-465 440.495,-459 440.495,-453 440.495,-453 440.495,-377 440.495,-377 440.495,-371 446.495,-365 452.495,-365"/>
<text text-anchor="middle" x="507" y="-449.8" font-family="Times,serif" font-size="14.00">Connection</text>
<polyline fill="none" stroke="black" points="440.495,-443 573.505,-443 "/>
<text text-anchor="start" x="448.495" y="-427.8" font-family="Times,serif" font-size="14.00">id :integer</text>
<text text-anchor="start" x="448.495" y="-413.8" font-family="Times,serif" font-size="14.00">ip :string</text>
<text text-anchor="start" x="448.495" y="-399.8" font-family="Times,serif" font-size="14.00">user_id :integer</text>
<text text-anchor="start" x="448.495" y="-385.8" font-family="Times,serif" font-size="14.00">created_at :datetime</text>
<text text-anchor="start" x="448.495" y="-371.8" font-family="Times,serif" font-size="14.00">updated_at :datetime</text>
</g>
<!-- Disponibility -->
<g id="node17" class="node"><title>Disponibility</title>
<path fill="none" stroke="black" d="M2072.49,-631C2072.49,-631 2181.51,-631 2181.51,-631 2187.51,-631 2193.51,-637 2193.51,-643 2193.51,-643 2193.51,-705 2193.51,-705 2193.51,-711 2187.51,-717 2181.51,-717 2181.51,-717 2072.49,-717 2072.49,-717 2066.49,-717 2060.49,-711 2060.49,-705 2060.49,-705 2060.49,-643 2060.49,-643 2060.49,-637 2066.49,-631 2072.49,-631"/>
<text text-anchor="middle" x="2127" y="-701.8" font-family="Times,serif" font-size="14.00">Disponibility</text>
<polyline fill="none" stroke="black" points="2060.49,-695 2193.51,-695 "/>
<text text-anchor="start" x="2068.49" y="-679.8" font-family="Times,serif" font-size="14.00">id :integer</text>
<text text-anchor="start" x="2068.49" y="-665.8" font-family="Times,serif" font-size="14.00">name :string</text>
<text text-anchor="start" x="2068.49" y="-651.8" font-family="Times,serif" font-size="14.00">created_at :datetime</text>
<text text-anchor="start" x="2068.49" y="-637.8" font-family="Times,serif" font-size="14.00">updated_at :datetime</text>
</g>
<!-- Orator -->
<g id="node21" class="node"><title>Orator</title>
<path fill="none" stroke="black" d="M2034.49,-330C2034.49,-330 2143.51,-330 2143.51,-330 2149.51,-330 2155.51,-336 2155.51,-342 2155.51,-342 2155.51,-488 2155.51,-488 2155.51,-494 2149.51,-500 2143.51,-500 2143.51,-500 2034.49,-500 2034.49,-500 2028.49,-500 2022.49,-494 2022.49,-488 2022.49,-488 2022.49,-342 2022.49,-342 2022.49,-336 2028.49,-330 2034.49,-330"/>
<text text-anchor="middle" x="2089" y="-484.8" font-family="Times,serif" font-size="14.00">Orator</text>
<polyline fill="none" stroke="black" points="2022.49,-478 2155.51,-478 "/>
<text text-anchor="start" x="2030.49" y="-462.8" font-family="Times,serif" font-size="14.00">id :integer</text>
<text text-anchor="start" x="2030.49" y="-448.8" font-family="Times,serif" font-size="14.00">user_id :integer</text>
<text text-anchor="start" x="2030.49" y="-434.8" font-family="Times,serif" font-size="14.00">street :string</text>
<text text-anchor="start" x="2030.49" y="-420.8" font-family="Times,serif" font-size="14.00">location_id :integer</text>
<text text-anchor="start" x="2030.49" y="-406.8" font-family="Times,serif" font-size="14.00">phone :string</text>
<text text-anchor="start" x="2030.49" y="-392.8" font-family="Times,serif" font-size="14.00">disponibility :string</text>
<text text-anchor="start" x="2030.49" y="-378.8" font-family="Times,serif" font-size="14.00">created_at :datetime</text>
<text text-anchor="start" x="2030.49" y="-364.8" font-family="Times,serif" font-size="14.00">updated_at :datetime</text>
<text text-anchor="start" x="2030.49" y="-350.8" font-family="Times,serif" font-size="14.00">description :text</text>
<text text-anchor="start" x="2030.49" y="-336.8" font-family="Times,serif" font-size="14.00">disabled :boolean</text>
</g>
<!-- Disponibility&#45;&gt;Orator -->
<g id="edge37" class="edge"><title>Disponibility&#45;&gt;Orator</title>
<path fill="none" stroke="#70d330" d="M2119.3,-620.935C2114.59,-589.091 2108.43,-547.408 2102.89,-509.955"/>
<polygon fill="#70d330" stroke="#70d330" points="2119.3,-620.957 2116.32,-631.508 2120.04,-625.903 2120.77,-630.849 2120.77,-630.849 2120.77,-630.849 2120.04,-625.903 2125.22,-630.191 2119.3,-620.957 2119.3,-620.957"/>
<polygon fill="#70d330" stroke="#70d330" points="2102.89,-509.918 2105.88,-499.368 2102.16,-504.972 2101.42,-500.026 2101.42,-500.026 2101.42,-500.026 2102.16,-504.972 2096.97,-500.684 2102.89,-509.918 2102.89,-509.918"/>
</g>
<!-- OratorDisponibility -->
<g id="node22" class="node"><title>OratorDisponibility</title>
<path fill="none" stroke="black" d="M2093.53,-162C2093.53,-162 2220.47,-162 2220.47,-162 2226.47,-162 2232.47,-168 2232.47,-174 2232.47,-174 2232.47,-250 2232.47,-250 2232.47,-256 2226.47,-262 2220.47,-262 2220.47,-262 2093.53,-262 2093.53,-262 2087.53,-262 2081.53,-256 2081.53,-250 2081.53,-250 2081.53,-174 2081.53,-174 2081.53,-168 2087.53,-162 2093.53,-162"/>
<text text-anchor="middle" x="2157" y="-246.8" font-family="Times,serif" font-size="14.00">OratorDisponibility</text>
<polyline fill="none" stroke="black" points="2081.53,-240 2232.47,-240 "/>
<text text-anchor="start" x="2089.53" y="-224.8" font-family="Times,serif" font-size="14.00">id :integer</text>
<text text-anchor="start" x="2089.53" y="-210.8" font-family="Times,serif" font-size="14.00">orator_id :integer</text>
<text text-anchor="start" x="2089.53" y="-196.8" font-family="Times,serif" font-size="14.00">disponibility_id :integer</text>
<text text-anchor="start" x="2089.53" y="-182.8" font-family="Times,serif" font-size="14.00">created_at :datetime</text>
<text text-anchor="start" x="2089.53" y="-168.8" font-family="Times,serif" font-size="14.00">updated_at :datetime</text>
</g>
<!-- Disponibility&#45;&gt;OratorDisponibility -->
<g id="edge36" class="edge"><title>Disponibility&#45;&gt;OratorDisponibility</title>
<path fill="none" stroke="#e1d052" d="M2141.31,-622.698C2149.78,-590.262 2159.68,-547.004 2164,-508 2173.1,-425.836 2166.65,-404.624 2164,-322 2163.48,-305.909 2162.54,-288.502 2161.51,-272.421"/>
<ellipse fill="none" stroke="#e1d052" cx="2140.22" cy="-626.835" rx="4.00001" ry="4.00001"/>
<polygon fill="#e1d052" stroke="#e1d052" points="2161.48,-272.051 2165.31,-261.775 2161.15,-267.062 2160.82,-262.073 2160.82,-262.073 2160.82,-262.073 2161.15,-267.062 2156.33,-262.371 2161.48,-272.051 2161.48,-272.051"/>
</g>
<!-- Document -->
<g id="node18" class="node"><title>Document</title>
<path fill="none" stroke="black" d="M1844.49,-141C1844.49,-141 1953.51,-141 1953.51,-141 1959.51,-141 1965.51,-147 1965.51,-153 1965.51,-153 1965.51,-271 1965.51,-271 1965.51,-277 1959.51,-283 1953.51,-283 1953.51,-283 1844.49,-283 1844.49,-283 1838.49,-283 1832.49,-277 1832.49,-271 1832.49,-271 1832.49,-153 1832.49,-153 1832.49,-147 1838.49,-141 1844.49,-141"/>
<text text-anchor="middle" x="1899" y="-267.8" font-family="Times,serif" font-size="14.00">Document</text>
<polyline fill="none" stroke="black" points="1832.49,-261 1965.51,-261 "/>
<text text-anchor="start" x="1840.49" y="-245.8" font-family="Times,serif" font-size="14.00">id :integer</text>
<text text-anchor="start" x="1840.49" y="-231.8" font-family="Times,serif" font-size="14.00">name :string</text>
<text text-anchor="start" x="1840.49" y="-217.8" font-family="Times,serif" font-size="14.00">file :string</text>
<text text-anchor="start" x="1840.49" y="-203.8" font-family="Times,serif" font-size="14.00">created_at :datetime</text>
<text text-anchor="start" x="1840.49" y="-189.8" font-family="Times,serif" font-size="14.00">updated_at :datetime</text>
<text text-anchor="start" x="1840.49" y="-175.8" font-family="Times,serif" font-size="14.00">subject_id :integer</text>
<text text-anchor="start" x="1840.49" y="-161.8" font-family="Times,serif" font-size="14.00">size :integer</text>
<text text-anchor="start" x="1840.49" y="-147.8" font-family="Times,serif" font-size="14.00">extension :string</text>
</g>
<!-- Element -->
<g id="node19" class="node"><title>Element</title>
<path fill="none" stroke="black" d="M184.495,-821C184.495,-821 293.505,-821 293.505,-821 299.505,-821 305.505,-827 305.505,-833 305.505,-833 305.505,-895 305.505,-895 305.505,-901 299.505,-907 293.505,-907 293.505,-907 184.495,-907 184.495,-907 178.495,-907 172.495,-901 172.495,-895 172.495,-895 172.495,-833 172.495,-833 172.495,-827 178.495,-821 184.495,-821"/>
<text text-anchor="middle" x="239" y="-891.8" font-family="Times,serif" font-size="14.00">Element</text>
<polyline fill="none" stroke="black" points="172.495,-885 305.505,-885 "/>
<text text-anchor="start" x="180.495" y="-869.8" font-family="Times,serif" font-size="14.00">id :integer</text>
<text text-anchor="start" x="180.495" y="-855.8" font-family="Times,serif" font-size="14.00">name :string</text>
<text text-anchor="start" x="180.495" y="-841.8" font-family="Times,serif" font-size="14.00">created_at :datetime</text>
<text text-anchor="start" x="180.495" y="-827.8" font-family="Times,serif" font-size="14.00">updated_at :datetime</text>
</g>
<!-- Element&#45;&gt;Ownership -->
<g id="edge40" class="edge"><title>Element&#45;&gt;Ownership</title>
<path fill="none" stroke="#65f1cf" d="M239.136,-812.705C238.549,-749.861 235.018,-639.233 219,-546 217.361,-536.46 215.29,-526.619 212.967,-516.822"/>
<ellipse fill="none" stroke="#65f1cf" cx="239.168" cy="-816.875" rx="4" ry="4"/>
<polygon fill="#65f1cf" stroke="#65f1cf" points="212.953,-516.764 214.939,-505.98 211.761,-511.908 210.569,-507.053 210.569,-507.053 210.569,-507.053 211.761,-511.908 206.199,-508.126 212.953,-516.764 212.953,-516.764"/>
</g>
<!-- Orator&#45;&gt;OratorDisponibility -->
<g id="edge45" class="edge"><title>Orator&#45;&gt;OratorDisponibility</title>
<path fill="none" stroke="#f183fb" d="M2120.02,-322.297C2125.84,-305.091 2131.78,-287.538 2137.15,-271.677"/>
<ellipse fill="none" stroke="#f183fb" cx="2118.73" cy="-326.133" rx="4.00001" ry="4.00001"/>
<polygon fill="#f183fb" stroke="#f183fb" points="2137.21,-271.51 2144.67,-263.48 2138.81,-266.774 2140.41,-262.038 2140.41,-262.038 2140.41,-262.038 2138.81,-266.774 2136.15,-260.595 2137.21,-271.51 2137.21,-271.51"/>
</g>
<!-- OratorTheme -->
<g id="node23" class="node"><title>OratorTheme</title>
<path fill="none" stroke="black" d="M1999.49,-1C1999.49,-1 2108.51,-1 2108.51,-1 2114.51,-1 2120.51,-7 2120.51,-13 2120.51,-13 2120.51,-89 2120.51,-89 2120.51,-95 2114.51,-101 2108.51,-101 2108.51,-101 1999.49,-101 1999.49,-101 1993.49,-101 1987.49,-95 1987.49,-89 1987.49,-89 1987.49,-13 1987.49,-13 1987.49,-7 1993.49,-1 1999.49,-1"/>
<text text-anchor="middle" x="2054" y="-85.8" font-family="Times,serif" font-size="14.00">OratorTheme</text>
<polyline fill="none" stroke="black" points="1987.49,-79 2120.51,-79 "/>
<text text-anchor="start" x="1995.49" y="-63.8" font-family="Times,serif" font-size="14.00">id :integer</text>
<text text-anchor="start" x="1995.49" y="-49.8" font-family="Times,serif" font-size="14.00">orator_id :integer</text>
<text text-anchor="start" x="1995.49" y="-35.8" font-family="Times,serif" font-size="14.00">theme_id :integer</text>
<text text-anchor="start" x="1995.49" y="-21.8" font-family="Times,serif" font-size="14.00">created_at :datetime</text>
<text text-anchor="start" x="1995.49" y="-7.8" font-family="Times,serif" font-size="14.00">updated_at :datetime</text>
</g>
<!-- Orator&#45;&gt;OratorTheme -->
<g id="edge43" class="edge"><title>Orator&#45;&gt;OratorTheme</title>
<path fill="none" stroke="#6569be" d="M2077.15,-321.54C2075.67,-308.934 2074.25,-296.155 2073,-284 2067,-225.384 2061.67,-158.282 2058.19,-111.373"/>
<ellipse fill="none" stroke="#6569be" cx="2077.66" cy="-325.818" rx="4.00001" ry="4.00001"/>
<polygon fill="#6569be" stroke="#6569be" points="2058.19,-111.358 2061.95,-101.054 2057.83,-106.371 2057.46,-101.384 2057.46,-101.384 2057.46,-101.384 2057.83,-106.371 2052.97,-101.714 2058.19,-111.358 2058.19,-111.358"/>
</g>
<!-- Orator&#45;&gt;Theme -->
<g id="edge44" class="edge"><title>Orator&#45;&gt;Theme</title>
<path fill="none" stroke="#12a778" d="M2013.7,-355.889C1984.82,-336.105 1950.69,-315.581 1917,-302 1877.55,-286.096 1860.85,-303.401 1823,-284 1814.91,-279.856 1807.09,-274.571 1799.74,-268.759"/>
<polygon fill="#12a778" stroke="#12a778" points="2013.88,-356.014 2019.53,-365.415 2017.99,-358.866 2022.09,-361.719 2022.09,-361.719 2022.09,-361.719 2017.99,-358.866 2024.66,-358.023 2013.88,-356.014 2013.88,-356.014"/>
<polygon fill="#12a778" stroke="#12a778" points="1799.65,-268.679 1794.85,-258.818 1795.81,-265.476 1791.97,-262.274 1791.97,-262.274 1791.97,-262.274 1795.81,-265.476 1789.09,-265.73 1799.65,-268.679 1799.65,-268.679"/>
</g>
<!-- Ownership&#45;&gt;AccessToken -->
<g id="edge50" class="edge"><title>Ownership&#45;&gt;AccessToken</title>
<path fill="none" stroke="#8fe72b" d="M273.714,-323.363C274.474,-322.901 275.236,-322.447 276,-322 368.972,-267.591 491.072,-238.65 569.798,-224.574"/>
<ellipse fill="none" stroke="#8fe72b" cx="270.29" cy="-325.55" rx="4.00002" ry="4.00002"/>
<polygon fill="#8fe72b" stroke="#8fe72b" points="569.805,-224.573 580.431,-227.281 574.73,-223.711 579.655,-222.849 579.655,-222.849 579.655,-222.849 574.73,-223.711 578.879,-218.416 569.805,-224.573 569.805,-224.573"/>
</g>
<!-- Ownership&#45;&gt;OwnershipAction -->
<g id="edge49" class="edge"><title>Ownership&#45;&gt;OwnershipAction</title>
<path fill="none" stroke="#f72b57" d="M126.634,-315.516C118.059,-300.265 109.45,-284.951 101.596,-270.981"/>
<ellipse fill="none" stroke="#f72b57" cx="128.83" cy="-319.423" rx="4.00002" ry="4.00002"/>
<polygon fill="#f72b57" stroke="#f72b57" points="101.453,-270.726 100.475,-259.804 99.0029,-266.368 96.5526,-262.009 96.5526,-262.009 96.5526,-262.009 99.0029,-266.368 92.63,-264.215 101.453,-270.726 101.453,-270.726"/>
</g>
<!-- OwnershipType -->
<g id="node26" class="node"><title>OwnershipType</title>
<path fill="none" stroke="black" d="M266.495,-1257C266.495,-1257 375.505,-1257 375.505,-1257 381.505,-1257 387.505,-1263 387.505,-1269 387.505,-1269 387.505,-1331 387.505,-1331 387.505,-1337 381.505,-1343 375.505,-1343 375.505,-1343 266.495,-1343 266.495,-1343 260.495,-1343 254.495,-1337 254.495,-1331 254.495,-1331 254.495,-1269 254.495,-1269 254.495,-1263 260.495,-1257 266.495,-1257"/>
<text text-anchor="middle" x="321" y="-1327.8" font-family="Times,serif" font-size="14.00">OwnershipType</text>
<polyline fill="none" stroke="black" points="254.495,-1321 387.505,-1321 "/>
<text text-anchor="start" x="262.495" y="-1305.8" font-family="Times,serif" font-size="14.00">id :integer</text>
<text text-anchor="start" x="262.495" y="-1291.8" font-family="Times,serif" font-size="14.00">name :string</text>
<text text-anchor="start" x="262.495" y="-1277.8" font-family="Times,serif" font-size="14.00">created_at :datetime</text>
<text text-anchor="start" x="262.495" y="-1263.8" font-family="Times,serif" font-size="14.00">updated_at :datetime</text>
</g>
<!-- OwnershipType&#45;&gt;Ownership -->
<g id="edge53" class="edge"><title>OwnershipType&#45;&gt;Ownership</title>
<path fill="none" stroke="#1fa693" d="M322.825,-1248.65C325.264,-1161.08 327.193,-975.249 307,-820 290.87,-695.989 284.008,-664.141 243,-546 239.655,-536.362 235.82,-526.484 231.738,-516.688"/>
<ellipse fill="none" stroke="#1fa693" cx="322.704" cy="-1252.81" rx="4" ry="4"/>
<polygon fill="#1fa693" stroke="#1fa693" points="231.672,-516.533 231.897,-505.57 229.715,-511.932 227.757,-507.332 227.757,-507.332 227.757,-507.332 229.715,-511.932 223.616,-509.094 231.672,-516.533 231.672,-516.533"/>
</g>
<!-- Page -->
<g id="node27" class="node"><title>Page</title>
<path fill="none" stroke="black" d="M2490.49,-1363C2490.49,-1363 2599.51,-1363 2599.51,-1363 2605.51,-1363 2611.51,-1369 2611.51,-1375 2611.51,-1375 2611.51,-1451 2611.51,-1451 2611.51,-1457 2605.51,-1463 2599.51,-1463 2599.51,-1463 2490.49,-1463 2490.49,-1463 2484.49,-1463 2478.49,-1457 2478.49,-1451 2478.49,-1451 2478.49,-1375 2478.49,-1375 2478.49,-1369 2484.49,-1363 2490.49,-1363"/>
<text text-anchor="middle" x="2545" y="-1447.8" font-family="Times,serif" font-size="14.00">Page</text>
<polyline fill="none" stroke="black" points="2478.49,-1441 2611.51,-1441 "/>
<text text-anchor="start" x="2486.49" y="-1425.8" font-family="Times,serif" font-size="14.00">id :integer</text>
<text text-anchor="start" x="2486.49" y="-1411.8" font-family="Times,serif" font-size="14.00">name :string</text>
<text text-anchor="start" x="2486.49" y="-1397.8" font-family="Times,serif" font-size="14.00">content :text</text>
<text text-anchor="start" x="2486.49" y="-1383.8" font-family="Times,serif" font-size="14.00">created_at :datetime</text>
<text text-anchor="start" x="2486.49" y="-1369.8" font-family="Times,serif" font-size="14.00">updated_at :datetime</text>
</g>
<!-- Parent -->
<g id="node28" class="node"><title>Parent</title>
<path fill="none" stroke="black" d="M1112.49,-365C1112.49,-365 1221.51,-365 1221.51,-365 1227.51,-365 1233.51,-371 1233.51,-377 1233.51,-377 1233.51,-453 1233.51,-453 1233.51,-459 1227.51,-465 1221.51,-465 1221.51,-465 1112.49,-465 1112.49,-465 1106.49,-465 1100.49,-459 1100.49,-453 1100.49,-453 1100.49,-377 1100.49,-377 1100.49,-371 1106.49,-365 1112.49,-365"/>
<text text-anchor="middle" x="1167" y="-449.8" font-family="Times,serif" font-size="14.00">Parent</text>
<polyline fill="none" stroke="black" points="1100.49,-443 1233.51,-443 "/>
<text text-anchor="start" x="1108.49" y="-427.8" font-family="Times,serif" font-size="14.00">id :integer</text>
<text text-anchor="start" x="1108.49" y="-413.8" font-family="Times,serif" font-size="14.00">user_id :integer</text>
<text text-anchor="start" x="1108.49" y="-399.8" font-family="Times,serif" font-size="14.00">parent_id :integer</text>
<text text-anchor="start" x="1108.49" y="-385.8" font-family="Times,serif" font-size="14.00">created_at :datetime</text>
<text text-anchor="start" x="1108.49" y="-371.8" font-family="Times,serif" font-size="14.00">updated_at :datetime</text>
</g>
<!-- Permission -->
<g id="node29" class="node"><title>Permission</title>
<polygon fill="none" stroke="black" points="2629.89,-1391 2629.89,-1435 2708.11,-1435 2708.11,-1391 2629.89,-1391"/>
<text text-anchor="middle" x="2669" y="-1419.8" font-family="Times,serif" font-size="14.00">Permission</text>
<polyline fill="none" stroke="black" points="2629.89,-1413 2708.11,-1413 "/>
<text text-anchor="middle" x="2669" y="-1397.8" font-family="Times,serif" font-size="14.00"> </text>
</g>
<!-- Responsable&#45;&gt;CardResponsable -->
<g id="edge58" class="edge"><title>Responsable&#45;&gt;CardResponsable</title>
<path fill="none" stroke="#a03b1f" d="M1678,-610.153C1707.94,-568.332 1746.96,-513.826 1776.04,-473.216"/>
<ellipse fill="none" stroke="#a03b1f" cx="1675.48" cy="-613.665" rx="4.00002" ry="4.00002"/>
<polygon fill="#a03b1f" stroke="#a03b1f" points="1776.08,-473.16 1785.56,-467.649 1778.99,-469.095 1781.9,-465.029 1781.9,-465.029 1781.9,-465.029 1778.99,-469.095 1778.24,-462.41 1776.08,-473.16 1776.08,-473.16"/>
</g>
<!-- Subject -->
<g id="node31" class="node"><title>Subject</title>
<path fill="none" stroke="black" d="M1604.49,-358C1604.49,-358 1713.51,-358 1713.51,-358 1719.51,-358 1725.51,-364 1725.51,-370 1725.51,-370 1725.51,-460 1725.51,-460 1725.51,-466 1719.51,-472 1713.51,-472 1713.51,-472 1604.49,-472 1604.49,-472 1598.49,-472 1592.49,-466 1592.49,-460 1592.49,-460 1592.49,-370 1592.49,-370 1592.49,-364 1598.49,-358 1604.49,-358"/>
<text text-anchor="middle" x="1659" y="-456.8" font-family="Times,serif" font-size="14.00">Subject</text>
<polyline fill="none" stroke="black" points="1592.49,-450 1725.51,-450 "/>
<text text-anchor="start" x="1600.49" y="-434.8" font-family="Times,serif" font-size="14.00">id :integer</text>
<text text-anchor="start" x="1600.49" y="-420.8" font-family="Times,serif" font-size="14.00">name :string</text>
<text text-anchor="start" x="1600.49" y="-406.8" font-family="Times,serif" font-size="14.00">description :text</text>
<text text-anchor="start" x="1600.49" y="-392.8" font-family="Times,serif" font-size="14.00">created_at :datetime</text>
<text text-anchor="start" x="1600.49" y="-378.8" font-family="Times,serif" font-size="14.00">updated_at :datetime</text>
<text text-anchor="start" x="1600.49" y="-364.8" font-family="Times,serif" font-size="14.00">user_id :integer</text>
</g>
<!-- Subject&#45;&gt;Document -->
<g id="edge60" class="edge"><title>Subject&#45;&gt;Document</title>
<path fill="none" stroke="#4555cf" d="M1703.66,-351.572C1713.18,-340.825 1723.78,-330.422 1735,-322 1769.07,-296.422 1787.35,-307.33 1823,-284 1823.4,-283.74 1823.79,-283.479 1824.19,-283.215"/>
<ellipse fill="none" stroke="#4555cf" cx="1700.79" cy="-354.898" rx="4.00002" ry="4.00002"/>
<polygon fill="#4555cf" stroke="#4555cf" points="1824.29,-283.145 1835.06,-281.078 1828.38,-280.27 1832.47,-277.396 1832.47,-277.396 1832.47,-277.396 1828.38,-280.27 1829.88,-273.714 1824.29,-283.145 1824.29,-283.145"/>
</g>
<!-- SubjectTheme -->
<g id="node32" class="node"><title>SubjectTheme</title>
<path fill="none" stroke="black" d="M1693.49,-1C1693.49,-1 1802.51,-1 1802.51,-1 1808.51,-1 1814.51,-7 1814.51,-13 1814.51,-13 1814.51,-89 1814.51,-89 1814.51,-95 1808.51,-101 1802.51,-101 1802.51,-101 1693.49,-101 1693.49,-101 1687.49,-101 1681.49,-95 1681.49,-89 1681.49,-89 1681.49,-13 1681.49,-13 1681.49,-7 1687.49,-1 1693.49,-1"/>
<text text-anchor="middle" x="1748" y="-85.8" font-family="Times,serif" font-size="14.00">SubjectTheme</text>
<polyline fill="none" stroke="black" points="1681.49,-79 1814.51,-79 "/>
<text text-anchor="start" x="1689.49" y="-63.8" font-family="Times,serif" font-size="14.00">id :integer</text>
<text text-anchor="start" x="1689.49" y="-49.8" font-family="Times,serif" font-size="14.00">subject_id :integer</text>
<text text-anchor="start" x="1689.49" y="-35.8" font-family="Times,serif" font-size="14.00">theme_id :integer</text>
<text text-anchor="start" x="1689.49" y="-21.8" font-family="Times,serif" font-size="14.00">created_at :datetime</text>
<text text-anchor="start" x="1689.49" y="-7.8" font-family="Times,serif" font-size="14.00">updated_at :datetime</text>
</g>
<!-- Subject&#45;&gt;SubjectTheme -->
<g id="edge61" class="edge"><title>Subject&#45;&gt;SubjectTheme</title>
<path fill="none" stroke="#1fd5bc" d="M1650.52,-349.73C1645.62,-292.561 1644.94,-207.764 1672,-140 1676.33,-129.162 1682.58,-118.73 1689.66,-109.076"/>
<ellipse fill="none" stroke="#1fd5bc" cx="1650.91" cy="-353.975" rx="4" ry="4"/>
<polygon fill="#1fd5bc" stroke="#1fd5bc" points="1689.66,-109.068 1699.34,-103.908 1692.72,-105.112 1695.78,-101.156 1695.78,-101.156 1695.78,-101.156 1692.72,-105.112 1692.22,-98.4042 1689.66,-109.068 1689.66,-109.068"/>
</g>
<!-- Subject&#45;&gt;Theme -->
<g id="edge62" class="edge"><title>Subject&#45;&gt;Theme</title>
<path fill="none" stroke="#39e7bb" d="M1688.05,-348.389C1699.03,-323.584 1711.45,-295.542 1722.12,-271.439"/>
<polygon fill="#39e7bb" stroke="#39e7bb" points="1687.96,-348.599 1679.8,-355.921 1685.93,-353.171 1683.91,-357.743 1683.91,-357.743 1683.91,-357.743 1685.93,-353.171 1688.02,-359.565 1687.96,-348.599 1687.96,-348.599"/>
<polygon fill="#39e7bb" stroke="#39e7bb" points="1722.23,-271.209 1730.39,-263.887 1724.25,-266.637 1726.27,-262.065 1726.27,-262.065 1726.27,-262.065 1724.25,-266.637 1722.16,-260.243 1722.23,-271.209 1722.23,-271.209"/>
</g>
<!-- Tag&#45;&gt;Tagging -->
<g id="edge65" class="edge"><title>Tag&#45;&gt;Tagging</title>
<path fill="none" stroke="#84922b" d="M1448.82,-615.516C1453.04,-573.743 1458.74,-517.373 1463.01,-475.206"/>
<ellipse fill="none" stroke="#84922b" cx="1448.38" cy="-619.772" rx="4" ry="4"/>
<polygon fill="#84922b" stroke="#84922b" points="1463.03,-475.031 1468.51,-465.534 1463.53,-470.056 1464.03,-465.081 1464.03,-465.081 1464.03,-465.081 1463.53,-470.056 1459.56,-464.629 1463.03,-475.031 1463.03,-475.031"/>
</g>
<!-- Theme&#45;&gt;ArticleTheme -->
<g id="edge69" class="edge"><title>Theme&#45;&gt;ArticleTheme</title>
<path fill="none" stroke="#7d3018" d="M1685.18,-156.719C1666.93,-140.944 1646.96,-123.69 1628.6,-107.822"/>
<ellipse fill="none" stroke="#7d3018" cx="1688.27" cy="-159.382" rx="4.00002" ry="4.00002"/>
<polygon fill="#7d3018" stroke="#7d3018" points="1628.4,-107.653 1623.78,-97.7097 1624.62,-104.384 1620.84,-101.115 1620.84,-101.115 1620.84,-101.115 1624.62,-104.384 1617.89,-104.519 1628.4,-107.653 1628.4,-107.653"/>
</g>
<!-- Theme&#45;&gt;OratorTheme -->
<g id="edge68" class="edge"><title>Theme&#45;&gt;OratorTheme</title>
<path fill="none" stroke="#f4bb39" d="M1800.89,-156.249C1807.99,-150.332 1815.44,-144.747 1823,-140 1870.92,-109.891 1930.76,-87.4509 1977.54,-72.7682"/>
<ellipse fill="none" stroke="#f4bb39" cx="1797.5" cy="-159.156" rx="4.00002" ry="4.00002"/>
<polygon fill="#f4bb39" stroke="#f4bb39" points="1977.75,-72.7012 1988.63,-74.0528 1982.53,-71.227 1987.31,-69.7529 1987.31,-69.7529 1987.31,-69.7529 1982.53,-71.227 1985.98,-65.4529 1977.75,-72.7012 1977.75,-72.7012"/>
</g>
<!-- Theme&#45;&gt;SubjectTheme -->
<g id="edge70" class="edge"><title>Theme&#45;&gt;SubjectTheme</title>
<path fill="none" stroke="#2e6ace" d="M1748,-153.684C1748,-139.967 1748,-125.291 1748,-111.479"/>
<ellipse fill="none" stroke="#2e6ace" cx="1748" cy="-157.997" rx="4" ry="4"/>
<polygon fill="#2e6ace" stroke="#2e6ace" points="1748,-111.115 1752.5,-101.114 1748,-106.115 1748,-101.115 1748,-101.115 1748,-101.115 1748,-106.115 1743.5,-101.115 1748,-111.115 1748,-111.115"/>
</g>
<!-- User&#45;&gt;Activity -->
<g id="edge78" class="edge"><title>User&#45;&gt;Activity</title>
<path fill="none" stroke="#423190" d="M765.265,-547.428C764.516,-546.943 763.761,-546.466 763,-546 731.35,-526.586 463.692,-525.603 431,-508 423.487,-503.954 416.406,-498.848 409.813,-493.123"/>
<ellipse fill="none" stroke="#423190" cx="768.588" cy="-549.752" rx="4.00002" ry="4.00002"/>
<polygon fill="#423190" stroke="#423190" points="409.626,-492.95 405.361,-482.847 405.963,-489.547 402.299,-486.145 402.299,-486.145 402.299,-486.145 405.963,-489.547 399.236,-489.442 409.626,-492.95 409.626,-492.95"/>
</g>
<!-- User&#45;&gt;Article -->
<g id="edge81" class="edge"><title>User&#45;&gt;Article</title>
<path fill="none" stroke="#46a1a4" d="M928.778,-612.26C974.716,-581.287 1034.44,-546.019 1093,-526 1156.12,-504.422 1183.47,-539.996 1242,-508 1249.45,-503.929 1256.46,-498.804 1262.98,-493.068"/>
<ellipse fill="none" stroke="#46a1a4" cx="925.411" cy="-614.548" rx="4.00002" ry="4.00002"/>
<polygon fill="#46a1a4" stroke="#46a1a4" points="1263.12,-492.931 1273.49,-489.357 1266.77,-489.506 1270.41,-486.08 1270.41,-486.08 1270.41,-486.08 1266.77,-489.506 1267.33,-482.802 1263.12,-492.931 1263.12,-492.931"/>
</g>
<!-- User&#45;&gt;Card -->
<g id="edge73" class="edge"><title>User&#45;&gt;Card</title>
<path fill="none" stroke="#6d0e3d" d="M926.541,-785.792C933.848,-797.326 941.091,-808.889 948,-820 971.019,-857.022 995.64,-897.165 1018.17,-934.611"/>
<ellipse fill="none" stroke="#6d0e3d" cx="924.378" cy="-782.386" rx="4.00002" ry="4.00002"/>
<polygon fill="#6d0e3d" stroke="#6d0e3d" points="1018.39,-934.99 1019.68,-945.879 1020.97,-939.276 1023.54,-943.563 1023.54,-943.563 1023.54,-943.563 1020.97,-939.276 1027.4,-941.246 1018.39,-934.99 1018.39,-934.99"/>
</g>
<!-- User&#45;&gt;CardUser -->
<g id="edge79" class="edge"><title>User&#45;&gt;CardUser</title>
<path fill="none" stroke="#7c99c7" d="M904.724,-539.241C906.819,-534.764 908.915,-530.34 911,-526 916.906,-513.708 923.429,-500.784 929.905,-488.29"/>
<ellipse fill="none" stroke="#7c99c7" cx="902.887" cy="-543.195" rx="4.00002" ry="4.00002"/>
<polygon fill="#7c99c7" stroke="#7c99c7" points="929.978,-488.149 938.592,-481.364 932.29,-483.716 934.602,-479.283 934.602,-479.283 934.602,-479.283 932.29,-483.716 930.612,-477.202 929.978,-488.149 929.978,-488.149"/>
</g>
<!-- User&#45;&gt;CardVerification -->
<g id="edge72" class="edge"><title>User&#45;&gt;CardVerification</title>
<path fill="none" stroke="#a0e668" d="M766.802,-551.23C765.532,-549.471 764.264,-547.726 763,-546 757.372,-538.312 729.871,-504.282 704.427,-472.969"/>
<ellipse fill="none" stroke="#a0e668" cx="769.382" cy="-554.831" rx="4.00002" ry="4.00002"/>
<polygon fill="#a0e668" stroke="#a0e668" points="704.325,-472.844 701.509,-462.246 701.171,-468.964 698.017,-465.084 698.017,-465.084 698.017,-465.084 701.171,-468.964 694.525,-467.923 704.325,-472.844 704.325,-472.844"/>
</g>
<!-- User&#45;&gt;Connection -->
<g id="edge82" class="edge"><title>User&#45;&gt;Connection</title>
<path fill="none" stroke="#7cb20a" d="M765.563,-547.79C764.715,-547.182 763.861,-546.585 763,-546 695.006,-499.812 652.209,-550.746 582,-508 567.57,-499.214 554.69,-486.62 543.847,-473.558"/>
<ellipse fill="none" stroke="#7cb20a" cx="768.759" cy="-550.24" rx="4.00002" ry="4.00002"/>
<polygon fill="#7cb20a" stroke="#7cb20a" points="543.583,-473.225 540.888,-462.596 540.474,-469.31 537.364,-465.394 537.364,-465.394 537.364,-465.394 540.474,-469.31 533.84,-468.193 543.583,-473.225 543.583,-473.225"/>
</g>
<!-- User&#45;&gt;Orator -->
<g id="edge80" class="edge"><title>User&#45;&gt;Orator</title>
<path fill="none" stroke="#b9213b" d="M929.685,-632.784C995.12,-603.043 1089.7,-564.605 1177,-546 1334.14,-512.511 1743.4,-548.023 1899,-508 1939.26,-497.644 1981.15,-478.403 2015.31,-460.184"/>
<ellipse fill="none" stroke="#b9213b" cx="925.889" cy="-634.519" rx="4.00002" ry="4.00002"/>
<ellipse fill="#b9213b" stroke="#b9213b" cx="2018.96" cy="-458.214" rx="4.00002" ry="4.00002"/>
</g>
<!-- User&#45;&gt;Ownership -->
<g id="edge74" class="edge"><title>User&#45;&gt;Ownership</title>
<path fill="none" stroke="#daf2a9" d="M764.931,-547.166C764.292,-546.77 763.648,-546.381 763,-546 740.985,-533.037 350.717,-520.748 277.001,-506.23"/>
<ellipse fill="none" stroke="#daf2a9" cx="768.311" cy="-549.434" rx="4.00002" ry="4.00002"/>
<polygon fill="#daf2a9" stroke="#daf2a9" points="276.72,-506.153 268.278,-499.155 271.901,-504.823 267.081,-503.493 267.081,-503.493 267.081,-503.493 271.901,-504.823 265.884,-507.831 276.72,-506.153 276.72,-506.153"/>
</g>
<!-- User&#45;&gt;Parent -->
<g id="edge75" class="edge"><title>User&#45;&gt;Parent</title>
<path fill="none" stroke="#e28ba0" d="M928.874,-607.535C966.682,-577.275 1012.15,-540.841 1053,-508 1067.55,-496.302 1083.13,-483.748 1097.95,-471.791"/>
<ellipse fill="none" stroke="#e28ba0" cx="925.514" cy="-610.223" rx="4.00002" ry="4.00002"/>
<polygon fill="#e28ba0" stroke="#e28ba0" points="1098.31,-471.499 1108.92,-468.721 1102.2,-468.359 1106.1,-465.219 1106.1,-465.219 1106.1,-465.219 1102.2,-468.359 1103.27,-461.717 1098.31,-471.499 1098.31,-471.499"/>
</g>
<!-- User&#45;&gt;Subject -->
<g id="edge83" class="edge"><title>User&#45;&gt;Subject</title>
<path fill="none" stroke="#27ef9d" d="M929.608,-629.457C987.891,-600.808 1068.69,-565.18 1144,-546 1165.63,-540.49 1523.31,-516.378 1544,-508 1561.66,-500.85 1578.78,-490.068 1594.18,-478.374"/>
<ellipse fill="none" stroke="#27ef9d" cx="925.841" cy="-631.32" rx="4.00002" ry="4.00002"/>
<polygon fill="#27ef9d" stroke="#27ef9d" points="1594.2,-478.359 1604.85,-475.733 1598.14,-475.275 1602.07,-472.191 1602.07,-472.191 1602.07,-472.191 1598.14,-475.275 1599.3,-468.649 1594.2,-478.359 1594.2,-478.359"/>
</g>
<!-- User&#45;&gt;User -->
<g id="edge76" class="edge"><title>User&#45;&gt;User</title>
<path fill="none" stroke="#779d9d" d="M931.033,-693.606C936.615,-689.063 940,-682.528 940,-674 940,-665.472 936.615,-658.937 931.033,-654.394"/>
<polygon fill="#779d9d" stroke="#779d9d" points="930.895,-693.683 919.971,-694.639 926.532,-696.125 922.168,-698.566 922.168,-698.566 922.168,-698.566 926.532,-696.125 924.366,-702.493 930.895,-693.683 930.895,-693.683"/>
<polygon fill="#779d9d" stroke="#779d9d" points="930.895,-654.317 924.366,-645.507 926.532,-651.875 922.168,-649.434 922.168,-649.434 922.168,-649.434 926.532,-651.875 919.971,-653.361 930.895,-654.317 930.895,-654.317"/>
</g>
<!-- User&#45;&gt;VerificatorComment -->
<g id="edge77" class="edge"><title>User&#45;&gt;VerificatorComment</title>
<path fill="none" stroke="#c7e4f0" d="M827.156,-538.792C824.254,-519.167 821.379,-499.72 818.801,-482.286"/>
<ellipse fill="none" stroke="#c7e4f0" cx="827.749" cy="-542.802" rx="4.00001" ry="4.00001"/>
<polygon fill="#c7e4f0" stroke="#c7e4f0" points="818.783,-482.161 821.771,-471.61 818.051,-477.214 817.32,-472.268 817.32,-472.268 817.32,-472.268 818.051,-477.214 812.868,-472.926 818.783,-482.161 818.783,-482.161"/>
</g>
<!-- UserType -->
<g id="node37" class="node"><title>UserType</title>
<path fill="none" stroke="black" d="M881.495,-1257C881.495,-1257 990.505,-1257 990.505,-1257 996.505,-1257 1002.51,-1263 1002.51,-1269 1002.51,-1269 1002.51,-1331 1002.51,-1331 1002.51,-1337 996.505,-1343 990.505,-1343 990.505,-1343 881.495,-1343 881.495,-1343 875.495,-1343 869.495,-1337 869.495,-1331 869.495,-1331 869.495,-1269 869.495,-1269 869.495,-1263 875.495,-1257 881.495,-1257"/>
<text text-anchor="middle" x="936" y="-1327.8" font-family="Times,serif" font-size="14.00">UserType</text>
<polyline fill="none" stroke="black" points="869.495,-1321 1002.51,-1321 "/>
<text text-anchor="start" x="877.495" y="-1305.8" font-family="Times,serif" font-size="14.00">id :integer</text>
<text text-anchor="start" x="877.495" y="-1291.8" font-family="Times,serif" font-size="14.00">name :string</text>
<text text-anchor="start" x="877.495" y="-1277.8" font-family="Times,serif" font-size="14.00">created_at :datetime</text>
<text text-anchor="start" x="877.495" y="-1263.8" font-family="Times,serif" font-size="14.00">updated_at :datetime</text>
</g>
<!-- UserType&#45;&gt;User -->
<g id="edge85" class="edge"><title>UserType&#45;&gt;User</title>
<path fill="none" stroke="#aa14b8" d="M928.887,-1248.56C916.563,-1161.24 890.406,-976.257 868,-820 867.585,-817.108 867.166,-814.184 866.742,-811.237"/>
<ellipse fill="none" stroke="#aa14b8" cx="929.477" cy="-1252.74" rx="4.00001" ry="4.00001"/>
<polygon fill="#aa14b8" stroke="#aa14b8" points="866.713,-811.035 869.744,-800.496 866.001,-806.085 865.29,-801.136 865.29,-801.136 865.29,-801.136 866.001,-806.085 860.836,-801.777 866.713,-811.035 866.713,-811.035"/>
</g>
<!-- ActiveRecord::Base -->
<g id="node39" class="node"><title>ActiveRecord::Base</title>
<ellipse fill="none" stroke="black" cx="1410" cy="-1539" rx="80.9821" ry="18"/>
<text text-anchor="middle" x="1410" y="-1534.8" font-family="Times,serif" font-size="14.00">ActiveRecord::Base</text>
</g>
<!-- ActiveRecord::Base&#45;&gt;AccessToken -->
<g id="edge1" class="edge"><title>ActiveRecord::Base&#45;&gt;AccessToken</title>
<path fill="none" stroke="black" d="M1395.31,-1521.26C1376.97,-1498.6 1348,-1456.12 1348,-1414 1348,-1414 1348,-1414 1348,-863 1348,-792.415 1375.46,-598.248 1328,-546 1256.27,-467.035 1168.02,-581.812 1091,-508 1030.08,-449.621 1110.78,-383.482 1053,-322 1007.6,-273.695 821.613,-238.867 718.558,-222.85"/>
</g>
<!-- ActiveRecord::Base&#45;&gt;Action -->
<g id="edge4" class="edge"><title>ActiveRecord::Base&#45;&gt;Action</title>
<path fill="none" stroke="black" d="M1378.43,-1522.27C1361.3,-1514.58 1339.49,-1506.11 1319,-1502 1215.7,-1481.29 475.959,-1493.09 371,-1484 313.198,-1478.99 285.306,-1502.61 242,-1464 22.2877,-1268.12 100.617,-851.09 132.905,-717.271"/>
</g>
<!-- ActiveRecord::Base&#45;&gt;Activity -->
<g id="edge5" class="edge"><title>ActiveRecord::Base&#45;&gt;Activity</title>
<path fill="none" stroke="black" d="M1378.41,-1522.34C1361.28,-1514.66 1339.47,-1506.19 1319,-1502 1171.99,-1471.94 793.466,-1497.26 644,-1484 548.938,-1475.56 441,-1509.44 441,-1414 441,-1414 441,-1414 441,-673 441,-606.802 439.138,-588.387 417,-526 412.253,-512.622 405.899,-499.003 399.049,-486.113"/>
</g>
<!-- ActiveRecord::Base&#45;&gt;Affiliation -->
<g id="edge8" class="edge"><title>ActiveRecord::Base&#45;&gt;Affiliation</title>
<path fill="none" stroke="black" d="M1377.97,-1522.25C1360.9,-1514.65 1339.28,-1506.28 1319,-1502 1218.03,-1480.72 950.99,-1521.86 855,-1484 839.266,-1477.79 824.484,-1467.15 811.963,-1456.02"/>
</g>
<!-- ActiveRecord::Base&#45;&gt;Article -->
<g id="edge11" class="edge"><title>ActiveRecord::Base&#45;&gt;Article</title>
<path fill="none" stroke="black" d="M1490.17,-1536.11C1591.74,-1531.56 1756.59,-1516.12 1781,-1464 1795.26,-1433.56 1849.43,-660.16 1742,-546 1688.54,-489.187 1461.55,-545.241 1393,-508 1382.68,-502.393 1373.24,-494.722 1364.79,-486.184"/>
</g>
<!-- ActiveRecord::Base&#45;&gt;ArticleTheme -->
<g id="edge12" class="edge"><title>ActiveRecord::Base&#45;&gt;ArticleTheme</title>
<path fill="none" stroke="black" d="M1444.64,-1522.72C1482.55,-1503.36 1538,-1466.13 1538,-1414 1538,-1414 1538,-1414 1538,-863 1538,-574.215 1554.67,-227.883 1561.32,-101.353"/>
</g>
<!-- ActiveRecord::Base&#45;&gt;Canton -->
<g id="edge14" class="edge"><title>ActiveRecord::Base&#45;&gt;Canton</title>
<path fill="none" stroke="black" d="M1489.98,-1535.91C1690.3,-1530.27 2202.6,-1513.14 2274,-1484 2286.22,-1479.01 2297.89,-1471.41 2308.38,-1463.02"/>
</g>
<!-- ActiveRecord::Base&#45;&gt;Card -->
<g id="edge27" class="edge"><title>ActiveRecord::Base&#45;&gt;Card</title>
<path fill="none" stroke="black" d="M1375.03,-1522.63C1358.3,-1515.68 1337.85,-1507.75 1319,-1502 1243.28,-1478.92 1198.33,-1522.49 1145,-1464 1090.11,-1403.79 1076.92,-1314.2 1078.13,-1237.02"/>
</g>
<!-- ActiveRecord::Base&#45;&gt;CardAffiliation -->
<g id="edge28" class="edge"><title>ActiveRecord::Base&#45;&gt;CardAffiliation</title>
<path fill="none" stroke="black" d="M1377.98,-1522.25C1360.9,-1514.65 1339.28,-1506.27 1319,-1502 1251.35,-1487.76 743.921,-1515.67 698,-1464 600.913,-1354.75 658.027,-879.489 679.739,-724.251"/>
</g>
<!-- ActiveRecord::Base&#45;&gt;CardParent -->
<g id="edge29" class="edge"><title>ActiveRecord::Base&#45;&gt;CardParent</title>
<path fill="none" stroke="black" d="M1406.86,-1520.76C1388.24,-1418.37 1291.94,-889.04 1261.94,-724.118"/>
</g>
<!-- ActiveRecord::Base&#45;&gt;CardResponsable -->
<g id="edge30" class="edge"><title>ActiveRecord::Base&#45;&gt;CardResponsable</title>
<path fill="none" stroke="black" d="M1486.36,-1532.9C1564.86,-1526.36 1690.08,-1512.3 1795,-1484 1842.25,-1471.26 1880,-1462.94 1880,-1414 1880,-1414 1880,-1414 1880,-673 1880,-599.038 1855.08,-516.457 1836.59,-465.352"/>
</g>
<!-- ActiveRecord::Base&#45;&gt;CardType -->
<g id="edge32" class="edge"><title>ActiveRecord::Base&#45;&gt;CardType</title>
<path fill="none" stroke="black" d="M1385.29,-1521.79C1359.98,-1505.18 1319.56,-1478.67 1285.16,-1456.09"/>
</g>
<!-- ActiveRecord::Base&#45;&gt;CardUser -->
<g id="edge33" class="edge"><title>ActiveRecord::Base&#45;&gt;CardUser</title>
<path fill="none" stroke="black" d="M1376.98,-1522.51C1360.01,-1515.17 1338.78,-1506.95 1319,-1502 1218.5,-1476.83 1164.04,-1535.44 1089,-1464 1012.46,-1391.12 1034.56,-1341.87 1015,-1238 962.419,-958.832 963.756,-617.681 966.984,-479.057"/>
</g>
<!-- ActiveRecord::Base&#45;&gt;CardVerification -->
<g id="edge34" class="edge"><title>ActiveRecord::Base&#45;&gt;CardVerification</title>
<path fill="none" stroke="black" d="M1378.41,-1522.37C1361.27,-1514.7 1339.47,-1506.22 1319,-1502 1189.45,-1475.27 855.769,-1495.64 724,-1484 642.607,-1476.81 554,-1495.71 554,-1414 554,-1414 554,-1414 554,-673 554,-615.2 560.936,-599.825 582,-546 593.004,-517.881 609.549,-488.673 624.395,-465.082"/>
</g>
<!-- ActiveRecord::Base&#45;&gt;Connection -->
<g id="edge35" class="edge"><title>ActiveRecord::Base&#45;&gt;Connection</title>
<path fill="none" stroke="black" d="M1378.41,-1522.35C1361.28,-1514.68 1339.47,-1506.2 1319,-1502 1180.06,-1473.48 822.262,-1496.73 681,-1484 601.662,-1476.85 516,-1493.66 516,-1414 516,-1414 516,-1414 516,-673 516,-600.674 512.396,-516.97 509.749,-465.251"/>
</g>
<!-- ActiveRecord::Base&#45;&gt;Disponibility -->
<g id="edge38" class="edge"><title>ActiveRecord::Base&#45;&gt;Disponibility</title>
<path fill="none" stroke="black" d="M1490.81,-1536.8C1653.26,-1533.57 2007.22,-1522.2 2046,-1484 2260.7,-1272.52 2173.62,-851.098 2138.8,-717.002"/>
</g>
<!-- ActiveRecord::Base&#45;&gt;Document -->
<g id="edge39" class="edge"><title>ActiveRecord::Base&#45;&gt;Document</title>
<path fill="none" stroke="black" d="M1490.27,-1536.31C1642.04,-1530.91 1956,-1508.35 1956,-1414 1956,-1414 1956,-1414 1956,-414 1956,-369.386 1942.84,-321.242 1929.17,-283.26"/>
</g>
<!-- ActiveRecord::Base&#45;&gt;Element -->
<g id="edge41" class="edge"><title>ActiveRecord::Base&#45;&gt;Element</title>
<path fill="none" stroke="black" d="M1378.43,-1522.27C1361.3,-1514.58 1339.49,-1506.11 1319,-1502 1210.42,-1480.22 409.296,-1533.41 323,-1464 153.416,-1327.6 203.358,-1019.46 228.529,-907.053"/>
</g>
<!-- ActiveRecord::Base&#45;&gt;Location -->
<g id="edge42" class="edge"><title>ActiveRecord::Base&#45;&gt;Location</title>
<path fill="none" stroke="black" d="M1491.46,-1538.51C1722.45,-1539.1 2368.96,-1534.38 2430,-1464 2468.02,-1420.17 2441.44,-1258.22 2420.82,-1160.13"/>
</g>
<!-- ActiveRecord::Base&#45;&gt;Orator -->
<g id="edge46" class="edge"><title>ActiveRecord::Base&#45;&gt;Orator</title>
<path fill="none" stroke="black" d="M1489.75,-1535.58C1643.23,-1530.22 1968.1,-1515.31 2008,-1484 2033.88,-1463.7 2032,-1446.89 2032,-1414 2032,-1414 2032,-1414 2032,-673 2032,-614.273 2046.36,-549.749 2060.67,-500.045"/>
</g>
<!-- ActiveRecord::Base&#45;&gt;OratorDisponibility -->
<g id="edge47" class="edge"><title>ActiveRecord::Base&#45;&gt;OratorDisponibility</title>
<path fill="none" stroke="black" d="M1491.11,-1538.29C1615.16,-1537.15 1858.82,-1528.73 2060,-1484 2136.56,-1466.98 2222,-1492.43 2222,-1414 2222,-1414 2222,-1414 2222,-414 2222,-360.271 2200.71,-302.211 2182.5,-262.373"/>
</g>
<!-- ActiveRecord::Base&#45;&gt;OratorTheme -->
<g id="edge48" class="edge"><title>ActiveRecord::Base&#45;&gt;OratorTheme</title>
<path fill="none" stroke="black" d="M1486.89,-1533.21C1611.45,-1525.14 1865,-1507.38 2079,-1484 2164.74,-1474.63 2260,-1500.25 2260,-1414 2260,-1414 2260,-1414 2260,-211 2260,-178.334 2261.95,-165.064 2241,-140 2210.4,-103.385 2161.12,-81.0629 2120.83,-68.0654"/>
</g>
<!-- ActiveRecord::Base&#45;&gt;Ownership -->
<g id="edge51" class="edge"><title>ActiveRecord::Base&#45;&gt;Ownership</title>
<path fill="none" stroke="black" d="M1378.42,-1522.3C1361.29,-1514.61 1339.48,-1506.14 1319,-1502 1142.31,-1466.28 686.286,-1510.65 508,-1484 452.53,-1475.71 403,-1470.09 403,-1414 403,-1414 403,-1414 403,-673 403,-651.227 329.135,-568.732 266.812,-503.002"/>
</g>
<!-- ActiveRecord::Base&#45;&gt;OwnershipAction -->
<g id="edge52" class="edge"><title>ActiveRecord::Base&#45;&gt;OwnershipAction</title>
<path fill="none" stroke="black" d="M1378.43,-1522.26C1361.3,-1514.56 1339.49,-1506.09 1319,-1502 1204.35,-1479.13 383.311,-1495.78 267,-1484 158.151,-1472.97 31,-1523.41 31,-1414 31,-1414 31,-1414 31,-414 31,-361.439 43.7007,-302.472 54.4169,-262.073"/>
</g>
<!-- ActiveRecord::Base&#45;&gt;OwnershipType -->
<g id="edge54" class="edge"><title>ActiveRecord::Base&#45;&gt;OwnershipType</title>
<path fill="none" stroke="black" d="M1378.43,-1522.28C1361.3,-1514.58 1339.49,-1506.11 1319,-1502 1268.33,-1491.83 431.143,-1513.91 389,-1484 343.946,-1452.03 328.698,-1386.58 323.565,-1343.25"/>
</g>
<!-- ActiveRecord::Base&#45;&gt;Page -->
<g id="edge55" class="edge"><title>ActiveRecord::Base&#45;&gt;Page</title>
<path fill="none" stroke="black" d="M1490.8,-1536.88C1721.89,-1533.24 2374.68,-1519.87 2464,-1484 2476.25,-1479.08 2487.93,-1471.51 2498.42,-1463.13"/>
</g>
<!-- ActiveRecord::Base&#45;&gt;Parent -->
<g id="edge56" class="edge"><title>ActiveRecord::Base&#45;&gt;Parent</title>
<path fill="none" stroke="black" d="M1470.94,-1527.1C1563.27,-1508.83 1728,-1468.59 1728,-1414 1728,-1414 1728,-1414 1728,-863 1728,-792.415 1757.45,-596.367 1708,-546 1635.21,-471.861 1333.96,-556.356 1242,-508 1223.4,-498.217 1207.71,-481.625 1195.57,-465.202"/>
</g>
<!-- ActiveRecord::Base&#45;&gt;Responsable -->
<g id="edge59" class="edge"><title>ActiveRecord::Base&#45;&gt;Responsable</title>
<path fill="none" stroke="black" d="M1476.09,-1528.52C1503.82,-1521.07 1533.8,-1507.77 1552,-1484 1727.95,-1254.27 1674.05,-873.696 1645.59,-731.178"/>
</g>
<!-- ActiveRecord::Base&#45;&gt;Subject -->
<g id="edge63" class="edge"><title>ActiveRecord::Base&#45;&gt;Subject</title>
<path fill="none" stroke="black" d="M1485.16,-1532.02C1577.48,-1523.82 1728.11,-1507.37 1779,-1484 1817.04,-1466.53 1842,-1455.86 1842,-1414 1842,-1414 1842,-1414 1842,-863 1842,-721.741 1883.51,-671.67 1819,-546 1800.29,-509.546 1769.14,-530.658 1735,-508 1720.67,-498.492 1707.65,-485.478 1696.58,-472.232"/>
</g>
<!-- ActiveRecord::Base&#45;&gt;SubjectTheme -->
<g id="edge64" class="edge"><title>ActiveRecord::Base&#45;&gt;SubjectTheme</title>
<path fill="none" stroke="black" d="M1490.9,-1537.5C1651.23,-1534.32 1994,-1515.64 1994,-1414 1994,-1414 1994,-1414 1994,-211 1994,-178.216 1996.03,-164.275 1974,-140 1932.75,-94.5581 1865.22,-72.335 1814.7,-61.6218"/>
</g>
<!-- ActiveRecord::Base&#45;&gt;Tag -->
<g id="edge66" class="edge"><title>ActiveRecord::Base&#45;&gt;Tag</title>
<path fill="none" stroke="black" d="M1410.66,-1520.76C1414.57,-1418.37 1434.82,-889.04 1441.12,-724.118"/>
</g>
<!-- ActiveRecord::Base&#45;&gt;Tagging -->
<g id="edge67" class="edge"><title>ActiveRecord::Base&#45;&gt;Tagging</title>
<path fill="none" stroke="black" d="M1490.37,-1536.21C1577.85,-1532.4 1709.63,-1520.56 1742,-1484 1812.61,-1404.24 1851.82,-604.679 1780,-526 1750.36,-493.532 1623.74,-524.512 1583,-508 1558.84,-498.208 1535.75,-481.509 1516.75,-465.003"/>
</g>
<!-- ActiveRecord::Base&#45;&gt;Theme -->
<g id="edge71" class="edge"><title>ActiveRecord::Base&#45;&gt;Theme</title>
<path fill="none" stroke="black" d="M1483.92,-1531.4C1564.99,-1523.38 1698.65,-1507.9 1812,-1484 1867.24,-1472.35 1918,-1470.46 1918,-1414 1918,-1414 1918,-1414 1918,-526 1918,-434.941 1950.42,-397.154 1899,-322 1877.68,-290.832 1853.94,-305.66 1823,-284 1813.75,-277.521 1804.51,-269.931 1795.83,-262.17"/>
</g>
<!-- ActiveRecord::Base&#45;&gt;User -->
<g id="edge84" class="edge"><title>ActiveRecord::Base&#45;&gt;User</title>
<path fill="none" stroke="black" d="M1377.94,-1522.4C1360.86,-1514.84 1339.24,-1506.45 1319,-1502 1235.9,-1483.72 1004.3,-1517.33 938,-1464 744.601,-1308.44 778.18,-981.567 815.163,-801.196"/>
</g>
<!-- ActiveRecord::Base&#45;&gt;UserType -->
<g id="edge86" class="edge"><title>ActiveRecord::Base&#45;&gt;UserType</title>
<path fill="none" stroke="black" d="M1377.94,-1522.4C1360.86,-1514.85 1339.24,-1506.46 1319,-1502 1284.76,-1494.46 1032.2,-1504.82 1004,-1484 959.694,-1451.28 944.237,-1386.37 938.856,-1343.31"/>
</g>
<!-- ActiveRecord::Base&#45;&gt;VerificatorComment -->
<g id="edge87" class="edge"><title>ActiveRecord::Base&#45;&gt;VerificatorComment</title>
<path fill="none" stroke="black" d="M1378.41,-1522.37C1361.27,-1514.71 1339.46,-1506.23 1319,-1502 1194.03,-1476.14 871.641,-1499.76 745,-1484 670.794,-1474.76 592,-1488.78 592,-1414 592,-1414 592,-1414 592,-863 592,-792.429 567.489,-601.561 611,-546 646.015,-501.287 685.846,-539.651 733,-508 747.277,-498.417 760.286,-485.377 771.347,-472.129"/>
</g>
<!-- Object -->
<g id="node40" class="node"><title>Object</title>
<ellipse fill="none" stroke="black" cx="2669" cy="-1539" rx="33.5181" ry="18"/>
<text text-anchor="middle" x="2669" y="-1534.8" font-family="Times,serif" font-size="14.00">Object</text>
</g>
<!-- Object&#45;&gt;Permission -->
<g id="edge57" class="edge"><title>Object&#45;&gt;Permission</title>
<path fill="none" stroke="black" d="M2669,-1520.76C2669,-1498.4 2669,-1459.41 2669,-1435.25"/>
</g>
</g>
</svg>
