<?xml version="1.0" encoding="UTF-8" standalone="no"?>
<!DOCTYPE svg PUBLIC "-//W3C//DTD SVG 1.1//EN"
 "http://www.w3.org/Graphics/SVG/1.1/DTD/svg11.dtd">
<!-- Generated by graphviz version 2.36.0 (20140111.2315)
 -->
<!-- Title: models_diagram Pages: 1 -->
<svg width="1932pt" height="514pt"
 viewBox="0.00 0.00 1932.00 514.00" xmlns="http://www.w3.org/2000/svg" xmlns:xlink="http://www.w3.org/1999/xlink">
<g id="graph0" class="graph" transform="scale(1 1) rotate(0) translate(4 510)">
<title>models_diagram</title>
<polygon fill="white" stroke="none" points="-4,4 -4,-510 1928,-510 1928,4 -4,4"/>
<!-- _diagram_info -->
<g id="node1" class="node"><title>_diagram_info</title>
<text text-anchor="start" x="677.312" y="-491.1" font-family="Times,serif" font-size="13.00">Models diagram</text>
<text text-anchor="start" x="677.312" y="-478.1" font-family="Times,serif" font-size="13.00">Date: Feb 27 2014 &#45; 15:31</text>
<text text-anchor="start" x="677.312" y="-465.1" font-family="Times,serif" font-size="13.00">Migration version: 20140222095137</text>
<text text-anchor="start" x="677.312" y="-452.1" font-family="Times,serif" font-size="13.00">Generated by RailRoady 1.1.1</text>
<text text-anchor="start" x="677.312" y="-439.1" font-family="Times,serif" font-size="13.00">http://railroady.prestonlee.com</text>
</g>
<!-- AccessToken -->
<g id="node2" class="node"><title>AccessToken</title>
<ellipse fill="none" stroke="black" cx="318" cy="-90" rx="57.19" ry="18"/>
<text text-anchor="middle" x="318" y="-85.8" font-family="Times,serif" font-size="14.00">AccessToken</text>
</g>
<!-- Action -->
<g id="node3" class="node"><title>Action</title>
<ellipse fill="none" stroke="black" cx="34" cy="-234" rx="34.2643" ry="18"/>
<text text-anchor="middle" x="34" y="-229.8" font-family="Times,serif" font-size="14.00">Action</text>
</g>
<!-- Ownership -->
<g id="node18" class="node"><title>Ownership</title>
<ellipse fill="none" stroke="black" cx="202" cy="-162" rx="48.3713" ry="18"/>
<text text-anchor="middle" x="202" y="-157.8" font-family="Times,serif" font-size="14.00">Ownership</text>
</g>
<!-- Action&#45;&gt;Ownership -->
<g id="edge3" class="edge"><title>Action&#45;&gt;Ownership</title>
<path fill="none" stroke="#c1a3a3" d="M69.1633,-218.349C96.0682,-207.138 133.214,-191.661 161.386,-179.922"/>
<polygon fill="#c1a3a3" stroke="#c1a3a3" points="69.1126,-218.37 58.151,-218.062 64.4972,-220.293 59.8818,-222.216 59.8818,-222.216 59.8818,-222.216 64.4972,-220.293 61.6126,-226.37 69.1126,-218.37 69.1126,-218.37"/>
<polygon fill="#c1a3a3" stroke="#c1a3a3" points="161.714,-179.786 172.676,-180.093 166.33,-177.863 170.945,-175.939 170.945,-175.939 170.945,-175.939 166.33,-177.863 169.214,-171.786 161.714,-179.786 161.714,-179.786"/>
</g>
<!-- OwnershipAction -->
<g id="node19" class="node"><title>OwnershipAction</title>
<ellipse fill="none" stroke="black" cx="96" cy="-90" rx="72.4741" ry="18"/>
<text text-anchor="middle" x="96" y="-85.8" font-family="Times,serif" font-size="14.00">OwnershipAction</text>
</g>
<!-- Action&#45;&gt;OwnershipAction -->
<g id="edge2" class="edge"><title>Action&#45;&gt;OwnershipAction</title>
<path fill="none" stroke="#f67b58" d="M44.6533,-208.6C55.723,-183.247 72.9922,-143.695 84.4004,-117.567"/>
<ellipse fill="none" stroke="#f67b58" cx="42.9563" cy="-212.487" rx="4.00002" ry="4.00002"/>
<polygon fill="#f67b58" stroke="#f67b58" points="84.4591,-117.432 92.5846,-110.068 86.4598,-112.85 88.4605,-108.268 88.4605,-108.268 88.4605,-108.268 86.4598,-112.85 84.3365,-106.467 84.4591,-117.432 84.4591,-117.432"/>
</g>
<!-- Activity -->
<g id="node4" class="node"><title>Activity</title>
<ellipse fill="none" stroke="black" cx="458" cy="-162" rx="39.135" ry="18"/>
<text text-anchor="middle" x="458" y="-157.8" font-family="Times,serif" font-size="14.00">Activity</text>
</g>
<!-- Affiliation -->
<g id="node5" class="node"><title>Affiliation</title>
<ellipse fill="none" stroke="black" cx="829" cy="-378" rx="46.4303" ry="18"/>
<text text-anchor="middle" x="829" y="-373.8" font-family="Times,serif" font-size="14.00">Affiliation</text>
</g>
<!-- Card -->
<g id="node7" class="node"><title>Card</title>
<ellipse fill="none" stroke="black" cx="922" cy="-306" rx="26.9483" ry="18"/>
<text text-anchor="middle" x="922" y="-301.8" font-family="Times,serif" font-size="14.00">Card</text>
</g>
<!-- Affiliation&#45;&gt;Card -->
<g id="edge7" class="edge"><title>Affiliation&#45;&gt;Card</title>
<path fill="none" stroke="#be9b58" d="M857.779,-355.338C870.093,-346.07 884.355,-335.335 896.308,-326.338"/>
<polygon fill="#be9b58" stroke="#be9b58" points="857.629,-355.451 846.934,-357.869 853.635,-358.458 849.64,-361.465 849.64,-361.465 849.64,-361.465 853.635,-358.458 852.346,-365.06 857.629,-355.451 857.629,-355.451"/>
<polygon fill="#be9b58" stroke="#be9b58" points="896.552,-326.155 907.248,-323.736 900.547,-323.148 904.542,-320.141 904.542,-320.141 904.542,-320.141 900.547,-323.148 901.835,-316.545 896.552,-326.155 896.552,-326.155"/>
</g>
<!-- CardAffiliation -->
<g id="node8" class="node"><title>CardAffiliation</title>
<ellipse fill="none" stroke="black" cx="754" cy="-234" rx="64.2154" ry="18"/>
<text text-anchor="middle" x="754" y="-229.8" font-family="Times,serif" font-size="14.00">CardAffiliation</text>
</g>
<!-- Affiliation&#45;&gt;CardAffiliation -->
<g id="edge6" class="edge"><title>Affiliation&#45;&gt;CardAffiliation</title>
<path fill="none" stroke="#6ac6d0" d="M816.306,-352.966C802.872,-327.531 781.736,-287.514 767.872,-261.264"/>
<ellipse fill="none" stroke="#6ac6d0" cx="818.234" cy="-356.616" rx="4.00002" ry="4.00002"/>
<polygon fill="#6ac6d0" stroke="#6ac6d0" points="767.791,-261.11 767.099,-250.166 765.455,-256.689 763.12,-252.268 763.12,-252.268 763.12,-252.268 765.455,-256.689 759.141,-254.369 767.791,-261.11 767.791,-261.11"/>
</g>
<!-- Canton -->
<g id="node6" class="node"><title>Canton</title>
<ellipse fill="none" stroke="black" cx="1682" cy="-378" rx="35.4783" ry="18"/>
<text text-anchor="middle" x="1682" y="-373.8" font-family="Times,serif" font-size="14.00">Canton</text>
</g>
<!-- Location -->
<g id="node14" class="node"><title>Location</title>
<ellipse fill="none" stroke="black" cx="1717" cy="-306" rx="41.3072" ry="18"/>
<text text-anchor="middle" x="1717" y="-301.8" font-family="Times,serif" font-size="14.00">Location</text>
</g>
<!-- Canton&#45;&gt;Location -->
<g id="edge9" class="edge"><title>Canton&#45;&gt;Location</title>
<path fill="none" stroke="#5f3a31" d="M1693.97,-353.062C1697.18,-346.632 1700.68,-339.647 1703.95,-333.106"/>
<ellipse fill="none" stroke="#5f3a31" cx="1692.08" cy="-356.833" rx="4.00002" ry="4.00002"/>
<polygon fill="#5f3a31" stroke="#5f3a31" points="1704.05,-332.9 1712.55,-325.969 1706.29,-328.428 1708.52,-323.956 1708.52,-323.956 1708.52,-323.956 1706.29,-328.428 1704.5,-321.944 1704.05,-332.9 1704.05,-332.9"/>
</g>
<!-- Card&#45;&gt;Card -->
<g id="edge19" class="edge"><title>Card&#45;&gt;Card</title>
<path fill="none" stroke="#a77c32" d="M950.098,-319.5C959.485,-319.509 967,-315.009 967,-306 967,-296.991 959.485,-292.491 950.098,-292.5"/>
<ellipse fill="none" stroke="#a77c32" cx="945.862" cy="-318.949" rx="4.00001" ry="4.00001"/>
<ellipse fill="#a77c32" stroke="#a77c32" cx="945.862" cy="-293.051" rx="4.00001" ry="4.00001"/>
</g>
<!-- Card&#45;&gt;CardAffiliation -->
<g id="edge15" class="edge"><title>Card&#45;&gt;CardAffiliation</title>
<path fill="none" stroke="#a3c583" d="M892.279,-292.616C866.038,-281.683 827.437,-265.599 797.683,-253.201"/>
<ellipse fill="none" stroke="#a3c583" cx="895.999" cy="-294.166" rx="4.00002" ry="4.00002"/>
<polygon fill="#a3c583" stroke="#a3c583" points="797.591,-253.163 790.091,-245.163 792.976,-251.24 788.361,-249.317 788.361,-249.317 788.361,-249.317 792.976,-251.24 786.63,-253.471 797.591,-253.163 797.591,-253.163"/>
</g>
<!-- CardResponsable -->
<g id="node9" class="node"><title>CardResponsable</title>
<ellipse fill="none" stroke="black" cx="1043" cy="-162" rx="71.4972" ry="18"/>
<text text-anchor="middle" x="1043" y="-157.8" font-family="Times,serif" font-size="14.00">CardResponsable</text>
</g>
<!-- Card&#45;&gt;CardResponsable -->
<g id="edge11" class="edge"><title>Card&#45;&gt;CardResponsable</title>
<path fill="none" stroke="#dec0cb" d="M923.504,-279.783C925.813,-260.533 931.597,-234.29 946,-216 957.921,-200.862 975.412,-189.446 992.271,-181.16"/>
<ellipse fill="none" stroke="#dec0cb" cx="923.093" cy="-283.842" rx="4" ry="4"/>
<polygon fill="#dec0cb" stroke="#dec0cb" points="992.456,-181.075 1003.42,-180.96 996.994,-178.975 1001.53,-176.876 1001.53,-176.876 1001.53,-176.876 996.994,-178.975 999.642,-172.792 992.456,-181.075 992.456,-181.075"/>
</g>
<!-- CardVerification -->
<g id="node11" class="node"><title>CardVerification</title>
<ellipse fill="none" stroke="black" cx="584" cy="-162" rx="68.3347" ry="18"/>
<text text-anchor="middle" x="584" y="-157.8" font-family="Times,serif" font-size="14.00">CardVerification</text>
</g>
<!-- Card&#45;&gt;CardVerification -->
<g id="edge13" class="edge"><title>Card&#45;&gt;CardVerification</title>
<path fill="none" stroke="#4f319f" d="M900.493,-285.09C889.8,-275.169 876.696,-262.977 865,-252 848.037,-236.079 847.571,-226.866 827,-216 760.248,-180.74 734.748,-196.138 661,-180 655.651,-178.829 650.093,-177.61 644.523,-176.385"/>
<ellipse fill="none" stroke="#4f319f" cx="903.547" cy="-287.923" rx="4.00002" ry="4.00002"/>
<polygon fill="#4f319f" stroke="#4f319f" points="644.291,-176.334 635.493,-169.788 639.408,-175.258 634.525,-174.183 634.525,-174.183 634.525,-174.183 639.408,-175.258 633.558,-178.578 644.291,-176.334 644.291,-176.334"/>
</g>
<!-- Responsable -->
<g id="node26" class="node"><title>Responsable</title>
<ellipse fill="none" stroke="black" cx="1043" cy="-234" rx="54.2137" ry="18"/>
<text text-anchor="middle" x="1043" y="-229.8" font-family="Times,serif" font-size="14.00">Responsable</text>
</g>
<!-- Card&#45;&gt;Responsable -->
<g id="edge12" class="edge"><title>Card&#45;&gt;Responsable</title>
<path fill="none" stroke="#cf2b8c" d="M950.443,-288.545C967.669,-278.58 989.771,-265.794 1008.06,-255.215"/>
<polygon fill="#cf2b8c" stroke="#cf2b8c" points="950.366,-288.59 939.457,-289.702 946.038,-291.094 941.71,-293.597 941.71,-293.597 941.71,-293.597 946.038,-291.094 943.963,-297.493 950.366,-288.59 950.366,-288.59"/>
<polygon fill="#cf2b8c" stroke="#cf2b8c" points="1008.3,-255.075 1019.21,-253.962 1012.63,-252.571 1016.96,-250.067 1016.96,-250.067 1016.96,-250.067 1012.63,-252.571 1014.7,-246.172 1008.3,-255.075 1008.3,-255.075"/>
</g>
<!-- Tag -->
<g id="node27" class="node"><title>Tag</title>
<ellipse fill="none" stroke="black" cx="1181" cy="-234" rx="27" ry="18"/>
<text text-anchor="middle" x="1181" y="-229.8" font-family="Times,serif" font-size="14.00">Tag</text>
</g>
<!-- Card&#45;&gt;Tag -->
<g id="edge17" class="edge"><title>Card&#45;&gt;Tag</title>
<path fill="none" stroke="#147c8c" d="M956.801,-295.594C1006.38,-282.194 1096.82,-257.752 1146.33,-244.371"/>
<polygon fill="#147c8c" stroke="#147c8c" points="956.488,-295.679 945.66,-293.944 951.661,-296.984 946.834,-298.288 946.834,-298.288 946.834,-298.288 951.661,-296.984 948.008,-302.632 956.488,-295.679 956.488,-295.679"/>
<polygon fill="#147c8c" stroke="#147c8c" points="1146.59,-244.301 1157.42,-246.036 1151.41,-242.996 1156.24,-241.692 1156.24,-241.692 1156.24,-241.692 1151.41,-242.996 1155.07,-237.347 1146.59,-244.301 1146.59,-244.301"/>
</g>
<!-- Tagging -->
<g id="node28" class="node"><title>Tagging</title>
<ellipse fill="none" stroke="black" cx="1181" cy="-162" rx="38.4411" ry="18"/>
<text text-anchor="middle" x="1181" y="-157.8" font-family="Times,serif" font-size="14.00">Tagging</text>
</g>
<!-- Card&#45;&gt;Tagging -->
<g id="edge16" class="edge"><title>Card&#45;&gt;Tagging</title>
<path fill="none" stroke="#108c99" d="M931.431,-280.778C940.58,-260.461 956.406,-232.235 979,-216 1032.57,-177.505 1059.33,-197.281 1123,-180 1128.38,-178.54 1134.02,-176.953 1139.59,-175.356"/>
<ellipse fill="none" stroke="#108c99" cx="929.838" cy="-284.464" rx="4.00002" ry="4.00002"/>
<polygon fill="#108c99" stroke="#108c99" points="1139.85,-175.281 1150.71,-176.817 1144.66,-173.888 1149.46,-172.495 1149.46,-172.495 1149.46,-172.495 1144.66,-173.888 1148.2,-168.173 1139.85,-175.281 1139.85,-175.281"/>
</g>
<!-- User -->
<g id="node30" class="node"><title>User</title>
<ellipse fill="none" stroke="black" cx="551" cy="-234" rx="27" ry="18"/>
<text text-anchor="middle" x="551" y="-229.8" font-family="Times,serif" font-size="14.00">User</text>
</g>
<!-- Card&#45;&gt;User -->
<g id="edge14" class="edge"><title>Card&#45;&gt;User</title>
<path fill="none" stroke="#08f55c" d="M886.359,-298.275C815.539,-284.913 657.833,-255.157 586.846,-241.763"/>
<polygon fill="#08f55c" stroke="#08f55c" points="886.38,-298.279 895.372,-304.555 891.293,-299.206 896.207,-300.133 896.207,-300.133 896.207,-300.133 891.293,-299.206 897.041,-295.711 886.38,-298.279 886.38,-298.279"/>
<polygon fill="#08f55c" stroke="#08f55c" points="586.449,-241.689 577.457,-235.412 581.536,-240.762 576.623,-239.834 576.623,-239.834 576.623,-239.834 581.536,-240.762 575.788,-244.256 586.449,-241.689 586.449,-241.689"/>
</g>
<!-- VerificatorComment -->
<g id="node32" class="node"><title>VerificatorComment</title>
<ellipse fill="none" stroke="black" cx="836" cy="-162" rx="81.9719" ry="18"/>
<text text-anchor="middle" x="836" y="-157.8" font-family="Times,serif" font-size="14.00">VerificatorComment</text>
</g>
<!-- Card&#45;&gt;VerificatorComment -->
<g id="edge18" class="edge"><title>Card&#45;&gt;VerificatorComment</title>
<path fill="none" stroke="#e1398f" d="M907.965,-281.825C892.499,-256.289 867.691,-215.327 851.62,-188.791"/>
<ellipse fill="none" stroke="#e1398f" cx="910.23" cy="-285.565" rx="4.00002" ry="4.00002"/>
<polygon fill="#e1398f" stroke="#e1398f" points="851.51,-188.609 850.179,-177.725 848.92,-184.333 846.33,-180.056 846.33,-180.056 846.33,-180.056 848.92,-184.333 842.48,-182.387 851.51,-188.609 851.51,-188.609"/>
</g>
<!-- CardType -->
<g id="node10" class="node"><title>CardType</title>
<ellipse fill="none" stroke="black" cx="939" cy="-378" rx="44.2773" ry="18"/>
<text text-anchor="middle" x="939" y="-373.8" font-family="Times,serif" font-size="14.00">CardType</text>
</g>
<!-- CardType&#45;&gt;Card -->
<g id="edge23" class="edge"><title>CardType&#45;&gt;Card</title>
<path fill="none" stroke="#8283ec" d="M932.994,-352.267C931.589,-346.485 930.085,-340.291 928.654,-334.4"/>
<ellipse fill="none" stroke="#8283ec" cx="933.941" cy="-356.168" rx="4.00001" ry="4.00001"/>
<polygon fill="#8283ec" stroke="#8283ec" points="928.555,-333.993 930.568,-323.213 927.375,-329.134 926.195,-324.275 926.195,-324.275 926.195,-324.275 927.375,-329.134 921.823,-325.337 928.555,-333.993 928.555,-333.993"/>
</g>
<!-- Disponibility -->
<g id="node12" class="node"><title>Disponibility</title>
<ellipse fill="none" stroke="black" cx="1359" cy="-234" rx="56.1805" ry="18"/>
<text text-anchor="middle" x="1359" y="-229.8" font-family="Times,serif" font-size="14.00">Disponibility</text>
</g>
<!-- Orator -->
<g id="node15" class="node"><title>Orator</title>
<ellipse fill="none" stroke="black" cx="1420" cy="-162" rx="33.2811" ry="18"/>
<text text-anchor="middle" x="1420" y="-157.8" font-family="Times,serif" font-size="14.00">Orator</text>
</g>
<!-- Disponibility&#45;&gt;Orator -->
<g id="edge27" class="edge"><title>Disponibility&#45;&gt;Orator</title>
<path fill="none" stroke="#810017" d="M1380.16,-208.723C1386.43,-201.52 1393.29,-193.646 1399.53,-186.493"/>
<polygon fill="#810017" stroke="#810017" points="1380.03,-208.872 1370.06,-213.455 1376.74,-212.641 1373.46,-216.411 1373.46,-216.411 1373.46,-216.411 1376.74,-212.641 1376.85,-219.367 1380.03,-208.872 1380.03,-208.872"/>
<polygon fill="#810017" stroke="#810017" points="1399.91,-186.05 1409.88,-181.467 1403.2,-182.28 1406.48,-178.511 1406.48,-178.511 1406.48,-178.511 1403.2,-182.28 1403.09,-175.554 1399.91,-186.05 1399.91,-186.05"/>
</g>
<!-- OratorDisponibility -->
<g id="node16" class="node"><title>OratorDisponibility</title>
<ellipse fill="none" stroke="black" cx="1324" cy="-90" rx="79.2995" ry="18"/>
<text text-anchor="middle" x="1324" y="-85.8" font-family="Times,serif" font-size="14.00">OratorDisponibility</text>
</g>
<!-- Disponibility&#45;&gt;OratorDisponibility -->
<g id="edge26" class="edge"><title>Disponibility&#45;&gt;OratorDisponibility</title>
<path fill="none" stroke="#45ac1e" d="M1352.82,-207.929C1346.61,-182.725 1337.06,-143.994 1330.68,-118.095"/>
<ellipse fill="none" stroke="#45ac1e" cx="1353.82" cy="-211.988" rx="4.00001" ry="4.00001"/>
<polygon fill="#45ac1e" stroke="#45ac1e" points="1330.63,-117.899 1332.61,-107.112 1329.43,-113.044 1328.24,-108.189 1328.24,-108.189 1328.24,-108.189 1329.43,-113.044 1323.87,-109.266 1330.63,-117.899 1330.63,-117.899"/>
</g>
<!-- Element -->
<g id="node13" class="node"><title>Element</title>
<ellipse fill="none" stroke="black" cx="202" cy="-306" rx="39.3599" ry="18"/>
<text text-anchor="middle" x="202" y="-301.8" font-family="Times,serif" font-size="14.00">Element</text>
</g>
<!-- Element&#45;&gt;Ownership -->
<g id="edge29" class="edge"><title>Element&#45;&gt;Ownership</title>
<path fill="none" stroke="#b8d28c" d="M202,-279.558C202,-254.444 202,-216.164 202,-190.393"/>
<ellipse fill="none" stroke="#b8d28c" cx="202" cy="-283.871" rx="4" ry="4"/>
<polygon fill="#b8d28c" stroke="#b8d28c" points="202,-190.189 206.5,-180.189 202,-185.189 202,-180.189 202,-180.189 202,-180.189 202,-185.189 197.5,-180.189 202,-190.189 202,-190.189"/>
</g>
<!-- Orator&#45;&gt;OratorDisponibility -->
<g id="edge34" class="edge"><title>Orator&#45;&gt;OratorDisponibility</title>
<path fill="none" stroke="#a95967" d="M1394.49,-142.397C1382.28,-133.496 1367.57,-122.768 1354.75,-113.42"/>
<ellipse fill="none" stroke="#a95967" cx="1397.8" cy="-144.814" rx="4.00002" ry="4.00002"/>
<polygon fill="#a95967" stroke="#a95967" points="1354.72,-113.402 1349.29,-103.874 1350.68,-110.456 1346.64,-107.51 1346.64,-107.51 1346.64,-107.51 1350.68,-110.456 1343.99,-111.146 1354.72,-113.402 1354.72,-113.402"/>
</g>
<!-- OratorTheme -->
<g id="node17" class="node"><title>OratorTheme</title>
<ellipse fill="none" stroke="black" cx="1495" cy="-18" rx="57.6091" ry="18"/>
<text text-anchor="middle" x="1495" y="-13.8" font-family="Times,serif" font-size="14.00">OratorTheme</text>
</g>
<!-- Orator&#45;&gt;OratorTheme -->
<g id="edge32" class="edge"><title>Orator&#45;&gt;OratorTheme</title>
<path fill="none" stroke="#8cb0b9" d="M1426.15,-135.893C1431.26,-117.48 1439.56,-92.2626 1451,-72 1456.76,-61.7947 1464.56,-51.6359 1471.99,-42.9836"/>
<ellipse fill="none" stroke="#8cb0b9" cx="1425.06" cy="-139.968" rx="4.00001" ry="4.00001"/>
<polygon fill="#8cb0b9" stroke="#8cb0b9" points="1472,-42.9756 1482.01,-38.4934 1475.32,-39.2393 1478.64,-35.503 1478.64,-35.503 1478.64,-35.503 1475.32,-39.2393 1475.28,-32.5125 1472,-42.9756 1472,-42.9756"/>
</g>
<!-- Theme -->
<g id="node29" class="node"><title>Theme</title>
<ellipse fill="none" stroke="black" cx="1495" cy="-90" rx="34.4885" ry="18"/>
<text text-anchor="middle" x="1495" y="-85.8" font-family="Times,serif" font-size="14.00">Theme</text>
</g>
<!-- Orator&#45;&gt;Theme -->
<g id="edge33" class="edge"><title>Orator&#45;&gt;Theme</title>
<path fill="none" stroke="#df7d6d" d="M1443.48,-139.09C1452.37,-130.786 1462.5,-121.334 1471.41,-113.021"/>
<polygon fill="#df7d6d" stroke="#df7d6d" points="1443.22,-139.332 1432.84,-142.865 1439.56,-142.743 1435.91,-146.155 1435.91,-146.155 1435.91,-146.155 1439.56,-142.743 1438.98,-149.445 1443.22,-139.332 1443.22,-139.332"/>
<polygon fill="#df7d6d" stroke="#df7d6d" points="1471.55,-112.888 1481.93,-109.355 1475.2,-109.477 1478.86,-106.065 1478.86,-106.065 1478.86,-106.065 1475.2,-109.477 1475.79,-102.775 1471.55,-112.888 1471.55,-112.888"/>
</g>
<!-- Ownership&#45;&gt;AccessToken -->
<g id="edge39" class="edge"><title>Ownership&#45;&gt;AccessToken</title>
<path fill="none" stroke="#3d7f7d" d="M233.43,-142.034C248.924,-132.684 267.645,-121.387 283.53,-111.801"/>
<ellipse fill="none" stroke="#3d7f7d" cx="229.742" cy="-144.259" rx="4.00002" ry="4.00002"/>
<polygon fill="#3d7f7d" stroke="#3d7f7d" points="283.948,-111.549 294.835,-110.235 288.229,-108.965 292.51,-106.382 292.51,-106.382 292.51,-106.382 288.229,-108.965 290.185,-102.529 283.948,-111.549 283.948,-111.549"/>
</g>
<!-- Ownership&#45;&gt;OwnershipAction -->
<g id="edge38" class="edge"><title>Ownership&#45;&gt;OwnershipAction</title>
<path fill="none" stroke="#a983a5" d="M172.504,-141.521C158.957,-132.576 142.843,-121.934 128.904,-112.729"/>
<ellipse fill="none" stroke="#a983a5" cx="175.922" cy="-143.779" rx="4.00002" ry="4.00002"/>
<polygon fill="#a983a5" stroke="#a983a5" points="128.894,-112.723 123.029,-103.457 124.722,-109.967 120.55,-107.212 120.55,-107.212 120.55,-107.212 124.722,-109.967 118.07,-110.967 128.894,-112.723 128.894,-112.723"/>
</g>
<!-- OwnershipType -->
<g id="node20" class="node"><title>OwnershipType</title>
<ellipse fill="none" stroke="black" cx="326" cy="-306" rx="66.2001" ry="18"/>
<text text-anchor="middle" x="326" y="-301.8" font-family="Times,serif" font-size="14.00">OwnershipType</text>
</g>
<!-- OwnershipType&#45;&gt;Ownership -->
<g id="edge42" class="edge"><title>OwnershipType&#45;&gt;Ownership</title>
<path fill="none" stroke="#7c0842" d="M306.16,-282.28C283.437,-256.258 246.357,-213.796 223.113,-187.178"/>
<ellipse fill="none" stroke="#7c0842" cx="308.902" cy="-285.42" rx="4.00002" ry="4.00002"/>
<polygon fill="#7c0842" stroke="#7c0842" points="222.952,-186.994 219.764,-176.502 219.664,-183.228 216.375,-179.462 216.375,-179.462 216.375,-179.462 219.664,-183.228 212.985,-182.421 222.952,-186.994 222.952,-186.994"/>
</g>
<!-- Page -->
<g id="node21" class="node"><title>Page</title>
<ellipse fill="none" stroke="black" cx="1801" cy="-378" rx="26.9483" ry="18"/>
<text text-anchor="middle" x="1801" y="-373.8" font-family="Times,serif" font-size="14.00">Page</text>
</g>
<!-- Parent -->
<g id="node22" class="node"><title>Parent</title>
<ellipse fill="none" stroke="black" cx="703" cy="-162" rx="32.5477" ry="18"/>
<text text-anchor="middle" x="703" y="-157.8" font-family="Times,serif" font-size="14.00">Parent</text>
</g>
<!-- Permission -->
<g id="node23" class="node"><title>Permission</title>
<polygon fill="none" stroke="black" points="1924.17,-396 1845.83,-396 1845.83,-360 1924.17,-360 1924.17,-396"/>
<text text-anchor="middle" x="1885" y="-373.8" font-family="Times,serif" font-size="14.00">Permission</text>
</g>
<!-- Resource -->
<g id="node24" class="node"><title>Resource</title>
<ellipse fill="none" stroke="black" cx="1421" cy="-378" rx="43.0161" ry="18"/>
<text text-anchor="middle" x="1421" y="-373.8" font-family="Times,serif" font-size="14.00">Resource</text>
</g>
<!-- ResourceTheme -->
<g id="node25" class="node"><title>ResourceTheme</title>
<ellipse fill="none" stroke="black" cx="1484" cy="-306" rx="67.345" ry="18"/>
<text text-anchor="middle" x="1484" y="-301.8" font-family="Times,serif" font-size="14.00">ResourceTheme</text>
</g>
<!-- Resource&#45;&gt;ResourceTheme -->
<g id="edge47" class="edge"><title>Resource&#45;&gt;ResourceTheme</title>
<path fill="none" stroke="#b5c20f" d="M1441.04,-354.734C1447.7,-347.329 1455.16,-339.043 1461.97,-331.481"/>
<ellipse fill="none" stroke="#b5c20f" cx="1438.29" cy="-357.791" rx="4.00002" ry="4.00002"/>
<polygon fill="#b5c20f" stroke="#b5c20f" points="1462.34,-331.066 1472.37,-326.644 1465.69,-327.35 1469.03,-323.633 1469.03,-323.633 1469.03,-323.633 1465.69,-327.35 1465.69,-320.623 1462.34,-331.066 1462.34,-331.066"/>
</g>
<!-- Resource&#45;&gt;Theme -->
<g id="edge48" class="edge"><title>Resource&#45;&gt;Theme</title>
<path fill="none" stroke="#011331" d="M1408.88,-350.997C1402.11,-332.489 1396.87,-307.542 1407,-288 1419.76,-263.366 1442.54,-275.039 1458,-252 1485.54,-210.955 1492.77,-152.204 1494.55,-118.19"/>
<polygon fill="#011331" stroke="#011331" points="1408.88,-350.999 1408.42,-361.955 1410.74,-355.641 1412.6,-360.282 1412.6,-360.282 1412.6,-360.282 1410.74,-355.641 1416.77,-358.61 1408.88,-350.999 1408.88,-350.999"/>
<polygon fill="#011331" stroke="#011331" points="1494.56,-118.062 1499.45,-108.251 1494.76,-113.066 1494.96,-108.07 1494.96,-108.07 1494.96,-108.07 1494.76,-113.066 1490.46,-107.889 1494.56,-118.062 1494.56,-118.062"/>
</g>
<!-- Responsable&#45;&gt;CardResponsable -->
<g id="edge51" class="edge"><title>Responsable&#45;&gt;CardResponsable</title>
<path fill="none" stroke="#e23a1e" d="M1043,-207.64C1043,-202.063 1043,-196.132 1043,-190.476"/>
<ellipse fill="none" stroke="#e23a1e" cx="1043" cy="-211.697" rx="4" ry="4"/>
<polygon fill="#e23a1e" stroke="#e23a1e" points="1043,-190.104 1047.5,-180.104 1043,-185.104 1043,-180.104 1043,-180.104 1043,-180.104 1043,-185.104 1038.5,-180.104 1043,-190.104 1043,-190.104"/>
</g>
<!-- Tag&#45;&gt;Tagging -->
<g id="edge53" class="edge"><title>Tag&#45;&gt;Tagging</title>
<path fill="none" stroke="#7e054c" d="M1181,-207.64C1181,-202.063 1181,-196.132 1181,-190.476"/>
<ellipse fill="none" stroke="#7e054c" cx="1181" cy="-211.697" rx="4" ry="4"/>
<polygon fill="#7e054c" stroke="#7e054c" points="1181,-190.104 1185.5,-180.104 1181,-185.104 1181,-180.104 1181,-180.104 1181,-180.104 1181,-185.104 1176.5,-180.104 1181,-190.104 1181,-190.104"/>
</g>
<!-- Theme&#45;&gt;OratorTheme -->
<g id="edge56" class="edge"><title>Theme&#45;&gt;OratorTheme</title>
<path fill="none" stroke="#5d5875" d="M1495,-63.6398C1495,-58.0629 1495,-52.1319 1495,-46.4761"/>
<ellipse fill="none" stroke="#5d5875" cx="1495" cy="-67.6966" rx="4" ry="4"/>
<polygon fill="#5d5875" stroke="#5d5875" points="1495,-46.1043 1499.5,-36.1043 1495,-41.1043 1495,-36.1043 1495,-36.1043 1495,-36.1043 1495,-41.1043 1490.5,-36.1044 1495,-46.1043 1495,-46.1043"/>
</g>
<!-- User&#45;&gt;Activity -->
<g id="edge63" class="edge"><title>User&#45;&gt;Activity</title>
<path fill="none" stroke="#907819" d="M526.812,-214.794C514.267,-205.351 498.882,-193.772 485.844,-183.958"/>
<ellipse fill="none" stroke="#907819" cx="530.312" cy="-217.428" rx="4.00002" ry="4.00002"/>
<polygon fill="#907819" stroke="#907819" points="485.658,-183.818 480.374,-174.208 481.663,-180.811 477.668,-177.804 477.668,-177.804 477.668,-177.804 481.663,-180.811 474.962,-181.399 485.658,-183.818 485.658,-183.818"/>
</g>
<!-- User&#45;&gt;CardVerification -->
<g id="edge58" class="edge"><title>User&#45;&gt;CardVerification</title>
<path fill="none" stroke="#97f13b" d="M562.285,-209.062C565.316,-202.632 568.609,-195.647 571.693,-189.106"/>
<ellipse fill="none" stroke="#97f13b" cx="560.526" cy="-212.793" rx="4.00002" ry="4.00002"/>
<polygon fill="#97f13b" stroke="#97f13b" points="571.742,-189.001 580.077,-181.875 573.874,-184.479 576.006,-179.956 576.006,-179.956 576.006,-179.956 573.874,-184.479 571.936,-178.037 571.742,-189.001 571.742,-189.001"/>
</g>
<!-- User&#45;&gt;Orator -->
<g id="edge64" class="edge"><title>User&#45;&gt;Orator</title>
<path fill="none" stroke="#b32bf1" d="M585.433,-227.883C611.596,-224.145 648.5,-219.191 681,-216 923.471,-192.192 985.085,-198.745 1228,-180 1280.27,-175.967 1340.46,-170.504 1379.31,-166.871"/>
<ellipse fill="none" stroke="#b32bf1" cx="581.294" cy="-228.48" rx="4.00001" ry="4.00001"/>
<ellipse fill="#b32bf1" stroke="#b32bf1" cx="1383.76" cy="-166.454" rx="4" ry="4"/>
</g>
<!-- User&#45;&gt;Ownership -->
<g id="edge59" class="edge"><title>User&#45;&gt;Ownership</title>
<path fill="none" stroke="#d87927" d="M517.145,-226.21C455.732,-213.892 325.642,-187.799 253.279,-173.285"/>
<ellipse fill="none" stroke="#d87927" cx="521.415" cy="-227.066" rx="4.00001" ry="4.00001"/>
<polygon fill="#d87927" stroke="#d87927" points="253.269,-173.283 244.35,-166.905 248.367,-172.3 243.465,-171.317 243.465,-171.317 243.465,-171.317 248.367,-172.3 242.58,-175.729 253.269,-173.283 253.269,-173.283"/>
</g>
<!-- User&#45;&gt;Parent -->
<g id="edge60" class="edge"><title>User&#45;&gt;Parent</title>
<path fill="none" stroke="#2f7e4f" d="M580.081,-219.608C605.576,-207.867 642.643,-190.796 669.399,-178.474"/>
<ellipse fill="none" stroke="#2f7e4f" cx="576.411" cy="-221.297" rx="4.00002" ry="4.00002"/>
<polygon fill="#2f7e4f" stroke="#2f7e4f" points="669.667,-178.351 680.632,-178.255 674.208,-176.259 678.75,-174.168 678.75,-174.168 678.75,-174.168 674.208,-176.259 676.867,-170.081 669.667,-178.351 669.667,-178.351"/>
</g>
<!-- User&#45;&gt;User -->
<g id="edge61" class="edge"><title>User&#45;&gt;User</title>
<path fill="none" stroke="#3c3c40" d="M581.039,-247.436C589.501,-246.857 596,-242.378 596,-234 596,-225.622 589.501,-221.143 581.039,-220.564"/>
<polygon fill="#3c3c40" stroke="#3c3c40" points="580.846,-247.417 571.338,-241.954 575.871,-246.924 570.895,-246.432 570.895,-246.432 570.895,-246.432 575.871,-246.924 570.452,-250.91 580.846,-247.417 580.846,-247.417"/>
<polygon fill="#3c3c40" stroke="#3c3c40" points="580.846,-220.583 570.452,-217.09 575.871,-221.076 570.895,-221.568 570.895,-221.568 570.895,-221.568 575.871,-221.076 571.338,-226.046 580.846,-220.583 580.846,-220.583"/>
</g>
<!-- User&#45;&gt;VerificatorComment -->
<g id="edge62" class="edge"><title>User&#45;&gt;VerificatorComment</title>
<path fill="none" stroke="#9337b1" d="M584.352,-224.808C630.681,-213.429 715.374,-192.627 773.616,-178.322"/>
<ellipse fill="none" stroke="#9337b1" cx="580.176" cy="-225.834" rx="4.00001" ry="4.00001"/>
<polygon fill="#9337b1" stroke="#9337b1" points="773.735,-178.293 784.52,-180.278 778.591,-177.101 783.446,-175.908 783.446,-175.908 783.446,-175.908 778.591,-177.101 782.373,-171.538 773.735,-178.293 773.735,-178.293"/>
</g>
<!-- UserType -->
<g id="node31" class="node"><title>UserType</title>
<ellipse fill="none" stroke="black" cx="606" cy="-306" rx="44.038" ry="18"/>
<text text-anchor="middle" x="606" y="-301.8" font-family="Times,serif" font-size="14.00">UserType</text>
</g>
<!-- UserType&#45;&gt;User -->
<g id="edge66" class="edge"><title>UserType&#45;&gt;User</title>
<path fill="none" stroke="#206917" d="M588.29,-282.46C582.202,-274.711 575.377,-266.025 569.246,-258.222"/>
<ellipse fill="none" stroke="#206917" cx="590.772" cy="-285.619" rx="4.00002" ry="4.00002"/>
<polygon fill="#206917" stroke="#206917" points="569.112,-258.052 566.473,-247.409 566.023,-254.121 562.934,-250.189 562.934,-250.189 562.934,-250.189 566.023,-254.121 559.396,-252.969 569.112,-258.052 569.112,-258.052"/>
</g>
<!-- ActiveRecord::Base -->
<g id="node33" class="node"><title>ActiveRecord::Base</title>
<ellipse fill="none" stroke="black" cx="976" cy="-469" rx="80.9821" ry="18"/>
<text text-anchor="middle" x="976" y="-464.8" font-family="Times,serif" font-size="14.00">ActiveRecord::Base</text>
</g>
<!-- ActiveRecord::Base&#45;&gt;AccessToken -->
<g id="edge1" class="edge"><title>ActiveRecord::Base&#45;&gt;AccessToken</title>
<path fill="none" stroke="black" d="M943.455,-452.5C926.421,-445.068 904.998,-436.765 885,-432 799.474,-411.621 564.879,-443.665 491,-396 435.626,-360.274 350.18,-166.835 325.13,-107.991"/>
</g>
<!-- ActiveRecord::Base&#45;&gt;Action -->
<g id="edge4" class="edge"><title>ActiveRecord::Base&#45;&gt;Action</title>
<path fill="none" stroke="black" d="M943.964,-452.3C926.886,-444.716 905.269,-436.336 885,-432 797.664,-413.316 152.395,-450.965 82,-396 37.1706,-360.997 32.7857,-285.904 33.2413,-252.105"/>
</g>
<!-- ActiveRecord::Base&#45;&gt;Activity -->
<g id="edge5" class="edge"><title>ActiveRecord::Base&#45;&gt;Activity</title>
<path fill="none" stroke="black" d="M943.012,-452.397C926.043,-445.033 904.81,-436.821 885,-432 807.741,-413.196 593.936,-441.89 529,-396 457.686,-345.603 455.224,-224.905 456.938,-180.113"/>
</g>
<!-- ActiveRecord::Base&#45;&gt;Affiliation -->
<g id="edge8" class="edge"><title>ActiveRecord::Base&#45;&gt;Affiliation</title>
<path fill="none" stroke="black" d="M949.379,-451.883C921.911,-435.252 879.449,-409.544 852.989,-393.524"/>
</g>
<!-- ActiveRecord::Base&#45;&gt;Canton -->
<g id="edge10" class="edge"><title>ActiveRecord::Base&#45;&gt;Canton</title>
<path fill="none" stroke="black" d="M1055.16,-464.889C1179.37,-458.763 1427.04,-441.517 1632,-396 1639.43,-394.35 1647.3,-391.983 1654.54,-389.537"/>
</g>
<!-- ActiveRecord::Base&#45;&gt;Card -->
<g id="edge20" class="edge"><title>ActiveRecord::Base&#45;&gt;Card</title>
<path fill="none" stroke="black" d="M984.392,-450.946C994.014,-428.813 1006.68,-389.533 992,-360 982.025,-339.935 960.425,-325.438 943.839,-316.73"/>
</g>
<!-- ActiveRecord::Base&#45;&gt;CardAffiliation -->
<g id="edge21" class="edge"><title>ActiveRecord::Base&#45;&gt;CardAffiliation</title>
<path fill="none" stroke="black" d="M939.458,-452.909C922.923,-446.245 903.075,-438.472 885,-432 835.775,-414.373 806.227,-436.371 773,-396 738.659,-354.276 745.142,-284.575 750.53,-252.333"/>
</g>
<!-- ActiveRecord::Base&#45;&gt;CardResponsable -->
<g id="edge22" class="edge"><title>ActiveRecord::Base&#45;&gt;CardResponsable</title>
<path fill="none" stroke="black" d="M991.092,-451.154C1020.69,-416.78 1085.26,-334.788 1106,-252 1109.89,-236.48 1112.75,-230.505 1106,-216 1098.7,-200.321 1084.23,-187.623 1070.99,-178.591"/>
</g>
<!-- ActiveRecord::Base&#45;&gt;CardType -->
<g id="edge24" class="edge"><title>ActiveRecord::Base&#45;&gt;CardType</title>
<path fill="none" stroke="black" d="M968.866,-450.84C962.272,-434.979 952.533,-411.553 945.987,-395.806"/>
</g>
<!-- ActiveRecord::Base&#45;&gt;CardVerification -->
<g id="edge25" class="edge"><title>ActiveRecord::Base&#45;&gt;CardVerification</title>
<path fill="none" stroke="black" d="M942.985,-452.509C926.008,-445.174 904.777,-436.954 885,-432 816.87,-414.935 626.869,-438.562 571,-396 504.354,-345.228 477.963,-291.151 515,-216 523.013,-199.741 538.675,-187.079 553.054,-178.215"/>
</g>
<!-- ActiveRecord::Base&#45;&gt;Disponibility -->
<g id="edge28" class="edge"><title>ActiveRecord::Base&#45;&gt;Disponibility</title>
<path fill="none" stroke="black" d="M1044.94,-459.379C1125.21,-448.115 1251.48,-426.207 1288,-396 1289.5,-394.759 1333.7,-293.259 1351.59,-252.076"/>
</g>
<!-- ActiveRecord::Base&#45;&gt;Element -->
<g id="edge30" class="edge"><title>ActiveRecord::Base&#45;&gt;Element</title>
<path fill="none" stroke="black" d="M943.499,-452.311C926.477,-444.829 905.051,-436.538 885,-432 656.889,-380.37 584.067,-463.042 360,-396 306.01,-379.846 250.275,-342.77 221.63,-321.927"/>
</g>
<!-- ActiveRecord::Base&#45;&gt;Location -->
<g id="edge31" class="edge"><title>ActiveRecord::Base&#45;&gt;Location</title>
<path fill="none" stroke="black" d="M1056.45,-466.258C1240.84,-461.434 1681.61,-444.86 1726,-396 1743.75,-376.46 1733.96,-343.624 1725.38,-323.768"/>
</g>
<!-- ActiveRecord::Base&#45;&gt;Orator -->
<g id="edge35" class="edge"><title>ActiveRecord::Base&#45;&gt;Orator</title>
<path fill="none" stroke="black" d="M1056.17,-465.941C1127.86,-460.745 1233.31,-444.552 1311,-396 1315.31,-393.305 1422.34,-256.806 1424,-252 1432.28,-228.025 1428.31,-198.242 1424.39,-179.932"/>
</g>
<!-- ActiveRecord::Base&#45;&gt;OratorDisponibility -->
<g id="edge36" class="edge"><title>ActiveRecord::Base&#45;&gt;OratorDisponibility</title>
<path fill="none" stroke="black" d="M1047.76,-460.579C1135.94,-447.034 1274,-409.466 1274,-307 1274,-307 1274,-307 1274,-233 1274,-185.693 1298.99,-134.296 1313.64,-108.241"/>
</g>
<!-- ActiveRecord::Base&#45;&gt;OratorTheme -->
<g id="edge37" class="edge"><title>ActiveRecord::Base&#45;&gt;OratorTheme</title>
<path fill="none" stroke="black" d="M1055.19,-464.847C1190.29,-458.333 1458.7,-440.126 1541,-396 1587.1,-371.285 1618,-359.305 1618,-307 1618,-307 1618,-307 1618,-161 1618,-102.619 1557.86,-56.4551 1521.69,-33.9667"/>
</g>
<!-- ActiveRecord::Base&#45;&gt;Ownership -->
<g id="edge40" class="edge"><title>ActiveRecord::Base&#45;&gt;Ownership</title>
<path fill="none" stroke="black" d="M943.937,-452.421C926.853,-444.871 905.237,-436.484 885,-432 622.015,-373.723 538.302,-472.403 280,-396 217.78,-377.596 185.662,-380.064 153,-324 124.908,-275.781 166.011,-209.892 188.694,-179.542"/>
</g>
<!-- ActiveRecord::Base&#45;&gt;OwnershipAction -->
<g id="edge41" class="edge"><title>ActiveRecord::Base&#45;&gt;OwnershipAction</title>
<path fill="none" stroke="black" d="M943.952,-452.351C926.872,-444.781 905.256,-436.399 885,-432 731.703,-398.706 322.416,-461.773 180,-396 130.621,-373.195 96,-361.391 96,-307 96,-307 96,-307 96,-233 96,-187.885 96,-134.708 96,-108.049"/>
</g>
<!-- ActiveRecord::Base&#45;&gt;OwnershipType -->
<g id="edge43" class="edge"><title>ActiveRecord::Base&#45;&gt;OwnershipType</title>
<path fill="none" stroke="black" d="M943.487,-452.366C926.461,-444.898 905.036,-436.604 885,-432 780.967,-408.095 501.8,-443.084 406,-396 373.743,-380.146 348.549,-345.075 335.603,-324"/>
</g>
<!-- ActiveRecord::Base&#45;&gt;Page -->
<g id="edge44" class="edge"><title>ActiveRecord::Base&#45;&gt;Page</title>
<path fill="none" stroke="black" d="M1057.18,-468.526C1201,-467.704 1509.05,-458.029 1760,-396 1766.58,-394.373 1773.48,-391.856 1779.71,-389.252"/>
</g>
<!-- ActiveRecord::Base&#45;&gt;Parent -->
<g id="edge45" class="edge"><title>ActiveRecord::Base&#45;&gt;Parent</title>
<path fill="none" stroke="black" d="M941.029,-452.652C924.296,-445.701 903.845,-437.768 885,-432 814.059,-410.285 778.902,-443.606 722,-396 658.319,-342.722 650.284,-296.139 672,-216 675.68,-202.419 683.807,-188.752 690.817,-178.699"/>
</g>
<!-- ActiveRecord::Base&#45;&gt;Resource -->
<g id="edge49" class="edge"><title>ActiveRecord::Base&#45;&gt;Resource</title>
<path fill="none" stroke="black" d="M1040.98,-458.111C1118.4,-445.829 1251.44,-423.147 1364,-396 1371.73,-394.136 1379.97,-391.855 1387.71,-389.577"/>
</g>
<!-- ActiveRecord::Base&#45;&gt;ResourceTheme -->
<g id="edge50" class="edge"><title>ActiveRecord::Base&#45;&gt;ResourceTheme</title>
<path fill="none" stroke="black" d="M1056.97,-467.744C1182.78,-465.529 1416.65,-453.541 1473,-396 1491.52,-377.09 1490.29,-344.048 1487.38,-323.982"/>
</g>
<!-- ActiveRecord::Base&#45;&gt;Responsable -->
<g id="edge52" class="edge"><title>ActiveRecord::Base&#45;&gt;Responsable</title>
<path fill="none" stroke="black" d="M985.441,-451.021C993.039,-436.726 1003.49,-415.541 1010,-396 1026.96,-345.11 1036.81,-282.136 1040.84,-252.272"/>
</g>
<!-- ActiveRecord::Base&#45;&gt;Tag -->
<g id="edge54" class="edge"><title>ActiveRecord::Base&#45;&gt;Tag</title>
<path fill="none" stroke="black" d="M1033.88,-456.184C1069.38,-446.02 1113.05,-427.782 1140,-396 1175.81,-353.759 1180.97,-284.317 1181.31,-252.236"/>
</g>
<!-- ActiveRecord::Base&#45;&gt;Tagging -->
<g id="edge55" class="edge"><title>ActiveRecord::Base&#45;&gt;Tagging</title>
<path fill="none" stroke="black" d="M1040.04,-457.716C1080.66,-448.118 1131.65,-429.935 1165,-396 1223.37,-336.607 1241.48,-295.593 1217,-216 1212.75,-202.178 1203.53,-188.727 1195.49,-178.834"/>
</g>
<!-- ActiveRecord::Base&#45;&gt;Theme -->
<g id="edge57" class="edge"><title>ActiveRecord::Base&#45;&gt;Theme</title>
<path fill="none" stroke="black" d="M1053.29,-463.508C1178.55,-455.2 1419.49,-434.652 1495,-396 1543.69,-371.076 1580,-361.697 1580,-307 1580,-307 1580,-307 1580,-233 1580,-180.133 1536.09,-129.905 1511.39,-105.833"/>
</g>
<!-- ActiveRecord::Base&#45;&gt;User -->
<g id="edge65" class="edge"><title>ActiveRecord::Base&#45;&gt;User</title>
<path fill="none" stroke="black" d="M942.506,-452.531C925.588,-445.293 904.551,-437.152 885,-432 773.045,-402.496 730.99,-446.898 627,-396 585.784,-375.827 571.324,-366.07 553,-324 542.817,-300.62 544.929,-270.406 547.718,-251.88"/>
</g>
<!-- ActiveRecord::Base&#45;&gt;UserType -->
<g id="edge67" class="edge"><title>ActiveRecord::Base&#45;&gt;UserType</title>
<path fill="none" stroke="black" d="M942.027,-452.541C925.171,-445.395 904.327,-437.33 885,-432 789.065,-405.543 747.386,-450.317 664,-396 637.42,-378.686 620.375,-344.462 612.051,-323.866"/>
</g>
<!-- ActiveRecord::Base&#45;&gt;VerificatorComment -->
<g id="edge68" class="edge"><title>ActiveRecord::Base&#45;&gt;VerificatorComment</title>
<path fill="none" stroke="black" d="M940.038,-452.675C923.445,-445.89 903.388,-438.085 885,-432 826.455,-412.626 798.545,-435.272 751,-396 723.567,-373.341 688.981,-286.674 681,-252 677.411,-236.408 671.695,-229.016 681,-216 692.867,-199.4 740.133,-184.757 779.384,-175.093"/>
</g>
<!-- Object -->
<g id="node34" class="node"><title>Object</title>
<ellipse fill="none" stroke="black" cx="1885" cy="-469" rx="33.5181" ry="18"/>
<text text-anchor="middle" x="1885" y="-464.8" font-family="Times,serif" font-size="14.00">Object</text>
</g>
<!-- Object&#45;&gt;Permission -->
<g id="edge46" class="edge"><title>Object&#45;&gt;Permission</title>
<path fill="none" stroke="black" d="M1885,-450.84C1885,-435.08 1885,-411.851 1885,-396.107"/>
</g>
</g>
</svg>
