<?xml version="1.0" encoding="UTF-8" standalone="no"?>
<!DOCTYPE svg PUBLIC "-//W3C//DTD SVG 1.1//EN"
 "http://www.w3.org/Graphics/SVG/1.1/DTD/svg11.dtd">
<!-- Generated by graphviz version 2.36.0 (20140111.2315)
 -->
<!-- Title: models_diagram Pages: 1 -->
<svg width="2277pt" height="606pt"
 viewBox="0.00 0.00 2277.00 606.00" xmlns="http://www.w3.org/2000/svg" xmlns:xlink="http://www.w3.org/1999/xlink">
<g id="graph0" class="graph" transform="scale(1 1) rotate(0) translate(4 602)">
<title>models_diagram</title>
<polygon fill="white" stroke="none" points="-4,4 -4,-602 2273,-602 2273,4 -4,4"/>
<!-- _diagram_info -->
<g id="node1" class="node"><title>_diagram_info</title>
<text text-anchor="start" x="822.55" y="-583.1" font-family="Times,serif" font-size="13.00">Models diagram</text>
<text text-anchor="start" x="822.55" y="-570.1" font-family="Times,serif" font-size="13.00">Date: Oct 07 2014 &#45; 12:23</text>
<text text-anchor="start" x="822.55" y="-557.1" font-family="Times,serif" font-size="13.00">Migration version: 20140928203114</text>
<text text-anchor="start" x="822.55" y="-544.1" font-family="Times,serif" font-size="13.00">Generated by RailRoady 1.1.2</text>
<text text-anchor="start" x="822.55" y="-531.1" font-family="Times,serif" font-size="13.00">http://railroady.prestonlee.com</text>
</g>
<!-- AccessToken -->
<g id="node2" class="node"><title>AccessToken</title>
<ellipse fill="none" stroke="black" cx="1534" cy="-92" rx="57.19" ry="18"/>
<text text-anchor="middle" x="1534" y="-87.8" font-family="Times,serif" font-size="14.00">AccessToken</text>
</g>
<!-- Action -->
<g id="node3" class="node"><title>Action</title>
<ellipse fill="none" stroke="black" cx="1461" cy="-252" rx="34.2643" ry="18"/>
<text text-anchor="middle" x="1461" y="-247.8" font-family="Times,serif" font-size="14.00">Action</text>
</g>
<!-- Ownership -->
<g id="node24" class="node"><title>Ownership</title>
<ellipse fill="none" stroke="black" cx="1400" cy="-166" rx="48.3713" ry="18"/>
<text text-anchor="middle" x="1400" y="-161.8" font-family="Times,serif" font-size="14.00">Ownership</text>
</g>
<!-- Action&#45;&gt;Ownership -->
<g id="edge3" class="edge"><title>Action&#45;&gt;Ownership</title>
<path fill="none" stroke="#604f62" d="M1443.35,-226.693C1435.45,-215.817 1426.15,-203.004 1418.19,-192.042"/>
<polygon fill="#604f62" stroke="#604f62" points="1443.36,-226.712 1445.6,-237.448 1446.3,-230.758 1449.24,-234.804 1449.24,-234.804 1449.24,-234.804 1446.3,-230.758 1452.88,-232.16 1443.36,-226.712 1443.36,-226.712"/>
<polygon fill="#604f62" stroke="#604f62" points="1418.02,-191.813 1415.78,-181.077 1415.08,-187.767 1412.14,-183.721 1412.14,-183.721 1412.14,-183.721 1415.08,-187.767 1408.5,-186.365 1418.02,-191.813 1418.02,-191.813"/>
</g>
<!-- OwnershipAction -->
<g id="node25" class="node"><title>OwnershipAction</title>
<ellipse fill="none" stroke="black" cx="1386" cy="-92" rx="72.4741" ry="18"/>
<text text-anchor="middle" x="1386" y="-87.8" font-family="Times,serif" font-size="14.00">OwnershipAction</text>
</g>
<!-- Action&#45;&gt;OwnershipAction -->
<g id="edge2" class="edge"><title>Action&#45;&gt;OwnershipAction</title>
<path fill="none" stroke="#4eb580" d="M1465.73,-225.722C1468.52,-203.898 1469.43,-172.162 1457,-148 1449.93,-134.257 1437.69,-122.911 1425.34,-114.166"/>
<ellipse fill="none" stroke="#4eb580" cx="1465.12" cy="-229.891" rx="4.00001" ry="4.00001"/>
<polygon fill="#4eb580" stroke="#4eb580" points="1425.17,-114.055 1419.33,-104.779 1421.01,-111.292 1416.84,-108.529 1416.84,-108.529 1416.84,-108.529 1421.01,-111.292 1414.35,-112.28 1425.17,-114.055 1425.17,-114.055"/>
</g>
<!-- Activity -->
<g id="node4" class="node"><title>Activity</title>
<ellipse fill="none" stroke="black" cx="759" cy="-166" rx="39.135" ry="18"/>
<text text-anchor="middle" x="759" y="-161.8" font-family="Times,serif" font-size="14.00">Activity</text>
</g>
<!-- Affiliation -->
<g id="node5" class="node"><title>Affiliation</title>
<ellipse fill="none" stroke="black" cx="255" cy="-468" rx="46.4303" ry="18"/>
<text text-anchor="middle" x="255" y="-463.8" font-family="Times,serif" font-size="14.00">Affiliation</text>
</g>
<!-- Card -->
<g id="node9" class="node"><title>Card</title>
<ellipse fill="none" stroke="black" cx="432" cy="-360" rx="26.9483" ry="18"/>
<text text-anchor="middle" x="432" y="-355.8" font-family="Times,serif" font-size="14.00">Card</text>
</g>
<!-- Affiliation&#45;&gt;Card -->
<g id="edge7" class="edge"><title>Affiliation&#45;&gt;Card</title>
<path fill="none" stroke="#2e9008" d="M288.055,-447.205C321.35,-427.265 372.178,-396.826 403.679,-377.961"/>
<polygon fill="#2e9008" stroke="#2e9008" points="287.819,-447.346 276.928,-448.623 283.53,-449.914 279.24,-452.483 279.24,-452.483 279.24,-452.483 283.53,-449.914 281.552,-456.344 287.819,-447.346 287.819,-447.346"/>
<polygon fill="#2e9008" stroke="#2e9008" points="403.828,-377.872 414.719,-376.594 408.117,-375.303 412.407,-372.734 412.407,-372.734 412.407,-372.734 408.117,-375.303 410.095,-368.873 403.828,-377.872 403.828,-377.872"/>
</g>
<!-- CardAffiliation -->
<g id="node10" class="node"><title>CardAffiliation</title>
<ellipse fill="none" stroke="black" cx="92" cy="-252" rx="64.2154" ry="18"/>
<text text-anchor="middle" x="92" y="-247.8" font-family="Times,serif" font-size="14.00">CardAffiliation</text>
</g>
<!-- Affiliation&#45;&gt;CardAffiliation -->
<g id="edge6" class="edge"><title>Affiliation&#45;&gt;CardAffiliation</title>
<path fill="none" stroke="#5b1abf" d="M241.001,-443.196C219.559,-407.642 176.283,-339.358 131,-288 127.48,-284.008 123.533,-280.013 119.536,-276.224"/>
<ellipse fill="none" stroke="#5b1abf" cx="243.183" cy="-446.837" rx="4.00002" ry="4.00002"/>
<polygon fill="#5b1abf" stroke="#5b1abf" points="119.279,-275.989 114.924,-265.925 115.585,-272.619 111.891,-269.249 111.891,-269.249 111.891,-269.249 115.585,-272.619 108.858,-272.573 119.279,-275.989 119.279,-275.989"/>
</g>
<!-- Article -->
<g id="node6" class="node"><title>Article</title>
<ellipse fill="none" stroke="black" cx="1055" cy="-166" rx="34.4885" ry="18"/>
<text text-anchor="middle" x="1055" y="-161.8" font-family="Times,serif" font-size="14.00">Article</text>
</g>
<!-- ArticleTheme -->
<g id="node7" class="node"><title>ArticleTheme</title>
<ellipse fill="none" stroke="black" cx="1009" cy="-18" rx="59.3187" ry="18"/>
<text text-anchor="middle" x="1009" y="-13.8" font-family="Times,serif" font-size="14.00">ArticleTheme</text>
</g>
<!-- Article&#45;&gt;ArticleTheme -->
<g id="edge9" class="edge"><title>Article&#45;&gt;ArticleTheme</title>
<path fill="none" stroke="#23dabe" d="M1038.89,-141.825C1036.68,-137.991 1034.62,-133.969 1033,-130 1021.82,-102.575 1015.5,-69.1178 1012.18,-46.1494"/>
<ellipse fill="none" stroke="#23dabe" cx="1041.14" cy="-145.496" rx="4.00002" ry="4.00002"/>
<polygon fill="#23dabe" stroke="#23dabe" points="1012.16,-46.0019 1015.28,-35.4899 1011.49,-41.0468 1010.82,-36.0917 1010.82,-36.0917 1010.82,-36.0917 1011.49,-41.0468 1006.36,-36.6935 1012.16,-46.0019 1012.16,-46.0019"/>
</g>
<!-- Theme -->
<g id="node36" class="node"><title>Theme</title>
<ellipse fill="none" stroke="black" cx="1222" cy="-92" rx="34.4885" ry="18"/>
<text text-anchor="middle" x="1222" y="-87.8" font-family="Times,serif" font-size="14.00">Theme</text>
</g>
<!-- Article&#45;&gt;Theme -->
<g id="edge10" class="edge"><title>Article&#45;&gt;Theme</title>
<path fill="none" stroke="#528d47" d="M1090.08,-149.875C1118.46,-137.638 1158.25,-120.485 1186.69,-108.222"/>
<polygon fill="#528d47" stroke="#528d47" points="1089.91,-149.949 1078.95,-149.775 1085.32,-151.928 1080.73,-153.908 1080.73,-153.908 1080.73,-153.908 1085.32,-151.928 1082.51,-158.04 1089.91,-149.949 1089.91,-149.949"/>
<polygon fill="#528d47" stroke="#528d47" points="1187.06,-108.064 1198.02,-108.237 1191.65,-106.084 1196.24,-104.105 1196.24,-104.105 1196.24,-104.105 1191.65,-106.084 1194.46,-99.9725 1187.06,-108.064 1187.06,-108.064"/>
</g>
<!-- Canton -->
<g id="node8" class="node"><title>Canton</title>
<ellipse fill="none" stroke="black" cx="1871" cy="-468" rx="35.4783" ry="18"/>
<text text-anchor="middle" x="1871" y="-463.8" font-family="Times,serif" font-size="14.00">Canton</text>
</g>
<!-- Location -->
<g id="node20" class="node"><title>Location</title>
<ellipse fill="none" stroke="black" cx="1906" cy="-360" rx="41.3072" ry="18"/>
<text text-anchor="middle" x="1906" y="-355.8" font-family="Times,serif" font-size="14.00">Location</text>
</g>
<!-- Canton&#45;&gt;Location -->
<g id="edge13" class="edge"><title>Canton&#45;&gt;Location</title>
<path fill="none" stroke="#73c50d" d="M1879.17,-442.271C1884.57,-425.914 1891.64,-404.476 1897.18,-387.725"/>
<ellipse fill="none" stroke="#73c50d" cx="1877.88" cy="-446.171" rx="4.00001" ry="4.00001"/>
<polygon fill="#73c50d" stroke="#73c50d" points="1897.26,-387.484 1904.66,-379.399 1898.82,-382.736 1900.39,-377.988 1900.39,-377.988 1900.39,-377.988 1898.82,-382.736 1896.12,-376.578 1897.26,-387.484 1897.26,-387.484"/>
</g>
<!-- Card&#45;&gt;Card -->
<g id="edge24" class="edge"><title>Card&#45;&gt;Card</title>
<path fill="none" stroke="#60080e" d="M468.35,-364.546C473.525,-363.813 477,-362.297 477,-360 477,-357.703 473.525,-356.187 468.35,-355.454"/>
<polygon fill="#60080e" stroke="#60080e" points="468.334,-364.547 458.123,-360.548 463.34,-364.795 458.347,-365.043 458.347,-365.043 458.347,-365.043 463.34,-364.795 458.57,-369.537 468.334,-364.547 468.334,-364.547"/>
<polygon fill="#60080e" stroke="#60080e" points="468.334,-355.453 458.57,-350.463 463.34,-355.205 458.347,-354.957 458.347,-354.957 458.347,-354.957 463.34,-355.205 458.123,-359.452 468.334,-355.453 468.334,-355.453"/>
<text text-anchor="middle" x="497.214" y="-355.8" font-family="Times,serif" font-size="14.00">parents</text>
</g>
<!-- Card&#45;&gt;Card -->
<g id="edge26" class="edge"><title>Card&#45;&gt;Card</title>
<path fill="none" stroke="#de3351" d="M466.696,-369.347C491.155,-371.737 517.428,-368.621 517.428,-360 517.428,-351.379 491.155,-348.263 466.696,-350.653"/>
<polygon fill="#de3351" stroke="#de3351" points="466.678,-369.345 457.347,-363.584 461.72,-368.696 456.763,-368.046 456.763,-368.046 456.763,-368.046 461.72,-368.696 456.178,-372.508 466.678,-369.345 466.678,-369.345"/>
<polygon fill="#de3351" stroke="#de3351" points="466.678,-350.655 456.178,-347.492 461.72,-351.304 456.763,-351.954 456.763,-351.954 456.763,-351.954 461.72,-351.304 457.347,-356.416 466.678,-350.655 466.678,-350.655"/>
<text text-anchor="middle" x="561.355" y="-355.8" font-family="Times,serif" font-size="14.00">inverse_parents</text>
</g>
<!-- Card&#45;&gt;CardAffiliation -->
<g id="edge15" class="edge"><title>Card&#45;&gt;CardAffiliation</title>
<path fill="none" stroke="#458c6c" d="M397.534,-353.356C365.365,-347.612 316.262,-337.618 275,-324 237.589,-311.653 230.667,-302.407 194,-288 177.249,-281.418 158.695,-274.844 142.054,-269.2"/>
<ellipse fill="none" stroke="#458c6c" cx="401.795" cy="-354.103" rx="4.00001" ry="4.00001"/>
<polygon fill="#458c6c" stroke="#458c6c" points="141.985,-269.177 133.939,-261.726 137.245,-267.584 132.506,-265.991 132.506,-265.991 132.506,-265.991 137.245,-267.584 131.072,-270.257 141.985,-269.177 141.985,-269.177"/>
</g>
<!-- CardParent -->
<g id="node11" class="node"><title>CardParent</title>
<ellipse fill="none" stroke="black" cx="538" cy="-252" rx="49.3354" ry="18"/>
<text text-anchor="middle" x="538" y="-247.8" font-family="Times,serif" font-size="14.00">CardParent</text>
</g>
<!-- Card&#45;&gt;CardParent -->
<g id="edge23" class="edge"><title>Card&#45;&gt;CardParent</title>
<path fill="none" stroke="#540eb7" d="M437.998,-334.268C442.693,-319.321 450.56,-300.755 463,-288 471.07,-279.726 481.473,-273.196 491.947,-268.131"/>
<ellipse fill="none" stroke="#540eb7" cx="436.825" cy="-338.3" rx="4.00001" ry="4.00001"/>
<polygon fill="#540eb7" stroke="#540eb7" points="491.977,-268.118 502.942,-268.161 496.544,-266.084 501.112,-264.05 501.112,-264.05 501.112,-264.05 496.544,-266.084 499.281,-259.939 491.977,-268.118 491.977,-268.118"/>
</g>
<!-- Card&#45;&gt;CardParent -->
<g id="edge25" class="edge"><title>Card&#45;&gt;CardParent</title>
<path fill="none" stroke="#34961b" d="M449.656,-337.658C453.17,-333.21 456.77,-328.503 460,-324 471.073,-308.561 469.604,-301.419 483.055,-288 488.741,-282.327 495.501,-277.109 502.301,-272.529"/>
<ellipse fill="none" stroke="#34961b" cx="447.125" cy="-340.816" rx="4.00002" ry="4.00002"/>
<polygon fill="#34961b" stroke="#34961b" points="502.422,-272.452 513.274,-270.879 506.64,-269.767 510.858,-267.082 510.858,-267.082 510.858,-267.082 506.64,-269.767 508.442,-263.286 502.422,-272.452 502.422,-272.452"/>
<text text-anchor="middle" x="543.473" y="-301.8" font-family="Times,serif" font-size="14.00">inverse_card_parents</text>
</g>
<!-- CardResponsable -->
<g id="node12" class="node"><title>CardResponsable</title>
<ellipse fill="none" stroke="black" cx="208" cy="-166" rx="71.4972" ry="18"/>
<text text-anchor="middle" x="208" y="-161.8" font-family="Times,serif" font-size="14.00">CardResponsable</text>
</g>
<!-- Card&#45;&gt;CardResponsable -->
<g id="edge19" class="edge"><title>Card&#45;&gt;CardResponsable</title>
<path fill="none" stroke="#04850c" d="M410.598,-339.219C383.413,-314.251 334.875,-270.192 292,-234 274.156,-218.938 253.678,-202.586 237.409,-189.807"/>
<ellipse fill="none" stroke="#04850c" cx="413.766" cy="-342.134" rx="4.00002" ry="4.00002"/>
<polygon fill="#04850c" stroke="#04850c" points="237.195,-189.64 232.095,-179.932 233.258,-186.558 229.321,-183.476 229.321,-183.476 229.321,-183.476 233.258,-186.558 226.547,-187.019 237.195,-189.64 237.195,-189.64"/>
</g>
<!-- CardUser -->
<g id="node14" class="node"><title>CardUser</title>
<ellipse fill="none" stroke="black" cx="342" cy="-166" rx="43.4929" ry="18"/>
<text text-anchor="middle" x="342" y="-161.8" font-family="Times,serif" font-size="14.00">CardUser</text>
</g>
<!-- Card&#45;&gt;CardUser -->
<g id="edge21" class="edge"><title>Card&#45;&gt;CardUser</title>
<path fill="none" stroke="#dd96df" d="M422.656,-334.298C410.477,-302.907 387.896,-247.352 364,-202 362.258,-198.694 360.315,-195.286 358.324,-191.952"/>
<ellipse fill="none" stroke="#dd96df" cx="424.228" cy="-338.377" rx="4.00001" ry="4.00001"/>
<polygon fill="#dd96df" stroke="#dd96df" points="358.312,-191.932 356.876,-181.061 355.681,-187.681 353.05,-183.429 353.05,-183.429 353.05,-183.429 355.681,-187.681 349.223,-185.797 358.312,-191.932 358.312,-191.932"/>
</g>
<!-- Responsable -->
<g id="node30" class="node"><title>Responsable</title>
<ellipse fill="none" stroke="black" cx="229" cy="-252" rx="54.2137" ry="18"/>
<text text-anchor="middle" x="229" y="-247.8" font-family="Times,serif" font-size="14.00">Responsable</text>
</g>
<!-- Card&#45;&gt;Responsable -->
<g id="edge20" class="edge"><title>Card&#45;&gt;Responsable</title>
<path fill="none" stroke="#7f32fe" d="M397.689,-348.886C378.736,-342.743 355.042,-334.136 335,-324 307.205,-309.943 277.961,-289.905 257.247,-274.699"/>
<polygon fill="#7f32fe" stroke="#7f32fe" points="397.864,-348.941 406.044,-356.244 402.632,-350.447 407.399,-351.953 407.399,-351.953 407.399,-351.953 402.632,-350.447 408.755,-347.662 397.864,-348.941 397.864,-348.941"/>
<polygon fill="#7f32fe" stroke="#7f32fe" points="257.224,-274.682 251.881,-265.105 253.211,-271.7 249.197,-268.717 249.197,-268.717 249.197,-268.717 253.211,-271.7 246.513,-272.329 257.224,-274.682 257.224,-274.682"/>
</g>
<!-- Tag -->
<g id="node34" class="node"><title>Tag</title>
<ellipse fill="none" stroke="black" cx="443" cy="-252" rx="27" ry="18"/>
<text text-anchor="middle" x="443" y="-247.8" font-family="Times,serif" font-size="14.00">Tag</text>
</g>
<!-- Card&#45;&gt;Tag -->
<g id="edge17" class="edge"><title>Card&#45;&gt;Tag</title>
<path fill="none" stroke="#3c1821" d="M433.957,-331.453C434.987,-318.284 436.375,-302.308 438,-288 438.291,-285.438 438.621,-282.775 438.97,-280.113"/>
<polygon fill="#3c1821" stroke="#3c1821" points="433.932,-331.785 428.691,-341.417 433.555,-336.77 433.178,-341.756 433.178,-341.756 433.178,-341.756 433.555,-336.77 437.665,-342.095 433.932,-331.785 433.932,-331.785"/>
<polygon fill="#3c1821" stroke="#3c1821" points="438.989,-279.97 444.819,-270.682 439.675,-275.017 440.361,-270.065 440.361,-270.065 440.361,-270.065 439.675,-275.017 435.904,-269.447 438.989,-279.97 438.989,-279.97"/>
</g>
<!-- Tagging -->
<g id="node35" class="node"><title>Tagging</title>
<ellipse fill="none" stroke="black" cx="443" cy="-166" rx="38.4411" ry="18"/>
<text text-anchor="middle" x="443" y="-161.8" font-family="Times,serif" font-size="14.00">Tagging</text>
</g>
<!-- Card&#45;&gt;Tagging -->
<g id="edge16" class="edge"><title>Card&#45;&gt;Tagging</title>
<path fill="none" stroke="#610b0d" d="M467.207,-356.85C511.932,-353.299 585.332,-344.449 602,-324 610.778,-313.23 599.481,-238.732 596,-234 588.746,-224.141 524.502,-198.141 481.601,-181.58"/>
<ellipse fill="none" stroke="#610b0d" cx="463.198" cy="-357.152" rx="4" ry="4"/>
<polygon fill="#610b0d" stroke="#610b0d" points="481.337,-181.479 473.615,-173.694 476.669,-179.687 472.002,-177.895 472.002,-177.895 472.002,-177.895 476.669,-179.687 470.389,-182.095 481.337,-181.479 481.337,-181.479"/>
</g>
<!-- User -->
<g id="node37" class="node"><title>User</title>
<ellipse fill="none" stroke="black" cx="913" cy="-252" rx="27" ry="18"/>
<text text-anchor="middle" x="913" y="-247.8" font-family="Times,serif" font-size="14.00">User</text>
</g>
<!-- Card&#45;&gt;User -->
<g id="edge22" class="edge"><title>Card&#45;&gt;User</title>
<path fill="none" stroke="#f699dc" d="M468.582,-354.977C515.822,-349.855 599.957,-339.737 671,-324 746.198,-307.343 832.336,-278.448 879.023,-263.161"/>
<polygon fill="#f699dc" stroke="#f699dc" points="468.462,-354.989 458.04,-351.579 463.49,-355.521 458.518,-356.053 458.518,-356.053 458.518,-356.053 463.49,-355.521 458.997,-360.527 468.462,-354.989 468.462,-354.989"/>
<polygon fill="#f699dc" stroke="#f699dc" points="879.136,-263.125 890.038,-264.305 883.89,-261.575 888.643,-260.026 888.643,-260.026 888.643,-260.026 883.89,-261.575 887.249,-255.748 879.136,-263.125 879.136,-263.125"/>
</g>
<!-- VerificatorComment -->
<g id="node39" class="node"><title>VerificatorComment</title>
<ellipse fill="none" stroke="black" cx="582" cy="-166" rx="81.9719" ry="18"/>
<text text-anchor="middle" x="582" y="-161.8" font-family="Times,serif" font-size="14.00">VerificatorComment</text>
</g>
<!-- Card&#45;&gt;VerificatorComment -->
<g id="edge18" class="edge"><title>Card&#45;&gt;VerificatorComment</title>
<path fill="none" stroke="#4fb12f" d="M467.153,-357.556C515.642,-354.741 599.212,-346.653 618,-324 649.3,-286.26 620.839,-226.571 599.795,-192.701"/>
<ellipse fill="none" stroke="#4fb12f" cx="463.103" cy="-357.776" rx="4" ry="4"/>
<polygon fill="#4fb12f" stroke="#4fb12f" points="599.785,-192.686 598.164,-181.841 597.082,-188.48 594.379,-184.273 594.379,-184.273 594.379,-184.273 597.082,-188.48 590.593,-186.706 599.785,-192.686 599.785,-192.686"/>
</g>
<!-- CardType -->
<g id="node13" class="node"><title>CardType</title>
<ellipse fill="none" stroke="black" cx="495" cy="-468" rx="44.2773" ry="18"/>
<text text-anchor="middle" x="495" y="-463.8" font-family="Times,serif" font-size="14.00">CardType</text>
</g>
<!-- CardType&#45;&gt;Card -->
<g id="edge31" class="edge"><title>CardType&#45;&gt;Card</title>
<path fill="none" stroke="#a55c59" d="M480.984,-443.418C470.868,-426.397 457.231,-403.452 446.915,-386.095"/>
<ellipse fill="none" stroke="#a55c59" cx="483.113" cy="-446.999" rx="4.00002" ry="4.00002"/>
<polygon fill="#a55c59" stroke="#a55c59" points="446.678,-385.695 445.437,-374.8 444.123,-381.397 441.568,-377.099 441.568,-377.099 441.568,-377.099 444.123,-381.397 437.7,-379.398 446.678,-385.695 446.678,-385.695"/>
</g>
<!-- CardVerification -->
<g id="node15" class="node"><title>CardVerification</title>
<ellipse fill="none" stroke="black" cx="2032" cy="-468" rx="68.3347" ry="18"/>
<text text-anchor="middle" x="2032" y="-463.8" font-family="Times,serif" font-size="14.00">CardVerification</text>
</g>
<!-- Connection -->
<g id="node16" class="node"><title>Connection</title>
<ellipse fill="none" stroke="black" cx="951" cy="-166" rx="50.3188" ry="18"/>
<text text-anchor="middle" x="951" y="-161.8" font-family="Times,serif" font-size="14.00">Connection</text>
</g>
<!-- Disponibility -->
<g id="node17" class="node"><title>Disponibility</title>
<ellipse fill="none" stroke="black" cx="1684" cy="-252" rx="56.1805" ry="18"/>
<text text-anchor="middle" x="1684" y="-247.8" font-family="Times,serif" font-size="14.00">Disponibility</text>
</g>
<!-- Orator -->
<g id="node21" class="node"><title>Orator</title>
<ellipse fill="none" stroke="black" cx="1622" cy="-166" rx="33.2811" ry="18"/>
<text text-anchor="middle" x="1622" y="-161.8" font-family="Times,serif" font-size="14.00">Orator</text>
</g>
<!-- Disponibility&#45;&gt;Orator -->
<g id="edge37" class="edge"><title>Disponibility&#45;&gt;Orator</title>
<path fill="none" stroke="#8a8805" d="M1665.68,-226.176C1657.55,-215.158 1648.01,-202.234 1639.92,-191.28"/>
<polygon fill="#8a8805" stroke="#8a8805" points="1665.81,-226.359 1668.13,-237.077 1668.78,-230.381 1671.75,-234.404 1671.75,-234.404 1671.75,-234.404 1668.78,-230.381 1675.37,-231.732 1665.81,-226.359 1665.81,-226.359"/>
<polygon fill="#8a8805" stroke="#8a8805" points="1639.74,-191.037 1637.42,-180.319 1636.77,-187.014 1633.8,-182.991 1633.8,-182.991 1633.8,-182.991 1636.77,-187.014 1630.18,-185.664 1639.74,-191.037 1639.74,-191.037"/>
</g>
<!-- OratorDisponibility -->
<g id="node22" class="node"><title>OratorDisponibility</title>
<ellipse fill="none" stroke="black" cx="1727" cy="-92" rx="79.2995" ry="18"/>
<text text-anchor="middle" x="1727" y="-87.8" font-family="Times,serif" font-size="14.00">OratorDisponibility</text>
</g>
<!-- Disponibility&#45;&gt;OratorDisponibility -->
<g id="edge36" class="edge"><title>Disponibility&#45;&gt;OratorDisponibility</title>
<path fill="none" stroke="#2603e4" d="M1690.89,-225.692C1698.77,-196.723 1711.63,-149.471 1719.69,-119.865"/>
<ellipse fill="none" stroke="#2603e4" cx="1689.73" cy="-229.931" rx="4.00001" ry="4.00001"/>
<polygon fill="#2603e4" stroke="#2603e4" points="1719.7,-119.837 1726.66,-111.37 1721.01,-115.013 1722.32,-110.188 1722.32,-110.188 1722.32,-110.188 1721.01,-115.013 1717.98,-109.007 1719.7,-119.837 1719.7,-119.837"/>
</g>
<!-- Document -->
<g id="node18" class="node"><title>Document</title>
<ellipse fill="none" stroke="black" cx="1122" cy="-92" rx="46.4174" ry="18"/>
<text text-anchor="middle" x="1122" y="-87.8" font-family="Times,serif" font-size="14.00">Document</text>
</g>
<!-- Element -->
<g id="node19" class="node"><title>Element</title>
<ellipse fill="none" stroke="black" cx="1423" cy="-306" rx="39.3599" ry="18"/>
<text text-anchor="middle" x="1423" y="-301.8" font-family="Times,serif" font-size="14.00">Element</text>
</g>
<!-- Element&#45;&gt;Ownership -->
<g id="edge40" class="edge"><title>Element&#45;&gt;Ownership</title>
<path fill="none" stroke="#21948c" d="M1418.79,-279.725C1414.75,-255.492 1408.67,-219.021 1404.53,-194.172"/>
<ellipse fill="none" stroke="#21948c" cx="1419.48" cy="-283.856" rx="4.00001" ry="4.00001"/>
<polygon fill="#21948c" stroke="#21948c" points="1404.47,-193.846 1407.27,-183.242 1403.65,-188.914 1402.83,-183.982 1402.83,-183.982 1402.83,-183.982 1403.65,-188.914 1398.39,-184.722 1404.47,-193.846 1404.47,-193.846"/>
</g>
<!-- Orator&#45;&gt;OratorDisponibility -->
<g id="edge45" class="edge"><title>Orator&#45;&gt;OratorDisponibility</title>
<path fill="none" stroke="#eb12c5" d="M1648.65,-146.728C1662.72,-137.076 1680.1,-125.158 1694.91,-115.001"/>
<ellipse fill="none" stroke="#eb12c5" cx="1645.05" cy="-149.195" rx="4.00002" ry="4.00002"/>
<polygon fill="#eb12c5" stroke="#eb12c5" points="1695.05,-114.91 1705.84,-112.966 1699.17,-112.083 1703.29,-109.255 1703.29,-109.255 1703.29,-109.255 1699.17,-112.083 1700.75,-105.544 1695.05,-114.91 1695.05,-114.91"/>
</g>
<!-- OratorTheme -->
<g id="node23" class="node"><title>OratorTheme</title>
<ellipse fill="none" stroke="black" cx="1619" cy="-18" rx="57.6091" ry="18"/>
<text text-anchor="middle" x="1619" y="-13.8" font-family="Times,serif" font-size="14.00">OratorTheme</text>
</g>
<!-- Orator&#45;&gt;OratorTheme -->
<g id="edge43" class="edge"><title>Orator&#45;&gt;OratorTheme</title>
<path fill="none" stroke="#b19655" d="M1621.48,-139.8C1620.95,-113.827 1620.12,-73.4489 1619.57,-46.6216"/>
<ellipse fill="none" stroke="#b19655" cx="1621.57" cy="-143.967" rx="4" ry="4"/>
<polygon fill="#b19655" stroke="#b19655" points="1619.56,-46.3757 1623.86,-36.2854 1619.46,-41.3768 1619.36,-36.3779 1619.36,-36.3779 1619.36,-36.3779 1619.46,-41.3768 1614.86,-36.4703 1619.56,-46.3757 1619.56,-46.3757"/>
</g>
<!-- Orator&#45;&gt;Theme -->
<g id="edge44" class="edge"><title>Orator&#45;&gt;Theme</title>
<path fill="none" stroke="#dc5294" d="M1580.84,-158.329C1520.15,-148.391 1403.12,-128.841 1304,-110 1290.7,-107.472 1276.23,-104.534 1263.2,-101.819"/>
<polygon fill="#dc5294" stroke="#dc5294" points="1580.92,-158.343 1590.07,-164.396 1585.86,-159.149 1590.79,-159.955 1590.79,-159.955 1590.79,-159.955 1585.86,-159.149 1591.52,-155.514 1580.92,-158.343 1580.92,-158.343"/>
<polygon fill="#dc5294" stroke="#dc5294" points="1262.89,-101.755 1254.03,-95.2971 1258,-100.728 1253.1,-99.7012 1253.1,-99.7012 1253.1,-99.7012 1258,-100.728 1252.18,-104.105 1262.89,-101.755 1262.89,-101.755"/>
</g>
<!-- Ownership&#45;&gt;AccessToken -->
<g id="edge50" class="edge"><title>Ownership&#45;&gt;AccessToken</title>
<path fill="none" stroke="#485844" d="M1433.79,-146.845C1453.11,-136.466 1477.35,-123.437 1497.16,-112.795"/>
<ellipse fill="none" stroke="#485844" cx="1430" cy="-148.882" rx="4.00002" ry="4.00002"/>
<polygon fill="#485844" stroke="#485844" points="1497.39,-112.672 1508.33,-111.903 1501.79,-110.306 1506.2,-107.939 1506.2,-107.939 1506.2,-107.939 1501.79,-110.306 1504.07,-103.975 1497.39,-112.672 1497.39,-112.672"/>
</g>
<!-- Ownership&#45;&gt;OwnershipAction -->
<g id="edge49" class="edge"><title>Ownership&#45;&gt;OwnershipAction</title>
<path fill="none" stroke="#0f2f4e" d="M1395.1,-139.792C1393.89,-133.58 1392.59,-126.896 1391.36,-120.579"/>
<ellipse fill="none" stroke="#0f2f4e" cx="1395.92" cy="-144.011" rx="4.00001" ry="4.00001"/>
<polygon fill="#0f2f4e" stroke="#0f2f4e" points="1391.3,-120.257 1393.81,-109.582 1390.35,-115.349 1389.39,-110.441 1389.39,-110.441 1389.39,-110.441 1390.35,-115.349 1384.97,-111.3 1391.3,-120.257 1391.3,-120.257"/>
</g>
<!-- OwnershipType -->
<g id="node26" class="node"><title>OwnershipType</title>
<ellipse fill="none" stroke="black" cx="1379" cy="-414" rx="66.2001" ry="18"/>
<text text-anchor="middle" x="1379" y="-409.8" font-family="Times,serif" font-size="14.00">OwnershipType</text>
</g>
<!-- OwnershipType&#45;&gt;Ownership -->
<g id="edge53" class="edge"><title>OwnershipType&#45;&gt;Ownership</title>
<path fill="none" stroke="#281edb" d="M1377.56,-387.775C1376.62,-369.962 1375.48,-345.528 1375,-324 1374.64,-308.004 1373.37,-303.917 1375,-288 1378.34,-255.284 1386.65,-218.357 1392.77,-193.996"/>
<ellipse fill="none" stroke="#281edb" cx="1377.79" cy="-391.952" rx="4" ry="4"/>
<polygon fill="#281edb" stroke="#281edb" points="1392.84,-193.746 1399.68,-185.181 1394.08,-188.904 1395.33,-184.061 1395.33,-184.061 1395.33,-184.061 1394.08,-188.904 1390.97,-182.941 1392.84,-193.746 1392.84,-193.746"/>
</g>
<!-- Page -->
<g id="node27" class="node"><title>Page</title>
<ellipse fill="none" stroke="black" cx="2146" cy="-468" rx="26.9483" ry="18"/>
<text text-anchor="middle" x="2146" y="-463.8" font-family="Times,serif" font-size="14.00">Page</text>
</g>
<!-- Parent -->
<g id="node28" class="node"><title>Parent</title>
<ellipse fill="none" stroke="black" cx="849" cy="-166" rx="32.5477" ry="18"/>
<text text-anchor="middle" x="849" y="-161.8" font-family="Times,serif" font-size="14.00">Parent</text>
</g>
<!-- Permission -->
<g id="node29" class="node"><title>Permission</title>
<polygon fill="none" stroke="black" points="2269.17,-486 2190.83,-486 2190.83,-450 2269.17,-450 2269.17,-486"/>
<text text-anchor="middle" x="2230" y="-463.8" font-family="Times,serif" font-size="14.00">Permission</text>
</g>
<!-- Responsable&#45;&gt;CardResponsable -->
<g id="edge58" class="edge"><title>Responsable&#45;&gt;CardResponsable</title>
<path fill="none" stroke="#10edbb" d="M222.748,-225.991C220.206,-215.824 217.264,-204.058 214.68,-193.721"/>
<ellipse fill="none" stroke="#10edbb" cx="223.78" cy="-230.121" rx="4.00001" ry="4.00001"/>
<polygon fill="#10edbb" stroke="#10edbb" points="214.669,-193.675 216.609,-182.882 213.456,-188.824 212.243,-183.973 212.243,-183.973 212.243,-183.973 213.456,-188.824 207.878,-185.065 214.669,-193.675 214.669,-193.675"/>
</g>
<!-- Status -->
<g id="node31" class="node"><title>Status</title>
<ellipse fill="none" stroke="black" cx="590" cy="-468" rx="31.5903" ry="18"/>
<text text-anchor="middle" x="590" y="-463.8" font-family="Times,serif" font-size="14.00">Status</text>
</g>
<!-- Status&#45;&gt;Card -->
<g id="edge60" class="edge"><title>Status&#45;&gt;Card</title>
<path fill="none" stroke="#9c1f28" d="M563.418,-449.166C534.377,-429.683 488.114,-398.646 458.935,-379.07"/>
<ellipse fill="none" stroke="#9c1f28" cx="566.987" cy="-451.561" rx="4.00002" ry="4.00002"/>
<polygon fill="#9c1f28" stroke="#9c1f28" points="458.77,-378.959 452.972,-369.651 454.618,-376.174 450.465,-373.388 450.465,-373.388 450.465,-373.388 454.618,-376.174 447.958,-377.125 458.77,-378.959 458.77,-378.959"/>
</g>
<!-- Subject -->
<g id="node32" class="node"><title>Subject</title>
<ellipse fill="none" stroke="black" cx="1144" cy="-166" rx="36.4487" ry="18"/>
<text text-anchor="middle" x="1144" y="-161.8" font-family="Times,serif" font-size="14.00">Subject</text>
</g>
<!-- Subject&#45;&gt;Document -->
<g id="edge62" class="edge"><title>Subject&#45;&gt;Document</title>
<path fill="none" stroke="#90906a" d="M1136.44,-140.262C1134.44,-133.701 1132.26,-126.584 1130.22,-119.913"/>
<ellipse fill="none" stroke="#90906a" cx="1137.62" cy="-144.112" rx="4.00001" ry="4.00001"/>
<polygon fill="#90906a" stroke="#90906a" points="1130.1,-119.504 1131.48,-108.626 1128.64,-114.722 1127.18,-109.941 1127.18,-109.941 1127.18,-109.941 1128.64,-114.722 1122.87,-111.256 1130.1,-119.504 1130.1,-119.504"/>
</g>
<!-- SubjectTheme -->
<g id="node33" class="node"><title>SubjectTheme</title>
<ellipse fill="none" stroke="black" cx="1222" cy="-18" rx="61.2787" ry="18"/>
<text text-anchor="middle" x="1222" y="-13.8" font-family="Times,serif" font-size="14.00">SubjectTheme</text>
</g>
<!-- Subject&#45;&gt;SubjectTheme -->
<g id="edge63" class="edge"><title>Subject&#45;&gt;SubjectTheme</title>
<path fill="none" stroke="#925ee3" d="M1109.32,-149.992C1093.02,-140.959 1075.19,-127.731 1066,-110 1058.64,-95.7957 1056.76,-87.0599 1066,-74 1085.92,-45.8534 1121.48,-32.0107 1153.62,-25.2459"/>
<ellipse fill="none" stroke="#925ee3" cx="1113.12" cy="-151.989" rx="4.00002" ry="4.00002"/>
<polygon fill="#925ee3" stroke="#925ee3" points="1153.64,-25.2419 1164.3,-27.7858 1158.55,-24.3038 1163.46,-23.3657 1163.46,-23.3657 1163.46,-23.3657 1158.55,-24.3038 1162.62,-18.9456 1153.64,-25.2419 1153.64,-25.2419"/>
</g>
<!-- Subject&#45;&gt;Theme -->
<g id="edge64" class="edge"><title>Subject&#45;&gt;Theme</title>
<path fill="none" stroke="#f88d79" d="M1168.18,-142.682C1177.72,-133.875 1188.65,-123.784 1198.16,-115.007"/>
<polygon fill="#f88d79" stroke="#f88d79" points="1167.89,-142.948 1157.49,-146.424 1164.22,-146.339 1160.54,-149.731 1160.54,-149.731 1160.54,-149.731 1164.22,-146.339 1163.59,-153.037 1167.89,-142.948 1167.89,-142.948"/>
<polygon fill="#f88d79" stroke="#f88d79" points="1198.4,-114.783 1208.8,-111.307 1202.08,-111.392 1205.75,-108 1205.75,-108 1205.75,-108 1202.08,-111.392 1202.7,-104.694 1198.4,-114.783 1198.4,-114.783"/>
</g>
<!-- Tag&#45;&gt;Tagging -->
<g id="edge67" class="edge"><title>Tag&#45;&gt;Tagging</title>
<path fill="none" stroke="#72f462" d="M443,-225.257C443,-215.441 443,-204.226 443,-194.273"/>
<ellipse fill="none" stroke="#72f462" cx="443" cy="-229.595" rx="4" ry="4"/>
<polygon fill="#72f462" stroke="#72f462" points="443,-194.095 447.5,-184.095 443,-189.095 443,-184.095 443,-184.095 443,-184.095 443,-189.095 438.5,-184.095 443,-194.095 443,-194.095"/>
</g>
<!-- Theme&#45;&gt;ArticleTheme -->
<g id="edge71" class="edge"><title>Theme&#45;&gt;ArticleTheme</title>
<path fill="none" stroke="#d2fdef" d="M1187.36,-77.7368C1183.87,-76.4527 1180.37,-75.1874 1177,-74 1137.22,-59.9821 1091.73,-45.1638 1058.13,-34.4445"/>
<ellipse fill="none" stroke="#d2fdef" cx="1191.2" cy="-79.161" rx="4.00001" ry="4.00001"/>
<polygon fill="#d2fdef" stroke="#d2fdef" points="1058.07,-34.4265 1049.91,-27.1065 1053.31,-32.9106 1048.54,-31.3947 1048.54,-31.3947 1048.54,-31.3947 1053.31,-32.9106 1047.18,-35.6829 1058.07,-34.4265 1058.07,-34.4265"/>
</g>
<!-- Theme&#45;&gt;OratorTheme -->
<g id="edge70" class="edge"><title>Theme&#45;&gt;OratorTheme</title>
<path fill="none" stroke="#d7ad61" d="M1261.27,-82.5954C1274.8,-79.7715 1290.04,-76.6642 1304,-74 1392.72,-57.0631 1495.89,-39.44 1559.32,-28.8434"/>
<ellipse fill="none" stroke="#d7ad61" cx="1257.02" cy="-83.4886" rx="4.00001" ry="4.00001"/>
<polygon fill="#d7ad61" stroke="#d7ad61" points="1559.67,-28.7851 1570.28,-31.5791 1564.6,-27.9627 1569.54,-27.1404 1569.54,-27.1404 1569.54,-27.1404 1564.6,-27.9627 1568.8,-22.7016 1559.67,-28.7851 1559.67,-28.7851"/>
</g>
<!-- Theme&#45;&gt;SubjectTheme -->
<g id="edge72" class="edge"><title>Theme&#45;&gt;SubjectTheme</title>
<path fill="none" stroke="#6022fa" d="M1222,-65.7923C1222,-59.5805 1222,-52.8963 1222,-46.5786"/>
<ellipse fill="none" stroke="#6022fa" cx="1222" cy="-69.937" rx="4" ry="4"/>
<polygon fill="#6022fa" stroke="#6022fa" points="1222,-46.4407 1226.5,-36.4406 1222,-41.4407 1222,-36.4407 1222,-36.4407 1222,-36.4407 1222,-41.4407 1217.5,-36.4407 1222,-46.4407 1222,-46.4407"/>
</g>
<!-- User&#45;&gt;Activity -->
<g id="edge80" class="edge"><title>User&#45;&gt;Activity</title>
<path fill="none" stroke="#4de16a" d="M887.501,-234.411C871.988,-224.564 851.636,-212.077 833,-202 821.064,-195.546 807.738,-189.038 795.72,-183.414"/>
<ellipse fill="none" stroke="#4de16a" cx="890.893" cy="-236.578" rx="4.00002" ry="4.00002"/>
<polygon fill="#4de16a" stroke="#4de16a" points="795.489,-183.307 788.301,-175.026 790.951,-181.209 786.412,-179.111 786.412,-179.111 786.412,-179.111 790.951,-181.209 784.524,-183.195 795.489,-183.307 795.489,-183.307"/>
</g>
<!-- User&#45;&gt;Article -->
<g id="edge81" class="edge"><title>User&#45;&gt;Article</title>
<path fill="none" stroke="#5e1cfb" d="M948.171,-248.318C974.007,-244.677 1008.55,-236.116 1032,-216 1038.8,-210.171 1043.72,-201.895 1047.22,-193.8"/>
<ellipse fill="none" stroke="#5e1cfb" cx="944.082" cy="-248.834" rx="4.00001" ry="4.00001"/>
<polygon fill="#5e1cfb" stroke="#5e1cfb" points="1047.31,-193.557 1055.03,-185.771 1049.07,-188.875 1050.82,-184.193 1050.82,-184.193 1050.82,-184.193 1049.07,-188.875 1046.61,-182.614 1047.31,-193.557 1047.31,-193.557"/>
</g>
<!-- User&#45;&gt;Card -->
<g id="edge85" class="edge"><title>User&#45;&gt;Card</title>
<path fill="none" stroke="#ef3310" d="M883.618,-265.759C841.043,-281.54 760.128,-308.244 689,-324 611.912,-341.076 519.408,-351.537 468.931,-356.176"/>
<ellipse fill="none" stroke="#ef3310" cx="887.366" cy="-264.351" rx="4.00001" ry="4.00001"/>
<polygon fill="#ef3310" stroke="#ef3310" points="468.778,-356.189 458.418,-352.595 463.798,-356.633 458.818,-357.077 458.818,-357.077 458.818,-357.077 463.798,-356.633 459.218,-361.56 468.778,-356.189 468.778,-356.189"/>
</g>
<!-- User&#45;&gt;CardUser -->
<g id="edge84" class="edge"><title>User&#45;&gt;CardUser</title>
<path fill="none" stroke="#40ca6c" d="M878.122,-248.687C794.119,-242.643 574.259,-223.993 395,-184 391.342,-183.184 387.577,-182.225 383.82,-181.185"/>
<ellipse fill="none" stroke="#40ca6c" cx="882.299" cy="-248.983" rx="4" ry="4"/>
<polygon fill="#40ca6c" stroke="#40ca6c" points="383.567,-181.111 375.245,-173.97 378.771,-179.699 373.974,-178.287 373.974,-178.287 373.974,-178.287 378.771,-179.699 372.703,-182.603 383.567,-181.111 383.567,-181.111"/>
</g>
<!-- User&#45;&gt;Connection -->
<g id="edge82" class="edge"><title>User&#45;&gt;Connection</title>
<path fill="none" stroke="#3f3e19" d="M948.022,-249.162C971.431,-245.892 1000.65,-237.425 1016,-216 1025.51,-202.72 1013.18,-191.443 996.795,-183.067"/>
<ellipse fill="none" stroke="#3f3e19" cx="943.989" cy="-249.642" rx="4.00001" ry="4.00001"/>
<polygon fill="#3f3e19" stroke="#3f3e19" points="996.464,-182.913 989.275,-174.633 991.925,-180.816 987.387,-178.718 987.387,-178.718 987.387,-178.718 991.925,-180.816 985.498,-182.802 996.464,-182.913 996.464,-182.913"/>
</g>
<!-- User&#45;&gt;Orator -->
<g id="edge86" class="edge"><title>User&#45;&gt;Orator</title>
<path fill="none" stroke="#68ca42" d="M947.736,-246.885C1066.3,-232.838 1454.66,-186.826 1581.52,-171.796"/>
<ellipse fill="none" stroke="#68ca42" cx="943.472" cy="-247.39" rx="4.00001" ry="4.00001"/>
<ellipse fill="#68ca42" stroke="#68ca42" cx="1585.87" cy="-171.281" rx="4.00001" ry="4.00001"/>
</g>
<!-- User&#45;&gt;Ownership -->
<g id="edge78" class="edge"><title>User&#45;&gt;Ownership</title>
<path fill="none" stroke="#b67a7d" d="M946.731,-245.182C1030.1,-230.802 1246.36,-193.5 1347.02,-176.138"/>
<ellipse fill="none" stroke="#b67a7d" cx="942.781" cy="-245.863" rx="4.00001" ry="4.00001"/>
<polygon fill="#b67a7d" stroke="#b67a7d" points="1347.12,-176.122 1357.74,-178.856 1352.04,-175.272 1356.97,-174.422 1356.97,-174.422 1356.97,-174.422 1352.04,-175.272 1356.21,-169.987 1347.12,-176.122 1347.12,-176.122"/>
</g>
<!-- User&#45;&gt;Parent -->
<g id="edge74" class="edge"><title>User&#45;&gt;Parent</title>
<path fill="none" stroke="#1d9b34" d="M898.677,-228.396C893.088,-219.94 886.475,-210.363 880,-202 876.932,-198.037 873.54,-193.949 870.159,-190.027"/>
<ellipse fill="none" stroke="#1d9b34" cx="900.921" cy="-231.833" rx="4.00002" ry="4.00002"/>
<polygon fill="#1d9b34" stroke="#1d9b34" points="869.96,-189.802 866.717,-179.326 866.652,-186.053 863.343,-182.304 863.343,-182.304 863.343,-182.304 866.652,-186.053 859.969,-185.282 869.96,-189.802 869.96,-189.802"/>
</g>
<!-- User&#45;&gt;Parent -->
<g id="edge76" class="edge"><title>User&#45;&gt;Parent</title>
<path fill="none" stroke="#886b72" d="M909.303,-225.987C907.23,-217.806 904.006,-209.025 899,-202 894.157,-195.205 887.562,-189.278 880.752,-184.329"/>
<ellipse fill="none" stroke="#886b72" cx="910.167" cy="-229.972" rx="4.00001" ry="4.00001"/>
<polygon fill="#886b72" stroke="#886b72" points="880.451,-184.129 874.618,-174.844 876.288,-181.36 872.125,-178.591 872.125,-178.591 872.125,-178.591 876.288,-181.36 869.633,-182.337 880.451,-184.129 880.451,-184.129"/>
<text text-anchor="middle" x="950.928" y="-204.8" font-family="Times,serif" font-size="14.00">inverse_parents</text>
</g>
<!-- User&#45;&gt;Subject -->
<g id="edge83" class="edge"><title>User&#45;&gt;Subject</title>
<path fill="none" stroke="#5f9704" d="M947.005,-244.843C975.591,-239.102 1017.24,-229.405 1052,-216 1073.28,-207.794 1095.91,-195.792 1113.39,-185.72"/>
<ellipse fill="none" stroke="#5f9704" cx="942.865" cy="-245.656" rx="4.00001" ry="4.00001"/>
<polygon fill="#5f9704" stroke="#5f9704" points="1113.41,-185.713 1124.31,-184.543 1117.72,-183.186 1122.04,-180.66 1122.04,-180.66 1122.04,-180.66 1117.72,-183.186 1119.76,-176.776 1113.41,-185.713 1113.41,-185.713"/>
</g>
<!-- User&#45;&gt;User -->
<g id="edge75" class="edge"><title>User&#45;&gt;User</title>
<path fill="none" stroke="#a6156b" d="M949.943,-255.467C954.789,-254.873 958,-253.718 958,-252 958,-250.282 954.789,-249.127 949.943,-248.533"/>
<polygon fill="#a6156b" stroke="#a6156b" points="949.785,-255.474 939.59,-251.434 944.79,-255.701 939.795,-255.929 939.795,-255.929 939.795,-255.929 944.79,-255.701 940,-260.424 949.785,-255.474 949.785,-255.474"/>
<polygon fill="#a6156b" stroke="#a6156b" points="949.785,-248.526 940,-243.576 944.79,-248.299 939.795,-248.071 939.795,-248.071 939.795,-248.071 944.79,-248.299 939.59,-252.566 949.785,-248.526 949.785,-248.526"/>
</g>
<!-- User&#45;&gt;User -->
<g id="edge77" class="edge"><title>User&#45;&gt;User</title>
<path fill="none" stroke="#29eadf" d="M948.273,-259.793C963.242,-260.385 976,-257.787 976,-252 976,-246.213 963.242,-243.615 948.273,-244.207"/>
<polygon fill="#29eadf" stroke="#29eadf" points="948.194,-259.786 938.608,-254.46 943.211,-259.365 938.229,-258.944 938.229,-258.944 938.229,-258.944 943.211,-259.365 937.85,-263.428 948.194,-259.786 948.194,-259.786"/>
<polygon fill="#29eadf" stroke="#29eadf" points="948.194,-244.214 937.85,-240.572 943.211,-244.635 938.229,-245.056 938.229,-245.056 938.229,-245.056 943.211,-244.635 938.608,-249.54 948.194,-244.214 948.194,-244.214"/>
<text text-anchor="middle" x="1014.1" y="-247.8" font-family="Times,serif" font-size="14.00">inverse_users</text>
</g>
<!-- User&#45;&gt;VerificatorComment -->
<g id="edge79" class="edge"><title>User&#45;&gt;VerificatorComment</title>
<path fill="none" stroke="#177521" d="M881.772,-240.106C850.48,-229.448 800.797,-213.224 757,-202 723.553,-193.429 686.064,-185.687 654.39,-179.678"/>
<ellipse fill="none" stroke="#177521" cx="885.919" cy="-241.527" rx="4.00001" ry="4.00001"/>
<polygon fill="#177521" stroke="#177521" points="654.151,-179.633 645.153,-173.366 649.237,-178.711 644.323,-177.788 644.323,-177.788 644.323,-177.788 649.237,-178.711 643.493,-182.211 654.151,-179.633 654.151,-179.633"/>
</g>
<!-- UserType -->
<g id="node38" class="node"><title>UserType</title>
<ellipse fill="none" stroke="black" cx="1007" cy="-414" rx="44.038" ry="18"/>
<text text-anchor="middle" x="1007" y="-409.8" font-family="Times,serif" font-size="14.00">UserType</text>
</g>
<!-- UserType&#45;&gt;User -->
<g id="edge88" class="edge"><title>UserType&#45;&gt;User</title>
<path fill="none" stroke="#89f101" d="M994.636,-388.662C981.413,-363.117 959.438,-322.019 938,-288 935.671,-284.304 933.101,-280.47 930.522,-276.753"/>
<ellipse fill="none" stroke="#89f101" cx="996.617" cy="-392.509" rx="4.00002" ry="4.00002"/>
<polygon fill="#89f101" stroke="#89f101" points="930.389,-276.566 928.263,-265.808 927.492,-272.491 924.595,-268.415 924.595,-268.415 924.595,-268.415 927.492,-272.491 920.928,-271.022 930.389,-276.566 930.389,-276.566"/>
</g>
<!-- ActiveRecord::Base -->
<g id="node40" class="node"><title>ActiveRecord::Base</title>
<ellipse fill="none" stroke="black" cx="1121" cy="-561" rx="80.9821" ry="18"/>
<text text-anchor="middle" x="1121" y="-556.8" font-family="Times,serif" font-size="14.00">ActiveRecord::Base</text>
</g>
<!-- ActiveRecord::Base&#45;&gt;AccessToken -->
<g id="edge1" class="edge"><title>ActiveRecord::Base&#45;&gt;AccessToken</title>
<path fill="none" stroke="black" d="M1201.96,-559.576C1329.04,-556.691 1561,-541.496 1561,-469 1561,-469 1561,-469 1561,-165 1561,-145.108 1551.85,-123.981 1544.21,-109.795"/>
</g>
<!-- ActiveRecord::Base&#45;&gt;Action -->
<g id="edge4" class="edge"><title>ActiveRecord::Base&#45;&gt;Action</title>
<path fill="none" stroke="black" d="M1189.81,-551.425C1270.24,-540.097 1396.87,-517.796 1432,-486 1486.91,-436.305 1468.6,-398.018 1471,-324 1471.52,-308.008 1473.22,-303.845 1471,-288 1470.16,-281.992 1468.54,-275.568 1466.85,-269.885"/>
</g>
<!-- ActiveRecord::Base&#45;&gt;Activity -->
<g id="edge5" class="edge"><title>ActiveRecord::Base&#45;&gt;Activity</title>
<path fill="none" stroke="black" d="M1085.53,-544.67C1068.87,-537.805 1048.61,-529.937 1030,-524 932.335,-492.85 806,-571.513 806,-469 806,-469 806,-469 806,-305 806,-257.786 798.118,-245.599 780,-202 777.39,-195.718 773.784,-189.226 770.296,-183.564"/>
</g>
<!-- ActiveRecord::Base&#45;&gt;Affiliation -->
<g id="edge8" class="edge"><title>ActiveRecord::Base&#45;&gt;Affiliation</title>
<path fill="none" stroke="black" d="M1089.42,-544.324C1072.28,-536.645 1050.48,-528.171 1030,-524 874.477,-492.319 468.305,-550.657 316,-506 301.024,-501.609 286.013,-492.577 274.629,-484.536"/>
</g>
<!-- ActiveRecord::Base&#45;&gt;Article -->
<g id="edge11" class="edge"><title>ActiveRecord::Base&#45;&gt;Article</title>
<path fill="none" stroke="black" d="M1121,-542.893C1121,-524.603 1121,-494.752 1121,-469 1121,-469 1121,-469 1121,-305 1121,-257.676 1118.65,-242.398 1094,-202 1089.07,-193.923 1081.71,-186.633 1074.71,-180.822"/>
</g>
<!-- ActiveRecord::Base&#45;&gt;ArticleTheme -->
<g id="edge12" class="edge"><title>ActiveRecord::Base&#45;&gt;ArticleTheme</title>
<path fill="none" stroke="black" d="M1088.47,-544.427C1071.44,-536.976 1050.02,-528.678 1030,-524 935.331,-501.879 901.889,-543.032 812,-506 788.376,-496.267 768,-494.551 768,-469 768,-469 768,-469 768,-251 768,-211.904 724.496,-220.693 711,-184 705.477,-168.984 702.216,-161.373 711,-148 765.005,-65.7739 883.847,-35.7073 954.042,-24.8972"/>
</g>
<!-- ActiveRecord::Base&#45;&gt;Canton -->
<g id="edge14" class="edge"><title>ActiveRecord::Base&#45;&gt;Canton</title>
<path fill="none" stroke="black" d="M1202.02,-559.342C1361.34,-557.138 1709.58,-547.561 1821,-506 1833.75,-501.245 1846.06,-492.207 1855.28,-484.255"/>
</g>
<!-- ActiveRecord::Base&#45;&gt;Card -->
<g id="edge27" class="edge"><title>ActiveRecord::Base&#45;&gt;Card</title>
<path fill="none" stroke="black" d="M1088.97,-544.286C1071.89,-536.698 1050.27,-528.319 1030,-524 965.859,-510.334 486.344,-533.379 441,-486 413.169,-456.92 420.863,-404.591 427.271,-377.801"/>
</g>
<!-- ActiveRecord::Base&#45;&gt;CardAffiliation -->
<g id="edge28" class="edge"><title>ActiveRecord::Base&#45;&gt;CardAffiliation</title>
<path fill="none" stroke="black" d="M1089.42,-544.298C1072.29,-536.613 1050.48,-528.14 1030,-524 853.089,-488.242 393.401,-548.553 218,-506 116.667,-481.416 96.7449,-323.321 92.9003,-270.303"/>
</g>
<!-- ActiveRecord::Base&#45;&gt;CardParent -->
<g id="edge29" class="edge"><title>ActiveRecord::Base&#45;&gt;CardParent</title>
<path fill="none" stroke="black" d="M1088.95,-544.352C1071.87,-536.782 1050.26,-528.4 1030,-524 991.73,-515.687 708.662,-530.362 678,-506 598.11,-442.525 676.629,-361.641 606,-288 596.626,-278.226 583.926,-270.684 572.04,-265.147"/>
</g>
<!-- ActiveRecord::Base&#45;&gt;CardResponsable -->
<g id="edge30" class="edge"><title>ActiveRecord::Base&#45;&gt;CardResponsable</title>
<path fill="none" stroke="black" d="M1089.42,-544.296C1072.29,-536.61 1050.48,-528.138 1030,-524 851.125,-487.867 390.602,-523.959 209,-506 115.125,-496.717 0,-563.333 0,-469 0,-469 0,-469 0,-251 0,-190.538 76.4974,-172.517 136.709,-167.697"/>
</g>
<!-- ActiveRecord::Base&#45;&gt;CardType -->
<g id="edge32" class="edge"><title>ActiveRecord::Base&#45;&gt;CardType</title>
<path fill="none" stroke="black" d="M1088.96,-544.299C1071.89,-536.715 1050.27,-528.336 1030,-524 855.111,-486.59 804.934,-532.081 628,-506 592.908,-500.827 553.939,-489.269 527.304,-480.437"/>
</g>
<!-- ActiveRecord::Base&#45;&gt;CardUser -->
<g id="edge33" class="edge"><title>ActiveRecord::Base&#45;&gt;CardUser</title>
<path fill="none" stroke="black" d="M1089.4,-544.381C1072.27,-536.719 1050.46,-528.243 1030,-524 960.247,-509.537 440.225,-536.518 390,-486 306.092,-401.601 328.411,-237.517 338.419,-184.191"/>
</g>
<!-- ActiveRecord::Base&#45;&gt;CardVerification -->
<g id="edge34" class="edge"><title>ActiveRecord::Base&#45;&gt;CardVerification</title>
<path fill="none" stroke="black" d="M1201.44,-558.363C1380.84,-554.127 1808.89,-540.62 1949,-506 1968.15,-501.27 1988.38,-492.337 2004.08,-484.434"/>
</g>
<!-- ActiveRecord::Base&#45;&gt;Connection -->
<g id="edge35" class="edge"><title>ActiveRecord::Base&#45;&gt;Connection</title>
<path fill="none" stroke="black" d="M1108.03,-542.903C1096.02,-525.341 1080,-496.725 1080,-469 1080,-469 1080,-469 1080,-251 1080,-220.514 1057.13,-219.259 1032,-202 1018.11,-192.46 1001.2,-184.657 986.432,-178.859"/>
</g>
<!-- ActiveRecord::Base&#45;&gt;Disponibility -->
<g id="edge38" class="edge"><title>ActiveRecord::Base&#45;&gt;Disponibility</title>
<path fill="none" stroke="black" d="M1199.4,-556.165C1330.29,-549.065 1582.13,-532.171 1613,-506 1685.2,-444.781 1687,-316.586 1685.1,-270.21"/>
</g>
<!-- ActiveRecord::Base&#45;&gt;Document -->
<g id="edge39" class="edge"><title>ActiveRecord::Base&#45;&gt;Document</title>
<path fill="none" stroke="black" d="M1146.73,-543.891C1168.78,-527.878 1197,-501.111 1197,-469 1197,-469 1197,-469 1197,-305 1197,-235.132 1220.47,-210.381 1189,-148 1180.12,-130.398 1162.78,-116.409 1147.97,-106.944"/>
</g>
<!-- ActiveRecord::Base&#45;&gt;Element -->
<g id="edge41" class="edge"><title>ActiveRecord::Base&#45;&gt;Element</title>
<path fill="none" stroke="black" d="M1199.82,-556.45C1280.57,-547.88 1400.52,-520.104 1446,-432 1464.32,-396.51 1445.24,-348.719 1432.48,-323.762"/>
</g>
<!-- ActiveRecord::Base&#45;&gt;Location -->
<g id="edge42" class="edge"><title>ActiveRecord::Base&#45;&gt;Location</title>
<path fill="none" stroke="black" d="M1201.69,-558.975C1395.01,-555.629 1871.88,-541.748 1915,-486 1939.36,-454.505 1924.29,-404.163 1913.72,-378.013"/>
</g>
<!-- ActiveRecord::Base&#45;&gt;Orator -->
<g id="edge46" class="edge"><title>ActiveRecord::Base&#45;&gt;Orator</title>
<path fill="none" stroke="black" d="M1202.36,-560.966C1338.81,-560.371 1599,-548.778 1599,-469 1599,-469 1599,-469 1599,-251 1599,-226.959 1607.87,-200.378 1614.6,-183.686"/>
</g>
<!-- ActiveRecord::Base&#45;&gt;OratorDisponibility -->
<g id="edge47" class="edge"><title>ActiveRecord::Base&#45;&gt;OratorDisponibility</title>
<path fill="none" stroke="black" d="M1200.46,-556.996C1373.49,-549.393 1769,-525.802 1769,-469 1769,-469 1769,-469 1769,-165 1769,-143.872 1755.34,-123.425 1743.6,-109.754"/>
</g>
<!-- ActiveRecord::Base&#45;&gt;OratorTheme -->
<g id="edge48" class="edge"><title>ActiveRecord::Base&#45;&gt;OratorTheme</title>
<path fill="none" stroke="black" d="M1200.56,-557.26C1367.72,-550.635 1742.97,-530.868 1778,-486 1834.57,-413.546 1870.53,-147.256 1815,-74 1797.55,-50.9751 1722.44,-34.9263 1670.44,-26.3347"/>
</g>
<!-- ActiveRecord::Base&#45;&gt;Ownership -->
<g id="edge51" class="edge"><title>ActiveRecord::Base&#45;&gt;Ownership</title>
<path fill="none" stroke="black" d="M1201.38,-557.951C1318.7,-552.742 1523,-534.296 1523,-469 1523,-469 1523,-469 1523,-305 1523,-272.334 1523.24,-260.395 1504,-234 1485.78,-209.009 1455.15,-190.933 1431.84,-179.901"/>
</g>
<!-- ActiveRecord::Base&#45;&gt;OwnershipAction -->
<g id="edge52" class="edge"><title>ActiveRecord::Base&#45;&gt;OwnershipAction</title>
<path fill="none" stroke="black" d="M1194.79,-553.338C1227.71,-546.505 1264.14,-532.904 1287,-506 1313.06,-475.333 1325.83,-184.851 1342,-148 1348.29,-133.668 1359.29,-119.918 1368.72,-109.751"/>
</g>
<!-- ActiveRecord::Base&#45;&gt;OwnershipType -->
<g id="edge54" class="edge"><title>ActiveRecord::Base&#45;&gt;OwnershipType</title>
<path fill="none" stroke="black" d="M1195.92,-554.049C1237.38,-547.556 1287.88,-534.047 1325,-506 1350.07,-487.064 1365.74,-452.822 1373.38,-432.172"/>
</g>
<!-- ActiveRecord::Base&#45;&gt;Page -->
<g id="edge55" class="edge"><title>ActiveRecord::Base&#45;&gt;Page</title>
<path fill="none" stroke="black" d="M1200.19,-556.961C1350.13,-550.759 1685.71,-534.745 1967,-506 2030.4,-499.521 2047.84,-503.938 2109,-486 2114.43,-484.408 2120.08,-482.151 2125.28,-479.8"/>
</g>
<!-- ActiveRecord::Base&#45;&gt;Parent -->
<g id="edge56" class="edge"><title>ActiveRecord::Base&#45;&gt;Parent</title>
<path fill="none" stroke="black" d="M1083.17,-545.061C1043.16,-528.745 983.328,-502.714 965,-486 872.472,-401.619 853.628,-237.523 849.895,-184.193"/>
</g>
<!-- ActiveRecord::Base&#45;&gt;Responsable -->
<g id="edge59" class="edge"><title>ActiveRecord::Base&#45;&gt;Responsable</title>
<path fill="none" stroke="black" d="M1089.42,-544.321C1072.29,-536.642 1050.48,-528.168 1030,-524 872.513,-491.944 466.848,-522.685 307,-506 258.448,-500.932 230.218,-523.53 199,-486 145.793,-422.035 196.435,-312.057 219.204,-270.018"/>
</g>
<!-- ActiveRecord::Base&#45;&gt;Status -->
<g id="edge61" class="edge"><title>ActiveRecord::Base&#45;&gt;Status</title>
<path fill="none" stroke="black" d="M1088.96,-544.307C1071.88,-536.725 1050.27,-528.345 1030,-524 944.3,-505.628 717.981,-537 636,-506 623.921,-501.432 612.589,-492.398 604.195,-484.4"/>
</g>
<!-- ActiveRecord::Base&#45;&gt;Subject -->
<g id="edge65" class="edge"><title>ActiveRecord::Base&#45;&gt;Subject</title>
<path fill="none" stroke="black" d="M1132.82,-543.094C1143.97,-525.451 1159,-496.564 1159,-469 1159,-469 1159,-469 1159,-251 1159,-227.446 1153.21,-200.747 1148.83,-183.895"/>
</g>
<!-- ActiveRecord::Base&#45;&gt;SubjectTheme -->
<g id="edge66" class="edge"><title>ActiveRecord::Base&#45;&gt;SubjectTheme</title>
<path fill="none" stroke="black" d="M1181.51,-548.786C1223.9,-537.029 1273,-513.751 1273,-469 1273,-469 1273,-469 1273,-251 1273,-172.253 1292.32,-147.854 1265,-74 1259.62,-59.4497 1248.87,-45.6997 1239.46,-35.5873"/>
</g>
<!-- ActiveRecord::Base&#45;&gt;Tag -->
<g id="edge68" class="edge"><title>ActiveRecord::Base&#45;&gt;Tag</title>
<path fill="none" stroke="black" d="M1089.4,-544.392C1072.27,-536.733 1050.46,-528.256 1030,-524 963.514,-510.171 466.748,-535.258 420,-486 375.336,-438.938 380.392,-404.978 396,-342 402.893,-314.185 420.243,-285.482 431.824,-268.445"/>
</g>
<!-- ActiveRecord::Base&#45;&gt;Tagging -->
<g id="edge69" class="edge"><title>ActiveRecord::Base&#45;&gt;Tagging</title>
<path fill="none" stroke="black" d="M1088.93,-544.457C1071.84,-536.916 1050.23,-528.528 1030,-524 955.739,-507.376 692,-545.099 692,-469 692,-469 692,-469 692,-305 692,-200.729 590.885,-213.923 491,-184 484.903,-182.173 478.438,-180.029 472.295,-177.891"/>
</g>
<!-- ActiveRecord::Base&#45;&gt;Theme -->
<g id="edge73" class="edge"><title>ActiveRecord::Base&#45;&gt;Theme</title>
<path fill="none" stroke="black" d="M1163.45,-545.653C1195.86,-531.7 1235,-506.986 1235,-469 1235,-469 1235,-469 1235,-305 1235,-232.357 1227.3,-145.974 1223.75,-110.016"/>
</g>
<!-- ActiveRecord::Base&#45;&gt;User -->
<g id="edge87" class="edge"><title>ActiveRecord::Base&#45;&gt;User</title>
<path fill="none" stroke="black" d="M1089.13,-544.436C1050.88,-524.047 987.679,-484.609 954,-432 920.653,-379.91 914.302,-303.973 913.182,-270.246"/>
</g>
<!-- ActiveRecord::Base&#45;&gt;UserType -->
<g id="edge89" class="edge"><title>ActiveRecord::Base&#45;&gt;UserType</title>
<path fill="none" stroke="black" d="M1102.14,-543.424C1091.02,-533.188 1077,-519.473 1066,-506 1046.23,-481.793 1027.29,-450.717 1016.42,-431.858"/>
</g>
<!-- ActiveRecord::Base&#45;&gt;VerificatorComment -->
<g id="edge90" class="edge"><title>ActiveRecord::Base&#45;&gt;VerificatorComment</title>
<path fill="none" stroke="black" d="M1088.51,-544.283C1071.48,-536.794 1050.06,-528.505 1030,-524 970.03,-510.532 807.024,-537.085 754,-506 737.091,-496.087 730,-488.601 730,-469 730,-469 730,-469 730,-305 730,-271.69 727.476,-259.462 706,-234 685.017,-209.123 652.368,-192.011 625.837,-181.31"/>
</g>
<!-- Object -->
<g id="node41" class="node"><title>Object</title>
<ellipse fill="none" stroke="black" cx="2230" cy="-561" rx="33.5181" ry="18"/>
<text text-anchor="middle" x="2230" y="-556.8" font-family="Times,serif" font-size="14.00">Object</text>
</g>
<!-- Object&#45;&gt;Permission -->
<g id="edge57" class="edge"><title>Object&#45;&gt;Permission</title>
<path fill="none" stroke="black" d="M2230,-542.884C2230,-526.614 2230,-502.284 2230,-486.04"/>
</g>
</g>
</svg>
