<?xml version="1.0" encoding="UTF-8" standalone="no"?>
<!DOCTYPE svg PUBLIC "-//W3C//DTD SVG 1.1//EN"
 "http://www.w3.org/Graphics/SVG/1.1/DTD/svg11.dtd">
<!-- Generated by graphviz version 2.34.0 (20140206.1422)
 -->
<!-- Title: models_diagram Pages: 1 -->
<svg width="1684pt" height="1320pt"
 viewBox="0.00 0.00 1683.86 1320.00" xmlns="http://www.w3.org/2000/svg" xmlns:xlink="http://www.w3.org/1999/xlink">
<g id="graph0" class="graph" transform="scale(1 1) rotate(0) translate(4 1316)">
<title>models_diagram</title>
<polygon fill="white" stroke="white" points="-4,4 -4,-1316 1679.86,-1316 1679.86,4 -4,4"/>
<!-- _diagram_info -->
<g id="node1" class="node"><title>_diagram_info</title>
<text text-anchor="start" x="429.168" y="-1295" font-family="Times,serif" font-size="13.00">Models diagram</text>
<text text-anchor="start" x="429.168" y="-1279.4" font-family="Times,serif" font-size="13.00">Date: Feb 06 2014 &#45; 19:05</text>
<text text-anchor="start" x="429.168" y="-1263.8" font-family="Times,serif" font-size="13.00">Migration version: 20140206155026</text>
<text text-anchor="start" x="429.168" y="-1248.2" font-family="Times,serif" font-size="13.00">Generated by RailRoady 1.1.1</text>
<text text-anchor="start" x="429.168" y="-1232.6" font-family="Times,serif" font-size="13.00">http://railroady.prestonlee.com</text>
</g>
<!-- Action -->
<g id="node2" class="node"><title>Action</title>
<path fill="none" stroke="black" d="M319.35,-1081C319.35,-1081 428.361,-1081 428.361,-1081 434.361,-1081 440.361,-1087 440.361,-1093 440.361,-1093 440.361,-1169 440.361,-1169 440.361,-1175 434.361,-1181 428.361,-1181 428.361,-1181 319.35,-1181 319.35,-1181 313.35,-1181 307.35,-1175 307.35,-1169 307.35,-1169 307.35,-1093 307.35,-1093 307.35,-1087 313.35,-1081 319.35,-1081"/>
<text text-anchor="middle" x="373.855" y="-1163" font-family="Times,serif" font-size="14.00">Action</text>
<polyline fill="none" stroke="black" points="307.35,-1156.2 440.361,-1156.2 "/>
<text text-anchor="start" x="315.35" y="-1138.2" font-family="Times,serif" font-size="14.00">id :integer</text>
<text text-anchor="start" x="315.35" y="-1121.4" font-family="Times,serif" font-size="14.00">name :string</text>
<text text-anchor="start" x="315.35" y="-1104.6" font-family="Times,serif" font-size="14.00">created_at :datetime</text>
<text text-anchor="start" x="315.35" y="-1087.8" font-family="Times,serif" font-size="14.00">updated_at :datetime</text>
</g>
<!-- Ownership -->
<g id="node10" class="node"><title>Ownership</title>
<path fill="none" stroke="black" d="M225.067,-155.2C225.067,-155.2 370.643,-155.2 370.643,-155.2 376.643,-155.2 382.643,-161.2 382.643,-167.2 382.643,-167.2 382.643,-360.8 382.643,-360.8 382.643,-366.8 376.643,-372.8 370.643,-372.8 370.643,-372.8 225.067,-372.8 225.067,-372.8 219.067,-372.8 213.067,-366.8 213.067,-360.8 213.067,-360.8 213.067,-167.2 213.067,-167.2 213.067,-161.2 219.067,-155.2 225.067,-155.2"/>
<text text-anchor="middle" x="297.855" y="-354.8" font-family="Times,serif" font-size="14.00">Ownership</text>
<polyline fill="none" stroke="black" points="213.067,-348 382.643,-348 "/>
<text text-anchor="start" x="221.067" y="-330" font-family="Times,serif" font-size="14.00">id :integer</text>
<text text-anchor="start" x="221.067" y="-313.2" font-family="Times,serif" font-size="14.00">element_id :integer</text>
<text text-anchor="start" x="221.067" y="-296.4" font-family="Times,serif" font-size="14.00">user_id :integer</text>
<text text-anchor="start" x="221.067" y="-279.6" font-family="Times,serif" font-size="14.00">ownership_type_id :integer</text>
<text text-anchor="start" x="221.067" y="-262.8" font-family="Times,serif" font-size="14.00">right_create :boolean</text>
<text text-anchor="start" x="221.067" y="-246" font-family="Times,serif" font-size="14.00">right_read :boolean</text>
<text text-anchor="start" x="221.067" y="-229.2" font-family="Times,serif" font-size="14.00">right_update :boolean</text>
<text text-anchor="start" x="221.067" y="-212.4" font-family="Times,serif" font-size="14.00">right_delete :boolean</text>
<text text-anchor="start" x="221.067" y="-195.6" font-family="Times,serif" font-size="14.00">id_element :integer</text>
<text text-anchor="start" x="221.067" y="-178.8" font-family="Times,serif" font-size="14.00">created_at :datetime</text>
<text text-anchor="start" x="221.067" y="-162" font-family="Times,serif" font-size="14.00">updated_at :datetime</text>
</g>
<!-- Action&#45;&gt;Ownership -->
<g id="edge2" class="edge"><title>Action&#45;&gt;Ownership</title>
<path fill="none" stroke="#59533f" d="M377.361,-1070.8C381.937,-979.694 387.734,-799.761 372.855,-648 364.061,-558.296 344.155,-458.4 327.059,-383.127"/>
<polygon fill="#59533f" stroke="#59533f" points="377.353,-1070.94 372.344,-1080.69 377.096,-1075.93 376.838,-1080.93 376.838,-1080.93 376.838,-1080.93 377.096,-1075.93 381.332,-1081.16 377.353,-1070.94 377.353,-1070.94"/>
<polygon fill="#59533f" stroke="#59533f" points="327.005,-382.888 329.162,-372.137 325.89,-378.014 324.775,-373.14 324.775,-373.14 324.775,-373.14 325.89,-378.014 320.388,-374.144 327.005,-382.888 327.005,-382.888"/>
</g>
<!-- OwnershipAction -->
<g id="node11" class="node"><title>OwnershipAction</title>
<path fill="none" stroke="black" d="M240.619,-0.6C240.619,-0.6 355.092,-0.6 355.092,-0.6 361.092,-0.6 367.092,-6.6 367.092,-12.6 367.092,-12.6 367.092,-105.4 367.092,-105.4 367.092,-111.4 361.092,-117.4 355.092,-117.4 355.092,-117.4 240.619,-117.4 240.619,-117.4 234.619,-117.4 228.619,-111.4 228.619,-105.4 228.619,-105.4 228.619,-12.6 228.619,-12.6 228.619,-6.6 234.619,-0.6 240.619,-0.6"/>
<text text-anchor="middle" x="297.855" y="-99.4" font-family="Times,serif" font-size="14.00">OwnershipAction</text>
<polyline fill="none" stroke="black" points="228.619,-92.6 367.092,-92.6 "/>
<text text-anchor="start" x="236.619" y="-74.6" font-family="Times,serif" font-size="14.00">id :integer</text>
<text text-anchor="start" x="236.619" y="-57.8" font-family="Times,serif" font-size="14.00">action_id :integer</text>
<text text-anchor="start" x="236.619" y="-41" font-family="Times,serif" font-size="14.00">ownership_id :integer</text>
<text text-anchor="start" x="236.619" y="-24.2" font-family="Times,serif" font-size="14.00">created_at :datetime</text>
<text text-anchor="start" x="236.619" y="-7.4" font-family="Times,serif" font-size="14.00">updated_at :datetime</text>
</g>
<!-- Action&#45;&gt;OwnershipAction -->
<g id="edge1" class="edge"><title>Action&#45;&gt;OwnershipAction</title>
<path fill="none" stroke="#f35ff6" d="M386.542,-1073.09C388.753,-1060.91 390.709,-1048.08 391.855,-1036 398.59,-965.016 397.748,-170.719 390.855,-154 386.558,-143.576 380.486,-133.692 373.48,-124.525"/>
<ellipse fill="none" stroke="#f35ff6" cx="385.797" cy="-1077.05" rx="4.00001" ry="4.00001"/>
<polygon fill="#f35ff6" stroke="#f35ff6" points="373.4,-124.426 370.599,-113.824 370.251,-120.542 367.103,-116.657 367.103,-116.657 367.103,-116.657 370.251,-120.542 363.607,-119.491 373.4,-124.426 373.4,-124.426"/>
</g>
<!-- Affiliation -->
<g id="node3" class="node"><title>Affiliation</title>
<path fill="none" stroke="black" d="M813.35,-1081C813.35,-1081 922.361,-1081 922.361,-1081 928.361,-1081 934.361,-1087 934.361,-1093 934.361,-1093 934.361,-1169 934.361,-1169 934.361,-1175 928.361,-1181 922.361,-1181 922.361,-1181 813.35,-1181 813.35,-1181 807.35,-1181 801.35,-1175 801.35,-1169 801.35,-1169 801.35,-1093 801.35,-1093 801.35,-1087 807.35,-1081 813.35,-1081"/>
<text text-anchor="middle" x="867.855" y="-1163" font-family="Times,serif" font-size="14.00">Affiliation</text>
<polyline fill="none" stroke="black" points="801.35,-1156.2 934.361,-1156.2 "/>
<text text-anchor="start" x="809.35" y="-1138.2" font-family="Times,serif" font-size="14.00">id :integer</text>
<text text-anchor="start" x="809.35" y="-1121.4" font-family="Times,serif" font-size="14.00">name :string</text>
<text text-anchor="start" x="809.35" y="-1104.6" font-family="Times,serif" font-size="14.00">created_at :datetime</text>
<text text-anchor="start" x="809.35" y="-1087.8" font-family="Times,serif" font-size="14.00">updated_at :datetime</text>
</g>
<!-- Card -->
<g id="node4" class="node"><title>Card</title>
<path fill="none" stroke="black" d="M923.554,-649.2C923.554,-649.2 1048.16,-649.2 1048.16,-649.2 1054.16,-649.2 1060.16,-655.2 1060.16,-661.2 1060.16,-661.2 1060.16,-1022.8 1060.16,-1022.8 1060.16,-1028.8 1054.16,-1034.8 1048.16,-1034.8 1048.16,-1034.8 923.554,-1034.8 923.554,-1034.8 917.554,-1034.8 911.554,-1028.8 911.554,-1022.8 911.554,-1022.8 911.554,-661.2 911.554,-661.2 911.554,-655.2 917.554,-649.2 923.554,-649.2"/>
<text text-anchor="middle" x="985.855" y="-1016.8" font-family="Times,serif" font-size="14.00">Card</text>
<polyline fill="none" stroke="black" points="911.554,-1010 1060.16,-1010 "/>
<text text-anchor="start" x="919.554" y="-992" font-family="Times,serif" font-size="14.00">id :integer</text>
<text text-anchor="start" x="919.554" y="-975.2" font-family="Times,serif" font-size="14.00">card_type_id :integer</text>
<text text-anchor="start" x="919.554" y="-958.4" font-family="Times,serif" font-size="14.00">name :string</text>
<text text-anchor="start" x="919.554" y="-941.6" font-family="Times,serif" font-size="14.00">responsable_id :integer</text>
<text text-anchor="start" x="919.554" y="-924.8" font-family="Times,serif" font-size="14.00">email :string</text>
<text text-anchor="start" x="919.554" y="-908" font-family="Times,serif" font-size="14.00">street :string</text>
<text text-anchor="start" x="919.554" y="-891.2" font-family="Times,serif" font-size="14.00">npa :integer</text>
<text text-anchor="start" x="919.554" y="-874.4" font-family="Times,serif" font-size="14.00">city :string</text>
<text text-anchor="start" x="919.554" y="-857.6" font-family="Times,serif" font-size="14.00">place :string</text>
<text text-anchor="start" x="919.554" y="-840.8" font-family="Times,serif" font-size="14.00">website :string</text>
<text text-anchor="start" x="919.554" y="-824" font-family="Times,serif" font-size="14.00">password_digest :string</text>
<text text-anchor="start" x="919.554" y="-807.2" font-family="Times,serif" font-size="14.00">description :text</text>
<text text-anchor="start" x="919.554" y="-790.4" font-family="Times,serif" font-size="14.00">affiliation :text</text>
<text text-anchor="start" x="919.554" y="-773.6" font-family="Times,serif" font-size="14.00">validated :boolean</text>
<text text-anchor="start" x="919.554" y="-756.8" font-family="Times,serif" font-size="14.00">created_at :datetime</text>
<text text-anchor="start" x="919.554" y="-740" font-family="Times,serif" font-size="14.00">updated_at :datetime</text>
<text text-anchor="start" x="919.554" y="-723.2" font-family="Times,serif" font-size="14.00">latitude :float</text>
<text text-anchor="start" x="919.554" y="-706.4" font-family="Times,serif" font-size="14.00">longitude :float</text>
<text text-anchor="start" x="919.554" y="-689.6" font-family="Times,serif" font-size="14.00">avatar :string</text>
<text text-anchor="start" x="919.554" y="-672.8" font-family="Times,serif" font-size="14.00">banner :string</text>
<text text-anchor="start" x="919.554" y="-656" font-family="Times,serif" font-size="14.00">card_id :integer</text>
</g>
<!-- Affiliation&#45;&gt;Card -->
<g id="edge5" class="edge"><title>Affiliation&#45;&gt;Card</title>
<path fill="none" stroke="#f4a88b" d="M891.814,-1071.73C896.66,-1059.94 902.001,-1046.95 907.603,-1033.33"/>
<polygon fill="#f4a88b" stroke="#f4a88b" points="891.809,-1071.74 883.844,-1079.28 889.907,-1076.36 888.006,-1080.99 888.006,-1080.99 888.006,-1080.99 889.907,-1076.36 892.168,-1082.7 891.809,-1071.74 891.809,-1071.74"/>
<polygon fill="#f4a88b" stroke="#f4a88b" points="907.716,-1033.05 915.681,-1025.51 909.618,-1028.43 911.519,-1023.8 911.519,-1023.8 911.519,-1023.8 909.618,-1028.43 907.357,-1022.09 907.716,-1033.05 907.716,-1033.05"/>
</g>
<!-- CardAffiliation -->
<g id="node5" class="node"><title>CardAffiliation</title>
<path fill="none" stroke="black" d="M774.564,-452.6C774.564,-452.6 885.147,-452.6 885.147,-452.6 891.147,-452.6 897.147,-458.6 897.147,-464.6 897.147,-464.6 897.147,-557.4 897.147,-557.4 897.147,-563.4 891.147,-569.4 885.147,-569.4 885.147,-569.4 774.564,-569.4 774.564,-569.4 768.564,-569.4 762.564,-563.4 762.564,-557.4 762.564,-557.4 762.564,-464.6 762.564,-464.6 762.564,-458.6 768.564,-452.6 774.564,-452.6"/>
<text text-anchor="middle" x="829.855" y="-551.4" font-family="Times,serif" font-size="14.00">CardAffiliation</text>
<polyline fill="none" stroke="black" points="762.564,-544.6 897.147,-544.6 "/>
<text text-anchor="start" x="770.564" y="-526.6" font-family="Times,serif" font-size="14.00">id :integer</text>
<text text-anchor="start" x="770.564" y="-509.8" font-family="Times,serif" font-size="14.00">card_id :integer</text>
<text text-anchor="start" x="770.564" y="-493" font-family="Times,serif" font-size="14.00">affiliation_id :integer</text>
<text text-anchor="start" x="770.564" y="-476.2" font-family="Times,serif" font-size="14.00">created_at :datetime</text>
<text text-anchor="start" x="770.564" y="-459.4" font-family="Times,serif" font-size="14.00">updated_at :datetime</text>
</g>
<!-- Affiliation&#45;&gt;CardAffiliation -->
<g id="edge4" class="edge"><title>Affiliation&#45;&gt;CardAffiliation</title>
<path fill="none" stroke="#70ecfc" d="M864.337,-1072.78C857.301,-958.352 841.526,-701.802 834.001,-579.429"/>
<ellipse fill="none" stroke="#70ecfc" cx="864.596" cy="-1077" rx="4" ry="4"/>
<polygon fill="#70ecfc" stroke="#70ecfc" points="834.001,-579.414 837.878,-569.157 833.694,-574.424 833.387,-569.433 833.387,-569.433 833.387,-569.433 833.694,-574.424 828.895,-569.709 834.001,-579.414 834.001,-579.414"/>
</g>
<!-- Card&#45;&gt;Card -->
<g id="edge15" class="edge"><title>Card&#45;&gt;Card</title>
<path fill="none" stroke="#277e6c" d="M1066.19,-884.654C1073.36,-875.717 1077.86,-861.499 1077.86,-842 1077.86,-822.501 1073.36,-808.283 1066.19,-799.346"/>
<ellipse fill="none" stroke="#277e6c" cx="1063.08" cy="-887.672" rx="4.00002" ry="4.00002"/>
<ellipse fill="#277e6c" stroke="#277e6c" cx="1063.08" cy="-796.328" rx="4.00002" ry="4.00002"/>
</g>
<!-- Card&#45;&gt;CardAffiliation -->
<g id="edge11" class="edge"><title>Card&#45;&gt;CardAffiliation</title>
<path fill="none" stroke="#bcfe36" d="M907.859,-676.508C891.379,-641.752 874.899,-606.996 861.361,-578.445"/>
<ellipse fill="none" stroke="#bcfe36" cx="909.797" cy="-680.594" rx="4.00002" ry="4.00002"/>
<polygon fill="#bcfe36" stroke="#bcfe36" points="861.357,-578.437 861.139,-567.473 859.215,-573.919 857.073,-569.401 857.073,-569.401 857.073,-569.401 859.215,-573.919 853.007,-571.329 861.357,-578.437 861.357,-578.437"/>
</g>
<!-- CardResponsable -->
<g id="node6" class="node"><title>CardResponsable</title>
<path fill="none" stroke="black" d="M1068.74,-205.6C1068.74,-205.6 1190.97,-205.6 1190.97,-205.6 1196.97,-205.6 1202.97,-211.6 1202.97,-217.6 1202.97,-217.6 1202.97,-310.4 1202.97,-310.4 1202.97,-316.4 1196.97,-322.4 1190.97,-322.4 1190.97,-322.4 1068.74,-322.4 1068.74,-322.4 1062.74,-322.4 1056.74,-316.4 1056.74,-310.4 1056.74,-310.4 1056.74,-217.6 1056.74,-217.6 1056.74,-211.6 1062.74,-205.6 1068.74,-205.6"/>
<text text-anchor="middle" x="1129.86" y="-304.4" font-family="Times,serif" font-size="14.00">CardResponsable</text>
<polyline fill="none" stroke="black" points="1056.74,-297.6 1202.97,-297.6 "/>
<text text-anchor="start" x="1064.74" y="-279.6" font-family="Times,serif" font-size="14.00">id :integer</text>
<text text-anchor="start" x="1064.74" y="-262.8" font-family="Times,serif" font-size="14.00">card_id :integer</text>
<text text-anchor="start" x="1064.74" y="-246" font-family="Times,serif" font-size="14.00">responsable_id :integer</text>
<text text-anchor="start" x="1064.74" y="-229.2" font-family="Times,serif" font-size="14.00">created_at :datetime</text>
<text text-anchor="start" x="1064.74" y="-212.4" font-family="Times,serif" font-size="14.00">updated_at :datetime</text>
</g>
<!-- Card&#45;&gt;CardResponsable -->
<g id="edge7" class="edge"><title>Card&#45;&gt;CardResponsable</title>
<path fill="none" stroke="#ae4896" d="M981.886,-641.077C986.06,-566.582 997.672,-482.549 1024.86,-410 1035.44,-381.752 1053.09,-354.081 1070.93,-330.61"/>
<ellipse fill="none" stroke="#ae4896" cx="981.669" cy="-645.186" rx="4" ry="4"/>
<polygon fill="#ae4896" stroke="#ae4896" points="1071.1,-330.388 1080.79,-325.249 1074.17,-326.438 1077.23,-322.489 1077.23,-322.489 1077.23,-322.489 1074.17,-326.438 1073.68,-319.729 1071.1,-330.388 1071.1,-330.388"/>
</g>
<!-- CardVerification -->
<g id="node8" class="node"><title>CardVerification</title>
<path fill="none" stroke="black" d="M481.35,-205.6C481.35,-205.6 590.361,-205.6 590.361,-205.6 596.361,-205.6 602.361,-211.6 602.361,-217.6 602.361,-217.6 602.361,-310.4 602.361,-310.4 602.361,-316.4 596.361,-322.4 590.361,-322.4 590.361,-322.4 481.35,-322.4 481.35,-322.4 475.35,-322.4 469.35,-316.4 469.35,-310.4 469.35,-310.4 469.35,-217.6 469.35,-217.6 469.35,-211.6 475.35,-205.6 481.35,-205.6"/>
<text text-anchor="middle" x="535.855" y="-304.4" font-family="Times,serif" font-size="14.00">CardVerification</text>
<polyline fill="none" stroke="black" points="469.35,-297.6 602.361,-297.6 "/>
<text text-anchor="start" x="477.35" y="-279.6" font-family="Times,serif" font-size="14.00">id :integer</text>
<text text-anchor="start" x="477.35" y="-262.8" font-family="Times,serif" font-size="14.00">card_id :integer</text>
<text text-anchor="start" x="477.35" y="-246" font-family="Times,serif" font-size="14.00">user_id :integer</text>
<text text-anchor="start" x="477.35" y="-229.2" font-family="Times,serif" font-size="14.00">created_at :datetime</text>
<text text-anchor="start" x="477.35" y="-212.4" font-family="Times,serif" font-size="14.00">updated_at :datetime</text>
</g>
<!-- Card&#45;&gt;CardVerification -->
<g id="edge9" class="edge"><title>Card&#45;&gt;CardVerification</title>
<path fill="none" stroke="#95bec8" d="M944.334,-641.101C942.447,-631.268 940.61,-621.527 938.855,-612 930.615,-567.269 938.662,-441.504 905.855,-410 810.586,-318.513 723.819,-442.449 610.855,-374 593.708,-363.61 579.535,-347.633 568.301,-331.088"/>
<ellipse fill="none" stroke="#95bec8" cx="945.101" cy="-645.077" rx="4.00001" ry="4.00001"/>
<polygon fill="#95bec8" stroke="#95bec8" points="568.121,-330.809 566.474,-319.968 565.407,-326.61 562.694,-322.41 562.694,-322.41 562.694,-322.41 565.407,-326.61 558.914,-324.852 568.121,-330.809 568.121,-330.809"/>
</g>
<!-- Responsable -->
<g id="node16" class="node"><title>Responsable</title>
<path fill="none" stroke="black" d="M1079.35,-444.2C1079.35,-444.2 1188.36,-444.2 1188.36,-444.2 1194.36,-444.2 1200.36,-450.2 1200.36,-456.2 1200.36,-456.2 1200.36,-565.8 1200.36,-565.8 1200.36,-571.8 1194.36,-577.8 1188.36,-577.8 1188.36,-577.8 1079.35,-577.8 1079.35,-577.8 1073.35,-577.8 1067.35,-571.8 1067.35,-565.8 1067.35,-565.8 1067.35,-456.2 1067.35,-456.2 1067.35,-450.2 1073.35,-444.2 1079.35,-444.2"/>
<text text-anchor="middle" x="1133.86" y="-559.8" font-family="Times,serif" font-size="14.00">Responsable</text>
<polyline fill="none" stroke="black" points="1067.35,-553 1200.36,-553 "/>
<text text-anchor="start" x="1075.35" y="-535" font-family="Times,serif" font-size="14.00">id :integer</text>
<text text-anchor="start" x="1075.35" y="-518.2" font-family="Times,serif" font-size="14.00">firstname :string</text>
<text text-anchor="start" x="1075.35" y="-501.4" font-family="Times,serif" font-size="14.00">lastname :string</text>
<text text-anchor="start" x="1075.35" y="-484.6" font-family="Times,serif" font-size="14.00">email :string</text>
<text text-anchor="start" x="1075.35" y="-467.8" font-family="Times,serif" font-size="14.00">created_at :datetime</text>
<text text-anchor="start" x="1075.35" y="-451" font-family="Times,serif" font-size="14.00">updated_at :datetime</text>
</g>
<!-- Card&#45;&gt;Responsable -->
<g id="edge8" class="edge"><title>Card&#45;&gt;Responsable</title>
<path fill="none" stroke="#7741ae" d="M1064.48,-666.226C1076.95,-638.502 1089.24,-611.17 1099.94,-587.393"/>
<polygon fill="#7741ae" stroke="#7741ae" points="1064.39,-666.416 1056.19,-673.69 1062.34,-670.976 1060.29,-675.536 1060.29,-675.536 1060.29,-675.536 1062.34,-670.976 1064.39,-677.382 1064.39,-666.416 1064.39,-666.416"/>
<polygon fill="#7741ae" stroke="#7741ae" points="1100.01,-587.24 1108.21,-579.967 1102.06,-582.68 1104.11,-578.121 1104.11,-578.121 1104.11,-578.121 1102.06,-582.68 1100.01,-576.274 1100.01,-587.24 1100.01,-587.24"/>
</g>
<!-- Tag -->
<g id="node17" class="node"><title>Tag</title>
<path fill="none" stroke="black" d="M1230.35,-452.6C1230.35,-452.6 1339.36,-452.6 1339.36,-452.6 1345.36,-452.6 1351.36,-458.6 1351.36,-464.6 1351.36,-464.6 1351.36,-557.4 1351.36,-557.4 1351.36,-563.4 1345.36,-569.4 1339.36,-569.4 1339.36,-569.4 1230.35,-569.4 1230.35,-569.4 1224.35,-569.4 1218.35,-563.4 1218.35,-557.4 1218.35,-557.4 1218.35,-464.6 1218.35,-464.6 1218.35,-458.6 1224.35,-452.6 1230.35,-452.6"/>
<text text-anchor="middle" x="1284.86" y="-551.4" font-family="Times,serif" font-size="14.00">Tag</text>
<polyline fill="none" stroke="black" points="1218.35,-544.6 1351.36,-544.6 "/>
<text text-anchor="start" x="1226.35" y="-526.6" font-family="Times,serif" font-size="14.00">id :integer</text>
<text text-anchor="start" x="1226.35" y="-509.8" font-family="Times,serif" font-size="14.00">name :string</text>
<text text-anchor="start" x="1226.35" y="-493" font-family="Times,serif" font-size="14.00">popularity :integer</text>
<text text-anchor="start" x="1226.35" y="-476.2" font-family="Times,serif" font-size="14.00">created_at :datetime</text>
<text text-anchor="start" x="1226.35" y="-459.4" font-family="Times,serif" font-size="14.00">updated_at :datetime</text>
</g>
<!-- Card&#45;&gt;Tag -->
<g id="edge13" class="edge"><title>Card&#45;&gt;Tag</title>
<path fill="none" stroke="#84ceb9" d="M1067.41,-762.073C1110.76,-718.944 1164.17,-663.879 1208.86,-612 1218.22,-601.126 1227.79,-589.234 1236.85,-577.566"/>
<polygon fill="#84ceb9" stroke="#84ceb9" points="1067.37,-762.118 1057.1,-765.969 1063.82,-765.64 1060.27,-769.163 1060.27,-769.163 1060.27,-769.163 1063.82,-765.64 1063.44,-772.357 1067.37,-762.118 1067.37,-762.118"/>
<polygon fill="#84ceb9" stroke="#84ceb9" points="1236.93,-577.464 1246.59,-572.284 1239.98,-573.502 1243.03,-569.539 1243.03,-569.539 1243.03,-569.539 1239.98,-573.502 1239.46,-566.795 1236.93,-577.464 1236.93,-577.464"/>
</g>
<!-- Tagging -->
<g id="node18" class="node"><title>Tagging</title>
<path fill="none" stroke="black" d="M1233.35,-205.6C1233.35,-205.6 1342.36,-205.6 1342.36,-205.6 1348.36,-205.6 1354.36,-211.6 1354.36,-217.6 1354.36,-217.6 1354.36,-310.4 1354.36,-310.4 1354.36,-316.4 1348.36,-322.4 1342.36,-322.4 1342.36,-322.4 1233.35,-322.4 1233.35,-322.4 1227.35,-322.4 1221.35,-316.4 1221.35,-310.4 1221.35,-310.4 1221.35,-217.6 1221.35,-217.6 1221.35,-211.6 1227.35,-205.6 1233.35,-205.6"/>
<text text-anchor="middle" x="1287.86" y="-304.4" font-family="Times,serif" font-size="14.00">Tagging</text>
<polyline fill="none" stroke="black" points="1221.35,-297.6 1354.36,-297.6 "/>
<text text-anchor="start" x="1229.35" y="-279.6" font-family="Times,serif" font-size="14.00">id :integer</text>
<text text-anchor="start" x="1229.35" y="-262.8" font-family="Times,serif" font-size="14.00">card_id :integer</text>
<text text-anchor="start" x="1229.35" y="-246" font-family="Times,serif" font-size="14.00">tag_id :integer</text>
<text text-anchor="start" x="1229.35" y="-229.2" font-family="Times,serif" font-size="14.00">created_at :datetime</text>
<text text-anchor="start" x="1229.35" y="-212.4" font-family="Times,serif" font-size="14.00">updated_at :datetime</text>
</g>
<!-- Card&#45;&gt;Tagging -->
<g id="edge12" class="edge"><title>Card&#45;&gt;Tagging</title>
<path fill="none" stroke="#4bb226" d="M1016.79,-641.143C1034.3,-530.638 1053.54,-414.597 1057.86,-410 1105.94,-358.73 1153.68,-413.443 1211.86,-374 1228.12,-362.976 1241.97,-347.225 1253.21,-331.112"/>
<ellipse fill="none" stroke="#4bb226" cx="1016.15" cy="-645.137" rx="4.00001" ry="4.00001"/>
<polygon fill="#4bb226" stroke="#4bb226" points="1253.3,-330.988 1262.6,-325.178 1256.08,-326.832 1258.86,-322.676 1258.86,-322.676 1258.86,-322.676 1256.08,-326.832 1255.12,-320.174 1253.3,-330.988 1253.3,-330.988"/>
</g>
<!-- User -->
<g id="node19" class="node"><title>User</title>
<path fill="none" stroke="black" d="M512.791,-410.6C512.791,-410.6 638.919,-410.6 638.919,-410.6 644.919,-410.6 650.919,-416.6 650.919,-422.6 650.919,-422.6 650.919,-599.4 650.919,-599.4 650.919,-605.4 644.919,-611.4 638.919,-611.4 638.919,-611.4 512.791,-611.4 512.791,-611.4 506.791,-611.4 500.791,-605.4 500.791,-599.4 500.791,-599.4 500.791,-422.6 500.791,-422.6 500.791,-416.6 506.791,-410.6 512.791,-410.6"/>
<text text-anchor="middle" x="575.855" y="-593.4" font-family="Times,serif" font-size="14.00">User</text>
<polyline fill="none" stroke="black" points="500.791,-586.6 650.919,-586.6 "/>
<text text-anchor="start" x="508.791" y="-568.6" font-family="Times,serif" font-size="14.00">id :integer</text>
<text text-anchor="start" x="508.791" y="-551.8" font-family="Times,serif" font-size="14.00">name :string</text>
<text text-anchor="start" x="508.791" y="-535" font-family="Times,serif" font-size="14.00">email :string</text>
<text text-anchor="start" x="508.791" y="-518.2" font-family="Times,serif" font-size="14.00">gravatar_email :string</text>
<text text-anchor="start" x="508.791" y="-501.4" font-family="Times,serif" font-size="14.00">password_digest :string</text>
<text text-anchor="start" x="508.791" y="-484.6" font-family="Times,serif" font-size="14.00">remember_token :string</text>
<text text-anchor="start" x="508.791" y="-467.8" font-family="Times,serif" font-size="14.00">user_type_id :integer</text>
<text text-anchor="start" x="508.791" y="-451" font-family="Times,serif" font-size="14.00">uid :string</text>
<text text-anchor="start" x="508.791" y="-434.2" font-family="Times,serif" font-size="14.00">created_at :datetime</text>
<text text-anchor="start" x="508.791" y="-417.4" font-family="Times,serif" font-size="14.00">updated_at :datetime</text>
</g>
<!-- Card&#45;&gt;User -->
<g id="edge10" class="edge"><title>Card&#45;&gt;User</title>
<path fill="none" stroke="#1aa61c" d="M903.165,-778.992C832.188,-723.39 730.446,-641.819 659.264,-583.489"/>
<polygon fill="#1aa61c" stroke="#1aa61c" points="903.211,-779.028 908.315,-788.734 907.149,-782.109 911.087,-785.19 911.087,-785.19 911.087,-785.19 907.149,-782.109 913.86,-781.645 903.211,-779.028 903.211,-779.028"/>
<polygon fill="#1aa61c" stroke="#1aa61c" points="658.904,-583.194 654.027,-573.372 655.039,-580.022 651.173,-576.851 651.173,-576.851 651.173,-576.851 655.039,-580.022 648.319,-580.33 658.904,-583.194 658.904,-583.194"/>
</g>
<!-- VerificatorComment -->
<g id="node21" class="node"><title>VerificatorComment</title>
<path fill="none" stroke="black" d="M783.35,-197.2C783.35,-197.2 892.361,-197.2 892.361,-197.2 898.361,-197.2 904.361,-203.2 904.361,-209.2 904.361,-209.2 904.361,-318.8 904.361,-318.8 904.361,-324.8 898.361,-330.8 892.361,-330.8 892.361,-330.8 783.35,-330.8 783.35,-330.8 777.35,-330.8 771.35,-324.8 771.35,-318.8 771.35,-318.8 771.35,-209.2 771.35,-209.2 771.35,-203.2 777.35,-197.2 783.35,-197.2"/>
<text text-anchor="middle" x="837.855" y="-312.8" font-family="Times,serif" font-size="14.00">VerificatorComment</text>
<polyline fill="none" stroke="black" points="771.35,-306 904.361,-306 "/>
<text text-anchor="start" x="779.35" y="-288" font-family="Times,serif" font-size="14.00">id :integer</text>
<text text-anchor="start" x="779.35" y="-271.2" font-family="Times,serif" font-size="14.00">content :text</text>
<text text-anchor="start" x="779.35" y="-254.4" font-family="Times,serif" font-size="14.00">user_id :integer</text>
<text text-anchor="start" x="779.35" y="-237.6" font-family="Times,serif" font-size="14.00">card_id :integer</text>
<text text-anchor="start" x="779.35" y="-220.8" font-family="Times,serif" font-size="14.00">created_at :datetime</text>
<text text-anchor="start" x="779.35" y="-204" font-family="Times,serif" font-size="14.00">updated_at :datetime</text>
</g>
<!-- Card&#45;&gt;VerificatorComment -->
<g id="edge14" class="edge"><title>Card&#45;&gt;VerificatorComment</title>
<path fill="none" stroke="#8d2b2a" d="M973.572,-641.135C966.02,-549.64 954.702,-452.291 938.855,-410 929.637,-385.399 915.285,-361.032 900.265,-339.495"/>
<ellipse fill="none" stroke="#8d2b2a" cx="973.898" cy="-645.132" rx="4" ry="4"/>
<polygon fill="#8d2b2a" stroke="#8d2b2a" points="900.065,-339.215 897.922,-328.461 897.162,-335.145 894.258,-331.074 894.258,-331.074 894.258,-331.074 897.162,-335.145 890.595,-333.687 900.065,-339.215 900.065,-339.215"/>
</g>
<!-- CardType -->
<g id="node7" class="node"><title>CardType</title>
<path fill="none" stroke="black" d="M964.35,-1081C964.35,-1081 1073.36,-1081 1073.36,-1081 1079.36,-1081 1085.36,-1087 1085.36,-1093 1085.36,-1093 1085.36,-1169 1085.36,-1169 1085.36,-1175 1079.36,-1181 1073.36,-1181 1073.36,-1181 964.35,-1181 964.35,-1181 958.35,-1181 952.35,-1175 952.35,-1169 952.35,-1169 952.35,-1093 952.35,-1093 952.35,-1087 958.35,-1081 964.35,-1081"/>
<text text-anchor="middle" x="1018.86" y="-1163" font-family="Times,serif" font-size="14.00">CardType</text>
<polyline fill="none" stroke="black" points="952.35,-1156.2 1085.36,-1156.2 "/>
<text text-anchor="start" x="960.35" y="-1138.2" font-family="Times,serif" font-size="14.00">id :integer</text>
<text text-anchor="start" x="960.35" y="-1121.4" font-family="Times,serif" font-size="14.00">name :string</text>
<text text-anchor="start" x="960.35" y="-1104.6" font-family="Times,serif" font-size="14.00">created_at :datetime</text>
<text text-anchor="start" x="960.35" y="-1087.8" font-family="Times,serif" font-size="14.00">updated_at :datetime</text>
</g>
<!-- CardType&#45;&gt;Card -->
<g id="edge19" class="edge"><title>CardType&#45;&gt;Card</title>
<path fill="none" stroke="#b47827" d="M1012.27,-1072.74C1011.27,-1064.02 1010.19,-1054.62 1009.06,-1044.78"/>
<ellipse fill="none" stroke="#b47827" cx="1012.76" cy="-1077.02" rx="4.00001" ry="4.00001"/>
<polygon fill="#b47827" stroke="#b47827" points="1009.05,-1044.73 1012.38,-1034.29 1008.48,-1039.77 1007.91,-1034.8 1007.91,-1034.8 1007.91,-1034.8 1008.48,-1039.77 1003.44,-1035.31 1009.05,-1044.73 1009.05,-1044.73"/>
</g>
<!-- Element -->
<g id="node9" class="node"><title>Element</title>
<path fill="none" stroke="black" d="M92.3499,-792C92.3499,-792 201.361,-792 201.361,-792 207.361,-792 213.361,-798 213.361,-804 213.361,-804 213.361,-880 213.361,-880 213.361,-886 207.361,-892 201.361,-892 201.361,-892 92.3499,-892 92.3499,-892 86.3499,-892 80.3499,-886 80.3499,-880 80.3499,-880 80.3499,-804 80.3499,-804 80.3499,-798 86.3499,-792 92.3499,-792"/>
<text text-anchor="middle" x="146.855" y="-874" font-family="Times,serif" font-size="14.00">Element</text>
<polyline fill="none" stroke="black" points="80.3499,-867.2 213.361,-867.2 "/>
<text text-anchor="start" x="88.3499" y="-849.2" font-family="Times,serif" font-size="14.00">id :integer</text>
<text text-anchor="start" x="88.3499" y="-832.4" font-family="Times,serif" font-size="14.00">name :string</text>
<text text-anchor="start" x="88.3499" y="-815.6" font-family="Times,serif" font-size="14.00">created_at :datetime</text>
<text text-anchor="start" x="88.3499" y="-798.8" font-family="Times,serif" font-size="14.00">updated_at :datetime</text>
</g>
<!-- Element&#45;&gt;Ownership -->
<g id="edge22" class="edge"><title>Element&#45;&gt;Ownership</title>
<path fill="none" stroke="#dd4bc0" d="M161.777,-784.079C186.136,-691.159 234.936,-505.009 266.99,-382.738"/>
<ellipse fill="none" stroke="#dd4bc0" cx="160.744" cy="-788.021" rx="4.00001" ry="4.00001"/>
<polygon fill="#dd4bc0" stroke="#dd4bc0" points="267.021,-382.621 273.909,-374.089 268.289,-377.784 269.556,-372.948 269.556,-372.948 269.556,-372.948 268.289,-377.784 265.204,-371.807 267.021,-382.621 267.021,-382.621"/>
</g>
<!-- Ownership&#45;&gt;OwnershipAction -->
<g id="edge24" class="edge"><title>Ownership&#45;&gt;OwnershipAction</title>
<path fill="none" stroke="#0a09f3" d="M297.855,-146.84C297.855,-140.379 297.855,-133.999 297.855,-127.808"/>
<ellipse fill="none" stroke="#0a09f3" cx="297.855" cy="-150.962" rx="4" ry="4"/>
<polygon fill="#0a09f3" stroke="#0a09f3" points="297.855,-127.586 302.355,-117.586 297.855,-122.586 297.855,-117.586 297.855,-117.586 297.855,-117.586 297.855,-122.586 293.355,-117.586 297.855,-127.586 297.855,-127.586"/>
</g>
<!-- OwnershipType -->
<g id="node12" class="node"><title>OwnershipType</title>
<path fill="none" stroke="black" d="M243.35,-792C243.35,-792 352.361,-792 352.361,-792 358.361,-792 364.361,-798 364.361,-804 364.361,-804 364.361,-880 364.361,-880 364.361,-886 358.361,-892 352.361,-892 352.361,-892 243.35,-892 243.35,-892 237.35,-892 231.35,-886 231.35,-880 231.35,-880 231.35,-804 231.35,-804 231.35,-798 237.35,-792 243.35,-792"/>
<text text-anchor="middle" x="297.855" y="-874" font-family="Times,serif" font-size="14.00">OwnershipType</text>
<polyline fill="none" stroke="black" points="231.35,-867.2 364.361,-867.2 "/>
<text text-anchor="start" x="239.35" y="-849.2" font-family="Times,serif" font-size="14.00">id :integer</text>
<text text-anchor="start" x="239.35" y="-832.4" font-family="Times,serif" font-size="14.00">name :string</text>
<text text-anchor="start" x="239.35" y="-815.6" font-family="Times,serif" font-size="14.00">created_at :datetime</text>
<text text-anchor="start" x="239.35" y="-798.8" font-family="Times,serif" font-size="14.00">updated_at :datetime</text>
</g>
<!-- OwnershipType&#45;&gt;Ownership -->
<g id="edge27" class="edge"><title>OwnershipType&#45;&gt;Ownership</title>
<path fill="none" stroke="#271b2f" d="M297.855,-783.791C297.855,-690.866 297.855,-505.246 297.855,-383.096"/>
<ellipse fill="none" stroke="#271b2f" cx="297.855" cy="-787.891" rx="4" ry="4"/>
<polygon fill="#271b2f" stroke="#271b2f" points="297.855,-382.948 302.355,-372.948 297.855,-377.948 297.855,-372.948 297.855,-372.948 297.855,-372.948 297.855,-377.948 293.355,-372.948 297.855,-382.948 297.855,-382.948"/>
</g>
<!-- Page -->
<g id="node13" class="node"><title>Page</title>
<path fill="none" stroke="black" d="M1458.35,-1072.6C1458.35,-1072.6 1567.36,-1072.6 1567.36,-1072.6 1573.36,-1072.6 1579.36,-1078.6 1579.36,-1084.6 1579.36,-1084.6 1579.36,-1177.4 1579.36,-1177.4 1579.36,-1183.4 1573.36,-1189.4 1567.36,-1189.4 1567.36,-1189.4 1458.35,-1189.4 1458.35,-1189.4 1452.35,-1189.4 1446.35,-1183.4 1446.35,-1177.4 1446.35,-1177.4 1446.35,-1084.6 1446.35,-1084.6 1446.35,-1078.6 1452.35,-1072.6 1458.35,-1072.6"/>
<text text-anchor="middle" x="1512.86" y="-1171.4" font-family="Times,serif" font-size="14.00">Page</text>
<polyline fill="none" stroke="black" points="1446.35,-1164.6 1579.36,-1164.6 "/>
<text text-anchor="start" x="1454.35" y="-1146.6" font-family="Times,serif" font-size="14.00">id :integer</text>
<text text-anchor="start" x="1454.35" y="-1129.8" font-family="Times,serif" font-size="14.00">name :string</text>
<text text-anchor="start" x="1454.35" y="-1113" font-family="Times,serif" font-size="14.00">content :text</text>
<text text-anchor="start" x="1454.35" y="-1096.2" font-family="Times,serif" font-size="14.00">created_at :datetime</text>
<text text-anchor="start" x="1454.35" y="-1079.4" font-family="Times,serif" font-size="14.00">updated_at :datetime</text>
</g>
<!-- Parent -->
<g id="node14" class="node"><title>Parent</title>
<path fill="none" stroke="black" d="M632.35,-205.6C632.35,-205.6 741.361,-205.6 741.361,-205.6 747.361,-205.6 753.361,-211.6 753.361,-217.6 753.361,-217.6 753.361,-310.4 753.361,-310.4 753.361,-316.4 747.361,-322.4 741.361,-322.4 741.361,-322.4 632.35,-322.4 632.35,-322.4 626.35,-322.4 620.35,-316.4 620.35,-310.4 620.35,-310.4 620.35,-217.6 620.35,-217.6 620.35,-211.6 626.35,-205.6 632.35,-205.6"/>
<text text-anchor="middle" x="686.855" y="-304.4" font-family="Times,serif" font-size="14.00">Parent</text>
<polyline fill="none" stroke="black" points="620.35,-297.6 753.361,-297.6 "/>
<text text-anchor="start" x="628.35" y="-279.6" font-family="Times,serif" font-size="14.00">id :integer</text>
<text text-anchor="start" x="628.35" y="-262.8" font-family="Times,serif" font-size="14.00">user_id :integer</text>
<text text-anchor="start" x="628.35" y="-246" font-family="Times,serif" font-size="14.00">parent_id :integer</text>
<text text-anchor="start" x="628.35" y="-229.2" font-family="Times,serif" font-size="14.00">created_at :datetime</text>
<text text-anchor="start" x="628.35" y="-212.4" font-family="Times,serif" font-size="14.00">updated_at :datetime</text>
</g>
<!-- Permission -->
<g id="node15" class="node"><title>Permission</title>
<polygon fill="none" stroke="black" points="1597.74,-1106.2 1597.74,-1155.8 1675.97,-1155.8 1675.97,-1106.2 1597.74,-1106.2"/>
<text text-anchor="middle" x="1636.86" y="-1137.8" font-family="Times,serif" font-size="14.00">Permission</text>
<polyline fill="none" stroke="black" points="1597.74,-1131 1675.97,-1131 "/>
<text text-anchor="middle" x="1636.86" y="-1113" font-family="Times,serif" font-size="14.00"> </text>
</g>
<!-- Responsable&#45;&gt;CardResponsable -->
<g id="edge32" class="edge"><title>Responsable&#45;&gt;CardResponsable</title>
<path fill="none" stroke="#0ea56f" d="M1132.65,-435.91C1132.11,-403.16 1131.49,-364.909 1130.96,-332.907"/>
<ellipse fill="none" stroke="#0ea56f" cx="1132.71" cy="-440.023" rx="4" ry="4"/>
<polygon fill="#0ea56f" stroke="#0ea56f" points="1130.96,-332.749 1135.3,-322.677 1130.88,-327.75 1130.8,-322.751 1130.8,-322.751 1130.8,-322.751 1130.88,-327.75 1126.3,-322.824 1130.96,-332.749 1130.96,-332.749"/>
</g>
<!-- Tag&#45;&gt;Tagging -->
<g id="edge34" class="edge"><title>Tag&#45;&gt;Tagging</title>
<path fill="none" stroke="#67d675" d="M1285.66,-444.118C1286.08,-409.584 1286.6,-367.353 1287.03,-332.573"/>
<ellipse fill="none" stroke="#67d675" cx="1285.61" cy="-448.559" rx="4" ry="4"/>
<polygon fill="#67d675" stroke="#67d675" points="1287.03,-332.505 1291.65,-322.561 1287.09,-327.505 1287.15,-322.506 1287.15,-322.506 1287.15,-322.506 1287.09,-327.505 1282.65,-322.451 1287.03,-332.505 1287.03,-332.505"/>
</g>
<!-- User&#45;&gt;Card -->
<g id="edge38" class="edge"><title>User&#45;&gt;Card</title>
<path fill="none" stroke="#0261e7" d="M657.375,-573.092C728.71,-628.953 831.767,-711.577 903.382,-770.278"/>
<ellipse fill="none" stroke="#0261e7" cx="654.155" cy="-570.573" rx="4.00002" ry="4.00002"/>
<polygon fill="#0261e7" stroke="#0261e7" points="903.581,-770.441 908.456,-780.263 907.446,-773.613 911.311,-776.784 911.311,-776.784 911.311,-776.784 907.446,-773.613 914.166,-773.306 903.581,-770.441 903.581,-770.441"/>
</g>
<!-- User&#45;&gt;CardVerification -->
<g id="edge37" class="edge"><title>User&#45;&gt;CardVerification</title>
<path fill="none" stroke="#759bb0" d="M558.268,-402.275C554.408,-378.637 550.427,-354.254 546.911,-332.717"/>
<ellipse fill="none" stroke="#759bb0" cx="558.941" cy="-406.401" rx="4.00001" ry="4.00001"/>
<polygon fill="#759bb0" stroke="#759bb0" points="546.889,-332.582 549.719,-321.987 546.083,-327.647 545.278,-322.713 545.278,-322.713 545.278,-322.713 546.083,-327.647 540.837,-323.438 546.889,-332.582 546.889,-332.582"/>
</g>
<!-- User&#45;&gt;Ownership -->
<g id="edge39" class="edge"><title>User&#45;&gt;Ownership</title>
<path fill="none" stroke="#a83f85" d="M494.598,-438.388C461.982,-409.644 424.206,-376.353 390.528,-346.672"/>
<ellipse fill="none" stroke="#a83f85" cx="497.624" cy="-441.055" rx="4.00002" ry="4.00002"/>
<polygon fill="#a83f85" stroke="#a83f85" points="390.464,-346.615 385.937,-336.627 386.713,-343.309 382.961,-340.004 382.961,-340.004 382.961,-340.004 386.713,-343.309 379.986,-343.38 390.464,-346.615 390.464,-346.615"/>
</g>
<!-- User&#45;&gt;Parent -->
<g id="edge40" class="edge"><title>User&#45;&gt;Parent</title>
<path fill="none" stroke="#885d53" d="M624.342,-402.98C635.283,-378.831 646.593,-353.866 656.536,-331.921"/>
<ellipse fill="none" stroke="#885d53" cx="622.654" cy="-406.706" rx="4.00002" ry="4.00002"/>
<polygon fill="#885d53" stroke="#885d53" points="656.581,-331.821 664.807,-324.57 658.645,-327.267 660.708,-322.713 660.708,-322.713 660.708,-322.713 658.645,-327.267 656.609,-320.855 656.581,-331.821 656.581,-331.821"/>
</g>
<!-- User&#45;&gt;User -->
<g id="edge41" class="edge"><title>User&#45;&gt;User</title>
<path fill="none" stroke="#4e67a9" d="M658.716,-545.554C664.994,-537.867 668.855,-526.349 668.855,-511 668.855,-495.651 664.994,-484.133 658.716,-476.446"/>
<polygon fill="#4e67a9" stroke="#4e67a9" points="658.497,-545.748 648.034,-549.029 654.761,-549.07 651.024,-552.393 651.024,-552.393 651.024,-552.393 654.761,-549.07 654.014,-555.756 658.497,-545.748 658.497,-545.748"/>
<polygon fill="#4e67a9" stroke="#4e67a9" points="658.497,-476.252 654.014,-466.244 654.761,-472.93 651.024,-469.607 651.024,-469.607 651.024,-469.607 654.761,-472.93 648.034,-472.971 658.497,-476.252 658.497,-476.252"/>
</g>
<!-- User&#45;&gt;VerificatorComment -->
<g id="edge42" class="edge"><title>User&#45;&gt;VerificatorComment</title>
<path fill="none" stroke="#1d640f" d="M657.63,-454.188C699.067,-425.126 744.268,-391.987 761.855,-374 772.142,-363.479 782.021,-351.435 791.056,-339.279"/>
<ellipse fill="none" stroke="#1d640f" cx="654.295" cy="-456.522" rx="4.00002" ry="4.00002"/>
<polygon fill="#1d640f" stroke="#1d640f" points="791.293,-338.953 800.811,-333.509 794.232,-334.909 797.171,-330.864 797.171,-330.864 797.171,-330.864 794.232,-334.909 793.53,-328.218 791.293,-338.953 791.293,-338.953"/>
</g>
<!-- UserType -->
<g id="node20" class="node"><title>UserType</title>
<path fill="none" stroke="black" d="M547.35,-792C547.35,-792 656.361,-792 656.361,-792 662.361,-792 668.361,-798 668.361,-804 668.361,-804 668.361,-880 668.361,-880 668.361,-886 662.361,-892 656.361,-892 656.361,-892 547.35,-892 547.35,-892 541.35,-892 535.35,-886 535.35,-880 535.35,-880 535.35,-804 535.35,-804 535.35,-798 541.35,-792 547.35,-792"/>
<text text-anchor="middle" x="601.855" y="-874" font-family="Times,serif" font-size="14.00">UserType</text>
<polyline fill="none" stroke="black" points="535.35,-867.2 668.361,-867.2 "/>
<text text-anchor="start" x="543.35" y="-849.2" font-family="Times,serif" font-size="14.00">id :integer</text>
<text text-anchor="start" x="543.35" y="-832.4" font-family="Times,serif" font-size="14.00">name :string</text>
<text text-anchor="start" x="543.35" y="-815.6" font-family="Times,serif" font-size="14.00">created_at :datetime</text>
<text text-anchor="start" x="543.35" y="-798.8" font-family="Times,serif" font-size="14.00">updated_at :datetime</text>
</g>
<!-- UserType&#45;&gt;User -->
<g id="edge44" class="edge"><title>UserType&#45;&gt;User</title>
<path fill="none" stroke="#a22803" d="M597.33,-783.743C593.807,-739.154 588.81,-675.932 584.524,-621.688"/>
<ellipse fill="none" stroke="#a22803" cx="597.648" cy="-787.758" rx="4" ry="4"/>
<polygon fill="#a22803" stroke="#a22803" points="584.52,-621.64 588.218,-611.316 584.126,-616.655 583.732,-611.671 583.732,-611.671 583.732,-611.671 584.126,-616.655 579.246,-612.025 584.52,-621.64 584.52,-621.64"/>
</g>
<!-- ActiveRecord::Base -->
<g id="node22" class="node"><title>ActiveRecord::Base</title>
<ellipse fill="none" stroke="black" cx="734.855" cy="-1269" rx="88.2033" ry="18"/>
<text text-anchor="middle" x="734.855" y="-1263.4" font-family="Times,serif" font-size="14.00">ActiveRecord::Base</text>
</g>
<!-- ActiveRecord::Base&#45;&gt;Action -->
<g id="edge3" class="edge"><title>ActiveRecord::Base&#45;&gt;Action</title>
<path fill="none" stroke="black" d="M702.389,-1252.05C683.607,-1243.34 659.313,-1232.95 636.855,-1226 558.084,-1201.63 530.532,-1222.74 454.855,-1190 450.542,-1188.13 446.232,-1186.01 441.973,-1183.71"/>
<polyline fill="none" stroke="black" points="437.374,-1181.14 441.739,-1183.57 "/>
</g>
<!-- ActiveRecord::Base&#45;&gt;Affiliation -->
<g id="edge6" class="edge"><title>ActiveRecord::Base&#45;&gt;Affiliation</title>
<path fill="none" stroke="black" d="M751.431,-1251.05C767.625,-1234.49 793.128,-1208.41 816.142,-1184.88"/>
<polyline fill="none" stroke="black" points="819.812,-1181.13 816.316,-1184.7 "/>
</g>
<!-- ActiveRecord::Base&#45;&gt;Card -->
<g id="edge16" class="edge"><title>ActiveRecord::Base&#45;&gt;Card</title>
<path fill="none" stroke="black" d="M816.405,-1261.92C911.384,-1252.94 1059.68,-1232.39 1093.86,-1190 1150.63,-1119.56 1109.92,-1019.16 1063.12,-944.467"/>
<polyline fill="none" stroke="black" points="1060.31,-940.034 1062.99,-944.26 "/>
</g>
<!-- ActiveRecord::Base&#45;&gt;CardAffiliation -->
<g id="edge17" class="edge"><title>ActiveRecord::Base&#45;&gt;CardAffiliation</title>
<path fill="none" stroke="black" d="M738.202,-1251.01C741.238,-1235.24 745.705,-1211.09 748.855,-1190 782.543,-964.432 811.344,-694.978 823.577,-574.998"/>
<polyline fill="none" stroke="black" points="824.112,-569.747 823.605,-574.721 "/>
</g>
<!-- ActiveRecord::Base&#45;&gt;CardResponsable -->
<g id="edge18" class="edge"><title>ActiveRecord::Base&#45;&gt;CardResponsable</title>
<path fill="none" stroke="black" d="M819.191,-1263.49C941.277,-1255.48 1159.57,-1235.18 1222.86,-1190 1285.97,-1144.94 1281.26,-1109.87 1304.86,-1036 1347.34,-902.973 1446.15,-519.796 1359.86,-410 1318.02,-356.775 1268.4,-411.224 1211.86,-374 1193.62,-361.996 1177.89,-344.502 1165.21,-327.03"/>
<polyline fill="none" stroke="black" points="1162.06,-322.591 1164.96,-326.667 "/>
</g>
<!-- ActiveRecord::Base&#45;&gt;CardType -->
<g id="edge20" class="edge"><title>ActiveRecord::Base&#45;&gt;CardType</title>
<path fill="none" stroke="black" d="M784.124,-1254.02C827.431,-1240.7 891.392,-1218.47 942.855,-1190 946.25,-1188.12 949.659,-1186.1 953.05,-1183.99"/>
<polyline fill="none" stroke="black" points="957.661,-1181.04 953.448,-1183.73 "/>
</g>
<!-- ActiveRecord::Base&#45;&gt;CardVerification -->
<g id="edge21" class="edge"><title>ActiveRecord::Base&#45;&gt;CardVerification</title>
<path fill="none" stroke="black" d="M699.661,-1252.38C681.081,-1244.27 657.84,-1234.34 636.855,-1226 593.738,-1208.85 570.936,-1223.52 538.855,-1190 489.196,-1138.11 500.875,-1106.98 489.855,-1036 447.171,-761.07 449.863,-685.036 491.855,-410 496.062,-382.45 504.321,-352.871 512.56,-327.66"/>
<polyline fill="none" stroke="black" points="514.206,-322.678 512.637,-327.425 "/>
</g>
<!-- ActiveRecord::Base&#45;&gt;Element -->
<g id="edge23" class="edge"><title>ActiveRecord::Base&#45;&gt;Element</title>
<path fill="none" stroke="black" d="M704.388,-1252.01C685.468,-1242.83 660.357,-1231.97 636.855,-1226 553.144,-1204.73 316.606,-1244.81 249.855,-1190 162.296,-1118.1 146.979,-975.366 145.578,-897.231"/>
<polyline fill="none" stroke="black" points="145.506,-892.179 145.578,-897.178 "/>
</g>
<!-- ActiveRecord::Base&#45;&gt;Ownership -->
<g id="edge25" class="edge"><title>ActiveRecord::Base&#45;&gt;Ownership</title>
<path fill="none" stroke="black" d="M704.42,-1251.88C685.512,-1242.65 660.402,-1231.79 636.855,-1226 536.427,-1201.3 262.003,-1242.43 172.855,-1190 102.089,-1148.38 94.5274,-1114.61 70.8553,-1036 21.1315,-870.88 27.1244,-814.807 70.8553,-648 101.639,-530.577 142.284,-514.022 204.855,-410 211.252,-399.367 218.017,-388.371 224.865,-377.41"/>
<polyline fill="none" stroke="black" points="227.596,-373.048 224.943,-377.286 "/>
</g>
<!-- ActiveRecord::Base&#45;&gt;OwnershipAction -->
<g id="edge26" class="edge"><title>ActiveRecord::Base&#45;&gt;OwnershipAction</title>
<path fill="none" stroke="black" d="M704.878,-1251.98C685.932,-1242.67 660.62,-1231.68 636.855,-1226 576.429,-1211.55 127.572,-1228.56 78.8553,-1190 -44.1783,-1092.63 13.8553,-999.905 13.8553,-843 13.8553,-843 13.8553,-843 13.8553,-510 13.8553,-350.402 143.19,-201.277 227.3,-121.172"/>
<polyline fill="none" stroke="black" points="231.27,-117.41 227.64,-120.849 "/>
</g>
<!-- ActiveRecord::Base&#45;&gt;OwnershipType -->
<g id="edge28" class="edge"><title>ActiveRecord::Base&#45;&gt;OwnershipType</title>
<path fill="none" stroke="black" d="M703.925,-1251.91C685.047,-1242.81 660.139,-1232.08 636.855,-1226 563.555,-1206.87 348.516,-1246.33 297.855,-1190 225.912,-1110.01 254.341,-972.766 278.115,-897.068"/>
<polyline fill="none" stroke="black" points="279.674,-892.172 278.157,-896.936 "/>
</g>
<!-- ActiveRecord::Base&#45;&gt;Page -->
<g id="edge29" class="edge"><title>ActiveRecord::Base&#45;&gt;Page</title>
<path fill="none" stroke="black" d="M819.848,-1263.85C980.381,-1255.14 1321.94,-1232.18 1431.86,-1190 1435.03,-1188.78 1438.2,-1187.4 1441.35,-1185.9"/>
<polyline fill="none" stroke="black" points="1446.26,-1183.45 1441.79,-1185.69 "/>
</g>
<!-- ActiveRecord::Base&#45;&gt;Parent -->
<g id="edge30" class="edge"><title>ActiveRecord::Base&#45;&gt;Parent</title>
<path fill="none" stroke="black" d="M731.038,-1250.75C727.728,-1235.01 723.122,-1211.07 720.855,-1190 686.116,-867.085 685.037,-477.518 686.122,-327.797"/>
<polyline fill="none" stroke="black" points="686.162,-322.573 686.124,-327.573 "/>
</g>
<!-- ActiveRecord::Base&#45;&gt;Responsable -->
<g id="edge33" class="edge"><title>ActiveRecord::Base&#45;&gt;Responsable</title>
<path fill="none" stroke="black" d="M818.548,-1263.08C920.507,-1255.15 1083.9,-1235.54 1121.86,-1190 1267.43,-1015.33 1200.18,-718.3 1158.37,-582.964"/>
<polyline fill="none" stroke="black" points="1156.77,-577.825 1158.26,-582.599 "/>
</g>
<!-- ActiveRecord::Base&#45;&gt;Tag -->
<g id="edge35" class="edge"><title>ActiveRecord::Base&#45;&gt;Tag</title>
<path fill="none" stroke="black" d="M819.144,-1263.28C930.174,-1255.35 1117.19,-1235.49 1166.86,-1190 1341.91,-1029.65 1316.31,-709.775 1296.08,-574.605"/>
<polyline fill="none" stroke="black" points="1295.3,-569.483 1296.05,-574.426 "/>
</g>
<!-- ActiveRecord::Base&#45;&gt;Tagging -->
<g id="edge36" class="edge"><title>ActiveRecord::Base&#45;&gt;Tagging</title>
<path fill="none" stroke="black" d="M820.772,-1264.64C953.615,-1257.96 1201.06,-1239.15 1272.86,-1190 1337.72,-1145.6 1337.1,-1111.25 1359.86,-1036 1440.47,-769.358 1475.52,-675.385 1390.86,-410 1381.27,-379.966 1362.95,-350.826 1344.39,-326.644"/>
<polyline fill="none" stroke="black" points="1341.16,-322.498 1344.23,-326.445 "/>
</g>
<!-- ActiveRecord::Base&#45;&gt;User -->
<g id="edge43" class="edge"><title>ActiveRecord::Base&#45;&gt;User</title>
<path fill="none" stroke="black" d="M710.256,-1251.58C662.57,-1217.97 559.302,-1136 525.855,-1036 471.154,-872.461 495.635,-817.776 525.855,-648 527.709,-637.583 530.304,-626.919 533.345,-616.368"/>
<polyline fill="none" stroke="black" points="534.773,-611.53 533.358,-616.326 "/>
</g>
<!-- ActiveRecord::Base&#45;&gt;UserType -->
<g id="edge45" class="edge"><title>ActiveRecord::Base&#45;&gt;UserType</title>
<path fill="none" stroke="black" d="M720.949,-1251.08C709.175,-1235.94 692.686,-1212.7 682.855,-1190 640.268,-1091.66 618.227,-967.51 608.426,-897.517"/>
<polyline fill="none" stroke="black" points="607.685,-892.159 608.37,-897.111 "/>
</g>
<!-- ActiveRecord::Base&#45;&gt;VerificatorComment -->
<g id="edge46" class="edge"><title>ActiveRecord::Base&#45;&gt;VerificatorComment</title>
<path fill="none" stroke="black" d="M734.079,-1250.84C729.446,-1144.64 707.205,-576.226 753.855,-410 761.078,-384.265 773.935,-358.326 787.453,-335.644"/>
<polyline fill="none" stroke="black" points="790.164,-331.152 787.58,-335.433 "/>
</g>
<!-- Object -->
<g id="node23" class="node"><title>Object</title>
<ellipse fill="none" stroke="black" cx="1636.86" cy="-1269" rx="36.1697" ry="18"/>
<text text-anchor="middle" x="1636.86" y="-1263.4" font-family="Times,serif" font-size="14.00">Object</text>
</g>
<!-- Object&#45;&gt;Permission -->
<g id="edge31" class="edge"><title>Object&#45;&gt;Permission</title>
<path fill="none" stroke="black" d="M1636.86,-1250.78C1636.86,-1228.26 1636.86,-1188.49 1636.86,-1161.22"/>
<polyline fill="none" stroke="black" points="1636.86,-1155.94 1636.86,-1160.94 "/>
</g>
</g>
</svg>
