<?xml version="1.0" encoding="UTF-8" standalone="no"?>
<!DOCTYPE svg PUBLIC "-//W3C//DTD SVG 1.1//EN"
 "http://www.w3.org/Graphics/SVG/1.1/DTD/svg11.dtd">
<!-- Generated by graphviz version 2.36.0 (20140111.2315)
 -->
<!-- Title: models_diagram Pages: 1 -->
<svg width="1495pt" height="442pt"
 viewBox="0.00 0.00 1495.00 442.00" xmlns="http://www.w3.org/2000/svg" xmlns:xlink="http://www.w3.org/1999/xlink">
<g id="graph0" class="graph" transform="scale(1 1) rotate(0) translate(4 438)">
<title>models_diagram</title>
<polygon fill="white" stroke="none" points="-4,4 -4,-438 1491,-438 1491,4 -4,4"/>
<!-- _diagram_info -->
<g id="node1" class="node"><title>_diagram_info</title>
<text text-anchor="start" x="393.55" y="-419.1" font-family="Times,serif" font-size="13.00">Models diagram</text>
<text text-anchor="start" x="393.55" y="-406.1" font-family="Times,serif" font-size="13.00">Date: Feb 21 2014 &#45; 18:41</text>
<text text-anchor="start" x="393.55" y="-393.1" font-family="Times,serif" font-size="13.00">Migration version: 20140217211635</text>
<text text-anchor="start" x="393.55" y="-380.1" font-family="Times,serif" font-size="13.00">Generated by RailRoady 1.1.1</text>
<text text-anchor="start" x="393.55" y="-367.1" font-family="Times,serif" font-size="13.00">http://railroady.prestonlee.com</text>
</g>
<!-- Action -->
<g id="node2" class="node"><title>Action</title>
<ellipse fill="none" stroke="black" cx="91" cy="-306" rx="34.2643" ry="18"/>
<text text-anchor="middle" x="91" y="-301.8" font-family="Times,serif" font-size="14.00">Action</text>
</g>
<!-- Ownership -->
<g id="node12" class="node"><title>Ownership</title>
<ellipse fill="none" stroke="black" cx="175" cy="-90" rx="48.3713" ry="18"/>
<text text-anchor="middle" x="175" y="-85.8" font-family="Times,serif" font-size="14.00">Ownership</text>
</g>
<!-- Action&#45;&gt;Ownership -->
<g id="edge2" class="edge"><title>Action&#45;&gt;Ownership</title>
<path fill="none" stroke="#b251e1" d="M94.9286,-277.508C100.404,-244.482 112.203,-188.026 134,-144 139.007,-133.887 146.106,-123.829 152.992,-115.236"/>
<polygon fill="#b251e1" stroke="#b251e1" points="94.8698,-277.881 88.8642,-287.056 94.0894,-282.819 93.309,-287.758 93.309,-287.758 93.309,-287.758 94.0894,-282.819 97.7539,-288.461 94.8698,-277.881 94.8698,-277.881"/>
<polygon fill="#b251e1" stroke="#b251e1" points="153.048,-115.169 162.91,-110.375 156.251,-111.33 159.455,-107.492 159.455,-107.492 159.455,-107.492 156.251,-111.33 156,-104.608 153.048,-115.169 153.048,-115.169"/>
</g>
<!-- OwnershipAction -->
<g id="node13" class="node"><title>OwnershipAction</title>
<ellipse fill="none" stroke="black" cx="72" cy="-18" rx="72.4741" ry="18"/>
<text text-anchor="middle" x="72" y="-13.8" font-family="Times,serif" font-size="14.00">OwnershipAction</text>
</g>
<!-- Action&#45;&gt;OwnershipAction -->
<g id="edge1" class="edge"><title>Action&#45;&gt;OwnershipAction</title>
<path fill="none" stroke="#31fbc1" d="M89.329,-279.847C85.7775,-226.388 77.503,-101.835 73.8219,-46.4249"/>
<ellipse fill="none" stroke="#31fbc1" cx="89.6032" cy="-283.975" rx="4" ry="4"/>
<polygon fill="#31fbc1" stroke="#31fbc1" points="73.8127,-46.2845 77.6398,-36.0081 73.4812,-41.2955 73.1497,-36.3065 73.1497,-36.3065 73.1497,-36.3065 73.4812,-41.2955 68.6596,-36.6048 73.8127,-46.2845 73.8127,-46.2845"/>
</g>
<!-- Affiliation -->
<g id="node3" class="node"><title>Affiliation</title>
<ellipse fill="none" stroke="black" cx="767" cy="-306" rx="46.4303" ry="18"/>
<text text-anchor="middle" x="767" y="-301.8" font-family="Times,serif" font-size="14.00">Affiliation</text>
</g>
<!-- Card -->
<g id="node5" class="node"><title>Card</title>
<ellipse fill="none" stroke="black" cx="842" cy="-234" rx="26.9483" ry="18"/>
<text text-anchor="middle" x="842" y="-229.8" font-family="Times,serif" font-size="14.00">Card</text>
</g>
<!-- Affiliation&#45;&gt;Card -->
<g id="edge5" class="edge"><title>Affiliation&#45;&gt;Card</title>
<path fill="none" stroke="#dc9ef3" d="M791.635,-282.007C800.454,-273.776 810.353,-264.538 819.025,-256.443"/>
<polygon fill="#dc9ef3" stroke="#dc9ef3" points="791.329,-282.293 780.948,-285.826 787.674,-285.704 784.019,-289.116 784.019,-289.116 784.019,-289.116 787.674,-285.704 787.089,-292.406 791.329,-282.293 791.329,-282.293"/>
<polygon fill="#dc9ef3" stroke="#dc9ef3" points="819.269,-256.216 829.65,-252.682 822.924,-252.804 826.579,-249.393 826.579,-249.393 826.579,-249.393 822.924,-252.804 823.509,-246.103 819.269,-256.216 819.269,-256.216"/>
</g>
<!-- CardAffiliation -->
<g id="node6" class="node"><title>CardAffiliation</title>
<ellipse fill="none" stroke="black" cx="699" cy="-162" rx="64.2154" ry="18"/>
<text text-anchor="middle" x="699" y="-157.8" font-family="Times,serif" font-size="14.00">CardAffiliation</text>
</g>
<!-- Affiliation&#45;&gt;CardAffiliation -->
<g id="edge4" class="edge"><title>Affiliation&#45;&gt;CardAffiliation</title>
<path fill="none" stroke="#de7b50" d="M755.316,-280.6C743.175,-255.247 724.234,-215.695 711.722,-189.567"/>
<ellipse fill="none" stroke="#de7b50" cx="757.205" cy="-284.545" rx="4.00002" ry="4.00002"/>
<polygon fill="#de7b50" stroke="#de7b50" points="711.588,-189.287 711.328,-178.324 709.429,-184.777 707.269,-180.268 707.269,-180.268 707.269,-180.268 709.429,-184.777 703.21,-182.211 711.588,-189.287 711.588,-189.287"/>
</g>
<!-- Canton -->
<g id="node4" class="node"><title>Canton</title>
<ellipse fill="none" stroke="black" cx="1283" cy="-306" rx="35.4783" ry="18"/>
<text text-anchor="middle" x="1283" y="-301.8" font-family="Times,serif" font-size="14.00">Canton</text>
</g>
<!-- Location -->
<g id="node11" class="node"><title>Location</title>
<ellipse fill="none" stroke="black" cx="1267" cy="-234" rx="41.3072" ry="18"/>
<text text-anchor="middle" x="1267" y="-229.8" font-family="Times,serif" font-size="14.00">Location</text>
</g>
<!-- Canton&#45;&gt;Location -->
<g id="edge7" class="edge"><title>Canton&#45;&gt;Location</title>
<path fill="none" stroke="#63c677" d="M1277.28,-279.987C1275.97,-274.249 1274.57,-268.121 1273.24,-262.293"/>
<ellipse fill="none" stroke="#63c677" cx="1278.24" cy="-284.156" rx="4.00001" ry="4.00001"/>
<polygon fill="#63c677" stroke="#63c677" points="1273.18,-262.024 1275.34,-251.273 1272.06,-257.15 1270.95,-252.275 1270.95,-252.275 1270.95,-252.275 1272.06,-257.15 1266.56,-253.278 1273.18,-262.024 1273.18,-262.024"/>
</g>
<!-- Card&#45;&gt;Card -->
<g id="edge17" class="edge"><title>Card&#45;&gt;Card</title>
<path fill="none" stroke="#5926c1" d="M870.098,-247.5C879.485,-247.509 887,-243.009 887,-234 887,-224.991 879.485,-220.491 870.098,-220.5"/>
<ellipse fill="none" stroke="#5926c1" cx="865.862" cy="-246.949" rx="4.00001" ry="4.00001"/>
<ellipse fill="#5926c1" stroke="#5926c1" cx="865.862" cy="-221.051" rx="4.00001" ry="4.00001"/>
</g>
<!-- Card&#45;&gt;CardAffiliation -->
<g id="edge13" class="edge"><title>Card&#45;&gt;CardAffiliation</title>
<path fill="none" stroke="#10ee02" d="M813.4,-219C791.934,-208.492 762.282,-193.977 738.546,-182.358"/>
<ellipse fill="none" stroke="#10ee02" cx="817.307" cy="-220.913" rx="4.00002" ry="4.00002"/>
<polygon fill="#10ee02" stroke="#10ee02" points="738.42,-182.297 731.417,-173.858 733.93,-180.098 729.439,-177.9 729.439,-177.9 729.439,-177.9 733.93,-180.098 727.46,-181.942 738.42,-182.297 738.42,-182.297"/>
</g>
<!-- CardResponsable -->
<g id="node7" class="node"><title>CardResponsable</title>
<ellipse fill="none" stroke="black" cx="973" cy="-90" rx="71.4972" ry="18"/>
<text text-anchor="middle" x="973" y="-85.8" font-family="Times,serif" font-size="14.00">CardResponsable</text>
</g>
<!-- Card&#45;&gt;CardResponsable -->
<g id="edge9" class="edge"><title>Card&#45;&gt;CardResponsable</title>
<path fill="none" stroke="#89beec" d="M851.36,-208.908C859.67,-189.736 873.245,-163.054 891,-144 902.962,-131.163 918.658,-120.041 933.112,-111.347"/>
<ellipse fill="none" stroke="#89beec" cx="849.777" cy="-212.677" rx="4.00002" ry="4.00002"/>
<polygon fill="#89beec" stroke="#89beec" points="933.253,-111.266 944.162,-110.148 937.58,-108.76 941.906,-106.254 941.906,-106.254 941.906,-106.254 937.58,-108.76 939.651,-102.36 933.253,-111.266 933.253,-111.266"/>
</g>
<!-- CardVerification -->
<g id="node9" class="node"><title>CardVerification</title>
<ellipse fill="none" stroke="black" cx="442" cy="-90" rx="68.3347" ry="18"/>
<text text-anchor="middle" x="442" y="-85.8" font-family="Times,serif" font-size="14.00">CardVerification</text>
</g>
<!-- Card&#45;&gt;CardVerification -->
<g id="edge11" class="edge"><title>Card&#45;&gt;CardVerification</title>
<path fill="none" stroke="#ed0425" d="M825.768,-210.632C807.431,-185.651 779.2,-148.15 772,-144 673.596,-87.2864 630.756,-128.258 519,-108 513.305,-106.968 507.39,-105.813 501.484,-104.603"/>
<ellipse fill="none" stroke="#ed0425" cx="828.29" cy="-214.079" rx="4.00002" ry="4.00002"/>
<polygon fill="#ed0425" stroke="#ed0425" points="501.38,-104.582 492.517,-98.1254 496.487,-103.556 491.593,-102.53 491.593,-102.53 491.593,-102.53 496.487,-103.556 490.67,-106.934 501.38,-104.582 501.38,-104.582"/>
</g>
<!-- Responsable -->
<g id="node18" class="node"><title>Responsable</title>
<ellipse fill="none" stroke="black" cx="988" cy="-162" rx="54.2137" ry="18"/>
<text text-anchor="middle" x="988" y="-157.8" font-family="Times,serif" font-size="14.00">Responsable</text>
</g>
<!-- Card&#45;&gt;Responsable -->
<g id="edge10" class="edge"><title>Card&#45;&gt;Responsable</title>
<path fill="none" stroke="#3e0e00" d="M872.652,-218.304C894.894,-207.64 925.153,-193.132 949.099,-181.651"/>
<polygon fill="#3e0e00" stroke="#3e0e00" points="872.56,-218.348 861.597,-218.614 868.051,-220.51 863.543,-222.671 863.543,-222.671 863.543,-222.671 868.051,-220.51 865.488,-226.729 872.56,-218.348 872.56,-218.348"/>
<polygon fill="#3e0e00" stroke="#3e0e00" points="949.251,-181.579 960.213,-181.313 953.759,-179.417 958.268,-177.255 958.268,-177.255 958.268,-177.255 953.759,-179.417 956.322,-173.197 949.251,-181.579 949.251,-181.579"/>
</g>
<!-- Tag -->
<g id="node19" class="node"><title>Tag</title>
<ellipse fill="none" stroke="black" cx="1088" cy="-162" rx="27" ry="18"/>
<text text-anchor="middle" x="1088" y="-157.8" font-family="Times,serif" font-size="14.00">Tag</text>
</g>
<!-- Card&#45;&gt;Tag -->
<g id="edge15" class="edge"><title>Card&#45;&gt;Tag</title>
<path fill="none" stroke="#085789" d="M877.908,-225.98C920.018,-217.271 991.617,-200.974 1051,-180 1053.11,-179.254 1055.27,-178.432 1057.43,-177.565"/>
<polygon fill="#085789" stroke="#085789" points="877.661,-226.03 866.963,-223.619 872.761,-227.029 867.862,-228.028 867.862,-228.028 867.862,-228.028 872.761,-227.029 868.762,-232.438 877.661,-226.03 877.661,-226.03"/>
<polygon fill="#085789" stroke="#085789" points="1057.56,-177.506 1068.53,-177.699 1062.16,-175.535 1066.75,-173.564 1066.75,-173.564 1066.75,-173.564 1062.16,-175.535 1064.98,-169.428 1057.56,-177.506 1057.56,-177.506"/>
</g>
<!-- Tagging -->
<g id="node20" class="node"><title>Tagging</title>
<ellipse fill="none" stroke="black" cx="1102" cy="-90" rx="38.4411" ry="18"/>
<text text-anchor="middle" x="1102" y="-85.8" font-family="Times,serif" font-size="14.00">Tagging</text>
</g>
<!-- Card&#45;&gt;Tagging -->
<g id="edge14" class="edge"><title>Card&#45;&gt;Tagging</title>
<path fill="none" stroke="#25a5f5" d="M861.374,-212.086C870.39,-202.342 881.253,-190.588 891,-180 905.701,-164.031 905.502,-155.354 924,-144 974.73,-112.862 996.188,-125.764 1053,-108 1056.14,-107.019 1059.38,-105.972 1062.62,-104.899"/>
<ellipse fill="none" stroke="#25a5f5" cx="858.463" cy="-215.231" rx="4.00002" ry="4.00002"/>
<polygon fill="#25a5f5" stroke="#25a5f5" points="1062.82,-104.831 1073.74,-105.898 1067.56,-103.233 1072.3,-101.634 1072.3,-101.634 1072.3,-101.634 1067.56,-103.233 1070.86,-97.3703 1062.82,-104.831 1062.82,-104.831"/>
</g>
<!-- User -->
<g id="node21" class="node"><title>User</title>
<ellipse fill="none" stroke="black" cx="496" cy="-162" rx="27" ry="18"/>
<text text-anchor="middle" x="496" y="-157.8" font-family="Times,serif" font-size="14.00">User</text>
</g>
<!-- Card&#45;&gt;User -->
<g id="edge12" class="edge"><title>Card&#45;&gt;User</title>
<path fill="none" stroke="#75cb9f" d="M806.161,-225.749C739.587,-212.281 597.603,-183.555 531.378,-170.157"/>
<polygon fill="#75cb9f" stroke="#75cb9f" points="806.475,-225.813 815.384,-232.206 811.376,-226.804 816.276,-227.796 816.276,-227.796 816.276,-227.796 811.376,-226.804 817.169,-223.385 806.475,-225.813 806.475,-225.813"/>
<polygon fill="#75cb9f" stroke="#75cb9f" points="531.225,-170.127 522.316,-163.733 526.324,-169.135 521.424,-168.143 521.424,-168.143 521.424,-168.143 526.324,-169.135 520.531,-172.554 531.225,-170.127 531.225,-170.127"/>
</g>
<!-- VerificatorComment -->
<g id="node23" class="node"><title>VerificatorComment</title>
<ellipse fill="none" stroke="black" cx="694" cy="-90" rx="81.9719" ry="18"/>
<text text-anchor="middle" x="694" y="-85.8" font-family="Times,serif" font-size="14.00">VerificatorComment</text>
</g>
<!-- Card&#45;&gt;VerificatorComment -->
<g id="edge16" class="edge"><title>Card&#45;&gt;VerificatorComment</title>
<path fill="none" stroke="#fef411" d="M836.802,-208.036C831.626,-188.534 821.94,-161.835 805,-144 790.15,-128.365 769.745,-116.818 750.478,-108.567"/>
<ellipse fill="none" stroke="#fef411" cx="837.79" cy="-212.024" rx="4.00001" ry="4.00001"/>
<polygon fill="#fef411" stroke="#fef411" points="750.406,-108.538 742.832,-100.608 745.773,-106.658 741.14,-104.778 741.14,-104.778 741.14,-104.778 745.773,-106.658 739.448,-108.948 750.406,-108.538 750.406,-108.538"/>
</g>
<!-- CardType -->
<g id="node8" class="node"><title>CardType</title>
<ellipse fill="none" stroke="black" cx="915" cy="-306" rx="44.2773" ry="18"/>
<text text-anchor="middle" x="915" y="-301.8" font-family="Times,serif" font-size="14.00">CardType</text>
</g>
<!-- CardType&#45;&gt;Card -->
<g id="edge21" class="edge"><title>CardType&#45;&gt;Card</title>
<path fill="none" stroke="#00fb3e" d="M892.626,-283.545C883.687,-274.974 873.412,-265.121 864.464,-256.541"/>
<ellipse fill="none" stroke="#00fb3e" cx="895.548" cy="-286.347" rx="4.00002" ry="4.00002"/>
<polygon fill="#00fb3e" stroke="#00fb3e" points="864.227,-256.314 860.124,-246.145 860.618,-252.853 857.01,-249.393 857.01,-249.393 857.01,-249.393 860.618,-252.853 853.895,-252.641 864.227,-256.314 864.227,-256.314"/>
</g>
<!-- Element -->
<g id="node10" class="node"><title>Element</title>
<ellipse fill="none" stroke="black" cx="216" cy="-234" rx="39.3599" ry="18"/>
<text text-anchor="middle" x="216" y="-229.8" font-family="Times,serif" font-size="14.00">Element</text>
</g>
<!-- Element&#45;&gt;Ownership -->
<g id="edge24" class="edge"><title>Element&#45;&gt;Ownership</title>
<path fill="none" stroke="#ec5fda" d="M208.761,-207.929C201.484,-182.725 190.301,-143.994 182.823,-118.095"/>
<ellipse fill="none" stroke="#ec5fda" cx="209.945" cy="-212.028" rx="4.00001" ry="4.00001"/>
<polygon fill="#ec5fda" stroke="#ec5fda" points="182.737,-117.797 184.286,-106.941 181.35,-112.993 179.963,-108.189 179.963,-108.189 179.963,-108.189 181.35,-112.993 175.64,-109.438 182.737,-117.797 182.737,-117.797"/>
</g>
<!-- Ownership&#45;&gt;OwnershipAction -->
<g id="edge27" class="edge"><title>Ownership&#45;&gt;OwnershipAction</title>
<path fill="none" stroke="#bdf368" d="M145.657,-69.0581C132.688,-60.2443 117.403,-49.8564 104.128,-40.8346"/>
<ellipse fill="none" stroke="#bdf368" cx="149.342" cy="-71.5627" rx="4.00002" ry="4.00002"/>
<polygon fill="#bdf368" stroke="#bdf368" points="104.01,-40.7545 98.2688,-31.4117 99.8748,-37.944 95.7394,-35.1336 95.7394,-35.1336 95.7394,-35.1336 99.8748,-37.944 93.21,-38.8554 104.01,-40.7545 104.01,-40.7545"/>
</g>
<!-- OwnershipType -->
<g id="node14" class="node"><title>OwnershipType</title>
<ellipse fill="none" stroke="black" cx="340" cy="-234" rx="66.2001" ry="18"/>
<text text-anchor="middle" x="340" y="-229.8" font-family="Times,serif" font-size="14.00">OwnershipType</text>
</g>
<!-- OwnershipType&#45;&gt;Ownership -->
<g id="edge30" class="edge"><title>OwnershipType&#45;&gt;Ownership</title>
<path fill="none" stroke="#aafd48" d="M314.745,-211.265C284.124,-184.913 232.753,-140.703 201.557,-113.855"/>
<ellipse fill="none" stroke="#aafd48" cx="318.041" cy="-214.102" rx="4.00002" ry="4.00002"/>
<polygon fill="#aafd48" stroke="#aafd48" points="201.286,-113.622 196.642,-103.688 197.497,-110.361 193.707,-107.099 193.707,-107.099 193.707,-107.099 197.497,-110.361 190.771,-110.51 201.286,-113.622 201.286,-113.622"/>
</g>
<!-- Page -->
<g id="node15" class="node"><title>Page</title>
<ellipse fill="none" stroke="black" cx="1364" cy="-306" rx="26.9483" ry="18"/>
<text text-anchor="middle" x="1364" y="-301.8" font-family="Times,serif" font-size="14.00">Page</text>
</g>
<!-- Parent -->
<g id="node16" class="node"><title>Parent</title>
<ellipse fill="none" stroke="black" cx="561" cy="-90" rx="32.5477" ry="18"/>
<text text-anchor="middle" x="561" y="-85.8" font-family="Times,serif" font-size="14.00">Parent</text>
</g>
<!-- Permission -->
<g id="node17" class="node"><title>Permission</title>
<polygon fill="none" stroke="black" points="1487.17,-324 1408.83,-324 1408.83,-288 1487.17,-288 1487.17,-324"/>
<text text-anchor="middle" x="1448" y="-301.8" font-family="Times,serif" font-size="14.00">Permission</text>
</g>
<!-- Responsable&#45;&gt;CardResponsable -->
<g id="edge35" class="edge"><title>Responsable&#45;&gt;CardResponsable</title>
<path fill="none" stroke="#9c237b" d="M982.566,-135.64C981.34,-129.92 980.034,-123.828 978.795,-118.042"/>
<ellipse fill="none" stroke="#9c237b" cx="983.454" cy="-139.785" rx="4.00001" ry="4.00001"/>
<polygon fill="#9c237b" stroke="#9c237b" points="978.761,-117.882 981.065,-107.161 977.713,-112.993 976.665,-108.104 976.665,-108.104 976.665,-108.104 977.713,-112.993 972.265,-109.047 978.761,-117.882 978.761,-117.882"/>
</g>
<!-- Tag&#45;&gt;Tagging -->
<g id="edge37" class="edge"><title>Tag&#45;&gt;Tagging</title>
<path fill="none" stroke="#3a771c" d="M1093,-135.987C1094.15,-130.249 1095.38,-124.121 1096.54,-118.293"/>
<ellipse fill="none" stroke="#3a771c" cx="1092.17" cy="-140.133" rx="4.00001" ry="4.00001"/>
<polygon fill="#3a771c" stroke="#3a771c" points="1096.58,-118.081 1102.96,-109.158 1097.56,-113.178 1098.54,-108.275 1098.54,-108.275 1098.54,-108.275 1097.56,-113.178 1094.13,-107.393 1096.58,-118.081 1096.58,-118.081"/>
</g>
<!-- User&#45;&gt;CardVerification -->
<g id="edge40" class="edge"><title>User&#45;&gt;CardVerification</title>
<path fill="none" stroke="#e671bc" d="M478.917,-138.855C473.376,-131.673 467.189,-123.652 461.487,-116.261"/>
<ellipse fill="none" stroke="#e671bc" cx="481.572" cy="-142.298" rx="4.00002" ry="4.00002"/>
<polygon fill="#e671bc" stroke="#e671bc" points="461.193,-115.88 458.648,-105.213 458.139,-111.921 455.085,-107.962 455.085,-107.962 455.085,-107.962 458.139,-111.921 451.522,-110.71 461.193,-115.88 461.193,-115.88"/>
</g>
<!-- User&#45;&gt;Ownership -->
<g id="edge41" class="edge"><title>User&#45;&gt;Ownership</title>
<path fill="none" stroke="#233ff1" d="M462.897,-153.781C406.568,-141.498 291.742,-116.458 225.389,-101.988"/>
<ellipse fill="none" stroke="#233ff1" cx="466.904" cy="-154.655" rx="4.00001" ry="4.00001"/>
<polygon fill="#233ff1" stroke="#233ff1" points="225.339,-101.977 216.527,-95.45 220.454,-100.912 215.568,-99.8467 215.568,-99.8467 215.568,-99.8467 220.454,-100.912 214.61,-104.243 225.339,-101.977 225.339,-101.977"/>
</g>
<!-- User&#45;&gt;Parent -->
<g id="edge42" class="edge"><title>User&#45;&gt;Parent</title>
<path fill="none" stroke="#a4f700" d="M515.447,-140.058C523.158,-131.753 532.046,-122.181 539.912,-113.71"/>
<ellipse fill="none" stroke="#a4f700" cx="512.507" cy="-143.224" rx="4.00002" ry="4.00002"/>
<polygon fill="#a4f700" stroke="#a4f700" points="539.981,-113.636 550.083,-109.37 543.383,-109.972 546.786,-106.308 546.786,-106.308 546.786,-106.308 543.383,-109.972 543.488,-103.246 539.981,-113.636 539.981,-113.636"/>
</g>
<!-- User&#45;&gt;User -->
<g id="edge43" class="edge"><title>User&#45;&gt;User</title>
<path fill="none" stroke="#59ed7f" d="M526.039,-175.436C534.501,-174.857 541,-170.378 541,-162 541,-153.622 534.501,-149.143 526.039,-148.564"/>
<polygon fill="#59ed7f" stroke="#59ed7f" points="525.846,-175.417 516.338,-169.954 520.871,-174.924 515.895,-174.432 515.895,-174.432 515.895,-174.432 520.871,-174.924 515.452,-178.91 525.846,-175.417 525.846,-175.417"/>
<polygon fill="#59ed7f" stroke="#59ed7f" points="525.846,-148.583 515.452,-145.09 520.871,-149.076 515.895,-149.568 515.895,-149.568 515.895,-149.568 520.871,-149.076 516.338,-154.046 525.846,-148.583 525.846,-148.583"/>
</g>
<!-- User&#45;&gt;VerificatorComment -->
<g id="edge44" class="edge"><title>User&#45;&gt;VerificatorComment</title>
<path fill="none" stroke="#c36ada" d="M527.22,-149.963C558.289,-138.979 606.488,-121.938 643.097,-108.996"/>
<ellipse fill="none" stroke="#c36ada" cx="523.262" cy="-151.362" rx="4.00001" ry="4.00001"/>
<polygon fill="#c36ada" stroke="#c36ada" points="643.185,-108.965 654.113,-109.874 647.899,-107.298 652.613,-105.632 652.613,-105.632 652.613,-105.632 647.899,-107.298 651.113,-101.389 643.185,-108.965 643.185,-108.965"/>
</g>
<!-- UserType -->
<g id="node22" class="node"><title>UserType</title>
<ellipse fill="none" stroke="black" cx="544" cy="-234" rx="44.038" ry="18"/>
<text text-anchor="middle" x="544" y="-229.8" font-family="Times,serif" font-size="14.00">UserType</text>
</g>
<!-- UserType&#45;&gt;User -->
<g id="edge46" class="edge"><title>UserType&#45;&gt;User</title>
<path fill="none" stroke="#3d0ab4" d="M528.032,-209.713C523.17,-202.623 517.811,-194.808 512.891,-187.633"/>
<ellipse fill="none" stroke="#3d0ab4" cx="530.363" cy="-213.112" rx="4.00002" ry="4.00002"/>
<polygon fill="#3d0ab4" stroke="#3d0ab4" points="512.619,-187.235 510.675,-176.443 509.791,-183.112 506.963,-178.988 506.963,-178.988 506.963,-178.988 509.791,-183.112 503.252,-181.533 512.619,-187.235 512.619,-187.235"/>
</g>
<!-- ActiveRecord::Base -->
<g id="node24" class="node"><title>ActiveRecord::Base</title>
<ellipse fill="none" stroke="black" cx="692" cy="-397" rx="80.9821" ry="18"/>
<text text-anchor="middle" x="692" y="-392.8" font-family="Times,serif" font-size="14.00">ActiveRecord::Base</text>
</g>
<!-- ActiveRecord::Base&#45;&gt;Action -->
<g id="edge3" class="edge"><title>ActiveRecord::Base&#45;&gt;Action</title>
<path fill="none" stroke="black" d="M659.481,-380.389C642.454,-372.927 621.029,-364.631 601,-360 400.339,-313.601 340.471,-366.747 139,-324 131.736,-322.459 124.071,-320.099 117.05,-317.623"/>
</g>
<!-- ActiveRecord::Base&#45;&gt;Affiliation -->
<g id="edge6" class="edge"><title>ActiveRecord::Base&#45;&gt;Affiliation</title>
<path fill="none" stroke="black" d="M706.107,-379.26C719.601,-363.247 739.823,-339.251 753.21,-323.364"/>
</g>
<!-- ActiveRecord::Base&#45;&gt;Canton -->
<g id="edge8" class="edge"><title>ActiveRecord::Base&#45;&gt;Canton</title>
<path fill="none" stroke="black" d="M768.11,-390.586C873.596,-382.019 1069.71,-362.238 1233,-324 1240.41,-322.265 1248.27,-319.868 1255.51,-317.421"/>
</g>
<!-- ActiveRecord::Base&#45;&gt;Card -->
<g id="edge18" class="edge"><title>ActiveRecord::Base&#45;&gt;Card</title>
<path fill="none" stroke="black" d="M737.046,-381.88C765.586,-370.645 800.961,-352.08 822,-324 837.858,-302.835 841.538,-271.409 842.179,-252.117"/>
</g>
<!-- ActiveRecord::Base&#45;&gt;CardAffiliation -->
<g id="edge19" class="edge"><title>ActiveRecord::Base&#45;&gt;CardAffiliation</title>
<path fill="none" stroke="black" d="M692.515,-378.867C693.809,-335.778 697.189,-223.274 698.485,-180.158"/>
</g>
<!-- ActiveRecord::Base&#45;&gt;CardResponsable -->
<g id="edge20" class="edge"><title>ActiveRecord::Base&#45;&gt;CardResponsable</title>
<path fill="none" stroke="black" d="M772.617,-394.456C843.972,-389.582 948.245,-373.571 1024,-324 1100.58,-273.89 1176.92,-218.663 1124,-144 1112.15,-127.283 1063.83,-112.235 1025,-102.483"/>
</g>
<!-- ActiveRecord::Base&#45;&gt;CardType -->
<g id="edge22" class="edge"><title>ActiveRecord::Base&#45;&gt;CardType</title>
<path fill="none" stroke="black" d="M729.577,-381.003C773.145,-363.615 844.122,-335.288 884.451,-319.192"/>
</g>
<!-- ActiveRecord::Base&#45;&gt;CardVerification -->
<g id="edge23" class="edge"><title>ActiveRecord::Base&#45;&gt;CardVerification</title>
<path fill="none" stroke="black" d="M653.962,-380.904C601.812,-360.178 514.352,-325.305 513,-324 450.766,-263.955 442.654,-151.158 441.908,-108.205"/>
</g>
<!-- ActiveRecord::Base&#45;&gt;Element -->
<g id="edge25" class="edge"><title>ActiveRecord::Base&#45;&gt;Element</title>
<path fill="none" stroke="black" d="M658.035,-380.512C641.181,-373.358 620.336,-365.296 601,-360 502.902,-333.132 471.086,-357.356 375,-324 321.805,-305.533 265.714,-269.719 236.472,-249.609"/>
</g>
<!-- ActiveRecord::Base&#45;&gt;Location -->
<g id="edge26" class="edge"><title>ActiveRecord::Base&#45;&gt;Location</title>
<path fill="none" stroke="black" d="M769.739,-391.786C892.332,-384.002 1123.94,-364.344 1195,-324 1224.9,-307.024 1247.27,-272.347 1258.63,-251.646"/>
</g>
<!-- ActiveRecord::Base&#45;&gt;Ownership -->
<g id="edge28" class="edge"><title>ActiveRecord::Base&#45;&gt;Ownership</title>
<path fill="none" stroke="black" d="M658.978,-380.534C642,-373.205 620.77,-364.983 601,-360 408.257,-311.418 267.349,-423.581 167,-252 140.014,-205.859 157.75,-138.947 168.496,-107.943"/>
</g>
<!-- ActiveRecord::Base&#45;&gt;OwnershipAction -->
<g id="edge29" class="edge"><title>ActiveRecord::Base&#45;&gt;OwnershipAction</title>
<path fill="none" stroke="black" d="M659.506,-380.282C642.485,-372.792 621.058,-364.504 601,-360 540.921,-346.511 94.5856,-364.264 48,-324 17.399,-297.551 29,-275.447 29,-235 29,-235 29,-235 29,-161 29,-114.12 50.7336,-62.1261 63.2983,-35.9843"/>
</g>
<!-- ActiveRecord::Base&#45;&gt;OwnershipType -->
<g id="edge31" class="edge"><title>ActiveRecord::Base&#45;&gt;OwnershipType</title>
<path fill="none" stroke="black" d="M657.514,-380.654C640.714,-373.62 620.068,-365.618 601,-360 522.324,-336.82 491.282,-364.574 420,-324 389.124,-306.425 363.802,-272.619 350.39,-252.107"/>
</g>
<!-- ActiveRecord::Base&#45;&gt;Page -->
<g id="edge32" class="edge"><title>ActiveRecord::Base&#45;&gt;Page</title>
<path fill="none" stroke="black" d="M772.749,-394.991C894.909,-391.657 1133.02,-378.061 1327,-324 1332.45,-322.482 1338.1,-320.252 1343.31,-317.904"/>
</g>
<!-- ActiveRecord::Base&#45;&gt;Parent -->
<g id="edge33" class="edge"><title>ActiveRecord::Base&#45;&gt;Parent</title>
<path fill="none" stroke="black" d="M680.686,-379.019C671.45,-364.722 658.431,-343.536 649,-324 611.216,-245.73 578.515,-146.731 566.208,-107.805"/>
</g>
<!-- ActiveRecord::Base&#45;&gt;Responsable -->
<g id="edge36" class="edge"><title>ActiveRecord::Base&#45;&gt;Responsable</title>
<path fill="none" stroke="black" d="M759.98,-387.072C832.577,-376.072 940.87,-354.958 968,-324 1003.83,-283.117 997.002,-212.37 991.472,-180.025"/>
</g>
<!-- ActiveRecord::Base&#45;&gt;Tag -->
<g id="edge38" class="edge"><title>ActiveRecord::Base&#45;&gt;Tag</title>
<path fill="none" stroke="black" d="M771.727,-393.568C836.636,-387.928 927.717,-371.297 992,-324 1042.98,-286.488 1071.91,-213.04 1082.87,-179.916"/>
</g>
<!-- ActiveRecord::Base&#45;&gt;Tagging -->
<g id="edge39" class="edge"><title>ActiveRecord::Base&#45;&gt;Tagging</title>
<path fill="none" stroke="black" d="M771.339,-393.114C849.348,-387.476 969.921,-371.111 1063,-324 1105.09,-302.695 1120.3,-294.394 1141,-252 1162.09,-208.801 1163.57,-189.127 1147,-144 1141.59,-129.27 1130.07,-115.833 1120.04,-106.174"/>
</g>
<!-- ActiveRecord::Base&#45;&gt;User -->
<g id="edge45" class="edge"><title>ActiveRecord::Base&#45;&gt;User</title>
<path fill="none" stroke="black" d="M651.049,-381.418C601.584,-361.205 521.247,-319.355 491,-252 480.539,-228.706 485.64,-198.467 490.588,-179.912"/>
</g>
<!-- ActiveRecord::Base&#45;&gt;UserType -->
<g id="edge47" class="edge"><title>ActiveRecord::Base&#45;&gt;UserType</title>
<path fill="none" stroke="black" d="M667.695,-379.805C648.506,-366.291 621.764,-345.785 602,-324 581.429,-301.326 563.149,-270.635 552.838,-251.858"/>
</g>
<!-- ActiveRecord::Base&#45;&gt;VerificatorComment -->
<g id="edge48" class="edge"><title>ActiveRecord::Base&#45;&gt;VerificatorComment</title>
<path fill="none" stroke="black" d="M684.917,-379.043C670.344,-343.126 637.412,-256.399 626,-180 623.636,-164.176 618.978,-158.377 626,-144 633.752,-128.13 648.805,-115.63 662.781,-106.764"/>
</g>
<!-- Object -->
<g id="node25" class="node"><title>Object</title>
<ellipse fill="none" stroke="black" cx="1448" cy="-397" rx="33.5181" ry="18"/>
<text text-anchor="middle" x="1448" y="-392.8" font-family="Times,serif" font-size="14.00">Object</text>
</g>
<!-- Object&#45;&gt;Permission -->
<g id="edge34" class="edge"><title>Object&#45;&gt;Permission</title>
<path fill="none" stroke="black" d="M1448,-378.84C1448,-363.08 1448,-339.851 1448,-324.107"/>
</g>
</g>
</svg>
