<?xml version="1.0" encoding="UTF-8" standalone="no"?>
<!DOCTYPE svg PUBLIC "-//W3C//DTD SVG 1.1//EN"
 "http://www.w3.org/Graphics/SVG/1.1/DTD/svg11.dtd">
<!-- Generated by graphviz version 2.36.0 (20140111.2315)
 -->
<!-- Title: models_diagram Pages: 1 -->
<svg width="2712pt" height="1556pt"
 viewBox="0.00 0.00 2712.00 1556.00" xmlns="http://www.w3.org/2000/svg" xmlns:xlink="http://www.w3.org/1999/xlink">
<g id="graph0" class="graph" transform="scale(1 1) rotate(0) translate(4 1552)">
<title>models_diagram</title>
<polygon fill="white" stroke="none" points="-4,4 -4,-1552 2708,-1552 2708,4 -4,4"/>
<!-- _diagram_info -->
<g id="node1" class="node"><title>_diagram_info</title>
<text text-anchor="start" x="1128.31" y="-1533.1" font-family="Times,serif" font-size="13.00">Models diagram</text>
<text text-anchor="start" x="1128.31" y="-1520.1" font-family="Times,serif" font-size="13.00">Date: Apr 28 2014 &#45; 23:44</text>
<text text-anchor="start" x="1128.31" y="-1507.1" font-family="Times,serif" font-size="13.00">Migration version: 20140418124107</text>
<text text-anchor="start" x="1128.31" y="-1494.1" font-family="Times,serif" font-size="13.00">Generated by RailRoady 1.1.1</text>
<text text-anchor="start" x="1128.31" y="-1481.1" font-family="Times,serif" font-size="13.00">http://railroady.prestonlee.com</text>
</g>
<!-- AccessToken -->
<g id="node2" class="node"><title>AccessToken</title>
<path fill="none" stroke="black" d="M233.764,-148C233.764,-148 348.236,-148 348.236,-148 354.236,-148 360.236,-154 360.236,-160 360.236,-160 360.236,-264 360.236,-264 360.236,-270 354.236,-276 348.236,-276 348.236,-276 233.764,-276 233.764,-276 227.764,-276 221.764,-270 221.764,-264 221.764,-264 221.764,-160 221.764,-160 221.764,-154 227.764,-148 233.764,-148"/>
<text text-anchor="middle" x="291" y="-260.8" font-family="Times,serif" font-size="14.00">AccessToken</text>
<polyline fill="none" stroke="black" points="221.764,-254 360.236,-254 "/>
<text text-anchor="start" x="229.764" y="-238.8" font-family="Times,serif" font-size="14.00">id :integer</text>
<text text-anchor="start" x="229.764" y="-224.8" font-family="Times,serif" font-size="14.00">token :string</text>
<text text-anchor="start" x="229.764" y="-210.8" font-family="Times,serif" font-size="14.00">is_valid :boolean</text>
<text text-anchor="start" x="229.764" y="-196.8" font-family="Times,serif" font-size="14.00">ownership_id :integer</text>
<text text-anchor="start" x="229.764" y="-182.8" font-family="Times,serif" font-size="14.00">created_at :datetime</text>
<text text-anchor="start" x="229.764" y="-168.8" font-family="Times,serif" font-size="14.00">updated_at :datetime</text>
<text text-anchor="start" x="229.764" y="-154.8" font-family="Times,serif" font-size="14.00">exp_at :date</text>
</g>
<!-- Action -->
<g id="node3" class="node"><title>Action</title>
<path fill="none" stroke="black" d="M178.495,-617C178.495,-617 287.505,-617 287.505,-617 293.505,-617 299.505,-623 299.505,-629 299.505,-629 299.505,-691 299.505,-691 299.505,-697 293.505,-703 287.505,-703 287.505,-703 178.495,-703 178.495,-703 172.495,-703 166.495,-697 166.495,-691 166.495,-691 166.495,-629 166.495,-629 166.495,-623 172.495,-617 178.495,-617"/>
<text text-anchor="middle" x="233" y="-687.8" font-family="Times,serif" font-size="14.00">Action</text>
<polyline fill="none" stroke="black" points="166.495,-681 299.505,-681 "/>
<text text-anchor="start" x="174.495" y="-665.8" font-family="Times,serif" font-size="14.00">id :integer</text>
<text text-anchor="start" x="174.495" y="-651.8" font-family="Times,serif" font-size="14.00">name :string</text>
<text text-anchor="start" x="174.495" y="-637.8" font-family="Times,serif" font-size="14.00">created_at :datetime</text>
<text text-anchor="start" x="174.495" y="-623.8" font-family="Times,serif" font-size="14.00">updated_at :datetime</text>
</g>
<!-- Ownership -->
<g id="node24" class="node"><title>Ownership</title>
<path fill="none" stroke="black" d="M65.2119,-323C65.2119,-323 210.788,-323 210.788,-323 216.788,-323 222.788,-329 222.788,-335 222.788,-335 222.788,-495 222.788,-495 222.788,-501 216.788,-507 210.788,-507 210.788,-507 65.2119,-507 65.2119,-507 59.2119,-507 53.2119,-501 53.2119,-495 53.2119,-495 53.2119,-335 53.2119,-335 53.2119,-329 59.2119,-323 65.2119,-323"/>
<text text-anchor="middle" x="138" y="-491.8" font-family="Times,serif" font-size="14.00">Ownership</text>
<polyline fill="none" stroke="black" points="53.2119,-485 222.788,-485 "/>
<text text-anchor="start" x="61.2119" y="-469.8" font-family="Times,serif" font-size="14.00">id :integer</text>
<text text-anchor="start" x="61.2119" y="-455.8" font-family="Times,serif" font-size="14.00">element_id :integer</text>
<text text-anchor="start" x="61.2119" y="-441.8" font-family="Times,serif" font-size="14.00">user_id :integer</text>
<text text-anchor="start" x="61.2119" y="-427.8" font-family="Times,serif" font-size="14.00">ownership_type_id :integer</text>
<text text-anchor="start" x="61.2119" y="-413.8" font-family="Times,serif" font-size="14.00">right_create :boolean</text>
<text text-anchor="start" x="61.2119" y="-399.8" font-family="Times,serif" font-size="14.00">right_read :boolean</text>
<text text-anchor="start" x="61.2119" y="-385.8" font-family="Times,serif" font-size="14.00">right_update :boolean</text>
<text text-anchor="start" x="61.2119" y="-371.8" font-family="Times,serif" font-size="14.00">right_delete :boolean</text>
<text text-anchor="start" x="61.2119" y="-357.8" font-family="Times,serif" font-size="14.00">id_element :integer</text>
<text text-anchor="start" x="61.2119" y="-343.8" font-family="Times,serif" font-size="14.00">created_at :datetime</text>
<text text-anchor="start" x="61.2119" y="-329.8" font-family="Times,serif" font-size="14.00">updated_at :datetime</text>
</g>
<!-- Action&#45;&gt;Ownership -->
<g id="edge3" class="edge"><title>Action&#45;&gt;Ownership</title>
<path fill="none" stroke="#abc052" d="M212.826,-607.396C202.502,-580.989 189.568,-547.906 177.371,-516.708"/>
<polygon fill="#abc052" stroke="#abc052" points="212.92,-607.636 212.37,-618.589 214.74,-612.293 216.561,-616.95 216.561,-616.95 216.561,-616.95 214.74,-612.293 220.752,-615.312 212.92,-607.636 212.92,-607.636"/>
<polygon fill="#abc052" stroke="#abc052" points="177.255,-516.409 177.805,-505.457 175.434,-511.752 173.613,-507.096 173.613,-507.096 173.613,-507.096 175.434,-511.752 169.422,-508.734 177.255,-516.409 177.255,-516.409"/>
</g>
<!-- OwnershipAction -->
<g id="node25" class="node"><title>OwnershipAction</title>
<path fill="none" stroke="black" d="M77.7637,-162C77.7637,-162 192.236,-162 192.236,-162 198.236,-162 204.236,-168 204.236,-174 204.236,-174 204.236,-250 204.236,-250 204.236,-256 198.236,-262 192.236,-262 192.236,-262 77.7637,-262 77.7637,-262 71.7637,-262 65.7637,-256 65.7637,-250 65.7637,-250 65.7637,-174 65.7637,-174 65.7637,-168 71.7637,-162 77.7637,-162"/>
<text text-anchor="middle" x="135" y="-246.8" font-family="Times,serif" font-size="14.00">OwnershipAction</text>
<polyline fill="none" stroke="black" points="65.7637,-240 204.236,-240 "/>
<text text-anchor="start" x="73.7637" y="-224.8" font-family="Times,serif" font-size="14.00">id :integer</text>
<text text-anchor="start" x="73.7637" y="-210.8" font-family="Times,serif" font-size="14.00">action_id :integer</text>
<text text-anchor="start" x="73.7637" y="-196.8" font-family="Times,serif" font-size="14.00">ownership_id :integer</text>
<text text-anchor="start" x="73.7637" y="-182.8" font-family="Times,serif" font-size="14.00">created_at :datetime</text>
<text text-anchor="start" x="73.7637" y="-168.8" font-family="Times,serif" font-size="14.00">updated_at :datetime</text>
</g>
<!-- Action&#45;&gt;OwnershipAction -->
<g id="edge2" class="edge"><title>Action&#45;&gt;OwnershipAction</title>
<path fill="none" stroke="#f631d8" d="M243.306,-608.859C254.88,-541.219 267.63,-418.146 231,-322 223.814,-303.137 211.736,-285.414 198.527,-269.961"/>
<ellipse fill="none" stroke="#f631d8" cx="242.597" cy="-612.888" rx="4.00001" ry="4.00001"/>
<polygon fill="#f631d8" stroke="#f631d8" points="198.179,-269.569 194.901,-259.105 194.858,-265.831 191.537,-262.093 191.537,-262.093 191.537,-262.093 194.858,-265.831 188.173,-265.082 198.179,-269.569 198.179,-269.569"/>
</g>
<!-- Activity -->
<g id="node4" class="node"><title>Activity</title>
<path fill="none" stroke="black" d="M840.16,-344C840.16,-344 953.84,-344 953.84,-344 959.84,-344 965.84,-350 965.84,-356 965.84,-356 965.84,-474 965.84,-474 965.84,-480 959.84,-486 953.84,-486 953.84,-486 840.16,-486 840.16,-486 834.16,-486 828.16,-480 828.16,-474 828.16,-474 828.16,-356 828.16,-356 828.16,-350 834.16,-344 840.16,-344"/>
<text text-anchor="middle" x="897" y="-470.8" font-family="Times,serif" font-size="14.00">Activity</text>
<polyline fill="none" stroke="black" points="828.16,-464 965.84,-464 "/>
<text text-anchor="start" x="836.16" y="-448.8" font-family="Times,serif" font-size="14.00">id :integer</text>
<text text-anchor="start" x="836.16" y="-434.8" font-family="Times,serif" font-size="14.00">user_id :integer</text>
<text text-anchor="start" x="836.16" y="-420.8" font-family="Times,serif" font-size="14.00">action :string</text>
<text text-anchor="start" x="836.16" y="-406.8" font-family="Times,serif" font-size="14.00">trackable_id :integer</text>
<text text-anchor="start" x="836.16" y="-392.8" font-family="Times,serif" font-size="14.00">trackable_type :string</text>
<text text-anchor="start" x="836.16" y="-378.8" font-family="Times,serif" font-size="14.00">created_at :datetime</text>
<text text-anchor="start" x="836.16" y="-364.8" font-family="Times,serif" font-size="14.00">updated_at :datetime</text>
<text text-anchor="start" x="836.16" y="-350.8" font-family="Times,serif" font-size="14.00">controller :string</text>
</g>
<!-- Affiliation -->
<g id="node5" class="node"><title>Affiliation</title>
<path fill="none" stroke="black" d="M731.495,-1342C731.495,-1342 840.505,-1342 840.505,-1342 846.505,-1342 852.505,-1348 852.505,-1354 852.505,-1354 852.505,-1416 852.505,-1416 852.505,-1422 846.505,-1428 840.505,-1428 840.505,-1428 731.495,-1428 731.495,-1428 725.495,-1428 719.495,-1422 719.495,-1416 719.495,-1416 719.495,-1354 719.495,-1354 719.495,-1348 725.495,-1342 731.495,-1342"/>
<text text-anchor="middle" x="786" y="-1412.8" font-family="Times,serif" font-size="14.00">Affiliation</text>
<polyline fill="none" stroke="black" points="719.495,-1406 852.505,-1406 "/>
<text text-anchor="start" x="727.495" y="-1390.8" font-family="Times,serif" font-size="14.00">id :integer</text>
<text text-anchor="start" x="727.495" y="-1376.8" font-family="Times,serif" font-size="14.00">name :string</text>
<text text-anchor="start" x="727.495" y="-1362.8" font-family="Times,serif" font-size="14.00">created_at :datetime</text>
<text text-anchor="start" x="727.495" y="-1348.8" font-family="Times,serif" font-size="14.00">updated_at :datetime</text>
</g>
<!-- Card -->
<g id="node9" class="node"><title>Card</title>
<path fill="none" stroke="black" d="M974.698,-899C974.698,-899 1099.3,-899 1099.3,-899 1105.3,-899 1111.3,-905 1111.3,-911 1111.3,-911 1111.3,-1197 1111.3,-1197 1111.3,-1203 1105.3,-1209 1099.3,-1209 1099.3,-1209 974.698,-1209 974.698,-1209 968.698,-1209 962.698,-1203 962.698,-1197 962.698,-1197 962.698,-911 962.698,-911 962.698,-905 968.698,-899 974.698,-899"/>
<text text-anchor="middle" x="1037" y="-1193.8" font-family="Times,serif" font-size="14.00">Card</text>
<polyline fill="none" stroke="black" points="962.698,-1187 1111.3,-1187 "/>
<text text-anchor="start" x="970.698" y="-1171.8" font-family="Times,serif" font-size="14.00">id :integer</text>
<text text-anchor="start" x="970.698" y="-1157.8" font-family="Times,serif" font-size="14.00">card_type_id :integer</text>
<text text-anchor="start" x="970.698" y="-1143.8" font-family="Times,serif" font-size="14.00">name :string</text>
<text text-anchor="start" x="970.698" y="-1129.8" font-family="Times,serif" font-size="14.00">email :string</text>
<text text-anchor="start" x="970.698" y="-1115.8" font-family="Times,serif" font-size="14.00">street :string</text>
<text text-anchor="start" x="970.698" y="-1101.8" font-family="Times,serif" font-size="14.00">place :string</text>
<text text-anchor="start" x="970.698" y="-1087.8" font-family="Times,serif" font-size="14.00">website :string</text>
<text text-anchor="start" x="970.698" y="-1073.8" font-family="Times,serif" font-size="14.00">password_digest :string</text>
<text text-anchor="start" x="970.698" y="-1059.8" font-family="Times,serif" font-size="14.00">description :text</text>
<text text-anchor="start" x="970.698" y="-1045.8" font-family="Times,serif" font-size="14.00">affiliation :text</text>
<text text-anchor="start" x="970.698" y="-1031.8" font-family="Times,serif" font-size="14.00">validated :boolean</text>
<text text-anchor="start" x="970.698" y="-1017.8" font-family="Times,serif" font-size="14.00">created_at :datetime</text>
<text text-anchor="start" x="970.698" y="-1003.8" font-family="Times,serif" font-size="14.00">updated_at :datetime</text>
<text text-anchor="start" x="970.698" y="-989.8" font-family="Times,serif" font-size="14.00">latitude :float</text>
<text text-anchor="start" x="970.698" y="-975.8" font-family="Times,serif" font-size="14.00">longitude :float</text>
<text text-anchor="start" x="970.698" y="-961.8" font-family="Times,serif" font-size="14.00">avatar :string</text>
<text text-anchor="start" x="970.698" y="-947.8" font-family="Times,serif" font-size="14.00">banner :string</text>
<text text-anchor="start" x="970.698" y="-933.8" font-family="Times,serif" font-size="14.00">location_id :integer</text>
<text text-anchor="start" x="970.698" y="-919.8" font-family="Times,serif" font-size="14.00">user_id :integer</text>
<text text-anchor="start" x="970.698" y="-905.8" font-family="Times,serif" font-size="14.00">visible :boolean</text>
</g>
<!-- Affiliation&#45;&gt;Card -->
<g id="edge7" class="edge"><title>Affiliation&#45;&gt;Card</title>
<path fill="none" stroke="#cf4613" d="M824.194,-1333.94C859.156,-1288.11 912.034,-1218.8 956.333,-1160.74"/>
<polygon fill="#cf4613" stroke="#cf4613" points="824.11,-1334.05 814.467,-1339.27 821.077,-1338.02 818.044,-1342 818.044,-1342 818.044,-1342 821.077,-1338.02 821.622,-1344.73 824.11,-1334.05 824.11,-1334.05"/>
<polygon fill="#cf4613" stroke="#cf4613" points="956.458,-1160.57 966.101,-1155.35 959.491,-1156.6 962.524,-1152.62 962.524,-1152.62 962.524,-1152.62 959.491,-1156.6 958.946,-1149.89 956.458,-1160.57 956.458,-1160.57"/>
</g>
<!-- CardAffiliation -->
<g id="node10" class="node"><title>CardAffiliation</title>
<path fill="none" stroke="black" d="M639.708,-610C639.708,-610 750.292,-610 750.292,-610 756.292,-610 762.292,-616 762.292,-622 762.292,-622 762.292,-698 762.292,-698 762.292,-704 756.292,-710 750.292,-710 750.292,-710 639.708,-710 639.708,-710 633.708,-710 627.708,-704 627.708,-698 627.708,-698 627.708,-622 627.708,-622 627.708,-616 633.708,-610 639.708,-610"/>
<text text-anchor="middle" x="695" y="-694.8" font-family="Times,serif" font-size="14.00">CardAffiliation</text>
<polyline fill="none" stroke="black" points="627.708,-688 762.292,-688 "/>
<text text-anchor="start" x="635.708" y="-672.8" font-family="Times,serif" font-size="14.00">id :integer</text>
<text text-anchor="start" x="635.708" y="-658.8" font-family="Times,serif" font-size="14.00">card_id :integer</text>
<text text-anchor="start" x="635.708" y="-644.8" font-family="Times,serif" font-size="14.00">affiliation_id :integer</text>
<text text-anchor="start" x="635.708" y="-630.8" font-family="Times,serif" font-size="14.00">created_at :datetime</text>
<text text-anchor="start" x="635.708" y="-616.8" font-family="Times,serif" font-size="14.00">updated_at :datetime</text>
</g>
<!-- Affiliation&#45;&gt;CardAffiliation -->
<g id="edge6" class="edge"><title>Affiliation&#45;&gt;CardAffiliation</title>
<path fill="none" stroke="#135267" d="M779.668,-1333.69C763.35,-1204.04 719.919,-858.987 702.441,-720.117"/>
<ellipse fill="none" stroke="#135267" cx="780.181" cy="-1337.77" rx="4.00001" ry="4.00001"/>
<polygon fill="#135267" stroke="#135267" points="702.427,-720.007 705.643,-709.524 701.803,-715.046 701.178,-710.086 701.178,-710.086 701.178,-710.086 701.803,-715.046 696.713,-710.648 702.427,-720.007 702.427,-720.007"/>
</g>
<!-- Article -->
<g id="node6" class="node"><title>Article</title>
<path fill="none" stroke="black" d="M1311.49,-344C1311.49,-344 1420.51,-344 1420.51,-344 1426.51,-344 1432.51,-350 1432.51,-356 1432.51,-356 1432.51,-474 1432.51,-474 1432.51,-480 1426.51,-486 1420.51,-486 1420.51,-486 1311.49,-486 1311.49,-486 1305.49,-486 1299.49,-480 1299.49,-474 1299.49,-474 1299.49,-356 1299.49,-356 1299.49,-350 1305.49,-344 1311.49,-344"/>
<text text-anchor="middle" x="1366" y="-470.8" font-family="Times,serif" font-size="14.00">Article</text>
<polyline fill="none" stroke="black" points="1299.49,-464 1432.51,-464 "/>
<text text-anchor="start" x="1307.49" y="-448.8" font-family="Times,serif" font-size="14.00">id :integer</text>
<text text-anchor="start" x="1307.49" y="-434.8" font-family="Times,serif" font-size="14.00">title :string</text>
<text text-anchor="start" x="1307.49" y="-420.8" font-family="Times,serif" font-size="14.00">content :text</text>
<text text-anchor="start" x="1307.49" y="-406.8" font-family="Times,serif" font-size="14.00">user_id :integer</text>
<text text-anchor="start" x="1307.49" y="-392.8" font-family="Times,serif" font-size="14.00">image :string</text>
<text text-anchor="start" x="1307.49" y="-378.8" font-family="Times,serif" font-size="14.00">likes :integer</text>
<text text-anchor="start" x="1307.49" y="-364.8" font-family="Times,serif" font-size="14.00">created_at :datetime</text>
<text text-anchor="start" x="1307.49" y="-350.8" font-family="Times,serif" font-size="14.00">updated_at :datetime</text>
</g>
<!-- ArticleTheme -->
<g id="node7" class="node"><title>ArticleTheme</title>
<path fill="none" stroke="black" d="M626.495,-162C626.495,-162 735.505,-162 735.505,-162 741.505,-162 747.505,-168 747.505,-174 747.505,-174 747.505,-250 747.505,-250 747.505,-256 741.505,-262 735.505,-262 735.505,-262 626.495,-262 626.495,-262 620.495,-262 614.495,-256 614.495,-250 614.495,-250 614.495,-174 614.495,-174 614.495,-168 620.495,-162 626.495,-162"/>
<text text-anchor="middle" x="681" y="-246.8" font-family="Times,serif" font-size="14.00">ArticleTheme</text>
<polyline fill="none" stroke="black" points="614.495,-240 747.505,-240 "/>
<text text-anchor="start" x="622.495" y="-224.8" font-family="Times,serif" font-size="14.00">id :integer</text>
<text text-anchor="start" x="622.495" y="-210.8" font-family="Times,serif" font-size="14.00">article_id :integer</text>
<text text-anchor="start" x="622.495" y="-196.8" font-family="Times,serif" font-size="14.00">theme_id :integer</text>
<text text-anchor="start" x="622.495" y="-182.8" font-family="Times,serif" font-size="14.00">created_at :datetime</text>
<text text-anchor="start" x="622.495" y="-168.8" font-family="Times,serif" font-size="14.00">updated_at :datetime</text>
</g>
<!-- Article&#45;&gt;ArticleTheme -->
<g id="edge9" class="edge"><title>Article&#45;&gt;ArticleTheme</title>
<path fill="none" stroke="#fdab87" d="M1311.63,-338.194C1304.9,-332.041 1297.67,-326.481 1290,-322 1200.56,-269.75 900.212,-234.361 757.52,-220.084"/>
<ellipse fill="none" stroke="#fdab87" cx="1314.78" cy="-341.224" rx="4.00002" ry="4.00002"/>
<polygon fill="#fdab87" stroke="#fdab87" points="757.474,-220.08 747.967,-214.615 752.499,-219.586 747.523,-219.093 747.523,-219.093 747.523,-219.093 752.499,-219.586 747.079,-223.571 757.474,-220.08 757.474,-220.08"/>
</g>
<!-- Theme -->
<g id="node35" class="node"><title>Theme</title>
<path fill="none" stroke="black" d="M1749.49,-162C1749.49,-162 1858.51,-162 1858.51,-162 1864.51,-162 1870.51,-168 1870.51,-174 1870.51,-174 1870.51,-250 1870.51,-250 1870.51,-256 1864.51,-262 1858.51,-262 1858.51,-262 1749.49,-262 1749.49,-262 1743.49,-262 1737.49,-256 1737.49,-250 1737.49,-250 1737.49,-174 1737.49,-174 1737.49,-168 1743.49,-162 1749.49,-162"/>
<text text-anchor="middle" x="1804" y="-246.8" font-family="Times,serif" font-size="14.00">Theme</text>
<polyline fill="none" stroke="black" points="1737.49,-240 1870.51,-240 "/>
<text text-anchor="start" x="1745.49" y="-224.8" font-family="Times,serif" font-size="14.00">id :integer</text>
<text text-anchor="start" x="1745.49" y="-210.8" font-family="Times,serif" font-size="14.00">name :string</text>
<text text-anchor="start" x="1745.49" y="-196.8" font-family="Times,serif" font-size="14.00">description :text</text>
<text text-anchor="start" x="1745.49" y="-182.8" font-family="Times,serif" font-size="14.00">created_at :datetime</text>
<text text-anchor="start" x="1745.49" y="-168.8" font-family="Times,serif" font-size="14.00">updated_at :datetime</text>
</g>
<!-- Article&#45;&gt;Theme -->
<g id="edge10" class="edge"><title>Article&#45;&gt;Theme</title>
<path fill="none" stroke="#49a8d4" d="M1421,-336.357C1427.24,-330.871 1433.92,-325.956 1441,-322 1553.34,-259.272 1611.67,-338.982 1728,-284 1736.51,-279.977 1744.71,-274.647 1752.37,-268.71"/>
<polygon fill="#49a8d4" stroke="#49a8d4" points="1420.62,-336.716 1410.26,-340.311 1416.99,-340.149 1413.35,-343.582 1413.35,-343.582 1413.35,-343.582 1416.99,-340.149 1416.44,-346.854 1420.62,-336.716 1420.62,-336.716"/>
<polygon fill="#49a8d4" stroke="#49a8d4" points="1752.73,-268.413 1763.31,-265.539 1756.59,-265.238 1760.45,-262.063 1760.45,-262.063 1760.45,-262.063 1756.59,-265.238 1757.6,-258.587 1752.73,-268.413 1752.73,-268.413"/>
</g>
<!-- Canton -->
<g id="node8" class="node"><title>Canton</title>
<path fill="none" stroke="black" d="M2296.49,-1335C2296.49,-1335 2405.51,-1335 2405.51,-1335 2411.51,-1335 2417.51,-1341 2417.51,-1347 2417.51,-1347 2417.51,-1423 2417.51,-1423 2417.51,-1429 2411.51,-1435 2405.51,-1435 2405.51,-1435 2296.49,-1435 2296.49,-1435 2290.49,-1435 2284.49,-1429 2284.49,-1423 2284.49,-1423 2284.49,-1347 2284.49,-1347 2284.49,-1341 2290.49,-1335 2296.49,-1335"/>
<text text-anchor="middle" x="2351" y="-1419.8" font-family="Times,serif" font-size="14.00">Canton</text>
<polyline fill="none" stroke="black" points="2284.49,-1413 2417.51,-1413 "/>
<text text-anchor="start" x="2292.49" y="-1397.8" font-family="Times,serif" font-size="14.00">id :integer</text>
<text text-anchor="start" x="2292.49" y="-1383.8" font-family="Times,serif" font-size="14.00">name :string</text>
<text text-anchor="start" x="2292.49" y="-1369.8" font-family="Times,serif" font-size="14.00">abbreviation :string</text>
<text text-anchor="start" x="2292.49" y="-1355.8" font-family="Times,serif" font-size="14.00">created_at :datetime</text>
<text text-anchor="start" x="2292.49" y="-1341.8" font-family="Times,serif" font-size="14.00">updated_at :datetime</text>
</g>
<!-- Location -->
<g id="node20" class="node"><title>Location</title>
<path fill="none" stroke="black" d="M2344.49,-976C2344.49,-976 2453.51,-976 2453.51,-976 2459.51,-976 2465.51,-982 2465.51,-988 2465.51,-988 2465.51,-1120 2465.51,-1120 2465.51,-1126 2459.51,-1132 2453.51,-1132 2453.51,-1132 2344.49,-1132 2344.49,-1132 2338.49,-1132 2332.49,-1126 2332.49,-1120 2332.49,-1120 2332.49,-988 2332.49,-988 2332.49,-982 2338.49,-976 2344.49,-976"/>
<text text-anchor="middle" x="2399" y="-1116.8" font-family="Times,serif" font-size="14.00">Location</text>
<polyline fill="none" stroke="black" points="2332.49,-1110 2465.51,-1110 "/>
<text text-anchor="start" x="2340.49" y="-1094.8" font-family="Times,serif" font-size="14.00">id :integer</text>
<text text-anchor="start" x="2340.49" y="-1080.8" font-family="Times,serif" font-size="14.00">npa :integer</text>
<text text-anchor="start" x="2340.49" y="-1066.8" font-family="Times,serif" font-size="14.00">official_name :string</text>
<text text-anchor="start" x="2340.49" y="-1052.8" font-family="Times,serif" font-size="14.00">post_name :string</text>
<text text-anchor="start" x="2340.49" y="-1038.8" font-family="Times,serif" font-size="14.00">canton_id :integer</text>
<text text-anchor="start" x="2340.49" y="-1024.8" font-family="Times,serif" font-size="14.00">created_at :datetime</text>
<text text-anchor="start" x="2340.49" y="-1010.8" font-family="Times,serif" font-size="14.00">updated_at :datetime</text>
<text text-anchor="start" x="2340.49" y="-996.8" font-family="Times,serif" font-size="14.00">latitude :float</text>
<text text-anchor="start" x="2340.49" y="-982.8" font-family="Times,serif" font-size="14.00">longitude :float</text>
</g>
<!-- Canton&#45;&gt;Location -->
<g id="edge13" class="edge"><title>Canton&#45;&gt;Location</title>
<path fill="none" stroke="#ac3cf3" d="M2359.36,-1326.67C2366.8,-1275.71 2377.78,-1200.48 2386.29,-1142.09"/>
<ellipse fill="none" stroke="#ac3cf3" cx="2358.76" cy="-1330.79" rx="4.00001" ry="4.00001"/>
<polygon fill="#ac3cf3" stroke="#ac3cf3" points="2386.3,-1142.03 2392.2,-1132.78 2387.02,-1137.08 2387.75,-1132.13 2387.75,-1132.13 2387.75,-1132.13 2387.02,-1137.08 2383.29,-1131.48 2386.3,-1142.03 2386.3,-1142.03"/>
</g>
<!-- Card&#45;&gt;Card -->
<g id="edge25" class="edge"><title>Card&#45;&gt;Card</title>
<path fill="none" stroke="#674839" d="M1120.87,-1068.17C1125.95,-1064.8 1129,-1060.08 1129,-1054 1129,-1047.92 1125.95,-1043.2 1120.87,-1039.83"/>
<polygon fill="#674839" stroke="#674839" points="1120.52,-1068.32 1109.55,-1068.22 1115.94,-1070.33 1111.36,-1072.34 1111.36,-1072.34 1111.36,-1072.34 1115.94,-1070.33 1113.17,-1076.46 1120.52,-1068.32 1120.52,-1068.32"/>
<polygon fill="#674839" stroke="#674839" points="1120.52,-1039.68 1113.17,-1031.54 1115.94,-1037.67 1111.36,-1035.66 1111.36,-1035.66 1111.36,-1035.66 1115.94,-1037.67 1109.55,-1039.78 1120.52,-1039.68 1120.52,-1039.68"/>
</g>
<!-- Card&#45;&gt;Card -->
<g id="edge26" class="edge"><title>Card&#45;&gt;Card</title>
<path fill="none" stroke="#36723a" d="M1121.45,-1092.46C1136.5,-1087.45 1147,-1074.63 1147,-1054 1147,-1033.37 1136.5,-1020.55 1121.45,-1015.54"/>
<polygon fill="#36723a" stroke="#36723a" points="1121.33,-1092.49 1110.61,-1090.17 1116.44,-1093.53 1111.55,-1094.57 1111.55,-1094.57 1111.55,-1094.57 1116.44,-1093.53 1112.49,-1098.97 1121.33,-1092.49 1121.33,-1092.49"/>
<polygon fill="#36723a" stroke="#36723a" points="1121.33,-1015.51 1112.49,-1009.03 1116.44,-1014.47 1111.55,-1013.43 1111.55,-1013.43 1111.55,-1013.43 1116.44,-1014.47 1110.61,-1017.83 1121.33,-1015.51 1121.33,-1015.51"/>
<text text-anchor="middle" x="1167.21" y="-1049.8" font-family="Times,serif" font-size="14.00">parents</text>
</g>
<!-- Card&#45;&gt;CardAffiliation -->
<g id="edge19" class="edge"><title>Card&#45;&gt;CardAffiliation</title>
<path fill="none" stroke="#4eb887" d="M955.165,-1016.65C897.972,-987.359 823.905,-941.018 778,-880 753.326,-847.202 764.181,-830.516 750,-792 741.163,-767.999 730.462,-741.95 720.857,-719.449"/>
<ellipse fill="none" stroke="#4eb887" cx="958.839" cy="-1018.51" rx="4.00002" ry="4.00002"/>
<polygon fill="#4eb887" stroke="#4eb887" points="720.762,-719.228 720.951,-708.264 718.789,-714.634 716.816,-710.04 716.816,-710.04 716.816,-710.04 718.789,-714.634 712.681,-711.815 720.762,-719.228 720.762,-719.228"/>
</g>
<!-- CardParent -->
<g id="node11" class="node"><title>CardParent</title>
<path fill="none" stroke="black" d="M1358.49,-610C1358.49,-610 1467.51,-610 1467.51,-610 1473.51,-610 1479.51,-616 1479.51,-622 1479.51,-622 1479.51,-698 1479.51,-698 1479.51,-704 1473.51,-710 1467.51,-710 1467.51,-710 1358.49,-710 1358.49,-710 1352.49,-710 1346.49,-704 1346.49,-698 1346.49,-698 1346.49,-622 1346.49,-622 1346.49,-616 1352.49,-610 1358.49,-610"/>
<text text-anchor="middle" x="1413" y="-694.8" font-family="Times,serif" font-size="14.00">CardParent</text>
<polyline fill="none" stroke="black" points="1346.49,-688 1479.51,-688 "/>
<text text-anchor="start" x="1354.49" y="-672.8" font-family="Times,serif" font-size="14.00">id :integer</text>
<text text-anchor="start" x="1354.49" y="-658.8" font-family="Times,serif" font-size="14.00">card_id :integer</text>
<text text-anchor="start" x="1354.49" y="-644.8" font-family="Times,serif" font-size="14.00">parent_id :integer</text>
<text text-anchor="start" x="1354.49" y="-630.8" font-family="Times,serif" font-size="14.00">created_at :datetime</text>
<text text-anchor="start" x="1354.49" y="-616.8" font-family="Times,serif" font-size="14.00">updated_at :datetime</text>
</g>
<!-- Card&#45;&gt;CardParent -->
<g id="edge24" class="edge"><title>Card&#45;&gt;CardParent</title>
<path fill="none" stroke="#ce251d" d="M1119.06,-1023.01C1184.86,-995.145 1275.28,-947.707 1332,-880 1370.64,-833.872 1391.71,-767.605 1402.58,-720.064"/>
<ellipse fill="none" stroke="#ce251d" cx="1115.26" cy="-1024.6" rx="4.00002" ry="4.00002"/>
<polygon fill="#ce251d" stroke="#ce251d" points="1402.6,-719.983 1409.15,-711.186 1403.68,-715.1 1404.75,-710.218 1404.75,-710.218 1404.75,-710.218 1403.68,-715.1 1400.36,-709.249 1402.6,-719.983 1402.6,-719.983"/>
</g>
<!-- CardResponsable -->
<g id="node12" class="node"><title>CardResponsable</title>
<path fill="none" stroke="black" d="M995.881,-365C995.881,-365 1118.12,-365 1118.12,-365 1124.12,-365 1130.12,-371 1130.12,-377 1130.12,-377 1130.12,-453 1130.12,-453 1130.12,-459 1124.12,-465 1118.12,-465 1118.12,-465 995.881,-465 995.881,-465 989.881,-465 983.881,-459 983.881,-453 983.881,-453 983.881,-377 983.881,-377 983.881,-371 989.881,-365 995.881,-365"/>
<text text-anchor="middle" x="1057" y="-449.8" font-family="Times,serif" font-size="14.00">CardResponsable</text>
<polyline fill="none" stroke="black" points="983.881,-443 1130.12,-443 "/>
<text text-anchor="start" x="991.881" y="-427.8" font-family="Times,serif" font-size="14.00">id :integer</text>
<text text-anchor="start" x="991.881" y="-413.8" font-family="Times,serif" font-size="14.00">card_id :integer</text>
<text text-anchor="start" x="991.881" y="-399.8" font-family="Times,serif" font-size="14.00">responsable_id :integer</text>
<text text-anchor="start" x="991.881" y="-385.8" font-family="Times,serif" font-size="14.00">created_at :datetime</text>
<text text-anchor="start" x="991.881" y="-371.8" font-family="Times,serif" font-size="14.00">updated_at :datetime</text>
</g>
<!-- Card&#45;&gt;CardResponsable -->
<g id="edge15" class="edge"><title>Card&#45;&gt;CardResponsable</title>
<path fill="none" stroke="#7a79a7" d="M975.206,-890.9C945.754,-789.748 924.144,-657.953 961,-546 969.674,-519.652 985.967,-494.265 1002.7,-473.027"/>
<ellipse fill="none" stroke="#7a79a7" cx="976.389" cy="-894.906" rx="4.00001" ry="4.00001"/>
<polygon fill="#7a79a7" stroke="#7a79a7" points="1002.83,-472.87 1012.62,-467.929 1005.97,-468.984 1009.12,-465.097 1009.12,-465.097 1009.12,-465.097 1005.97,-468.984 1005.62,-462.266 1002.83,-472.87 1002.83,-472.87"/>
</g>
<!-- CardUser -->
<g id="node14" class="node"><title>CardUser</title>
<path fill="none" stroke="black" d="M520.946,-351C520.946,-351 647.054,-351 647.054,-351 653.054,-351 659.054,-357 659.054,-363 659.054,-363 659.054,-467 659.054,-467 659.054,-473 653.054,-479 647.054,-479 647.054,-479 520.946,-479 520.946,-479 514.946,-479 508.946,-473 508.946,-467 508.946,-467 508.946,-363 508.946,-363 508.946,-357 514.946,-351 520.946,-351"/>
<text text-anchor="middle" x="584" y="-463.8" font-family="Times,serif" font-size="14.00">CardUser</text>
<polyline fill="none" stroke="black" points="508.946,-457 659.054,-457 "/>
<text text-anchor="start" x="516.946" y="-441.8" font-family="Times,serif" font-size="14.00">id :integer</text>
<text text-anchor="start" x="516.946" y="-427.8" font-family="Times,serif" font-size="14.00">card_id :integer</text>
<text text-anchor="start" x="516.946" y="-413.8" font-family="Times,serif" font-size="14.00">user_id :integer</text>
<text text-anchor="start" x="516.946" y="-399.8" font-family="Times,serif" font-size="14.00">user_validated :boolean</text>
<text text-anchor="start" x="516.946" y="-385.8" font-family="Times,serif" font-size="14.00">card_validated :boolean</text>
<text text-anchor="start" x="516.946" y="-371.8" font-family="Times,serif" font-size="14.00">created_at :datetime</text>
<text text-anchor="start" x="516.946" y="-357.8" font-family="Times,serif" font-size="14.00">updated_at :datetime</text>
</g>
<!-- Card&#45;&gt;CardUser -->
<g id="edge23" class="edge"><title>Card&#45;&gt;CardUser</title>
<path fill="none" stroke="#dd72dc" d="M958.01,-938.634C944.844,-919.162 931.433,-899.07 919,-880 888.691,-833.511 873.806,-825.449 853,-774 810.445,-668.771 886.49,-588.893 792,-526 745.641,-495.144 717.202,-534.085 668,-508 657.401,-502.381 647.451,-494.877 638.367,-486.57"/>
<ellipse fill="none" stroke="#dd72dc" cx="960.411" cy="-942.181" rx="4.00002" ry="4.00002"/>
<polygon fill="#dd72dc" stroke="#dd72dc" points="638.15,-486.361 634.065,-476.184 634.547,-482.894 630.944,-479.426 630.944,-479.426 630.944,-479.426 634.547,-482.894 627.824,-482.669 638.15,-486.361 638.15,-486.361"/>
</g>
<!-- CardVerification -->
<g id="node15" class="node"><title>CardVerification</title>
<path fill="none" stroke="black" d="M689.495,-365C689.495,-365 798.505,-365 798.505,-365 804.505,-365 810.505,-371 810.505,-377 810.505,-377 810.505,-453 810.505,-453 810.505,-459 804.505,-465 798.505,-465 798.505,-465 689.495,-465 689.495,-465 683.495,-465 677.495,-459 677.495,-453 677.495,-453 677.495,-377 677.495,-377 677.495,-371 683.495,-365 689.495,-365"/>
<text text-anchor="middle" x="744" y="-449.8" font-family="Times,serif" font-size="14.00">CardVerification</text>
<polyline fill="none" stroke="black" points="677.495,-443 810.505,-443 "/>
<text text-anchor="start" x="685.495" y="-427.8" font-family="Times,serif" font-size="14.00">id :integer</text>
<text text-anchor="start" x="685.495" y="-413.8" font-family="Times,serif" font-size="14.00">card_id :integer</text>
<text text-anchor="start" x="685.495" y="-399.8" font-family="Times,serif" font-size="14.00">user_id :integer</text>
<text text-anchor="start" x="685.495" y="-385.8" font-family="Times,serif" font-size="14.00">created_at :datetime</text>
<text text-anchor="start" x="685.495" y="-371.8" font-family="Times,serif" font-size="14.00">updated_at :datetime</text>
</g>
<!-- Card&#45;&gt;CardVerification -->
<g id="edge17" class="edge"><title>Card&#45;&gt;CardVerification</title>
<path fill="none" stroke="#3302fc" d="M959.3,-904.341C955.682,-896.169 952.222,-888.02 949,-880 887.722,-727.487 934.825,-661.642 842,-526 834.669,-515.288 828.27,-517.087 819,-508 808.015,-497.231 797.059,-484.92 787.05,-472.882"/>
<ellipse fill="none" stroke="#3302fc" cx="961.028" cy="-908.2" rx="4.00002" ry="4.00002"/>
<polygon fill="#3302fc" stroke="#3302fc" points="786.954,-472.766 784.099,-462.178 783.786,-468.898 780.618,-465.03 780.618,-465.03 780.618,-465.03 783.786,-468.898 777.137,-467.881 786.954,-472.766 786.954,-472.766"/>
</g>
<!-- Responsable -->
<g id="node30" class="node"><title>Responsable</title>
<path fill="none" stroke="black" d="M982.495,-603C982.495,-603 1091.51,-603 1091.51,-603 1097.51,-603 1103.51,-609 1103.51,-615 1103.51,-615 1103.51,-705 1103.51,-705 1103.51,-711 1097.51,-717 1091.51,-717 1091.51,-717 982.495,-717 982.495,-717 976.495,-717 970.495,-711 970.495,-705 970.495,-705 970.495,-615 970.495,-615 970.495,-609 976.495,-603 982.495,-603"/>
<text text-anchor="middle" x="1037" y="-701.8" font-family="Times,serif" font-size="14.00">Responsable</text>
<polyline fill="none" stroke="black" points="970.495,-695 1103.51,-695 "/>
<text text-anchor="start" x="978.495" y="-679.8" font-family="Times,serif" font-size="14.00">id :integer</text>
<text text-anchor="start" x="978.495" y="-665.8" font-family="Times,serif" font-size="14.00">firstname :string</text>
<text text-anchor="start" x="978.495" y="-651.8" font-family="Times,serif" font-size="14.00">lastname :string</text>
<text text-anchor="start" x="978.495" y="-637.8" font-family="Times,serif" font-size="14.00">email :string</text>
<text text-anchor="start" x="978.495" y="-623.8" font-family="Times,serif" font-size="14.00">created_at :datetime</text>
<text text-anchor="start" x="978.495" y="-609.8" font-family="Times,serif" font-size="14.00">updated_at :datetime</text>
</g>
<!-- Card&#45;&gt;Responsable -->
<g id="edge16" class="edge"><title>Card&#45;&gt;Responsable</title>
<path fill="none" stroke="#8ffebf" d="M1037,-888.761C1037,-832.113 1037,-771.828 1037,-727.519"/>
<polygon fill="#8ffebf" stroke="#8ffebf" points="1037,-888.915 1032.5,-898.915 1037,-893.915 1037,-898.915 1037,-898.915 1037,-898.915 1037,-893.915 1041.5,-898.915 1037,-888.915 1037,-888.915"/>
<polygon fill="#8ffebf" stroke="#8ffebf" points="1037,-727.465 1041.5,-717.465 1037,-722.465 1037,-717.465 1037,-717.465 1037,-717.465 1037,-722.465 1032.5,-717.465 1037,-727.465 1037,-727.465"/>
</g>
<!-- Tag -->
<g id="node33" class="node"><title>Tag</title>
<path fill="none" stroke="black" d="M1586.49,-610C1586.49,-610 1695.51,-610 1695.51,-610 1701.51,-610 1707.51,-616 1707.51,-622 1707.51,-622 1707.51,-698 1707.51,-698 1707.51,-704 1701.51,-710 1695.51,-710 1695.51,-710 1586.49,-710 1586.49,-710 1580.49,-710 1574.49,-704 1574.49,-698 1574.49,-698 1574.49,-622 1574.49,-622 1574.49,-616 1580.49,-610 1586.49,-610"/>
<text text-anchor="middle" x="1641" y="-694.8" font-family="Times,serif" font-size="14.00">Tag</text>
<polyline fill="none" stroke="black" points="1574.49,-688 1707.51,-688 "/>
<text text-anchor="start" x="1582.49" y="-672.8" font-family="Times,serif" font-size="14.00">id :integer</text>
<text text-anchor="start" x="1582.49" y="-658.8" font-family="Times,serif" font-size="14.00">name :string</text>
<text text-anchor="start" x="1582.49" y="-644.8" font-family="Times,serif" font-size="14.00">popularity :integer</text>
<text text-anchor="start" x="1582.49" y="-630.8" font-family="Times,serif" font-size="14.00">created_at :datetime</text>
<text text-anchor="start" x="1582.49" y="-616.8" font-family="Times,serif" font-size="14.00">updated_at :datetime</text>
</g>
<!-- Card&#45;&gt;Tag -->
<g id="edge21" class="edge"><title>Card&#45;&gt;Tag</title>
<path fill="none" stroke="#1f59fc" d="M1120.57,-1015.33C1189.53,-982.914 1288.87,-933.085 1370,-880 1445.99,-830.281 1526.04,-763.566 1579.27,-716.885"/>
<polygon fill="#1f59fc" stroke="#1f59fc" points="1120.53,-1015.35 1109.57,-1015.52 1116,-1017.47 1111.47,-1019.59 1111.47,-1019.59 1111.47,-1019.59 1116,-1017.47 1113.38,-1023.67 1120.53,-1015.35 1120.53,-1015.35"/>
<polygon fill="#1f59fc" stroke="#1f59fc" points="1579.41,-716.755 1589.89,-713.525 1583.17,-713.451 1586.92,-710.148 1586.92,-710.148 1586.92,-710.148 1583.17,-713.451 1583.95,-706.77 1579.41,-716.755 1579.41,-716.755"/>
</g>
<!-- Tagging -->
<g id="node34" class="node"><title>Tagging</title>
<path fill="none" stroke="black" d="M1764.49,-365C1764.49,-365 1873.51,-365 1873.51,-365 1879.51,-365 1885.51,-371 1885.51,-377 1885.51,-377 1885.51,-453 1885.51,-453 1885.51,-459 1879.51,-465 1873.51,-465 1873.51,-465 1764.49,-465 1764.49,-465 1758.49,-465 1752.49,-459 1752.49,-453 1752.49,-453 1752.49,-377 1752.49,-377 1752.49,-371 1758.49,-365 1764.49,-365"/>
<text text-anchor="middle" x="1819" y="-449.8" font-family="Times,serif" font-size="14.00">Tagging</text>
<polyline fill="none" stroke="black" points="1752.49,-443 1885.51,-443 "/>
<text text-anchor="start" x="1760.49" y="-427.8" font-family="Times,serif" font-size="14.00">id :integer</text>
<text text-anchor="start" x="1760.49" y="-413.8" font-family="Times,serif" font-size="14.00">card_id :integer</text>
<text text-anchor="start" x="1760.49" y="-399.8" font-family="Times,serif" font-size="14.00">tag_id :integer</text>
<text text-anchor="start" x="1760.49" y="-385.8" font-family="Times,serif" font-size="14.00">created_at :datetime</text>
<text text-anchor="start" x="1760.49" y="-371.8" font-family="Times,serif" font-size="14.00">updated_at :datetime</text>
</g>
<!-- Card&#45;&gt;Tagging -->
<g id="edge20" class="edge"><title>Card&#45;&gt;Tagging</title>
<path fill="none" stroke="#a2b007" d="M1117.63,-990.108C1177.6,-938.672 1256.19,-860.507 1299,-774 1344.57,-681.928 1261.8,-615.987 1337,-546 1353.58,-530.567 1722.98,-518.598 1743,-508 1758.61,-499.736 1772.26,-486.771 1783.51,-473.153"/>
<ellipse fill="none" stroke="#a2b007" cx="1114.56" cy="-992.719" rx="4.00002" ry="4.00002"/>
<polygon fill="#a2b007" stroke="#a2b007" points="1783.67,-472.948 1793.39,-467.874 1786.76,-469.019 1789.86,-465.09 1789.86,-465.09 1789.86,-465.09 1786.76,-469.019 1786.32,-462.307 1783.67,-472.948 1783.67,-472.948"/>
</g>
<!-- User -->
<g id="node36" class="node"><title>User</title>
<path fill="none" stroke="black" d="M1133.94,-547C1133.94,-547 1260.06,-547 1260.06,-547 1266.06,-547 1272.06,-553 1272.06,-559 1272.06,-559 1272.06,-761 1272.06,-761 1272.06,-767 1266.06,-773 1260.06,-773 1260.06,-773 1133.94,-773 1133.94,-773 1127.94,-773 1121.94,-767 1121.94,-761 1121.94,-761 1121.94,-559 1121.94,-559 1121.94,-553 1127.94,-547 1133.94,-547"/>
<text text-anchor="middle" x="1197" y="-757.8" font-family="Times,serif" font-size="14.00">User</text>
<polyline fill="none" stroke="black" points="1121.94,-751 1272.06,-751 "/>
<text text-anchor="start" x="1129.94" y="-735.8" font-family="Times,serif" font-size="14.00">id :integer</text>
<text text-anchor="start" x="1129.94" y="-721.8" font-family="Times,serif" font-size="14.00">email :string</text>
<text text-anchor="start" x="1129.94" y="-707.8" font-family="Times,serif" font-size="14.00">gravatar_email :string</text>
<text text-anchor="start" x="1129.94" y="-693.8" font-family="Times,serif" font-size="14.00">password_digest :string</text>
<text text-anchor="start" x="1129.94" y="-679.8" font-family="Times,serif" font-size="14.00">remember_token :string</text>
<text text-anchor="start" x="1129.94" y="-665.8" font-family="Times,serif" font-size="14.00">user_type_id :integer</text>
<text text-anchor="start" x="1129.94" y="-651.8" font-family="Times,serif" font-size="14.00">uid :string</text>
<text text-anchor="start" x="1129.94" y="-637.8" font-family="Times,serif" font-size="14.00">created_at :datetime</text>
<text text-anchor="start" x="1129.94" y="-623.8" font-family="Times,serif" font-size="14.00">updated_at :datetime</text>
<text text-anchor="start" x="1129.94" y="-609.8" font-family="Times,serif" font-size="14.00">reset_token :string</text>
<text text-anchor="start" x="1129.94" y="-595.8" font-family="Times,serif" font-size="14.00">reset_sent_at :datetime</text>
<text text-anchor="start" x="1129.94" y="-581.8" font-family="Times,serif" font-size="14.00">firstname :string</text>
<text text-anchor="start" x="1129.94" y="-567.8" font-family="Times,serif" font-size="14.00">lastname :string</text>
<text text-anchor="start" x="1129.94" y="-553.8" font-family="Times,serif" font-size="14.00">confirmed :boolean</text>
</g>
<!-- Card&#45;&gt;User -->
<g id="edge18" class="edge"><title>Card&#45;&gt;User</title>
<path fill="none" stroke="#f798e2" d="M1097.05,-889.543C1111.46,-853.779 1126.79,-816.528 1141.01,-782.733"/>
<polygon fill="#f798e2" stroke="#f798e2" points="1097.01,-889.637 1089.11,-897.236 1095.15,-894.276 1093.28,-898.915 1093.28,-898.915 1093.28,-898.915 1095.15,-894.276 1097.46,-900.594 1097.01,-889.637 1097.01,-889.637"/>
<polygon fill="#f798e2" stroke="#f798e2" points="1141.11,-782.511 1149.14,-775.047 1143.05,-777.904 1144.99,-773.297 1144.99,-773.297 1144.99,-773.297 1143.05,-777.904 1140.85,-771.548 1141.11,-782.511 1141.11,-782.511"/>
</g>
<!-- VerificatorComment -->
<g id="node38" class="node"><title>VerificatorComment</title>
<path fill="none" stroke="black" d="M369.495,-358C369.495,-358 478.505,-358 478.505,-358 484.505,-358 490.505,-364 490.505,-370 490.505,-370 490.505,-460 490.505,-460 490.505,-466 484.505,-472 478.505,-472 478.505,-472 369.495,-472 369.495,-472 363.495,-472 357.495,-466 357.495,-460 357.495,-460 357.495,-370 357.495,-370 357.495,-364 363.495,-358 369.495,-358"/>
<text text-anchor="middle" x="424" y="-456.8" font-family="Times,serif" font-size="14.00">VerificatorComment</text>
<polyline fill="none" stroke="black" points="357.495,-450 490.505,-450 "/>
<text text-anchor="start" x="365.495" y="-434.8" font-family="Times,serif" font-size="14.00">id :integer</text>
<text text-anchor="start" x="365.495" y="-420.8" font-family="Times,serif" font-size="14.00">content :text</text>
<text text-anchor="start" x="365.495" y="-406.8" font-family="Times,serif" font-size="14.00">user_id :integer</text>
<text text-anchor="start" x="365.495" y="-392.8" font-family="Times,serif" font-size="14.00">card_id :integer</text>
<text text-anchor="start" x="365.495" y="-378.8" font-family="Times,serif" font-size="14.00">created_at :datetime</text>
<text text-anchor="start" x="365.495" y="-364.8" font-family="Times,serif" font-size="14.00">updated_at :datetime</text>
</g>
<!-- Card&#45;&gt;VerificatorComment -->
<g id="edge22" class="edge"><title>Card&#45;&gt;VerificatorComment</title>
<path fill="none" stroke="#14fc27" d="M956.271,-987.981C922.619,-957.818 885.141,-919.848 858,-880 829.285,-837.842 828.583,-822.88 814,-774 784.52,-675.184 845.613,-617.18 771,-546 682.999,-462.048 606.156,-567.356 500,-508 487.365,-500.935 475.965,-490.873 466.068,-479.976"/>
<ellipse fill="none" stroke="#14fc27" cx="959.516" cy="-990.864" rx="4.00002" ry="4.00002"/>
<polygon fill="#14fc27" stroke="#14fc27" points="465.996,-479.893 462.864,-469.383 462.727,-476.109 459.459,-472.325 459.459,-472.325 459.459,-472.325 462.727,-476.109 456.053,-475.267 465.996,-479.893 465.996,-479.893"/>
</g>
<!-- CardType -->
<g id="node13" class="node"><title>CardType</title>
<path fill="none" stroke="black" d="M999.495,-1342C999.495,-1342 1108.51,-1342 1108.51,-1342 1114.51,-1342 1120.51,-1348 1120.51,-1354 1120.51,-1354 1120.51,-1416 1120.51,-1416 1120.51,-1422 1114.51,-1428 1108.51,-1428 1108.51,-1428 999.495,-1428 999.495,-1428 993.495,-1428 987.495,-1422 987.495,-1416 987.495,-1416 987.495,-1354 987.495,-1354 987.495,-1348 993.495,-1342 999.495,-1342"/>
<text text-anchor="middle" x="1054" y="-1412.8" font-family="Times,serif" font-size="14.00">CardType</text>
<polyline fill="none" stroke="black" points="987.495,-1406 1120.51,-1406 "/>
<text text-anchor="start" x="995.495" y="-1390.8" font-family="Times,serif" font-size="14.00">id :integer</text>
<text text-anchor="start" x="995.495" y="-1376.8" font-family="Times,serif" font-size="14.00">name :string</text>
<text text-anchor="start" x="995.495" y="-1362.8" font-family="Times,serif" font-size="14.00">created_at :datetime</text>
<text text-anchor="start" x="995.495" y="-1348.8" font-family="Times,serif" font-size="14.00">updated_at :datetime</text>
</g>
<!-- CardType&#45;&gt;Card -->
<g id="edge31" class="edge"><title>CardType&#45;&gt;Card</title>
<path fill="none" stroke="#3142a3" d="M1051.4,-1333.75C1049.8,-1302.72 1047.64,-1260.98 1045.49,-1219.25"/>
<ellipse fill="none" stroke="#3142a3" cx="1051.62" cy="-1338" rx="4" ry="4"/>
<polygon fill="#3142a3" stroke="#3142a3" points="1045.49,-1219.21 1049.46,-1208.99 1045.23,-1214.22 1044.97,-1209.22 1044.97,-1209.22 1044.97,-1209.22 1045.23,-1214.22 1040.47,-1209.46 1045.49,-1219.21 1045.49,-1219.21"/>
</g>
<!-- Connection -->
<g id="node16" class="node"><title>Connection</title>
<path fill="none" stroke="black" d="M1160.49,-365C1160.49,-365 1269.51,-365 1269.51,-365 1275.51,-365 1281.51,-371 1281.51,-377 1281.51,-377 1281.51,-453 1281.51,-453 1281.51,-459 1275.51,-465 1269.51,-465 1269.51,-465 1160.49,-465 1160.49,-465 1154.49,-465 1148.49,-459 1148.49,-453 1148.49,-453 1148.49,-377 1148.49,-377 1148.49,-371 1154.49,-365 1160.49,-365"/>
<text text-anchor="middle" x="1215" y="-449.8" font-family="Times,serif" font-size="14.00">Connection</text>
<polyline fill="none" stroke="black" points="1148.49,-443 1281.51,-443 "/>
<text text-anchor="start" x="1156.49" y="-427.8" font-family="Times,serif" font-size="14.00">id :integer</text>
<text text-anchor="start" x="1156.49" y="-413.8" font-family="Times,serif" font-size="14.00">ip :string</text>
<text text-anchor="start" x="1156.49" y="-399.8" font-family="Times,serif" font-size="14.00">user_id :integer</text>
<text text-anchor="start" x="1156.49" y="-385.8" font-family="Times,serif" font-size="14.00">created_at :datetime</text>
<text text-anchor="start" x="1156.49" y="-371.8" font-family="Times,serif" font-size="14.00">updated_at :datetime</text>
</g>
<!-- Disponibility -->
<g id="node17" class="node"><title>Disponibility</title>
<path fill="none" stroke="black" d="M2068.49,-617C2068.49,-617 2177.51,-617 2177.51,-617 2183.51,-617 2189.51,-623 2189.51,-629 2189.51,-629 2189.51,-691 2189.51,-691 2189.51,-697 2183.51,-703 2177.51,-703 2177.51,-703 2068.49,-703 2068.49,-703 2062.49,-703 2056.49,-697 2056.49,-691 2056.49,-691 2056.49,-629 2056.49,-629 2056.49,-623 2062.49,-617 2068.49,-617"/>
<text text-anchor="middle" x="2123" y="-687.8" font-family="Times,serif" font-size="14.00">Disponibility</text>
<polyline fill="none" stroke="black" points="2056.49,-681 2189.51,-681 "/>
<text text-anchor="start" x="2064.49" y="-665.8" font-family="Times,serif" font-size="14.00">id :integer</text>
<text text-anchor="start" x="2064.49" y="-651.8" font-family="Times,serif" font-size="14.00">name :string</text>
<text text-anchor="start" x="2064.49" y="-637.8" font-family="Times,serif" font-size="14.00">created_at :datetime</text>
<text text-anchor="start" x="2064.49" y="-623.8" font-family="Times,serif" font-size="14.00">updated_at :datetime</text>
</g>
<!-- Orator -->
<g id="node21" class="node"><title>Orator</title>
<path fill="none" stroke="black" d="M2106.49,-330C2106.49,-330 2215.51,-330 2215.51,-330 2221.51,-330 2227.51,-336 2227.51,-342 2227.51,-342 2227.51,-488 2227.51,-488 2227.51,-494 2221.51,-500 2215.51,-500 2215.51,-500 2106.49,-500 2106.49,-500 2100.49,-500 2094.49,-494 2094.49,-488 2094.49,-488 2094.49,-342 2094.49,-342 2094.49,-336 2100.49,-330 2106.49,-330"/>
<text text-anchor="middle" x="2161" y="-484.8" font-family="Times,serif" font-size="14.00">Orator</text>
<polyline fill="none" stroke="black" points="2094.49,-478 2227.51,-478 "/>
<text text-anchor="start" x="2102.49" y="-462.8" font-family="Times,serif" font-size="14.00">id :integer</text>
<text text-anchor="start" x="2102.49" y="-448.8" font-family="Times,serif" font-size="14.00">user_id :integer</text>
<text text-anchor="start" x="2102.49" y="-434.8" font-family="Times,serif" font-size="14.00">street :string</text>
<text text-anchor="start" x="2102.49" y="-420.8" font-family="Times,serif" font-size="14.00">location_id :integer</text>
<text text-anchor="start" x="2102.49" y="-406.8" font-family="Times,serif" font-size="14.00">phone :string</text>
<text text-anchor="start" x="2102.49" y="-392.8" font-family="Times,serif" font-size="14.00">disponibility :string</text>
<text text-anchor="start" x="2102.49" y="-378.8" font-family="Times,serif" font-size="14.00">created_at :datetime</text>
<text text-anchor="start" x="2102.49" y="-364.8" font-family="Times,serif" font-size="14.00">updated_at :datetime</text>
<text text-anchor="start" x="2102.49" y="-350.8" font-family="Times,serif" font-size="14.00">description :text</text>
<text text-anchor="start" x="2102.49" y="-336.8" font-family="Times,serif" font-size="14.00">disabled :boolean</text>
</g>
<!-- Disponibility&#45;&gt;Orator -->
<g id="edge37" class="edge"><title>Disponibility&#45;&gt;Orator</title>
<path fill="none" stroke="#564064" d="M2131.17,-606.773C2135.57,-578.593 2141.15,-542.947 2146.28,-510.115"/>
<polygon fill="#564064" stroke="#564064" points="2131.12,-607.07 2125.13,-616.255 2130.35,-612.01 2129.58,-616.95 2129.58,-616.95 2129.58,-616.95 2130.35,-612.01 2134.02,-617.645 2131.12,-607.07 2131.12,-607.07"/>
<polygon fill="#564064" stroke="#564064" points="2146.31,-509.908 2152.31,-500.723 2147.09,-504.968 2147.86,-500.028 2147.86,-500.028 2147.86,-500.028 2147.09,-504.968 2143.41,-499.333 2146.31,-509.908 2146.31,-509.908"/>
</g>
<!-- OratorDisponibility -->
<g id="node22" class="node"><title>OratorDisponibility</title>
<path fill="none" stroke="black" d="M2051.53,-162C2051.53,-162 2178.47,-162 2178.47,-162 2184.47,-162 2190.47,-168 2190.47,-174 2190.47,-174 2190.47,-250 2190.47,-250 2190.47,-256 2184.47,-262 2178.47,-262 2178.47,-262 2051.53,-262 2051.53,-262 2045.53,-262 2039.53,-256 2039.53,-250 2039.53,-250 2039.53,-174 2039.53,-174 2039.53,-168 2045.53,-162 2051.53,-162"/>
<text text-anchor="middle" x="2115" y="-246.8" font-family="Times,serif" font-size="14.00">OratorDisponibility</text>
<polyline fill="none" stroke="black" points="2039.53,-240 2190.47,-240 "/>
<text text-anchor="start" x="2047.53" y="-224.8" font-family="Times,serif" font-size="14.00">id :integer</text>
<text text-anchor="start" x="2047.53" y="-210.8" font-family="Times,serif" font-size="14.00">orator_id :integer</text>
<text text-anchor="start" x="2047.53" y="-196.8" font-family="Times,serif" font-size="14.00">disponibility_id :integer</text>
<text text-anchor="start" x="2047.53" y="-182.8" font-family="Times,serif" font-size="14.00">created_at :datetime</text>
<text text-anchor="start" x="2047.53" y="-168.8" font-family="Times,serif" font-size="14.00">updated_at :datetime</text>
</g>
<!-- Disponibility&#45;&gt;OratorDisponibility -->
<g id="edge36" class="edge"><title>Disponibility&#45;&gt;OratorDisponibility</title>
<path fill="none" stroke="#4d5e3f" d="M2107.09,-608.92C2098.68,-579.801 2089.24,-542.208 2085,-508 2074.84,-425.961 2073.93,-403.922 2085,-322 2087.23,-305.49 2091.28,-287.945 2095.7,-271.866"/>
<ellipse fill="none" stroke="#4d5e3f" cx="2108.31" cy="-613.06" rx="4.00001" ry="4.00001"/>
<polygon fill="#4d5e3f" stroke="#4d5e3f" points="2095.75,-271.686 2102.81,-263.297 2097.12,-266.876 2098.48,-262.067 2098.48,-262.067 2098.48,-262.067 2097.12,-266.876 2094.15,-260.837 2095.75,-271.686 2095.75,-271.686"/>
</g>
<!-- Document -->
<g id="node18" class="node"><title>Document</title>
<path fill="none" stroke="black" d="M1900.49,-141C1900.49,-141 2009.51,-141 2009.51,-141 2015.51,-141 2021.51,-147 2021.51,-153 2021.51,-153 2021.51,-271 2021.51,-271 2021.51,-277 2015.51,-283 2009.51,-283 2009.51,-283 1900.49,-283 1900.49,-283 1894.49,-283 1888.49,-277 1888.49,-271 1888.49,-271 1888.49,-153 1888.49,-153 1888.49,-147 1894.49,-141 1900.49,-141"/>
<text text-anchor="middle" x="1955" y="-267.8" font-family="Times,serif" font-size="14.00">Document</text>
<polyline fill="none" stroke="black" points="1888.49,-261 2021.51,-261 "/>
<text text-anchor="start" x="1896.49" y="-245.8" font-family="Times,serif" font-size="14.00">id :integer</text>
<text text-anchor="start" x="1896.49" y="-231.8" font-family="Times,serif" font-size="14.00">name :string</text>
<text text-anchor="start" x="1896.49" y="-217.8" font-family="Times,serif" font-size="14.00">file :string</text>
<text text-anchor="start" x="1896.49" y="-203.8" font-family="Times,serif" font-size="14.00">created_at :datetime</text>
<text text-anchor="start" x="1896.49" y="-189.8" font-family="Times,serif" font-size="14.00">updated_at :datetime</text>
<text text-anchor="start" x="1896.49" y="-175.8" font-family="Times,serif" font-size="14.00">subject_id :integer</text>
<text text-anchor="start" x="1896.49" y="-161.8" font-family="Times,serif" font-size="14.00">size :integer</text>
<text text-anchor="start" x="1896.49" y="-147.8" font-family="Times,serif" font-size="14.00">extension :string</text>
</g>
<!-- Element -->
<g id="node19" class="node"><title>Element</title>
<path fill="none" stroke="black" d="M229.495,-793C229.495,-793 338.505,-793 338.505,-793 344.505,-793 350.505,-799 350.505,-805 350.505,-805 350.505,-867 350.505,-867 350.505,-873 344.505,-879 338.505,-879 338.505,-879 229.495,-879 229.495,-879 223.495,-879 217.495,-873 217.495,-867 217.495,-867 217.495,-805 217.495,-805 217.495,-799 223.495,-793 229.495,-793"/>
<text text-anchor="middle" x="284" y="-863.8" font-family="Times,serif" font-size="14.00">Element</text>
<polyline fill="none" stroke="black" points="217.495,-857 350.505,-857 "/>
<text text-anchor="start" x="225.495" y="-841.8" font-family="Times,serif" font-size="14.00">id :integer</text>
<text text-anchor="start" x="225.495" y="-827.8" font-family="Times,serif" font-size="14.00">name :string</text>
<text text-anchor="start" x="225.495" y="-813.8" font-family="Times,serif" font-size="14.00">created_at :datetime</text>
<text text-anchor="start" x="225.495" y="-799.8" font-family="Times,serif" font-size="14.00">updated_at :datetime</text>
</g>
<!-- Element&#45;&gt;Ownership -->
<g id="edge40" class="edge"><title>Element&#45;&gt;Ownership</title>
<path fill="none" stroke="#287285" d="M305.289,-785.264C306.368,-781.499 307.295,-777.718 308,-774 326.881,-674.441 352.894,-636.846 308,-546 298.895,-527.575 265.911,-500.796 231.387,-476.326"/>
<ellipse fill="none" stroke="#287285" cx="304.079" cy="-789.128" rx="4.00001" ry="4.00001"/>
<polygon fill="#287285" stroke="#287285" points="231.253,-476.232 225.65,-466.806 227.16,-473.361 223.066,-470.49 223.066,-470.49 223.066,-470.49 227.16,-473.361 220.482,-474.175 231.253,-476.232 231.253,-476.232"/>
</g>
<!-- Orator&#45;&gt;OratorDisponibility -->
<g id="edge45" class="edge"><title>Orator&#45;&gt;OratorDisponibility</title>
<path fill="none" stroke="#634141" d="M2139.95,-322.024C2136.07,-305.051 2132.11,-287.751 2128.52,-272.081"/>
<ellipse fill="none" stroke="#634141" cx="2140.87" cy="-326.023" rx="4.00001" ry="4.00001"/>
<polygon fill="#634141" stroke="#634141" points="2128.45,-271.786 2130.61,-261.034 2127.34,-266.912 2126.22,-262.038 2126.22,-262.038 2126.22,-262.038 2127.34,-266.912 2121.84,-263.041 2128.45,-271.786 2128.45,-271.786"/>
</g>
<!-- OratorTheme -->
<g id="node23" class="node"><title>OratorTheme</title>
<path fill="none" stroke="black" d="M2163.49,-1C2163.49,-1 2272.51,-1 2272.51,-1 2278.51,-1 2284.51,-7 2284.51,-13 2284.51,-13 2284.51,-89 2284.51,-89 2284.51,-95 2278.51,-101 2272.51,-101 2272.51,-101 2163.49,-101 2163.49,-101 2157.49,-101 2151.49,-95 2151.49,-89 2151.49,-89 2151.49,-13 2151.49,-13 2151.49,-7 2157.49,-1 2163.49,-1"/>
<text text-anchor="middle" x="2218" y="-85.8" font-family="Times,serif" font-size="14.00">OratorTheme</text>
<polyline fill="none" stroke="black" points="2151.49,-79 2284.51,-79 "/>
<text text-anchor="start" x="2159.49" y="-63.8" font-family="Times,serif" font-size="14.00">id :integer</text>
<text text-anchor="start" x="2159.49" y="-49.8" font-family="Times,serif" font-size="14.00">orator_id :integer</text>
<text text-anchor="start" x="2159.49" y="-35.8" font-family="Times,serif" font-size="14.00">theme_id :integer</text>
<text text-anchor="start" x="2159.49" y="-21.8" font-family="Times,serif" font-size="14.00">created_at :datetime</text>
<text text-anchor="start" x="2159.49" y="-7.8" font-family="Times,serif" font-size="14.00">updated_at :datetime</text>
</g>
<!-- Orator&#45;&gt;OratorTheme -->
<g id="edge43" class="edge"><title>Orator&#45;&gt;OratorTheme</title>
<path fill="none" stroke="#4feb4c" d="M2190.36,-322.112C2193.68,-309.405 2196.7,-296.446 2199,-284 2209.76,-225.877 2214.43,-158.436 2216.45,-111.299"/>
<ellipse fill="none" stroke="#4feb4c" cx="2189.28" cy="-326.12" rx="4.00001" ry="4.00001"/>
<polygon fill="#4feb4c" stroke="#4feb4c" points="2216.45,-111.254 2221.35,-101.443 2216.65,-106.258 2216.85,-101.262 2216.85,-101.262 2216.85,-101.262 2216.65,-106.258 2212.36,-101.081 2216.45,-111.254 2216.45,-111.254"/>
</g>
<!-- Orator&#45;&gt;Theme -->
<g id="edge44" class="edge"><title>Orator&#45;&gt;Theme</title>
<path fill="none" stroke="#c8c6b8" d="M2085.41,-363.076C2050.37,-341.472 2007.39,-317.706 1966,-302 1929.08,-287.991 1914.01,-302.269 1879,-284 1870.95,-279.796 1863.14,-274.475 1855.8,-268.643"/>
<polygon fill="#c8c6b8" stroke="#c8c6b8" points="2085.66,-363.228 2091.76,-372.335 2089.9,-365.872 2094.14,-368.516 2094.14,-368.516 2094.14,-368.516 2089.9,-365.872 2096.52,-364.696 2085.66,-363.228 2085.66,-363.228"/>
<polygon fill="#c8c6b8" stroke="#c8c6b8" points="1855.7,-268.561 1850.92,-258.692 1851.87,-265.352 1848.03,-262.144 1848.03,-262.144 1848.03,-262.144 1851.87,-265.352 1845.15,-265.595 1855.7,-268.561 1855.7,-268.561"/>
</g>
<!-- Ownership&#45;&gt;AccessToken -->
<g id="edge50" class="edge"><title>Ownership&#45;&gt;AccessToken</title>
<path fill="none" stroke="#2370aa" d="M212.418,-316.235C220.597,-305.49 228.808,-294.704 236.675,-284.368"/>
<ellipse fill="none" stroke="#2370aa" cx="209.76" cy="-319.727" rx="4.00002" ry="4.00002"/>
<polygon fill="#2370aa" stroke="#2370aa" points="236.848,-284.141 246.485,-278.91 239.876,-280.162 242.905,-276.184 242.905,-276.184 242.905,-276.184 239.876,-280.162 239.324,-273.458 236.848,-284.141 236.848,-284.141"/>
</g>
<!-- Ownership&#45;&gt;OwnershipAction -->
<g id="edge49" class="edge"><title>Ownership&#45;&gt;OwnershipAction</title>
<path fill="none" stroke="#18d548" d="M136.515,-314.529C136.3,-300.116 136.085,-285.675 135.886,-272.392"/>
<ellipse fill="none" stroke="#18d548" cx="136.581" cy="-318.91" rx="4" ry="4"/>
<polygon fill="#18d548" stroke="#18d548" points="135.881,-272.008 140.231,-261.942 135.806,-267.009 135.731,-262.009 135.731,-262.009 135.731,-262.009 135.806,-267.009 131.232,-262.077 135.881,-272.008 135.881,-272.008"/>
</g>
<!-- OwnershipType -->
<g id="node26" class="node"><title>OwnershipType</title>
<path fill="none" stroke="black" d="M27.4946,-1229C27.4946,-1229 136.505,-1229 136.505,-1229 142.505,-1229 148.505,-1235 148.505,-1241 148.505,-1241 148.505,-1303 148.505,-1303 148.505,-1309 142.505,-1315 136.505,-1315 136.505,-1315 27.4946,-1315 27.4946,-1315 21.4946,-1315 15.4946,-1309 15.4946,-1303 15.4946,-1303 15.4946,-1241 15.4946,-1241 15.4946,-1235 21.4946,-1229 27.4946,-1229"/>
<text text-anchor="middle" x="82" y="-1299.8" font-family="Times,serif" font-size="14.00">OwnershipType</text>
<polyline fill="none" stroke="black" points="15.4946,-1293 148.505,-1293 "/>
<text text-anchor="start" x="23.4946" y="-1277.8" font-family="Times,serif" font-size="14.00">id :integer</text>
<text text-anchor="start" x="23.4946" y="-1263.8" font-family="Times,serif" font-size="14.00">name :string</text>
<text text-anchor="start" x="23.4946" y="-1249.8" font-family="Times,serif" font-size="14.00">created_at :datetime</text>
<text text-anchor="start" x="23.4946" y="-1235.8" font-family="Times,serif" font-size="14.00">updated_at :datetime</text>
</g>
<!-- OwnershipType&#45;&gt;Ownership -->
<g id="edge53" class="edge"><title>OwnershipType&#45;&gt;Ownership</title>
<path fill="none" stroke="#d23207" d="M83.6187,-1220.59C87.7496,-1100.25 100.084,-786.78 124,-526 124.264,-523.124 124.545,-520.208 124.84,-517.266"/>
<ellipse fill="none" stroke="#d23207" cx="83.4715" cy="-1224.92" rx="4" ry="4"/>
<polygon fill="#d23207" stroke="#d23207" points="124.854,-517.129 130.369,-507.651 125.374,-512.156 125.894,-507.183 125.894,-507.183 125.894,-507.183 125.374,-512.156 121.418,-506.715 124.854,-517.129 124.854,-517.129"/>
</g>
<!-- Page -->
<g id="node27" class="node"><title>Page</title>
<path fill="none" stroke="black" d="M2486.49,-1335C2486.49,-1335 2595.51,-1335 2595.51,-1335 2601.51,-1335 2607.51,-1341 2607.51,-1347 2607.51,-1347 2607.51,-1423 2607.51,-1423 2607.51,-1429 2601.51,-1435 2595.51,-1435 2595.51,-1435 2486.49,-1435 2486.49,-1435 2480.49,-1435 2474.49,-1429 2474.49,-1423 2474.49,-1423 2474.49,-1347 2474.49,-1347 2474.49,-1341 2480.49,-1335 2486.49,-1335"/>
<text text-anchor="middle" x="2541" y="-1419.8" font-family="Times,serif" font-size="14.00">Page</text>
<polyline fill="none" stroke="black" points="2474.49,-1413 2607.51,-1413 "/>
<text text-anchor="start" x="2482.49" y="-1397.8" font-family="Times,serif" font-size="14.00">id :integer</text>
<text text-anchor="start" x="2482.49" y="-1383.8" font-family="Times,serif" font-size="14.00">name :string</text>
<text text-anchor="start" x="2482.49" y="-1369.8" font-family="Times,serif" font-size="14.00">content :text</text>
<text text-anchor="start" x="2482.49" y="-1355.8" font-family="Times,serif" font-size="14.00">created_at :datetime</text>
<text text-anchor="start" x="2482.49" y="-1341.8" font-family="Times,serif" font-size="14.00">updated_at :datetime</text>
</g>
<!-- Parent -->
<g id="node28" class="node"><title>Parent</title>
<path fill="none" stroke="black" d="M1462.49,-365C1462.49,-365 1571.51,-365 1571.51,-365 1577.51,-365 1583.51,-371 1583.51,-377 1583.51,-377 1583.51,-453 1583.51,-453 1583.51,-459 1577.51,-465 1571.51,-465 1571.51,-465 1462.49,-465 1462.49,-465 1456.49,-465 1450.49,-459 1450.49,-453 1450.49,-453 1450.49,-377 1450.49,-377 1450.49,-371 1456.49,-365 1462.49,-365"/>
<text text-anchor="middle" x="1517" y="-449.8" font-family="Times,serif" font-size="14.00">Parent</text>
<polyline fill="none" stroke="black" points="1450.49,-443 1583.51,-443 "/>
<text text-anchor="start" x="1458.49" y="-427.8" font-family="Times,serif" font-size="14.00">id :integer</text>
<text text-anchor="start" x="1458.49" y="-413.8" font-family="Times,serif" font-size="14.00">user_id :integer</text>
<text text-anchor="start" x="1458.49" y="-399.8" font-family="Times,serif" font-size="14.00">parent_id :integer</text>
<text text-anchor="start" x="1458.49" y="-385.8" font-family="Times,serif" font-size="14.00">created_at :datetime</text>
<text text-anchor="start" x="1458.49" y="-371.8" font-family="Times,serif" font-size="14.00">updated_at :datetime</text>
</g>
<!-- Permission -->
<g id="node29" class="node"><title>Permission</title>
<polygon fill="none" stroke="black" points="2625.89,-1363 2625.89,-1407 2704.11,-1407 2704.11,-1363 2625.89,-1363"/>
<text text-anchor="middle" x="2665" y="-1391.8" font-family="Times,serif" font-size="14.00">Permission</text>
<polyline fill="none" stroke="black" points="2625.89,-1385 2704.11,-1385 "/>
<text text-anchor="middle" x="2665" y="-1369.8" font-family="Times,serif" font-size="14.00"> </text>
</g>
<!-- Responsable&#45;&gt;CardResponsable -->
<g id="edge58" class="edge"><title>Responsable&#45;&gt;CardResponsable</title>
<path fill="none" stroke="#4d4e97" d="M1042.29,-594.723C1045.33,-557.782 1049.12,-511.695 1052.1,-475.575"/>
<ellipse fill="none" stroke="#4d4e97" cx="1041.94" cy="-598.959" rx="4" ry="4"/>
<polygon fill="#4d4e97" stroke="#4d4e97" points="1052.13,-475.154 1057.44,-465.557 1052.54,-470.171 1052.95,-465.188 1052.95,-465.188 1052.95,-465.188 1052.54,-470.171 1048.47,-464.819 1052.13,-475.154 1052.13,-475.154"/>
</g>
<!-- Subject -->
<g id="node31" class="node"><title>Subject</title>
<path fill="none" stroke="black" d="M1613.49,-358C1613.49,-358 1722.51,-358 1722.51,-358 1728.51,-358 1734.51,-364 1734.51,-370 1734.51,-370 1734.51,-460 1734.51,-460 1734.51,-466 1728.51,-472 1722.51,-472 1722.51,-472 1613.49,-472 1613.49,-472 1607.49,-472 1601.49,-466 1601.49,-460 1601.49,-460 1601.49,-370 1601.49,-370 1601.49,-364 1607.49,-358 1613.49,-358"/>
<text text-anchor="middle" x="1668" y="-456.8" font-family="Times,serif" font-size="14.00">Subject</text>
<polyline fill="none" stroke="black" points="1601.49,-450 1734.51,-450 "/>
<text text-anchor="start" x="1609.49" y="-434.8" font-family="Times,serif" font-size="14.00">id :integer</text>
<text text-anchor="start" x="1609.49" y="-420.8" font-family="Times,serif" font-size="14.00">name :string</text>
<text text-anchor="start" x="1609.49" y="-406.8" font-family="Times,serif" font-size="14.00">description :text</text>
<text text-anchor="start" x="1609.49" y="-392.8" font-family="Times,serif" font-size="14.00">created_at :datetime</text>
<text text-anchor="start" x="1609.49" y="-378.8" font-family="Times,serif" font-size="14.00">updated_at :datetime</text>
<text text-anchor="start" x="1609.49" y="-364.8" font-family="Times,serif" font-size="14.00">user_id :integer</text>
</g>
<!-- Subject&#45;&gt;Document -->
<g id="edge60" class="edge"><title>Subject&#45;&gt;Document</title>
<path fill="none" stroke="#61afa8" d="M1710.12,-351.402C1719.85,-340.369 1730.93,-329.905 1743,-322 1795.51,-287.624 1824.29,-314.743 1879,-284 1879.2,-283.889 1879.39,-283.778 1879.59,-283.666"/>
<ellipse fill="none" stroke="#61afa8" cx="1707.45" cy="-354.532" rx="4.00002" ry="4.00002"/>
<polygon fill="#61afa8" stroke="#61afa8" points="1879.84,-283.513 1890.71,-282.086 1884.09,-280.885 1888.35,-278.257 1888.35,-278.257 1888.35,-278.257 1884.09,-280.885 1885.98,-274.429 1879.84,-283.513 1879.84,-283.513"/>
</g>
<!-- SubjectTheme -->
<g id="node32" class="node"><title>SubjectTheme</title>
<path fill="none" stroke="black" d="M1598.49,-162C1598.49,-162 1707.51,-162 1707.51,-162 1713.51,-162 1719.51,-168 1719.51,-174 1719.51,-174 1719.51,-250 1719.51,-250 1719.51,-256 1713.51,-262 1707.51,-262 1707.51,-262 1598.49,-262 1598.49,-262 1592.49,-262 1586.49,-256 1586.49,-250 1586.49,-250 1586.49,-174 1586.49,-174 1586.49,-168 1592.49,-162 1598.49,-162"/>
<text text-anchor="middle" x="1653" y="-246.8" font-family="Times,serif" font-size="14.00">SubjectTheme</text>
<polyline fill="none" stroke="black" points="1586.49,-240 1719.51,-240 "/>
<text text-anchor="start" x="1594.49" y="-224.8" font-family="Times,serif" font-size="14.00">id :integer</text>
<text text-anchor="start" x="1594.49" y="-210.8" font-family="Times,serif" font-size="14.00">subject_id :integer</text>
<text text-anchor="start" x="1594.49" y="-196.8" font-family="Times,serif" font-size="14.00">theme_id :integer</text>
<text text-anchor="start" x="1594.49" y="-182.8" font-family="Times,serif" font-size="14.00">created_at :datetime</text>
<text text-anchor="start" x="1594.49" y="-168.8" font-family="Times,serif" font-size="14.00">updated_at :datetime</text>
</g>
<!-- Subject&#45;&gt;SubjectTheme -->
<g id="edge61" class="edge"><title>Subject&#45;&gt;SubjectTheme</title>
<path fill="none" stroke="#4a3f9c" d="M1663.19,-349.486C1661.33,-324.678 1659.23,-296.499 1657.42,-272.214"/>
<ellipse fill="none" stroke="#4a3f9c" cx="1663.5" cy="-353.754" rx="4" ry="4"/>
<polygon fill="#4a3f9c" stroke="#4a3f9c" points="1657.41,-272.037 1661.15,-261.73 1657.03,-267.051 1656.66,-262.065 1656.66,-262.065 1656.66,-262.065 1657.03,-267.051 1652.17,-262.4 1657.41,-272.037 1657.41,-272.037"/>
</g>
<!-- Subject&#45;&gt;Theme -->
<g id="edge62" class="edge"><title>Subject&#45;&gt;Theme</title>
<path fill="none" stroke="#1263b9" d="M1711.9,-349.121C1729.01,-323.834 1748.46,-295.092 1765.06,-270.556"/>
<polygon fill="#1263b9" stroke="#1263b9" points="1711.67,-349.461 1702.34,-355.221 1708.87,-353.602 1706.06,-357.743 1706.06,-357.743 1706.06,-357.743 1708.87,-353.602 1709.79,-360.265 1711.67,-349.461 1711.67,-349.461"/>
<polygon fill="#1263b9" stroke="#1263b9" points="1765.2,-270.347 1774.53,-264.587 1768,-266.206 1770.8,-262.065 1770.8,-262.065 1770.8,-262.065 1768,-266.206 1767.07,-259.543 1765.2,-270.347 1765.2,-270.347"/>
</g>
<!-- Tag&#45;&gt;Tagging -->
<g id="edge65" class="edge"><title>Tag&#45;&gt;Tagging</title>
<path fill="none" stroke="#b80e6c" d="M1706.11,-604.336C1729.41,-582.378 1754.47,-555.71 1773,-528 1783.8,-511.856 1792.79,-492.777 1799.88,-474.984"/>
<ellipse fill="none" stroke="#b80e6c" cx="1703.16" cy="-607.088" rx="4.00002" ry="4.00002"/>
<polygon fill="#b80e6c" stroke="#b80e6c" points="1800.03,-474.592 1807.82,-466.874 1801.82,-469.925 1803.62,-465.258 1803.62,-465.258 1803.62,-465.258 1801.82,-469.925 1799.42,-463.643 1800.03,-474.592 1800.03,-474.592"/>
</g>
<!-- Theme&#45;&gt;OratorTheme -->
<g id="edge68" class="edge"><title>Theme&#45;&gt;OratorTheme</title>
<path fill="none" stroke="#75549b" d="M1854.95,-156.602C1862.56,-150.375 1870.67,-144.617 1879,-140 1961.88,-94.074 2069.48,-71.4524 2140.98,-60.7811"/>
<ellipse fill="none" stroke="#75549b" cx="1851.73" cy="-159.339" rx="4.00002" ry="4.00002"/>
<polygon fill="#75549b" stroke="#75549b" points="2141.37,-60.7255 2151.91,-63.7455 2146.32,-60.0087 2151.27,-59.292 2151.27,-59.292 2151.27,-59.292 2146.32,-60.0087 2150.62,-54.8384 2141.37,-60.7255 2141.37,-60.7255"/>
</g>
<!-- User&#45;&gt;Activity -->
<g id="edge76" class="edge"><title>User&#45;&gt;Activity</title>
<path fill="none" stroke="#7daed7" d="M1115.42,-548.413C1114.29,-547.589 1113.15,-546.784 1112,-546 1059.79,-510.414 1028.23,-542.049 975,-508 968.302,-503.716 961.876,-498.679 955.787,-493.206"/>
<ellipse fill="none" stroke="#7daed7" cx="1118.64" cy="-550.893" rx="4.00002" ry="4.00002"/>
<polygon fill="#7daed7" stroke="#7daed7" points="955.515,-492.948 951.357,-482.801 951.887,-489.507 948.26,-486.065 948.26,-486.065 948.26,-486.065 951.887,-489.507 945.163,-489.33 955.515,-492.948 955.515,-492.948"/>
</g>
<!-- User&#45;&gt;Article -->
<g id="edge79" class="edge"><title>User&#45;&gt;Article</title>
<path fill="none" stroke="#c1f1b3" d="M1276.77,-544.305C1288.38,-527.613 1300.1,-510.749 1311.07,-494.979"/>
<ellipse fill="none" stroke="#c1f1b3" cx="1274.39" cy="-547.718" rx="4.00002" ry="4.00002"/>
<polygon fill="#c1f1b3" stroke="#c1f1b3" points="1311.37,-494.548 1320.78,-488.907 1314.23,-490.443 1317.08,-486.338 1317.08,-486.338 1317.08,-486.338 1314.23,-490.443 1313.39,-483.769 1311.37,-494.548 1311.37,-494.548"/>
</g>
<!-- User&#45;&gt;Card -->
<g id="edge71" class="edge"><title>User&#45;&gt;Card</title>
<path fill="none" stroke="#645847" d="M1154.3,-781.003C1140.76,-815.254 1125.42,-853.167 1110.38,-889.543"/>
<ellipse fill="none" stroke="#645847" cx="1155.87" cy="-777.019" rx="4.00001" ry="4.00001"/>
<polygon fill="#645847" stroke="#645847" points="1110.33,-889.676 1102.35,-897.193 1108.42,-894.296 1106.5,-898.915 1106.5,-898.915 1106.5,-898.915 1108.42,-894.296 1110.66,-900.637 1110.33,-889.676 1110.33,-889.676"/>
</g>
<!-- User&#45;&gt;CardUser -->
<g id="edge77" class="edge"><title>User&#45;&gt;CardUser</title>
<path fill="none" stroke="#83ccec" d="M1114.79,-547.6C1113.87,-547.052 1112.94,-546.518 1112,-546 1068.68,-522.018 712.409,-529.897 668,-508 656.826,-502.49 646.428,-494.802 637.022,-486.195"/>
<ellipse fill="none" stroke="#83ccec" cx="1118.35" cy="-549.902" rx="4.00002" ry="4.00002"/>
<polygon fill="#83ccec" stroke="#83ccec" points="636.889,-486.067 632.822,-475.883 633.292,-482.593 629.696,-479.12 629.696,-479.12 629.696,-479.12 633.292,-482.593 626.57,-482.357 636.889,-486.067 636.889,-486.067"/>
</g>
<!-- User&#45;&gt;CardVerification -->
<g id="edge70" class="edge"><title>User&#45;&gt;CardVerification</title>
<path fill="none" stroke="#5bf9f7" d="M1115.15,-547.909C1114.11,-547.255 1113.06,-546.618 1112,-546 1055.27,-512.954 876.368,-539.932 819,-508 803.798,-499.538 790.465,-486.651 779.423,-473.178"/>
<ellipse fill="none" stroke="#5bf9f7" cx="1118.59" cy="-550.238" rx="4.00002" ry="4.00002"/>
<polygon fill="#5bf9f7" stroke="#5bf9f7" points="779.349,-473.084 776.734,-462.434 776.269,-469.145 773.189,-465.206 773.189,-465.206 773.189,-465.206 776.269,-469.145 769.644,-467.978 779.349,-473.084 779.349,-473.084"/>
</g>
<!-- User&#45;&gt;Connection -->
<g id="edge80" class="edge"><title>User&#45;&gt;Connection</title>
<path fill="none" stroke="#7b9749" d="M1205.91,-538.69C1207.54,-516.662 1209.18,-494.583 1210.6,-475.347"/>
<ellipse fill="none" stroke="#7b9749" cx="1205.61" cy="-542.758" rx="4" ry="4"/>
<polygon fill="#7b9749" stroke="#7b9749" points="1210.61,-475.241 1215.84,-465.601 1210.98,-470.255 1211.35,-465.268 1211.35,-465.268 1211.35,-465.268 1210.98,-470.255 1206.86,-464.936 1210.61,-475.241 1210.61,-475.241"/>
</g>
<!-- User&#45;&gt;Orator -->
<g id="edge78" class="edge"><title>User&#45;&gt;Orator</title>
<path fill="none" stroke="#a008f3" d="M1278.81,-579.569C1296.75,-566.169 1316.54,-554.021 1337,-546 1394.75,-523.36 1833.2,-520.322 1894,-508 1960.87,-494.447 2033.93,-468.445 2086.7,-447.531"/>
<ellipse fill="none" stroke="#a008f3" cx="1275.46" cy="-582.127" rx="4.00002" ry="4.00002"/>
<ellipse fill="#a008f3" stroke="#a008f3" cx="2090.62" cy="-445.967" rx="4.00001" ry="4.00001"/>
</g>
<!-- User&#45;&gt;Ownership -->
<g id="edge72" class="edge"><title>User&#45;&gt;Ownership</title>
<path fill="none" stroke="#8f5e47" d="M1114.81,-547.551C1113.88,-547.019 1112.95,-546.502 1112,-546 1093.23,-536.041 368.683,-512.871 348,-508 308.7,-498.744 267.574,-482.379 232.239,-465.992"/>
<ellipse fill="none" stroke="#8f5e47" cx="1118.4" cy="-549.795" rx="4.00002" ry="4.00002"/>
<polygon fill="#8f5e47" stroke="#8f5e47" points="231.959,-465.86 224.826,-457.532 227.435,-463.732 222.91,-461.603 222.91,-461.603 222.91,-461.603 227.435,-463.732 220.995,-465.675 231.959,-465.86 231.959,-465.86"/>
</g>
<!-- User&#45;&gt;Parent -->
<g id="edge73" class="edge"><title>User&#45;&gt;Parent</title>
<path fill="none" stroke="#c988ca" d="M1278.33,-564.378C1286.55,-557.586 1295.14,-551.328 1304,-546 1358.14,-513.425 1387.99,-542.388 1441,-508 1455.11,-498.85 1467.91,-486.255 1478.81,-473.32"/>
<ellipse fill="none" stroke="#c988ca" cx="1275.16" cy="-567.074" rx="4.00002" ry="4.00002"/>
<polygon fill="#c988ca" stroke="#c988ca" points="1479.05,-473.019 1488.85,-468.082 1482.2,-469.134 1485.35,-465.249 1485.35,-465.249 1485.35,-465.249 1482.2,-469.134 1481.85,-462.416 1479.05,-473.019 1479.05,-473.019"/>
</g>
<!-- User&#45;&gt;Subject -->
<g id="edge81" class="edge"><title>User&#45;&gt;Subject</title>
<path fill="none" stroke="#3e8bb8" d="M1278.84,-562.037C1286.84,-555.933 1295.26,-550.462 1304,-546 1361.5,-516.653 1535.53,-539.275 1592,-508 1604.66,-500.987 1616.08,-490.948 1625.98,-480.057"/>
<ellipse fill="none" stroke="#3e8bb8" cx="1275.34" cy="-564.816" rx="4.00002" ry="4.00002"/>
<polygon fill="#3e8bb8" stroke="#3e8bb8" points="1626.05,-479.975 1635.99,-475.351 1629.32,-476.192 1632.59,-472.409 1632.59,-472.409 1632.59,-472.409 1629.32,-476.192 1629.18,-469.466 1626.05,-479.975 1626.05,-479.975"/>
</g>
<!-- User&#45;&gt;User -->
<g id="edge74" class="edge"><title>User&#45;&gt;User</title>
<path fill="none" stroke="#088805" d="M1281.41,-677.443C1286.77,-673.349 1290,-667.535 1290,-660 1290,-652.465 1286.77,-646.651 1281.41,-642.557"/>
<polygon fill="#088805" stroke="#088805" points="1281.06,-677.626 1270.11,-678.211 1276.61,-679.918 1272.17,-682.211 1272.17,-682.211 1272.17,-682.211 1276.61,-679.918 1274.23,-686.21 1281.06,-677.626 1281.06,-677.626"/>
<polygon fill="#088805" stroke="#088805" points="1281.06,-642.374 1274.23,-633.79 1276.61,-640.082 1272.17,-637.789 1272.17,-637.789 1272.17,-637.789 1276.61,-640.082 1270.11,-641.789 1281.06,-642.374 1281.06,-642.374"/>
</g>
<!-- User&#45;&gt;VerificatorComment -->
<g id="edge75" class="edge"><title>User&#45;&gt;VerificatorComment</title>
<path fill="none" stroke="#13f028" d="M1114.8,-547.568C1113.88,-547.03 1112.94,-546.507 1112,-546 1104.5,-541.962 507.588,-511.866 500,-508 486.801,-501.276 475.047,-491.131 464.959,-480.001"/>
<ellipse fill="none" stroke="#13f028" cx="1118.39" cy="-549.832" rx="4.00002" ry="4.00002"/>
<polygon fill="#13f028" stroke="#13f028" points="464.753,-479.761 461.661,-469.24 461.499,-475.964 458.245,-472.168 458.245,-472.168 458.245,-472.168 461.499,-475.964 454.828,-475.097 464.753,-479.761 464.753,-479.761"/>
</g>
<!-- UserType -->
<g id="node37" class="node"><title>UserType</title>
<path fill="none" stroke="black" d="M1305.49,-1229C1305.49,-1229 1414.51,-1229 1414.51,-1229 1420.51,-1229 1426.51,-1235 1426.51,-1241 1426.51,-1241 1426.51,-1303 1426.51,-1303 1426.51,-1309 1420.51,-1315 1414.51,-1315 1414.51,-1315 1305.49,-1315 1305.49,-1315 1299.49,-1315 1293.49,-1309 1293.49,-1303 1293.49,-1303 1293.49,-1241 1293.49,-1241 1293.49,-1235 1299.49,-1229 1305.49,-1229"/>
<text text-anchor="middle" x="1360" y="-1299.8" font-family="Times,serif" font-size="14.00">UserType</text>
<polyline fill="none" stroke="black" points="1293.49,-1293 1426.51,-1293 "/>
<text text-anchor="start" x="1301.49" y="-1277.8" font-family="Times,serif" font-size="14.00">id :integer</text>
<text text-anchor="start" x="1301.49" y="-1263.8" font-family="Times,serif" font-size="14.00">name :string</text>
<text text-anchor="start" x="1301.49" y="-1249.8" font-family="Times,serif" font-size="14.00">created_at :datetime</text>
<text text-anchor="start" x="1301.49" y="-1235.8" font-family="Times,serif" font-size="14.00">updated_at :datetime</text>
</g>
<!-- UserType&#45;&gt;User -->
<g id="edge83" class="edge"><title>UserType&#45;&gt;User</title>
<path fill="none" stroke="#d01102" d="M1355.47,-1220.85C1346.36,-1132.16 1321.88,-942.788 1268,-792 1266.89,-788.894 1265.71,-785.773 1264.48,-782.645"/>
<ellipse fill="none" stroke="#d01102" cx="1355.88" cy="-1224.88" rx="4" ry="4"/>
<polygon fill="#d01102" stroke="#d01102" points="1264.42,-782.503 1264.79,-771.543 1262.53,-777.877 1260.63,-773.252 1260.63,-773.252 1260.63,-773.252 1262.53,-777.877 1256.47,-774.96 1264.42,-782.503 1264.42,-782.503"/>
</g>
<!-- ActiveRecord::Base -->
<g id="node39" class="node"><title>ActiveRecord::Base</title>
<ellipse fill="none" stroke="black" cx="1427" cy="-1511" rx="80.9821" ry="18"/>
<text text-anchor="middle" x="1427" y="-1506.8" font-family="Times,serif" font-size="14.00">ActiveRecord::Base</text>
</g>
<!-- ActiveRecord::Base&#45;&gt;AccessToken -->
<g id="edge1" class="edge"><title>ActiveRecord::Base&#45;&gt;AccessToken</title>
<path fill="none" stroke="black" d="M1395.42,-1494.3C1378.29,-1486.61 1356.48,-1478.14 1336,-1474 1160.18,-1438.45 707.683,-1471.78 529,-1456 450.463,-1449.07 366,-1464.84 366,-1386 366,-1386 366,-1386 366,-835 366,-705.819 376.318,-668.395 335,-546 328.686,-527.296 317.979,-526.814 312,-508 287.51,-430.929 285.205,-337.03 287.057,-276.182"/>
</g>
<!-- ActiveRecord::Base&#45;&gt;Action -->
<g id="edge4" class="edge"><title>ActiveRecord::Base&#45;&gt;Action</title>
<path fill="none" stroke="black" d="M1395.43,-1494.27C1378.3,-1486.57 1356.49,-1478.1 1336,-1474 1120.68,-1430.92 565.559,-1485.81 348,-1456 312.97,-1451.2 295.689,-1461.31 271,-1436 190.151,-1353.11 216.647,-901.354 216,-880 214.816,-840.907 213.478,-831.03 216,-792 217.93,-762.134 222.31,-728.675 226.14,-703.048"/>
</g>
<!-- ActiveRecord::Base&#45;&gt;Activity -->
<g id="edge5" class="edge"><title>ActiveRecord::Base&#45;&gt;Activity</title>
<path fill="none" stroke="black" d="M1394.46,-1494.49C1377.43,-1487.05 1356,-1478.75 1336,-1474 1258.16,-1455.53 1033.98,-1493.16 978,-1436 721.339,-1173.92 826.04,-670.965 876.126,-486.263"/>
</g>
<!-- ActiveRecord::Base&#45;&gt;Affiliation -->
<g id="edge8" class="edge"><title>ActiveRecord::Base&#45;&gt;Affiliation</title>
<path fill="none" stroke="black" d="M1394.97,-1494.25C1377.9,-1486.65 1356.28,-1478.27 1336,-1474 1233.94,-1452.51 964.031,-1494.25 867,-1456 851.265,-1449.8 836.482,-1439.16 823.962,-1428.02"/>
</g>
<!-- ActiveRecord::Base&#45;&gt;Article -->
<g id="edge11" class="edge"><title>ActiveRecord::Base&#45;&gt;Article</title>
<path fill="none" stroke="black" d="M1486.58,-1498.71C1576.37,-1479.97 1736,-1439.18 1736,-1386 1736,-1386 1736,-1386 1736,-835 1736,-770.624 1759.94,-593.046 1716,-546 1673.89,-500.915 1494.78,-538.228 1441,-508 1430.94,-502.346 1421.69,-494.763 1413.38,-486.365"/>
</g>
<!-- ActiveRecord::Base&#45;&gt;ArticleTheme -->
<g id="edge12" class="edge"><title>ActiveRecord::Base&#45;&gt;ArticleTheme</title>
<path fill="none" stroke="black" d="M1395.42,-1494.3C1378.29,-1486.62 1356.48,-1478.15 1336,-1474 1163.67,-1439.12 718.732,-1483.04 545,-1456 475.868,-1445.24 404,-1455.96 404,-1386 404,-1386 404,-1386 404,-835 404,-706.113 403.981,-672.636 380,-546 378.273,-536.882 379.455,-533.508 374,-526 365.739,-514.63 354.523,-520.449 348,-508 309.634,-434.776 299.483,-388.932 348,-322 408.782,-238.148 535.998,-217.618 614.402,-213.272"/>
</g>
<!-- ActiveRecord::Base&#45;&gt;Canton -->
<g id="edge14" class="edge"><title>ActiveRecord::Base&#45;&gt;Canton</title>
<path fill="none" stroke="black" d="M1507.2,-1507.77C1704.14,-1501.88 2200.61,-1484.39 2270,-1456 2282.21,-1451 2293.88,-1443.39 2304.37,-1435.01"/>
</g>
<!-- ActiveRecord::Base&#45;&gt;Card -->
<g id="edge27" class="edge"><title>ActiveRecord::Base&#45;&gt;Card</title>
<path fill="none" stroke="black" d="M1393.52,-1494.48C1376.61,-1487.23 1355.57,-1479.09 1336,-1474 1277.42,-1458.75 1248.91,-1493 1201,-1456 1179.61,-1439.48 1130.53,-1315.07 1091.6,-1209.15"/>
</g>
<!-- ActiveRecord::Base&#45;&gt;CardAffiliation -->
<g id="edge28" class="edge"><title>ActiveRecord::Base&#45;&gt;CardAffiliation</title>
<path fill="none" stroke="black" d="M1394.98,-1494.24C1377.9,-1486.64 1356.28,-1478.27 1336,-1474 1267.81,-1459.66 756.43,-1487.96 710,-1436 614.506,-1329.13 667.536,-863.584 688.045,-710.205"/>
</g>
<!-- ActiveRecord::Base&#45;&gt;CardParent -->
<g id="edge29" class="edge"><title>ActiveRecord::Base&#45;&gt;CardParent</title>
<path fill="none" stroke="black" d="M1452.1,-1493.66C1464.18,-1484.26 1477.43,-1471.28 1484,-1456 1524.04,-1362.91 1490.31,-1329.14 1484,-1228 1471.99,-1035.42 1437.24,-808.173 1421.24,-710.103"/>
</g>
<!-- ActiveRecord::Base&#45;&gt;CardResponsable -->
<g id="edge30" class="edge"><title>ActiveRecord::Base&#45;&gt;CardResponsable</title>
<path fill="none" stroke="black" d="M1429.55,-1492.69C1447.62,-1368.77 1553.72,-619.261 1488,-546 1435.91,-487.927 1208.35,-543.723 1139,-508 1119.79,-498.105 1102.97,-481.697 1089.65,-465.456"/>
</g>
<!-- ActiveRecord::Base&#45;&gt;CardType -->
<g id="edge32" class="edge"><title>ActiveRecord::Base&#45;&gt;CardType</title>
<path fill="none" stroke="black" d="M1394.45,-1494.51C1377.42,-1487.08 1356,-1478.77 1336,-1474 1251.34,-1453.79 1221.67,-1488.67 1141,-1456 1125.01,-1449.52 1109.62,-1439.09 1096.35,-1428.23"/>
</g>
<!-- ActiveRecord::Base&#45;&gt;CardUser -->
<g id="edge33" class="edge"><title>ActiveRecord::Base&#45;&gt;CardUser</title>
<path fill="none" stroke="black" d="M1395.41,-1494.36C1378.27,-1486.69 1356.47,-1478.22 1336,-1474 1204.7,-1446.94 866.548,-1467.7 733,-1456 651.192,-1448.83 562,-1468.12 562,-1386 562,-1386 562,-1386 562,-659 562,-597.684 569.034,-528.018 575.147,-479.048"/>
</g>
<!-- ActiveRecord::Base&#45;&gt;CardVerification -->
<g id="edge34" class="edge"><title>ActiveRecord::Base&#45;&gt;CardVerification</title>
<path fill="none" stroke="black" d="M1395.41,-1494.37C1378.27,-1486.71 1356.47,-1478.23 1336,-1474 1209.28,-1447.81 882.35,-1472.41 754,-1456 679.424,-1446.46 600,-1461.18 600,-1386 600,-1386 600,-1386 600,-659 600,-608.073 592.866,-589.71 619,-546 633.143,-522.346 648.215,-527.185 668,-508 681.535,-494.876 695.05,-479.458 706.85,-465.034"/>
</g>
<!-- ActiveRecord::Base&#45;&gt;Connection -->
<g id="edge35" class="edge"><title>ActiveRecord::Base&#45;&gt;Connection</title>
<path fill="none" stroke="black" d="M1458.58,-1494.42C1493.83,-1474.54 1546,-1436.57 1546,-1386 1546,-1386 1546,-1386 1546,-659 1546,-597.762 1562.01,-558.321 1510,-526 1468.34,-500.11 1333.41,-530.836 1290,-508 1271.4,-498.215 1255.71,-481.622 1243.57,-465.2"/>
</g>
<!-- ActiveRecord::Base&#45;&gt;Disponibility -->
<g id="edge38" class="edge"><title>ActiveRecord::Base&#45;&gt;Disponibility</title>
<path fill="none" stroke="black" d="M1507.56,-1508.54C1665.71,-1504.88 2004.7,-1492.78 2042,-1456 2252.41,-1248.51 2168.76,-835.936 2134.72,-703.192"/>
</g>
<!-- ActiveRecord::Base&#45;&gt;Document -->
<g id="edge39" class="edge"><title>ActiveRecord::Base&#45;&gt;Document</title>
<path fill="none" stroke="black" d="M1507.66,-1508.86C1663.34,-1504.45 1990,-1483.58 1990,-1386 1990,-1386 1990,-1386 1990,-414 1990,-370.078 1981.79,-321.547 1973.32,-283.177"/>
</g>
<!-- ActiveRecord::Base&#45;&gt;Element -->
<g id="edge41" class="edge"><title>ActiveRecord::Base&#45;&gt;Element</title>
<path fill="none" stroke="black" d="M1395.43,-1494.27C1378.3,-1486.57 1356.49,-1478.1 1336,-1474 1309.19,-1468.64 372.191,-1474.43 352,-1456 186.513,-1304.95 244.405,-992.774 272.455,-879.359"/>
</g>
<!-- ActiveRecord::Base&#45;&gt;Location -->
<g id="edge42" class="edge"><title>ActiveRecord::Base&#45;&gt;Location</title>
<path fill="none" stroke="black" d="M1508.41,-1510.37C1736.03,-1510.55 2366.36,-1504.77 2426,-1436 2464.02,-1392.17 2437.44,-1230.22 2416.82,-1132.13"/>
</g>
<!-- ActiveRecord::Base&#45;&gt;Orator -->
<g id="edge46" class="edge"><title>ActiveRecord::Base&#45;&gt;Orator</title>
<path fill="none" stroke="black" d="M1508.27,-1510.11C1629.18,-1508.69 1862.94,-1499.83 2056,-1456 2132.49,-1438.64 2218,-1464.43 2218,-1386 2218,-1386 2218,-1386 2218,-659 2218,-605.159 2204.57,-546.339 2190.75,-500.057"/>
</g>
<!-- ActiveRecord::Base&#45;&gt;OratorDisponibility -->
<g id="edge47" class="edge"><title>ActiveRecord::Base&#45;&gt;OratorDisponibility</title>
<path fill="none" stroke="black" d="M1508.05,-1510C1672.1,-1507.8 2028,-1490.94 2028,-1386 2028,-1386 2028,-1386 2028,-414 2028,-358.674 2056.1,-301.309 2080.37,-262.094"/>
</g>
<!-- ActiveRecord::Base&#45;&gt;OratorTheme -->
<g id="edge48" class="edge"><title>ActiveRecord::Base&#45;&gt;OratorTheme</title>
<path fill="none" stroke="black" d="M1503.94,-1504.94C1625.44,-1496.64 1869.1,-1478.76 2075,-1456 2160.73,-1446.52 2256,-1472.25 2256,-1386 2256,-1386 2256,-1386 2256,-211 2256,-173.394 2245.82,-132.122 2236,-101.053"/>
</g>
<!-- ActiveRecord::Base&#45;&gt;Ownership -->
<g id="edge51" class="edge"><title>ActiveRecord::Base&#45;&gt;Ownership</title>
<path fill="none" stroke="black" d="M1395.43,-1494.26C1378.3,-1486.56 1356.49,-1478.09 1336,-1474 1111.51,-1429.17 532.864,-1486.64 306,-1456 270.534,-1451.21 251.432,-1463.05 228,-1436 109.131,-1298.78 122.65,-731.223 132.974,-507.37"/>
</g>
<!-- ActiveRecord::Base&#45;&gt;OwnershipAction -->
<g id="edge52" class="edge"><title>ActiveRecord::Base&#45;&gt;OwnershipAction</title>
<path fill="none" stroke="black" d="M1395.43,-1494.24C1378.31,-1486.54 1356.5,-1478.07 1336,-1474 1206.29,-1448.26 276.472,-1477.54 146,-1456 74.9991,-1444.28 0,-1457.96 0,-1386 0,-1386 0,-1386 0,-414 0,-354.729 40.9536,-299.773 77.7478,-262.36"/>
</g>
<!-- ActiveRecord::Base&#45;&gt;OwnershipType -->
<g id="edge54" class="edge"><title>ActiveRecord::Base&#45;&gt;OwnershipType</title>
<path fill="none" stroke="black" d="M1395.43,-1494.24C1378.31,-1486.54 1356.5,-1478.07 1336,-1474 1303.68,-1467.59 176.909,-1475.01 150,-1456 104.88,-1424.12 89.6493,-1358.65 84.5382,-1315.28"/>
</g>
<!-- ActiveRecord::Base&#45;&gt;Page -->
<g id="edge55" class="edge"><title>ActiveRecord::Base&#45;&gt;Page</title>
<path fill="none" stroke="black" d="M1507.82,-1508.78C1735.73,-1504.93 2372.69,-1491.12 2460,-1456 2472.24,-1451.08 2483.93,-1443.5 2494.42,-1435.12"/>
</g>
<!-- ActiveRecord::Base&#45;&gt;Parent -->
<g id="edge56" class="edge"><title>ActiveRecord::Base&#45;&gt;Parent</title>
<path fill="none" stroke="black" d="M1502.83,-1504.42C1566.92,-1496.79 1659.04,-1478.72 1728,-1436 1753.67,-1420.1 1774,-1416.2 1774,-1386 1774,-1386 1774,-1386 1774,-835 1774,-705.865 1824.03,-647.348 1744,-546 1728.63,-526.536 1600.91,-513.305 1592,-508 1574.29,-497.457 1558.98,-481.113 1546.88,-465.108"/>
</g>
<!-- ActiveRecord::Base&#45;&gt;Responsable -->
<g id="edge59" class="edge"><title>ActiveRecord::Base&#45;&gt;Responsable</title>
<path fill="none" stroke="black" d="M1391.22,-1494.77C1354.94,-1478.68 1302.17,-1453.29 1288,-1436 1134.24,-1248.37 1281.28,-1125.1 1196,-898 1195.52,-896.733 1121.61,-786.762 1074.74,-717.084"/>
</g>
<!-- ActiveRecord::Base&#45;&gt;Subject -->
<g id="edge63" class="edge"><title>ActiveRecord::Base&#45;&gt;Subject</title>
<path fill="none" stroke="black" d="M1497.61,-1501.9C1608.76,-1487.17 1812,-1451.31 1812,-1386 1812,-1386 1812,-1386 1812,-659 1812,-606.922 1807.17,-591.023 1781,-546 1769,-525.351 1759.01,-525.723 1743,-508 1732.78,-496.684 1722.2,-484.223 1712.32,-472.224"/>
</g>
<!-- ActiveRecord::Base&#45;&gt;SubjectTheme -->
<g id="edge64" class="edge"><title>ActiveRecord::Base&#45;&gt;SubjectTheme</title>
<path fill="none" stroke="black" d="M1505.24,-1506.19C1642.91,-1497.34 1914,-1469.32 1914,-1386 1914,-1386 1914,-1386 1914,-526 1914,-434.899 1954.19,-390.386 1894,-322 1843.99,-265.186 1794.73,-319.722 1728,-284 1717.25,-278.246 1706.92,-270.539 1697.55,-262.323"/>
</g>
<!-- ActiveRecord::Base&#45;&gt;Tag -->
<g id="edge66" class="edge"><title>ActiveRecord::Base&#45;&gt;Tag</title>
<path fill="none" stroke="black" d="M1489.32,-1499.37C1515.21,-1491.69 1543.11,-1478.53 1560,-1456 1733.1,-1225.11 1678.39,-844.594 1651.78,-710.015"/>
</g>
<!-- ActiveRecord::Base&#45;&gt;Tagging -->
<g id="edge67" class="edge"><title>ActiveRecord::Base&#45;&gt;Tagging</title>
<path fill="none" stroke="black" d="M1501.17,-1503.58C1622.48,-1491 1850,-1457.84 1850,-1386 1850,-1386 1850,-1386 1850,-659 1850,-591.378 1838.04,-514.016 1828.98,-465.099"/>
</g>
<!-- ActiveRecord::Base&#45;&gt;Theme -->
<g id="edge69" class="edge"><title>ActiveRecord::Base&#45;&gt;Theme</title>
<path fill="none" stroke="black" d="M1506.74,-1507.59C1653.6,-1500.96 1952,-1476.38 1952,-1386 1952,-1386 1952,-1386 1952,-414 1952,-371.387 1948.46,-357.576 1925,-322 1910.4,-299.861 1898.86,-301.57 1879,-284 1871.21,-277.11 1863.1,-269.697 1855.22,-262.353"/>
</g>
<!-- ActiveRecord::Base&#45;&gt;User -->
<g id="edge82" class="edge"><title>ActiveRecord::Base&#45;&gt;User</title>
<path fill="none" stroke="black" d="M1409.61,-1493.24C1378.27,-1461.83 1312.89,-1390.51 1284,-1316 1199.35,-1097.67 1269.1,-1022.71 1229,-792 1227.94,-785.888 1226.75,-779.637 1225.48,-773.342"/>
</g>
<!-- ActiveRecord::Base&#45;&gt;UserType -->
<g id="edge84" class="edge"><title>ActiveRecord::Base&#45;&gt;UserType</title>
<path fill="none" stroke="black" d="M1422.18,-1492.96C1411.77,-1456.13 1386.91,-1368.19 1371.97,-1315.33"/>
</g>
<!-- ActiveRecord::Base&#45;&gt;VerificatorComment -->
<g id="edge85" class="edge"><title>ActiveRecord::Base&#45;&gt;VerificatorComment</title>
<path fill="none" stroke="black" d="M1395.41,-1494.35C1378.28,-1486.67 1356.47,-1478.2 1336,-1474 1195.32,-1445.15 833.041,-1468.78 690,-1456 592.428,-1447.28 481,-1483.96 481,-1386 481,-1386 481,-1386 481,-659 481,-593.568 461.169,-520.782 444.901,-472.082"/>
</g>
<!-- Object -->
<g id="node40" class="node"><title>Object</title>
<ellipse fill="none" stroke="black" cx="2665" cy="-1511" rx="33.5181" ry="18"/>
<text text-anchor="middle" x="2665" y="-1506.8" font-family="Times,serif" font-size="14.00">Object</text>
</g>
<!-- Object&#45;&gt;Permission -->
<g id="edge57" class="edge"><title>Object&#45;&gt;Permission</title>
<path fill="none" stroke="black" d="M2665,-1492.76C2665,-1470.4 2665,-1431.41 2665,-1407.25"/>
</g>
</g>
</svg>
