<?xml version="1.0" encoding="UTF-8" standalone="no"?>
<!DOCTYPE svg PUBLIC "-//W3C//DTD SVG 1.1//EN"
 "http://www.w3.org/Graphics/SVG/1.1/DTD/svg11.dtd">
<!-- Generated by graphviz version 2.36.0 (20140111.2315)
 -->
<!-- Title: models_diagram Pages: 1 -->
<svg width="2301pt" height="1330pt"
 viewBox="0.00 0.00 2301.00 1330.00" xmlns="http://www.w3.org/2000/svg" xmlns:xlink="http://www.w3.org/1999/xlink">
<g id="graph0" class="graph" transform="scale(1 1) rotate(0) translate(4 1326)">
<title>models_diagram</title>
<polygon fill="white" stroke="none" points="-4,4 -4,-1326 2297,-1326 2297,4 -4,4"/>
<!-- _diagram_info -->
<g id="node1" class="node"><title>_diagram_info</title>
<text text-anchor="start" x="915.312" y="-1307.1" font-family="Times,serif" font-size="13.00">Models diagram</text>
<text text-anchor="start" x="915.312" y="-1294.1" font-family="Times,serif" font-size="13.00">Date: Feb 21 2014 &#45; 18:48</text>
<text text-anchor="start" x="915.312" y="-1281.1" font-family="Times,serif" font-size="13.00">Migration version: 20140220192207</text>
<text text-anchor="start" x="915.312" y="-1268.1" font-family="Times,serif" font-size="13.00">Generated by RailRoady 1.1.1</text>
<text text-anchor="start" x="915.312" y="-1255.1" font-family="Times,serif" font-size="13.00">http://railroady.prestonlee.com</text>
</g>
<!-- AccessToken -->
<g id="node2" class="node"><title>AccessToken</title>
<path fill="none" stroke="black" d="M341.764,-139C341.764,-139 456.236,-139 456.236,-139 462.236,-139 468.236,-145 468.236,-151 468.236,-151 468.236,-241 468.236,-241 468.236,-247 462.236,-253 456.236,-253 456.236,-253 341.764,-253 341.764,-253 335.764,-253 329.764,-247 329.764,-241 329.764,-241 329.764,-151 329.764,-151 329.764,-145 335.764,-139 341.764,-139"/>
<text text-anchor="middle" x="399" y="-237.8" font-family="Times,serif" font-size="14.00">AccessToken</text>
<polyline fill="none" stroke="black" points="329.764,-231 468.236,-231 "/>
<text text-anchor="start" x="337.764" y="-215.8" font-family="Times,serif" font-size="14.00">id :integer</text>
<text text-anchor="start" x="337.764" y="-201.8" font-family="Times,serif" font-size="14.00">token :string</text>
<text text-anchor="start" x="337.764" y="-187.8" font-family="Times,serif" font-size="14.00">valid :boolean</text>
<text text-anchor="start" x="337.764" y="-173.8" font-family="Times,serif" font-size="14.00">ownership_id :integer</text>
<text text-anchor="start" x="337.764" y="-159.8" font-family="Times,serif" font-size="14.00">created_at :datetime</text>
<text text-anchor="start" x="337.764" y="-145.8" font-family="Times,serif" font-size="14.00">updated_at :datetime</text>
</g>
<!-- Action -->
<g id="node3" class="node"><title>Action</title>
<path fill="none" stroke="black" d="M11.4946,-576C11.4946,-576 120.505,-576 120.505,-576 126.505,-576 132.505,-582 132.505,-588 132.505,-588 132.505,-650 132.505,-650 132.505,-656 126.505,-662 120.505,-662 120.505,-662 11.4946,-662 11.4946,-662 5.49463,-662 -0.505371,-656 -0.505371,-650 -0.505371,-650 -0.505371,-588 -0.505371,-588 -0.505371,-582 5.49463,-576 11.4946,-576"/>
<text text-anchor="middle" x="66" y="-646.8" font-family="Times,serif" font-size="14.00">Action</text>
<polyline fill="none" stroke="black" points="-0.505371,-640 132.505,-640 "/>
<text text-anchor="start" x="7.49463" y="-624.8" font-family="Times,serif" font-size="14.00">id :integer</text>
<text text-anchor="start" x="7.49463" y="-610.8" font-family="Times,serif" font-size="14.00">name :string</text>
<text text-anchor="start" x="7.49463" y="-596.8" font-family="Times,serif" font-size="14.00">created_at :datetime</text>
<text text-anchor="start" x="7.49463" y="-582.8" font-family="Times,serif" font-size="14.00">updated_at :datetime</text>
</g>
<!-- Ownership -->
<g id="node18" class="node"><title>Ownership</title>
<path fill="none" stroke="black" d="M221.212,-291C221.212,-291 366.788,-291 366.788,-291 372.788,-291 378.788,-297 378.788,-303 378.788,-303 378.788,-463 378.788,-463 378.788,-469 372.788,-475 366.788,-475 366.788,-475 221.212,-475 221.212,-475 215.212,-475 209.212,-469 209.212,-463 209.212,-463 209.212,-303 209.212,-303 209.212,-297 215.212,-291 221.212,-291"/>
<text text-anchor="middle" x="294" y="-459.8" font-family="Times,serif" font-size="14.00">Ownership</text>
<polyline fill="none" stroke="black" points="209.212,-453 378.788,-453 "/>
<text text-anchor="start" x="217.212" y="-437.8" font-family="Times,serif" font-size="14.00">id :integer</text>
<text text-anchor="start" x="217.212" y="-423.8" font-family="Times,serif" font-size="14.00">element_id :integer</text>
<text text-anchor="start" x="217.212" y="-409.8" font-family="Times,serif" font-size="14.00">user_id :integer</text>
<text text-anchor="start" x="217.212" y="-395.8" font-family="Times,serif" font-size="14.00">ownership_type_id :integer</text>
<text text-anchor="start" x="217.212" y="-381.8" font-family="Times,serif" font-size="14.00">right_create :boolean</text>
<text text-anchor="start" x="217.212" y="-367.8" font-family="Times,serif" font-size="14.00">right_read :boolean</text>
<text text-anchor="start" x="217.212" y="-353.8" font-family="Times,serif" font-size="14.00">right_update :boolean</text>
<text text-anchor="start" x="217.212" y="-339.8" font-family="Times,serif" font-size="14.00">right_delete :boolean</text>
<text text-anchor="start" x="217.212" y="-325.8" font-family="Times,serif" font-size="14.00">id_element :integer</text>
<text text-anchor="start" x="217.212" y="-311.8" font-family="Times,serif" font-size="14.00">created_at :datetime</text>
<text text-anchor="start" x="217.212" y="-297.8" font-family="Times,serif" font-size="14.00">updated_at :datetime</text>
</g>
<!-- Action&#45;&gt;Ownership -->
<g id="edge3" class="edge"><title>Action&#45;&gt;Ownership</title>
<path fill="none" stroke="#d3c621" d="M114.2,-568.532C139.644,-542.418 171.739,-509.478 201.746,-478.682"/>
<polygon fill="#d3c621" stroke="#d3c621" points="114.004,-568.733 103.802,-572.755 110.514,-572.314 107.025,-575.895 107.025,-575.895 107.025,-575.895 110.514,-572.314 110.248,-579.036 114.004,-568.733 114.004,-568.733"/>
<polygon fill="#d3c621" stroke="#d3c621" points="201.94,-478.483 212.141,-474.461 205.429,-474.902 208.918,-471.321 208.918,-471.321 208.918,-471.321 205.429,-474.902 205.695,-468.18 201.94,-478.483 201.94,-478.483"/>
</g>
<!-- OwnershipAction -->
<g id="node19" class="node"><title>OwnershipAction</title>
<path fill="none" stroke="black" d="M103.764,-146C103.764,-146 218.236,-146 218.236,-146 224.236,-146 230.236,-152 230.236,-158 230.236,-158 230.236,-234 230.236,-234 230.236,-240 224.236,-246 218.236,-246 218.236,-246 103.764,-246 103.764,-246 97.7637,-246 91.7637,-240 91.7637,-234 91.7637,-234 91.7637,-158 91.7637,-158 91.7637,-152 97.7637,-146 103.764,-146"/>
<text text-anchor="middle" x="161" y="-230.8" font-family="Times,serif" font-size="14.00">OwnershipAction</text>
<polyline fill="none" stroke="black" points="91.7637,-224 230.236,-224 "/>
<text text-anchor="start" x="99.7637" y="-208.8" font-family="Times,serif" font-size="14.00">id :integer</text>
<text text-anchor="start" x="99.7637" y="-194.8" font-family="Times,serif" font-size="14.00">action_id :integer</text>
<text text-anchor="start" x="99.7637" y="-180.8" font-family="Times,serif" font-size="14.00">ownership_id :integer</text>
<text text-anchor="start" x="99.7637" y="-166.8" font-family="Times,serif" font-size="14.00">created_at :datetime</text>
<text text-anchor="start" x="99.7637" y="-152.8" font-family="Times,serif" font-size="14.00">updated_at :datetime</text>
</g>
<!-- Action&#45;&gt;OwnershipAction -->
<g id="edge2" class="edge"><title>Action&#45;&gt;OwnershipAction</title>
<path fill="none" stroke="#0394e9" d="M77.3737,-567.596C95.035,-489.329 128.969,-338.949 147.725,-255.831"/>
<ellipse fill="none" stroke="#0394e9" cx="76.4244" cy="-571.803" rx="4.00001" ry="4.00001"/>
<polygon fill="#0394e9" stroke="#0394e9" points="147.733,-255.792 154.324,-247.028 148.834,-250.915 149.934,-246.038 149.934,-246.038 149.934,-246.038 148.834,-250.915 145.545,-245.047 147.733,-255.792 147.733,-255.792"/>
</g>
<!-- Activity -->
<g id="node4" class="node"><title>Activity</title>
<path fill="none" stroke="black" d="M521.16,-319C521.16,-319 634.84,-319 634.84,-319 640.84,-319 646.84,-325 646.84,-331 646.84,-331 646.84,-435 646.84,-435 646.84,-441 640.84,-447 634.84,-447 634.84,-447 521.16,-447 521.16,-447 515.16,-447 509.16,-441 509.16,-435 509.16,-435 509.16,-331 509.16,-331 509.16,-325 515.16,-319 521.16,-319"/>
<text text-anchor="middle" x="578" y="-431.8" font-family="Times,serif" font-size="14.00">Activity</text>
<polyline fill="none" stroke="black" points="509.16,-425 646.84,-425 "/>
<text text-anchor="start" x="517.16" y="-409.8" font-family="Times,serif" font-size="14.00">id :integer</text>
<text text-anchor="start" x="517.16" y="-395.8" font-family="Times,serif" font-size="14.00">user_id :integer</text>
<text text-anchor="start" x="517.16" y="-381.8" font-family="Times,serif" font-size="14.00">action :string</text>
<text text-anchor="start" x="517.16" y="-367.8" font-family="Times,serif" font-size="14.00">trackable_id :integer</text>
<text text-anchor="start" x="517.16" y="-353.8" font-family="Times,serif" font-size="14.00">trackable_type :string</text>
<text text-anchor="start" x="517.16" y="-339.8" font-family="Times,serif" font-size="14.00">created_at :datetime</text>
<text text-anchor="start" x="517.16" y="-325.8" font-family="Times,serif" font-size="14.00">updated_at :datetime</text>
</g>
<!-- Affiliation -->
<g id="node5" class="node"><title>Affiliation</title>
<path fill="none" stroke="black" d="M960.495,-1118C960.495,-1118 1069.51,-1118 1069.51,-1118 1075.51,-1118 1081.51,-1124 1081.51,-1130 1081.51,-1130 1081.51,-1192 1081.51,-1192 1081.51,-1198 1075.51,-1204 1069.51,-1204 1069.51,-1204 960.495,-1204 960.495,-1204 954.495,-1204 948.495,-1198 948.495,-1192 948.495,-1192 948.495,-1130 948.495,-1130 948.495,-1124 954.495,-1118 960.495,-1118"/>
<text text-anchor="middle" x="1015" y="-1188.8" font-family="Times,serif" font-size="14.00">Affiliation</text>
<polyline fill="none" stroke="black" points="948.495,-1182 1081.51,-1182 "/>
<text text-anchor="start" x="956.495" y="-1166.8" font-family="Times,serif" font-size="14.00">id :integer</text>
<text text-anchor="start" x="956.495" y="-1152.8" font-family="Times,serif" font-size="14.00">name :string</text>
<text text-anchor="start" x="956.495" y="-1138.8" font-family="Times,serif" font-size="14.00">created_at :datetime</text>
<text text-anchor="start" x="956.495" y="-1124.8" font-family="Times,serif" font-size="14.00">updated_at :datetime</text>
</g>
<!-- Card -->
<g id="node7" class="node"><title>Card</title>
<path fill="none" stroke="black" d="M1081.7,-763C1081.7,-763 1206.3,-763 1206.3,-763 1212.3,-763 1218.3,-769 1218.3,-775 1218.3,-775 1218.3,-1061 1218.3,-1061 1218.3,-1067 1212.3,-1073 1206.3,-1073 1206.3,-1073 1081.7,-1073 1081.7,-1073 1075.7,-1073 1069.7,-1067 1069.7,-1061 1069.7,-1061 1069.7,-775 1069.7,-775 1069.7,-769 1075.7,-763 1081.7,-763"/>
<text text-anchor="middle" x="1144" y="-1057.8" font-family="Times,serif" font-size="14.00">Card</text>
<polyline fill="none" stroke="black" points="1069.7,-1051 1218.3,-1051 "/>
<text text-anchor="start" x="1077.7" y="-1035.8" font-family="Times,serif" font-size="14.00">id :integer</text>
<text text-anchor="start" x="1077.7" y="-1021.8" font-family="Times,serif" font-size="14.00">card_type_id :integer</text>
<text text-anchor="start" x="1077.7" y="-1007.8" font-family="Times,serif" font-size="14.00">name :string</text>
<text text-anchor="start" x="1077.7" y="-993.8" font-family="Times,serif" font-size="14.00">responsable_id :integer</text>
<text text-anchor="start" x="1077.7" y="-979.8" font-family="Times,serif" font-size="14.00">email :string</text>
<text text-anchor="start" x="1077.7" y="-965.8" font-family="Times,serif" font-size="14.00">street :string</text>
<text text-anchor="start" x="1077.7" y="-951.8" font-family="Times,serif" font-size="14.00">place :string</text>
<text text-anchor="start" x="1077.7" y="-937.8" font-family="Times,serif" font-size="14.00">website :string</text>
<text text-anchor="start" x="1077.7" y="-923.8" font-family="Times,serif" font-size="14.00">password_digest :string</text>
<text text-anchor="start" x="1077.7" y="-909.8" font-family="Times,serif" font-size="14.00">description :text</text>
<text text-anchor="start" x="1077.7" y="-895.8" font-family="Times,serif" font-size="14.00">affiliation :text</text>
<text text-anchor="start" x="1077.7" y="-881.8" font-family="Times,serif" font-size="14.00">validated :boolean</text>
<text text-anchor="start" x="1077.7" y="-867.8" font-family="Times,serif" font-size="14.00">created_at :datetime</text>
<text text-anchor="start" x="1077.7" y="-853.8" font-family="Times,serif" font-size="14.00">updated_at :datetime</text>
<text text-anchor="start" x="1077.7" y="-839.8" font-family="Times,serif" font-size="14.00">latitude :float</text>
<text text-anchor="start" x="1077.7" y="-825.8" font-family="Times,serif" font-size="14.00">longitude :float</text>
<text text-anchor="start" x="1077.7" y="-811.8" font-family="Times,serif" font-size="14.00">avatar :string</text>
<text text-anchor="start" x="1077.7" y="-797.8" font-family="Times,serif" font-size="14.00">banner :string</text>
<text text-anchor="start" x="1077.7" y="-783.8" font-family="Times,serif" font-size="14.00">card_id :integer</text>
<text text-anchor="start" x="1077.7" y="-769.8" font-family="Times,serif" font-size="14.00">location_id :integer</text>
</g>
<!-- Affiliation&#45;&gt;Card -->
<g id="edge7" class="edge"><title>Affiliation&#45;&gt;Card</title>
<path fill="none" stroke="#4b7d2b" d="M1042.52,-1108.59C1049.25,-1096.01 1056.79,-1081.92 1064.65,-1067.25"/>
<polygon fill="#4b7d2b" stroke="#4b7d2b" points="1042.34,-1108.93 1033.65,-1115.62 1039.98,-1113.34 1037.62,-1117.75 1037.62,-1117.75 1037.62,-1117.75 1039.98,-1113.34 1041.59,-1119.87 1042.34,-1108.93 1042.34,-1108.93"/>
<polygon fill="#4b7d2b" stroke="#4b7d2b" points="1064.85,-1066.86 1073.54,-1060.17 1067.21,-1062.45 1069.57,-1058.04 1069.57,-1058.04 1069.57,-1058.04 1067.21,-1062.45 1065.61,-1055.92 1064.85,-1066.86 1064.85,-1066.86"/>
</g>
<!-- CardAffiliation -->
<g id="node8" class="node"><title>CardAffiliation</title>
<path fill="none" stroke="black" d="M917.708,-569C917.708,-569 1028.29,-569 1028.29,-569 1034.29,-569 1040.29,-575 1040.29,-581 1040.29,-581 1040.29,-657 1040.29,-657 1040.29,-663 1034.29,-669 1028.29,-669 1028.29,-669 917.708,-669 917.708,-669 911.708,-669 905.708,-663 905.708,-657 905.708,-657 905.708,-581 905.708,-581 905.708,-575 911.708,-569 917.708,-569"/>
<text text-anchor="middle" x="973" y="-653.8" font-family="Times,serif" font-size="14.00">CardAffiliation</text>
<polyline fill="none" stroke="black" points="905.708,-647 1040.29,-647 "/>
<text text-anchor="start" x="913.708" y="-631.8" font-family="Times,serif" font-size="14.00">id :integer</text>
<text text-anchor="start" x="913.708" y="-617.8" font-family="Times,serif" font-size="14.00">card_id :integer</text>
<text text-anchor="start" x="913.708" y="-603.8" font-family="Times,serif" font-size="14.00">affiliation_id :integer</text>
<text text-anchor="start" x="913.708" y="-589.8" font-family="Times,serif" font-size="14.00">created_at :datetime</text>
<text text-anchor="start" x="913.708" y="-575.8" font-family="Times,serif" font-size="14.00">updated_at :datetime</text>
</g>
<!-- Affiliation&#45;&gt;CardAffiliation -->
<g id="edge6" class="edge"><title>Affiliation&#45;&gt;CardAffiliation</title>
<path fill="none" stroke="#5635f5" d="M1011.07,-1109.52C1003.29,-1009.44 985.936,-786.325 977.619,-679.386"/>
<ellipse fill="none" stroke="#5635f5" cx="1011.39" cy="-1113.64" rx="4" ry="4"/>
<polygon fill="#5635f5" stroke="#5635f5" points="977.594,-679.068 981.305,-668.749 977.207,-674.083 976.819,-669.098 976.819,-669.098 976.819,-669.098 977.207,-674.083 972.332,-669.447 977.594,-679.068 977.594,-679.068"/>
</g>
<!-- Canton -->
<g id="node6" class="node"><title>Canton</title>
<path fill="none" stroke="black" d="M1982.49,-1111C1982.49,-1111 2091.51,-1111 2091.51,-1111 2097.51,-1111 2103.51,-1117 2103.51,-1123 2103.51,-1123 2103.51,-1199 2103.51,-1199 2103.51,-1205 2097.51,-1211 2091.51,-1211 2091.51,-1211 1982.49,-1211 1982.49,-1211 1976.49,-1211 1970.49,-1205 1970.49,-1199 1970.49,-1199 1970.49,-1123 1970.49,-1123 1970.49,-1117 1976.49,-1111 1982.49,-1111"/>
<text text-anchor="middle" x="2037" y="-1195.8" font-family="Times,serif" font-size="14.00">Canton</text>
<polyline fill="none" stroke="black" points="1970.49,-1189 2103.51,-1189 "/>
<text text-anchor="start" x="1978.49" y="-1173.8" font-family="Times,serif" font-size="14.00">id :integer</text>
<text text-anchor="start" x="1978.49" y="-1159.8" font-family="Times,serif" font-size="14.00">name :string</text>
<text text-anchor="start" x="1978.49" y="-1145.8" font-family="Times,serif" font-size="14.00">abbreviation :string</text>
<text text-anchor="start" x="1978.49" y="-1131.8" font-family="Times,serif" font-size="14.00">created_at :datetime</text>
<text text-anchor="start" x="1978.49" y="-1117.8" font-family="Times,serif" font-size="14.00">updated_at :datetime</text>
</g>
<!-- Location -->
<g id="node14" class="node"><title>Location</title>
<path fill="none" stroke="black" d="M2029.49,-854C2029.49,-854 2138.51,-854 2138.51,-854 2144.51,-854 2150.51,-860 2150.51,-866 2150.51,-866 2150.51,-970 2150.51,-970 2150.51,-976 2144.51,-982 2138.51,-982 2138.51,-982 2029.49,-982 2029.49,-982 2023.49,-982 2017.49,-976 2017.49,-970 2017.49,-970 2017.49,-866 2017.49,-866 2017.49,-860 2023.49,-854 2029.49,-854"/>
<text text-anchor="middle" x="2084" y="-966.8" font-family="Times,serif" font-size="14.00">Location</text>
<polyline fill="none" stroke="black" points="2017.49,-960 2150.51,-960 "/>
<text text-anchor="start" x="2025.49" y="-944.8" font-family="Times,serif" font-size="14.00">id :integer</text>
<text text-anchor="start" x="2025.49" y="-930.8" font-family="Times,serif" font-size="14.00">npa :integer</text>
<text text-anchor="start" x="2025.49" y="-916.8" font-family="Times,serif" font-size="14.00">official_name :string</text>
<text text-anchor="start" x="2025.49" y="-902.8" font-family="Times,serif" font-size="14.00">post_name :string</text>
<text text-anchor="start" x="2025.49" y="-888.8" font-family="Times,serif" font-size="14.00">canton_id :integer</text>
<text text-anchor="start" x="2025.49" y="-874.8" font-family="Times,serif" font-size="14.00">created_at :datetime</text>
<text text-anchor="start" x="2025.49" y="-860.8" font-family="Times,serif" font-size="14.00">updated_at :datetime</text>
</g>
<!-- Canton&#45;&gt;Location -->
<g id="edge9" class="edge"><title>Canton&#45;&gt;Location</title>
<path fill="none" stroke="#5f0c2c" d="M2048.14,-1102.9C2054.6,-1069.73 2062.82,-1027.61 2069.75,-992.044"/>
<ellipse fill="none" stroke="#5f0c2c" cx="2047.33" cy="-1107.01" rx="4.00001" ry="4.00001"/>
<polygon fill="#5f0c2c" stroke="#5f0c2c" points="2069.76,-992.016 2076.09,-983.062 2070.72,-987.108 2071.67,-982.201 2071.67,-982.201 2071.67,-982.201 2070.72,-987.108 2067.26,-981.339 2069.76,-992.016 2069.76,-992.016"/>
</g>
<!-- Card&#45;&gt;Card -->
<g id="edge19" class="edge"><title>Card&#45;&gt;Card</title>
<path fill="none" stroke="#fb2b57" d="M1224.75,-953.395C1231.68,-945.861 1236,-934.063 1236,-918 1236,-901.937 1231.68,-890.139 1224.75,-882.605"/>
<ellipse fill="none" stroke="#fb2b57" cx="1221.43" cy="-956.159" rx="4.00002" ry="4.00002"/>
<ellipse fill="#fb2b57" stroke="#fb2b57" cx="1221.43" cy="-879.841" rx="4.00002" ry="4.00002"/>
</g>
<!-- Card&#45;&gt;CardAffiliation -->
<g id="edge15" class="edge"><title>Card&#45;&gt;CardAffiliation</title>
<path fill="none" stroke="#05147b" d="M1065.23,-780.185C1044.48,-744.143 1023.19,-707.177 1006.31,-677.851"/>
<ellipse fill="none" stroke="#05147b" cx="1067.5" cy="-784.129" rx="4.00002" ry="4.00002"/>
<polygon fill="#05147b" stroke="#05147b" points="1006.2,-677.671 1005.11,-666.759 1003.71,-673.338 1001.21,-669.004 1001.21,-669.004 1001.21,-669.004 1003.71,-673.338 997.315,-671.25 1006.2,-677.671 1006.2,-677.671"/>
</g>
<!-- CardResponsable -->
<g id="node9" class="node"><title>CardResponsable</title>
<path fill="none" stroke="black" d="M1215.88,-333C1215.88,-333 1338.12,-333 1338.12,-333 1344.12,-333 1350.12,-339 1350.12,-345 1350.12,-345 1350.12,-421 1350.12,-421 1350.12,-427 1344.12,-433 1338.12,-433 1338.12,-433 1215.88,-433 1215.88,-433 1209.88,-433 1203.88,-427 1203.88,-421 1203.88,-421 1203.88,-345 1203.88,-345 1203.88,-339 1209.88,-333 1215.88,-333"/>
<text text-anchor="middle" x="1277" y="-417.8" font-family="Times,serif" font-size="14.00">CardResponsable</text>
<polyline fill="none" stroke="black" points="1203.88,-411 1350.12,-411 "/>
<text text-anchor="start" x="1211.88" y="-395.8" font-family="Times,serif" font-size="14.00">id :integer</text>
<text text-anchor="start" x="1211.88" y="-381.8" font-family="Times,serif" font-size="14.00">card_id :integer</text>
<text text-anchor="start" x="1211.88" y="-367.8" font-family="Times,serif" font-size="14.00">responsable_id :integer</text>
<text text-anchor="start" x="1211.88" y="-353.8" font-family="Times,serif" font-size="14.00">created_at :datetime</text>
<text text-anchor="start" x="1211.88" y="-339.8" font-family="Times,serif" font-size="14.00">updated_at :datetime</text>
</g>
<!-- Card&#45;&gt;CardResponsable -->
<g id="edge11" class="edge"><title>Card&#45;&gt;CardResponsable</title>
<path fill="none" stroke="#740a58" d="M1130.34,-754.641C1129.7,-678.48 1137.45,-587.98 1168,-512 1178.52,-485.831 1196.63,-461.18 1215.1,-440.63"/>
<ellipse fill="none" stroke="#740a58" cx="1130.39" cy="-758.908" rx="4" ry="4"/>
<polygon fill="#740a58" stroke="#740a58" points="1215.13,-440.6 1225.22,-436.3 1218.52,-436.924 1221.91,-433.249 1221.91,-433.249 1221.91,-433.249 1218.52,-436.924 1218.6,-430.198 1215.13,-440.6 1215.13,-440.6"/>
</g>
<!-- CardVerification -->
<g id="node11" class="node"><title>CardVerification</title>
<path fill="none" stroke="black" d="M676.495,-333C676.495,-333 785.505,-333 785.505,-333 791.505,-333 797.505,-339 797.505,-345 797.505,-345 797.505,-421 797.505,-421 797.505,-427 791.505,-433 785.505,-433 785.505,-433 676.495,-433 676.495,-433 670.495,-433 664.495,-427 664.495,-421 664.495,-421 664.495,-345 664.495,-345 664.495,-339 670.495,-333 676.495,-333"/>
<text text-anchor="middle" x="731" y="-417.8" font-family="Times,serif" font-size="14.00">CardVerification</text>
<polyline fill="none" stroke="black" points="664.495,-411 797.505,-411 "/>
<text text-anchor="start" x="672.495" y="-395.8" font-family="Times,serif" font-size="14.00">id :integer</text>
<text text-anchor="start" x="672.495" y="-381.8" font-family="Times,serif" font-size="14.00">card_id :integer</text>
<text text-anchor="start" x="672.495" y="-367.8" font-family="Times,serif" font-size="14.00">user_id :integer</text>
<text text-anchor="start" x="672.495" y="-353.8" font-family="Times,serif" font-size="14.00">created_at :datetime</text>
<text text-anchor="start" x="672.495" y="-339.8" font-family="Times,serif" font-size="14.00">updated_at :datetime</text>
</g>
<!-- Card&#45;&gt;CardVerification -->
<g id="edge13" class="edge"><title>Card&#45;&gt;CardVerification</title>
<path fill="none" stroke="#9079f7" d="M1089.44,-754.966C1086.77,-745.209 1084.26,-735.501 1082,-726 1070.87,-679.187 1083.12,-545.923 1049,-512 971.571,-435.028 900.912,-529.961 806,-476 790.875,-467.401 777.569,-454.467 766.527,-440.993"/>
<ellipse fill="none" stroke="#9079f7" cx="1090.55" cy="-758.945" rx="4.00001" ry="4.00001"/>
<polygon fill="#9079f7" stroke="#9079f7" points="766.454,-440.9 763.834,-430.252 763.372,-436.963 760.291,-433.026 760.291,-433.026 760.291,-433.026 763.372,-436.963 756.747,-435.799 766.454,-440.9 766.454,-440.9"/>
</g>
<!-- Responsable -->
<g id="node25" class="node"><title>Responsable</title>
<path fill="none" stroke="black" d="M1222.49,-562C1222.49,-562 1331.51,-562 1331.51,-562 1337.51,-562 1343.51,-568 1343.51,-574 1343.51,-574 1343.51,-664 1343.51,-664 1343.51,-670 1337.51,-676 1331.51,-676 1331.51,-676 1222.49,-676 1222.49,-676 1216.49,-676 1210.49,-670 1210.49,-664 1210.49,-664 1210.49,-574 1210.49,-574 1210.49,-568 1216.49,-562 1222.49,-562"/>
<text text-anchor="middle" x="1277" y="-660.8" font-family="Times,serif" font-size="14.00">Responsable</text>
<polyline fill="none" stroke="black" points="1210.49,-654 1343.51,-654 "/>
<text text-anchor="start" x="1218.49" y="-638.8" font-family="Times,serif" font-size="14.00">id :integer</text>
<text text-anchor="start" x="1218.49" y="-624.8" font-family="Times,serif" font-size="14.00">firstname :string</text>
<text text-anchor="start" x="1218.49" y="-610.8" font-family="Times,serif" font-size="14.00">lastname :string</text>
<text text-anchor="start" x="1218.49" y="-596.8" font-family="Times,serif" font-size="14.00">email :string</text>
<text text-anchor="start" x="1218.49" y="-582.8" font-family="Times,serif" font-size="14.00">created_at :datetime</text>
<text text-anchor="start" x="1218.49" y="-568.8" font-family="Times,serif" font-size="14.00">updated_at :datetime</text>
</g>
<!-- Card&#45;&gt;Responsable -->
<g id="edge12" class="edge"><title>Card&#45;&gt;Responsable</title>
<path fill="none" stroke="#bdb368" d="M1217.26,-753.393C1228.06,-729.279 1238.62,-705.702 1247.78,-685.241"/>
<polygon fill="#bdb368" stroke="#bdb368" points="1217.12,-753.719 1208.93,-761.006 1215.08,-758.282 1213.03,-762.845 1213.03,-762.845 1213.03,-762.845 1215.08,-758.282 1217.14,-764.685 1217.12,-753.719 1217.12,-753.719"/>
<polygon fill="#bdb368" stroke="#bdb368" points="1247.81,-685.195 1256,-677.907 1249.85,-680.631 1251.89,-676.068 1251.89,-676.068 1251.89,-676.068 1249.85,-680.631 1247.79,-674.229 1247.81,-685.195 1247.81,-685.195"/>
</g>
<!-- Tag -->
<g id="node26" class="node"><title>Tag</title>
<path fill="none" stroke="black" d="M1412.49,-569C1412.49,-569 1521.51,-569 1521.51,-569 1527.51,-569 1533.51,-575 1533.51,-581 1533.51,-581 1533.51,-657 1533.51,-657 1533.51,-663 1527.51,-669 1521.51,-669 1521.51,-669 1412.49,-669 1412.49,-669 1406.49,-669 1400.49,-663 1400.49,-657 1400.49,-657 1400.49,-581 1400.49,-581 1400.49,-575 1406.49,-569 1412.49,-569"/>
<text text-anchor="middle" x="1467" y="-653.8" font-family="Times,serif" font-size="14.00">Tag</text>
<polyline fill="none" stroke="black" points="1400.49,-647 1533.51,-647 "/>
<text text-anchor="start" x="1408.49" y="-631.8" font-family="Times,serif" font-size="14.00">id :integer</text>
<text text-anchor="start" x="1408.49" y="-617.8" font-family="Times,serif" font-size="14.00">name :string</text>
<text text-anchor="start" x="1408.49" y="-603.8" font-family="Times,serif" font-size="14.00">popularity :integer</text>
<text text-anchor="start" x="1408.49" y="-589.8" font-family="Times,serif" font-size="14.00">created_at :datetime</text>
<text text-anchor="start" x="1408.49" y="-575.8" font-family="Times,serif" font-size="14.00">updated_at :datetime</text>
</g>
<!-- Card&#45;&gt;Tag -->
<g id="edge17" class="edge"><title>Card&#45;&gt;Tag</title>
<path fill="none" stroke="#97fd8a" d="M1226.18,-841.598C1264.45,-806.478 1310.56,-764.121 1352,-726 1369.66,-709.753 1388.83,-692.091 1406.37,-675.927"/>
<polygon fill="#97fd8a" stroke="#97fd8a" points="1226.01,-841.76 1215.6,-845.207 1222.32,-845.141 1218.64,-848.522 1218.64,-848.522 1218.64,-848.522 1222.32,-845.141 1221.68,-851.837 1226.01,-841.76 1226.01,-841.76"/>
<polygon fill="#97fd8a" stroke="#97fd8a" points="1406.42,-675.878 1416.82,-672.409 1410.1,-672.489 1413.77,-669.1 1413.77,-669.1 1413.77,-669.1 1410.1,-672.489 1410.72,-665.792 1406.42,-675.878 1406.42,-675.878"/>
</g>
<!-- Tagging -->
<g id="node27" class="node"><title>Tagging</title>
<path fill="none" stroke="black" d="M1412.49,-333C1412.49,-333 1521.51,-333 1521.51,-333 1527.51,-333 1533.51,-339 1533.51,-345 1533.51,-345 1533.51,-421 1533.51,-421 1533.51,-427 1527.51,-433 1521.51,-433 1521.51,-433 1412.49,-433 1412.49,-433 1406.49,-433 1400.49,-427 1400.49,-421 1400.49,-421 1400.49,-345 1400.49,-345 1400.49,-339 1406.49,-333 1412.49,-333"/>
<text text-anchor="middle" x="1467" y="-417.8" font-family="Times,serif" font-size="14.00">Tagging</text>
<polyline fill="none" stroke="black" points="1400.49,-411 1533.51,-411 "/>
<text text-anchor="start" x="1408.49" y="-395.8" font-family="Times,serif" font-size="14.00">id :integer</text>
<text text-anchor="start" x="1408.49" y="-381.8" font-family="Times,serif" font-size="14.00">card_id :integer</text>
<text text-anchor="start" x="1408.49" y="-367.8" font-family="Times,serif" font-size="14.00">tag_id :integer</text>
<text text-anchor="start" x="1408.49" y="-353.8" font-family="Times,serif" font-size="14.00">created_at :datetime</text>
<text text-anchor="start" x="1408.49" y="-339.8" font-family="Times,serif" font-size="14.00">updated_at :datetime</text>
</g>
<!-- Card&#45;&gt;Tagging -->
<g id="edge16" class="edge"><title>Card&#45;&gt;Tagging</title>
<path fill="none" stroke="#214244" d="M1162.58,-754.663C1175.71,-646.059 1192.43,-521.324 1201,-512 1249.74,-458.974 1294.62,-508.283 1359,-476 1377.73,-466.607 1395.94,-453.296 1411.91,-439.709"/>
<ellipse fill="none" stroke="#214244" cx="1162.08" cy="-758.813" rx="4.00001" ry="4.00001"/>
<polygon fill="#214244" stroke="#214244" points="1412.02,-439.608 1422.52,-436.423 1415.79,-436.32 1419.56,-433.032 1419.56,-433.032 1419.56,-433.032 1415.79,-436.32 1416.6,-429.642 1412.02,-439.608 1412.02,-439.608"/>
</g>
<!-- User -->
<g id="node29" class="node"><title>User</title>
<path fill="none" stroke="black" d="M655.936,-513C655.936,-513 782.064,-513 782.064,-513 788.064,-513 794.064,-519 794.064,-525 794.064,-525 794.064,-713 794.064,-713 794.064,-719 788.064,-725 782.064,-725 782.064,-725 655.936,-725 655.936,-725 649.936,-725 643.936,-719 643.936,-713 643.936,-713 643.936,-525 643.936,-525 643.936,-519 649.936,-513 655.936,-513"/>
<text text-anchor="middle" x="719" y="-709.8" font-family="Times,serif" font-size="14.00">User</text>
<polyline fill="none" stroke="black" points="643.936,-703 794.064,-703 "/>
<text text-anchor="start" x="651.936" y="-687.8" font-family="Times,serif" font-size="14.00">id :integer</text>
<text text-anchor="start" x="651.936" y="-673.8" font-family="Times,serif" font-size="14.00">email :string</text>
<text text-anchor="start" x="651.936" y="-659.8" font-family="Times,serif" font-size="14.00">gravatar_email :string</text>
<text text-anchor="start" x="651.936" y="-645.8" font-family="Times,serif" font-size="14.00">password_digest :string</text>
<text text-anchor="start" x="651.936" y="-631.8" font-family="Times,serif" font-size="14.00">remember_token :string</text>
<text text-anchor="start" x="651.936" y="-617.8" font-family="Times,serif" font-size="14.00">user_type_id :integer</text>
<text text-anchor="start" x="651.936" y="-603.8" font-family="Times,serif" font-size="14.00">uid :string</text>
<text text-anchor="start" x="651.936" y="-589.8" font-family="Times,serif" font-size="14.00">created_at :datetime</text>
<text text-anchor="start" x="651.936" y="-575.8" font-family="Times,serif" font-size="14.00">updated_at :datetime</text>
<text text-anchor="start" x="651.936" y="-561.8" font-family="Times,serif" font-size="14.00">reset_token :string</text>
<text text-anchor="start" x="651.936" y="-547.8" font-family="Times,serif" font-size="14.00">reset_sent_at :datetime</text>
<text text-anchor="start" x="651.936" y="-533.8" font-family="Times,serif" font-size="14.00">firstname :string</text>
<text text-anchor="start" x="651.936" y="-519.8" font-family="Times,serif" font-size="14.00">lastname :string</text>
</g>
<!-- Card&#45;&gt;User -->
<g id="edge14" class="edge"><title>Card&#45;&gt;User</title>
<path fill="none" stroke="#6b7af6" d="M1061.17,-859.115C986.578,-806.99 877.48,-730.75 802.641,-678.451"/>
<polygon fill="#6b7af6" stroke="#6b7af6" points="1061.29,-859.198 1066.91,-868.615 1065.39,-862.063 1069.48,-864.927 1069.48,-864.927 1069.48,-864.927 1065.39,-862.063 1072.06,-861.238 1061.29,-859.198 1061.29,-859.198"/>
<polygon fill="#6b7af6" stroke="#6b7af6" points="802.342,-678.241 796.723,-668.825 798.244,-675.377 794.145,-672.513 794.145,-672.513 794.145,-672.513 798.244,-675.377 791.568,-676.202 802.342,-678.241 802.342,-678.241"/>
</g>
<!-- VerificatorComment -->
<g id="node31" class="node"><title>VerificatorComment</title>
<path fill="none" stroke="black" d="M978.495,-326C978.495,-326 1087.51,-326 1087.51,-326 1093.51,-326 1099.51,-332 1099.51,-338 1099.51,-338 1099.51,-428 1099.51,-428 1099.51,-434 1093.51,-440 1087.51,-440 1087.51,-440 978.495,-440 978.495,-440 972.495,-440 966.495,-434 966.495,-428 966.495,-428 966.495,-338 966.495,-338 966.495,-332 972.495,-326 978.495,-326"/>
<text text-anchor="middle" x="1033" y="-424.8" font-family="Times,serif" font-size="14.00">VerificatorComment</text>
<polyline fill="none" stroke="black" points="966.495,-418 1099.51,-418 "/>
<text text-anchor="start" x="974.495" y="-402.8" font-family="Times,serif" font-size="14.00">id :integer</text>
<text text-anchor="start" x="974.495" y="-388.8" font-family="Times,serif" font-size="14.00">content :text</text>
<text text-anchor="start" x="974.495" y="-374.8" font-family="Times,serif" font-size="14.00">user_id :integer</text>
<text text-anchor="start" x="974.495" y="-360.8" font-family="Times,serif" font-size="14.00">card_id :integer</text>
<text text-anchor="start" x="974.495" y="-346.8" font-family="Times,serif" font-size="14.00">created_at :datetime</text>
<text text-anchor="start" x="974.495" y="-332.8" font-family="Times,serif" font-size="14.00">updated_at :datetime</text>
</g>
<!-- Card&#45;&gt;VerificatorComment -->
<g id="edge18" class="edge"><title>Card&#45;&gt;VerificatorComment</title>
<path fill="none" stroke="#ee1cc6" d="M1127.17,-754.421C1117.4,-679.798 1102.81,-590.62 1082,-512 1076.53,-491.342 1068.87,-469.427 1061.23,-449.677"/>
<ellipse fill="none" stroke="#ee1cc6" cx="1127.71" cy="-758.552" rx="4.00001" ry="4.00001"/>
<polygon fill="#ee1cc6" stroke="#ee1cc6" points="1061.15,-449.476 1061.67,-438.523 1059.32,-444.824 1057.49,-440.171 1057.49,-440.171 1057.49,-440.171 1059.32,-444.824 1053.3,-441.819 1061.15,-449.476 1061.15,-449.476"/>
</g>
<!-- CardType -->
<g id="node10" class="node"><title>CardType</title>
<path fill="none" stroke="black" d="M1111.49,-1118C1111.49,-1118 1220.51,-1118 1220.51,-1118 1226.51,-1118 1232.51,-1124 1232.51,-1130 1232.51,-1130 1232.51,-1192 1232.51,-1192 1232.51,-1198 1226.51,-1204 1220.51,-1204 1220.51,-1204 1111.49,-1204 1111.49,-1204 1105.49,-1204 1099.49,-1198 1099.49,-1192 1099.49,-1192 1099.49,-1130 1099.49,-1130 1099.49,-1124 1105.49,-1118 1111.49,-1118"/>
<text text-anchor="middle" x="1166" y="-1188.8" font-family="Times,serif" font-size="14.00">CardType</text>
<polyline fill="none" stroke="black" points="1099.49,-1182 1232.51,-1182 "/>
<text text-anchor="start" x="1107.49" y="-1166.8" font-family="Times,serif" font-size="14.00">id :integer</text>
<text text-anchor="start" x="1107.49" y="-1152.8" font-family="Times,serif" font-size="14.00">name :string</text>
<text text-anchor="start" x="1107.49" y="-1138.8" font-family="Times,serif" font-size="14.00">created_at :datetime</text>
<text text-anchor="start" x="1107.49" y="-1124.8" font-family="Times,serif" font-size="14.00">updated_at :datetime</text>
</g>
<!-- CardType&#45;&gt;Card -->
<g id="edge23" class="edge"><title>CardType&#45;&gt;Card</title>
<path fill="none" stroke="#0ebda4" d="M1161.39,-1109.51C1160.65,-1101.36 1159.84,-1092.56 1159,-1083.36"/>
<ellipse fill="none" stroke="#0ebda4" cx="1161.78" cy="-1113.76" rx="4" ry="4"/>
<polygon fill="#0ebda4" stroke="#0ebda4" points="1158.99,-1083.2 1162.56,-1072.83 1158.53,-1078.22 1158.08,-1073.24 1158.08,-1073.24 1158.08,-1073.24 1158.53,-1078.22 1153.6,-1073.65 1158.99,-1083.2 1158.99,-1083.2"/>
</g>
<!-- Disponibility -->
<g id="node12" class="node"><title>Disponibility</title>
<path fill="none" stroke="black" d="M1640.49,-576C1640.49,-576 1749.51,-576 1749.51,-576 1755.51,-576 1761.51,-582 1761.51,-588 1761.51,-588 1761.51,-650 1761.51,-650 1761.51,-656 1755.51,-662 1749.51,-662 1749.51,-662 1640.49,-662 1640.49,-662 1634.49,-662 1628.49,-656 1628.49,-650 1628.49,-650 1628.49,-588 1628.49,-588 1628.49,-582 1634.49,-576 1640.49,-576"/>
<text text-anchor="middle" x="1695" y="-646.8" font-family="Times,serif" font-size="14.00">Disponibility</text>
<polyline fill="none" stroke="black" points="1628.49,-640 1761.51,-640 "/>
<text text-anchor="start" x="1636.49" y="-624.8" font-family="Times,serif" font-size="14.00">id :integer</text>
<text text-anchor="start" x="1636.49" y="-610.8" font-family="Times,serif" font-size="14.00">name :string</text>
<text text-anchor="start" x="1636.49" y="-596.8" font-family="Times,serif" font-size="14.00">created_at :datetime</text>
<text text-anchor="start" x="1636.49" y="-582.8" font-family="Times,serif" font-size="14.00">updated_at :datetime</text>
</g>
<!-- Orator -->
<g id="node15" class="node"><title>Orator</title>
<path fill="none" stroke="black" d="M1678.49,-312C1678.49,-312 1787.51,-312 1787.51,-312 1793.51,-312 1799.51,-318 1799.51,-324 1799.51,-324 1799.51,-442 1799.51,-442 1799.51,-448 1793.51,-454 1787.51,-454 1787.51,-454 1678.49,-454 1678.49,-454 1672.49,-454 1666.49,-448 1666.49,-442 1666.49,-442 1666.49,-324 1666.49,-324 1666.49,-318 1672.49,-312 1678.49,-312"/>
<text text-anchor="middle" x="1733" y="-438.8" font-family="Times,serif" font-size="14.00">Orator</text>
<polyline fill="none" stroke="black" points="1666.49,-432 1799.51,-432 "/>
<text text-anchor="start" x="1674.49" y="-416.8" font-family="Times,serif" font-size="14.00">id :integer</text>
<text text-anchor="start" x="1674.49" y="-402.8" font-family="Times,serif" font-size="14.00">user_id :integer</text>
<text text-anchor="start" x="1674.49" y="-388.8" font-family="Times,serif" font-size="14.00">street :string</text>
<text text-anchor="start" x="1674.49" y="-374.8" font-family="Times,serif" font-size="14.00">location_id :integer</text>
<text text-anchor="start" x="1674.49" y="-360.8" font-family="Times,serif" font-size="14.00">phone :string</text>
<text text-anchor="start" x="1674.49" y="-346.8" font-family="Times,serif" font-size="14.00">disponibility :string</text>
<text text-anchor="start" x="1674.49" y="-332.8" font-family="Times,serif" font-size="14.00">created_at :datetime</text>
<text text-anchor="start" x="1674.49" y="-318.8" font-family="Times,serif" font-size="14.00">updated_at :datetime</text>
</g>
<!-- Disponibility&#45;&gt;Orator -->
<g id="edge27" class="edge"><title>Disponibility&#45;&gt;Orator</title>
<path fill="none" stroke="#7bb524" d="M1703.44,-566.024C1708.28,-536.199 1714.47,-498.113 1719.93,-464.496"/>
<polygon fill="#7bb524" stroke="#7bb524" points="1703.44,-566.025 1697.4,-575.174 1702.64,-570.96 1701.84,-575.895 1701.84,-575.895 1701.84,-575.895 1702.64,-570.96 1706.28,-576.617 1703.44,-566.025 1703.44,-566.025"/>
<polygon fill="#7bb524" stroke="#7bb524" points="1719.99,-464.091 1726.04,-454.942 1720.8,-459.156 1721.6,-454.221 1721.6,-454.221 1721.6,-454.221 1720.8,-459.156 1717.15,-453.499 1719.99,-464.091 1719.99,-464.091"/>
</g>
<!-- OratorDisponibility -->
<g id="node16" class="node"><title>OratorDisponibility</title>
<path fill="none" stroke="black" d="M1570.53,-146C1570.53,-146 1697.47,-146 1697.47,-146 1703.47,-146 1709.47,-152 1709.47,-158 1709.47,-158 1709.47,-234 1709.47,-234 1709.47,-240 1703.47,-246 1697.47,-246 1697.47,-246 1570.53,-246 1570.53,-246 1564.53,-246 1558.53,-240 1558.53,-234 1558.53,-234 1558.53,-158 1558.53,-158 1558.53,-152 1564.53,-146 1570.53,-146"/>
<text text-anchor="middle" x="1634" y="-230.8" font-family="Times,serif" font-size="14.00">OratorDisponibility</text>
<polyline fill="none" stroke="black" points="1558.53,-224 1709.47,-224 "/>
<text text-anchor="start" x="1566.53" y="-208.8" font-family="Times,serif" font-size="14.00">id :integer</text>
<text text-anchor="start" x="1566.53" y="-194.8" font-family="Times,serif" font-size="14.00">orator_id :integer</text>
<text text-anchor="start" x="1566.53" y="-180.8" font-family="Times,serif" font-size="14.00">disponibility_id :integer</text>
<text text-anchor="start" x="1566.53" y="-166.8" font-family="Times,serif" font-size="14.00">created_at :datetime</text>
<text text-anchor="start" x="1566.53" y="-152.8" font-family="Times,serif" font-size="14.00">updated_at :datetime</text>
</g>
<!-- Disponibility&#45;&gt;OratorDisponibility -->
<g id="edge26" class="edge"><title>Disponibility&#45;&gt;OratorDisponibility</title>
<path fill="none" stroke="#0659a4" d="M1679.3,-568.099C1671.4,-541.097 1662.38,-507.009 1657,-476 1643.97,-400.942 1638.27,-313.203 1635.82,-256.451"/>
<ellipse fill="none" stroke="#0659a4" cx="1680.46" cy="-572.044" rx="4.00001" ry="4.00001"/>
<polygon fill="#0659a4" stroke="#0659a4" points="1635.81,-256.216 1639.89,-246.038 1635.6,-251.22 1635.39,-246.224 1635.39,-246.224 1635.39,-246.224 1635.6,-251.22 1630.9,-246.41 1635.81,-256.216 1635.81,-256.216"/>
</g>
<!-- Element -->
<g id="node13" class="node"><title>Element</title>
<path fill="none" stroke="black" d="M239.495,-875C239.495,-875 348.505,-875 348.505,-875 354.505,-875 360.505,-881 360.505,-887 360.505,-887 360.505,-949 360.505,-949 360.505,-955 354.505,-961 348.505,-961 348.505,-961 239.495,-961 239.495,-961 233.495,-961 227.495,-955 227.495,-949 227.495,-949 227.495,-887 227.495,-887 227.495,-881 233.495,-875 239.495,-875"/>
<text text-anchor="middle" x="294" y="-945.8" font-family="Times,serif" font-size="14.00">Element</text>
<polyline fill="none" stroke="black" points="227.495,-939 360.505,-939 "/>
<text text-anchor="start" x="235.495" y="-923.8" font-family="Times,serif" font-size="14.00">id :integer</text>
<text text-anchor="start" x="235.495" y="-909.8" font-family="Times,serif" font-size="14.00">name :string</text>
<text text-anchor="start" x="235.495" y="-895.8" font-family="Times,serif" font-size="14.00">created_at :datetime</text>
<text text-anchor="start" x="235.495" y="-881.8" font-family="Times,serif" font-size="14.00">updated_at :datetime</text>
</g>
<!-- Element&#45;&gt;Ownership -->
<g id="edge29" class="edge"><title>Element&#45;&gt;Ownership</title>
<path fill="none" stroke="#451420" d="M294,-866.621C294,-779.512 294,-599.167 294,-485.289"/>
<ellipse fill="none" stroke="#451420" cx="294" cy="-870.731" rx="4" ry="4"/>
<polygon fill="#451420" stroke="#451420" points="294,-485.164 298.5,-475.164 294,-480.164 294,-475.164 294,-475.164 294,-475.164 294,-480.164 289.5,-475.164 294,-485.164 294,-485.164"/>
</g>
<!-- Orator&#45;&gt;OratorDisponibility -->
<g id="edge34" class="edge"><title>Orator&#45;&gt;OratorDisponibility</title>
<path fill="none" stroke="#6885d6" d="M1691.56,-304.562C1682.72,-288.035 1673.52,-270.849 1665.14,-255.192"/>
<ellipse fill="none" stroke="#6885d6" cx="1693.54" cy="-308.269" rx="4.00002" ry="4.00002"/>
<polygon fill="#6885d6" stroke="#6885d6" points="1665.03,-254.983 1664.28,-244.043 1662.67,-250.574 1660.31,-246.166 1660.31,-246.166 1660.31,-246.166 1662.67,-250.574 1656.34,-248.289 1665.03,-254.983 1665.03,-254.983"/>
</g>
<!-- OratorTheme -->
<g id="node17" class="node"><title>OratorTheme</title>
<path fill="none" stroke="black" d="M1777.49,-1C1777.49,-1 1886.51,-1 1886.51,-1 1892.51,-1 1898.51,-7 1898.51,-13 1898.51,-13 1898.51,-89 1898.51,-89 1898.51,-95 1892.51,-101 1886.51,-101 1886.51,-101 1777.49,-101 1777.49,-101 1771.49,-101 1765.49,-95 1765.49,-89 1765.49,-89 1765.49,-13 1765.49,-13 1765.49,-7 1771.49,-1 1777.49,-1"/>
<text text-anchor="middle" x="1832" y="-85.8" font-family="Times,serif" font-size="14.00">OratorTheme</text>
<polyline fill="none" stroke="black" points="1765.49,-79 1898.51,-79 "/>
<text text-anchor="start" x="1773.49" y="-63.8" font-family="Times,serif" font-size="14.00">id :integer</text>
<text text-anchor="start" x="1773.49" y="-49.8" font-family="Times,serif" font-size="14.00">orator_id :integer</text>
<text text-anchor="start" x="1773.49" y="-35.8" font-family="Times,serif" font-size="14.00">theme_id :integer</text>
<text text-anchor="start" x="1773.49" y="-21.8" font-family="Times,serif" font-size="14.00">created_at :datetime</text>
<text text-anchor="start" x="1773.49" y="-7.8" font-family="Times,serif" font-size="14.00">updated_at :datetime</text>
</g>
<!-- Orator&#45;&gt;OratorTheme -->
<g id="edge32" class="edge"><title>Orator&#45;&gt;OratorTheme</title>
<path fill="none" stroke="#8e4cfc" d="M1728.25,-303.733C1728.13,-254.298 1733.41,-190.146 1756,-138 1760.37,-127.922 1766.38,-118.196 1773.12,-109.138"/>
<ellipse fill="none" stroke="#8e4cfc" cx="1728.28" cy="-307.848" rx="4" ry="4"/>
<polygon fill="#8e4cfc" stroke="#8e4cfc" points="1773.32,-108.884 1783.03,-103.795 1776.41,-104.951 1779.49,-101.017 1779.49,-101.017 1779.49,-101.017 1776.41,-104.951 1775.95,-98.2392 1773.32,-108.884 1773.32,-108.884"/>
</g>
<!-- Theme -->
<g id="node28" class="node"><title>Theme</title>
<path fill="none" stroke="black" d="M1777.49,-146C1777.49,-146 1886.51,-146 1886.51,-146 1892.51,-146 1898.51,-152 1898.51,-158 1898.51,-158 1898.51,-234 1898.51,-234 1898.51,-240 1892.51,-246 1886.51,-246 1886.51,-246 1777.49,-246 1777.49,-246 1771.49,-246 1765.49,-240 1765.49,-234 1765.49,-234 1765.49,-158 1765.49,-158 1765.49,-152 1771.49,-146 1777.49,-146"/>
<text text-anchor="middle" x="1832" y="-230.8" font-family="Times,serif" font-size="14.00">Theme</text>
<polyline fill="none" stroke="black" points="1765.49,-224 1898.51,-224 "/>
<text text-anchor="start" x="1773.49" y="-208.8" font-family="Times,serif" font-size="14.00">id :integer</text>
<text text-anchor="start" x="1773.49" y="-194.8" font-family="Times,serif" font-size="14.00">name :string</text>
<text text-anchor="start" x="1773.49" y="-180.8" font-family="Times,serif" font-size="14.00">description :text</text>
<text text-anchor="start" x="1773.49" y="-166.8" font-family="Times,serif" font-size="14.00">created_at :datetime</text>
<text text-anchor="start" x="1773.49" y="-152.8" font-family="Times,serif" font-size="14.00">updated_at :datetime</text>
</g>
<!-- Orator&#45;&gt;Theme -->
<g id="edge33" class="edge"><title>Orator&#45;&gt;Theme</title>
<path fill="none" stroke="#8e5127" d="M1775.42,-302.738C1783.93,-286.825 1792.73,-270.378 1800.78,-255.334"/>
<polygon fill="#8e5127" stroke="#8e5127" points="1775.29,-302.979 1766.6,-309.672 1772.93,-307.387 1770.57,-311.796 1770.57,-311.796 1770.57,-311.796 1772.93,-307.387 1774.54,-313.919 1775.29,-302.979 1775.29,-302.979"/>
<polygon fill="#8e5127" stroke="#8e5127" points="1800.97,-254.983 1809.66,-248.289 1803.33,-250.574 1805.69,-246.166 1805.69,-246.166 1805.69,-246.166 1803.33,-250.574 1801.72,-244.043 1800.97,-254.983 1800.97,-254.983"/>
</g>
<!-- Ownership&#45;&gt;AccessToken -->
<g id="edge39" class="edge"><title>Ownership&#45;&gt;AccessToken</title>
<path fill="none" stroke="#55fc83" d="M349.835,-283.624C353.998,-276.29 358.132,-269.005 362.134,-261.955"/>
<ellipse fill="none" stroke="#55fc83" cx="347.705" cy="-287.376" rx="4.00002" ry="4.00002"/>
<polygon fill="#55fc83" stroke="#55fc83" points="362.187,-261.862 371.036,-255.386 364.655,-257.513 367.123,-253.165 367.123,-253.165 367.123,-253.165 364.655,-257.513 363.209,-250.944 362.187,-261.862 362.187,-261.862"/>
</g>
<!-- Ownership&#45;&gt;OwnershipAction -->
<g id="edge38" class="edge"><title>Ownership&#45;&gt;OwnershipAction</title>
<path fill="none" stroke="#392e32" d="M223.57,-284.034C216.326,-273.957 209.143,-263.966 202.369,-254.543"/>
<ellipse fill="none" stroke="#392e32" cx="226.139" cy="-287.607" rx="4.00002" ry="4.00002"/>
<polygon fill="#392e32" stroke="#392e32" points="202.367,-254.54 200.183,-243.794 199.448,-250.481 196.53,-246.421 196.53,-246.421 196.53,-246.421 199.448,-250.481 192.876,-249.048 202.367,-254.54 202.367,-254.54"/>
</g>
<!-- OwnershipType -->
<g id="node20" class="node"><title>OwnershipType</title>
<path fill="none" stroke="black" d="M390.495,-875C390.495,-875 499.505,-875 499.505,-875 505.505,-875 511.505,-881 511.505,-887 511.505,-887 511.505,-949 511.505,-949 511.505,-955 505.505,-961 499.505,-961 499.505,-961 390.495,-961 390.495,-961 384.495,-961 378.495,-955 378.495,-949 378.495,-949 378.495,-887 378.495,-887 378.495,-881 384.495,-875 390.495,-875"/>
<text text-anchor="middle" x="445" y="-945.8" font-family="Times,serif" font-size="14.00">OwnershipType</text>
<polyline fill="none" stroke="black" points="378.495,-939 511.505,-939 "/>
<text text-anchor="start" x="386.495" y="-923.8" font-family="Times,serif" font-size="14.00">id :integer</text>
<text text-anchor="start" x="386.495" y="-909.8" font-family="Times,serif" font-size="14.00">name :string</text>
<text text-anchor="start" x="386.495" y="-895.8" font-family="Times,serif" font-size="14.00">created_at :datetime</text>
<text text-anchor="start" x="386.495" y="-881.8" font-family="Times,serif" font-size="14.00">updated_at :datetime</text>
</g>
<!-- OwnershipType&#45;&gt;Ownership -->
<g id="edge42" class="edge"><title>OwnershipType&#45;&gt;Ownership</title>
<path fill="none" stroke="#a401c3" d="M430.804,-866.892C406.131,-779.801 354.891,-598.932 322.601,-484.955"/>
<ellipse fill="none" stroke="#a401c3" cx="431.935" cy="-870.882" rx="4.00001" ry="4.00001"/>
<polygon fill="#a401c3" stroke="#a401c3" points="322.553,-484.785 324.156,-473.937 321.19,-479.974 319.827,-475.164 319.827,-475.164 319.827,-475.164 321.19,-479.974 315.497,-476.39 322.553,-484.785 322.553,-484.785"/>
</g>
<!-- Page -->
<g id="node21" class="node"><title>Page</title>
<path fill="none" stroke="black" d="M2172.49,-1111C2172.49,-1111 2281.51,-1111 2281.51,-1111 2287.51,-1111 2293.51,-1117 2293.51,-1123 2293.51,-1123 2293.51,-1199 2293.51,-1199 2293.51,-1205 2287.51,-1211 2281.51,-1211 2281.51,-1211 2172.49,-1211 2172.49,-1211 2166.49,-1211 2160.49,-1205 2160.49,-1199 2160.49,-1199 2160.49,-1123 2160.49,-1123 2160.49,-1117 2166.49,-1111 2172.49,-1111"/>
<text text-anchor="middle" x="2227" y="-1195.8" font-family="Times,serif" font-size="14.00">Page</text>
<polyline fill="none" stroke="black" points="2160.49,-1189 2293.51,-1189 "/>
<text text-anchor="start" x="2168.49" y="-1173.8" font-family="Times,serif" font-size="14.00">id :integer</text>
<text text-anchor="start" x="2168.49" y="-1159.8" font-family="Times,serif" font-size="14.00">name :string</text>
<text text-anchor="start" x="2168.49" y="-1145.8" font-family="Times,serif" font-size="14.00">content :text</text>
<text text-anchor="start" x="2168.49" y="-1131.8" font-family="Times,serif" font-size="14.00">created_at :datetime</text>
<text text-anchor="start" x="2168.49" y="-1117.8" font-family="Times,serif" font-size="14.00">updated_at :datetime</text>
</g>
<!-- Parent -->
<g id="node22" class="node"><title>Parent</title>
<path fill="none" stroke="black" d="M827.495,-333C827.495,-333 936.505,-333 936.505,-333 942.505,-333 948.505,-339 948.505,-345 948.505,-345 948.505,-421 948.505,-421 948.505,-427 942.505,-433 936.505,-433 936.505,-433 827.495,-433 827.495,-433 821.495,-433 815.495,-427 815.495,-421 815.495,-421 815.495,-345 815.495,-345 815.495,-339 821.495,-333 827.495,-333"/>
<text text-anchor="middle" x="882" y="-417.8" font-family="Times,serif" font-size="14.00">Parent</text>
<polyline fill="none" stroke="black" points="815.495,-411 948.505,-411 "/>
<text text-anchor="start" x="823.495" y="-395.8" font-family="Times,serif" font-size="14.00">id :integer</text>
<text text-anchor="start" x="823.495" y="-381.8" font-family="Times,serif" font-size="14.00">user_id :integer</text>
<text text-anchor="start" x="823.495" y="-367.8" font-family="Times,serif" font-size="14.00">parent_id :integer</text>
<text text-anchor="start" x="823.495" y="-353.8" font-family="Times,serif" font-size="14.00">created_at :datetime</text>
<text text-anchor="start" x="823.495" y="-339.8" font-family="Times,serif" font-size="14.00">updated_at :datetime</text>
</g>
<!-- Resource -->
<g id="node23" class="node"><title>Resource</title>
<path fill="none" stroke="black" d="M1716.49,-1111C1716.49,-1111 1825.51,-1111 1825.51,-1111 1831.51,-1111 1837.51,-1117 1837.51,-1123 1837.51,-1123 1837.51,-1199 1837.51,-1199 1837.51,-1205 1831.51,-1211 1825.51,-1211 1825.51,-1211 1716.49,-1211 1716.49,-1211 1710.49,-1211 1704.49,-1205 1704.49,-1199 1704.49,-1199 1704.49,-1123 1704.49,-1123 1704.49,-1117 1710.49,-1111 1716.49,-1111"/>
<text text-anchor="middle" x="1771" y="-1195.8" font-family="Times,serif" font-size="14.00">Resource</text>
<polyline fill="none" stroke="black" points="1704.49,-1189 1837.51,-1189 "/>
<text text-anchor="start" x="1712.49" y="-1173.8" font-family="Times,serif" font-size="14.00">id :integer</text>
<text text-anchor="start" x="1712.49" y="-1159.8" font-family="Times,serif" font-size="14.00">name :string</text>
<text text-anchor="start" x="1712.49" y="-1145.8" font-family="Times,serif" font-size="14.00">file :string</text>
<text text-anchor="start" x="1712.49" y="-1131.8" font-family="Times,serif" font-size="14.00">created_at :datetime</text>
<text text-anchor="start" x="1712.49" y="-1117.8" font-family="Times,serif" font-size="14.00">updated_at :datetime</text>
</g>
<!-- ResourceTheme -->
<g id="node24" class="node"><title>ResourceTheme</title>
<path fill="none" stroke="black" d="M1754.49,-868C1754.49,-868 1863.51,-868 1863.51,-868 1869.51,-868 1875.51,-874 1875.51,-880 1875.51,-880 1875.51,-956 1875.51,-956 1875.51,-962 1869.51,-968 1863.51,-968 1863.51,-968 1754.49,-968 1754.49,-968 1748.49,-968 1742.49,-962 1742.49,-956 1742.49,-956 1742.49,-880 1742.49,-880 1742.49,-874 1748.49,-868 1754.49,-868"/>
<text text-anchor="middle" x="1809" y="-952.8" font-family="Times,serif" font-size="14.00">ResourceTheme</text>
<polyline fill="none" stroke="black" points="1742.49,-946 1875.51,-946 "/>
<text text-anchor="start" x="1750.49" y="-930.8" font-family="Times,serif" font-size="14.00">id :integer</text>
<text text-anchor="start" x="1750.49" y="-916.8" font-family="Times,serif" font-size="14.00">resource_id :integer</text>
<text text-anchor="start" x="1750.49" y="-902.8" font-family="Times,serif" font-size="14.00">theme_id :integer</text>
<text text-anchor="start" x="1750.49" y="-888.8" font-family="Times,serif" font-size="14.00">created_at :datetime</text>
<text text-anchor="start" x="1750.49" y="-874.8" font-family="Times,serif" font-size="14.00">updated_at :datetime</text>
</g>
<!-- Resource&#45;&gt;ResourceTheme -->
<g id="edge46" class="edge"><title>Resource&#45;&gt;ResourceTheme</title>
<path fill="none" stroke="#605c43" d="M1780,-1102.95C1785.92,-1065.39 1793.65,-1016.32 1799.65,-978.314"/>
<ellipse fill="none" stroke="#605c43" cx="1779.36" cy="-1106.99" rx="4.00001" ry="4.00001"/>
<polygon fill="#605c43" stroke="#605c43" points="1799.65,-978.283 1805.66,-969.106 1800.43,-973.344 1801.21,-968.405 1801.21,-968.405 1801.21,-968.405 1800.43,-973.344 1796.76,-967.704 1799.65,-978.283 1799.65,-978.283"/>
</g>
<!-- Resource&#45;&gt;Theme -->
<g id="edge47" class="edge"><title>Resource&#45;&gt;Theme</title>
<path fill="none" stroke="#c0a008" d="M1741.21,-1101.18C1737.82,-1092.27 1734.91,-1083.03 1733,-1074 1704.36,-938.323 1660.43,-880.161 1733,-762 1751.52,-731.852 1784.69,-755.648 1804,-726 1899.07,-579.999 1868.77,-360.396 1846.59,-256.074"/>
<polygon fill="#c0a008" stroke="#c0a008" points="1741.31,-1101.42 1740.88,-1112.38 1743.18,-1106.06 1745.05,-1110.7 1745.05,-1110.7 1745.05,-1110.7 1743.18,-1106.06 1749.23,-1109.02 1741.31,-1101.42 1741.31,-1101.42"/>
<polygon fill="#c0a008" stroke="#c0a008" points="1846.53,-255.814 1848.8,-245.086 1845.47,-250.929 1844.4,-246.043 1844.4,-246.043 1844.4,-246.043 1845.47,-250.929 1840,-247.001 1846.53,-255.814 1846.53,-255.814"/>
</g>
<!-- Responsable&#45;&gt;CardResponsable -->
<g id="edge50" class="edge"><title>Responsable&#45;&gt;CardResponsable</title>
<path fill="none" stroke="#1d205f" d="M1277,-553.502C1277,-519.076 1277,-477.001 1277,-443.383"/>
<ellipse fill="none" stroke="#1d205f" cx="1277" cy="-557.951" rx="4" ry="4"/>
<polygon fill="#1d205f" stroke="#1d205f" points="1277,-443.239 1281.5,-433.239 1277,-438.239 1277,-433.239 1277,-433.239 1277,-433.239 1277,-438.239 1272.5,-433.239 1277,-443.239 1277,-443.239"/>
</g>
<!-- Tag&#45;&gt;Tagging -->
<g id="edge52" class="edge"><title>Tag&#45;&gt;Tagging</title>
<path fill="none" stroke="#ca3f8d" d="M1467,-560.813C1467,-525.3 1467,-479.731 1467,-443.748"/>
<ellipse fill="none" stroke="#ca3f8d" cx="1467" cy="-564.946" rx="4" ry="4"/>
<polygon fill="#ca3f8d" stroke="#ca3f8d" points="1467,-443.392 1471.5,-433.392 1467,-438.392 1467,-433.392 1467,-433.392 1467,-433.392 1467,-438.392 1462.5,-433.392 1467,-443.392 1467,-443.392"/>
</g>
<!-- Theme&#45;&gt;OratorTheme -->
<g id="edge55" class="edge"><title>Theme&#45;&gt;OratorTheme</title>
<path fill="none" stroke="#004e4a" d="M1832,-137.575C1832,-128.939 1832,-120.018 1832,-111.342"/>
<ellipse fill="none" stroke="#004e4a" cx="1832" cy="-141.788" rx="4" ry="4"/>
<polygon fill="#004e4a" stroke="#004e4a" points="1832,-111.303 1836.5,-101.303 1832,-106.303 1832,-101.303 1832,-101.303 1832,-101.303 1832,-106.303 1827.5,-101.303 1832,-111.303 1832,-111.303"/>
</g>
<!-- User&#45;&gt;Activity -->
<g id="edge62" class="edge"><title>User&#45;&gt;Activity</title>
<path fill="none" stroke="#541ca4" d="M651.582,-506.115C641.276,-489.011 630.881,-471.76 621.282,-455.83"/>
<ellipse fill="none" stroke="#541ca4" cx="653.653" cy="-509.552" rx="4.00002" ry="4.00002"/>
<polygon fill="#541ca4" stroke="#541ca4" points="621.198,-455.69 619.891,-444.802 618.617,-451.407 616.037,-447.124 616.037,-447.124 616.037,-447.124 618.617,-451.407 612.182,-449.447 621.198,-455.69 621.198,-455.69"/>
</g>
<!-- User&#45;&gt;CardVerification -->
<g id="edge57" class="edge"><title>User&#45;&gt;CardVerification</title>
<path fill="none" stroke="#5dcac0" d="M724.805,-504.807C725.896,-483.534 726.995,-462.094 727.959,-443.302"/>
<ellipse fill="none" stroke="#5dcac0" cx="724.591" cy="-508.984" rx="4" ry="4"/>
<polygon fill="#5dcac0" stroke="#5dcac0" points="727.967,-443.14 732.973,-433.383 728.223,-438.146 728.479,-433.153 728.479,-433.153 728.479,-433.153 728.223,-438.146 723.985,-432.922 727.967,-443.14 727.967,-443.14"/>
</g>
<!-- User&#45;&gt;Orator -->
<g id="edge63" class="edge"><title>User&#45;&gt;Orator</title>
<path fill="none" stroke="#e932f0" d="M801.315,-557.774C830.174,-539.785 863.721,-522.164 897,-512 1171.59,-428.132 1263.98,-547.678 1542,-476 1582.43,-465.577 1624.53,-446.329 1658.88,-428.122"/>
<ellipse fill="none" stroke="#e932f0" cx="797.847" cy="-559.966" rx="4.00002" ry="4.00002"/>
<ellipse fill="#e932f0" stroke="#e932f0" cx="1662.57" cy="-426.146" rx="4.00002" ry="4.00002"/>
</g>
<!-- User&#45;&gt;Ownership -->
<g id="edge58" class="edge"><title>User&#45;&gt;Ownership</title>
<path fill="none" stroke="#343d5e" d="M636.442,-572.545C565.193,-533.315 462.309,-476.669 387.93,-435.717"/>
<ellipse fill="none" stroke="#343d5e" cx="640.004" cy="-574.506" rx="4.00002" ry="4.00002"/>
<polygon fill="#343d5e" stroke="#343d5e" points="387.765,-435.626 381.175,-426.861 383.385,-433.214 379.005,-430.803 379.005,-430.803 379.005,-430.803 383.385,-433.214 376.834,-434.744 387.765,-435.626 387.765,-435.626"/>
</g>
<!-- User&#45;&gt;Parent -->
<g id="edge59" class="edge"><title>User&#45;&gt;Parent</title>
<path fill="none" stroke="#4335c7" d="M796.936,-506.116C812.563,-483.682 828.365,-460.997 842.038,-441.368"/>
<ellipse fill="none" stroke="#4335c7" cx="794.442" cy="-509.696" rx="4.00002" ry="4.00002"/>
<polygon fill="#4335c7" stroke="#4335c7" points="842.045,-441.358 851.454,-435.725 844.903,-437.255 847.761,-433.153 847.761,-433.153 847.761,-433.153 844.903,-437.255 844.069,-430.581 842.045,-441.358 842.045,-441.358"/>
</g>
<!-- User&#45;&gt;User -->
<g id="edge60" class="edge"><title>User&#45;&gt;User</title>
<path fill="none" stroke="#815dbe" d="M801.86,-652.15C808.138,-644.775 812,-633.725 812,-619 812,-604.275 808.138,-593.225 801.86,-585.85"/>
<polygon fill="#815dbe" stroke="#815dbe" points="801.777,-652.221 791.248,-655.286 797.973,-655.465 794.168,-658.71 794.168,-658.71 794.168,-658.71 797.973,-655.465 797.089,-662.134 801.777,-652.221 801.777,-652.221"/>
<polygon fill="#815dbe" stroke="#815dbe" points="801.777,-585.779 797.089,-575.866 797.973,-582.535 794.168,-579.29 794.168,-579.29 794.168,-579.29 797.973,-582.535 791.248,-582.714 801.777,-585.779 801.777,-585.779"/>
</g>
<!-- User&#45;&gt;VerificatorComment -->
<g id="edge61" class="edge"><title>User&#45;&gt;VerificatorComment</title>
<path fill="none" stroke="#c142e2" d="M801.086,-552.289C821.02,-537.96 842.736,-523.625 864,-512 902.89,-490.739 921.052,-501.927 957,-476 967.846,-468.178 978.054,-458.451 987.256,-448.278"/>
<ellipse fill="none" stroke="#c142e2" cx="797.634" cy="-554.794" rx="4.00002" ry="4.00002"/>
<polygon fill="#c142e2" stroke="#c142e2" points="987.521,-447.974 997.484,-443.392 990.806,-444.205 994.091,-440.436 994.091,-440.436 994.091,-440.436 990.806,-444.205 990.699,-437.479 987.521,-447.974 987.521,-447.974"/>
</g>
<!-- UserType -->
<g id="node30" class="node"><title>UserType</title>
<path fill="none" stroke="black" d="M694.495,-875C694.495,-875 803.505,-875 803.505,-875 809.505,-875 815.505,-881 815.505,-887 815.505,-887 815.505,-949 815.505,-949 815.505,-955 809.505,-961 803.505,-961 803.505,-961 694.495,-961 694.495,-961 688.495,-961 682.495,-955 682.495,-949 682.495,-949 682.495,-887 682.495,-887 682.495,-881 688.495,-875 694.495,-875"/>
<text text-anchor="middle" x="749" y="-945.8" font-family="Times,serif" font-size="14.00">UserType</text>
<polyline fill="none" stroke="black" points="682.495,-939 815.505,-939 "/>
<text text-anchor="start" x="690.495" y="-923.8" font-family="Times,serif" font-size="14.00">id :integer</text>
<text text-anchor="start" x="690.495" y="-909.8" font-family="Times,serif" font-size="14.00">name :string</text>
<text text-anchor="start" x="690.495" y="-895.8" font-family="Times,serif" font-size="14.00">created_at :datetime</text>
<text text-anchor="start" x="690.495" y="-881.8" font-family="Times,serif" font-size="14.00">updated_at :datetime</text>
</g>
<!-- UserType&#45;&gt;User -->
<g id="edge65" class="edge"><title>UserType&#45;&gt;User</title>
<path fill="none" stroke="#04afee" d="M743.926,-866.764C740.287,-830.741 735.234,-780.72 730.629,-735.126"/>
<ellipse fill="none" stroke="#04afee" cx="744.332" cy="-870.783" rx="4" ry="4"/>
<polygon fill="#04afee" stroke="#04afee" points="730.628,-735.117 734.1,-724.716 730.126,-730.143 729.623,-725.168 729.623,-725.168 729.623,-725.168 730.126,-730.143 725.146,-725.62 730.628,-735.117 730.628,-735.117"/>
</g>
<!-- ActiveRecord::Base -->
<g id="node32" class="node"><title>ActiveRecord::Base</title>
<ellipse fill="none" stroke="black" cx="1214" cy="-1285" rx="80.9821" ry="18"/>
<text text-anchor="middle" x="1214" y="-1280.8" font-family="Times,serif" font-size="14.00">ActiveRecord::Base</text>
</g>
<!-- ActiveRecord::Base&#45;&gt;AccessToken -->
<g id="edge1" class="edge"><title>ActiveRecord::Base&#45;&gt;AccessToken</title>
<path fill="none" stroke="black" d="M1181.5,-1268.31C1164.48,-1260.83 1143.05,-1252.54 1123,-1248 1065.75,-1235.05 639.506,-1251.39 596,-1212 520.824,-1143.93 539.068,-861.607 520,-762 484.212,-575.048 435,-354.83 411.926,-253.371"/>
</g>
<!-- ActiveRecord::Base&#45;&gt;Action -->
<g id="edge4" class="edge"><title>ActiveRecord::Base&#45;&gt;Action</title>
<path fill="none" stroke="black" d="M1182.4,-1268.42C1165.26,-1260.77 1143.45,-1252.29 1123,-1248 1069.9,-1236.86 187.22,-1248.42 147,-1212 -11.5969,-1068.39 32.7812,-771.919 56.0193,-662.113"/>
</g>
<!-- ActiveRecord::Base&#45;&gt;Activity -->
<g id="edge5" class="edge"><title>ActiveRecord::Base&#45;&gt;Activity</title>
<path fill="none" stroke="black" d="M1181.49,-1268.35C1164.47,-1260.87 1143.04,-1252.58 1123,-1248 1069.35,-1235.74 668.6,-1250.22 629,-1212 574.367,-1159.27 575.134,-631.588 577.103,-447.196"/>
</g>
<!-- ActiveRecord::Base&#45;&gt;Affiliation -->
<g id="edge8" class="edge"><title>ActiveRecord::Base&#45;&gt;Affiliation</title>
<path fill="none" stroke="black" d="M1185.14,-1267.91C1159.81,-1253.64 1122.12,-1232 1090,-1212 1085.88,-1209.44 1081.66,-1206.76 1077.42,-1204.03"/>
</g>
<!-- ActiveRecord::Base&#45;&gt;Canton -->
<g id="edge10" class="edge"><title>ActiveRecord::Base&#45;&gt;Canton</title>
<path fill="none" stroke="black" d="M1293.24,-1280.84C1458.54,-1273.52 1834.8,-1252.82 1956,-1212 1960.7,-1210.42 1965.41,-1208.52 1970.06,-1206.4"/>
</g>
<!-- ActiveRecord::Base&#45;&gt;Card -->
<g id="edge20" class="edge"><title>ActiveRecord::Base&#45;&gt;Card</title>
<path fill="none" stroke="black" d="M1222.35,-1267.04C1228.89,-1252.75 1237.45,-1231.57 1241,-1212 1249.09,-1167.39 1251.55,-1154.09 1241,-1110 1235.81,-1088.3 1227.72,-1066.28 1218.38,-1045.28"/>
</g>
<!-- ActiveRecord::Base&#45;&gt;CardAffiliation -->
<g id="edge21" class="edge"><title>ActiveRecord::Base&#45;&gt;CardAffiliation</title>
<path fill="none" stroke="black" d="M1179.52,-1268.63C1162.72,-1261.59 1142.08,-1253.59 1123,-1248 1043.03,-1224.57 991.964,-1276.33 939,-1212 871.521,-1130.04 934.842,-795.88 962.002,-669.097"/>
</g>
<!-- ActiveRecord::Base&#45;&gt;CardResponsable -->
<g id="edge22" class="edge"><title>ActiveRecord::Base&#45;&gt;CardResponsable</title>
<path fill="none" stroke="black" d="M1236.28,-1267.65C1252.48,-1254.48 1273.51,-1234.52 1285,-1212 1309.78,-1163.44 1339.44,-925.435 1352,-726 1357.98,-631.077 1376.91,-603.791 1352,-512 1344.41,-484.036 1329.01,-455.931 1314.12,-433.208"/>
</g>
<!-- ActiveRecord::Base&#45;&gt;CardType -->
<g id="edge24" class="edge"><title>ActiveRecord::Base&#45;&gt;CardType</title>
<path fill="none" stroke="black" d="M1207.33,-1267.04C1200.94,-1250.8 1191.04,-1225.65 1182.54,-1204.03"/>
</g>
<!-- ActiveRecord::Base&#45;&gt;CardVerification -->
<g id="edge25" class="edge"><title>ActiveRecord::Base&#45;&gt;CardVerification</title>
<path fill="none" stroke="black" d="M1181.48,-1268.39C1164.45,-1260.93 1143.03,-1252.63 1123,-1248 1022.89,-1224.84 738.245,-1280.89 662,-1212 604.246,-1159.82 610.386,-585.841 635,-512 640.776,-494.673 665.948,-461.373 689.066,-433.082"/>
</g>
<!-- ActiveRecord::Base&#45;&gt;Disponibility -->
<g id="edge28" class="edge"><title>ActiveRecord::Base&#45;&gt;Disponibility</title>
<path fill="none" stroke="black" d="M1293.05,-1280.7C1397.02,-1274.58 1571.52,-1257.65 1614,-1212 1682.51,-1138.38 1645.25,-861.163 1662,-762 1667.71,-728.184 1676.62,-690.384 1683.74,-662.29"/>
</g>
<!-- ActiveRecord::Base&#45;&gt;Element -->
<g id="edge30" class="edge"><title>ActiveRecord::Base&#45;&gt;Element</title>
<path fill="none" stroke="black" d="M1181.95,-1268.38C1164.86,-1260.81 1143.25,-1252.43 1123,-1248 978.644,-1216.41 586.98,-1285.88 459,-1212 365.211,-1157.86 320.708,-1028.34 303.31,-961.106"/>
</g>
<!-- ActiveRecord::Base&#45;&gt;Location -->
<g id="edge31" class="edge"><title>ActiveRecord::Base&#45;&gt;Location</title>
<path fill="none" stroke="black" d="M1295.21,-1283.62C1505.85,-1281.81 2057.2,-1271.37 2112,-1212 2168.67,-1150.61 2141.53,-1048.12 2114.52,-982.07"/>
</g>
<!-- ActiveRecord::Base&#45;&gt;Orator -->
<g id="edge35" class="edge"><title>ActiveRecord::Base&#45;&gt;Orator</title>
<path fill="none" stroke="black" d="M1293.84,-1281.73C1404.95,-1276.78 1597.9,-1261.17 1645,-1212 1714.52,-1139.43 1631.71,-843.868 1690,-762 1712.61,-730.238 1748.83,-758.742 1770,-726 1822.86,-644.254 1793.4,-527.956 1765.03,-454.246"/>
</g>
<!-- ActiveRecord::Base&#45;&gt;OratorDisponibility -->
<g id="edge36" class="edge"><title>ActiveRecord::Base&#45;&gt;OratorDisponibility</title>
<path fill="none" stroke="black" d="M1289.14,-1278.08C1343.56,-1270.37 1416.2,-1252.67 1467,-1212 1578.64,-1122.62 1600,-1062.01 1600,-919 1600,-919 1600,-919 1600,-618 1600,-483.076 1617.56,-324.616 1627.44,-246.155"/>
</g>
<!-- ActiveRecord::Base&#45;&gt;OratorTheme -->
<g id="edge37" class="edge"><title>ActiveRecord::Base&#45;&gt;OratorTheme</title>
<path fill="none" stroke="black" d="M1293.52,-1281.37C1467.51,-1274.83 1869.9,-1255.17 1913,-1212 1915.55,-1209.45 1942,-931.983 1942,-919 1942,-919 1942,-919 1942,-382 1942,-272.446 1952.65,-237.589 1907,-138 1901.06,-125.034 1892.52,-112.558 1883.33,-101.323"/>
</g>
<!-- ActiveRecord::Base&#45;&gt;Ownership -->
<g id="edge40" class="edge"><title>ActiveRecord::Base&#45;&gt;Ownership</title>
<path fill="none" stroke="black" d="M1181.96,-1268.32C1164.88,-1260.74 1143.26,-1252.36 1123,-1248 957.708,-1212.42 518.467,-1278.46 363,-1212 281.197,-1177.03 253.059,-1155.77 218,-1074 131.979,-873.379 205.725,-611.242 256.223,-475.064"/>
</g>
<!-- ActiveRecord::Base&#45;&gt;OwnershipAction -->
<g id="edge41" class="edge"><title>ActiveRecord::Base&#45;&gt;OwnershipAction</title>
<path fill="none" stroke="black" d="M1181.97,-1268.26C1164.9,-1260.67 1143.28,-1252.29 1123,-1248 1026.07,-1227.49 313.226,-1268.74 232,-1212 122.155,-1135.27 161,-1052.99 161,-919 161,-919 161,-919 161,-618 161,-483.514 161,-324.862 161,-246.259"/>
</g>
<!-- ActiveRecord::Base&#45;&gt;OwnershipType -->
<g id="edge43" class="edge"><title>ActiveRecord::Base&#45;&gt;OwnershipType</title>
<path fill="none" stroke="black" d="M1181.94,-1268.43C1164.85,-1260.88 1143.24,-1252.49 1123,-1248 1058.13,-1233.6 577.645,-1253.82 526,-1212 450.634,-1150.97 441.728,-1026.6 442.705,-961.258"/>
</g>
<!-- ActiveRecord::Base&#45;&gt;Page -->
<g id="edge44" class="edge"><title>ActiveRecord::Base&#45;&gt;Page</title>
<path fill="none" stroke="black" d="M1294.62,-1282.64C1490.84,-1278.54 1988.71,-1263.26 2146,-1212 2150.71,-1210.46 2155.44,-1208.6 2160.1,-1206.51"/>
</g>
<!-- ActiveRecord::Base&#45;&gt;Parent -->
<g id="edge45" class="edge"><title>ActiveRecord::Base&#45;&gt;Parent</title>
<path fill="none" stroke="black" d="M1180.49,-1268.59C1163.57,-1261.37 1142.53,-1253.22 1123,-1248 1069.84,-1233.78 915.887,-1251.91 878,-1212 770.887,-1099.17 857.31,-667.273 867,-512 868.631,-485.873 871.904,-456.891 874.978,-433.122"/>
</g>
<!-- ActiveRecord::Base&#45;&gt;Resource -->
<g id="edge48" class="edge"><title>ActiveRecord::Base&#45;&gt;Resource</title>
<path fill="none" stroke="black" d="M1293.9,-1281.65C1390.47,-1276.63 1556.61,-1260.93 1690,-1212 1694.81,-1210.24 1699.64,-1208.17 1704.42,-1205.89"/>
</g>
<!-- ActiveRecord::Base&#45;&gt;ResourceTheme -->
<g id="edge49" class="edge"><title>ActiveRecord::Base&#45;&gt;ResourceTheme</title>
<path fill="none" stroke="black" d="M1293.16,-1280.77C1454.6,-1273.37 1809.76,-1252.6 1846,-1212 1905.83,-1144.96 1866.41,-1032.4 1835.58,-968.056"/>
</g>
<!-- ActiveRecord::Base&#45;&gt;Responsable -->
<g id="edge51" class="edge"><title>ActiveRecord::Base&#45;&gt;Responsable</title>
<path fill="none" stroke="black" d="M1228.11,-1267.23C1238.81,-1253.4 1252.71,-1232.74 1259,-1212 1316.45,-1022.58 1297.68,-783.295 1284.83,-676.24"/>
</g>
<!-- ActiveRecord::Base&#45;&gt;Tag -->
<g id="edge53" class="edge"><title>ActiveRecord::Base&#45;&gt;Tag</title>
<path fill="none" stroke="black" d="M1277.22,-1273.64C1314.71,-1264.1 1359.87,-1246.01 1386,-1212 1512.25,-1047.69 1490.8,-779.369 1475.27,-669.386"/>
</g>
<!-- ActiveRecord::Base&#45;&gt;Tagging -->
<g id="edge54" class="edge"><title>ActiveRecord::Base&#45;&gt;Tagging</title>
<path fill="none" stroke="black" d="M1283.48,-1275.63C1329.5,-1266.8 1388.44,-1248.76 1428,-1212 1476.74,-1166.71 1467.7,-1137.96 1486,-1074 1555.06,-832.672 1607.74,-754.252 1542,-512 1534.41,-484.036 1519.01,-455.931 1504.12,-433.208"/>
</g>
<!-- ActiveRecord::Base&#45;&gt;Theme -->
<g id="edge56" class="edge"><title>ActiveRecord::Base&#45;&gt;Theme</title>
<path fill="none" stroke="black" d="M1293.28,-1280.88C1459.95,-1273.55 1834.72,-1252.68 1875,-1212 1967.07,-1119.01 1904,-1049.86 1904,-919 1904,-919 1904,-919 1904,-618 1904,-471.654 1912.71,-431.404 1875,-290 1871.06,-275.219 1864.91,-259.873 1858.49,-246.011"/>
</g>
<!-- ActiveRecord::Base&#45;&gt;User -->
<g id="edge64" class="edge"><title>ActiveRecord::Base&#45;&gt;User</title>
<path fill="none" stroke="black" d="M1181.01,-1268.39C1164.04,-1261.03 1142.81,-1252.82 1123,-1248 1045.52,-1229.15 834.425,-1252.94 766,-1212 590.744,-1107.15 641.141,-963.726 673,-762 674.9,-749.97 677.653,-737.57 680.881,-725.343"/>
</g>
<!-- ActiveRecord::Base&#45;&gt;UserType -->
<g id="edge66" class="edge"><title>ActiveRecord::Base&#45;&gt;UserType</title>
<path fill="none" stroke="black" d="M1180.54,-1268.39C1163.63,-1261.12 1142.59,-1252.99 1123,-1248 1059.43,-1231.8 879.678,-1254.84 830,-1212 756.762,-1148.84 746.87,-1025.97 747.163,-961.235"/>
</g>
<!-- ActiveRecord::Base&#45;&gt;VerificatorComment -->
<g id="edge67" class="edge"><title>ActiveRecord::Base&#45;&gt;VerificatorComment</title>
<path fill="none" stroke="black" d="M1180.02,-1268.57C1163.16,-1261.43 1142.32,-1253.37 1123,-1248 1076.11,-1234.98 938.834,-1248.8 907,-1212 856.113,-1153.17 858.675,-579.689 897,-512 912.322,-484.938 933.424,-496.28 957,-476 969.251,-465.462 981.092,-452.805 991.635,-440.298"/>
</g>
</g>
</svg>
