<?xml version="1.0" encoding="UTF-8" standalone="no"?>
<!DOCTYPE svg PUBLIC "-//W3C//DTD SVG 1.1//EN"
 "http://www.w3.org/Graphics/SVG/1.1/DTD/svg11.dtd">
<!-- Generated by graphviz version 2.34.0 (20140206.1422)
 -->
<!-- Title: models_diagram Pages: 1 -->
<svg width="1436pt" height="454pt"
 viewBox="0.00 0.00 1436.00 454.00" xmlns="http://www.w3.org/2000/svg" xmlns:xlink="http://www.w3.org/1999/xlink">
<g id="graph0" class="graph" transform="scale(1 1) rotate(0) translate(4 450)">
<title>models_diagram</title>
<polygon fill="white" stroke="white" points="-4,4 -4,-450 1432,-450 1432,4 -4,4"/>
<!-- _diagram_info -->
<g id="node1" class="node"><title>_diagram_info</title>
<text text-anchor="start" x="342.312" y="-429" font-family="Times,serif" font-size="13.00">Models diagram</text>
<text text-anchor="start" x="342.312" y="-413.4" font-family="Times,serif" font-size="13.00">Date: Feb 11 2014 &#45; 11:44</text>
<text text-anchor="start" x="342.312" y="-397.8" font-family="Times,serif" font-size="13.00">Migration version: 20140208125910</text>
<text text-anchor="start" x="342.312" y="-382.2" font-family="Times,serif" font-size="13.00">Generated by RailRoady 1.1.1</text>
<text text-anchor="start" x="342.312" y="-366.6" font-family="Times,serif" font-size="13.00">http://railroady.prestonlee.com</text>
</g>
<!-- Action -->
<g id="node2" class="node"><title>Action</title>
<ellipse fill="none" stroke="black" cx="355" cy="-306" rx="36.9811" ry="18"/>
<text text-anchor="middle" x="355" y="-300.4" font-family="Times,serif" font-size="14.00">Action</text>
</g>
<!-- Ownership -->
<g id="node10" class="node"><title>Ownership</title>
<ellipse fill="none" stroke="black" cx="243" cy="-90" rx="53.1199" ry="18"/>
<text text-anchor="middle" x="243" y="-84.4" font-family="Times,serif" font-size="14.00">Ownership</text>
</g>
<!-- Action&#45;&gt;Ownership -->
<g id="edge2" class="edge"><title>Action&#45;&gt;Ownership</title>
<path fill="none" stroke="#c4cb65" d="M347.53,-278.275C342.049,-260.241 333.859,-236.148 324,-216 306.083,-179.384 279.518,-140.464 261.749,-115.963"/>
<polygon fill="#c4cb65" stroke="#c4cb65" points="347.604,-278.526 346.12,-289.391 349.02,-283.322 350.436,-288.117 350.436,-288.117 350.436,-288.117 349.02,-283.322 354.752,-286.843 347.604,-278.526 347.604,-278.526"/>
<polygon fill="#c4cb65" stroke="#c4cb65" points="261.545,-115.684 259.262,-104.958 258.589,-111.652 255.633,-107.619 255.633,-107.619 255.633,-107.619 258.589,-111.652 252.003,-110.279 261.545,-115.684 261.545,-115.684"/>
</g>
<!-- OwnershipAction -->
<g id="node11" class="node"><title>OwnershipAction</title>
<ellipse fill="none" stroke="black" cx="243" cy="-18" rx="79.5437" ry="18"/>
<text text-anchor="middle" x="243" y="-12.4" font-family="Times,serif" font-size="14.00">OwnershipAction</text>
</g>
<!-- Action&#45;&gt;OwnershipAction -->
<g id="edge1" class="edge"><title>Action&#45;&gt;OwnershipAction</title>
<path fill="none" stroke="#657ddf" d="M355.211,-279.888C354.447,-234.703 347.502,-138.244 305,-72 297.505,-60.3179 286.66,-49.812 276.13,-41.2941"/>
<ellipse fill="none" stroke="#657ddf" cx="355.25" cy="-283.964" rx="4" ry="4"/>
<polygon fill="#657ddf" stroke="#657ddf" points="276.12,-41.2861 270.947,-31.6171 272.16,-38.2337 268.199,-35.1813 268.199,-35.1813 268.199,-35.1813 272.16,-38.2337 265.452,-38.7455 276.12,-41.2861 276.12,-41.2861"/>
</g>
<!-- Affiliation -->
<g id="node3" class="node"><title>Affiliation</title>
<ellipse fill="none" stroke="black" cx="765" cy="-306" rx="50.9099" ry="18"/>
<text text-anchor="middle" x="765" y="-300.4" font-family="Times,serif" font-size="14.00">Affiliation</text>
</g>
<!-- Card -->
<g id="node4" class="node"><title>Card</title>
<ellipse fill="none" stroke="black" cx="883" cy="-234" rx="29.216" ry="18"/>
<text text-anchor="middle" x="883" y="-228.4" font-family="Times,serif" font-size="14.00">Card</text>
</g>
<!-- Affiliation&#45;&gt;Card -->
<g id="edge5" class="edge"><title>Affiliation&#45;&gt;Card</title>
<path fill="none" stroke="#f5c62d" d="M798.815,-284.94C816.236,-274.606 837.264,-262.132 853.945,-252.236"/>
<polygon fill="#f5c62d" stroke="#f5c62d" points="798.625,-285.053 787.729,-286.285 794.325,-287.604 790.025,-290.155 790.025,-290.155 790.025,-290.155 794.325,-287.604 792.321,-294.025 798.625,-285.053 798.625,-285.053"/>
<polygon fill="#f5c62d" stroke="#f5c62d" points="854.115,-252.135 865.011,-250.904 858.415,-249.584 862.715,-247.033 862.715,-247.033 862.715,-247.033 858.415,-249.584 860.419,-243.163 854.115,-252.135 854.115,-252.135"/>
</g>
<!-- CardAffiliation -->
<g id="node5" class="node"><title>CardAffiliation</title>
<ellipse fill="none" stroke="black" cx="746" cy="-162" rx="70.0658" ry="18"/>
<text text-anchor="middle" x="746" y="-156.4" font-family="Times,serif" font-size="14.00">CardAffiliation</text>
</g>
<!-- Affiliation&#45;&gt;CardAffiliation -->
<g id="edge4" class="edge"><title>Affiliation&#45;&gt;CardAffiliation</title>
<path fill="none" stroke="#c339b6" d="M761.645,-279.929C758.288,-254.837 753.137,-216.338 749.672,-190.441"/>
<ellipse fill="none" stroke="#c339b6" cx="762.178" cy="-283.907" rx="4.00001" ry="4.00001"/>
<polygon fill="#c339b6" stroke="#c339b6" points="749.626,-190.101 752.76,-179.592 748.963,-185.145 748.3,-180.189 748.3,-180.189 748.3,-180.189 748.963,-185.145 743.84,-180.786 749.626,-190.101 749.626,-190.101"/>
</g>
<!-- Card&#45;&gt;Card -->
<g id="edge15" class="edge"><title>Card&#45;&gt;Card</title>
<path fill="none" stroke="#bee101" d="M912.414,-247.5C922.188,-247.488 930,-242.988 930,-234 930,-225.012 922.188,-220.512 912.414,-220.5"/>
<ellipse fill="none" stroke="#bee101" cx="908.241" cy="-247.012" rx="4.00001" ry="4.00001"/>
<ellipse fill="#bee101" stroke="#bee101" cx="908.241" cy="-220.988" rx="4.00001" ry="4.00001"/>
</g>
<!-- Card&#45;&gt;CardAffiliation -->
<g id="edge11" class="edge"><title>Card&#45;&gt;CardAffiliation</title>
<path fill="none" stroke="#ad8b51" d="M853.598,-217.977C833.602,-207.76 806.923,-194.129 785.134,-182.995"/>
<ellipse fill="none" stroke="#ad8b51" cx="857.427" cy="-219.933" rx="4.00002" ry="4.00002"/>
<polygon fill="#ad8b51" stroke="#ad8b51" points="785.034,-182.944 778.176,-174.387 780.581,-180.669 776.129,-178.394 776.129,-178.394 776.129,-178.394 780.581,-180.669 774.081,-182.401 785.034,-182.944 785.034,-182.944"/>
</g>
<!-- CardResponsable -->
<g id="node6" class="node"><title>CardResponsable</title>
<ellipse fill="none" stroke="black" cx="1029" cy="-90" rx="78.4312" ry="18"/>
<text text-anchor="middle" x="1029" y="-84.4" font-family="Times,serif" font-size="14.00">CardResponsable</text>
</g>
<!-- Card&#45;&gt;CardResponsable -->
<g id="edge7" class="edge"><title>Card&#45;&gt;CardResponsable</title>
<path fill="none" stroke="#182e0e" d="M895.453,-209.545C906.439,-190.357 923.815,-163.329 944,-144 957.002,-131.549 973.387,-120.502 988.293,-111.759"/>
<ellipse fill="none" stroke="#182e0e" cx="893.38" cy="-213.246" rx="4.00002" ry="4.00002"/>
<polygon fill="#182e0e" stroke="#182e0e" points="988.645,-111.559 999.562,-110.534 992.992,-109.09 997.34,-106.621 997.34,-106.621 997.34,-106.621 992.992,-109.09 995.118,-102.708 988.645,-111.559 988.645,-111.559"/>
</g>
<!-- CardVerification -->
<g id="node8" class="node"><title>CardVerification</title>
<ellipse fill="none" stroke="black" cx="485" cy="-90" rx="74.2954" ry="18"/>
<text text-anchor="middle" x="485" y="-84.4" font-family="Times,serif" font-size="14.00">CardVerification</text>
</g>
<!-- Card&#45;&gt;CardVerification -->
<g id="edge9" class="edge"><title>Card&#45;&gt;CardVerification</title>
<path fill="none" stroke="#d51d9b" d="M870.482,-209.24C857.587,-185.702 837.638,-152.038 825,-144 728.05,-82.3393 682.247,-127.404 569,-108 562.497,-106.886 555.726,-105.647 548.976,-104.361"/>
<ellipse fill="none" stroke="#d51d9b" cx="872.498" cy="-212.963" rx="4.00002" ry="4.00002"/>
<polygon fill="#d51d9b" stroke="#d51d9b" points="548.951,-104.357 539.991,-98.0345 544.043,-103.404 539.134,-102.452 539.134,-102.452 539.134,-102.452 544.043,-103.404 538.277,-106.87 548.951,-104.357 548.951,-104.357"/>
</g>
<!-- Responsable -->
<g id="node16" class="node"><title>Responsable</title>
<ellipse fill="none" stroke="black" cx="1046" cy="-162" rx="59.2755" ry="18"/>
<text text-anchor="middle" x="1046" y="-156.4" font-family="Times,serif" font-size="14.00">Responsable</text>
</g>
<!-- Card&#45;&gt;Responsable -->
<g id="edge8" class="edge"><title>Card&#45;&gt;Responsable</title>
<path fill="none" stroke="#0d874f" d="M915.808,-218.911C941.124,-208.039 976.336,-192.917 1003.76,-181.141"/>
<polygon fill="#0d874f" stroke="#0d874f" points="915.542,-219.025 904.578,-218.836 910.948,-220.998 906.354,-222.971 906.354,-222.971 906.354,-222.971 910.948,-220.998 908.13,-227.106 915.542,-219.025 915.542,-219.025"/>
<polygon fill="#0d874f" stroke="#0d874f" points="1003.91,-181.073 1014.88,-181.262 1008.51,-179.1 1013.1,-177.127 1013.1,-177.127 1013.1,-177.127 1008.51,-179.1 1011.33,-172.993 1003.91,-181.073 1003.91,-181.073"/>
</g>
<!-- Tag -->
<g id="node17" class="node"><title>Tag</title>
<ellipse fill="none" stroke="black" cx="1151" cy="-162" rx="27" ry="18"/>
<text text-anchor="middle" x="1151" y="-156.4" font-family="Times,serif" font-size="14.00">Tag</text>
</g>
<!-- Card&#45;&gt;Tag -->
<g id="edge13" class="edge"><title>Card&#45;&gt;Tag</title>
<path fill="none" stroke="#f087ad" d="M921.165,-226.726C967.519,-218.542 1047.73,-202.559 1114,-180 1116.26,-179.231 1118.56,-178.37 1120.87,-177.453"/>
<polygon fill="#f087ad" stroke="#f087ad" points="921.102,-226.737 910.48,-224.015 916.176,-227.592 911.25,-228.448 911.25,-228.448 911.25,-228.448 916.176,-227.592 912.02,-232.882 921.102,-226.737 921.102,-226.737"/>
<polygon fill="#f087ad" stroke="#f087ad" points="1120.98,-177.405 1131.94,-177.61 1125.58,-175.439 1130.17,-173.473 1130.17,-173.473 1130.17,-173.473 1125.58,-175.439 1128.4,-169.335 1120.98,-177.405 1120.98,-177.405"/>
</g>
<!-- Tagging -->
<g id="node18" class="node"><title>Tagging</title>
<ellipse fill="none" stroke="black" cx="1168" cy="-90" rx="42.316" ry="18"/>
<text text-anchor="middle" x="1168" y="-84.4" font-family="Times,serif" font-size="14.00">Tagging</text>
</g>
<!-- Card&#45;&gt;Tagging -->
<g id="edge12" class="edge"><title>Card&#45;&gt;Tagging</title>
<path fill="none" stroke="#4ed1a5" d="M906.198,-213.917C917.826,-204.086 931.957,-191.726 944,-180 959.551,-164.858 958.396,-155.181 977,-144 1031.7,-111.128 1054.75,-125.924 1116,-108 1119.34,-107.023 1122.78,-105.978 1126.24,-104.905"/>
<ellipse fill="none" stroke="#4ed1a5" cx="903.089" cy="-216.527" rx="4.00002" ry="4.00002"/>
<polygon fill="#4ed1a5" stroke="#4ed1a5" points="1126.39,-104.857 1137.28,-106.125 1131.15,-103.346 1135.92,-101.835 1135.92,-101.835 1135.92,-101.835 1131.15,-103.346 1134.56,-97.5455 1126.39,-104.857 1126.39,-104.857"/>
</g>
<!-- User -->
<g id="node19" class="node"><title>User</title>
<ellipse fill="none" stroke="black" cx="534" cy="-162" rx="28.9087" ry="18"/>
<text text-anchor="middle" x="534" y="-156.4" font-family="Times,serif" font-size="14.00">User</text>
</g>
<!-- Card&#45;&gt;User -->
<g id="edge10" class="edge"><title>Card&#45;&gt;User</title>
<path fill="none" stroke="#8cbe0e" d="M845.491,-225.477C778.33,-212.006 638.316,-183.923 571.304,-170.482"/>
<polygon fill="#8cbe0e" stroke="#8cbe0e" points="845.518,-225.482 854.438,-231.861 850.42,-226.465 855.323,-227.449 855.323,-227.449 855.323,-227.449 850.42,-226.465 856.208,-223.037 845.518,-225.482 845.518,-225.482"/>
<polygon fill="#8cbe0e" stroke="#8cbe0e" points="571.003,-170.422 562.083,-164.043 566.1,-169.439 561.198,-168.455 561.198,-168.455 561.198,-168.455 566.1,-169.439 560.313,-172.867 571.003,-170.422 571.003,-170.422"/>
</g>
<!-- VerificatorComment -->
<g id="node21" class="node"><title>VerificatorComment</title>
<ellipse fill="none" stroke="black" cx="758" cy="-90" rx="89.3295" ry="18"/>
<text text-anchor="middle" x="758" y="-84.4" font-family="Times,serif" font-size="14.00">VerificatorComment</text>
</g>
<!-- Card&#45;&gt;VerificatorComment -->
<g id="edge14" class="edge"><title>Card&#45;&gt;VerificatorComment</title>
<path fill="none" stroke="#2b22cd" d="M881.239,-207.719C878.728,-188.433 872.656,-162.174 858,-144 846.084,-129.223 828.92,-118.052 812.166,-109.868"/>
<ellipse fill="none" stroke="#2b22cd" cx="881.694" cy="-211.798" rx="4.00001" ry="4.00001"/>
<polygon fill="#2b22cd" stroke="#2b22cd" points="812.023,-109.802 804.816,-101.537 807.48,-107.714 802.937,-105.625 802.937,-105.625 802.937,-105.625 807.48,-107.714 801.057,-109.714 812.023,-109.802 812.023,-109.802"/>
</g>
<!-- CardType -->
<g id="node7" class="node"><title>CardType</title>
<ellipse fill="none" stroke="black" cx="883" cy="-306" rx="48.464" ry="18"/>
<text text-anchor="middle" x="883" y="-300.4" font-family="Times,serif" font-size="14.00">CardType</text>
</g>
<!-- CardType&#45;&gt;Card -->
<g id="edge19" class="edge"><title>CardType&#45;&gt;Card</title>
<path fill="none" stroke="#08f516" d="M883,-279.64C883,-274.063 883,-268.132 883,-262.476"/>
<ellipse fill="none" stroke="#08f516" cx="883" cy="-283.697" rx="4" ry="4"/>
<polygon fill="#08f516" stroke="#08f516" points="883,-262.104 887.5,-252.104 883,-257.104 883,-252.104 883,-252.104 883,-252.104 883,-257.104 878.5,-252.104 883,-262.104 883,-262.104"/>
</g>
<!-- Element -->
<g id="node9" class="node"><title>Element</title>
<ellipse fill="none" stroke="black" cx="109" cy="-234" rx="43.3212" ry="18"/>
<text text-anchor="middle" x="109" y="-228.4" font-family="Times,serif" font-size="14.00">Element</text>
</g>
<!-- Element&#45;&gt;Ownership -->
<g id="edge22" class="edge"><title>Element&#45;&gt;Ownership</title>
<path fill="none" stroke="#6ae307" d="M129.879,-210.874C154.422,-184.866 195.006,-141.86 220.308,-115.047"/>
<ellipse fill="none" stroke="#6ae307" cx="126.856" cy="-214.078" rx="4.00002" ry="4.00002"/>
<polygon fill="#6ae307" stroke="#6ae307" points="220.461,-114.885 230.597,-110.7 223.892,-111.248 227.324,-107.612 227.324,-107.612 227.324,-107.612 223.892,-111.248 224.051,-104.523 220.461,-114.885 220.461,-114.885"/>
</g>
<!-- Ownership&#45;&gt;OwnershipAction -->
<g id="edge24" class="edge"><title>Ownership&#45;&gt;OwnershipAction</title>
<path fill="none" stroke="#df49ce" d="M243,-63.6398C243,-58.0629 243,-52.1319 243,-46.4761"/>
<ellipse fill="none" stroke="#df49ce" cx="243" cy="-67.6966" rx="4" ry="4"/>
<polygon fill="#df49ce" stroke="#df49ce" points="243,-46.1043 247.5,-36.1043 243,-41.1043 243,-36.1043 243,-36.1043 243,-36.1043 243,-41.1043 238.5,-36.1044 243,-46.1043 243,-46.1043"/>
</g>
<!-- OwnershipType -->
<g id="node12" class="node"><title>OwnershipType</title>
<ellipse fill="none" stroke="black" cx="243" cy="-234" rx="72.3708" ry="18"/>
<text text-anchor="middle" x="243" y="-228.4" font-family="Times,serif" font-size="14.00">OwnershipType</text>
</g>
<!-- OwnershipType&#45;&gt;Ownership -->
<g id="edge27" class="edge"><title>OwnershipType&#45;&gt;Ownership</title>
<path fill="none" stroke="#328a15" d="M243,-207.558C243,-182.444 243,-144.164 243,-118.393"/>
<ellipse fill="none" stroke="#328a15" cx="243" cy="-211.871" rx="4" ry="4"/>
<polygon fill="#328a15" stroke="#328a15" points="243,-118.189 247.5,-108.189 243,-113.189 243,-108.189 243,-108.189 243,-108.189 243,-113.189 238.5,-108.189 243,-118.189 243,-118.189"/>
</g>
<!-- Page -->
<g id="node13" class="node"><title>Page</title>
<ellipse fill="none" stroke="black" cx="1302" cy="-306" rx="29.216" ry="18"/>
<text text-anchor="middle" x="1302" y="-300.4" font-family="Times,serif" font-size="14.00">Page</text>
</g>
<!-- Parent -->
<g id="node14" class="node"><title>Parent</title>
<ellipse fill="none" stroke="black" cx="614" cy="-90" rx="35.5596" ry="18"/>
<text text-anchor="middle" x="614" y="-84.4" font-family="Times,serif" font-size="14.00">Parent</text>
</g>
<!-- Permission -->
<g id="node15" class="node"><title>Permission</title>
<polygon fill="none" stroke="black" points="1428.17,-324 1349.83,-324 1349.83,-288 1428.17,-288 1428.17,-324"/>
<text text-anchor="middle" x="1389" y="-300.4" font-family="Times,serif" font-size="14.00">Permission</text>
</g>
<!-- Responsable&#45;&gt;CardResponsable -->
<g id="edge32" class="edge"><title>Responsable&#45;&gt;CardResponsable</title>
<path fill="none" stroke="#f2bd18" d="M1039.91,-135.92C1038.51,-130.154 1037.01,-123.997 1035.59,-118.148"/>
<ellipse fill="none" stroke="#f2bd18" cx="1040.85" cy="-139.81" rx="4.00001" ry="4.00001"/>
<polygon fill="#f2bd18" stroke="#f2bd18" points="1035.51,-117.822 1037.53,-107.042 1034.33,-112.963 1033.15,-108.104 1033.15,-108.104 1033.15,-108.104 1034.33,-112.963 1028.78,-109.166 1035.51,-117.822 1035.51,-117.822"/>
</g>
<!-- Tag&#45;&gt;Tagging -->
<g id="edge34" class="edge"><title>Tag&#45;&gt;Tagging</title>
<path fill="none" stroke="#6948c8" d="M1157.01,-136.267C1158.41,-130.485 1159.91,-124.291 1161.35,-118.4"/>
<ellipse fill="none" stroke="#6948c8" cx="1156.06" cy="-140.168" rx="4.00001" ry="4.00001"/>
<polygon fill="#6948c8" stroke="#6948c8" points="1161.44,-117.993 1168.18,-109.337 1162.62,-113.134 1163.8,-108.275 1163.8,-108.275 1163.8,-108.275 1162.62,-113.134 1159.43,-107.213 1161.44,-117.993 1161.44,-117.993"/>
</g>
<!-- User&#45;&gt;CardVerification -->
<g id="edge37" class="edge"><title>User&#45;&gt;CardVerification</title>
<path fill="none" stroke="#6d55f1" d="M518.256,-138.509C513.238,-131.341 507.657,-123.367 502.521,-116.03"/>
<ellipse fill="none" stroke="#6d55f1" cx="520.587" cy="-141.839" rx="4.00002" ry="4.00002"/>
<polygon fill="#6d55f1" stroke="#6d55f1" points="502.493,-115.99 500.445,-105.217 499.625,-111.894 496.758,-107.797 496.758,-107.797 496.758,-107.797 499.625,-111.894 493.072,-110.378 502.493,-115.99 502.493,-115.99"/>
</g>
<!-- User&#45;&gt;Ownership -->
<g id="edge38" class="edge"><title>User&#45;&gt;Ownership</title>
<path fill="none" stroke="#ae9d97" d="M499.557,-152.715C448.903,-140.53 353.943,-117.687 294.84,-103.47"/>
<ellipse fill="none" stroke="#ae9d97" cx="503.515" cy="-153.667" rx="4.00001" ry="4.00001"/>
<polygon fill="#ae9d97" stroke="#ae9d97" points="294.681,-103.432 286.011,-96.7179 289.82,-102.263 284.959,-101.093 284.959,-101.093 284.959,-101.093 289.82,-102.263 283.906,-105.468 294.681,-103.432 294.681,-103.432"/>
</g>
<!-- User&#45;&gt;Parent -->
<g id="edge39" class="edge"><title>User&#45;&gt;Parent</title>
<path fill="none" stroke="#cb185b" d="M556.24,-141.54C566.517,-132.547 578.757,-121.838 589.318,-112.597"/>
<ellipse fill="none" stroke="#cb185b" cx="553.2" cy="-144.2" rx="4.00002" ry="4.00002"/>
<polygon fill="#cb185b" stroke="#cb185b" points="589.481,-112.454 599.97,-109.256 593.244,-109.162 597.007,-105.869 597.007,-105.869 597.007,-105.869 593.244,-109.162 594.043,-102.483 589.481,-112.454 589.481,-112.454"/>
</g>
<!-- User&#45;&gt;User -->
<g id="edge40" class="edge"><title>User&#45;&gt;User</title>
<path fill="none" stroke="#4ea522" d="M565.416,-175.433C574.233,-174.843 581,-170.365 581,-162 581,-153.635 574.233,-149.157 565.416,-148.567"/>
<polygon fill="#4ea522" stroke="#4ea522" points="565.23,-175.417 555.659,-170.065 560.249,-174.982 555.268,-174.547 555.268,-174.547 555.268,-174.547 560.249,-174.982 554.877,-179.03 565.23,-175.417 565.23,-175.417"/>
<polygon fill="#4ea522" stroke="#4ea522" points="565.23,-148.583 554.877,-144.97 560.249,-149.018 555.268,-149.453 555.268,-149.453 555.268,-149.453 560.249,-149.018 555.659,-153.935 565.23,-148.583 565.23,-148.583"/>
</g>
<!-- User&#45;&gt;VerificatorComment -->
<g id="edge41" class="edge"><title>User&#45;&gt;VerificatorComment</title>
<path fill="none" stroke="#95605b" d="M567.473,-150.54C602.982,-139.443 659.687,-121.723 702.016,-108.495"/>
<ellipse fill="none" stroke="#95605b" cx="563.514" cy="-151.777" rx="4.00001" ry="4.00001"/>
<polygon fill="#95605b" stroke="#95605b" points="702.085,-108.474 712.972,-109.786 706.857,-106.982 711.63,-105.491 711.63,-105.491 711.63,-105.491 706.857,-106.982 710.287,-101.196 702.085,-108.474 702.085,-108.474"/>
</g>
<!-- UserType -->
<g id="node20" class="node"><title>UserType</title>
<ellipse fill="none" stroke="black" cx="534" cy="-234" rx="48.1578" ry="18"/>
<text text-anchor="middle" x="534" y="-228.4" font-family="Times,serif" font-size="14.00">UserType</text>
</g>
<!-- UserType&#45;&gt;User -->
<g id="edge43" class="edge"><title>UserType&#45;&gt;User</title>
<path fill="none" stroke="#467d44" d="M534,-207.64C534,-202.063 534,-196.132 534,-190.476"/>
<ellipse fill="none" stroke="#467d44" cx="534" cy="-211.697" rx="4" ry="4"/>
<polygon fill="#467d44" stroke="#467d44" points="534,-190.104 538.5,-180.104 534,-185.104 534,-180.104 534,-180.104 534,-180.104 534,-185.104 529.5,-180.104 534,-190.104 534,-190.104"/>
</g>
<!-- ActiveRecord::Base -->
<g id="node22" class="node"><title>ActiveRecord::Base</title>
<ellipse fill="none" stroke="black" cx="648" cy="-403" rx="88.2033" ry="18"/>
<text text-anchor="middle" x="648" y="-397.4" font-family="Times,serif" font-size="14.00">ActiveRecord::Base</text>
</g>
<!-- ActiveRecord::Base&#45;&gt;Action -->
<g id="edge3" class="edge"><title>ActiveRecord::Base&#45;&gt;Action</title>
<path fill="none" stroke="black" d="M614.951,-386.268C596.189,-377.737 572.103,-367.446 550,-360 487.482,-338.939 469.339,-342.444 406,-324 400.58,-322.422 394.874,-320.64 389.32,-318.84"/>
<polyline fill="none" stroke="black" points="384.275,-317.186 389.026,-318.743 "/>
</g>
<!-- ActiveRecord::Base&#45;&gt;Affiliation -->
<g id="edge6" class="edge"><title>ActiveRecord::Base&#45;&gt;Affiliation</title>
<path fill="none" stroke="black" d="M668.38,-385.452C688.758,-368.906 720.066,-343.485 741.485,-326.093"/>
<polyline fill="none" stroke="black" points="745.631,-322.727 741.749,-325.879 "/>
</g>
<!-- ActiveRecord::Base&#45;&gt;Card -->
<g id="edge16" class="edge"><title>ActiveRecord::Base&#45;&gt;Card</title>
<path fill="none" stroke="black" d="M720.709,-392.717C798.225,-381.152 913.434,-358.594 940,-324 958.517,-299.888 929.188,-269.706 906.19,-251.412"/>
<polyline fill="none" stroke="black" points="901.983,-248.138 905.929,-251.209 "/>
</g>
<!-- ActiveRecord::Base&#45;&gt;CardAffiliation -->
<g id="edge17" class="edge"><title>ActiveRecord::Base&#45;&gt;CardAffiliation</title>
<path fill="none" stroke="black" d="M655.048,-384.812C672.494,-342.265 717.675,-232.078 737.008,-184.929"/>
<polyline fill="none" stroke="black" points="739.016,-180.033 737.119,-184.659 "/>
</g>
<!-- ActiveRecord::Base&#45;&gt;CardResponsable -->
<g id="edge18" class="edge"><title>ActiveRecord::Base&#45;&gt;CardResponsable</title>
<path fill="none" stroke="black" d="M735.143,-399.677C867.852,-390.608 1113.02,-350.471 1187,-180 1193.37,-165.323 1196.34,-156.989 1187,-144 1175.28,-127.703 1129.84,-113.501 1090.68,-103.911"/>
<polyline fill="none" stroke="black" points="1085.45,-102.648 1090.31,-103.821 "/>
</g>
<!-- ActiveRecord::Base&#45;&gt;CardType -->
<g id="edge20" class="edge"><title>ActiveRecord::Base&#45;&gt;CardType</title>
<path fill="none" stroke="black" d="M686.018,-386.631C730.387,-368.695 803.22,-339.251 846.795,-321.636"/>
<polyline fill="none" stroke="black" points="851.439,-319.759 846.804,-321.633 "/>
</g>
<!-- ActiveRecord::Base&#45;&gt;CardVerification -->
<g id="edge21" class="edge"><title>ActiveRecord::Base&#45;&gt;CardVerification</title>
<path fill="none" stroke="black" d="M610.564,-386.519C571.07,-369.557 512.326,-342.327 496,-324 442.958,-264.457 465.006,-158.66 478.01,-112.993"/>
<polyline fill="none" stroke="black" points="479.468,-107.987 478.07,-112.787 "/>
</g>
<!-- ActiveRecord::Base&#45;&gt;Element -->
<g id="edge23" class="edge"><title>ActiveRecord::Base&#45;&gt;Element</title>
<path fill="none" stroke="black" d="M617.021,-386.092C598.125,-377.061 573.216,-366.329 550,-360 428.524,-326.883 388.616,-363.311 269,-324 217.769,-307.163 164.17,-273.554 133.842,-252.798"/>
<polyline fill="none" stroke="black" points="129.539,-249.832 133.656,-252.67 "/>
</g>
<!-- ActiveRecord::Base&#45;&gt;Ownership -->
<g id="edge25" class="edge"><title>ActiveRecord::Base&#45;&gt;Ownership</title>
<path fill="none" stroke="black" d="M617.519,-386.063C598.594,-376.903 573.483,-366.046 550,-360 332.778,-304.07 171.192,-445.065 57,-252 16.3675,-183.302 134.18,-129.106 200.759,-104.848"/>
<polyline fill="none" stroke="black" points="205.855,-103.014 201.15,-104.707 "/>
</g>
<!-- ActiveRecord::Base&#45;&gt;OwnershipAction -->
<g id="edge26" class="edge"><title>ActiveRecord::Base&#45;&gt;OwnershipAction</title>
<path fill="none" stroke="black" d="M617.566,-385.874C598.659,-376.644 573.549,-365.782 550,-360 448.486,-335.077 174.916,-369.891 81,-324 32.9452,-300.519 0,-288.485 0,-235 0,-235 0,-235 0,-161 0,-80.3578 100.995,-44.6754 172.765,-29.4994"/>
<polyline fill="none" stroke="black" points="177.88,-28.4418 172.984,-29.4542 "/>
</g>
<!-- ActiveRecord::Base&#45;&gt;OwnershipType -->
<g id="edge28" class="edge"><title>ActiveRecord::Base&#45;&gt;OwnershipType</title>
<path fill="none" stroke="black" d="M616.534,-386.06C597.676,-377.134 572.971,-366.521 550,-360 445.817,-330.426 401.862,-379.727 309,-324 282.625,-308.172 263.448,-277.393 252.768,-256.516"/>
<polyline fill="none" stroke="black" points="250.491,-251.959 252.726,-256.432 "/>
</g>
<!-- ActiveRecord::Base&#45;&gt;Page -->
<g id="edge29" class="edge"><title>ActiveRecord::Base&#45;&gt;Page</title>
<path fill="none" stroke="black" d="M732.571,-397.646C851.45,-390.075 1074.03,-370.572 1258,-324 1263.23,-322.677 1268.68,-320.91 1273.89,-319.014"/>
<polyline fill="none" stroke="black" points="1278.59,-317.247 1273.91,-319.005 "/>
</g>
<!-- ActiveRecord::Base&#45;&gt;Parent -->
<g id="edge30" class="edge"><title>ActiveRecord::Base&#45;&gt;Parent</title>
<path fill="none" stroke="black" d="M644.428,-384.723C641.282,-368.964 636.78,-345.004 634,-324 623.781,-246.804 617.648,-154.494 615.215,-113.048"/>
<polyline fill="none" stroke="black" points="614.923,-108.015 615.212,-113.006 "/>
</g>
<!-- ActiveRecord::Base&#45;&gt;Responsable -->
<g id="edge33" class="edge"><title>ActiveRecord::Base&#45;&gt;Responsable</title>
<path fill="none" stroke="black" d="M733.998,-398.551C800.88,-391.868 892.794,-373.475 957,-324 1003.78,-287.954 1029.41,-219.985 1040.04,-185.014"/>
<polyline fill="none" stroke="black" points="1041.5,-180.101 1040.08,-184.894 "/>
</g>
<!-- ActiveRecord::Base&#45;&gt;Tag -->
<g id="edge35" class="edge"><title>ActiveRecord::Base&#45;&gt;Tag</title>
<path fill="none" stroke="black" d="M729.661,-396.056C801.71,-387.943 907.617,-368.839 989,-324 1054.48,-287.924 1111.38,-217.662 1136.82,-183.135"/>
<polyline fill="none" stroke="black" points="1140.05,-178.706 1137.1,-182.744 "/>
</g>
<!-- ActiveRecord::Base&#45;&gt;Tagging -->
<g id="edge36" class="edge"><title>ActiveRecord::Base&#45;&gt;Tagging</title>
<path fill="none" stroke="black" d="M735.871,-400.518C827.958,-395.826 974.711,-379.304 1088,-324 1161.6,-288.07 1184.63,-259.817 1203,-180 1206.59,-164.408 1207.6,-159.324 1203,-144 1199.48,-132.278 1192.43,-120.757 1185.58,-111.466"/>
<polyline fill="none" stroke="black" points="1182.45,-107.362 1185.48,-111.341 "/>
</g>
<!-- ActiveRecord::Base&#45;&gt;User -->
<g id="edge42" class="edge"><title>ActiveRecord::Base&#45;&gt;User</title>
<path fill="none" stroke="black" d="M617.091,-385.956C576.148,-362.735 505.762,-315.49 477,-252 470.398,-237.426 470.609,-230.668 477,-216 483.74,-200.529 497.469,-187.54 509.763,-178.293"/>
<polyline fill="none" stroke="black" points="513.866,-175.302 509.825,-178.248 "/>
</g>
<!-- ActiveRecord::Base&#45;&gt;UserType -->
<g id="edge44" class="edge"><title>ActiveRecord::Base&#45;&gt;UserType</title>
<path fill="none" stroke="black" d="M636.442,-385.068C615.531,-354.435 571.466,-289.884 548.544,-256.306"/>
<polyline fill="none" stroke="black" points="545.589,-251.977 548.408,-256.106 "/>
</g>
<!-- ActiveRecord::Base&#45;&gt;VerificatorComment -->
<g id="edge45" class="edge"><title>ActiveRecord::Base&#45;&gt;VerificatorComment</title>
<path fill="none" stroke="black" d="M647.241,-384.974C645.282,-334.104 641.833,-184.28 667,-144 676.918,-128.127 693.456,-116.473 709.734,-108.203"/>
<polyline fill="none" stroke="black" points="714.312,-105.959 709.823,-108.159 "/>
</g>
<!-- Object -->
<g id="node23" class="node"><title>Object</title>
<ellipse fill="none" stroke="black" cx="1389" cy="-403" rx="36.1697" ry="18"/>
<text text-anchor="middle" x="1389" y="-397.4" font-family="Times,serif" font-size="14.00">Object</text>
</g>
<!-- Object&#45;&gt;Permission -->
<g id="edge31" class="edge"><title>Object&#45;&gt;Permission</title>
<path fill="none" stroke="black" d="M1389,-384.576C1389,-369.041 1389,-346.217 1389,-329.345"/>
<polyline fill="none" stroke="black" points="1389,-324.314 1389,-329.314 "/>
</g>
</g>
</svg>
