<?xml version="1.0" encoding="UTF-8" standalone="no"?>
<!DOCTYPE svg PUBLIC "-//W3C//DTD SVG 1.1//EN"
 "http://www.w3.org/Graphics/SVG/1.1/DTD/svg11.dtd">
<!-- Generated by graphviz version 2.36.0 (20140111.2315)
 -->
<!-- Title: models_diagram Pages: 1 -->
<svg width="1925pt" height="1178pt"
 viewBox="0.00 0.00 1925.02 1178.00" xmlns="http://www.w3.org/2000/svg" xmlns:xlink="http://www.w3.org/1999/xlink">
<g id="graph0" class="graph" transform="scale(1 1) rotate(0) translate(4 1174)">
<title>models_diagram</title>
<polygon fill="white" stroke="none" points="-4,4 -4,-1174 1921.02,-1174 1921.02,4 -4,4"/>
<!-- _diagram_info -->
<g id="node1" class="node"><title>_diagram_info</title>
<text text-anchor="start" x="526.57" y="-1155.1" font-family="Times,serif" font-size="13.00">Models diagram</text>
<text text-anchor="start" x="526.57" y="-1142.1" font-family="Times,serif" font-size="13.00">Date: Feb 21 2014 &#45; 18:41</text>
<text text-anchor="start" x="526.57" y="-1129.1" font-family="Times,serif" font-size="13.00">Migration version: 20140217211635</text>
<text text-anchor="start" x="526.57" y="-1116.1" font-family="Times,serif" font-size="13.00">Generated by RailRoady 1.1.1</text>
<text text-anchor="start" x="526.57" y="-1103.1" font-family="Times,serif" font-size="13.00">http://railroady.prestonlee.com</text>
</g>
<!-- Action -->
<g id="node2" class="node"><title>Action</title>
<path fill="none" stroke="black" d="M68.5139,-966C68.5139,-966 177.525,-966 177.525,-966 183.525,-966 189.525,-972 189.525,-978 189.525,-978 189.525,-1040 189.525,-1040 189.525,-1046 183.525,-1052 177.525,-1052 177.525,-1052 68.5139,-1052 68.5139,-1052 62.5139,-1052 56.5139,-1046 56.5139,-1040 56.5139,-1040 56.5139,-978 56.5139,-978 56.5139,-972 62.5139,-966 68.5139,-966"/>
<text text-anchor="middle" x="123.019" y="-1036.8" font-family="Times,serif" font-size="14.00">Action</text>
<polyline fill="none" stroke="black" points="56.5139,-1030 189.525,-1030 "/>
<text text-anchor="start" x="64.5139" y="-1014.8" font-family="Times,serif" font-size="14.00">id :integer</text>
<text text-anchor="start" x="64.5139" y="-1000.8" font-family="Times,serif" font-size="14.00">name :string</text>
<text text-anchor="start" x="64.5139" y="-986.8" font-family="Times,serif" font-size="14.00">created_at :datetime</text>
<text text-anchor="start" x="64.5139" y="-972.8" font-family="Times,serif" font-size="14.00">updated_at :datetime</text>
</g>
<!-- Ownership -->
<g id="node12" class="node"><title>Ownership</title>
<path fill="none" stroke="black" d="M159.231,-139C159.231,-139 304.807,-139 304.807,-139 310.807,-139 316.807,-145 316.807,-151 316.807,-151 316.807,-311 316.807,-311 316.807,-317 310.807,-323 304.807,-323 304.807,-323 159.231,-323 159.231,-323 153.231,-323 147.231,-317 147.231,-311 147.231,-311 147.231,-151 147.231,-151 147.231,-145 153.231,-139 159.231,-139"/>
<text text-anchor="middle" x="232.019" y="-307.8" font-family="Times,serif" font-size="14.00">Ownership</text>
<polyline fill="none" stroke="black" points="147.231,-301 316.807,-301 "/>
<text text-anchor="start" x="155.231" y="-285.8" font-family="Times,serif" font-size="14.00">id :integer</text>
<text text-anchor="start" x="155.231" y="-271.8" font-family="Times,serif" font-size="14.00">element_id :integer</text>
<text text-anchor="start" x="155.231" y="-257.8" font-family="Times,serif" font-size="14.00">user_id :integer</text>
<text text-anchor="start" x="155.231" y="-243.8" font-family="Times,serif" font-size="14.00">ownership_type_id :integer</text>
<text text-anchor="start" x="155.231" y="-229.8" font-family="Times,serif" font-size="14.00">right_create :boolean</text>
<text text-anchor="start" x="155.231" y="-215.8" font-family="Times,serif" font-size="14.00">right_read :boolean</text>
<text text-anchor="start" x="155.231" y="-201.8" font-family="Times,serif" font-size="14.00">right_update :boolean</text>
<text text-anchor="start" x="155.231" y="-187.8" font-family="Times,serif" font-size="14.00">right_delete :boolean</text>
<text text-anchor="start" x="155.231" y="-173.8" font-family="Times,serif" font-size="14.00">id_element :integer</text>
<text text-anchor="start" x="155.231" y="-159.8" font-family="Times,serif" font-size="14.00">created_at :datetime</text>
<text text-anchor="start" x="155.231" y="-145.8" font-family="Times,serif" font-size="14.00">updated_at :datetime</text>
</g>
<!-- Action&#45;&gt;Ownership -->
<g id="edge2" class="edge"><title>Action&#45;&gt;Ownership</title>
<path fill="none" stroke="#ab06fc" d="M123.759,-955.206C126.074,-821.379 134.998,-471.58 166.019,-360 168.554,-350.882 171.782,-341.662 175.443,-332.57"/>
<polygon fill="#ab06fc" stroke="#ab06fc" points="123.752,-955.596 119.085,-965.519 123.668,-960.595 123.585,-965.595 123.585,-965.595 123.585,-965.595 123.668,-960.595 128.084,-965.67 123.752,-955.596 123.752,-955.596"/>
<polygon fill="#ab06fc" stroke="#ab06fc" points="175.528,-332.368 183.553,-324.894 177.466,-327.759 179.404,-323.15 179.404,-323.15 179.404,-323.15 177.466,-327.759 175.256,-321.406 175.528,-332.368 175.528,-332.368"/>
</g>
<!-- OwnershipAction -->
<g id="node13" class="node"><title>OwnershipAction</title>
<path fill="none" stroke="black" d="M46.7829,-1C46.7829,-1 161.256,-1 161.256,-1 167.256,-1 173.256,-7 173.256,-13 173.256,-13 173.256,-89 173.256,-89 173.256,-95 167.256,-101 161.256,-101 161.256,-101 46.7829,-101 46.7829,-101 40.7829,-101 34.7829,-95 34.7829,-89 34.7829,-89 34.7829,-13 34.7829,-13 34.7829,-7 40.7829,-1 46.7829,-1"/>
<text text-anchor="middle" x="104.019" y="-85.8" font-family="Times,serif" font-size="14.00">OwnershipAction</text>
<polyline fill="none" stroke="black" points="34.7829,-79 173.256,-79 "/>
<text text-anchor="start" x="42.7829" y="-63.8" font-family="Times,serif" font-size="14.00">id :integer</text>
<text text-anchor="start" x="42.7829" y="-49.8" font-family="Times,serif" font-size="14.00">action_id :integer</text>
<text text-anchor="start" x="42.7829" y="-35.8" font-family="Times,serif" font-size="14.00">ownership_id :integer</text>
<text text-anchor="start" x="42.7829" y="-21.8" font-family="Times,serif" font-size="14.00">created_at :datetime</text>
<text text-anchor="start" x="42.7829" y="-7.8" font-family="Times,serif" font-size="14.00">updated_at :datetime</text>
</g>
<!-- Action&#45;&gt;OwnershipAction -->
<g id="edge1" class="edge"><title>Action&#45;&gt;OwnershipAction</title>
<path fill="none" stroke="#9a22fb" d="M121.808,-957.271C121.54,-945.68 121.264,-933.414 121.019,-922 114.493,-616.989 107.684,-251.804 105.1,-111.187"/>
<ellipse fill="none" stroke="#9a22fb" cx="121.908" cy="-961.572" rx="4" ry="4"/>
<polygon fill="#9a22fb" stroke="#9a22fb" points="105.098,-111.055 109.413,-100.974 105.006,-106.056 104.914,-101.057 104.914,-101.057 104.914,-101.057 105.006,-106.056 100.415,-101.139 105.098,-111.055 105.098,-111.055"/>
</g>
<!-- Affiliation -->
<g id="node3" class="node"><title>Affiliation</title>
<path fill="none" stroke="black" d="M865.514,-966C865.514,-966 974.525,-966 974.525,-966 980.525,-966 986.525,-972 986.525,-978 986.525,-978 986.525,-1040 986.525,-1040 986.525,-1046 980.525,-1052 974.525,-1052 974.525,-1052 865.514,-1052 865.514,-1052 859.514,-1052 853.514,-1046 853.514,-1040 853.514,-1040 853.514,-978 853.514,-978 853.514,-972 859.514,-966 865.514,-966"/>
<text text-anchor="middle" x="920.019" y="-1036.8" font-family="Times,serif" font-size="14.00">Affiliation</text>
<polyline fill="none" stroke="black" points="853.514,-1030 986.525,-1030 "/>
<text text-anchor="start" x="861.514" y="-1014.8" font-family="Times,serif" font-size="14.00">id :integer</text>
<text text-anchor="start" x="861.514" y="-1000.8" font-family="Times,serif" font-size="14.00">name :string</text>
<text text-anchor="start" x="861.514" y="-986.8" font-family="Times,serif" font-size="14.00">created_at :datetime</text>
<text text-anchor="start" x="861.514" y="-972.8" font-family="Times,serif" font-size="14.00">updated_at :datetime</text>
</g>
<!-- Card -->
<g id="node5" class="node"><title>Card</title>
<path fill="none" stroke="black" d="M952.718,-611C952.718,-611 1077.32,-611 1077.32,-611 1083.32,-611 1089.32,-617 1089.32,-623 1089.32,-623 1089.32,-909 1089.32,-909 1089.32,-915 1083.32,-921 1077.32,-921 1077.32,-921 952.718,-921 952.718,-921 946.718,-921 940.718,-915 940.718,-909 940.718,-909 940.718,-623 940.718,-623 940.718,-617 946.718,-611 952.718,-611"/>
<text text-anchor="middle" x="1015.02" y="-905.8" font-family="Times,serif" font-size="14.00">Card</text>
<polyline fill="none" stroke="black" points="940.718,-899 1089.32,-899 "/>
<text text-anchor="start" x="948.718" y="-883.8" font-family="Times,serif" font-size="14.00">id :integer</text>
<text text-anchor="start" x="948.718" y="-869.8" font-family="Times,serif" font-size="14.00">card_type_id :integer</text>
<text text-anchor="start" x="948.718" y="-855.8" font-family="Times,serif" font-size="14.00">name :string</text>
<text text-anchor="start" x="948.718" y="-841.8" font-family="Times,serif" font-size="14.00">responsable_id :integer</text>
<text text-anchor="start" x="948.718" y="-827.8" font-family="Times,serif" font-size="14.00">email :string</text>
<text text-anchor="start" x="948.718" y="-813.8" font-family="Times,serif" font-size="14.00">street :string</text>
<text text-anchor="start" x="948.718" y="-799.8" font-family="Times,serif" font-size="14.00">place :string</text>
<text text-anchor="start" x="948.718" y="-785.8" font-family="Times,serif" font-size="14.00">website :string</text>
<text text-anchor="start" x="948.718" y="-771.8" font-family="Times,serif" font-size="14.00">password_digest :string</text>
<text text-anchor="start" x="948.718" y="-757.8" font-family="Times,serif" font-size="14.00">description :text</text>
<text text-anchor="start" x="948.718" y="-743.8" font-family="Times,serif" font-size="14.00">affiliation :text</text>
<text text-anchor="start" x="948.718" y="-729.8" font-family="Times,serif" font-size="14.00">validated :boolean</text>
<text text-anchor="start" x="948.718" y="-715.8" font-family="Times,serif" font-size="14.00">created_at :datetime</text>
<text text-anchor="start" x="948.718" y="-701.8" font-family="Times,serif" font-size="14.00">updated_at :datetime</text>
<text text-anchor="start" x="948.718" y="-687.8" font-family="Times,serif" font-size="14.00">latitude :float</text>
<text text-anchor="start" x="948.718" y="-673.8" font-family="Times,serif" font-size="14.00">longitude :float</text>
<text text-anchor="start" x="948.718" y="-659.8" font-family="Times,serif" font-size="14.00">avatar :string</text>
<text text-anchor="start" x="948.718" y="-645.8" font-family="Times,serif" font-size="14.00">banner :string</text>
<text text-anchor="start" x="948.718" y="-631.8" font-family="Times,serif" font-size="14.00">card_id :integer</text>
<text text-anchor="start" x="948.718" y="-617.8" font-family="Times,serif" font-size="14.00">location_id :integer</text>
</g>
<!-- Affiliation&#45;&gt;Card -->
<g id="edge5" class="edge"><title>Affiliation&#45;&gt;Card</title>
<path fill="none" stroke="#b5c4b9" d="M940.44,-956.197C943.585,-948.218 946.968,-939.635 950.495,-930.687"/>
<polygon fill="#b5c4b9" stroke="#b5c4b9" points="940.343,-956.442 932.489,-964.095 938.509,-961.094 936.676,-965.745 936.676,-965.745 936.676,-965.745 938.509,-961.094 940.862,-967.396 940.343,-956.442 940.343,-956.442"/>
<polygon fill="#b5c4b9" stroke="#b5c4b9" points="950.552,-930.542 958.406,-922.889 952.386,-925.891 954.22,-921.239 954.22,-921.239 954.22,-921.239 952.386,-925.891 950.033,-919.589 950.552,-930.542 950.552,-930.542"/>
</g>
<!-- CardAffiliation -->
<g id="node6" class="node"><title>CardAffiliation</title>
<path fill="none" stroke="black" d="M826.728,-417C826.728,-417 937.311,-417 937.311,-417 943.311,-417 949.311,-423 949.311,-429 949.311,-429 949.311,-505 949.311,-505 949.311,-511 943.311,-517 937.311,-517 937.311,-517 826.728,-517 826.728,-517 820.728,-517 814.728,-511 814.728,-505 814.728,-505 814.728,-429 814.728,-429 814.728,-423 820.728,-417 826.728,-417"/>
<text text-anchor="middle" x="882.019" y="-501.8" font-family="Times,serif" font-size="14.00">CardAffiliation</text>
<polyline fill="none" stroke="black" points="814.728,-495 949.311,-495 "/>
<text text-anchor="start" x="822.728" y="-479.8" font-family="Times,serif" font-size="14.00">id :integer</text>
<text text-anchor="start" x="822.728" y="-465.8" font-family="Times,serif" font-size="14.00">card_id :integer</text>
<text text-anchor="start" x="822.728" y="-451.8" font-family="Times,serif" font-size="14.00">affiliation_id :integer</text>
<text text-anchor="start" x="822.728" y="-437.8" font-family="Times,serif" font-size="14.00">created_at :datetime</text>
<text text-anchor="start" x="822.728" y="-423.8" font-family="Times,serif" font-size="14.00">updated_at :datetime</text>
</g>
<!-- Affiliation&#45;&gt;CardAffiliation -->
<g id="edge4" class="edge"><title>Affiliation&#45;&gt;CardAffiliation</title>
<path fill="none" stroke="#fc8ef2" d="M916.467,-957.52C909.424,-857.439 893.724,-634.325 886.198,-527.386"/>
<ellipse fill="none" stroke="#fc8ef2" cx="916.757" cy="-961.637" rx="4" ry="4"/>
<polygon fill="#fc8ef2" stroke="#fc8ef2" points="886.176,-527.073 889.963,-516.782 885.825,-522.086 885.474,-517.098 885.474,-517.098 885.474,-517.098 885.825,-522.086 880.985,-517.414 886.176,-527.073 886.176,-527.073"/>
</g>
<!-- Canton -->
<g id="node4" class="node"><title>Canton</title>
<path fill="none" stroke="black" d="M1548.51,-959C1548.51,-959 1657.52,-959 1657.52,-959 1663.52,-959 1669.52,-965 1669.52,-971 1669.52,-971 1669.52,-1047 1669.52,-1047 1669.52,-1053 1663.52,-1059 1657.52,-1059 1657.52,-1059 1548.51,-1059 1548.51,-1059 1542.51,-1059 1536.51,-1053 1536.51,-1047 1536.51,-1047 1536.51,-971 1536.51,-971 1536.51,-965 1542.51,-959 1548.51,-959"/>
<text text-anchor="middle" x="1603.02" y="-1043.8" font-family="Times,serif" font-size="14.00">Canton</text>
<polyline fill="none" stroke="black" points="1536.51,-1037 1669.52,-1037 "/>
<text text-anchor="start" x="1544.51" y="-1021.8" font-family="Times,serif" font-size="14.00">id :integer</text>
<text text-anchor="start" x="1544.51" y="-1007.8" font-family="Times,serif" font-size="14.00">name :string</text>
<text text-anchor="start" x="1544.51" y="-993.8" font-family="Times,serif" font-size="14.00">abbreviation :string</text>
<text text-anchor="start" x="1544.51" y="-979.8" font-family="Times,serif" font-size="14.00">created_at :datetime</text>
<text text-anchor="start" x="1544.51" y="-965.8" font-family="Times,serif" font-size="14.00">updated_at :datetime</text>
</g>
<!-- Location -->
<g id="node11" class="node"><title>Location</title>
<path fill="none" stroke="black" d="M1529.51,-702C1529.51,-702 1638.52,-702 1638.52,-702 1644.52,-702 1650.52,-708 1650.52,-714 1650.52,-714 1650.52,-818 1650.52,-818 1650.52,-824 1644.52,-830 1638.52,-830 1638.52,-830 1529.51,-830 1529.51,-830 1523.51,-830 1517.51,-824 1517.51,-818 1517.51,-818 1517.51,-714 1517.51,-714 1517.51,-708 1523.51,-702 1529.51,-702"/>
<text text-anchor="middle" x="1584.02" y="-814.8" font-family="Times,serif" font-size="14.00">Location</text>
<polyline fill="none" stroke="black" points="1517.51,-808 1650.52,-808 "/>
<text text-anchor="start" x="1525.51" y="-792.8" font-family="Times,serif" font-size="14.00">id :integer</text>
<text text-anchor="start" x="1525.51" y="-778.8" font-family="Times,serif" font-size="14.00">npa :integer</text>
<text text-anchor="start" x="1525.51" y="-764.8" font-family="Times,serif" font-size="14.00">official_name :string</text>
<text text-anchor="start" x="1525.51" y="-750.8" font-family="Times,serif" font-size="14.00">post_name :string</text>
<text text-anchor="start" x="1525.51" y="-736.8" font-family="Times,serif" font-size="14.00">canton_id :integer</text>
<text text-anchor="start" x="1525.51" y="-722.8" font-family="Times,serif" font-size="14.00">created_at :datetime</text>
<text text-anchor="start" x="1525.51" y="-708.8" font-family="Times,serif" font-size="14.00">updated_at :datetime</text>
</g>
<!-- Canton&#45;&gt;Location -->
<g id="edge7" class="edge"><title>Canton&#45;&gt;Location</title>
<path fill="none" stroke="#12def4" d="M1598.52,-950.9C1595.91,-917.875 1592.61,-875.967 1589.81,-840.5"/>
<ellipse fill="none" stroke="#12def4" cx="1598.84" cy="-954.952" rx="4" ry="4"/>
<polygon fill="#12def4" stroke="#12def4" points="1589.79,-840.17 1593.49,-829.847 1589.39,-835.185 1589,-830.201 1589,-830.201 1589,-830.201 1589.39,-835.185 1584.52,-830.554 1589.79,-840.17 1589.79,-840.17"/>
</g>
<!-- Card&#45;&gt;Card -->
<g id="edge17" class="edge"><title>Card&#45;&gt;Card</title>
<path fill="none" stroke="#87afcb" d="M1095.77,-801.395C1102.7,-793.861 1107.02,-782.063 1107.02,-766 1107.02,-749.937 1102.7,-738.139 1095.77,-730.605"/>
<ellipse fill="none" stroke="#87afcb" cx="1092.45" cy="-804.159" rx="4.00002" ry="4.00002"/>
<ellipse fill="#87afcb" stroke="#87afcb" cx="1092.45" cy="-727.841" rx="4.00002" ry="4.00002"/>
</g>
<!-- Card&#45;&gt;CardAffiliation -->
<g id="edge13" class="edge"><title>Card&#45;&gt;CardAffiliation</title>
<path fill="none" stroke="#b648a5" d="M942.597,-603.276C930.285,-575.781 918.245,-548.895 908.185,-526.43"/>
<ellipse fill="none" stroke="#b648a5" cx="944.352" cy="-607.195" rx="4.00002" ry="4.00002"/>
<polygon fill="#b648a5" stroke="#b648a5" points="908.086,-526.21 908.106,-515.244 906.043,-521.647 903.999,-517.083 903.999,-517.083 903.999,-517.083 906.043,-521.647 899.892,-518.922 908.086,-526.21 908.086,-526.21"/>
</g>
<!-- CardResponsable -->
<g id="node7" class="node"><title>CardResponsable</title>
<path fill="none" stroke="black" d="M1120.9,-181C1120.9,-181 1243.14,-181 1243.14,-181 1249.14,-181 1255.14,-187 1255.14,-193 1255.14,-193 1255.14,-269 1255.14,-269 1255.14,-275 1249.14,-281 1243.14,-281 1243.14,-281 1120.9,-281 1120.9,-281 1114.9,-281 1108.9,-275 1108.9,-269 1108.9,-269 1108.9,-193 1108.9,-193 1108.9,-187 1114.9,-181 1120.9,-181"/>
<text text-anchor="middle" x="1182.02" y="-265.8" font-family="Times,serif" font-size="14.00">CardResponsable</text>
<polyline fill="none" stroke="black" points="1108.9,-259 1255.14,-259 "/>
<text text-anchor="start" x="1116.9" y="-243.8" font-family="Times,serif" font-size="14.00">id :integer</text>
<text text-anchor="start" x="1116.9" y="-229.8" font-family="Times,serif" font-size="14.00">card_id :integer</text>
<text text-anchor="start" x="1116.9" y="-215.8" font-family="Times,serif" font-size="14.00">responsable_id :integer</text>
<text text-anchor="start" x="1116.9" y="-201.8" font-family="Times,serif" font-size="14.00">created_at :datetime</text>
<text text-anchor="start" x="1116.9" y="-187.8" font-family="Times,serif" font-size="14.00">updated_at :datetime</text>
</g>
<!-- Card&#45;&gt;CardResponsable -->
<g id="edge9" class="edge"><title>Card&#45;&gt;CardResponsable</title>
<path fill="none" stroke="#a7c2fb" d="M1031.04,-602.738C1041.95,-509.649 1057.86,-402.965 1077.02,-360 1088.44,-334.395 1106.4,-309.72 1124.26,-288.983"/>
<ellipse fill="none" stroke="#a7c2fb" cx="1030.56" cy="-606.868" rx="4.00001" ry="4.00001"/>
<polygon fill="#a7c2fb" stroke="#a7c2fb" points="1124.47,-288.738 1134.46,-284.209 1127.78,-284.987 1131.08,-281.235 1131.08,-281.235 1131.08,-281.235 1127.78,-284.987 1127.71,-278.26 1124.47,-288.738 1124.47,-288.738"/>
</g>
<!-- CardVerification -->
<g id="node9" class="node"><title>CardVerification</title>
<path fill="none" stroke="black" d="M505.514,-181C505.514,-181 614.525,-181 614.525,-181 620.525,-181 626.525,-187 626.525,-193 626.525,-193 626.525,-269 626.525,-269 626.525,-275 620.525,-281 614.525,-281 614.525,-281 505.514,-281 505.514,-281 499.514,-281 493.514,-275 493.514,-269 493.514,-269 493.514,-193 493.514,-193 493.514,-187 499.514,-181 505.514,-181"/>
<text text-anchor="middle" x="560.019" y="-265.8" font-family="Times,serif" font-size="14.00">CardVerification</text>
<polyline fill="none" stroke="black" points="493.514,-259 626.525,-259 "/>
<text text-anchor="start" x="501.514" y="-243.8" font-family="Times,serif" font-size="14.00">id :integer</text>
<text text-anchor="start" x="501.514" y="-229.8" font-family="Times,serif" font-size="14.00">card_id :integer</text>
<text text-anchor="start" x="501.514" y="-215.8" font-family="Times,serif" font-size="14.00">user_id :integer</text>
<text text-anchor="start" x="501.514" y="-201.8" font-family="Times,serif" font-size="14.00">created_at :datetime</text>
<text text-anchor="start" x="501.514" y="-187.8" font-family="Times,serif" font-size="14.00">updated_at :datetime</text>
</g>
<!-- Card&#45;&gt;CardVerification -->
<g id="edge11" class="edge"><title>Card&#45;&gt;CardVerification</title>
<path fill="none" stroke="#c75ef5" d="M994.48,-602.927C980.075,-492.117 962.604,-364.454 958.019,-360 906.22,-309.672 698.438,-358.557 635.019,-324 619.742,-315.675 606.383,-302.835 595.34,-289.362"/>
<ellipse fill="none" stroke="#c75ef5" cx="994.997" cy="-606.908" rx="4.00001" ry="4.00001"/>
<polygon fill="#c75ef5" stroke="#c75ef5" points="595.266,-289.267 592.655,-278.616 592.187,-285.327 589.109,-281.387 589.109,-281.387 589.109,-281.387 592.187,-285.327 585.563,-284.157 595.266,-289.267 595.266,-289.267"/>
</g>
<!-- Responsable -->
<g id="node18" class="node"><title>Responsable</title>
<path fill="none" stroke="black" d="M1131.51,-410C1131.51,-410 1240.52,-410 1240.52,-410 1246.52,-410 1252.52,-416 1252.52,-422 1252.52,-422 1252.52,-512 1252.52,-512 1252.52,-518 1246.52,-524 1240.52,-524 1240.52,-524 1131.51,-524 1131.51,-524 1125.51,-524 1119.51,-518 1119.51,-512 1119.51,-512 1119.51,-422 1119.51,-422 1119.51,-416 1125.51,-410 1131.51,-410"/>
<text text-anchor="middle" x="1186.02" y="-508.8" font-family="Times,serif" font-size="14.00">Responsable</text>
<polyline fill="none" stroke="black" points="1119.51,-502 1252.52,-502 "/>
<text text-anchor="start" x="1127.51" y="-486.8" font-family="Times,serif" font-size="14.00">id :integer</text>
<text text-anchor="start" x="1127.51" y="-472.8" font-family="Times,serif" font-size="14.00">firstname :string</text>
<text text-anchor="start" x="1127.51" y="-458.8" font-family="Times,serif" font-size="14.00">lastname :string</text>
<text text-anchor="start" x="1127.51" y="-444.8" font-family="Times,serif" font-size="14.00">email :string</text>
<text text-anchor="start" x="1127.51" y="-430.8" font-family="Times,serif" font-size="14.00">created_at :datetime</text>
<text text-anchor="start" x="1127.51" y="-416.8" font-family="Times,serif" font-size="14.00">updated_at :datetime</text>
</g>
<!-- Card&#45;&gt;Responsable -->
<g id="edge10" class="edge"><title>Card&#45;&gt;Responsable</title>
<path fill="none" stroke="#7f9bb0" d="M1094.55,-626.869C1113.44,-594.051 1132.73,-560.555 1148.69,-532.833"/>
<polygon fill="#7f9bb0" stroke="#7f9bb0" points="1094.51,-626.929 1085.63,-633.35 1092.02,-631.262 1089.52,-635.595 1089.52,-635.595 1089.52,-635.595 1092.02,-631.262 1093.42,-637.841 1094.51,-626.929 1094.51,-626.929"/>
<polygon fill="#7f9bb0" stroke="#7f9bb0" points="1148.76,-532.71 1157.65,-526.289 1151.26,-528.376 1153.75,-524.043 1153.75,-524.043 1153.75,-524.043 1151.26,-528.376 1149.85,-521.798 1148.76,-532.71 1148.76,-532.71"/>
</g>
<!-- Tag -->
<g id="node19" class="node"><title>Tag</title>
<path fill="none" stroke="black" d="M1282.51,-417C1282.51,-417 1391.52,-417 1391.52,-417 1397.52,-417 1403.52,-423 1403.52,-429 1403.52,-429 1403.52,-505 1403.52,-505 1403.52,-511 1397.52,-517 1391.52,-517 1391.52,-517 1282.51,-517 1282.51,-517 1276.51,-517 1270.51,-511 1270.51,-505 1270.51,-505 1270.51,-429 1270.51,-429 1270.51,-423 1276.51,-417 1282.51,-417"/>
<text text-anchor="middle" x="1337.02" y="-501.8" font-family="Times,serif" font-size="14.00">Tag</text>
<polyline fill="none" stroke="black" points="1270.51,-495 1403.52,-495 "/>
<text text-anchor="start" x="1278.51" y="-479.8" font-family="Times,serif" font-size="14.00">id :integer</text>
<text text-anchor="start" x="1278.51" y="-465.8" font-family="Times,serif" font-size="14.00">name :string</text>
<text text-anchor="start" x="1278.51" y="-451.8" font-family="Times,serif" font-size="14.00">popularity :integer</text>
<text text-anchor="start" x="1278.51" y="-437.8" font-family="Times,serif" font-size="14.00">created_at :datetime</text>
<text text-anchor="start" x="1278.51" y="-423.8" font-family="Times,serif" font-size="14.00">updated_at :datetime</text>
</g>
<!-- Card&#45;&gt;Tag -->
<g id="edge15" class="edge"><title>Card&#45;&gt;Tag</title>
<path fill="none" stroke="#27c51a" d="M1097.79,-709.902C1147.99,-674.35 1211.65,-625.293 1261.02,-574 1275.06,-559.413 1288.56,-542.084 1300.19,-525.709"/>
<polygon fill="#27c51a" stroke="#27c51a" points="1097.72,-709.955 1086.95,-712.032 1093.63,-712.833 1089.54,-715.712 1089.54,-715.712 1089.54,-715.712 1093.63,-712.833 1092.13,-719.391 1097.72,-709.955 1097.72,-709.955"/>
<polygon fill="#27c51a" stroke="#27c51a" points="1300.37,-525.452 1309.79,-519.828 1303.24,-521.352 1306.1,-517.252 1306.1,-517.252 1306.1,-517.252 1303.24,-521.352 1302.41,-514.676 1300.37,-525.452 1300.37,-525.452"/>
</g>
<!-- Tagging -->
<g id="node20" class="node"><title>Tagging</title>
<path fill="none" stroke="black" d="M1285.51,-181C1285.51,-181 1394.52,-181 1394.52,-181 1400.52,-181 1406.52,-187 1406.52,-193 1406.52,-193 1406.52,-269 1406.52,-269 1406.52,-275 1400.52,-281 1394.52,-281 1394.52,-281 1285.51,-281 1285.51,-281 1279.51,-281 1273.51,-275 1273.51,-269 1273.51,-269 1273.51,-193 1273.51,-193 1273.51,-187 1279.51,-181 1285.51,-181"/>
<text text-anchor="middle" x="1340.02" y="-265.8" font-family="Times,serif" font-size="14.00">Tagging</text>
<polyline fill="none" stroke="black" points="1273.51,-259 1406.52,-259 "/>
<text text-anchor="start" x="1281.51" y="-243.8" font-family="Times,serif" font-size="14.00">id :integer</text>
<text text-anchor="start" x="1281.51" y="-229.8" font-family="Times,serif" font-size="14.00">card_id :integer</text>
<text text-anchor="start" x="1281.51" y="-215.8" font-family="Times,serif" font-size="14.00">tag_id :integer</text>
<text text-anchor="start" x="1281.51" y="-201.8" font-family="Times,serif" font-size="14.00">created_at :datetime</text>
<text text-anchor="start" x="1281.51" y="-187.8" font-family="Times,serif" font-size="14.00">updated_at :datetime</text>
</g>
<!-- Card&#45;&gt;Tagging -->
<g id="edge14" class="edge"><title>Card&#45;&gt;Tagging</title>
<path fill="none" stroke="#173cf3" d="M1062.83,-602.945C1065.36,-593.176 1067.78,-583.472 1070.02,-574 1092.32,-479.847 1043.15,-429.936 1110.02,-360 1158.59,-309.195 1204.28,-361.038 1264.02,-324 1278.45,-315.05 1291.44,-302.397 1302.42,-289.33"/>
<ellipse fill="none" stroke="#173cf3" cx="1061.8" cy="-606.92" rx="4.00001" ry="4.00001"/>
<polygon fill="#173cf3" stroke="#173cf3" points="1302.72,-288.958 1312.5,-283.994 1305.86,-285.064 1308.99,-281.171 1308.99,-281.171 1308.99,-281.171 1305.86,-285.064 1305.49,-278.347 1302.72,-288.958 1302.72,-288.958"/>
</g>
<!-- User -->
<g id="node21" class="node"><title>User</title>
<path fill="none" stroke="black" d="M564.955,-361C564.955,-361 691.083,-361 691.083,-361 697.083,-361 703.083,-367 703.083,-373 703.083,-373 703.083,-561 703.083,-561 703.083,-567 697.083,-573 691.083,-573 691.083,-573 564.955,-573 564.955,-573 558.955,-573 552.955,-567 552.955,-561 552.955,-561 552.955,-373 552.955,-373 552.955,-367 558.955,-361 564.955,-361"/>
<text text-anchor="middle" x="628.019" y="-557.8" font-family="Times,serif" font-size="14.00">User</text>
<polyline fill="none" stroke="black" points="552.955,-551 703.083,-551 "/>
<text text-anchor="start" x="560.955" y="-535.8" font-family="Times,serif" font-size="14.00">id :integer</text>
<text text-anchor="start" x="560.955" y="-521.8" font-family="Times,serif" font-size="14.00">email :string</text>
<text text-anchor="start" x="560.955" y="-507.8" font-family="Times,serif" font-size="14.00">gravatar_email :string</text>
<text text-anchor="start" x="560.955" y="-493.8" font-family="Times,serif" font-size="14.00">password_digest :string</text>
<text text-anchor="start" x="560.955" y="-479.8" font-family="Times,serif" font-size="14.00">remember_token :string</text>
<text text-anchor="start" x="560.955" y="-465.8" font-family="Times,serif" font-size="14.00">user_type_id :integer</text>
<text text-anchor="start" x="560.955" y="-451.8" font-family="Times,serif" font-size="14.00">uid :string</text>
<text text-anchor="start" x="560.955" y="-437.8" font-family="Times,serif" font-size="14.00">created_at :datetime</text>
<text text-anchor="start" x="560.955" y="-423.8" font-family="Times,serif" font-size="14.00">updated_at :datetime</text>
<text text-anchor="start" x="560.955" y="-409.8" font-family="Times,serif" font-size="14.00">reset_token :string</text>
<text text-anchor="start" x="560.955" y="-395.8" font-family="Times,serif" font-size="14.00">reset_sent_at :datetime</text>
<text text-anchor="start" x="560.955" y="-381.8" font-family="Times,serif" font-size="14.00">firstname :string</text>
<text text-anchor="start" x="560.955" y="-367.8" font-family="Times,serif" font-size="14.00">lastname :string</text>
</g>
<!-- Card&#45;&gt;User -->
<g id="edge12" class="edge"><title>Card&#45;&gt;User</title>
<path fill="none" stroke="#2d1ba2" d="M932.266,-701.492C867.193,-651.552 776.929,-582.279 711.634,-532.17"/>
<polygon fill="#2d1ba2" stroke="#2d1ba2" points="932.469,-701.647 937.662,-711.305 936.435,-704.691 940.402,-707.735 940.402,-707.735 940.402,-707.735 936.435,-704.691 943.141,-704.166 932.469,-701.647 932.469,-701.647"/>
<polygon fill="#2d1ba2" stroke="#2d1ba2" points="711.33,-531.936 706.137,-522.278 707.364,-528.892 703.397,-525.848 703.397,-525.848 703.397,-525.848 707.364,-528.892 700.658,-529.418 711.33,-531.936 711.33,-531.936"/>
</g>
<!-- VerificatorComment -->
<g id="node23" class="node"><title>VerificatorComment</title>
<path fill="none" stroke="black" d="M807.514,-174C807.514,-174 916.525,-174 916.525,-174 922.525,-174 928.525,-180 928.525,-186 928.525,-186 928.525,-276 928.525,-276 928.525,-282 922.525,-288 916.525,-288 916.525,-288 807.514,-288 807.514,-288 801.514,-288 795.514,-282 795.514,-276 795.514,-276 795.514,-186 795.514,-186 795.514,-180 801.514,-174 807.514,-174"/>
<text text-anchor="middle" x="862.019" y="-272.8" font-family="Times,serif" font-size="14.00">VerificatorComment</text>
<polyline fill="none" stroke="black" points="795.514,-266 928.525,-266 "/>
<text text-anchor="start" x="803.514" y="-250.8" font-family="Times,serif" font-size="14.00">id :integer</text>
<text text-anchor="start" x="803.514" y="-236.8" font-family="Times,serif" font-size="14.00">content :text</text>
<text text-anchor="start" x="803.514" y="-222.8" font-family="Times,serif" font-size="14.00">user_id :integer</text>
<text text-anchor="start" x="803.514" y="-208.8" font-family="Times,serif" font-size="14.00">card_id :integer</text>
<text text-anchor="start" x="803.514" y="-194.8" font-family="Times,serif" font-size="14.00">created_at :datetime</text>
<text text-anchor="start" x="803.514" y="-180.8" font-family="Times,serif" font-size="14.00">updated_at :datetime</text>
</g>
<!-- Card&#45;&gt;VerificatorComment -->
<g id="edge16" class="edge"><title>Card&#45;&gt;VerificatorComment</title>
<path fill="none" stroke="#d2df09" d="M1031.49,-602.387C1032.84,-525.759 1024.87,-434.941 991.019,-360 978.705,-332.736 957.816,-308.109 936.392,-287.905"/>
<ellipse fill="none" stroke="#d2df09" cx="1031.39" cy="-606.706" rx="4" ry="4"/>
<polygon fill="#d2df09" stroke="#d2df09" points="936.175,-287.705 931.848,-277.63 932.491,-284.326 928.806,-280.946 928.806,-280.946 928.806,-280.946 932.491,-284.326 925.764,-284.262 936.175,-287.705 936.175,-287.705"/>
</g>
<!-- CardType -->
<g id="node8" class="node"><title>CardType</title>
<path fill="none" stroke="black" d="M1055.51,-966C1055.51,-966 1164.52,-966 1164.52,-966 1170.52,-966 1176.52,-972 1176.52,-978 1176.52,-978 1176.52,-1040 1176.52,-1040 1176.52,-1046 1170.52,-1052 1164.52,-1052 1164.52,-1052 1055.51,-1052 1055.51,-1052 1049.51,-1052 1043.51,-1046 1043.51,-1040 1043.51,-1040 1043.51,-978 1043.51,-978 1043.51,-972 1049.51,-966 1055.51,-966"/>
<text text-anchor="middle" x="1110.02" y="-1036.8" font-family="Times,serif" font-size="14.00">CardType</text>
<polyline fill="none" stroke="black" points="1043.51,-1030 1176.52,-1030 "/>
<text text-anchor="start" x="1051.51" y="-1014.8" font-family="Times,serif" font-size="14.00">id :integer</text>
<text text-anchor="start" x="1051.51" y="-1000.8" font-family="Times,serif" font-size="14.00">name :string</text>
<text text-anchor="start" x="1051.51" y="-986.8" font-family="Times,serif" font-size="14.00">created_at :datetime</text>
<text text-anchor="start" x="1051.51" y="-972.8" font-family="Times,serif" font-size="14.00">updated_at :datetime</text>
</g>
<!-- CardType&#45;&gt;Card -->
<g id="edge21" class="edge"><title>CardType&#45;&gt;Card</title>
<path fill="none" stroke="#03c694" d="M1090.37,-958.159C1087.01,-949.623 1083.35,-940.355 1079.53,-930.658"/>
<ellipse fill="none" stroke="#03c694" cx="1091.9" cy="-962.024" rx="4.00001" ry="4.00001"/>
<polygon fill="#03c694" stroke="#03c694" points="1079.49,-930.542 1080.01,-919.589 1077.65,-925.891 1075.82,-921.239 1075.82,-921.239 1075.82,-921.239 1077.65,-925.891 1071.63,-922.889 1079.49,-930.542 1079.49,-930.542"/>
</g>
<!-- Element -->
<g id="node10" class="node"><title>Element</title>
<path fill="none" stroke="black" d="M220.514,-723C220.514,-723 329.525,-723 329.525,-723 335.525,-723 341.525,-729 341.525,-735 341.525,-735 341.525,-797 341.525,-797 341.525,-803 335.525,-809 329.525,-809 329.525,-809 220.514,-809 220.514,-809 214.514,-809 208.514,-803 208.514,-797 208.514,-797 208.514,-735 208.514,-735 208.514,-729 214.514,-723 220.514,-723"/>
<text text-anchor="middle" x="275.019" y="-793.8" font-family="Times,serif" font-size="14.00">Element</text>
<polyline fill="none" stroke="black" points="208.514,-787 341.525,-787 "/>
<text text-anchor="start" x="216.514" y="-771.8" font-family="Times,serif" font-size="14.00">id :integer</text>
<text text-anchor="start" x="216.514" y="-757.8" font-family="Times,serif" font-size="14.00">name :string</text>
<text text-anchor="start" x="216.514" y="-743.8" font-family="Times,serif" font-size="14.00">created_at :datetime</text>
<text text-anchor="start" x="216.514" y="-729.8" font-family="Times,serif" font-size="14.00">updated_at :datetime</text>
</g>
<!-- Element&#45;&gt;Ownership -->
<g id="edge24" class="edge"><title>Element&#45;&gt;Ownership</title>
<path fill="none" stroke="#33b0a9" d="M270.955,-714.621C263.927,-627.512 249.378,-447.167 240.191,-333.289"/>
<ellipse fill="none" stroke="#33b0a9" cx="271.287" cy="-718.744" rx="4" ry="4"/>
<polygon fill="#33b0a9" stroke="#33b0a9" points="240.178,-333.131 243.859,-322.802 239.776,-328.147 239.374,-323.164 239.374,-323.164 239.374,-323.164 239.776,-328.147 234.888,-323.526 240.178,-333.131 240.178,-333.131"/>
</g>
<!-- Ownership&#45;&gt;OwnershipAction -->
<g id="edge27" class="edge"><title>Ownership&#45;&gt;OwnershipAction</title>
<path fill="none" stroke="#2f2dba" d="M161.707,-132.221C156.164,-124.514 150.686,-116.896 145.44,-109.601"/>
<ellipse fill="none" stroke="#2f2dba" cx="164.184" cy="-135.667" rx="4.00002" ry="4.00002"/>
<polygon fill="#2f2dba" stroke="#2f2dba" points="145.237,-109.318 143.052,-98.5717 142.317,-105.258 139.398,-101.199 139.398,-101.199 139.398,-101.199 142.317,-105.258 135.745,-103.826 145.237,-109.318 145.237,-109.318"/>
</g>
<!-- OwnershipType -->
<g id="node14" class="node"><title>OwnershipType</title>
<path fill="none" stroke="black" d="M371.514,-723C371.514,-723 480.525,-723 480.525,-723 486.525,-723 492.525,-729 492.525,-735 492.525,-735 492.525,-797 492.525,-797 492.525,-803 486.525,-809 480.525,-809 480.525,-809 371.514,-809 371.514,-809 365.514,-809 359.514,-803 359.514,-797 359.514,-797 359.514,-735 359.514,-735 359.514,-729 365.514,-723 371.514,-723"/>
<text text-anchor="middle" x="426.019" y="-793.8" font-family="Times,serif" font-size="14.00">OwnershipType</text>
<polyline fill="none" stroke="black" points="359.514,-787 492.525,-787 "/>
<text text-anchor="start" x="367.514" y="-771.8" font-family="Times,serif" font-size="14.00">id :integer</text>
<text text-anchor="start" x="367.514" y="-757.8" font-family="Times,serif" font-size="14.00">name :string</text>
<text text-anchor="start" x="367.514" y="-743.8" font-family="Times,serif" font-size="14.00">created_at :datetime</text>
<text text-anchor="start" x="367.514" y="-729.8" font-family="Times,serif" font-size="14.00">updated_at :datetime</text>
</g>
<!-- OwnershipType&#45;&gt;Ownership -->
<g id="edge30" class="edge"><title>OwnershipType&#45;&gt;Ownership</title>
<path fill="none" stroke="#b989dc" d="M407.879,-715.162C376.187,-628.091 310.164,-446.697 268.643,-332.621"/>
<ellipse fill="none" stroke="#b989dc" cx="409.266" cy="-718.972" rx="4.00001" ry="4.00001"/>
<polygon fill="#b989dc" stroke="#b989dc" points="268.621,-332.561 269.429,-321.624 266.911,-327.862 265.201,-323.164 265.201,-323.164 265.201,-323.164 266.911,-327.862 260.972,-324.703 268.621,-332.561 268.621,-332.561"/>
</g>
<!-- Page -->
<g id="node15" class="node"><title>Page</title>
<path fill="none" stroke="black" d="M1699.51,-959C1699.51,-959 1808.52,-959 1808.52,-959 1814.52,-959 1820.52,-965 1820.52,-971 1820.52,-971 1820.52,-1047 1820.52,-1047 1820.52,-1053 1814.52,-1059 1808.52,-1059 1808.52,-1059 1699.51,-1059 1699.51,-1059 1693.51,-1059 1687.51,-1053 1687.51,-1047 1687.51,-1047 1687.51,-971 1687.51,-971 1687.51,-965 1693.51,-959 1699.51,-959"/>
<text text-anchor="middle" x="1754.02" y="-1043.8" font-family="Times,serif" font-size="14.00">Page</text>
<polyline fill="none" stroke="black" points="1687.51,-1037 1820.52,-1037 "/>
<text text-anchor="start" x="1695.51" y="-1021.8" font-family="Times,serif" font-size="14.00">id :integer</text>
<text text-anchor="start" x="1695.51" y="-1007.8" font-family="Times,serif" font-size="14.00">name :string</text>
<text text-anchor="start" x="1695.51" y="-993.8" font-family="Times,serif" font-size="14.00">content :text</text>
<text text-anchor="start" x="1695.51" y="-979.8" font-family="Times,serif" font-size="14.00">created_at :datetime</text>
<text text-anchor="start" x="1695.51" y="-965.8" font-family="Times,serif" font-size="14.00">updated_at :datetime</text>
</g>
<!-- Parent -->
<g id="node16" class="node"><title>Parent</title>
<path fill="none" stroke="black" d="M656.514,-181C656.514,-181 765.525,-181 765.525,-181 771.525,-181 777.525,-187 777.525,-193 777.525,-193 777.525,-269 777.525,-269 777.525,-275 771.525,-281 765.525,-281 765.525,-281 656.514,-281 656.514,-281 650.514,-281 644.514,-275 644.514,-269 644.514,-269 644.514,-193 644.514,-193 644.514,-187 650.514,-181 656.514,-181"/>
<text text-anchor="middle" x="711.019" y="-265.8" font-family="Times,serif" font-size="14.00">Parent</text>
<polyline fill="none" stroke="black" points="644.514,-259 777.525,-259 "/>
<text text-anchor="start" x="652.514" y="-243.8" font-family="Times,serif" font-size="14.00">id :integer</text>
<text text-anchor="start" x="652.514" y="-229.8" font-family="Times,serif" font-size="14.00">user_id :integer</text>
<text text-anchor="start" x="652.514" y="-215.8" font-family="Times,serif" font-size="14.00">parent_id :integer</text>
<text text-anchor="start" x="652.514" y="-201.8" font-family="Times,serif" font-size="14.00">created_at :datetime</text>
<text text-anchor="start" x="652.514" y="-187.8" font-family="Times,serif" font-size="14.00">updated_at :datetime</text>
</g>
<!-- Permission -->
<g id="node17" class="node"><title>Permission</title>
<polygon fill="none" stroke="black" points="1838.91,-987 1838.91,-1031 1917.13,-1031 1917.13,-987 1838.91,-987"/>
<text text-anchor="middle" x="1878.02" y="-1015.8" font-family="Times,serif" font-size="14.00">Permission</text>
<polyline fill="none" stroke="black" points="1838.91,-1009 1917.13,-1009 "/>
<text text-anchor="middle" x="1878.02" y="-993.8" font-family="Times,serif" font-size="14.00"> </text>
</g>
<!-- Responsable&#45;&gt;CardResponsable -->
<g id="edge35" class="edge"><title>Responsable&#45;&gt;CardResponsable</title>
<path fill="none" stroke="#983c59" d="M1184.92,-401.502C1184.33,-367.076 1183.61,-325.001 1183.03,-291.383"/>
<ellipse fill="none" stroke="#983c59" cx="1184.99" cy="-405.952" rx="4" ry="4"/>
<polygon fill="#983c59" stroke="#983c59" points="1183.03,-291.238 1187.36,-281.162 1182.95,-286.238 1182.86,-281.239 1182.86,-281.239 1182.86,-281.239 1182.95,-286.238 1178.36,-281.316 1183.03,-291.238 1183.03,-291.238"/>
</g>
<!-- Tag&#45;&gt;Tagging -->
<g id="edge37" class="edge"><title>Tag&#45;&gt;Tagging</title>
<path fill="none" stroke="#ecd19c" d="M1337.75,-408.813C1338.21,-373.3 1338.79,-327.731 1339.25,-291.748"/>
<ellipse fill="none" stroke="#ecd19c" cx="1337.7" cy="-412.946" rx="4" ry="4"/>
<polygon fill="#ecd19c" stroke="#ecd19c" points="1339.26,-291.391 1343.89,-281.45 1339.32,-286.391 1339.39,-281.392 1339.39,-281.392 1339.39,-281.392 1339.32,-286.391 1334.89,-281.334 1339.26,-291.391 1339.26,-291.391"/>
</g>
<!-- User&#45;&gt;CardVerification -->
<g id="edge40" class="edge"><title>User&#45;&gt;CardVerification</title>
<path fill="none" stroke="#1253f7" d="M595.221,-353.134C588.955,-331.574 582.635,-309.826 577.113,-290.824"/>
<ellipse fill="none" stroke="#1253f7" cx="596.384" cy="-357.137" rx="4.00001" ry="4.00001"/>
<polygon fill="#1253f7" stroke="#1253f7" points="577.094,-290.755 578.624,-279.897 575.698,-285.954 574.303,-281.153 574.303,-281.153 574.303,-281.153 575.698,-285.954 569.982,-282.408 577.094,-290.755 577.094,-290.755"/>
</g>
<!-- User&#45;&gt;Ownership -->
<g id="edge41" class="edge"><title>User&#45;&gt;Ownership</title>
<path fill="none" stroke="#590aa5" d="M545.401,-417.18C481.392,-379.357 392.672,-326.931 325.964,-287.513"/>
<ellipse fill="none" stroke="#590aa5" cx="549.159" cy="-419.401" rx="4.00002" ry="4.00002"/>
<polygon fill="#590aa5" stroke="#590aa5" points="325.726,-287.372 319.406,-278.411 321.421,-284.828 317.117,-282.285 317.117,-282.285 317.117,-282.285 321.421,-284.828 314.827,-286.159 325.726,-287.372 325.726,-287.372"/>
</g>
<!-- User&#45;&gt;Parent -->
<g id="edge42" class="edge"><title>User&#45;&gt;Parent</title>
<path fill="none" stroke="#bbb026" d="M668.053,-353.134C675.7,-331.574 683.414,-309.826 690.154,-290.824"/>
<ellipse fill="none" stroke="#bbb026" cx="666.608" cy="-357.209" rx="4.00001" ry="4.00001"/>
<polygon fill="#bbb026" stroke="#bbb026" points="690.242,-290.577 697.826,-282.657 691.913,-285.865 693.585,-281.153 693.585,-281.153 693.585,-281.153 691.913,-285.865 689.344,-279.648 690.242,-290.577 690.242,-290.577"/>
</g>
<!-- User&#45;&gt;User -->
<g id="edge43" class="edge"><title>User&#45;&gt;User</title>
<path fill="none" stroke="#87bc74" d="M710.88,-500.15C717.157,-492.775 721.019,-481.725 721.019,-467 721.019,-452.275 717.157,-441.225 710.88,-433.85"/>
<polygon fill="#87bc74" stroke="#87bc74" points="710.796,-500.221 700.268,-503.286 706.992,-503.465 703.188,-506.71 703.188,-506.71 703.188,-506.71 706.992,-503.465 706.108,-510.134 710.796,-500.221 710.796,-500.221"/>
<polygon fill="#87bc74" stroke="#87bc74" points="710.796,-433.779 706.108,-423.866 706.992,-430.535 703.188,-427.29 703.188,-427.29 703.188,-427.29 706.992,-430.535 700.268,-430.714 710.796,-433.779 710.796,-433.779"/>
</g>
<!-- User&#45;&gt;VerificatorComment -->
<g id="edge44" class="edge"><title>User&#45;&gt;VerificatorComment</title>
<path fill="none" stroke="#f47bdd" d="M709.328,-397.075C734.636,-374.538 762.148,-348.887 786.019,-324 794.506,-315.152 803.131,-305.478 811.376,-295.833"/>
<ellipse fill="none" stroke="#f47bdd" cx="706.279" cy="-399.779" rx="4.00002" ry="4.00002"/>
<polygon fill="#f47bdd" stroke="#f47bdd" points="811.44,-295.757 821.333,-291.026 814.668,-291.939 817.897,-288.121 817.897,-288.121 817.897,-288.121 814.668,-291.939 814.46,-285.215 811.44,-295.757 811.44,-295.757"/>
</g>
<!-- UserType -->
<g id="node22" class="node"><title>UserType</title>
<path fill="none" stroke="black" d="M599.514,-723C599.514,-723 708.525,-723 708.525,-723 714.525,-723 720.525,-729 720.525,-735 720.525,-735 720.525,-797 720.525,-797 720.525,-803 714.525,-809 708.525,-809 708.525,-809 599.514,-809 599.514,-809 593.514,-809 587.514,-803 587.514,-797 587.514,-797 587.514,-735 587.514,-735 587.514,-729 593.514,-723 599.514,-723"/>
<text text-anchor="middle" x="654.019" y="-793.8" font-family="Times,serif" font-size="14.00">UserType</text>
<polyline fill="none" stroke="black" points="587.514,-787 720.525,-787 "/>
<text text-anchor="start" x="595.514" y="-771.8" font-family="Times,serif" font-size="14.00">id :integer</text>
<text text-anchor="start" x="595.514" y="-757.8" font-family="Times,serif" font-size="14.00">name :string</text>
<text text-anchor="start" x="595.514" y="-743.8" font-family="Times,serif" font-size="14.00">created_at :datetime</text>
<text text-anchor="start" x="595.514" y="-729.8" font-family="Times,serif" font-size="14.00">updated_at :datetime</text>
</g>
<!-- UserType&#45;&gt;User -->
<g id="edge46" class="edge"><title>UserType&#45;&gt;User</title>
<path fill="none" stroke="#abf0b0" d="M649.622,-714.764C646.475,-678.817 642.107,-628.93 638.123,-583.412"/>
<ellipse fill="none" stroke="#abf0b0" cx="649.973" cy="-718.778" rx="4" ry="4"/>
<polygon fill="#abf0b0" stroke="#abf0b0" points="638.098,-583.13 641.709,-572.775 637.662,-578.149 637.226,-573.168 637.226,-573.168 637.226,-573.168 637.662,-578.149 632.743,-573.56 638.098,-583.13 638.098,-583.13"/>
</g>
<!-- ActiveRecord::Base -->
<g id="node24" class="node"><title>ActiveRecord::Base</title>
<ellipse fill="none" stroke="black" cx="825.019" cy="-1133" rx="80.9821" ry="18"/>
<text text-anchor="middle" x="825.019" y="-1128.8" font-family="Times,serif" font-size="14.00">ActiveRecord::Base</text>
</g>
<!-- ActiveRecord::Base&#45;&gt;Action -->
<g id="edge3" class="edge"><title>ActiveRecord::Base&#45;&gt;Action</title>
<path fill="none" stroke="black" d="M792.52,-1116.31C775.498,-1108.82 754.071,-1100.53 734.019,-1096 503.729,-1043.95 428.833,-1132.12 204.019,-1060 197.567,-1057.93 191.105,-1055.24 184.8,-1052.18"/>
</g>
<!-- ActiveRecord::Base&#45;&gt;Affiliation -->
<g id="edge6" class="edge"><title>ActiveRecord::Base&#45;&gt;Affiliation</title>
<path fill="none" stroke="black" d="M838.229,-1115.04C850.872,-1098.8 870.457,-1073.65 887.292,-1052.03"/>
</g>
<!-- ActiveRecord::Base&#45;&gt;Canton -->
<g id="edge8" class="edge"><title>ActiveRecord::Base&#45;&gt;Canton</title>
<path fill="none" stroke="black" d="M903.636,-1128.3C1060.99,-1120.18 1409.23,-1098.38 1522.02,-1060 1526.71,-1058.4 1531.42,-1056.49 1536.07,-1054.37"/>
</g>
<!-- ActiveRecord::Base&#45;&gt;Card -->
<g id="edge18" class="edge"><title>ActiveRecord::Base&#45;&gt;Card</title>
<path fill="none" stroke="black" d="M889.178,-1121.83C926.371,-1112.38 970.558,-1094.32 995.019,-1060 1023.28,-1020.35 1033.24,-969.504 1034.62,-921.338"/>
</g>
<!-- ActiveRecord::Base&#45;&gt;CardAffiliation -->
<g id="edge19" class="edge"><title>ActiveRecord::Base&#45;&gt;CardAffiliation</title>
<path fill="none" stroke="black" d="M826.486,-1114.92C833.761,-1030.17 866.097,-653.482 877.786,-517.318"/>
</g>
<!-- ActiveRecord::Base&#45;&gt;CardResponsable -->
<g id="edge20" class="edge"><title>ActiveRecord::Base&#45;&gt;CardResponsable</title>
<path fill="none" stroke="black" d="M903.117,-1127.85C1016.17,-1120.47 1218.34,-1101.74 1277.02,-1060 1333.73,-1019.66 1328.28,-987.775 1351.02,-922 1392.07,-803.273 1489.64,-458.77 1412.02,-360 1370.19,-306.775 1322.06,-358.846 1264.02,-324 1245.86,-313.097 1229.48,-296.868 1216.22,-281.063"/>
</g>
<!-- ActiveRecord::Base&#45;&gt;CardType -->
<g id="edge22" class="edge"><title>ActiveRecord::Base&#45;&gt;CardType</title>
<path fill="none" stroke="black" d="M872.755,-1118.33C914.848,-1105.53 977.35,-1084.71 1029.02,-1060 1034.09,-1057.58 1039.24,-1054.91 1044.36,-1052.12"/>
</g>
<!-- ActiveRecord::Base&#45;&gt;CardVerification -->
<g id="edge23" class="edge"><title>ActiveRecord::Base&#45;&gt;CardVerification</title>
<path fill="none" stroke="black" d="M789.541,-1116.71C772.874,-1109.85 752.621,-1101.98 734.019,-1096 671.211,-1075.82 637.829,-1105.46 590.019,-1060 543.557,-1015.82 557.82,-985.358 548.019,-922 509.836,-675.152 528.498,-609.301 544.019,-360 545.647,-333.848 549.129,-304.865 552.431,-281.1"/>
</g>
<!-- ActiveRecord::Base&#45;&gt;Element -->
<g id="edge25" class="edge"><title>ActiveRecord::Base&#45;&gt;Element</title>
<path fill="none" stroke="black" d="M791.559,-1116.4C774.649,-1109.13 753.608,-1101 734.019,-1096 608.182,-1063.85 554.868,-1127.68 444.019,-1060 351.299,-1003.39 304.331,-875.583 285.411,-809.047"/>
</g>
<!-- ActiveRecord::Base&#45;&gt;Location -->
<g id="edge26" class="edge"><title>ActiveRecord::Base&#45;&gt;Location</title>
<path fill="none" stroke="black" d="M903.388,-1128.12C1068.25,-1119.3 1439.47,-1095.68 1484.02,-1060 1493.34,-1052.53 1537.93,-914.18 1564.31,-830.298"/>
</g>
<!-- ActiveRecord::Base&#45;&gt;Ownership -->
<g id="edge28" class="edge"><title>ActiveRecord::Base&#45;&gt;Ownership</title>
<path fill="none" stroke="black" d="M792.048,-1116.33C775.083,-1108.95 753.848,-1100.74 734.019,-1096 566.014,-1055.82 504.636,-1130.69 347.019,-1060 264.958,-1023.2 234.883,-1004.48 199.019,-922 153.407,-817.106 194.089,-485.441 217.791,-323.184"/>
</g>
<!-- ActiveRecord::Base&#45;&gt;OwnershipAction -->
<g id="edge29" class="edge"><title>ActiveRecord::Base&#45;&gt;OwnershipAction</title>
<path fill="none" stroke="black" d="M792.969,-1116.36C775.888,-1108.8 754.272,-1100.41 734.019,-1096 659.333,-1079.73 101.403,-1113.71 47.0193,-1060 -45.8256,-968.3 28.0193,-897.496 28.0193,-767 28.0193,-767 28.0193,-767 28.0193,-466 28.0193,-332.271 66.8554,-178.178 89.0041,-101.171"/>
</g>
<!-- ActiveRecord::Base&#45;&gt;OwnershipType -->
<g id="edge31" class="edge"><title>ActiveRecord::Base&#45;&gt;OwnershipType</title>
<path fill="none" stroke="black" d="M791.056,-1116.51C774.202,-1109.35 753.357,-1101.29 734.019,-1096 635.489,-1069.05 583.194,-1128.06 507.019,-1060 434.997,-995.653 424.553,-873.578 424.453,-809.19"/>
</g>
<!-- ActiveRecord::Base&#45;&gt;Page -->
<g id="edge32" class="edge"><title>ActiveRecord::Base&#45;&gt;Page</title>
<path fill="none" stroke="black" d="M905.299,-1130.26C1089.3,-1125.45 1536.52,-1108.95 1678.02,-1060 1681.15,-1058.92 1684.29,-1057.67 1687.39,-1056.3"/>
</g>
<!-- ActiveRecord::Base&#45;&gt;Parent -->
<g id="edge33" class="edge"><title>ActiveRecord::Base&#45;&gt;Parent</title>
<path fill="none" stroke="black" d="M816.796,-1114.94C810.214,-1100.6 801.247,-1079.39 796.019,-1060 779.883,-1000.16 782.995,-983.58 776.019,-922 747.811,-672.98 758.656,-608.972 730.019,-360 727.016,-333.887 722.789,-304.907 719.084,-281.134"/>
</g>
<!-- ActiveRecord::Base&#45;&gt;Responsable -->
<g id="edge36" class="edge"><title>ActiveRecord::Base&#45;&gt;Responsable</title>
<path fill="none" stroke="black" d="M902.563,-1127.67C997.486,-1120.56 1149.98,-1102.67 1185.02,-1060 1313.03,-904.124 1245.36,-639.332 1206.8,-524.22"/>
</g>
<!-- ActiveRecord::Base&#45;&gt;Tag -->
<g id="edge38" class="edge"><title>ActiveRecord::Base&#45;&gt;Tag</title>
<path fill="none" stroke="black" d="M902.928,-1127.85C1006.06,-1120.75 1180.22,-1102.67 1226.02,-1060 1380.38,-916.191 1360.38,-631.371 1344.97,-517.114"/>
</g>
<!-- ActiveRecord::Base&#45;&gt;Tagging -->
<g id="edge39" class="edge"><title>ActiveRecord::Base&#45;&gt;Tagging</title>
<path fill="none" stroke="black" d="M904.181,-1128.77C1026.92,-1122.41 1256.02,-1104.78 1323.02,-1060 1382.34,-1020.36 1382.6,-989.731 1405.02,-922 1483.66,-684.386 1523.07,-596.457 1441.02,-360 1430.86,-330.717 1410.91,-303.066 1391.41,-281.009"/>
</g>
<!-- ActiveRecord::Base&#45;&gt;User -->
<g id="edge45" class="edge"><title>ActiveRecord::Base&#45;&gt;User</title>
<path fill="none" stroke="black" d="M786.087,-1117.19C756.638,-1104.78 716.248,-1085.07 686.019,-1060 626.068,-1010.28 603.406,-995.63 578.019,-922 532.82,-790.907 554.658,-746.685 578.019,-610 580.089,-597.891 583.084,-585.443 586.595,-573.187"/>
</g>
<!-- ActiveRecord::Base&#45;&gt;UserType -->
<g id="edge47" class="edge"><title>ActiveRecord::Base&#45;&gt;UserType</title>
<path fill="none" stroke="black" d="M796.677,-1116C776.64,-1103.28 750.659,-1083.72 735.019,-1060 683.02,-981.13 664.137,-869.305 657.482,-809.171"/>
</g>
<!-- ActiveRecord::Base&#45;&gt;VerificatorComment -->
<g id="edge48" class="edge"><title>ActiveRecord::Base&#45;&gt;VerificatorComment</title>
<path fill="none" stroke="black" d="M821.742,-1114.9C806.287,-1031.17 743.982,-656.576 806.019,-360 811.135,-335.546 821.199,-310.049 831.402,-288.307"/>
</g>
<!-- Object -->
<g id="node25" class="node"><title>Object</title>
<ellipse fill="none" stroke="black" cx="1878.02" cy="-1133" rx="33.5181" ry="18"/>
<text text-anchor="middle" x="1878.02" y="-1128.8" font-family="Times,serif" font-size="14.00">Object</text>
</g>
<!-- Object&#45;&gt;Permission -->
<g id="edge34" class="edge"><title>Object&#45;&gt;Permission</title>
<path fill="none" stroke="black" d="M1878.02,-1114.78C1878.02,-1092.84 1878.02,-1054.94 1878.02,-1031.23"/>
</g>
</g>
</svg>
