<?xml version="1.0" encoding="UTF-8" standalone="no"?>
<!DOCTYPE svg PUBLIC "-//W3C//DTD SVG 1.1//EN"
 "http://www.w3.org/Graphics/SVG/1.1/DTD/svg11.dtd">
<!-- Generated by graphviz version 2.36.0 (20140111.2315)
 -->
<!-- Title: models_diagram Pages: 1 -->
<svg width="2828pt" height="1582pt"
 viewBox="0.00 0.00 2828.00 1582.00" xmlns="http://www.w3.org/2000/svg" xmlns:xlink="http://www.w3.org/1999/xlink">
<g id="graph0" class="graph" transform="scale(1 1) rotate(0) translate(4 1578)">
<title>models_diagram</title>
<polygon fill="white" stroke="none" points="-4,4 -4,-1578 2824,-1578 2824,4 -4,4"/>
<!-- _diagram_info -->
<g id="node1" class="node"><title>_diagram_info</title>
<text text-anchor="start" x="1183.55" y="-1559.1" font-family="Times,serif" font-size="13.00">Models diagram</text>
<text text-anchor="start" x="1183.55" y="-1546.1" font-family="Times,serif" font-size="13.00">Date: Oct 07 2014 &#45; 12:23</text>
<text text-anchor="start" x="1183.55" y="-1533.1" font-family="Times,serif" font-size="13.00">Migration version: 20140928203114</text>
<text text-anchor="start" x="1183.55" y="-1520.1" font-family="Times,serif" font-size="13.00">Generated by RailRoady 1.1.2</text>
<text text-anchor="start" x="1183.55" y="-1507.1" font-family="Times,serif" font-size="13.00">http://railroady.prestonlee.com</text>
</g>
<!-- AccessToken -->
<g id="node2" class="node"><title>AccessToken</title>
<path fill="none" stroke="black" d="M1618.76,-148C1618.76,-148 1733.24,-148 1733.24,-148 1739.24,-148 1745.24,-154 1745.24,-160 1745.24,-160 1745.24,-264 1745.24,-264 1745.24,-270 1739.24,-276 1733.24,-276 1733.24,-276 1618.76,-276 1618.76,-276 1612.76,-276 1606.76,-270 1606.76,-264 1606.76,-264 1606.76,-160 1606.76,-160 1606.76,-154 1612.76,-148 1618.76,-148"/>
<text text-anchor="middle" x="1676" y="-260.8" font-family="Times,serif" font-size="14.00">AccessToken</text>
<polyline fill="none" stroke="black" points="1606.76,-254 1745.24,-254 "/>
<text text-anchor="start" x="1614.76" y="-238.8" font-family="Times,serif" font-size="14.00">id :integer</text>
<text text-anchor="start" x="1614.76" y="-224.8" font-family="Times,serif" font-size="14.00">token :string</text>
<text text-anchor="start" x="1614.76" y="-210.8" font-family="Times,serif" font-size="14.00">is_valid :boolean</text>
<text text-anchor="start" x="1614.76" y="-196.8" font-family="Times,serif" font-size="14.00">ownership_id :integer</text>
<text text-anchor="start" x="1614.76" y="-182.8" font-family="Times,serif" font-size="14.00">created_at :datetime</text>
<text text-anchor="start" x="1614.76" y="-168.8" font-family="Times,serif" font-size="14.00">updated_at :datetime</text>
<text text-anchor="start" x="1614.76" y="-154.8" font-family="Times,serif" font-size="14.00">exp_at :date</text>
</g>
<!-- Action -->
<g id="node3" class="node"><title>Action</title>
<path fill="none" stroke="black" d="M1082.49,-643C1082.49,-643 1191.51,-643 1191.51,-643 1197.51,-643 1203.51,-649 1203.51,-655 1203.51,-655 1203.51,-717 1203.51,-717 1203.51,-723 1197.51,-729 1191.51,-729 1191.51,-729 1082.49,-729 1082.49,-729 1076.49,-729 1070.49,-723 1070.49,-717 1070.49,-717 1070.49,-655 1070.49,-655 1070.49,-649 1076.49,-643 1082.49,-643"/>
<text text-anchor="middle" x="1137" y="-713.8" font-family="Times,serif" font-size="14.00">Action</text>
<polyline fill="none" stroke="black" points="1070.49,-707 1203.51,-707 "/>
<text text-anchor="start" x="1078.49" y="-691.8" font-family="Times,serif" font-size="14.00">id :integer</text>
<text text-anchor="start" x="1078.49" y="-677.8" font-family="Times,serif" font-size="14.00">name :string</text>
<text text-anchor="start" x="1078.49" y="-663.8" font-family="Times,serif" font-size="14.00">created_at :datetime</text>
<text text-anchor="start" x="1078.49" y="-649.8" font-family="Times,serif" font-size="14.00">updated_at :datetime</text>
</g>
<!-- Ownership -->
<g id="node23" class="node"><title>Ownership</title>
<path fill="none" stroke="black" d="M1503.21,-323C1503.21,-323 1648.79,-323 1648.79,-323 1654.79,-323 1660.79,-329 1660.79,-335 1660.79,-335 1660.79,-495 1660.79,-495 1660.79,-501 1654.79,-507 1648.79,-507 1648.79,-507 1503.21,-507 1503.21,-507 1497.21,-507 1491.21,-501 1491.21,-495 1491.21,-495 1491.21,-335 1491.21,-335 1491.21,-329 1497.21,-323 1503.21,-323"/>
<text text-anchor="middle" x="1576" y="-491.8" font-family="Times,serif" font-size="14.00">Ownership</text>
<polyline fill="none" stroke="black" points="1491.21,-485 1660.79,-485 "/>
<text text-anchor="start" x="1499.21" y="-469.8" font-family="Times,serif" font-size="14.00">id :integer</text>
<text text-anchor="start" x="1499.21" y="-455.8" font-family="Times,serif" font-size="14.00">element_id :integer</text>
<text text-anchor="start" x="1499.21" y="-441.8" font-family="Times,serif" font-size="14.00">user_id :integer</text>
<text text-anchor="start" x="1499.21" y="-427.8" font-family="Times,serif" font-size="14.00">ownership_type_id :integer</text>
<text text-anchor="start" x="1499.21" y="-413.8" font-family="Times,serif" font-size="14.00">right_create :boolean</text>
<text text-anchor="start" x="1499.21" y="-399.8" font-family="Times,serif" font-size="14.00">right_read :boolean</text>
<text text-anchor="start" x="1499.21" y="-385.8" font-family="Times,serif" font-size="14.00">right_update :boolean</text>
<text text-anchor="start" x="1499.21" y="-371.8" font-family="Times,serif" font-size="14.00">right_delete :boolean</text>
<text text-anchor="start" x="1499.21" y="-357.8" font-family="Times,serif" font-size="14.00">id_element :integer</text>
<text text-anchor="start" x="1499.21" y="-343.8" font-family="Times,serif" font-size="14.00">created_at :datetime</text>
<text text-anchor="start" x="1499.21" y="-329.8" font-family="Times,serif" font-size="14.00">updated_at :datetime</text>
</g>
<!-- Action&#45;&gt;Ownership -->
<g id="edge3" class="edge"><title>Action&#45;&gt;Ownership</title>
<path fill="none" stroke="#18da02" d="M1155.6,-633.185C1172.53,-595.013 1201.7,-546.347 1246,-526 1325.9,-489.303 1360.35,-537.994 1443,-508 1456.4,-503.136 1469.72,-496.582 1482.46,-489.199"/>
<polygon fill="#18da02" stroke="#18da02" points="1155.49,-633.445 1147.43,-640.873 1153.53,-638.043 1151.56,-642.641 1151.56,-642.641 1151.56,-642.641 1153.53,-638.043 1155.7,-644.409 1155.49,-633.445 1155.49,-633.445"/>
<polygon fill="#18da02" stroke="#18da02" points="1482.61,-489.111 1493.5,-487.825 1486.9,-486.539 1491.18,-483.966 1491.18,-483.966 1491.18,-483.966 1486.9,-486.539 1488.87,-480.108 1482.61,-489.111 1482.61,-489.111"/>
</g>
<!-- OwnershipAction -->
<g id="node24" class="node"><title>OwnershipAction</title>
<path fill="none" stroke="black" d="M909.764,-162C909.764,-162 1024.24,-162 1024.24,-162 1030.24,-162 1036.24,-168 1036.24,-174 1036.24,-174 1036.24,-250 1036.24,-250 1036.24,-256 1030.24,-262 1024.24,-262 1024.24,-262 909.764,-262 909.764,-262 903.764,-262 897.764,-256 897.764,-250 897.764,-250 897.764,-174 897.764,-174 897.764,-168 903.764,-162 909.764,-162"/>
<text text-anchor="middle" x="967" y="-246.8" font-family="Times,serif" font-size="14.00">OwnershipAction</text>
<polyline fill="none" stroke="black" points="897.764,-240 1036.24,-240 "/>
<text text-anchor="start" x="905.764" y="-224.8" font-family="Times,serif" font-size="14.00">id :integer</text>
<text text-anchor="start" x="905.764" y="-210.8" font-family="Times,serif" font-size="14.00">action_id :integer</text>
<text text-anchor="start" x="905.764" y="-196.8" font-family="Times,serif" font-size="14.00">ownership_id :integer</text>
<text text-anchor="start" x="905.764" y="-182.8" font-family="Times,serif" font-size="14.00">created_at :datetime</text>
<text text-anchor="start" x="905.764" y="-168.8" font-family="Times,serif" font-size="14.00">updated_at :datetime</text>
</g>
<!-- Action&#45;&gt;OwnershipAction -->
<g id="edge2" class="edge"><title>Action&#45;&gt;OwnershipAction</title>
<path fill="none" stroke="#fd2b67" d="M1081.2,-637.407C1047.19,-604.789 1006.45,-558.422 986,-508 954.82,-431.122 955.441,-333.711 960.134,-272.349"/>
<ellipse fill="none" stroke="#fd2b67" cx="1084.13" cy="-640.177" rx="4.00002" ry="4.00002"/>
<polygon fill="#fd2b67" stroke="#fd2b67" points="960.16,-272.039 965.469,-262.444 960.572,-267.056 960.984,-262.073 960.984,-262.073 960.984,-262.073 960.572,-267.056 956.499,-261.702 960.16,-272.039 960.16,-272.039"/>
</g>
<!-- Activity -->
<g id="node4" class="node"><title>Activity</title>
<path fill="none" stroke="black" d="M1007.16,-344C1007.16,-344 1120.84,-344 1120.84,-344 1126.84,-344 1132.84,-350 1132.84,-356 1132.84,-356 1132.84,-474 1132.84,-474 1132.84,-480 1126.84,-486 1120.84,-486 1120.84,-486 1007.16,-486 1007.16,-486 1001.16,-486 995.16,-480 995.16,-474 995.16,-474 995.16,-356 995.16,-356 995.16,-350 1001.16,-344 1007.16,-344"/>
<text text-anchor="middle" x="1064" y="-470.8" font-family="Times,serif" font-size="14.00">Activity</text>
<polyline fill="none" stroke="black" points="995.16,-464 1132.84,-464 "/>
<text text-anchor="start" x="1003.16" y="-448.8" font-family="Times,serif" font-size="14.00">id :integer</text>
<text text-anchor="start" x="1003.16" y="-434.8" font-family="Times,serif" font-size="14.00">user_id :integer</text>
<text text-anchor="start" x="1003.16" y="-420.8" font-family="Times,serif" font-size="14.00">action :string</text>
<text text-anchor="start" x="1003.16" y="-406.8" font-family="Times,serif" font-size="14.00">trackable_id :integer</text>
<text text-anchor="start" x="1003.16" y="-392.8" font-family="Times,serif" font-size="14.00">trackable_type :string</text>
<text text-anchor="start" x="1003.16" y="-378.8" font-family="Times,serif" font-size="14.00">created_at :datetime</text>
<text text-anchor="start" x="1003.16" y="-364.8" font-family="Times,serif" font-size="14.00">updated_at :datetime</text>
<text text-anchor="start" x="1003.16" y="-350.8" font-family="Times,serif" font-size="14.00">controller :string</text>
</g>
<!-- Affiliation -->
<g id="node5" class="node"><title>Affiliation</title>
<path fill="none" stroke="black" d="M323.495,-1368C323.495,-1368 432.505,-1368 432.505,-1368 438.505,-1368 444.505,-1374 444.505,-1380 444.505,-1380 444.505,-1442 444.505,-1442 444.505,-1448 438.505,-1454 432.505,-1454 432.505,-1454 323.495,-1454 323.495,-1454 317.495,-1454 311.495,-1448 311.495,-1442 311.495,-1442 311.495,-1380 311.495,-1380 311.495,-1374 317.495,-1368 323.495,-1368"/>
<text text-anchor="middle" x="378" y="-1438.8" font-family="Times,serif" font-size="14.00">Affiliation</text>
<polyline fill="none" stroke="black" points="311.495,-1432 444.505,-1432 "/>
<text text-anchor="start" x="319.495" y="-1416.8" font-family="Times,serif" font-size="14.00">id :integer</text>
<text text-anchor="start" x="319.495" y="-1402.8" font-family="Times,serif" font-size="14.00">name :string</text>
<text text-anchor="start" x="319.495" y="-1388.8" font-family="Times,serif" font-size="14.00">created_at :datetime</text>
<text text-anchor="start" x="319.495" y="-1374.8" font-family="Times,serif" font-size="14.00">updated_at :datetime</text>
</g>
<!-- Card -->
<g id="node9" class="node"><title>Card</title>
<path fill="none" stroke="black" d="M472.698,-939C472.698,-939 597.302,-939 597.302,-939 603.302,-939 609.302,-945 609.302,-951 609.302,-951 609.302,-1223 609.302,-1223 609.302,-1229 603.302,-1235 597.302,-1235 597.302,-1235 472.698,-1235 472.698,-1235 466.698,-1235 460.698,-1229 460.698,-1223 460.698,-1223 460.698,-951 460.698,-951 460.698,-945 466.698,-939 472.698,-939"/>
<text text-anchor="middle" x="535" y="-1219.8" font-family="Times,serif" font-size="14.00">Card</text>
<polyline fill="none" stroke="black" points="460.698,-1213 609.302,-1213 "/>
<text text-anchor="start" x="468.698" y="-1197.8" font-family="Times,serif" font-size="14.00">id :integer</text>
<text text-anchor="start" x="468.698" y="-1183.8" font-family="Times,serif" font-size="14.00">card_type_id :integer</text>
<text text-anchor="start" x="468.698" y="-1169.8" font-family="Times,serif" font-size="14.00">name :string</text>
<text text-anchor="start" x="468.698" y="-1155.8" font-family="Times,serif" font-size="14.00">email :string</text>
<text text-anchor="start" x="468.698" y="-1141.8" font-family="Times,serif" font-size="14.00">street :string</text>
<text text-anchor="start" x="468.698" y="-1127.8" font-family="Times,serif" font-size="14.00">place :string</text>
<text text-anchor="start" x="468.698" y="-1113.8" font-family="Times,serif" font-size="14.00">website :string</text>
<text text-anchor="start" x="468.698" y="-1099.8" font-family="Times,serif" font-size="14.00">password_digest :string</text>
<text text-anchor="start" x="468.698" y="-1085.8" font-family="Times,serif" font-size="14.00">description :text</text>
<text text-anchor="start" x="468.698" y="-1071.8" font-family="Times,serif" font-size="14.00">affiliation :text</text>
<text text-anchor="start" x="468.698" y="-1057.8" font-family="Times,serif" font-size="14.00">created_at :datetime</text>
<text text-anchor="start" x="468.698" y="-1043.8" font-family="Times,serif" font-size="14.00">updated_at :datetime</text>
<text text-anchor="start" x="468.698" y="-1029.8" font-family="Times,serif" font-size="14.00">latitude :float</text>
<text text-anchor="start" x="468.698" y="-1015.8" font-family="Times,serif" font-size="14.00">longitude :float</text>
<text text-anchor="start" x="468.698" y="-1001.8" font-family="Times,serif" font-size="14.00">avatar :string</text>
<text text-anchor="start" x="468.698" y="-987.8" font-family="Times,serif" font-size="14.00">banner :string</text>
<text text-anchor="start" x="468.698" y="-973.8" font-family="Times,serif" font-size="14.00">location_id :integer</text>
<text text-anchor="start" x="468.698" y="-959.8" font-family="Times,serif" font-size="14.00">user_id :integer</text>
<text text-anchor="start" x="468.698" y="-945.8" font-family="Times,serif" font-size="14.00">status_id :integer</text>
</g>
<!-- Affiliation&#45;&gt;Card -->
<g id="edge7" class="edge"><title>Affiliation&#45;&gt;Card</title>
<path fill="none" stroke="#8a23ec" d="M402.979,-1358.77C418.228,-1327.49 438.621,-1285.67 458.81,-1244.26"/>
<polygon fill="#8a23ec" stroke="#8a23ec" points="402.908,-1358.92 394.48,-1365.93 400.716,-1363.41 398.525,-1367.9 398.525,-1367.9 398.525,-1367.9 400.716,-1363.41 402.57,-1369.88 402.908,-1358.92 402.908,-1358.92"/>
<polygon fill="#8a23ec" stroke="#8a23ec" points="458.866,-1244.15 467.293,-1237.13 461.057,-1239.65 463.248,-1235.16 463.248,-1235.16 463.248,-1235.16 461.057,-1239.65 459.203,-1233.19 458.866,-1244.15 458.866,-1244.15"/>
</g>
<!-- CardAffiliation -->
<g id="node10" class="node"><title>CardAffiliation</title>
<path fill="none" stroke="black" d="M131.708,-636C131.708,-636 242.292,-636 242.292,-636 248.292,-636 254.292,-642 254.292,-648 254.292,-648 254.292,-724 254.292,-724 254.292,-730 248.292,-736 242.292,-736 242.292,-736 131.708,-736 131.708,-736 125.708,-736 119.708,-730 119.708,-724 119.708,-724 119.708,-648 119.708,-648 119.708,-642 125.708,-636 131.708,-636"/>
<text text-anchor="middle" x="187" y="-720.8" font-family="Times,serif" font-size="14.00">CardAffiliation</text>
<polyline fill="none" stroke="black" points="119.708,-714 254.292,-714 "/>
<text text-anchor="start" x="127.708" y="-698.8" font-family="Times,serif" font-size="14.00">id :integer</text>
<text text-anchor="start" x="127.708" y="-684.8" font-family="Times,serif" font-size="14.00">card_id :integer</text>
<text text-anchor="start" x="127.708" y="-670.8" font-family="Times,serif" font-size="14.00">affiliation_id :integer</text>
<text text-anchor="start" x="127.708" y="-656.8" font-family="Times,serif" font-size="14.00">created_at :datetime</text>
<text text-anchor="start" x="127.708" y="-642.8" font-family="Times,serif" font-size="14.00">updated_at :datetime</text>
</g>
<!-- Affiliation&#45;&gt;CardAffiliation -->
<g id="edge6" class="edge"><title>Affiliation&#45;&gt;CardAffiliation</title>
<path fill="none" stroke="#23e6c6" d="M364.71,-1359.69C330.459,-1230.04 239.304,-884.987 202.617,-746.117"/>
<ellipse fill="none" stroke="#23e6c6" cx="365.814" cy="-1363.87" rx="4.00001" ry="4.00001"/>
<polygon fill="#23e6c6" stroke="#23e6c6" points="202.522,-745.754 204.318,-734.936 201.244,-740.92 199.967,-736.086 199.967,-736.086 199.967,-736.086 201.244,-740.92 195.617,-737.235 202.522,-745.754 202.522,-745.754"/>
</g>
<!-- Article -->
<g id="node6" class="node"><title>Article</title>
<path fill="none" stroke="black" d="M1690.49,-344C1690.49,-344 1799.51,-344 1799.51,-344 1805.51,-344 1811.51,-350 1811.51,-356 1811.51,-356 1811.51,-474 1811.51,-474 1811.51,-480 1805.51,-486 1799.51,-486 1799.51,-486 1690.49,-486 1690.49,-486 1684.49,-486 1678.49,-480 1678.49,-474 1678.49,-474 1678.49,-356 1678.49,-356 1678.49,-350 1684.49,-344 1690.49,-344"/>
<text text-anchor="middle" x="1745" y="-470.8" font-family="Times,serif" font-size="14.00">Article</text>
<polyline fill="none" stroke="black" points="1678.49,-464 1811.51,-464 "/>
<text text-anchor="start" x="1686.49" y="-448.8" font-family="Times,serif" font-size="14.00">id :integer</text>
<text text-anchor="start" x="1686.49" y="-434.8" font-family="Times,serif" font-size="14.00">title :string</text>
<text text-anchor="start" x="1686.49" y="-420.8" font-family="Times,serif" font-size="14.00">content :text</text>
<text text-anchor="start" x="1686.49" y="-406.8" font-family="Times,serif" font-size="14.00">user_id :integer</text>
<text text-anchor="start" x="1686.49" y="-392.8" font-family="Times,serif" font-size="14.00">image :string</text>
<text text-anchor="start" x="1686.49" y="-378.8" font-family="Times,serif" font-size="14.00">likes :integer</text>
<text text-anchor="start" x="1686.49" y="-364.8" font-family="Times,serif" font-size="14.00">created_at :datetime</text>
<text text-anchor="start" x="1686.49" y="-350.8" font-family="Times,serif" font-size="14.00">updated_at :datetime</text>
</g>
<!-- ArticleTheme -->
<g id="node7" class="node"><title>ArticleTheme</title>
<path fill="none" stroke="black" d="M1524.49,-1C1524.49,-1 1633.51,-1 1633.51,-1 1639.51,-1 1645.51,-7 1645.51,-13 1645.51,-13 1645.51,-89 1645.51,-89 1645.51,-95 1639.51,-101 1633.51,-101 1633.51,-101 1524.49,-101 1524.49,-101 1518.49,-101 1512.49,-95 1512.49,-89 1512.49,-89 1512.49,-13 1512.49,-13 1512.49,-7 1518.49,-1 1524.49,-1"/>
<text text-anchor="middle" x="1579" y="-85.8" font-family="Times,serif" font-size="14.00">ArticleTheme</text>
<polyline fill="none" stroke="black" points="1512.49,-79 1645.51,-79 "/>
<text text-anchor="start" x="1520.49" y="-63.8" font-family="Times,serif" font-size="14.00">id :integer</text>
<text text-anchor="start" x="1520.49" y="-49.8" font-family="Times,serif" font-size="14.00">article_id :integer</text>
<text text-anchor="start" x="1520.49" y="-35.8" font-family="Times,serif" font-size="14.00">theme_id :integer</text>
<text text-anchor="start" x="1520.49" y="-21.8" font-family="Times,serif" font-size="14.00">created_at :datetime</text>
<text text-anchor="start" x="1520.49" y="-7.8" font-family="Times,serif" font-size="14.00">updated_at :datetime</text>
</g>
<!-- Article&#45;&gt;ArticleTheme -->
<g id="edge9" class="edge"><title>Article&#45;&gt;ArticleTheme</title>
<path fill="none" stroke="#e40bba" d="M1686.55,-338.098C1680.89,-332.374 1675.01,-326.921 1669,-322 1641.3,-299.332 1617.63,-313.927 1598,-284 1564.51,-232.944 1563.93,-161.341 1569.08,-111.229"/>
<ellipse fill="none" stroke="#e40bba" cx="1689.36" cy="-341.019" rx="4.00002" ry="4.00002"/>
<polygon fill="#e40bba" stroke="#e40bba" points="1569.1,-111.128 1574.69,-101.698 1569.66,-106.16 1570.22,-101.191 1570.22,-101.191 1570.22,-101.191 1569.66,-106.16 1565.75,-100.685 1569.1,-111.128 1569.1,-111.128"/>
</g>
<!-- Theme -->
<g id="node35" class="node"><title>Theme</title>
<path fill="none" stroke="black" d="M1965.49,-162C1965.49,-162 2074.51,-162 2074.51,-162 2080.51,-162 2086.51,-168 2086.51,-174 2086.51,-174 2086.51,-250 2086.51,-250 2086.51,-256 2080.51,-262 2074.51,-262 2074.51,-262 1965.49,-262 1965.49,-262 1959.49,-262 1953.49,-256 1953.49,-250 1953.49,-250 1953.49,-174 1953.49,-174 1953.49,-168 1959.49,-162 1965.49,-162"/>
<text text-anchor="middle" x="2020" y="-246.8" font-family="Times,serif" font-size="14.00">Theme</text>
<polyline fill="none" stroke="black" points="1953.49,-240 2086.51,-240 "/>
<text text-anchor="start" x="1961.49" y="-224.8" font-family="Times,serif" font-size="14.00">id :integer</text>
<text text-anchor="start" x="1961.49" y="-210.8" font-family="Times,serif" font-size="14.00">name :string</text>
<text text-anchor="start" x="1961.49" y="-196.8" font-family="Times,serif" font-size="14.00">description :text</text>
<text text-anchor="start" x="1961.49" y="-182.8" font-family="Times,serif" font-size="14.00">created_at :datetime</text>
<text text-anchor="start" x="1961.49" y="-168.8" font-family="Times,serif" font-size="14.00">updated_at :datetime</text>
</g>
<!-- Article&#45;&gt;Theme -->
<g id="edge10" class="edge"><title>Article&#45;&gt;Theme</title>
<path fill="none" stroke="#1a0e76" d="M1819.76,-359.357C1858.63,-330.949 1906.01,-296.318 1944.92,-267.876"/>
<polygon fill="#1a0e76" stroke="#1a0e76" points="1819.64,-359.443 1808.91,-361.71 1815.61,-362.393 1811.57,-365.344 1811.57,-365.344 1811.57,-365.344 1815.61,-362.393 1814.23,-368.977 1819.64,-359.443 1819.64,-359.443"/>
<polygon fill="#1a0e76" stroke="#1a0e76" points="1945.02,-267.806 1955.75,-265.538 1949.05,-264.856 1953.09,-261.905 1953.09,-261.905 1953.09,-261.905 1949.05,-264.856 1950.43,-258.272 1945.02,-267.806 1945.02,-267.806"/>
</g>
<!-- Canton -->
<g id="node8" class="node"><title>Canton</title>
<path fill="none" stroke="black" d="M2412.49,-1361C2412.49,-1361 2521.51,-1361 2521.51,-1361 2527.51,-1361 2533.51,-1367 2533.51,-1373 2533.51,-1373 2533.51,-1449 2533.51,-1449 2533.51,-1455 2527.51,-1461 2521.51,-1461 2521.51,-1461 2412.49,-1461 2412.49,-1461 2406.49,-1461 2400.49,-1455 2400.49,-1449 2400.49,-1449 2400.49,-1373 2400.49,-1373 2400.49,-1367 2406.49,-1361 2412.49,-1361"/>
<text text-anchor="middle" x="2467" y="-1445.8" font-family="Times,serif" font-size="14.00">Canton</text>
<polyline fill="none" stroke="black" points="2400.49,-1439 2533.51,-1439 "/>
<text text-anchor="start" x="2408.49" y="-1423.8" font-family="Times,serif" font-size="14.00">id :integer</text>
<text text-anchor="start" x="2408.49" y="-1409.8" font-family="Times,serif" font-size="14.00">name :string</text>
<text text-anchor="start" x="2408.49" y="-1395.8" font-family="Times,serif" font-size="14.00">abbreviation :string</text>
<text text-anchor="start" x="2408.49" y="-1381.8" font-family="Times,serif" font-size="14.00">created_at :datetime</text>
<text text-anchor="start" x="2408.49" y="-1367.8" font-family="Times,serif" font-size="14.00">updated_at :datetime</text>
</g>
<!-- Location -->
<g id="node19" class="node"><title>Location</title>
<path fill="none" stroke="black" d="M2483.49,-1009C2483.49,-1009 2592.51,-1009 2592.51,-1009 2598.51,-1009 2604.51,-1015 2604.51,-1021 2604.51,-1021 2604.51,-1153 2604.51,-1153 2604.51,-1159 2598.51,-1165 2592.51,-1165 2592.51,-1165 2483.49,-1165 2483.49,-1165 2477.49,-1165 2471.49,-1159 2471.49,-1153 2471.49,-1153 2471.49,-1021 2471.49,-1021 2471.49,-1015 2477.49,-1009 2483.49,-1009"/>
<text text-anchor="middle" x="2538" y="-1149.8" font-family="Times,serif" font-size="14.00">Location</text>
<polyline fill="none" stroke="black" points="2471.49,-1143 2604.51,-1143 "/>
<text text-anchor="start" x="2479.49" y="-1127.8" font-family="Times,serif" font-size="14.00">id :integer</text>
<text text-anchor="start" x="2479.49" y="-1113.8" font-family="Times,serif" font-size="14.00">npa :integer</text>
<text text-anchor="start" x="2479.49" y="-1099.8" font-family="Times,serif" font-size="14.00">official_name :string</text>
<text text-anchor="start" x="2479.49" y="-1085.8" font-family="Times,serif" font-size="14.00">post_name :string</text>
<text text-anchor="start" x="2479.49" y="-1071.8" font-family="Times,serif" font-size="14.00">canton_id :integer</text>
<text text-anchor="start" x="2479.49" y="-1057.8" font-family="Times,serif" font-size="14.00">created_at :datetime</text>
<text text-anchor="start" x="2479.49" y="-1043.8" font-family="Times,serif" font-size="14.00">updated_at :datetime</text>
<text text-anchor="start" x="2479.49" y="-1029.8" font-family="Times,serif" font-size="14.00">latitude :float</text>
<text text-anchor="start" x="2479.49" y="-1015.8" font-family="Times,serif" font-size="14.00">longitude :float</text>
</g>
<!-- Canton&#45;&gt;Location -->
<g id="edge13" class="edge"><title>Canton&#45;&gt;Location</title>
<path fill="none" stroke="#4c2dee" d="M2479.59,-1352.9C2490.46,-1303.61 2506.33,-1231.63 2518.79,-1175.13"/>
<ellipse fill="none" stroke="#4c2dee" cx="2478.72" cy="-1356.84" rx="4.00001" ry="4.00001"/>
<polygon fill="#4c2dee" stroke="#4c2dee" points="2518.84,-1174.9 2525.39,-1166.1 2519.92,-1170.02 2520.99,-1165.13 2520.99,-1165.13 2520.99,-1165.13 2519.92,-1170.02 2516.6,-1164.17 2518.84,-1174.9 2518.84,-1174.9"/>
</g>
<!-- Card&#45;&gt;Card -->
<g id="edge24" class="edge"><title>Card&#45;&gt;Card</title>
<path fill="none" stroke="#3449e7" d="M618.869,-1100.65C623.949,-1097.4 627,-1092.85 627,-1087 627,-1081.15 623.949,-1076.6 618.869,-1073.35"/>
<polygon fill="#3449e7" stroke="#3449e7" points="618.57,-1100.77 607.607,-1100.52 613.965,-1102.72 609.36,-1104.67 609.36,-1104.67 609.36,-1104.67 613.965,-1102.72 611.113,-1108.81 618.57,-1100.77 618.57,-1100.77"/>
<polygon fill="#3449e7" stroke="#3449e7" points="618.57,-1073.23 611.113,-1065.19 613.965,-1071.28 609.36,-1069.33 609.36,-1069.33 609.36,-1069.33 613.965,-1071.28 607.607,-1073.48 618.57,-1073.23 618.57,-1073.23"/>
<text text-anchor="middle" x="647.214" y="-1082.8" font-family="Times,serif" font-size="14.00">parents</text>
</g>
<!-- Card&#45;&gt;Card -->
<g id="edge26" class="edge"><title>Card&#45;&gt;Card</title>
<path fill="none" stroke="#e6bbdf" d="M619.865,-1126.24C646.178,-1124.81 667.428,-1111.73 667.428,-1087 667.428,-1062.27 646.178,-1049.19 619.865,-1047.76"/>
<polygon fill="#e6bbdf" stroke="#e6bbdf" points="619.567,-1126.24 609.576,-1121.72 614.567,-1126.23 609.567,-1126.22 609.567,-1126.22 609.567,-1126.22 614.567,-1126.23 609.557,-1130.72 619.567,-1126.24 619.567,-1126.24"/>
<polygon fill="#e6bbdf" stroke="#e6bbdf" points="619.567,-1047.76 609.557,-1043.28 614.567,-1047.77 609.567,-1047.78 609.567,-1047.78 609.567,-1047.78 614.567,-1047.77 609.576,-1052.28 619.567,-1047.76 619.567,-1047.76"/>
<text text-anchor="middle" x="711.355" y="-1082.8" font-family="Times,serif" font-size="14.00">inverse_parents</text>
</g>
<!-- Card&#45;&gt;CardAffiliation -->
<g id="edge15" class="edge"><title>Card&#45;&gt;CardAffiliation</title>
<path fill="none" stroke="#996da1" d="M454.248,-1015.18C397.132,-962.828 320.752,-888.056 263,-814 246.33,-792.624 230.493,-767.299 217.633,-744.909"/>
<ellipse fill="none" stroke="#996da1" cx="457.46" cy="-1018.12" rx="4.00002" ry="4.00002"/>
<polygon fill="#996da1" stroke="#996da1" points="217.607,-744.863 216.589,-733.944 215.141,-740.513 212.674,-736.164 212.674,-736.164 212.674,-736.164 215.141,-740.513 208.76,-738.384 217.607,-744.863 217.607,-744.863"/>
</g>
<!-- CardParent -->
<g id="node11" class="node"><title>CardParent</title>
<path fill="none" stroke="black" d="M550.495,-636C550.495,-636 659.505,-636 659.505,-636 665.505,-636 671.505,-642 671.505,-648 671.505,-648 671.505,-724 671.505,-724 671.505,-730 665.505,-736 659.505,-736 659.505,-736 550.495,-736 550.495,-736 544.495,-736 538.495,-730 538.495,-724 538.495,-724 538.495,-648 538.495,-648 538.495,-642 544.495,-636 550.495,-636"/>
<text text-anchor="middle" x="605" y="-720.8" font-family="Times,serif" font-size="14.00">CardParent</text>
<polyline fill="none" stroke="black" points="538.495,-714 671.505,-714 "/>
<text text-anchor="start" x="546.495" y="-698.8" font-family="Times,serif" font-size="14.00">id :integer</text>
<text text-anchor="start" x="546.495" y="-684.8" font-family="Times,serif" font-size="14.00">card_id :integer</text>
<text text-anchor="start" x="546.495" y="-670.8" font-family="Times,serif" font-size="14.00">parent_id :integer</text>
<text text-anchor="start" x="546.495" y="-656.8" font-family="Times,serif" font-size="14.00">created_at :datetime</text>
<text text-anchor="start" x="546.495" y="-642.8" font-family="Times,serif" font-size="14.00">updated_at :datetime</text>
</g>
<!-- Card&#45;&gt;CardParent -->
<g id="edge23" class="edge"><title>Card&#45;&gt;CardParent</title>
<path fill="none" stroke="#e73105" d="M535.838,-930.58C538.165,-897.771 542.217,-863.545 549,-832 555.316,-802.629 566.729,-771.381 577.612,-745.444"/>
<ellipse fill="none" stroke="#e73105" cx="535.55" cy="-934.898" rx="4" ry="4"/>
<polygon fill="#e73105" stroke="#e73105" points="577.657,-745.337 585.725,-737.91 579.622,-740.739 581.587,-736.142 581.587,-736.142 581.587,-736.142 579.622,-740.739 577.449,-734.373 577.657,-745.337 577.657,-745.337"/>
</g>
<!-- Card&#45;&gt;CardParent -->
<g id="edge25" class="edge"><title>Card&#45;&gt;CardParent</title>
<path fill="none" stroke="#7c9cd9" d="M553.09,-930.551C557.66,-897.891 563.014,-863.73 569.055,-832 574.496,-803.421 582.07,-772.049 588.863,-745.817"/>
<ellipse fill="none" stroke="#7c9cd9" cx="552.494" cy="-934.858" rx="4.00001" ry="4.00001"/>
<polygon fill="#7c9cd9" stroke="#7c9cd9" points="588.892,-745.707 595.776,-737.171 590.157,-740.87 591.422,-736.032 591.422,-736.032 591.422,-736.032 590.157,-740.87 587.069,-734.894 588.892,-745.707 588.892,-745.707"/>
<text text-anchor="middle" x="629.473" y="-871.8" font-family="Times,serif" font-size="14.00">inverse_card_parents</text>
</g>
<!-- CardResponsable -->
<g id="node12" class="node"><title>CardResponsable</title>
<path fill="none" stroke="black" d="M11.8809,-365C11.8809,-365 134.119,-365 134.119,-365 140.119,-365 146.119,-371 146.119,-377 146.119,-377 146.119,-453 146.119,-453 146.119,-459 140.119,-465 134.119,-465 134.119,-465 11.8809,-465 11.8809,-465 5.88086,-465 -0.119141,-459 -0.119141,-453 -0.119141,-453 -0.119141,-377 -0.119141,-377 -0.119141,-371 5.88086,-365 11.8809,-365"/>
<text text-anchor="middle" x="73" y="-449.8" font-family="Times,serif" font-size="14.00">CardResponsable</text>
<polyline fill="none" stroke="black" points="-0.119141,-443 146.119,-443 "/>
<text text-anchor="start" x="7.88086" y="-427.8" font-family="Times,serif" font-size="14.00">id :integer</text>
<text text-anchor="start" x="7.88086" y="-413.8" font-family="Times,serif" font-size="14.00">card_id :integer</text>
<text text-anchor="start" x="7.88086" y="-399.8" font-family="Times,serif" font-size="14.00">responsable_id :integer</text>
<text text-anchor="start" x="7.88086" y="-385.8" font-family="Times,serif" font-size="14.00">created_at :datetime</text>
<text text-anchor="start" x="7.88086" y="-371.8" font-family="Times,serif" font-size="14.00">updated_at :datetime</text>
</g>
<!-- Card&#45;&gt;CardResponsable -->
<g id="edge19" class="edge"><title>Card&#45;&gt;CardResponsable</title>
<path fill="none" stroke="#0f7269" d="M485.77,-930.765C484.818,-927.148 483.893,-923.556 483,-920 473.03,-880.286 439.819,-589.78 414,-558 350.014,-479.243 234.851,-443.595 156.22,-427.853"/>
<ellipse fill="none" stroke="#0f7269" cx="486.863" cy="-934.854" rx="4.00001" ry="4.00001"/>
<polygon fill="#0f7269" stroke="#0f7269" points="156.157,-427.841 147.194,-421.523 151.248,-426.891 146.339,-425.941 146.339,-425.941 146.339,-425.941 151.248,-426.891 145.484,-430.359 156.157,-427.841 156.157,-427.841"/>
</g>
<!-- CardUser -->
<g id="node14" class="node"><title>CardUser</title>
<path fill="none" stroke="black" d="M408.946,-351C408.946,-351 535.054,-351 535.054,-351 541.054,-351 547.054,-357 547.054,-363 547.054,-363 547.054,-467 547.054,-467 547.054,-473 541.054,-479 535.054,-479 535.054,-479 408.946,-479 408.946,-479 402.946,-479 396.946,-473 396.946,-467 396.946,-467 396.946,-363 396.946,-363 396.946,-357 402.946,-351 408.946,-351"/>
<text text-anchor="middle" x="472" y="-463.8" font-family="Times,serif" font-size="14.00">CardUser</text>
<polyline fill="none" stroke="black" points="396.946,-457 547.054,-457 "/>
<text text-anchor="start" x="404.946" y="-441.8" font-family="Times,serif" font-size="14.00">id :integer</text>
<text text-anchor="start" x="404.946" y="-427.8" font-family="Times,serif" font-size="14.00">card_id :integer</text>
<text text-anchor="start" x="404.946" y="-413.8" font-family="Times,serif" font-size="14.00">user_id :integer</text>
<text text-anchor="start" x="404.946" y="-399.8" font-family="Times,serif" font-size="14.00">user_validated :boolean</text>
<text text-anchor="start" x="404.946" y="-385.8" font-family="Times,serif" font-size="14.00">card_validated :boolean</text>
<text text-anchor="start" x="404.946" y="-371.8" font-family="Times,serif" font-size="14.00">created_at :datetime</text>
<text text-anchor="start" x="404.946" y="-357.8" font-family="Times,serif" font-size="14.00">updated_at :datetime</text>
</g>
<!-- Card&#45;&gt;CardUser -->
<g id="edge21" class="edge"><title>Card&#45;&gt;CardUser</title>
<path fill="none" stroke="#6abd8e" d="M497.612,-930.774C497.038,-927.154 496.499,-923.559 496,-920 474.698,-767.927 471.316,-587.8 471.301,-489.345"/>
<ellipse fill="none" stroke="#6abd8e" cx="498.274" cy="-934.785" rx="4.00001" ry="4.00001"/>
<polygon fill="#6abd8e" stroke="#6abd8e" points="471.301,-489.203 475.811,-479.208 471.306,-484.203 471.311,-479.203 471.311,-479.203 471.311,-479.203 471.306,-484.203 466.811,-479.199 471.301,-489.203 471.301,-489.203"/>
</g>
<!-- Responsable -->
<g id="node29" class="node"><title>Responsable</title>
<path fill="none" stroke="black" d="M284.495,-629C284.495,-629 393.505,-629 393.505,-629 399.505,-629 405.505,-635 405.505,-641 405.505,-641 405.505,-731 405.505,-731 405.505,-737 399.505,-743 393.505,-743 393.505,-743 284.495,-743 284.495,-743 278.495,-743 272.495,-737 272.495,-731 272.495,-731 272.495,-641 272.495,-641 272.495,-635 278.495,-629 284.495,-629"/>
<text text-anchor="middle" x="339" y="-727.8" font-family="Times,serif" font-size="14.00">Responsable</text>
<polyline fill="none" stroke="black" points="272.495,-721 405.505,-721 "/>
<text text-anchor="start" x="280.495" y="-705.8" font-family="Times,serif" font-size="14.00">id :integer</text>
<text text-anchor="start" x="280.495" y="-691.8" font-family="Times,serif" font-size="14.00">firstname :string</text>
<text text-anchor="start" x="280.495" y="-677.8" font-family="Times,serif" font-size="14.00">lastname :string</text>
<text text-anchor="start" x="280.495" y="-663.8" font-family="Times,serif" font-size="14.00">email :string</text>
<text text-anchor="start" x="280.495" y="-649.8" font-family="Times,serif" font-size="14.00">created_at :datetime</text>
<text text-anchor="start" x="280.495" y="-635.8" font-family="Times,serif" font-size="14.00">updated_at :datetime</text>
</g>
<!-- Card&#45;&gt;Responsable -->
<g id="edge20" class="edge"><title>Card&#45;&gt;Responsable</title>
<path fill="none" stroke="#e94cd9" d="M454.88,-979.321C442.28,-960.118 430.101,-939.875 420,-920 392.589,-866.067 370.765,-800.706 356.708,-752.952"/>
<polygon fill="#e94cd9" stroke="#e94cd9" points="454.962,-979.444 456.749,-990.264 457.729,-983.609 460.497,-987.773 460.497,-987.773 460.497,-987.773 457.729,-983.609 464.245,-985.283 454.962,-979.444 454.962,-979.444"/>
<polygon fill="#e94cd9" stroke="#e94cd9" points="356.706,-752.945 358.236,-742.087 355.311,-748.144 353.915,-743.343 353.915,-743.343 353.915,-743.343 355.311,-748.144 349.594,-744.599 356.706,-752.945 356.706,-752.945"/>
</g>
<!-- Tag -->
<g id="node33" class="node"><title>Tag</title>
<path fill="none" stroke="black" d="M740.495,-636C740.495,-636 849.505,-636 849.505,-636 855.505,-636 861.505,-642 861.505,-648 861.505,-648 861.505,-724 861.505,-724 861.505,-730 855.505,-736 849.505,-736 849.505,-736 740.495,-736 740.495,-736 734.495,-736 728.495,-730 728.495,-724 728.495,-724 728.495,-648 728.495,-648 728.495,-642 734.495,-636 740.495,-636"/>
<text text-anchor="middle" x="795" y="-720.8" font-family="Times,serif" font-size="14.00">Tag</text>
<polyline fill="none" stroke="black" points="728.495,-714 861.505,-714 "/>
<text text-anchor="start" x="736.495" y="-698.8" font-family="Times,serif" font-size="14.00">id :integer</text>
<text text-anchor="start" x="736.495" y="-684.8" font-family="Times,serif" font-size="14.00">name :string</text>
<text text-anchor="start" x="736.495" y="-670.8" font-family="Times,serif" font-size="14.00">popularity :integer</text>
<text text-anchor="start" x="736.495" y="-656.8" font-family="Times,serif" font-size="14.00">created_at :datetime</text>
<text text-anchor="start" x="736.495" y="-642.8" font-family="Times,serif" font-size="14.00">updated_at :datetime</text>
</g>
<!-- Card&#45;&gt;Tag -->
<g id="edge17" class="edge"><title>Card&#45;&gt;Tag</title>
<path fill="none" stroke="#7ad533" d="M617.171,-1025.87C651.681,-997.101 689.805,-960.18 716,-920 751.027,-866.273 772.143,-795.413 783.616,-746.002"/>
<polygon fill="#7ad533" stroke="#7ad533" points="617.132,-1025.9 606.551,-1028.78 613.271,-1029.08 609.41,-1032.25 609.41,-1032.25 609.41,-1032.25 613.271,-1029.08 612.269,-1035.73 617.132,-1025.9 617.132,-1025.9"/>
<polygon fill="#7ad533" stroke="#7ad533" points="783.648,-745.862 790.241,-737.099 784.75,-740.985 785.852,-736.108 785.852,-736.108 785.852,-736.108 784.75,-740.985 781.462,-735.116 783.648,-745.862 783.648,-745.862"/>
</g>
<!-- Tagging -->
<g id="node34" class="node"><title>Tagging</title>
<path fill="none" stroke="black" d="M628.495,-365C628.495,-365 737.505,-365 737.505,-365 743.505,-365 749.505,-371 749.505,-377 749.505,-377 749.505,-453 749.505,-453 749.505,-459 743.505,-465 737.505,-465 737.505,-465 628.495,-465 628.495,-465 622.495,-465 616.495,-459 616.495,-453 616.495,-453 616.495,-377 616.495,-377 616.495,-371 622.495,-365 628.495,-365"/>
<text text-anchor="middle" x="683" y="-449.8" font-family="Times,serif" font-size="14.00">Tagging</text>
<polyline fill="none" stroke="black" points="616.495,-443 749.505,-443 "/>
<text text-anchor="start" x="624.495" y="-427.8" font-family="Times,serif" font-size="14.00">id :integer</text>
<text text-anchor="start" x="624.495" y="-413.8" font-family="Times,serif" font-size="14.00">card_id :integer</text>
<text text-anchor="start" x="624.495" y="-399.8" font-family="Times,serif" font-size="14.00">tag_id :integer</text>
<text text-anchor="start" x="624.495" y="-385.8" font-family="Times,serif" font-size="14.00">created_at :datetime</text>
<text text-anchor="start" x="624.495" y="-371.8" font-family="Times,serif" font-size="14.00">updated_at :datetime</text>
</g>
<!-- Card&#45;&gt;Tagging -->
<g id="edge16" class="edge"><title>Card&#45;&gt;Tagging</title>
<path fill="none" stroke="#63a03e" d="M519.286,-930.617C508.537,-799.238 500.78,-622.408 529,-558 545.546,-520.237 577.639,-488.072 608.264,-463.953"/>
<ellipse fill="none" stroke="#63a03e" cx="519.635" cy="-934.822" rx="4" ry="4"/>
<polygon fill="#63a03e" stroke="#63a03e" points="608.497,-463.774 619.169,-461.25 612.462,-460.728 616.427,-457.682 616.427,-457.682 616.427,-457.682 612.462,-460.728 613.685,-454.113 608.497,-463.774 608.497,-463.774"/>
</g>
<!-- User -->
<g id="node36" class="node"><title>User</title>
<path fill="none" stroke="black" d="M1233.94,-559C1233.94,-559 1360.06,-559 1360.06,-559 1366.06,-559 1372.06,-565 1372.06,-571 1372.06,-571 1372.06,-801 1372.06,-801 1372.06,-807 1366.06,-813 1360.06,-813 1360.06,-813 1233.94,-813 1233.94,-813 1227.94,-813 1221.94,-807 1221.94,-801 1221.94,-801 1221.94,-571 1221.94,-571 1221.94,-565 1227.94,-559 1233.94,-559"/>
<text text-anchor="middle" x="1297" y="-797.8" font-family="Times,serif" font-size="14.00">User</text>
<polyline fill="none" stroke="black" points="1221.94,-791 1372.06,-791 "/>
<text text-anchor="start" x="1229.94" y="-775.8" font-family="Times,serif" font-size="14.00">id :integer</text>
<text text-anchor="start" x="1229.94" y="-761.8" font-family="Times,serif" font-size="14.00">email :string</text>
<text text-anchor="start" x="1229.94" y="-747.8" font-family="Times,serif" font-size="14.00">gravatar_email :string</text>
<text text-anchor="start" x="1229.94" y="-733.8" font-family="Times,serif" font-size="14.00">password_digest :string</text>
<text text-anchor="start" x="1229.94" y="-719.8" font-family="Times,serif" font-size="14.00">remember_token :string</text>
<text text-anchor="start" x="1229.94" y="-705.8" font-family="Times,serif" font-size="14.00">user_type_id :integer</text>
<text text-anchor="start" x="1229.94" y="-691.8" font-family="Times,serif" font-size="14.00">uid :string</text>
<text text-anchor="start" x="1229.94" y="-677.8" font-family="Times,serif" font-size="14.00">created_at :datetime</text>
<text text-anchor="start" x="1229.94" y="-663.8" font-family="Times,serif" font-size="14.00">updated_at :datetime</text>
<text text-anchor="start" x="1229.94" y="-649.8" font-family="Times,serif" font-size="14.00">reset_token :string</text>
<text text-anchor="start" x="1229.94" y="-635.8" font-family="Times,serif" font-size="14.00">reset_sent_at :datetime</text>
<text text-anchor="start" x="1229.94" y="-621.8" font-family="Times,serif" font-size="14.00">firstname :string</text>
<text text-anchor="start" x="1229.94" y="-607.8" font-family="Times,serif" font-size="14.00">lastname :string</text>
<text text-anchor="start" x="1229.94" y="-593.8" font-family="Times,serif" font-size="14.00">confirmed :boolean</text>
<text text-anchor="start" x="1229.94" y="-579.8" font-family="Times,serif" font-size="14.00">avatar :string</text>
<text text-anchor="start" x="1229.94" y="-565.8" font-family="Times,serif" font-size="14.00">gravatar :boolean</text>
</g>
<!-- Card&#45;&gt;User -->
<g id="edge22" class="edge"><title>Card&#45;&gt;User</title>
<path fill="none" stroke="#a3cff3" d="M619.298,-1067.84C754.612,-1036.21 1023.06,-959.963 1203,-814 1207.02,-810.741 1210.92,-807.241 1214.7,-803.557"/>
<polygon fill="#a3cff3" stroke="#a3cff3" points="619.136,-1067.88 608.379,-1065.75 614.265,-1069.01 609.393,-1070.13 609.393,-1070.13 609.393,-1070.13 614.265,-1069.01 610.408,-1074.52 619.136,-1067.88 619.136,-1067.88"/>
<polygon fill="#a3cff3" stroke="#a3cff3" points="1214.83,-803.417 1225.04,-799.4 1218.32,-799.838 1221.81,-796.258 1221.81,-796.258 1221.81,-796.258 1218.32,-799.838 1218.59,-793.116 1214.83,-803.417 1214.83,-803.417"/>
</g>
<!-- VerificatorComment -->
<g id="node38" class="node"><title>VerificatorComment</title>
<path fill="none" stroke="black" d="M779.495,-358C779.495,-358 888.505,-358 888.505,-358 894.505,-358 900.505,-364 900.505,-370 900.505,-370 900.505,-460 900.505,-460 900.505,-466 894.505,-472 888.505,-472 888.505,-472 779.495,-472 779.495,-472 773.495,-472 767.495,-466 767.495,-460 767.495,-460 767.495,-370 767.495,-370 767.495,-364 773.495,-358 779.495,-358"/>
<text text-anchor="middle" x="834" y="-456.8" font-family="Times,serif" font-size="14.00">VerificatorComment</text>
<polyline fill="none" stroke="black" points="767.495,-450 900.505,-450 "/>
<text text-anchor="start" x="775.495" y="-434.8" font-family="Times,serif" font-size="14.00">id :integer</text>
<text text-anchor="start" x="775.495" y="-420.8" font-family="Times,serif" font-size="14.00">content :text</text>
<text text-anchor="start" x="775.495" y="-406.8" font-family="Times,serif" font-size="14.00">user_id :integer</text>
<text text-anchor="start" x="775.495" y="-392.8" font-family="Times,serif" font-size="14.00">card_id :integer</text>
<text text-anchor="start" x="775.495" y="-378.8" font-family="Times,serif" font-size="14.00">created_at :datetime</text>
<text text-anchor="start" x="775.495" y="-364.8" font-family="Times,serif" font-size="14.00">updated_at :datetime</text>
</g>
<!-- Card&#45;&gt;VerificatorComment -->
<g id="edge18" class="edge"><title>Card&#45;&gt;VerificatorComment</title>
<path fill="none" stroke="#765b2d" d="M615.303,-1019.46C643.179,-991.754 671.549,-957.335 688,-920 753.113,-772.232 658.644,-707.774 719,-558 719.992,-555.538 751.396,-516.817 781.133,-480.434"/>
<ellipse fill="none" stroke="#765b2d" cx="612.226" cy="-1022.47" rx="4.00002" ry="4.00002"/>
<polygon fill="#765b2d" stroke="#765b2d" points="781.507,-479.977 791.321,-475.085 784.673,-476.107 787.838,-472.236 787.838,-472.236 787.838,-472.236 784.673,-476.107 784.354,-469.387 781.507,-479.977 781.507,-479.977"/>
</g>
<!-- CardType -->
<g id="node13" class="node"><title>CardType</title>
<path fill="none" stroke="black" d="M513.495,-1368C513.495,-1368 622.505,-1368 622.505,-1368 628.505,-1368 634.505,-1374 634.505,-1380 634.505,-1380 634.505,-1442 634.505,-1442 634.505,-1448 628.505,-1454 622.505,-1454 622.505,-1454 513.495,-1454 513.495,-1454 507.495,-1454 501.495,-1448 501.495,-1442 501.495,-1442 501.495,-1380 501.495,-1380 501.495,-1374 507.495,-1368 513.495,-1368"/>
<text text-anchor="middle" x="568" y="-1438.8" font-family="Times,serif" font-size="14.00">CardType</text>
<polyline fill="none" stroke="black" points="501.495,-1432 634.505,-1432 "/>
<text text-anchor="start" x="509.495" y="-1416.8" font-family="Times,serif" font-size="14.00">id :integer</text>
<text text-anchor="start" x="509.495" y="-1402.8" font-family="Times,serif" font-size="14.00">name :string</text>
<text text-anchor="start" x="509.495" y="-1388.8" font-family="Times,serif" font-size="14.00">created_at :datetime</text>
<text text-anchor="start" x="509.495" y="-1374.8" font-family="Times,serif" font-size="14.00">updated_at :datetime</text>
</g>
<!-- CardType&#45;&gt;Card -->
<g id="edge31" class="edge"><title>CardType&#45;&gt;Card</title>
<path fill="none" stroke="#499b2f" d="M562.838,-1359.63C559.645,-1328.48 555.357,-1286.63 551.103,-1245.13"/>
<ellipse fill="none" stroke="#499b2f" cx="563.278" cy="-1363.92" rx="4" ry="4"/>
<polygon fill="#499b2f" stroke="#499b2f" points="551.101,-1245.11 554.558,-1234.7 550.591,-1240.13 550.082,-1235.16 550.082,-1235.16 550.082,-1235.16 550.591,-1240.13 545.605,-1235.62 551.101,-1245.11 551.101,-1245.11"/>
</g>
<!-- Connection -->
<g id="node15" class="node"><title>Connection</title>
<path fill="none" stroke="black" d="M1313.49,-365C1313.49,-365 1422.51,-365 1422.51,-365 1428.51,-365 1434.51,-371 1434.51,-377 1434.51,-377 1434.51,-453 1434.51,-453 1434.51,-459 1428.51,-465 1422.51,-465 1422.51,-465 1313.49,-465 1313.49,-465 1307.49,-465 1301.49,-459 1301.49,-453 1301.49,-453 1301.49,-377 1301.49,-377 1301.49,-371 1307.49,-365 1313.49,-365"/>
<text text-anchor="middle" x="1368" y="-449.8" font-family="Times,serif" font-size="14.00">Connection</text>
<polyline fill="none" stroke="black" points="1301.49,-443 1434.51,-443 "/>
<text text-anchor="start" x="1309.49" y="-427.8" font-family="Times,serif" font-size="14.00">id :integer</text>
<text text-anchor="start" x="1309.49" y="-413.8" font-family="Times,serif" font-size="14.00">ip :string</text>
<text text-anchor="start" x="1309.49" y="-399.8" font-family="Times,serif" font-size="14.00">user_id :integer</text>
<text text-anchor="start" x="1309.49" y="-385.8" font-family="Times,serif" font-size="14.00">created_at :datetime</text>
<text text-anchor="start" x="1309.49" y="-371.8" font-family="Times,serif" font-size="14.00">updated_at :datetime</text>
</g>
<!-- Disponibility -->
<g id="node16" class="node"><title>Disponibility</title>
<path fill="none" stroke="black" d="M2184.49,-643C2184.49,-643 2293.51,-643 2293.51,-643 2299.51,-643 2305.51,-649 2305.51,-655 2305.51,-655 2305.51,-717 2305.51,-717 2305.51,-723 2299.51,-729 2293.51,-729 2293.51,-729 2184.49,-729 2184.49,-729 2178.49,-729 2172.49,-723 2172.49,-717 2172.49,-717 2172.49,-655 2172.49,-655 2172.49,-649 2178.49,-643 2184.49,-643"/>
<text text-anchor="middle" x="2239" y="-713.8" font-family="Times,serif" font-size="14.00">Disponibility</text>
<polyline fill="none" stroke="black" points="2172.49,-707 2305.51,-707 "/>
<text text-anchor="start" x="2180.49" y="-691.8" font-family="Times,serif" font-size="14.00">id :integer</text>
<text text-anchor="start" x="2180.49" y="-677.8" font-family="Times,serif" font-size="14.00">name :string</text>
<text text-anchor="start" x="2180.49" y="-663.8" font-family="Times,serif" font-size="14.00">created_at :datetime</text>
<text text-anchor="start" x="2180.49" y="-649.8" font-family="Times,serif" font-size="14.00">updated_at :datetime</text>
</g>
<!-- Orator -->
<g id="node20" class="node"><title>Orator</title>
<path fill="none" stroke="black" d="M2146.49,-330C2146.49,-330 2255.51,-330 2255.51,-330 2261.51,-330 2267.51,-336 2267.51,-342 2267.51,-342 2267.51,-488 2267.51,-488 2267.51,-494 2261.51,-500 2255.51,-500 2255.51,-500 2146.49,-500 2146.49,-500 2140.49,-500 2134.49,-494 2134.49,-488 2134.49,-488 2134.49,-342 2134.49,-342 2134.49,-336 2140.49,-330 2146.49,-330"/>
<text text-anchor="middle" x="2201" y="-484.8" font-family="Times,serif" font-size="14.00">Orator</text>
<polyline fill="none" stroke="black" points="2134.49,-478 2267.51,-478 "/>
<text text-anchor="start" x="2142.49" y="-462.8" font-family="Times,serif" font-size="14.00">id :integer</text>
<text text-anchor="start" x="2142.49" y="-448.8" font-family="Times,serif" font-size="14.00">user_id :integer</text>
<text text-anchor="start" x="2142.49" y="-434.8" font-family="Times,serif" font-size="14.00">street :string</text>
<text text-anchor="start" x="2142.49" y="-420.8" font-family="Times,serif" font-size="14.00">location_id :integer</text>
<text text-anchor="start" x="2142.49" y="-406.8" font-family="Times,serif" font-size="14.00">phone :string</text>
<text text-anchor="start" x="2142.49" y="-392.8" font-family="Times,serif" font-size="14.00">disponibility :string</text>
<text text-anchor="start" x="2142.49" y="-378.8" font-family="Times,serif" font-size="14.00">created_at :datetime</text>
<text text-anchor="start" x="2142.49" y="-364.8" font-family="Times,serif" font-size="14.00">updated_at :datetime</text>
<text text-anchor="start" x="2142.49" y="-350.8" font-family="Times,serif" font-size="14.00">description :text</text>
<text text-anchor="start" x="2142.49" y="-336.8" font-family="Times,serif" font-size="14.00">disabled :boolean</text>
</g>
<!-- Disponibility&#45;&gt;Orator -->
<g id="edge36" class="edge"><title>Disponibility&#45;&gt;Orator</title>
<path fill="none" stroke="#ceb4c2" d="M2231.62,-632.733C2226.7,-597.933 2220.1,-551.214 2214.29,-510.062"/>
<polygon fill="#ceb4c2" stroke="#ceb4c2" points="2231.66,-633.067 2228.61,-643.598 2232.36,-638.018 2233.06,-642.969 2233.06,-642.969 2233.06,-642.969 2232.36,-638.018 2237.52,-642.339 2231.66,-633.067 2231.66,-633.067"/>
<polygon fill="#ceb4c2" stroke="#ceb4c2" points="2214.27,-509.908 2217.32,-499.377 2213.57,-504.958 2212.87,-500.007 2212.87,-500.007 2212.87,-500.007 2213.57,-504.958 2208.41,-500.636 2214.27,-509.908 2214.27,-509.908"/>
</g>
<!-- OratorDisponibility -->
<g id="node21" class="node"><title>OratorDisponibility</title>
<path fill="none" stroke="black" d="M2205.53,-162C2205.53,-162 2332.47,-162 2332.47,-162 2338.47,-162 2344.47,-168 2344.47,-174 2344.47,-174 2344.47,-250 2344.47,-250 2344.47,-256 2338.47,-262 2332.47,-262 2332.47,-262 2205.53,-262 2205.53,-262 2199.53,-262 2193.53,-256 2193.53,-250 2193.53,-250 2193.53,-174 2193.53,-174 2193.53,-168 2199.53,-162 2205.53,-162"/>
<text text-anchor="middle" x="2269" y="-246.8" font-family="Times,serif" font-size="14.00">OratorDisponibility</text>
<polyline fill="none" stroke="black" points="2193.53,-240 2344.47,-240 "/>
<text text-anchor="start" x="2201.53" y="-224.8" font-family="Times,serif" font-size="14.00">id :integer</text>
<text text-anchor="start" x="2201.53" y="-210.8" font-family="Times,serif" font-size="14.00">orator_id :integer</text>
<text text-anchor="start" x="2201.53" y="-196.8" font-family="Times,serif" font-size="14.00">disponibility_id :integer</text>
<text text-anchor="start" x="2201.53" y="-182.8" font-family="Times,serif" font-size="14.00">created_at :datetime</text>
<text text-anchor="start" x="2201.53" y="-168.8" font-family="Times,serif" font-size="14.00">updated_at :datetime</text>
</g>
<!-- Disponibility&#45;&gt;OratorDisponibility -->
<g id="edge35" class="edge"><title>Disponibility&#45;&gt;OratorDisponibility</title>
<path fill="none" stroke="#5e114c" d="M2252.42,-634.626C2261.08,-599.442 2271.53,-551.219 2276,-508 2284.5,-425.772 2278.65,-404.624 2276,-322 2275.48,-305.909 2274.54,-288.502 2273.51,-272.421"/>
<ellipse fill="none" stroke="#5e114c" cx="2251.34" cy="-638.946" rx="4.00001" ry="4.00001"/>
<polygon fill="#5e114c" stroke="#5e114c" points="2273.48,-272.051 2277.31,-261.775 2273.15,-267.062 2272.82,-262.073 2272.82,-262.073 2272.82,-262.073 2273.15,-267.062 2268.33,-262.371 2273.48,-272.051 2273.48,-272.051"/>
</g>
<!-- Document -->
<g id="node17" class="node"><title>Document</title>
<path fill="none" stroke="black" d="M1775.49,-141C1775.49,-141 1884.51,-141 1884.51,-141 1890.51,-141 1896.51,-147 1896.51,-153 1896.51,-153 1896.51,-271 1896.51,-271 1896.51,-277 1890.51,-283 1884.51,-283 1884.51,-283 1775.49,-283 1775.49,-283 1769.49,-283 1763.49,-277 1763.49,-271 1763.49,-271 1763.49,-153 1763.49,-153 1763.49,-147 1769.49,-141 1775.49,-141"/>
<text text-anchor="middle" x="1830" y="-267.8" font-family="Times,serif" font-size="14.00">Document</text>
<polyline fill="none" stroke="black" points="1763.49,-261 1896.51,-261 "/>
<text text-anchor="start" x="1771.49" y="-245.8" font-family="Times,serif" font-size="14.00">id :integer</text>
<text text-anchor="start" x="1771.49" y="-231.8" font-family="Times,serif" font-size="14.00">name :string</text>
<text text-anchor="start" x="1771.49" y="-217.8" font-family="Times,serif" font-size="14.00">file :string</text>
<text text-anchor="start" x="1771.49" y="-203.8" font-family="Times,serif" font-size="14.00">created_at :datetime</text>
<text text-anchor="start" x="1771.49" y="-189.8" font-family="Times,serif" font-size="14.00">updated_at :datetime</text>
<text text-anchor="start" x="1771.49" y="-175.8" font-family="Times,serif" font-size="14.00">subject_id :integer</text>
<text text-anchor="start" x="1771.49" y="-161.8" font-family="Times,serif" font-size="14.00">size :integer</text>
<text text-anchor="start" x="1771.49" y="-147.8" font-family="Times,serif" font-size="14.00">extension :string</text>
</g>
<!-- Element -->
<g id="node18" class="node"><title>Element</title>
<path fill="none" stroke="black" d="M1653.49,-833C1653.49,-833 1762.51,-833 1762.51,-833 1768.51,-833 1774.51,-839 1774.51,-845 1774.51,-845 1774.51,-907 1774.51,-907 1774.51,-913 1768.51,-919 1762.51,-919 1762.51,-919 1653.49,-919 1653.49,-919 1647.49,-919 1641.49,-913 1641.49,-907 1641.49,-907 1641.49,-845 1641.49,-845 1641.49,-839 1647.49,-833 1653.49,-833"/>
<text text-anchor="middle" x="1708" y="-903.8" font-family="Times,serif" font-size="14.00">Element</text>
<polyline fill="none" stroke="black" points="1641.49,-897 1774.51,-897 "/>
<text text-anchor="start" x="1649.49" y="-881.8" font-family="Times,serif" font-size="14.00">id :integer</text>
<text text-anchor="start" x="1649.49" y="-867.8" font-family="Times,serif" font-size="14.00">name :string</text>
<text text-anchor="start" x="1649.49" y="-853.8" font-family="Times,serif" font-size="14.00">created_at :datetime</text>
<text text-anchor="start" x="1649.49" y="-839.8" font-family="Times,serif" font-size="14.00">updated_at :datetime</text>
</g>
<!-- Element&#45;&gt;Ownership -->
<g id="edge39" class="edge"><title>Element&#45;&gt;Ownership</title>
<path fill="none" stroke="#a431e4" d="M1703.53,-824.804C1696.21,-755.686 1678.42,-628.161 1640,-526 1638.78,-522.748 1637.46,-519.48 1636.07,-516.211"/>
<ellipse fill="none" stroke="#a431e4" cx="1703.96" cy="-828.959" rx="4" ry="4"/>
<polygon fill="#a431e4" stroke="#a431e4" points="1636.04,-516.139 1636.08,-505.173 1634.01,-511.572 1631.97,-507.006 1631.97,-507.006 1631.97,-507.006 1634.01,-511.572 1627.86,-508.838 1636.04,-516.139 1636.04,-516.139"/>
</g>
<!-- Orator&#45;&gt;OratorDisponibility -->
<g id="edge44" class="edge"><title>Orator&#45;&gt;OratorDisponibility</title>
<path fill="none" stroke="#337f65" d="M2232.02,-322.297C2237.84,-305.091 2243.78,-287.538 2249.15,-271.677"/>
<ellipse fill="none" stroke="#337f65" cx="2230.73" cy="-326.133" rx="4.00001" ry="4.00001"/>
<polygon fill="#337f65" stroke="#337f65" points="2249.21,-271.51 2256.67,-263.48 2250.81,-266.774 2252.41,-262.038 2252.41,-262.038 2252.41,-262.038 2250.81,-266.774 2248.15,-260.595 2249.21,-271.51 2249.21,-271.51"/>
</g>
<!-- OratorTheme -->
<g id="node22" class="node"><title>OratorTheme</title>
<path fill="none" stroke="black" d="M2113.49,-1C2113.49,-1 2222.51,-1 2222.51,-1 2228.51,-1 2234.51,-7 2234.51,-13 2234.51,-13 2234.51,-89 2234.51,-89 2234.51,-95 2228.51,-101 2222.51,-101 2222.51,-101 2113.49,-101 2113.49,-101 2107.49,-101 2101.49,-95 2101.49,-89 2101.49,-89 2101.49,-13 2101.49,-13 2101.49,-7 2107.49,-1 2113.49,-1"/>
<text text-anchor="middle" x="2168" y="-85.8" font-family="Times,serif" font-size="14.00">OratorTheme</text>
<polyline fill="none" stroke="black" points="2101.49,-79 2234.51,-79 "/>
<text text-anchor="start" x="2109.49" y="-63.8" font-family="Times,serif" font-size="14.00">id :integer</text>
<text text-anchor="start" x="2109.49" y="-49.8" font-family="Times,serif" font-size="14.00">orator_id :integer</text>
<text text-anchor="start" x="2109.49" y="-35.8" font-family="Times,serif" font-size="14.00">theme_id :integer</text>
<text text-anchor="start" x="2109.49" y="-21.8" font-family="Times,serif" font-size="14.00">created_at :datetime</text>
<text text-anchor="start" x="2109.49" y="-7.8" font-family="Times,serif" font-size="14.00">updated_at :datetime</text>
</g>
<!-- Orator&#45;&gt;OratorTheme -->
<g id="edge42" class="edge"><title>Orator&#45;&gt;OratorTheme</title>
<path fill="none" stroke="#69fe5a" d="M2189.05,-321.55C2187.59,-308.942 2186.19,-296.16 2185,-284 2179.25,-225.398 2174.54,-158.294 2171.54,-111.38"/>
<ellipse fill="none" stroke="#69fe5a" cx="2189.56" cy="-325.828" rx="4.00001" ry="4.00001"/>
<polygon fill="#69fe5a" stroke="#69fe5a" points="2171.54,-111.371 2175.4,-101.107 2171.23,-106.381 2170.91,-101.391 2170.91,-101.391 2170.91,-101.391 2171.23,-106.381 2166.42,-101.675 2171.54,-111.371 2171.54,-111.371"/>
</g>
<!-- Orator&#45;&gt;Theme -->
<g id="edge43" class="edge"><title>Orator&#45;&gt;Theme</title>
<path fill="none" stroke="#244d6a" d="M2127.46,-332.337C2108.53,-311.313 2088.57,-289.147 2071.06,-269.701"/>
<polygon fill="#244d6a" stroke="#244d6a" points="2127.68,-332.58 2131.03,-343.023 2131.03,-336.296 2134.37,-340.011 2134.37,-340.011 2134.37,-340.011 2131.03,-336.296 2137.72,-337 2127.68,-332.58 2127.68,-332.58"/>
<polygon fill="#244d6a" stroke="#244d6a" points="2070.92,-269.541 2067.57,-259.099 2067.57,-265.825 2064.22,-262.11 2064.22,-262.11 2064.22,-262.11 2067.57,-265.825 2060.88,-265.121 2070.92,-269.541 2070.92,-269.541"/>
</g>
<!-- Ownership&#45;&gt;AccessToken -->
<g id="edge49" class="edge"><title>Ownership&#45;&gt;AccessToken</title>
<path fill="none" stroke="#8f0083" d="M1625.01,-315.492C1630.05,-305.359 1635.11,-295.199 1639.97,-285.424"/>
<ellipse fill="none" stroke="#8f0083" cx="1623.1" cy="-319.328" rx="4.00002" ry="4.00002"/>
<polygon fill="#8f0083" stroke="#8f0083" points="1640.11,-285.137 1648.59,-278.188 1642.34,-280.661 1644.57,-276.184 1644.57,-276.184 1644.57,-276.184 1642.34,-280.661 1640.54,-274.179 1640.11,-285.137 1640.11,-285.137"/>
</g>
<!-- Ownership&#45;&gt;OwnershipAction -->
<g id="edge48" class="edge"><title>Ownership&#45;&gt;OwnershipAction</title>
<path fill="none" stroke="#06645e" d="M1484.23,-344.009C1470.85,-335.764 1456.89,-328.123 1443,-322 1310.76,-263.714 1143.57,-234.721 1046.61,-221.853"/>
<ellipse fill="none" stroke="#06645e" cx="1487.78" cy="-346.242" rx="4.00002" ry="4.00002"/>
<polygon fill="#06645e" stroke="#06645e" points="1046.51,-221.839 1037.17,-216.085 1041.55,-221.193 1036.59,-220.547 1036.59,-220.547 1036.59,-220.547 1041.55,-221.193 1036.01,-225.009 1046.51,-221.839 1046.51,-221.839"/>
</g>
<!-- OwnershipType -->
<g id="node25" class="node"><title>OwnershipType</title>
<path fill="none" stroke="black" d="M1615.49,-1255C1615.49,-1255 1724.51,-1255 1724.51,-1255 1730.51,-1255 1736.51,-1261 1736.51,-1267 1736.51,-1267 1736.51,-1329 1736.51,-1329 1736.51,-1335 1730.51,-1341 1724.51,-1341 1724.51,-1341 1615.49,-1341 1615.49,-1341 1609.49,-1341 1603.49,-1335 1603.49,-1329 1603.49,-1329 1603.49,-1267 1603.49,-1267 1603.49,-1261 1609.49,-1255 1615.49,-1255"/>
<text text-anchor="middle" x="1670" y="-1325.8" font-family="Times,serif" font-size="14.00">OwnershipType</text>
<polyline fill="none" stroke="black" points="1603.49,-1319 1736.51,-1319 "/>
<text text-anchor="start" x="1611.49" y="-1303.8" font-family="Times,serif" font-size="14.00">id :integer</text>
<text text-anchor="start" x="1611.49" y="-1289.8" font-family="Times,serif" font-size="14.00">name :string</text>
<text text-anchor="start" x="1611.49" y="-1275.8" font-family="Times,serif" font-size="14.00">created_at :datetime</text>
<text text-anchor="start" x="1611.49" y="-1261.8" font-family="Times,serif" font-size="14.00">updated_at :datetime</text>
</g>
<!-- OwnershipType&#45;&gt;Ownership -->
<g id="edge52" class="edge"><title>OwnershipType&#45;&gt;Ownership</title>
<path fill="none" stroke="#aeb1be" d="M1665.98,-1246.56C1653.16,-1086.57 1613.44,-596.864 1602,-526 1601.52,-522.997 1600.99,-519.955 1600.44,-516.889"/>
<ellipse fill="none" stroke="#aeb1be" cx="1666.32" cy="-1250.84" rx="4" ry="4"/>
<polygon fill="#aeb1be" stroke="#aeb1be" points="1600.44,-516.861 1603.01,-506.201 1599.51,-511.948 1598.58,-507.035 1598.58,-507.035 1598.58,-507.035 1599.51,-511.948 1594.16,-507.868 1600.44,-516.861 1600.44,-516.861"/>
</g>
<!-- Page -->
<g id="node26" class="node"><title>Page</title>
<path fill="none" stroke="black" d="M2602.49,-1361C2602.49,-1361 2711.51,-1361 2711.51,-1361 2717.51,-1361 2723.51,-1367 2723.51,-1373 2723.51,-1373 2723.51,-1449 2723.51,-1449 2723.51,-1455 2717.51,-1461 2711.51,-1461 2711.51,-1461 2602.49,-1461 2602.49,-1461 2596.49,-1461 2590.49,-1455 2590.49,-1449 2590.49,-1449 2590.49,-1373 2590.49,-1373 2590.49,-1367 2596.49,-1361 2602.49,-1361"/>
<text text-anchor="middle" x="2657" y="-1445.8" font-family="Times,serif" font-size="14.00">Page</text>
<polyline fill="none" stroke="black" points="2590.49,-1439 2723.51,-1439 "/>
<text text-anchor="start" x="2598.49" y="-1423.8" font-family="Times,serif" font-size="14.00">id :integer</text>
<text text-anchor="start" x="2598.49" y="-1409.8" font-family="Times,serif" font-size="14.00">name :string</text>
<text text-anchor="start" x="2598.49" y="-1395.8" font-family="Times,serif" font-size="14.00">content :text</text>
<text text-anchor="start" x="2598.49" y="-1381.8" font-family="Times,serif" font-size="14.00">created_at :datetime</text>
<text text-anchor="start" x="2598.49" y="-1367.8" font-family="Times,serif" font-size="14.00">updated_at :datetime</text>
</g>
<!-- Parent -->
<g id="node27" class="node"><title>Parent</title>
<path fill="none" stroke="black" d="M1162.49,-365C1162.49,-365 1271.51,-365 1271.51,-365 1277.51,-365 1283.51,-371 1283.51,-377 1283.51,-377 1283.51,-453 1283.51,-453 1283.51,-459 1277.51,-465 1271.51,-465 1271.51,-465 1162.49,-465 1162.49,-465 1156.49,-465 1150.49,-459 1150.49,-453 1150.49,-453 1150.49,-377 1150.49,-377 1150.49,-371 1156.49,-365 1162.49,-365"/>
<text text-anchor="middle" x="1217" y="-449.8" font-family="Times,serif" font-size="14.00">Parent</text>
<polyline fill="none" stroke="black" points="1150.49,-443 1283.51,-443 "/>
<text text-anchor="start" x="1158.49" y="-427.8" font-family="Times,serif" font-size="14.00">id :integer</text>
<text text-anchor="start" x="1158.49" y="-413.8" font-family="Times,serif" font-size="14.00">user_id :integer</text>
<text text-anchor="start" x="1158.49" y="-399.8" font-family="Times,serif" font-size="14.00">parent_id :integer</text>
<text text-anchor="start" x="1158.49" y="-385.8" font-family="Times,serif" font-size="14.00">created_at :datetime</text>
<text text-anchor="start" x="1158.49" y="-371.8" font-family="Times,serif" font-size="14.00">updated_at :datetime</text>
</g>
<!-- Permission -->
<g id="node28" class="node"><title>Permission</title>
<polygon fill="none" stroke="black" points="2741.89,-1389 2741.89,-1433 2820.11,-1433 2820.11,-1389 2741.89,-1389"/>
<text text-anchor="middle" x="2781" y="-1417.8" font-family="Times,serif" font-size="14.00">Permission</text>
<polyline fill="none" stroke="black" points="2741.89,-1411 2820.11,-1411 "/>
<text text-anchor="middle" x="2781" y="-1395.8" font-family="Times,serif" font-size="14.00"> </text>
</g>
<!-- Responsable&#45;&gt;CardResponsable -->
<g id="edge57" class="edge"><title>Responsable&#45;&gt;CardResponsable</title>
<path fill="none" stroke="#0b491d" d="M307.639,-621.779C295.354,-600.288 280.09,-576.939 263,-558 231.713,-523.327 190.858,-491.507 155.054,-466.817"/>
<ellipse fill="none" stroke="#0b491d" cx="309.73" cy="-625.5" rx="4.00002" ry="4.00002"/>
<polygon fill="#0b491d" stroke="#0b491d" points="154.81,-466.651 149.082,-457.3 150.679,-463.835 146.547,-461.018 146.547,-461.018 146.547,-461.018 150.679,-463.835 144.013,-464.737 154.81,-466.651 154.81,-466.651"/>
</g>
<!-- Status -->
<g id="node30" class="node"><title>Status</title>
<path fill="none" stroke="black" d="M664.495,-1361C664.495,-1361 773.505,-1361 773.505,-1361 779.505,-1361 785.505,-1367 785.505,-1373 785.505,-1373 785.505,-1449 785.505,-1449 785.505,-1455 779.505,-1461 773.505,-1461 773.505,-1461 664.495,-1461 664.495,-1461 658.495,-1461 652.495,-1455 652.495,-1449 652.495,-1449 652.495,-1373 652.495,-1373 652.495,-1367 658.495,-1361 664.495,-1361"/>
<text text-anchor="middle" x="719" y="-1445.8" font-family="Times,serif" font-size="14.00">Status</text>
<polyline fill="none" stroke="black" points="652.495,-1439 785.505,-1439 "/>
<text text-anchor="start" x="660.495" y="-1423.8" font-family="Times,serif" font-size="14.00">id :integer</text>
<text text-anchor="start" x="660.495" y="-1409.8" font-family="Times,serif" font-size="14.00">name :string</text>
<text text-anchor="start" x="660.495" y="-1395.8" font-family="Times,serif" font-size="14.00">description :text</text>
<text text-anchor="start" x="660.495" y="-1381.8" font-family="Times,serif" font-size="14.00">created_at :datetime</text>
<text text-anchor="start" x="660.495" y="-1367.8" font-family="Times,serif" font-size="14.00">updated_at :datetime</text>
</g>
<!-- Status&#45;&gt;Card -->
<g id="edge59" class="edge"><title>Status&#45;&gt;Card</title>
<path fill="none" stroke="#6d3c1f" d="M686.68,-1353.44C666.625,-1318.34 639.915,-1271.6 614.502,-1227.13"/>
<ellipse fill="none" stroke="#6d3c1f" cx="688.869" cy="-1357.27" rx="4.00002" ry="4.00002"/>
<polygon fill="#6d3c1f" stroke="#6d3c1f" points="614.4,-1226.95 613.346,-1216.03 611.919,-1222.61 609.439,-1218.27 609.439,-1218.27 609.439,-1218.27 611.919,-1222.61 605.532,-1220.5 614.4,-1226.95 614.4,-1226.95"/>
</g>
<!-- Subject -->
<g id="node31" class="node"><title>Subject</title>
<path fill="none" stroke="black" d="M1918.49,-358C1918.49,-358 2027.51,-358 2027.51,-358 2033.51,-358 2039.51,-364 2039.51,-370 2039.51,-370 2039.51,-460 2039.51,-460 2039.51,-466 2033.51,-472 2027.51,-472 2027.51,-472 1918.49,-472 1918.49,-472 1912.49,-472 1906.49,-466 1906.49,-460 1906.49,-460 1906.49,-370 1906.49,-370 1906.49,-364 1912.49,-358 1918.49,-358"/>
<text text-anchor="middle" x="1973" y="-456.8" font-family="Times,serif" font-size="14.00">Subject</text>
<polyline fill="none" stroke="black" points="1906.49,-450 2039.51,-450 "/>
<text text-anchor="start" x="1914.49" y="-434.8" font-family="Times,serif" font-size="14.00">id :integer</text>
<text text-anchor="start" x="1914.49" y="-420.8" font-family="Times,serif" font-size="14.00">name :string</text>
<text text-anchor="start" x="1914.49" y="-406.8" font-family="Times,serif" font-size="14.00">description :text</text>
<text text-anchor="start" x="1914.49" y="-392.8" font-family="Times,serif" font-size="14.00">created_at :datetime</text>
<text text-anchor="start" x="1914.49" y="-378.8" font-family="Times,serif" font-size="14.00">updated_at :datetime</text>
<text text-anchor="start" x="1914.49" y="-364.8" font-family="Times,serif" font-size="14.00">user_id :integer</text>
</g>
<!-- Subject&#45;&gt;Document -->
<g id="edge61" class="edge"><title>Subject&#45;&gt;Document</title>
<path fill="none" stroke="#738ad4" d="M1928.28,-351.145C1914.86,-332.284 1899.97,-311.355 1885.93,-291.611"/>
<ellipse fill="none" stroke="#738ad4" cx="1930.66" cy="-354.484" rx="4.00002" ry="4.00002"/>
<polygon fill="#738ad4" stroke="#738ad4" points="1885.76,-291.379 1883.63,-280.622 1882.86,-287.305 1879.97,-283.231 1879.97,-283.231 1879.97,-283.231 1882.86,-287.305 1876.3,-285.84 1885.76,-291.379 1885.76,-291.379"/>
</g>
<!-- SubjectTheme -->
<g id="node32" class="node"><title>SubjectTheme</title>
<path fill="none" stroke="black" d="M1962.49,-1C1962.49,-1 2071.51,-1 2071.51,-1 2077.51,-1 2083.51,-7 2083.51,-13 2083.51,-13 2083.51,-89 2083.51,-89 2083.51,-95 2077.51,-101 2071.51,-101 2071.51,-101 1962.49,-101 1962.49,-101 1956.49,-101 1950.49,-95 1950.49,-89 1950.49,-89 1950.49,-13 1950.49,-13 1950.49,-7 1956.49,-1 1962.49,-1"/>
<text text-anchor="middle" x="2017" y="-85.8" font-family="Times,serif" font-size="14.00">SubjectTheme</text>
<polyline fill="none" stroke="black" points="1950.49,-79 2083.51,-79 "/>
<text text-anchor="start" x="1958.49" y="-63.8" font-family="Times,serif" font-size="14.00">id :integer</text>
<text text-anchor="start" x="1958.49" y="-49.8" font-family="Times,serif" font-size="14.00">subject_id :integer</text>
<text text-anchor="start" x="1958.49" y="-35.8" font-family="Times,serif" font-size="14.00">theme_id :integer</text>
<text text-anchor="start" x="1958.49" y="-21.8" font-family="Times,serif" font-size="14.00">created_at :datetime</text>
<text text-anchor="start" x="1958.49" y="-7.8" font-family="Times,serif" font-size="14.00">updated_at :datetime</text>
</g>
<!-- Subject&#45;&gt;SubjectTheme -->
<g id="edge62" class="edge"><title>Subject&#45;&gt;SubjectTheme</title>
<path fill="none" stroke="#0837ac" d="M1950.65,-350.117C1934.38,-293.326 1919.15,-208.867 1944,-140 1947.86,-129.313 1953.64,-119.006 1960.29,-109.443"/>
<ellipse fill="none" stroke="#0837ac" cx="1951.82" cy="-354.105" rx="4.00001" ry="4.00001"/>
<polygon fill="#0837ac" stroke="#0837ac" points="1960.4,-109.292 1969.95,-103.91 1963.37,-105.266 1966.33,-101.241 1966.33,-101.241 1966.33,-101.241 1963.37,-105.266 1962.71,-98.5714 1960.4,-109.292 1960.4,-109.292"/>
</g>
<!-- Subject&#45;&gt;Theme -->
<g id="edge63" class="edge"><title>Subject&#45;&gt;Theme</title>
<path fill="none" stroke="#684564" d="M1988.51,-347.655C1994.23,-323.221 2000.65,-295.731 2006.21,-271.99"/>
<polygon fill="#684564" stroke="#684564" points="1988.43,-348.006 1981.77,-356.718 1987.29,-352.874 1986.15,-357.743 1986.15,-357.743 1986.15,-357.743 1987.29,-352.874 1990.54,-358.768 1988.43,-348.006 1988.43,-348.006"/>
<polygon fill="#684564" stroke="#684564" points="2006.25,-271.803 2012.91,-263.09 2007.39,-266.934 2008.53,-262.065 2008.53,-262.065 2008.53,-262.065 2007.39,-266.934 2004.15,-261.041 2006.25,-271.803 2006.25,-271.803"/>
</g>
<!-- Tag&#45;&gt;Tagging -->
<g id="edge66" class="edge"><title>Tag&#45;&gt;Tagging</title>
<path fill="none" stroke="#fcd433" d="M771.433,-628.397C752.64,-583.261 726.411,-520.265 707.402,-474.61"/>
<ellipse fill="none" stroke="#fcd433" cx="773.05" cy="-632.281" rx="4.00001" ry="4.00001"/>
<polygon fill="#fcd433" stroke="#fcd433" points="707.305,-474.375 707.615,-463.413 705.383,-469.759 703.461,-465.143 703.461,-465.143 703.461,-465.143 705.383,-469.759 699.307,-466.873 707.305,-474.375 707.305,-474.375"/>
</g>
<!-- Theme&#45;&gt;ArticleTheme -->
<g id="edge70" class="edge"><title>Theme&#45;&gt;ArticleTheme</title>
<path fill="none" stroke="#b45184" d="M1946.41,-161.264C1932.99,-153.451 1918.85,-145.991 1905,-140 1822.99,-104.514 1723.07,-80.0886 1655.64,-66.1324"/>
<ellipse fill="none" stroke="#b45184" cx="1949.91" cy="-163.338" rx="4.00002" ry="4.00002"/>
<polygon fill="#b45184" stroke="#b45184" points="1655.31,-66.0665 1646.42,-59.6568 1650.42,-65.0662 1645.52,-64.0658 1645.52,-64.0658 1645.52,-64.0658 1650.42,-65.0662 1644.62,-68.4749 1655.31,-66.0665 1655.31,-66.0665"/>
</g>
<!-- Theme&#45;&gt;OratorTheme -->
<g id="edge69" class="edge"><title>Theme&#45;&gt;OratorTheme</title>
<path fill="none" stroke="#fc8df4" d="M2071.17,-156.022C2085.45,-140.686 2100.98,-124.001 2115.34,-108.575"/>
<ellipse fill="none" stroke="#fc8df4" cx="2068.34" cy="-159.069" rx="4.00002" ry="4.00002"/>
<polygon fill="#fc8df4" stroke="#fc8df4" points="2115.47,-108.434 2125.58,-104.181 2118.88,-104.774 2122.28,-101.115 2122.28,-101.115 2122.28,-101.115 2118.88,-104.774 2118.99,-98.0485 2115.47,-108.434 2115.47,-108.434"/>
</g>
<!-- Theme&#45;&gt;SubjectTheme -->
<g id="edge71" class="edge"><title>Theme&#45;&gt;SubjectTheme</title>
<path fill="none" stroke="#054325" d="M2018.92,-153.684C2018.66,-139.967 2018.38,-125.291 2018.12,-111.479"/>
<ellipse fill="none" stroke="#054325" cx="2019" cy="-157.998" rx="4" ry="4"/>
<polygon fill="#054325" stroke="#054325" points="2018.12,-111.113 2022.43,-101.03 2018.02,-106.114 2017.93,-101.115 2017.93,-101.115 2017.93,-101.115 2018.02,-106.114 2013.43,-101.199 2018.12,-111.113 2018.12,-111.113"/>
</g>
<!-- User&#45;&gt;Activity -->
<g id="edge79" class="edge"><title>User&#45;&gt;Activity</title>
<path fill="none" stroke="#9d6a82" d="M1216.35,-562.566C1214.91,-561.018 1213.46,-559.495 1212,-558 1185.03,-530.387 1169.4,-534.131 1141,-508 1136.06,-503.452 1131.14,-498.59 1126.31,-493.565"/>
<ellipse fill="none" stroke="#9d6a82" cx="1219.17" cy="-565.687" rx="4.00002" ry="4.00002"/>
<polygon fill="#9d6a82" stroke="#9d6a82" points="1126.16,-493.402 1122.61,-483.028 1122.74,-489.753 1119.32,-486.104 1119.32,-486.104 1119.32,-486.104 1122.74,-489.753 1116.04,-489.181 1126.16,-493.402 1126.16,-493.402"/>
</g>
<!-- User&#45;&gt;Article -->
<g id="edge80" class="edge"><title>User&#45;&gt;Article</title>
<path fill="none" stroke="#c3a607" d="M1379.77,-657.539C1459.21,-628.56 1579.94,-577.442 1669,-508 1674.73,-503.534 1680.31,-498.565 1685.69,-493.315"/>
<ellipse fill="none" stroke="#c3a607" cx="1375.97" cy="-658.913" rx="4.00001" ry="4.00001"/>
<polygon fill="#c3a607" stroke="#c3a607" points="1685.87,-493.133 1696.09,-489.158 1689.37,-489.568 1692.88,-486.003 1692.88,-486.003 1692.88,-486.003 1689.37,-489.568 1689.67,-482.848 1685.87,-493.133 1685.87,-493.133"/>
</g>
<!-- User&#45;&gt;Card -->
<g id="edge84" class="edge"><title>User&#45;&gt;Card</title>
<path fill="none" stroke="#945303" d="M1215.64,-818.29C1030.03,-965.565 756.675,-1040.56 619.655,-1070.28"/>
<ellipse fill="none" stroke="#945303" cx="1218.81" cy="-815.747" rx="4.00002" ry="4.00002"/>
<polygon fill="#945303" stroke="#945303" points="619.296,-1070.36 608.576,-1068.05 614.407,-1071.4 609.517,-1072.45 609.517,-1072.45 609.517,-1072.45 614.407,-1071.4 610.459,-1076.85 619.296,-1070.36 619.296,-1070.36"/>
</g>
<!-- User&#45;&gt;CardUser -->
<g id="edge83" class="edge"><title>User&#45;&gt;CardUser</title>
<path fill="none" stroke="#a7fe3a" d="M1214.77,-559.689C1213.86,-559.112 1212.93,-558.549 1212,-558 1182.93,-540.901 638.791,-519.257 607,-508 589.517,-501.809 572.158,-492.779 555.999,-482.763"/>
<ellipse fill="none" stroke="#a7fe3a" cx="1218.34" cy="-562.126" rx="4.00002" ry="4.00002"/>
<polygon fill="#a7fe3a" stroke="#a7fe3a" points="555.579,-482.494 549.576,-473.317 551.366,-479.801 547.152,-477.109 547.152,-477.109 547.152,-477.109 551.366,-479.801 544.729,-480.901 555.579,-482.494 555.579,-482.494"/>
</g>
<!-- User&#45;&gt;Connection -->
<g id="edge81" class="edge"><title>User&#45;&gt;Connection</title>
<path fill="none" stroke="#c501fe" d="M1347.02,-551.205C1348.07,-547.443 1349.07,-543.703 1350,-540 1355.29,-519.065 1359.18,-495.723 1361.96,-474.988"/>
<ellipse fill="none" stroke="#c501fe" cx="1345.91" cy="-555.105" rx="4.00001" ry="4.00001"/>
<polygon fill="#c501fe" stroke="#c501fe" points="1361.97,-474.958 1367.71,-465.614 1362.61,-469.999 1363.24,-465.04 1363.24,-465.04 1363.24,-465.04 1362.61,-469.999 1358.78,-464.466 1361.97,-474.958 1361.97,-474.958"/>
</g>
<!-- User&#45;&gt;Orator -->
<g id="edge85" class="edge"><title>User&#45;&gt;Orator</title>
<path fill="none" stroke="#148305" d="M1380.36,-673.979C1521.74,-653.415 1815.79,-602.479 2048,-508 2075.16,-496.949 2103.14,-481.501 2127.63,-466.416"/>
<ellipse fill="none" stroke="#148305" cx="1376.06" cy="-674.601" rx="4.00001" ry="4.00001"/>
<ellipse fill="#148305" stroke="#148305" cx="2131.04" cy="-464.29" rx="4.00002" ry="4.00002"/>
</g>
<!-- User&#45;&gt;Ownership -->
<g id="edge77" class="edge"><title>User&#45;&gt;Ownership</title>
<path fill="none" stroke="#dffcf6" d="M1378.22,-606.687C1411.33,-574.77 1449.77,-537.707 1483.91,-504.789"/>
<ellipse fill="none" stroke="#dffcf6" cx="1375.01" cy="-609.783" rx="4.00002" ry="4.00002"/>
<polygon fill="#dffcf6" stroke="#dffcf6" points="1483.93,-504.772 1494.25,-501.071 1487.53,-501.302 1491.13,-497.831 1491.13,-497.831 1491.13,-497.831 1487.53,-501.302 1488,-494.592 1483.93,-504.772 1483.93,-504.772"/>
</g>
<!-- User&#45;&gt;Parent -->
<g id="edge73" class="edge"><title>User&#45;&gt;Parent</title>
<path fill="none" stroke="#9df815" d="M1240.29,-551.054C1239.14,-547.347 1238.04,-543.657 1237,-540 1231.1,-519.176 1226.77,-495.859 1223.68,-475.112"/>
<ellipse fill="none" stroke="#9df815" cx="1241.52" cy="-554.875" rx="4.00001" ry="4.00001"/>
<polygon fill="#9df815" stroke="#9df815" points="1223.67,-475.056 1226.71,-464.521 1222.96,-470.106 1222.26,-465.156 1222.26,-465.156 1222.26,-465.156 1222.96,-470.106 1217.8,-465.792 1223.67,-475.056 1223.67,-475.056"/>
</g>
<!-- User&#45;&gt;Parent -->
<g id="edge75" class="edge"><title>User&#45;&gt;Parent</title>
<path fill="none" stroke="#263c69" d="M1257.14,-550.955C1249.17,-524.163 1241.19,-497.347 1234.47,-474.76"/>
<ellipse fill="none" stroke="#263c69" cx="1258.32" cy="-554.936" rx="4.00001" ry="4.00001"/>
<polygon fill="#263c69" stroke="#263c69" points="1234.43,-474.609 1235.89,-463.741 1233,-469.816 1231.58,-465.024 1231.58,-465.024 1231.58,-465.024 1233,-469.816 1227.27,-466.306 1234.43,-474.609 1234.43,-474.609"/>
<text text-anchor="middle" x="1296.93" y="-528.8" font-family="Times,serif" font-size="14.00">inverse_parents</text>
</g>
<!-- User&#45;&gt;Subject -->
<g id="edge82" class="edge"><title>User&#45;&gt;Subject</title>
<path fill="none" stroke="#293244" d="M1379.86,-662.944C1484.8,-633.668 1670.02,-577.484 1820,-508 1846.05,-495.932 1873.28,-480.552 1897.42,-465.838"/>
<ellipse fill="none" stroke="#293244" cx="1375.99" cy="-664.02" rx="4.00001" ry="4.00001"/>
<polygon fill="#293244" stroke="#293244" points="1897.65,-465.696 1908.53,-464.287 1901.91,-463.075 1906.17,-460.455 1906.17,-460.455 1906.17,-460.455 1901.91,-463.075 1903.81,-456.622 1897.65,-465.696 1897.65,-465.696"/>
</g>
<!-- User&#45;&gt;User -->
<g id="edge74" class="edge"><title>User&#45;&gt;User</title>
<path fill="none" stroke="#a91826" d="M1381.78,-695.877C1386.92,-693.53 1390,-690.237 1390,-686 1390,-681.763 1386.92,-678.47 1381.78,-676.123"/>
<polygon fill="#a91826" stroke="#a91826" points="1381.74,-695.89 1370.86,-694.481 1376.95,-697.339 1372.17,-698.788 1372.17,-698.788 1372.17,-698.788 1376.95,-697.339 1373.47,-703.095 1381.74,-695.89 1381.74,-695.89"/>
<polygon fill="#a91826" stroke="#a91826" points="1381.74,-676.11 1373.47,-668.905 1376.95,-674.661 1372.17,-673.212 1372.17,-673.212 1372.17,-673.212 1376.95,-674.661 1370.86,-677.519 1381.74,-676.11 1381.74,-676.11"/>
</g>
<!-- User&#45;&gt;User -->
<g id="edge76" class="edge"><title>User&#45;&gt;User</title>
<path fill="none" stroke="#4b1124" d="M1382.22,-712.817C1397.4,-709.321 1408,-700.382 1408,-686 1408,-671.618 1397.4,-662.679 1382.22,-659.183"/>
<polygon fill="#4b1124" stroke="#4b1124" points="1382.12,-712.831 1371.57,-709.838 1377.17,-713.56 1372.23,-714.29 1372.23,-714.29 1372.23,-714.29 1377.17,-713.56 1372.88,-718.741 1382.12,-712.831 1382.12,-712.831"/>
<polygon fill="#4b1124" stroke="#4b1124" points="1382.12,-659.169 1372.88,-653.259 1377.17,-658.44 1372.23,-657.71 1372.23,-657.71 1372.23,-657.71 1377.17,-658.44 1371.57,-662.162 1382.12,-659.169 1382.12,-659.169"/>
<text text-anchor="middle" x="1446.1" y="-681.8" font-family="Times,serif" font-size="14.00">inverse_users</text>
</g>
<!-- User&#45;&gt;VerificatorComment -->
<g id="edge78" class="edge"><title>User&#45;&gt;VerificatorComment</title>
<path fill="none" stroke="#38e0e4" d="M1215.47,-560.457C1214.32,-559.617 1213.17,-558.797 1212,-558 1169.53,-528.984 1033.75,-527.127 986,-508 959.86,-497.529 933.034,-482.827 909.336,-468.243"/>
<ellipse fill="none" stroke="#38e0e4" cx="1218.74" cy="-563.017" rx="4.00002" ry="4.00002"/>
<polygon fill="#38e0e4" stroke="#38e0e4" points="909.236,-468.18 903.137,-459.066 904.995,-465.532 900.754,-462.883 900.754,-462.883 900.754,-462.883 904.995,-465.532 898.37,-466.7 909.236,-468.18 909.236,-468.18"/>
</g>
<!-- UserType -->
<g id="node37" class="node"><title>UserType</title>
<path fill="none" stroke="black" d="M1350.49,-1255C1350.49,-1255 1459.51,-1255 1459.51,-1255 1465.51,-1255 1471.51,-1261 1471.51,-1267 1471.51,-1267 1471.51,-1329 1471.51,-1329 1471.51,-1335 1465.51,-1341 1459.51,-1341 1459.51,-1341 1350.49,-1341 1350.49,-1341 1344.49,-1341 1338.49,-1335 1338.49,-1329 1338.49,-1329 1338.49,-1267 1338.49,-1267 1338.49,-1261 1344.49,-1255 1350.49,-1255"/>
<text text-anchor="middle" x="1405" y="-1325.8" font-family="Times,serif" font-size="14.00">UserType</text>
<polyline fill="none" stroke="black" points="1338.49,-1319 1471.51,-1319 "/>
<text text-anchor="start" x="1346.49" y="-1303.8" font-family="Times,serif" font-size="14.00">id :integer</text>
<text text-anchor="start" x="1346.49" y="-1289.8" font-family="Times,serif" font-size="14.00">name :string</text>
<text text-anchor="start" x="1346.49" y="-1275.8" font-family="Times,serif" font-size="14.00">created_at :datetime</text>
<text text-anchor="start" x="1346.49" y="-1261.8" font-family="Times,serif" font-size="14.00">updated_at :datetime</text>
</g>
<!-- UserType&#45;&gt;User -->
<g id="edge87" class="edge"><title>UserType&#45;&gt;User</title>
<path fill="none" stroke="#d171a0" d="M1396.49,-1247.02C1381.94,-1161.81 1351.21,-982.978 1324,-832 1323.48,-829.106 1322.95,-826.18 1322.41,-823.23"/>
<ellipse fill="none" stroke="#d171a0" cx="1397.17" cy="-1251.03" rx="4.00001" ry="4.00001"/>
<polygon fill="#d171a0" stroke="#d171a0" points="1322.37,-822.962 1325,-812.318 1321.47,-818.043 1320.58,-813.123 1320.58,-813.123 1320.58,-813.123 1321.47,-818.043 1316.15,-813.929 1322.37,-822.962 1322.37,-822.962"/>
</g>
<!-- ActiveRecord::Base -->
<g id="node39" class="node"><title>ActiveRecord::Base</title>
<ellipse fill="none" stroke="black" cx="1482" cy="-1537" rx="80.9821" ry="18"/>
<text text-anchor="middle" x="1482" y="-1532.8" font-family="Times,serif" font-size="14.00">ActiveRecord::Base</text>
</g>
<!-- ActiveRecord::Base&#45;&gt;AccessToken -->
<g id="edge1" class="edge"><title>ActiveRecord::Base&#45;&gt;AccessToken</title>
<path fill="none" stroke="black" d="M1563.55,-1536.6C1664.93,-1535.4 1829.36,-1526.42 1868,-1482 2146.88,-1161.39 1892.15,-949.218 1854,-526 1845.75,-434.454 1872.41,-397.509 1820,-322 1800.7,-294.194 1781.34,-303.953 1754,-284 1750.6,-281.517 1747.18,-278.908 1743.77,-276.214"/>
</g>
<!-- ActiveRecord::Base&#45;&gt;Action -->
<g id="edge4" class="edge"><title>ActiveRecord::Base&#45;&gt;Action</title>
<path fill="none" stroke="black" d="M1443.59,-1521.13C1404.65,-1505.34 1348.05,-1480.2 1333,-1462 1146.19,-1236.04 1134.22,-855.269 1135.75,-729.051"/>
</g>
<!-- ActiveRecord::Base&#45;&gt;Activity -->
<g id="edge5" class="edge"><title>ActiveRecord::Base&#45;&gt;Activity</title>
<path fill="none" stroke="black" d="M1449.95,-1520.38C1432.86,-1512.82 1411.25,-1504.44 1391,-1500 1319.91,-1484.41 1132.23,-1507.32 1064,-1482 1025.58,-1467.74 1004,-1452.98 1004,-1412 1004,-1412 1004,-1412 1004,-685 1004,-628.109 1007.98,-613.606 1020,-558 1025.13,-534.287 1032.42,-508.843 1039.6,-486.136"/>
</g>
<!-- ActiveRecord::Base&#45;&gt;Affiliation -->
<g id="edge8" class="edge"><title>ActiveRecord::Base&#45;&gt;Affiliation</title>
<path fill="none" stroke="black" d="M1450.43,-1520.27C1433.3,-1512.58 1411.49,-1504.11 1391,-1500 1289.45,-1479.62 555.715,-1519.07 459,-1482 443.207,-1475.95 428.407,-1465.35 415.889,-1454.21"/>
</g>
<!-- ActiveRecord::Base&#45;&gt;Article -->
<g id="edge11" class="edge"><title>ActiveRecord::Base&#45;&gt;Article</title>
<path fill="none" stroke="black" d="M1541.39,-1524.68C1630.89,-1505.89 1790,-1465.03 1790,-1412 1790,-1412 1790,-1412 1790,-685 1790,-616.816 1775.76,-540.225 1763.3,-486.26"/>
</g>
<!-- ActiveRecord::Base&#45;&gt;ArticleTheme -->
<g id="edge12" class="edge"><title>ActiveRecord::Base&#45;&gt;ArticleTheme</title>
<path fill="none" stroke="black" d="M1498.46,-1519.13C1518.59,-1496.65 1550,-1454.72 1550,-1412 1550,-1412 1550,-1412 1550,-875 1550,-733.708 1580.84,-688.215 1526,-558 1514.51,-530.719 1492.45,-535.695 1482,-508 1452.81,-430.657 1467.81,-403.441 1482,-322 1495.93,-242.017 1531.45,-154.426 1555.41,-101.342"/>
</g>
<!-- ActiveRecord::Base&#45;&gt;Canton -->
<g id="edge14" class="edge"><title>ActiveRecord::Base&#45;&gt;Canton</title>
<path fill="none" stroke="black" d="M1562.27,-1534.14C1769.37,-1528.94 2310.86,-1512.55 2386,-1482 2398.22,-1477.03 2409.9,-1469.43 2420.39,-1461.05"/>
</g>
<!-- ActiveRecord::Base&#45;&gt;Card -->
<g id="edge27" class="edge"><title>ActiveRecord::Base&#45;&gt;Card</title>
<path fill="none" stroke="black" d="M1450.41,-1520.35C1433.28,-1512.68 1411.47,-1504.2 1391,-1500 1342.03,-1489.95 525.965,-1498.68 492,-1462 461.692,-1429.27 475.93,-1325.11 495.826,-1235.01"/>
</g>
<!-- ActiveRecord::Base&#45;&gt;CardAffiliation -->
<g id="edge28" class="edge"><title>ActiveRecord::Base&#45;&gt;CardAffiliation</title>
<path fill="none" stroke="black" d="M1450.43,-1520.26C1433.3,-1512.57 1411.49,-1504.1 1391,-1500 1329.46,-1487.69 305.086,-1507.63 262,-1462 68.7328,-1257.32 140.271,-872.793 173.683,-736.468"/>
</g>
<!-- ActiveRecord::Base&#45;&gt;CardParent -->
<g id="edge29" class="edge"><title>ActiveRecord::Base&#45;&gt;CardParent</title>
<path fill="none" stroke="black" d="M1450.4,-1520.4C1433.26,-1512.74 1411.46,-1504.27 1391,-1500 1277.81,-1476.39 980.156,-1520.13 871,-1482 856.902,-1477.08 851.504,-1474.91 844,-1462 726.138,-1259.2 864.858,-1157.06 781,-938 751.223,-860.213 692.078,-783.728 650.6,-736.025"/>
</g>
<!-- ActiveRecord::Base&#45;&gt;CardResponsable -->
<g id="edge30" class="edge"><title>ActiveRecord::Base&#45;&gt;CardResponsable</title>
<path fill="none" stroke="black" d="M1450.43,-1520.23C1433.31,-1512.53 1411.5,-1504.06 1391,-1500 1253.22,-1472.72 263.297,-1515.94 127,-1482 81.4785,-1470.66 48,-1458.91 48,-1412 48,-1412 48,-1412 48,-685 48,-608.08 58.26,-519.316 65.6344,-465.451"/>
</g>
<!-- ActiveRecord::Base&#45;&gt;CardType -->
<g id="edge32" class="edge"><title>ActiveRecord::Base&#45;&gt;CardType</title>
<path fill="none" stroke="black" d="M1450.41,-1520.36C1433.27,-1512.7 1411.47,-1504.22 1391,-1500 1261.01,-1473.19 926.293,-1492.73 794,-1482 726.524,-1476.53 706.361,-1485.84 643,-1462 637.141,-1459.8 631.282,-1457.06 625.566,-1454.01"/>
</g>
<!-- ActiveRecord::Base&#45;&gt;CardUser -->
<g id="edge33" class="edge"><title>ActiveRecord::Base&#45;&gt;CardUser</title>
<path fill="none" stroke="black" d="M1450.43,-1520.26C1433.3,-1512.56 1411.49,-1504.09 1391,-1500 1278.1,-1477.46 469.852,-1489.98 355,-1482 234.333,-1473.62 92,-1532.96 92,-1412 92,-1412 92,-1412 92,-875 92,-733.858 28.0811,-672.217 111,-558 177.471,-466.44 312.168,-433.898 396.919,-422.345"/>
</g>
<!-- ActiveRecord::Base&#45;&gt;Connection -->
<g id="edge34" class="edge"><title>ActiveRecord::Base&#45;&gt;Connection</title>
<path fill="none" stroke="black" d="M1488.81,-1519.06C1497.66,-1495.47 1512,-1451.2 1512,-1412 1512,-1412 1512,-1412 1512,-685 1512,-627.927 1517.06,-609.754 1493,-558 1492.96,-557.91 1447.44,-506.208 1411.35,-465.224"/>
</g>
<!-- ActiveRecord::Base&#45;&gt;Disponibility -->
<g id="edge37" class="edge"><title>ActiveRecord::Base&#45;&gt;Disponibility</title>
<path fill="none" stroke="black" d="M1562.99,-1535.23C1733.29,-1532.81 2116.26,-1522.83 2158,-1482 2369.22,-1275.34 2285.03,-862.215 2250.79,-729.262"/>
</g>
<!-- ActiveRecord::Base&#45;&gt;Document -->
<g id="edge38" class="edge"><title>ActiveRecord::Base&#45;&gt;Document</title>
<path fill="none" stroke="black" d="M1548.92,-1526.78C1652.54,-1510.61 1840,-1472.92 1840,-1412 1840,-1412 1840,-1412 1840,-532 1840,-446.393 1836.36,-347.926 1833.47,-283.303"/>
</g>
<!-- ActiveRecord::Base&#45;&gt;Element -->
<g id="edge40" class="edge"><title>ActiveRecord::Base&#45;&gt;Element</title>
<path fill="none" stroke="black" d="M1521.73,-1521.21C1548.64,-1510.89 1584.82,-1496.44 1616,-1482 1690.89,-1447.31 1713.19,-1420.71 1738,-1342 1785.18,-1192.32 1743.63,-1002.46 1720.73,-919.274"/>
</g>
<!-- ActiveRecord::Base&#45;&gt;Location -->
<g id="edge41" class="edge"><title>ActiveRecord::Base&#45;&gt;Location</title>
<path fill="none" stroke="black" d="M1563.26,-1536.76C1800.29,-1538.11 2478.28,-1535.47 2542,-1462 2579.01,-1419.32 2563.86,-1261.88 2550.36,-1165.4"/>
</g>
<!-- ActiveRecord::Base&#45;&gt;Orator -->
<g id="edge45" class="edge"><title>ActiveRecord::Base&#45;&gt;Orator</title>
<path fill="none" stroke="black" d="M1562.09,-1534.06C1723.64,-1529.45 2076.92,-1515.61 2120,-1482 2145.93,-1461.77 2144,-1444.89 2144,-1412 2144,-1412 2144,-1412 2144,-685 2144,-622.105 2159.1,-552.699 2173.75,-500.143"/>
</g>
<!-- ActiveRecord::Base&#45;&gt;OratorDisponibility -->
<g id="edge46" class="edge"><title>ActiveRecord::Base&#45;&gt;OratorDisponibility</title>
<path fill="none" stroke="black" d="M1560.79,-1532.63C1716.29,-1525.53 2057.51,-1507.54 2172,-1482 2248.55,-1464.92 2334,-1490.43 2334,-1412 2334,-1412 2334,-1412 2334,-414 2334,-360.271 2312.71,-302.211 2294.5,-262.373"/>
</g>
<!-- ActiveRecord::Base&#45;&gt;OratorTheme -->
<g id="edge47" class="edge"><title>ActiveRecord::Base&#45;&gt;OratorTheme</title>
<path fill="none" stroke="black" d="M1559.51,-1531.65C1690.05,-1523.98 1961.92,-1506.5 2191,-1482 2276.76,-1472.83 2372,-1498.25 2372,-1412 2372,-1412 2372,-1412 2372,-211 2372,-178.334 2373.9,-165.107 2353,-140 2322.85,-103.779 2274.35,-81.4783 2234.58,-68.3914"/>
</g>
<!-- ActiveRecord::Base&#45;&gt;Ownership -->
<g id="edge50" class="edge"><title>ActiveRecord::Base&#45;&gt;Ownership</title>
<path fill="none" stroke="black" d="M1515.82,-1520.39C1532.35,-1511.26 1551.36,-1498.3 1564,-1482 1584.15,-1456.01 1588,-1444.89 1588,-1412 1588,-1412 1588,-1412 1588,-685 1588,-625.747 1585.06,-559.226 1582.09,-507.158"/>
</g>
<!-- ActiveRecord::Base&#45;&gt;OwnershipAction -->
<g id="edge51" class="edge"><title>ActiveRecord::Base&#45;&gt;OwnershipAction</title>
<path fill="none" stroke="black" d="M1449.95,-1520.37C1432.87,-1512.81 1411.25,-1504.43 1391,-1500 1245.34,-1468.16 1202.18,-1511.38 1056,-1482 1006.32,-1472.01 966,-1462.67 966,-1412 966,-1412 966,-1412 966,-875 966,-711.802 956.667,-671.176 954,-508 952.649,-425.344 951.935,-404.641 954,-322 954.49,-302.377 956.69,-280.899 959.145,-262.236"/>
</g>
<!-- ActiveRecord::Base&#45;&gt;OwnershipType -->
<g id="edge53" class="edge"><title>ActiveRecord::Base&#45;&gt;OwnershipType</title>
<path fill="none" stroke="black" d="M1533.27,-1522.9C1556.88,-1514.59 1583.67,-1501.61 1602,-1482 1638.69,-1442.76 1656.02,-1381.96 1663.89,-1341.34"/>
</g>
<!-- ActiveRecord::Base&#45;&gt;Page -->
<g id="edge54" class="edge"><title>ActiveRecord::Base&#45;&gt;Page</title>
<path fill="none" stroke="black" d="M1562.89,-1535.04C1800.07,-1531.8 2482.88,-1519.3 2576,-1482 2588.25,-1477.09 2599.94,-1469.52 2610.43,-1461.15"/>
</g>
<!-- ActiveRecord::Base&#45;&gt;Parent -->
<g id="edge55" class="edge"><title>ActiveRecord::Base&#45;&gt;Parent</title>
<path fill="none" stroke="black" d="M1446.52,-1520.72C1429.85,-1513.87 1409.6,-1505.99 1391,-1500 1238.75,-1450.92 1042,-1571.97 1042,-1412 1042,-1412 1042,-1412 1042,-875 1042,-733.858 988.915,-679.346 1061,-558 1082.41,-521.952 1109.46,-535.631 1141,-508 1155.34,-495.44 1169.18,-480.025 1181.04,-465.43"/>
</g>
<!-- ActiveRecord::Base&#45;&gt;Responsable -->
<g id="edge58" class="edge"><title>ActiveRecord::Base&#45;&gt;Responsable</title>
<path fill="none" stroke="black" d="M1450.43,-1520.27C1433.3,-1512.58 1411.49,-1504.11 1391,-1500 1331.65,-1488.09 341.897,-1507.53 302,-1462 208.841,-1355.69 293.298,-902.804 326.757,-743.057"/>
</g>
<!-- ActiveRecord::Base&#45;&gt;Status -->
<g id="edge60" class="edge"><title>ActiveRecord::Base&#45;&gt;Status</title>
<path fill="none" stroke="black" d="M1450.41,-1520.37C1433.27,-1512.7 1411.47,-1504.23 1391,-1500 1326.66,-1486.72 861.214,-1505.85 800,-1482 787.704,-1477.21 775.998,-1469.69 765.501,-1461.33"/>
</g>
<!-- ActiveRecord::Base&#45;&gt;Subject -->
<g id="edge64" class="edge"><title>ActiveRecord::Base&#45;&gt;Subject</title>
<path fill="none" stroke="black" d="M1563.27,-1535.4C1660.46,-1532.85 1814.97,-1522.33 1854,-1482 2129.65,-1197.11 2029.15,-648.916 1987.47,-472.307"/>
</g>
<!-- ActiveRecord::Base&#45;&gt;SubjectTheme -->
<g id="edge65" class="edge"><title>ActiveRecord::Base&#45;&gt;SubjectTheme</title>
<path fill="none" stroke="black" d="M1563.26,-1536.63C1732.25,-1535.74 2106,-1521.42 2106,-1412 2106,-1412 2106,-1412 2106,-532 2106,-444.855 2127.05,-221.037 2095,-140 2089.52,-126.141 2080.82,-113.031 2071.19,-101.369"/>
</g>
<!-- ActiveRecord::Base&#45;&gt;Tag -->
<g id="edge67" class="edge"><title>ActiveRecord::Base&#45;&gt;Tag</title>
<path fill="none" stroke="black" d="M1450.4,-1520.4C1433.26,-1512.75 1411.46,-1504.27 1391,-1500 1362.98,-1494.15 896.632,-1501.85 876,-1482 823.809,-1431.79 838.732,-903.619 828,-832 823.179,-799.829 815.11,-764.201 808.157,-736.311"/>
</g>
<!-- ActiveRecord::Base&#45;&gt;Tagging -->
<g id="edge68" class="edge"><title>ActiveRecord::Base&#45;&gt;Tagging</title>
<path fill="none" stroke="black" d="M1449.97,-1520.26C1432.9,-1512.67 1411.28,-1504.29 1391,-1500 1294.39,-1479.55 1038.77,-1518.46 947,-1482 909.713,-1467.19 890,-1452.12 890,-1412 890,-1412 890,-1412 890,-875 890,-804.415 910.26,-615.977 870,-558 838.907,-513.224 801.286,-541.136 758,-508 742.455,-496.1 728.119,-480.363 716.236,-465.275"/>
</g>
<!-- ActiveRecord::Base&#45;&gt;Theme -->
<g id="edge72" class="edge"><title>ActiveRecord::Base&#45;&gt;Theme</title>
<path fill="none" stroke="black" d="M1563.17,-1535.56C1724.06,-1532.48 2068,-1513.97 2068,-1412 2068,-1412 2068,-1412 2068,-414 2068,-361.081 2052.07,-302.416 2038.56,-262.194"/>
</g>
<!-- ActiveRecord::Base&#45;&gt;User -->
<g id="edge86" class="edge"><title>ActiveRecord::Base&#45;&gt;User</title>
<path fill="none" stroke="black" d="M1462.64,-1519.45C1428.22,-1488.65 1357.33,-1418.65 1329,-1342 1264.41,-1167.27 1269.32,-948.314 1281.26,-813.052"/>
</g>
<!-- ActiveRecord::Base&#45;&gt;UserType -->
<g id="edge88" class="edge"><title>ActiveRecord::Base&#45;&gt;UserType</title>
<path fill="none" stroke="black" d="M1476.46,-1518.96C1464.5,-1482.13 1435.93,-1394.19 1418.75,-1341.33"/>
</g>
<!-- ActiveRecord::Base&#45;&gt;VerificatorComment -->
<g id="edge89" class="edge"><title>ActiveRecord::Base&#45;&gt;VerificatorComment</title>
<path fill="none" stroke="black" d="M1449.97,-1520.27C1432.9,-1512.67 1411.28,-1504.3 1391,-1500 1343.24,-1489.88 991.136,-1511.18 952,-1482 925.634,-1462.34 928,-1444.89 928,-1412 928,-1412 928,-1412 928,-875 928,-733.708 941.249,-694.294 904,-558 895.885,-528.305 881.472,-497.414 867.825,-472.056"/>
</g>
<!-- Object -->
<g id="node40" class="node"><title>Object</title>
<ellipse fill="none" stroke="black" cx="2781" cy="-1537" rx="33.5181" ry="18"/>
<text text-anchor="middle" x="2781" y="-1532.8" font-family="Times,serif" font-size="14.00">Object</text>
</g>
<!-- Object&#45;&gt;Permission -->
<g id="edge56" class="edge"><title>Object&#45;&gt;Permission</title>
<path fill="none" stroke="black" d="M2781,-1518.76C2781,-1496.4 2781,-1457.41 2781,-1433.25"/>
</g>
</g>
</svg>
