<?xml version="1.0" encoding="UTF-8" standalone="no"?>
<!DOCTYPE svg PUBLIC "-//W3C//DTD SVG 1.1//EN"
 "http://www.w3.org/Graphics/SVG/1.1/DTD/svg11.dtd">
<!-- Generated by graphviz version 2.36.0 (20140111.2315)
 -->
<!-- Title: models_diagram Pages: 1 -->
<svg width="2159pt" height="594pt"
 viewBox="0.00 0.00 2159.00 594.00" xmlns="http://www.w3.org/2000/svg" xmlns:xlink="http://www.w3.org/1999/xlink">
<g id="graph0" class="graph" transform="scale(1 1) rotate(0) translate(4 590)">
<title>models_diagram</title>
<polygon fill="white" stroke="none" points="-4,4 -4,-590 2155,-590 2155,4 -4,4"/>
<!-- _diagram_info -->
<g id="node1" class="node"><title>_diagram_info</title>
<text text-anchor="start" x="862.312" y="-571.1" font-family="Times,serif" font-size="13.00">Models diagram</text>
<text text-anchor="start" x="862.312" y="-558.1" font-family="Times,serif" font-size="13.00">Date: May 15 2014 &#45; 19:00</text>
<text text-anchor="start" x="862.312" y="-545.1" font-family="Times,serif" font-size="13.00">Migration version: 20140418124107</text>
<text text-anchor="start" x="862.312" y="-532.1" font-family="Times,serif" font-size="13.00">Generated by RailRoady 1.1.1</text>
<text text-anchor="start" x="862.312" y="-519.1" font-family="Times,serif" font-size="13.00">http://railroady.prestonlee.com</text>
</g>
<!-- AccessToken -->
<g id="node2" class="node"><title>AccessToken</title>
<ellipse fill="none" stroke="black" cx="267" cy="-92" rx="57.19" ry="18"/>
<text text-anchor="middle" x="267" y="-87.8" font-family="Times,serif" font-size="14.00">AccessToken</text>
</g>
<!-- Action -->
<g id="node3" class="node"><title>Action</title>
<ellipse fill="none" stroke="black" cx="210" cy="-240" rx="34.2643" ry="18"/>
<text text-anchor="middle" x="210" y="-235.8" font-family="Times,serif" font-size="14.00">Action</text>
</g>
<!-- Ownership -->
<g id="node24" class="node"><title>Ownership</title>
<ellipse fill="none" stroke="black" cx="148" cy="-166" rx="48.3713" ry="18"/>
<text text-anchor="middle" x="148" y="-161.8" font-family="Times,serif" font-size="14.00">Ownership</text>
</g>
<!-- Action&#45;&gt;Ownership -->
<g id="edge3" class="edge"><title>Action&#45;&gt;Ownership</title>
<path fill="none" stroke="#19d819" d="M189.935,-215.699C183.115,-207.779 175.485,-198.918 168.621,-190.947"/>
<polygon fill="#19d819" stroke="#19d819" points="190.022,-215.799 193.137,-226.313 193.284,-219.588 196.547,-223.377 196.547,-223.377 196.547,-223.377 193.284,-219.588 199.957,-220.441 190.022,-215.799 190.022,-215.799"/>
<polygon fill="#19d819" stroke="#19d819" points="168.598,-190.92 165.482,-180.406 165.335,-187.131 162.072,-183.342 162.072,-183.342 162.072,-183.342 165.335,-187.131 158.662,-186.279 168.598,-190.92 168.598,-190.92"/>
</g>
<!-- OwnershipAction -->
<g id="node25" class="node"><title>OwnershipAction</title>
<ellipse fill="none" stroke="black" cx="119" cy="-92" rx="72.4741" ry="18"/>
<text text-anchor="middle" x="119" y="-87.8" font-family="Times,serif" font-size="14.00">OwnershipAction</text>
</g>
<!-- Action&#45;&gt;OwnershipAction -->
<g id="edge2" class="edge"><title>Action&#45;&gt;OwnershipAction</title>
<path fill="none" stroke="#56fc79" d="M214.497,-213.875C216.634,-194.55 216.603,-167.879 205,-148 196.038,-132.646 180.895,-120.88 165.79,-112.248"/>
<ellipse fill="none" stroke="#56fc79" cx="213.959" cy="-217.96" rx="4.00001" ry="4.00001"/>
<polygon fill="#56fc79" stroke="#56fc79" points="165.769,-112.236 159.069,-103.555 161.359,-109.88 156.949,-107.524 156.949,-107.524 156.949,-107.524 161.359,-109.88 154.828,-111.493 165.769,-112.236 165.769,-112.236"/>
</g>
<!-- Activity -->
<g id="node4" class="node"><title>Activity</title>
<ellipse fill="none" stroke="black" cx="816" cy="-166" rx="39.135" ry="18"/>
<text text-anchor="middle" x="816" y="-161.8" font-family="Times,serif" font-size="14.00">Activity</text>
</g>
<!-- Affiliation -->
<g id="node5" class="node"><title>Affiliation</title>
<ellipse fill="none" stroke="black" cx="660" cy="-456" rx="46.4303" ry="18"/>
<text text-anchor="middle" x="660" y="-451.8" font-family="Times,serif" font-size="14.00">Affiliation</text>
</g>
<!-- Card -->
<g id="node9" class="node"><title>Card</title>
<ellipse fill="none" stroke="black" cx="835" cy="-348" rx="26.9483" ry="18"/>
<text text-anchor="middle" x="835" y="-343.8" font-family="Times,serif" font-size="14.00">Card</text>
</g>
<!-- Affiliation&#45;&gt;Card -->
<g id="edge7" class="edge"><title>Affiliation&#45;&gt;Card</title>
<path fill="none" stroke="#870d7b" d="M692.681,-435.205C725.6,-415.265 775.854,-384.826 806.999,-365.961"/>
<polygon fill="#870d7b" stroke="#870d7b" points="692.519,-435.303 681.635,-436.634 688.243,-437.893 683.966,-440.483 683.966,-440.483 683.966,-440.483 688.243,-437.893 686.297,-444.332 692.519,-435.303 692.519,-435.303"/>
<polygon fill="#870d7b" stroke="#870d7b" points="807.075,-365.915 817.96,-364.583 811.352,-363.324 815.628,-360.734 815.628,-360.734 815.628,-360.734 811.352,-363.324 813.297,-356.885 807.075,-365.915 807.075,-365.915"/>
</g>
<!-- CardAffiliation -->
<g id="node10" class="node"><title>CardAffiliation</title>
<ellipse fill="none" stroke="black" cx="567" cy="-240" rx="64.2154" ry="18"/>
<text text-anchor="middle" x="567" y="-235.8" font-family="Times,serif" font-size="14.00">CardAffiliation</text>
</g>
<!-- Affiliation&#45;&gt;CardAffiliation -->
<g id="edge6" class="edge"><title>Affiliation&#45;&gt;CardAffiliation</title>
<path fill="none" stroke="#6820ec" d="M649.513,-430.869C631.923,-390.393 596.617,-309.15 578.421,-267.28"/>
<ellipse fill="none" stroke="#6820ec" cx="651.108" cy="-434.539" rx="4.00002" ry="4.00002"/>
<polygon fill="#6820ec" stroke="#6820ec" points="578.378,-267.182 578.519,-256.217 576.385,-262.596 574.392,-258.01 574.392,-258.01 574.392,-258.01 576.385,-262.596 570.265,-259.804 578.378,-267.182 578.378,-267.182"/>
</g>
<!-- Article -->
<g id="node6" class="node"><title>Article</title>
<ellipse fill="none" stroke="black" cx="1190" cy="-166" rx="34.4885" ry="18"/>
<text text-anchor="middle" x="1190" y="-161.8" font-family="Times,serif" font-size="14.00">Article</text>
</g>
<!-- ArticleTheme -->
<g id="node7" class="node"><title>ArticleTheme</title>
<ellipse fill="none" stroke="black" cx="598" cy="-92" rx="59.3187" ry="18"/>
<text text-anchor="middle" x="598" y="-87.8" font-family="Times,serif" font-size="14.00">ArticleTheme</text>
</g>
<!-- Article&#45;&gt;ArticleTheme -->
<g id="edge9" class="edge"><title>Article&#45;&gt;ArticleTheme</title>
<path fill="none" stroke="#1d7e1a" d="M1156.46,-151.248C1152.64,-150.005 1148.77,-148.884 1145,-148 976.398,-108.397 771.987,-97.3034 667.24,-94.2007"/>
<ellipse fill="none" stroke="#1d7e1a" cx="1160.41" cy="-152.619" rx="4.00001" ry="4.00001"/>
<polygon fill="#1d7e1a" stroke="#1d7e1a" points="667.109,-94.1971 657.239,-89.4183 662.111,-94.0568 657.113,-93.9166 657.113,-93.9166 657.113,-93.9166 662.111,-94.0568 656.987,-98.4148 667.109,-94.1971 667.109,-94.1971"/>
</g>
<!-- Theme -->
<g id="node35" class="node"><title>Theme</title>
<ellipse fill="none" stroke="black" cx="1454" cy="-92" rx="34.4885" ry="18"/>
<text text-anchor="middle" x="1454" y="-87.8" font-family="Times,serif" font-size="14.00">Theme</text>
</g>
<!-- Article&#45;&gt;Theme -->
<g id="edge10" class="edge"><title>Article&#45;&gt;Theme</title>
<path fill="none" stroke="#358ee1" d="M1225.14,-150.566C1227.78,-149.647 1230.42,-148.78 1233,-148 1310.01,-124.685 1332.9,-133.014 1410,-110 1412.63,-109.215 1415.33,-108.343 1418.03,-107.422"/>
<polygon fill="#358ee1" stroke="#358ee1" points="1225.06,-150.596 1214.12,-149.827 1220.37,-152.323 1215.68,-154.05 1215.68,-154.05 1215.68,-154.05 1220.37,-152.323 1217.23,-158.273 1225.06,-150.596 1225.06,-150.596"/>
<polygon fill="#358ee1" stroke="#358ee1" points="1418.3,-107.323 1429.24,-108.165 1423.01,-105.627 1427.71,-103.931 1427.71,-103.931 1427.71,-103.931 1423.01,-105.627 1426.18,-99.6982 1418.3,-107.323 1418.3,-107.323"/>
</g>
<!-- Canton -->
<g id="node8" class="node"><title>Canton</title>
<ellipse fill="none" stroke="black" cx="1909" cy="-456" rx="35.4783" ry="18"/>
<text text-anchor="middle" x="1909" y="-451.8" font-family="Times,serif" font-size="14.00">Canton</text>
</g>
<!-- Location -->
<g id="node20" class="node"><title>Location</title>
<ellipse fill="none" stroke="black" cx="1944" cy="-348" rx="41.3072" ry="18"/>
<text text-anchor="middle" x="1944" y="-343.8" font-family="Times,serif" font-size="14.00">Location</text>
</g>
<!-- Canton&#45;&gt;Location -->
<g id="edge13" class="edge"><title>Canton&#45;&gt;Location</title>
<path fill="none" stroke="#3cd67c" d="M1917.17,-430.271C1922.57,-413.914 1929.64,-392.476 1935.18,-375.725"/>
<ellipse fill="none" stroke="#3cd67c" cx="1915.88" cy="-434.171" rx="4.00001" ry="4.00001"/>
<polygon fill="#3cd67c" stroke="#3cd67c" points="1935.26,-375.484 1942.66,-367.399 1936.82,-370.736 1938.39,-365.988 1938.39,-365.988 1938.39,-365.988 1936.82,-370.736 1934.12,-364.578 1935.26,-375.484 1935.26,-375.484"/>
</g>
<!-- Card&#45;&gt;Card -->
<g id="edge25" class="edge"><title>Card&#45;&gt;Card</title>
<path fill="none" stroke="#4af4da" d="M871.35,-352.546C876.525,-351.813 880,-350.297 880,-348 880,-345.703 876.525,-344.187 871.35,-343.454"/>
<polygon fill="#4af4da" stroke="#4af4da" points="871.334,-352.547 861.123,-348.548 866.34,-352.795 861.347,-353.043 861.347,-353.043 861.347,-353.043 866.34,-352.795 861.57,-357.537 871.334,-352.547 871.334,-352.547"/>
<polygon fill="#4af4da" stroke="#4af4da" points="871.334,-343.453 861.57,-338.463 866.34,-343.205 861.347,-342.957 861.347,-342.957 861.347,-342.957 866.34,-343.205 861.123,-347.452 871.334,-343.453 871.334,-343.453"/>
</g>
<!-- Card&#45;&gt;Card -->
<g id="edge26" class="edge"><title>Card&#45;&gt;Card</title>
<path fill="none" stroke="#8d7ad4" d="M869.225,-357.959C884.642,-358.933 898,-355.614 898,-348 898,-340.386 884.642,-337.067 869.225,-338.041"/>
<polygon fill="#8d7ad4" stroke="#8d7ad4" points="868.844,-357.913 859.462,-352.234 863.88,-357.307 858.917,-356.701 858.917,-356.701 858.917,-356.701 863.88,-357.307 858.372,-361.168 868.844,-357.913 868.844,-357.913"/>
<polygon fill="#8d7ad4" stroke="#8d7ad4" points="868.844,-338.087 858.372,-334.832 863.88,-338.693 858.917,-339.299 858.917,-339.299 858.917,-339.299 863.88,-338.693 859.462,-343.766 868.844,-338.087 868.844,-338.087"/>
<text text-anchor="middle" x="918.214" y="-343.8" font-family="Times,serif" font-size="14.00">parents</text>
</g>
<!-- Card&#45;&gt;CardAffiliation -->
<g id="edge19" class="edge"><title>Card&#45;&gt;CardAffiliation</title>
<path fill="none" stroke="#f4f736" d="M799.549,-347.7C759.654,-346.917 694.256,-340.772 647,-312 629.687,-301.459 633.816,-289.833 619,-276 613.869,-271.21 608.023,-266.612 602.148,-262.413"/>
<ellipse fill="none" stroke="#f4f736" cx="803.66" cy="-347.747" rx="4" ry="4"/>
<polygon fill="#f4f736" stroke="#f4f736" points="601.855,-262.213 596.137,-252.856 597.727,-259.392 593.598,-256.571 593.598,-256.571 593.598,-256.571 597.727,-259.392 591.059,-260.286 601.855,-262.213 601.855,-262.213"/>
</g>
<!-- CardParent -->
<g id="node11" class="node"><title>CardParent</title>
<ellipse fill="none" stroke="black" cx="1145" cy="-240" rx="49.3354" ry="18"/>
<text text-anchor="middle" x="1145" y="-235.8" font-family="Times,serif" font-size="14.00">CardParent</text>
</g>
<!-- Card&#45;&gt;CardParent -->
<g id="edge24" class="edge"><title>Card&#45;&gt;CardParent</title>
<path fill="none" stroke="#9a2f07" d="M870.495,-344.923C929.605,-340.975 1045.25,-331.034 1081,-312 1100.9,-301.405 1117.7,-282.062 1129.09,-266.239"/>
<ellipse fill="none" stroke="#9a2f07" cx="866.192" cy="-345.202" rx="4" ry="4"/>
<polygon fill="#9a2f07" stroke="#9a2f07" points="1129.17,-266.122 1138.55,-260.442 1132.01,-262.005 1134.84,-257.888 1134.84,-257.888 1134.84,-257.888 1132.01,-262.005 1131.14,-255.334 1129.17,-266.122 1129.17,-266.122"/>
</g>
<!-- CardResponsable -->
<g id="node12" class="node"><title>CardResponsable</title>
<ellipse fill="none" stroke="black" cx="945" cy="-166" rx="71.4972" ry="18"/>
<text text-anchor="middle" x="945" y="-161.8" font-family="Times,serif" font-size="14.00">CardResponsable</text>
</g>
<!-- Card&#45;&gt;CardResponsable -->
<g id="edge15" class="edge"><title>Card&#45;&gt;CardResponsable</title>
<path fill="none" stroke="#2a27b6" d="M826.302,-322.307C818.488,-295.449 810.901,-252.306 830,-222 842.074,-202.841 862.87,-190.211 883.486,-181.951"/>
<ellipse fill="none" stroke="#2a27b6" cx="827.525" cy="-326.265" rx="4.00001" ry="4.00001"/>
<polygon fill="#2a27b6" stroke="#2a27b6" points="883.537,-181.932 894.478,-182.675 888.225,-180.194 892.914,-178.456 892.914,-178.456 892.914,-178.456 888.225,-180.194 891.349,-174.237 883.537,-181.932 883.537,-181.932"/>
</g>
<!-- CardUser -->
<g id="node14" class="node"><title>CardUser</title>
<ellipse fill="none" stroke="black" cx="559" cy="-166" rx="43.4929" ry="18"/>
<text text-anchor="middle" x="559" y="-161.8" font-family="Times,serif" font-size="14.00">CardUser</text>
</g>
<!-- Card&#45;&gt;CardUser -->
<g id="edge23" class="edge"><title>Card&#45;&gt;CardUser</title>
<path fill="none" stroke="#fbf301" d="M807.198,-332.249C797.051,-326.42 785.694,-319.359 776,-312 719.665,-269.236 721.413,-238.779 661,-202 655.576,-198.698 627.254,-189.066 601.828,-180.741"/>
<ellipse fill="none" stroke="#fbf301" cx="810.845" cy="-334.3" rx="4.00002" ry="4.00002"/>
<polygon fill="#fbf301" stroke="#fbf301" points="601.786,-180.727 593.672,-173.351 597.032,-179.179 592.278,-177.63 592.278,-177.63 592.278,-177.63 597.032,-179.179 590.884,-181.908 601.786,-180.727 601.786,-180.727"/>
</g>
<!-- CardVerification -->
<g id="node15" class="node"><title>CardVerification</title>
<ellipse fill="none" stroke="black" cx="690" cy="-166" rx="68.3347" ry="18"/>
<text text-anchor="middle" x="690" y="-161.8" font-family="Times,serif" font-size="14.00">CardVerification</text>
</g>
<!-- Card&#45;&gt;CardVerification -->
<g id="edge17" class="edge"><title>Card&#45;&gt;CardVerification</title>
<path fill="none" stroke="#b64a1c" d="M817.528,-325.31C790.448,-291.694 738.499,-227.206 709.973,-191.794"/>
<ellipse fill="none" stroke="#b64a1c" cx="820.128" cy="-328.538" rx="4.00002" ry="4.00002"/>
<polygon fill="#b64a1c" stroke="#b64a1c" points="709.862,-191.656 707.093,-181.045 706.725,-187.762 703.588,-183.868 703.588,-183.868 703.588,-183.868 706.725,-187.762 700.084,-186.691 709.862,-191.656 709.862,-191.656"/>
</g>
<!-- Responsable -->
<g id="node30" class="node"><title>Responsable</title>
<ellipse fill="none" stroke="black" cx="894" cy="-240" rx="54.2137" ry="18"/>
<text text-anchor="middle" x="894" y="-235.8" font-family="Times,serif" font-size="14.00">Responsable</text>
</g>
<!-- Card&#45;&gt;Responsable -->
<g id="edge16" class="edge"><title>Card&#45;&gt;Responsable</title>
<path fill="none" stroke="#be20cb" d="M848.84,-322.136C858.117,-305.468 870.305,-283.571 879.68,-266.727"/>
<polygon fill="#be20cb" stroke="#be20cb" points="848.824,-322.163 840.029,-328.712 846.393,-326.532 843.961,-330.901 843.961,-330.901 843.961,-330.901 846.393,-326.532 847.893,-333.089 848.824,-322.163 848.824,-322.163"/>
<polygon fill="#be20cb" stroke="#be20cb" points="879.7,-266.691 888.496,-260.142 882.132,-262.322 884.564,-257.954 884.564,-257.954 884.564,-257.954 882.132,-262.322 880.632,-255.765 879.7,-266.691 879.7,-266.691"/>
</g>
<!-- Tag -->
<g id="node33" class="node"><title>Tag</title>
<ellipse fill="none" stroke="black" cx="1316" cy="-240" rx="27" ry="18"/>
<text text-anchor="middle" x="1316" y="-235.8" font-family="Times,serif" font-size="14.00">Tag</text>
</g>
<!-- Card&#45;&gt;Tag -->
<g id="edge21" class="edge"><title>Card&#45;&gt;Tag</title>
<path fill="none" stroke="#39fddc" d="M872.249,-344.941C926.492,-341.364 1030.11,-332.338 1116,-312 1177.05,-297.543 1245.37,-270.904 1284.28,-254.687"/>
<polygon fill="#39fddc" stroke="#39fddc" points="872.059,-344.953 861.794,-341.095 867.069,-345.269 862.079,-345.586 862.079,-345.586 862.079,-345.586 867.069,-345.269 862.363,-350.077 872.059,-344.953 872.059,-344.953"/>
<polygon fill="#39fddc" stroke="#39fddc" points="1284.77,-254.484 1295.73,-254.753 1289.37,-252.544 1293.98,-250.605 1293.98,-250.605 1293.98,-250.605 1289.37,-252.544 1292.24,-246.457 1284.77,-254.484 1284.77,-254.484"/>
</g>
<!-- Tagging -->
<g id="node34" class="node"><title>Tagging</title>
<ellipse fill="none" stroke="black" cx="1456" cy="-166" rx="38.4411" ry="18"/>
<text text-anchor="middle" x="1456" y="-161.8" font-family="Times,serif" font-size="14.00">Tagging</text>
</g>
<!-- Card&#45;&gt;Tagging -->
<g id="edge20" class="edge"><title>Card&#45;&gt;Tagging</title>
<path fill="none" stroke="#892e98" d="M867.267,-337.215C887.769,-330.709 914.733,-321.617 938,-312 988.332,-291.196 1003.28,-289.082 1048,-258 1067.1,-244.723 1064.93,-231.869 1086,-222 1102.26,-214.382 1389.5,-188.022 1407,-184 1410.44,-183.21 1413.97,-182.263 1417.49,-181.226"/>
<ellipse fill="none" stroke="#892e98" cx="863.284" cy="-338.465" rx="4.00001" ry="4.00001"/>
<polygon fill="#892e98" stroke="#892e98" points="1417.75,-181.144 1428.64,-182.411 1422.52,-179.633 1427.28,-178.121 1427.28,-178.121 1427.28,-178.121 1422.52,-179.633 1425.92,-173.832 1417.75,-181.144 1417.75,-181.144"/>
</g>
<!-- User -->
<g id="node36" class="node"><title>User</title>
<ellipse fill="none" stroke="black" cx="994" cy="-240" rx="27" ry="18"/>
<text text-anchor="middle" x="994" y="-235.8" font-family="Times,serif" font-size="14.00">User</text>
</g>
<!-- Card&#45;&gt;User -->
<g id="edge18" class="edge"><title>Card&#45;&gt;User</title>
<path fill="none" stroke="#68e734" d="M859.259,-327.23C887.634,-307.032 934.245,-276.041 964.628,-257.231"/>
<polygon fill="#68e734" stroke="#68e734" points="859.168,-327.296 848.424,-329.492 855.112,-330.219 851.055,-333.142 851.055,-333.142 851.055,-333.142 855.112,-330.219 853.686,-336.793 859.168,-327.296 859.168,-327.296"/>
<polygon fill="#68e734" stroke="#68e734" points="964.966,-257.025 975.845,-255.65 969.233,-254.418 973.499,-251.81 973.499,-251.81 973.499,-251.81 969.233,-254.418 971.152,-247.971 964.966,-257.025 964.966,-257.025"/>
</g>
<!-- VerificatorComment -->
<g id="node38" class="node"><title>VerificatorComment</title>
<ellipse fill="none" stroke="black" cx="415" cy="-166" rx="81.9719" ry="18"/>
<text text-anchor="middle" x="415" y="-161.8" font-family="Times,serif" font-size="14.00">VerificatorComment</text>
</g>
<!-- Card&#45;&gt;VerificatorComment -->
<g id="edge22" class="edge"><title>Card&#45;&gt;VerificatorComment</title>
<path fill="none" stroke="#8354a9" d="M801.774,-339.366C781.268,-333.738 754.968,-324.816 734,-312 684.649,-281.836 690.711,-249.816 640,-222 613.641,-207.542 541.317,-191.21 485.713,-180.126"/>
<ellipse fill="none" stroke="#8354a9" cx="805.74" cy="-340.413" rx="4.00001" ry="4.00001"/>
<polygon fill="#8354a9" stroke="#8354a9" points="485.703,-180.124 476.763,-173.773 480.798,-179.156 475.892,-178.188 475.892,-178.188 475.892,-178.188 480.798,-179.156 475.021,-182.602 485.703,-180.124 485.703,-180.124"/>
</g>
<!-- CardType -->
<g id="node13" class="node"><title>CardType</title>
<ellipse fill="none" stroke="black" cx="842" cy="-456" rx="44.2773" ry="18"/>
<text text-anchor="middle" x="842" y="-451.8" font-family="Times,serif" font-size="14.00">CardType</text>
</g>
<!-- CardType&#45;&gt;Card -->
<g id="edge31" class="edge"><title>CardType&#45;&gt;Card</title>
<path fill="none" stroke="#16a509" d="M840.332,-429.743C839.265,-413.577 837.88,-392.617 836.79,-376.103"/>
<ellipse fill="none" stroke="#16a509" cx="840.612" cy="-433.978" rx="4" ry="4"/>
<polygon fill="#16a509" stroke="#16a509" points="836.781,-375.967 840.612,-365.692 836.451,-370.978 836.122,-365.988 836.122,-365.988 836.122,-365.988 836.451,-370.978 831.632,-366.285 836.781,-375.967 836.781,-375.967"/>
</g>
<!-- Connection -->
<g id="node16" class="node"><title>Connection</title>
<ellipse fill="none" stroke="black" cx="1086" cy="-166" rx="50.3188" ry="18"/>
<text text-anchor="middle" x="1086" y="-161.8" font-family="Times,serif" font-size="14.00">Connection</text>
</g>
<!-- Disponibility -->
<g id="node17" class="node"><title>Disponibility</title>
<ellipse fill="none" stroke="black" cx="1722" cy="-240" rx="56.1805" ry="18"/>
<text text-anchor="middle" x="1722" y="-235.8" font-family="Times,serif" font-size="14.00">Disponibility</text>
</g>
<!-- Orator -->
<g id="node21" class="node"><title>Orator</title>
<ellipse fill="none" stroke="black" cx="1757" cy="-166" rx="33.2811" ry="18"/>
<text text-anchor="middle" x="1757" y="-161.8" font-family="Times,serif" font-size="14.00">Orator</text>
</g>
<!-- Disponibility&#45;&gt;Orator -->
<g id="edge37" class="edge"><title>Disponibility&#45;&gt;Orator</title>
<path fill="none" stroke="#15fa11" d="M1734.75,-212.768C1737.89,-206.307 1741.25,-199.392 1744.39,-192.945"/>
<polygon fill="#15fa11" stroke="#15fa11" points="1734.67,-212.943 1726.25,-219.97 1732.48,-217.44 1730.29,-221.937 1730.29,-221.937 1730.29,-221.937 1732.48,-217.44 1734.34,-223.904 1734.67,-212.943 1734.67,-212.943"/>
<polygon fill="#15fa11" stroke="#15fa11" points="1744.39,-192.934 1752.81,-185.908 1746.58,-188.437 1748.77,-183.941 1748.77,-183.941 1748.77,-183.941 1746.58,-188.437 1744.72,-181.973 1744.39,-192.934 1744.39,-192.934"/>
</g>
<!-- OratorDisponibility -->
<g id="node22" class="node"><title>OratorDisponibility</title>
<ellipse fill="none" stroke="black" cx="1699" cy="-92" rx="79.2995" ry="18"/>
<text text-anchor="middle" x="1699" y="-87.8" font-family="Times,serif" font-size="14.00">OratorDisponibility</text>
</g>
<!-- Disponibility&#45;&gt;OratorDisponibility -->
<g id="edge36" class="edge"><title>Disponibility&#45;&gt;OratorDisponibility</title>
<path fill="none" stroke="#4d1053" d="M1718.03,-213.8C1713.92,-187.712 1707.52,-147.09 1703.3,-120.265"/>
<ellipse fill="none" stroke="#4d1053" cx="1718.69" cy="-218.015" rx="4.00001" ry="4.00001"/>
<polygon fill="#4d1053" stroke="#4d1053" points="1703.29,-120.256 1706.18,-109.678 1702.52,-115.317 1701.74,-110.378 1701.74,-110.378 1701.74,-110.378 1702.52,-115.317 1697.29,-111.078 1703.29,-120.256 1703.29,-120.256"/>
</g>
<!-- Document -->
<g id="node18" class="node"><title>Document</title>
<ellipse fill="none" stroke="black" cx="1554" cy="-92" rx="46.4174" ry="18"/>
<text text-anchor="middle" x="1554" y="-87.8" font-family="Times,serif" font-size="14.00">Document</text>
</g>
<!-- Element -->
<g id="node19" class="node"><title>Element</title>
<ellipse fill="none" stroke="black" cx="255" cy="-294" rx="39.3599" ry="18"/>
<text text-anchor="middle" x="255" y="-289.8" font-family="Times,serif" font-size="14.00">Element</text>
</g>
<!-- Element&#45;&gt;Ownership -->
<g id="edge40" class="edge"><title>Element&#45;&gt;Ownership</title>
<path fill="none" stroke="#1708e5" d="M260.243,-267.789C261.866,-253.342 261.408,-235.465 253,-222 240.381,-201.793 217.702,-188.614 196.642,-180.239"/>
<ellipse fill="none" stroke="#1708e5" cx="259.658" cy="-271.879" rx="4.00001" ry="4.00001"/>
<polygon fill="#1708e5" stroke="#1708e5" points="196.502,-180.188 188.682,-172.501 191.812,-178.455 187.122,-176.722 187.122,-176.722 187.122,-176.722 191.812,-178.455 185.563,-180.943 196.502,-180.188 196.502,-180.188"/>
</g>
<!-- Orator&#45;&gt;OratorDisponibility -->
<g id="edge45" class="edge"><title>Orator&#45;&gt;OratorDisponibility</title>
<path fill="none" stroke="#596dab" d="M1739.05,-142.719C1732.73,-134.874 1725.59,-126.007 1719.1,-117.956"/>
<ellipse fill="none" stroke="#596dab" cx="1741.62" cy="-145.906" rx="4.00002" ry="4.00002"/>
<polygon fill="#596dab" stroke="#596dab" points="1718.92,-117.725 1716.15,-107.115 1715.78,-113.831 1712.64,-109.938 1712.64,-109.938 1712.64,-109.938 1715.78,-113.831 1709.14,-112.761 1718.92,-117.725 1718.92,-117.725"/>
</g>
<!-- OratorTheme -->
<g id="node23" class="node"><title>OratorTheme</title>
<ellipse fill="none" stroke="black" cx="1807" cy="-18" rx="57.6091" ry="18"/>
<text text-anchor="middle" x="1807" y="-13.8" font-family="Times,serif" font-size="14.00">OratorTheme</text>
</g>
<!-- Orator&#45;&gt;OratorTheme -->
<g id="edge43" class="edge"><title>Orator&#45;&gt;OratorTheme</title>
<path fill="none" stroke="#669579" d="M1771.55,-141.813C1777.04,-132.251 1782.93,-120.879 1787,-110 1794.77,-89.2289 1799.95,-64.6072 1803.09,-46.2159"/>
<ellipse fill="none" stroke="#669579" cx="1769.5" cy="-145.288" rx="4.00002" ry="4.00002"/>
<polygon fill="#669579" stroke="#669579" points="1803.12,-46.0562 1809.15,-36.8995 1803.91,-41.1199 1804.71,-36.1836 1804.71,-36.1836 1804.71,-36.1836 1803.91,-41.1199 1800.26,-35.4676 1803.12,-46.0562 1803.12,-46.0562"/>
</g>
<!-- Orator&#45;&gt;Theme -->
<g id="edge44" class="edge"><title>Orator&#45;&gt;Theme</title>
<path fill="none" stroke="#21c05b" d="M1716.63,-156.796C1649.14,-143.027 1518.75,-116.168 1498,-110 1495.37,-109.217 1492.67,-108.348 1489.97,-107.429"/>
<polygon fill="#21c05b" stroke="#21c05b" points="1716.7,-156.811 1725.6,-163.218 1721.6,-157.81 1726.5,-158.808 1726.5,-158.808 1726.5,-158.808 1721.6,-157.81 1727.4,-154.399 1716.7,-156.811 1716.7,-156.811"/>
<polygon fill="#21c05b" stroke="#21c05b" points="1489.7,-107.33 1481.81,-99.7076 1484.99,-105.636 1480.29,-103.941 1480.29,-103.941 1480.29,-103.941 1484.99,-105.636 1478.76,-108.175 1489.7,-107.33 1489.7,-107.33"/>
</g>
<!-- Ownership&#45;&gt;AccessToken -->
<g id="edge50" class="edge"><title>Ownership&#45;&gt;AccessToken</title>
<path fill="none" stroke="#e5e7a8" d="M179.3,-146.062C195.769,-136.098 215.988,-123.865 232.86,-113.656"/>
<ellipse fill="none" stroke="#e5e7a8" cx="175.791" cy="-148.185" rx="4.00002" ry="4.00002"/>
<polygon fill="#e5e7a8" stroke="#e5e7a8" points="233.288,-113.397 244.173,-112.071 237.566,-110.809 241.844,-108.221 241.844,-108.221 241.844,-108.221 237.566,-110.809 239.514,-104.37 233.288,-113.397 233.288,-113.397"/>
</g>
<!-- Ownership&#45;&gt;OwnershipAction -->
<g id="edge49" class="edge"><title>Ownership&#45;&gt;OwnershipAction</title>
<path fill="none" stroke="#71c780" d="M138.036,-140.262C135.33,-133.545 132.39,-126.245 129.648,-119.438"/>
<ellipse fill="none" stroke="#71c780" cx="139.633" cy="-144.227" rx="4.00001" ry="4.00001"/>
<polygon fill="#71c780" stroke="#71c780" points="129.559,-119.216 129.997,-108.259 127.691,-114.578 125.823,-109.941 125.823,-109.941 125.823,-109.941 127.691,-114.578 121.649,-111.622 129.559,-119.216 129.559,-119.216"/>
</g>
<!-- OwnershipType -->
<g id="node26" class="node"><title>OwnershipType</title>
<ellipse fill="none" stroke="black" cx="81" cy="-402" rx="66.2001" ry="18"/>
<text text-anchor="middle" x="81" y="-397.8" font-family="Times,serif" font-size="14.00">OwnershipType</text>
</g>
<!-- OwnershipType&#45;&gt;Ownership -->
<g id="edge53" class="edge"><title>OwnershipType&#45;&gt;Ownership</title>
<path fill="none" stroke="#b15cf1" d="M86.6239,-376.057C95.4133,-338.084 113.534,-263.675 134,-202 134.928,-199.205 135.962,-196.311 137.036,-193.439"/>
<ellipse fill="none" stroke="#b15cf1" cx="85.6885" cy="-380.127" rx="4.00001" ry="4.00001"/>
<polygon fill="#b15cf1" stroke="#b15cf1" points="137.109,-193.252 144.94,-185.576 138.929,-188.595 140.748,-183.938 140.748,-183.938 140.748,-183.938 138.929,-188.595 136.557,-182.3 137.109,-193.252 137.109,-193.252"/>
</g>
<!-- Page -->
<g id="node27" class="node"><title>Page</title>
<ellipse fill="none" stroke="black" cx="2028" cy="-456" rx="26.9483" ry="18"/>
<text text-anchor="middle" x="2028" y="-451.8" font-family="Times,serif" font-size="14.00">Page</text>
</g>
<!-- Parent -->
<g id="node28" class="node"><title>Parent</title>
<ellipse fill="none" stroke="black" cx="1275" cy="-166" rx="32.5477" ry="18"/>
<text text-anchor="middle" x="1275" y="-161.8" font-family="Times,serif" font-size="14.00">Parent</text>
</g>
<!-- Permission -->
<g id="node29" class="node"><title>Permission</title>
<polygon fill="none" stroke="black" points="2151.17,-474 2072.83,-474 2072.83,-438 2151.17,-438 2151.17,-474"/>
<text text-anchor="middle" x="2112" y="-451.8" font-family="Times,serif" font-size="14.00">Permission</text>
</g>
<!-- Responsable&#45;&gt;CardResponsable -->
<g id="edge58" class="edge"><title>Responsable&#45;&gt;CardResponsable</title>
<path fill="none" stroke="#94e5d0" d="M910.64,-215.509C915.851,-208.151 921.627,-199.998 926.932,-192.508"/>
<ellipse fill="none" stroke="#94e5d0" cx="908.141" cy="-219.037" rx="4.00002" ry="4.00002"/>
<polygon fill="#94e5d0" stroke="#94e5d0" points="927.101,-192.269 936.553,-186.71 929.991,-188.189 932.881,-184.109 932.881,-184.109 932.881,-184.109 929.991,-188.189 929.209,-181.508 927.101,-192.269 927.101,-192.269"/>
</g>
<!-- Subject -->
<g id="node31" class="node"><title>Subject</title>
<ellipse fill="none" stroke="black" cx="1362" cy="-166" rx="36.4487" ry="18"/>
<text text-anchor="middle" x="1362" y="-161.8" font-family="Times,serif" font-size="14.00">Subject</text>
</g>
<!-- Subject&#45;&gt;Document -->
<g id="edge60" class="edge"><title>Subject&#45;&gt;Document</title>
<path fill="none" stroke="#07995b" d="M1398.07,-151.474C1430.44,-139.334 1477.97,-121.512 1512.03,-108.737"/>
<ellipse fill="none" stroke="#07995b" cx="1394.08" cy="-152.972" rx="4.00001" ry="4.00001"/>
<polygon fill="#07995b" stroke="#07995b" points="1512.34,-108.623 1523.28,-109.326 1517.02,-106.868 1521.7,-105.112 1521.7,-105.112 1521.7,-105.112 1517.02,-106.868 1520.12,-100.899 1512.34,-108.623 1512.34,-108.623"/>
</g>
<!-- SubjectTheme -->
<g id="node32" class="node"><title>SubjectTheme</title>
<ellipse fill="none" stroke="black" cx="1340" cy="-92" rx="61.2787" ry="18"/>
<text text-anchor="middle" x="1340" y="-87.8" font-family="Times,serif" font-size="14.00">SubjectTheme</text>
</g>
<!-- Subject&#45;&gt;SubjectTheme -->
<g id="edge61" class="edge"><title>Subject&#45;&gt;SubjectTheme</title>
<path fill="none" stroke="#93cd77" d="M1354.44,-140.262C1352.44,-133.701 1350.26,-126.584 1348.22,-119.913"/>
<ellipse fill="none" stroke="#93cd77" cx="1355.62" cy="-144.112" rx="4.00001" ry="4.00001"/>
<polygon fill="#93cd77" stroke="#93cd77" points="1348.1,-119.504 1349.48,-108.626 1346.64,-114.722 1345.18,-109.941 1345.18,-109.941 1345.18,-109.941 1346.64,-114.722 1340.87,-111.256 1348.1,-119.504 1348.1,-119.504"/>
</g>
<!-- Subject&#45;&gt;Theme -->
<g id="edge62" class="edge"><title>Subject&#45;&gt;Theme</title>
<path fill="none" stroke="#8aac9a" d="M1388.61,-144.176C1400.89,-134.566 1415.42,-123.19 1427.67,-113.607"/>
<polygon fill="#8aac9a" stroke="#8aac9a" points="1388.49,-144.267 1377.84,-146.886 1384.56,-147.348 1380.62,-150.43 1380.62,-150.43 1380.62,-150.43 1384.56,-147.348 1383.39,-153.974 1388.49,-144.267 1388.49,-144.267"/>
<polygon fill="#8aac9a" stroke="#8aac9a" points="1427.85,-113.466 1438.5,-110.847 1431.79,-110.384 1435.72,-107.303 1435.72,-107.303 1435.72,-107.303 1431.79,-110.384 1432.95,-103.759 1427.85,-113.466 1427.85,-113.466"/>
</g>
<!-- Tag&#45;&gt;Tagging -->
<g id="edge65" class="edge"><title>Tag&#45;&gt;Tagging</title>
<path fill="none" stroke="#f665db" d="M1348.28,-229.311C1366.41,-223.24 1389.12,-214.565 1408,-204 1415.79,-199.643 1423.68,-194.112 1430.76,-188.662"/>
<ellipse fill="none" stroke="#f665db" cx="1344.1" cy="-230.674" rx="4.00001" ry="4.00001"/>
<polygon fill="#f665db" stroke="#f665db" points="1430.82,-188.615 1441.45,-185.897 1434.73,-185.497 1438.64,-182.379 1438.64,-182.379 1438.64,-182.379 1434.73,-185.497 1435.83,-178.861 1430.82,-188.615 1430.82,-188.615"/>
</g>
<!-- Theme&#45;&gt;OratorTheme -->
<g id="edge68" class="edge"><title>Theme&#45;&gt;OratorTheme</title>
<path fill="none" stroke="#28f6fc" d="M1487.42,-77.3234C1490.96,-76.1047 1494.53,-74.9681 1498,-74 1581.76,-50.5988 1681.2,-34.9977 1744.2,-26.5671"/>
<ellipse fill="none" stroke="#28f6fc" cx="1483.54" cy="-78.7281" rx="4.00001" ry="4.00001"/>
<polygon fill="#28f6fc" stroke="#28f6fc" points="1744.46,-26.5329 1754.96,-29.6871 1749.41,-25.8793 1754.37,-25.2257 1754.37,-25.2257 1754.37,-25.2257 1749.41,-25.8793 1753.78,-20.7643 1744.46,-26.5329 1744.46,-26.5329"/>
</g>
<!-- User&#45;&gt;Activity -->
<g id="edge76" class="edge"><title>User&#45;&gt;Activity</title>
<path fill="none" stroke="#9c0acc" d="M965.277,-225.603C962.49,-224.363 959.697,-223.144 957,-222 922.814,-207.494 883.398,-192.241 854.947,-181.487"/>
<ellipse fill="none" stroke="#9c0acc" cx="968.928" cy="-227.251" rx="4.00002" ry="4.00002"/>
<polygon fill="#9c0acc" stroke="#9c0acc" points="854.726,-181.404 846.953,-173.668 850.046,-179.642 845.367,-177.88 845.367,-177.88 845.367,-177.88 850.046,-179.642 843.781,-182.091 854.726,-181.404 854.726,-181.404"/>
</g>
<!-- User&#45;&gt;Article -->
<g id="edge79" class="edge"><title>User&#45;&gt;Article</title>
<path fill="none" stroke="#3fd294" d="M1025.07,-227.805C1055.63,-216.767 1103.58,-199.367 1145,-184 1147.72,-182.992 1150.52,-181.946 1153.34,-180.889"/>
<ellipse fill="none" stroke="#3fd294" cx="1021.07" cy="-229.248" rx="4.00001" ry="4.00001"/>
<polygon fill="#3fd294" stroke="#3fd294" points="1153.53,-180.819 1164.48,-181.513 1158.21,-179.06 1162.89,-177.3 1162.89,-177.3 1162.89,-177.3 1158.21,-179.06 1161.31,-173.088 1153.53,-180.819 1153.53,-180.819"/>
</g>
<!-- User&#45;&gt;Card -->
<g id="edge71" class="edge"><title>User&#45;&gt;Card</title>
<path fill="none" stroke="#50b051" d="M971.45,-259.55C943.355,-279.641 895.663,-311.384 864.653,-330.595"/>
<ellipse fill="none" stroke="#50b051" cx="974.907" cy="-257.052" rx="4.00002" ry="4.00002"/>
<polygon fill="#50b051" stroke="#50b051" points="864.255,-330.838 853.376,-332.216 859.99,-333.447 855.724,-336.055 855.724,-336.055 855.724,-336.055 859.99,-333.447 858.072,-339.894 864.255,-330.838 864.255,-330.838"/>
</g>
<!-- User&#45;&gt;CardUser -->
<g id="edge77" class="edge"><title>User&#45;&gt;CardUser</title>
<path fill="none" stroke="#ef79b0" d="M965.762,-224.923C962.849,-223.806 959.895,-222.802 957,-222 808.336,-180.824 762.87,-216.164 612,-184 608.335,-183.219 604.564,-182.284 600.803,-181.26"/>
<ellipse fill="none" stroke="#ef79b0" cx="969.62" cy="-226.539" rx="4.00002" ry="4.00002"/>
<polygon fill="#ef79b0" stroke="#ef79b0" points="600.553,-181.187 592.213,-174.067 595.753,-179.787 590.953,-178.387 590.953,-178.387 590.953,-178.387 595.753,-179.787 589.692,-182.707 600.553,-181.187 600.553,-181.187"/>
</g>
<!-- User&#45;&gt;CardVerification -->
<g id="edge70" class="edge"><title>User&#45;&gt;CardVerification</title>
<path fill="none" stroke="#e17dca" d="M965.682,-225.19C962.785,-224.019 959.857,-222.93 957,-222 875.523,-195.491 851.861,-201.568 768,-184 762.351,-182.817 756.477,-181.569 750.599,-180.308"/>
<ellipse fill="none" stroke="#e17dca" cx="969.532" cy="-226.844" rx="4.00002" ry="4.00002"/>
<polygon fill="#e17dca" stroke="#e17dca" points="750.519,-180.291 741.691,-173.785 745.631,-179.237 740.743,-178.184 740.743,-178.184 740.743,-178.184 745.631,-179.237 739.795,-182.583 750.519,-180.291 750.519,-180.291"/>
</g>
<!-- User&#45;&gt;Connection -->
<g id="edge80" class="edge"><title>User&#45;&gt;Connection</title>
<path fill="none" stroke="#94c78f" d="M1017.44,-220.655C1029.76,-211.013 1044.95,-199.126 1057.9,-188.993"/>
<ellipse fill="none" stroke="#94c78f" cx="1014.02" cy="-223.329" rx="4.00002" ry="4.00002"/>
<polygon fill="#94c78f" stroke="#94c78f" points="1058.16,-188.792 1068.8,-186.172 1062.09,-185.71 1066.03,-182.628 1066.03,-182.628 1066.03,-182.628 1062.09,-185.71 1063.26,-179.085 1058.16,-188.792 1058.16,-188.792"/>
</g>
<!-- User&#45;&gt;Orator -->
<g id="edge78" class="edge"><title>User&#45;&gt;Orator</title>
<path fill="none" stroke="#ab426c" d="M1027.44,-231.98C1044.84,-228.542 1066.49,-224.595 1086,-222 1209.03,-205.633 1589.71,-178.571 1715.89,-169.822"/>
<ellipse fill="none" stroke="#ab426c" cx="1023.19" cy="-232.832" rx="4.00001" ry="4.00001"/>
<ellipse fill="#ab426c" stroke="#ab426c" cx="1720.19" cy="-169.524" rx="4" ry="4"/>
</g>
<!-- User&#45;&gt;Ownership -->
<g id="edge72" class="edge"><title>User&#45;&gt;Ownership</title>
<path fill="none" stroke="#0f4ee0" d="M966.285,-224.954C963.208,-223.792 960.075,-222.77 957,-222 888.65,-204.887 394.245,-189.499 324,-184 283.923,-180.863 238.794,-176.487 204.268,-172.96"/>
<ellipse fill="none" stroke="#0f4ee0" cx="970.058" cy="-226.527" rx="4.00002" ry="4.00002"/>
<polygon fill="#0f4ee0" stroke="#0f4ee0" points="203.859,-172.918 194.371,-167.419 198.885,-172.407 193.911,-171.895 193.911,-171.895 193.911,-171.895 198.885,-172.407 193.451,-176.372 203.859,-172.918 203.859,-172.918"/>
</g>
<!-- User&#45;&gt;Parent -->
<g id="edge73" class="edge"><title>User&#45;&gt;Parent</title>
<path fill="none" stroke="#1e7677" d="M1025.81,-229.378C1034.58,-226.848 1044.13,-224.211 1053,-222 1132.34,-202.224 1154.8,-207.876 1233,-184 1235.59,-183.209 1238.24,-182.323 1240.9,-181.382"/>
<ellipse fill="none" stroke="#1e7677" cx="1021.85" cy="-230.534" rx="4.00001" ry="4.00001"/>
<polygon fill="#1e7677" stroke="#1e7677" points="1241.03,-181.332 1251.97,-182.016 1245.71,-179.569 1250.39,-177.805 1250.39,-177.805 1250.39,-177.805 1245.71,-179.569 1248.8,-173.595 1241.03,-181.332 1241.03,-181.332"/>
</g>
<!-- User&#45;&gt;Subject -->
<g id="edge81" class="edge"><title>User&#45;&gt;Subject</title>
<path fill="none" stroke="#623063" d="M1025.72,-228.996C1034.49,-226.466 1044.06,-223.923 1053,-222 1168.46,-197.148 1201.53,-213.076 1316,-184 1318.96,-183.249 1321.99,-182.375 1325.02,-181.427"/>
<ellipse fill="none" stroke="#623063" cx="1021.76" cy="-230.166" rx="4.00001" ry="4.00001"/>
<polygon fill="#623063" stroke="#623063" points="1325.09,-181.401 1336,-182.472 1329.83,-179.804 1334.57,-178.208 1334.57,-178.208 1334.57,-178.208 1329.83,-179.804 1333.13,-173.943 1325.09,-181.401 1325.09,-181.401"/>
</g>
<!-- User&#45;&gt;User -->
<g id="edge74" class="edge"><title>User&#45;&gt;User</title>
<path fill="none" stroke="#9b648c" d="M1029.49,-246.212C1035.14,-245.301 1039,-243.23 1039,-240 1039,-236.77 1035.14,-234.699 1029.49,-233.788"/>
<polygon fill="#9b648c" stroke="#9b648c" points="1029.43,-246.215 1019.23,-242.196 1024.44,-246.453 1019.44,-246.691 1019.44,-246.691 1019.44,-246.691 1024.44,-246.453 1019.66,-251.186 1029.43,-246.215 1029.43,-246.215"/>
<polygon fill="#9b648c" stroke="#9b648c" points="1029.43,-233.785 1019.66,-228.814 1024.44,-233.547 1019.44,-233.309 1019.44,-233.309 1019.44,-233.309 1024.44,-233.547 1019.23,-237.804 1029.43,-233.785 1029.43,-233.785"/>
</g>
<!-- User&#45;&gt;VerificatorComment -->
<g id="edge75" class="edge"><title>User&#45;&gt;VerificatorComment</title>
<path fill="none" stroke="#71e208" d="M965.783,-224.846C962.866,-223.744 959.905,-222.765 957,-222 859.736,-196.399 605.671,-197.474 506,-184 498.58,-182.997 490.847,-181.796 483.161,-180.502"/>
<ellipse fill="none" stroke="#71e208" cx="969.643" cy="-226.449" rx="4.00002" ry="4.00002"/>
<polygon fill="#71e208" stroke="#71e208" points="482.966,-180.469 473.884,-174.324 478.04,-179.613 473.114,-178.757 473.114,-178.757 473.114,-178.757 478.04,-179.613 472.344,-183.191 482.966,-180.469 482.966,-180.469"/>
</g>
<!-- UserType -->
<g id="node37" class="node"><title>UserType</title>
<ellipse fill="none" stroke="black" cx="1095" cy="-402" rx="44.038" ry="18"/>
<text text-anchor="middle" x="1095" y="-397.8" font-family="Times,serif" font-size="14.00">UserType</text>
</g>
<!-- UserType&#45;&gt;User -->
<g id="edge83" class="edge"><title>UserType&#45;&gt;User</title>
<path fill="none" stroke="#ce5692" d="M1080.84,-377.247C1065.65,-351.94 1040.64,-310.812 1018,-276 1015.65,-272.387 1013.12,-268.597 1010.62,-264.9"/>
<ellipse fill="none" stroke="#ce5692" cx="1082.99" cy="-380.827" rx="4.00002" ry="4.00002"/>
<polygon fill="#ce5692" stroke="#ce5692" points="1010.56,-264.823 1008.63,-254.029 1007.74,-260.697 1004.92,-256.57 1004.92,-256.57 1004.92,-256.57 1007.74,-260.697 1001.2,-259.112 1010.56,-264.823 1010.56,-264.823"/>
</g>
<!-- ActiveRecord::Base -->
<g id="node39" class="node"><title>ActiveRecord::Base</title>
<ellipse fill="none" stroke="black" cx="1161" cy="-549" rx="80.9821" ry="18"/>
<text text-anchor="middle" x="1161" y="-544.8" font-family="Times,serif" font-size="14.00">ActiveRecord::Base</text>
</g>
<!-- ActiveRecord::Base&#45;&gt;AccessToken -->
<g id="edge1" class="edge"><title>ActiveRecord::Base&#45;&gt;AccessToken</title>
<path fill="none" stroke="black" d="M1129.42,-532.328C1112.28,-524.651 1090.48,-516.177 1070,-512 917.751,-480.943 520.096,-537.76 371,-494 340.575,-485.07 310,-488.709 310,-457 310,-457 310,-457 310,-293 310,-223.922 285.179,-144.361 273.253,-110.122"/>
</g>
<!-- ActiveRecord::Base&#45;&gt;Action -->
<g id="edge4" class="edge"><title>ActiveRecord::Base&#45;&gt;Action</title>
<path fill="none" stroke="black" d="M1129.42,-532.306C1112.29,-524.623 1090.48,-516.15 1070,-512 985.146,-494.807 374.269,-517.711 291,-494 196.742,-467.16 203.156,-310.554 208.057,-258.107"/>
</g>
<!-- ActiveRecord::Base&#45;&gt;Activity -->
<g id="edge5" class="edge"><title>ActiveRecord::Base&#45;&gt;Activity</title>
<path fill="none" stroke="black" d="M1128,-532.458C1111.02,-525.109 1089.79,-516.893 1070,-512 996.764,-493.894 735,-532.441 735,-457 735,-457 735,-457 735,-293 735,-246.711 774.16,-203.877 798.023,-182.072"/>
</g>
<!-- ActiveRecord::Base&#45;&gt;Affiliation -->
<g id="edge8" class="edge"><title>ActiveRecord::Base&#45;&gt;Affiliation</title>
<path fill="none" stroke="black" d="M1128.95,-532.356C1111.87,-524.787 1090.25,-516.404 1070,-512 918.23,-478.997 869.454,-539.659 721,-494 706.083,-489.412 691.073,-480.377 679.675,-472.384"/>
</g>
<!-- ActiveRecord::Base&#45;&gt;Article -->
<g id="edge11" class="edge"><title>ActiveRecord::Base&#45;&gt;Article</title>
<path fill="none" stroke="black" d="M1240.09,-544.662C1299.62,-537.389 1371,-516.303 1371,-457 1371,-457 1371,-457 1371,-293 1371,-260.334 1374.54,-245.642 1352,-222 1313.69,-181.818 1285.29,-202.661 1233,-184 1227.56,-182.057 1221.77,-179.863 1216.27,-177.711"/>
</g>
<!-- ActiveRecord::Base&#45;&gt;ArticleTheme -->
<g id="edge12" class="edge"><title>ActiveRecord::Base&#45;&gt;ArticleTheme</title>
<path fill="none" stroke="black" d="M1129.41,-532.363C1112.27,-524.696 1090.47,-516.22 1070,-512 939.355,-485.061 601.988,-513.313 470,-494 413.936,-485.796 348,-513.661 348,-457 348,-457 348,-457 348,-293 348,-260.339 303.302,-173.265 324,-148 350.827,-115.253 468.391,-101.595 540.527,-96.217"/>
</g>
<!-- ActiveRecord::Base&#45;&gt;Canton -->
<g id="edge14" class="edge"><title>ActiveRecord::Base&#45;&gt;Canton</title>
<path fill="none" stroke="black" d="M1242.09,-547.32C1401.1,-545.075 1747.97,-535.429 1859,-494 1871.75,-489.243 1884.06,-480.206 1893.28,-472.254"/>
</g>
<!-- ActiveRecord::Base&#45;&gt;Card -->
<g id="edge27" class="edge"><title>ActiveRecord::Base&#45;&gt;Card</title>
<path fill="none" stroke="black" d="M1127.05,-532.456C1110.2,-525.29 1089.35,-517.232 1070,-512 1018.79,-498.154 997.996,-520.435 952,-494 924.025,-477.922 868.597,-398.844 845.494,-364.722"/>
</g>
<!-- ActiveRecord::Base&#45;&gt;CardAffiliation -->
<g id="edge28" class="edge"><title>ActiveRecord::Base&#45;&gt;CardAffiliation</title>
<path fill="none" stroke="black" d="M1128.95,-532.345C1111.87,-524.773 1090.26,-516.391 1070,-512 1019.23,-500.994 640.26,-511.202 604,-474 545.537,-414.019 556.867,-301.184 563.792,-258.212"/>
</g>
<!-- ActiveRecord::Base&#45;&gt;CardParent -->
<g id="edge29" class="edge"><title>ActiveRecord::Base&#45;&gt;CardParent</title>
<path fill="none" stroke="black" d="M1177.07,-531.02C1185.37,-521.067 1194.64,-507.771 1199,-494 1213.76,-447.391 1207.78,-432.094 1199,-384 1190.33,-336.487 1166.69,-284.255 1153.75,-258.028"/>
</g>
<!-- ActiveRecord::Base&#45;&gt;CardResponsable -->
<g id="edge30" class="edge"><title>ActiveRecord::Base&#45;&gt;CardResponsable</title>
<path fill="none" stroke="black" d="M1164.7,-530.624C1178.15,-466.586 1222.61,-246.231 1203,-222 1202.59,-221.496 1073.43,-194.135 998.041,-178.2"/>
</g>
<!-- ActiveRecord::Base&#45;&gt;CardType -->
<g id="edge32" class="edge"><title>ActiveRecord::Base&#45;&gt;CardType</title>
<path fill="none" stroke="black" d="M1127.99,-532.497C1111.01,-525.159 1089.78,-516.94 1070,-512 1001,-494.769 978.89,-515.185 911,-494 894.521,-488.858 877.411,-479.712 864.351,-471.8"/>
</g>
<!-- ActiveRecord::Base&#45;&gt;CardUser -->
<g id="edge33" class="edge"><title>ActiveRecord::Base&#45;&gt;CardUser</title>
<path fill="none" stroke="black" d="M1129.4,-532.408C1112.26,-524.753 1090.46,-516.276 1070,-512 1000.9,-497.555 437,-527.598 437,-457 437,-457 437,-457 437,-239 437,-217.972 491.434,-192.911 527.582,-178.587"/>
</g>
<!-- ActiveRecord::Base&#45;&gt;CardVerification -->
<g id="edge34" class="edge"><title>ActiveRecord::Base&#45;&gt;CardVerification</title>
<path fill="none" stroke="black" d="M1128.96,-532.296C1111.89,-524.711 1090.27,-516.332 1070,-512 1005.07,-498.123 475,-523.393 475,-457 475,-457 475,-457 475,-239 475,-227.669 484.065,-227.45 494,-222 519.021,-208.274 590.478,-189.977 639.823,-178.34"/>
</g>
<!-- ActiveRecord::Base&#45;&gt;Connection -->
<g id="edge35" class="edge"><title>ActiveRecord::Base&#45;&gt;Connection</title>
<path fill="none" stroke="black" d="M1197.1,-532.813C1225.75,-518.071 1261,-492.68 1261,-457 1261,-457 1261,-457 1261,-239 1261,-182.344 1200.89,-198.02 1146,-184 1138.76,-182.151 1131.07,-180.064 1123.69,-178.002"/>
</g>
<!-- ActiveRecord::Base&#45;&gt;Disponibility -->
<g id="edge38" class="edge"><title>ActiveRecord::Base&#45;&gt;Disponibility</title>
<path fill="none" stroke="black" d="M1239.34,-544.13C1369.78,-536.991 1620.28,-520.055 1651,-494 1723.19,-432.765 1725,-304.58 1723.09,-258.208"/>
</g>
<!-- ActiveRecord::Base&#45;&gt;Document -->
<g id="edge39" class="edge"><title>ActiveRecord::Base&#45;&gt;Document</title>
<path fill="none" stroke="black" d="M1242.1,-547.492C1368.71,-544.476 1599,-529.083 1599,-457 1599,-457 1599,-457 1599,-165 1599,-143.184 1583.96,-122.528 1571.27,-108.983"/>
</g>
<!-- ActiveRecord::Base&#45;&gt;Element -->
<g id="edge41" class="edge"><title>ActiveRecord::Base&#45;&gt;Element</title>
<path fill="none" stroke="black" d="M1129.42,-532.307C1112.29,-524.624 1090.48,-516.151 1070,-512 1027.85,-503.456 329.023,-521.558 296,-494 241.428,-448.459 247.363,-351.321 252.363,-312.025"/>
</g>
<!-- ActiveRecord::Base&#45;&gt;Location -->
<g id="edge42" class="edge"><title>ActiveRecord::Base&#45;&gt;Location</title>
<path fill="none" stroke="black" d="M1241.84,-546.952C1434.9,-543.555 1910.02,-529.575 1953,-474 1977.36,-442.505 1962.29,-392.163 1951.72,-366.013"/>
</g>
<!-- ActiveRecord::Base&#45;&gt;Orator -->
<g id="edge46" class="edge"><title>ActiveRecord::Base&#45;&gt;Orator</title>
<path fill="none" stroke="black" d="M1240.21,-544.971C1412.71,-537.318 1807,-513.63 1807,-457 1807,-457 1807,-457 1807,-239 1807,-215.716 1789.14,-194.546 1774.77,-181.279"/>
</g>
<!-- ActiveRecord::Base&#45;&gt;OratorDisponibility -->
<g id="edge47" class="edge"><title>ActiveRecord::Base&#45;&gt;OratorDisponibility</title>
<path fill="none" stroke="black" d="M1242.29,-548.898C1378.24,-548.187 1637,-536.403 1637,-457 1637,-457 1637,-457 1637,-165 1637,-141.576 1656.08,-121.985 1673.07,-109.182"/>
</g>
<!-- ActiveRecord::Base&#45;&gt;OratorTheme -->
<g id="edge48" class="edge"><title>ActiveRecord::Base&#45;&gt;OratorTheme</title>
<path fill="none" stroke="black" d="M1240.8,-545.588C1421.23,-539.073 1845,-517.347 1845,-457 1845,-457 1845,-457 1845,-91 1845,-70.0815 1832.3,-49.2856 1821.58,-35.462"/>
</g>
<!-- ActiveRecord::Base&#45;&gt;Ownership -->
<g id="edge51" class="edge"><title>ActiveRecord::Base&#45;&gt;Ownership</title>
<path fill="none" stroke="black" d="M1129.42,-532.304C1112.29,-524.62 1090.48,-516.147 1070,-512 977.994,-493.371 291.104,-541.628 226,-474 145.336,-390.209 144.717,-235.324 146.939,-184.009"/>
</g>
<!-- ActiveRecord::Base&#45;&gt;OwnershipAction -->
<g id="edge52" class="edge"><title>ActiveRecord::Base&#45;&gt;OwnershipAction</title>
<path fill="none" stroke="black" d="M1129.43,-532.276C1112.3,-524.583 1090.49,-516.112 1070,-512 867.989,-471.458 347.128,-521.997 143,-494 77.9604,-485.08 0,-522.649 0,-457 0,-457 0,-457 0,-165 0,-132.281 33.3385,-114.027 64.7235,-104.092"/>
</g>
<!-- ActiveRecord::Base&#45;&gt;OwnershipType -->
<g id="edge54" class="edge"><title>ActiveRecord::Base&#45;&gt;OwnershipType</title>
<path fill="none" stroke="black" d="M1129.43,-532.276C1112.3,-524.584 1090.49,-516.113 1070,-512 1019.77,-501.916 193.494,-517.559 148,-494 117.687,-478.302 97.6283,-441.904 87.8884,-420.197"/>
</g>
<!-- ActiveRecord::Base&#45;&gt;Page -->
<g id="edge55" class="edge"><title>ActiveRecord::Base&#45;&gt;Page</title>
<path fill="none" stroke="black" d="M1241.04,-545.752C1435.05,-539.878 1919.49,-522.522 1987,-494 1998.13,-489.299 2008.23,-480.262 2015.63,-472.296"/>
</g>
<!-- ActiveRecord::Base&#45;&gt;Parent -->
<g id="edge56" class="edge"><title>ActiveRecord::Base&#45;&gt;Parent</title>
<path fill="none" stroke="black" d="M1224.22,-537.656C1297.7,-523.802 1409,-496.327 1409,-457 1409,-457 1409,-457 1409,-293 1409,-258.203 1399.81,-247.375 1376,-222 1364.66,-209.915 1325.56,-190.377 1299.47,-178.133"/>
</g>
<!-- ActiveRecord::Base&#45;&gt;Responsable -->
<g id="edge59" class="edge"><title>ActiveRecord::Base&#45;&gt;Responsable</title>
<path fill="none" stroke="black" d="M1130.87,-532.258C1107.12,-518.88 1074.1,-498.05 1050,-474 1013.91,-437.978 932.413,-304.871 903.999,-257.704"/>
</g>
<!-- ActiveRecord::Base&#45;&gt;Subject -->
<g id="edge63" class="edge"><title>ActiveRecord::Base&#45;&gt;Subject</title>
<path fill="none" stroke="black" d="M1230.96,-539.822C1315.63,-527.932 1447,-502.202 1447,-457 1447,-457 1447,-457 1447,-239 1447,-208.637 1415.03,-188.436 1390.3,-177.352"/>
</g>
<!-- ActiveRecord::Base&#45;&gt;SubjectTheme -->
<g id="edge64" class="edge"><title>ActiveRecord::Base&#45;&gt;SubjectTheme</title>
<path fill="none" stroke="black" d="M1239.1,-544.027C1345.52,-536.44 1523,-515.079 1523,-457 1523,-457 1523,-457 1523,-202 1523,-176.407 1521.36,-165.83 1503,-148 1486.13,-131.614 1428.32,-114.573 1386.33,-103.884"/>
</g>
<!-- ActiveRecord::Base&#45;&gt;Tag -->
<g id="edge66" class="edge"><title>ActiveRecord::Base&#45;&gt;Tag</title>
<path fill="none" stroke="black" d="M1213.18,-535.116C1235.54,-526.961 1259.93,-514.045 1275,-494 1329.94,-420.905 1323.1,-302.133 1318.26,-258.118"/>
</g>
<!-- ActiveRecord::Base&#45;&gt;Tagging -->
<g id="edge67" class="edge"><title>ActiveRecord::Base&#45;&gt;Tagging</title>
<path fill="none" stroke="black" d="M1236.15,-541.957C1331.86,-532.146 1485,-508.415 1485,-457 1485,-457 1485,-457 1485,-239 1485,-218.786 1475.04,-197.541 1466.8,-183.413"/>
</g>
<!-- ActiveRecord::Base&#45;&gt;Theme -->
<g id="edge69" class="edge"><title>ActiveRecord::Base&#45;&gt;Theme</title>
<path fill="none" stroke="black" d="M1240.98,-545.875C1357.71,-540.564 1561,-521.987 1561,-457 1561,-457 1561,-457 1561,-165 1561,-145.408 1511,-118.957 1479.36,-104.179"/>
</g>
<!-- ActiveRecord::Base&#45;&gt;User -->
<g id="edge82" class="edge"><title>ActiveRecord::Base&#45;&gt;User</title>
<path fill="none" stroke="black" d="M1140.06,-531.233C1113.35,-508.725 1067.57,-466.193 1042,-420 1011.85,-365.529 999.856,-291.136 995.795,-258.058"/>
</g>
<!-- ActiveRecord::Base&#45;&gt;UserType -->
<g id="edge84" class="edge"><title>ActiveRecord::Base&#45;&gt;UserType</title>
<path fill="none" stroke="black" d="M1153.17,-530.797C1140.4,-502.741 1115.25,-447.482 1102.62,-419.733"/>
</g>
<!-- ActiveRecord::Base&#45;&gt;VerificatorComment -->
<g id="edge85" class="edge"><title>ActiveRecord::Base&#45;&gt;VerificatorComment</title>
<path fill="none" stroke="black" d="M1129.4,-532.384C1112.27,-524.722 1090.46,-516.246 1070,-512 996.755,-496.802 399,-531.806 399,-457 399,-457 399,-457 399,-239 399,-219.921 404.42,-198.66 408.951,-184.221"/>
</g>
<!-- Object -->
<g id="node40" class="node"><title>Object</title>
<ellipse fill="none" stroke="black" cx="2112" cy="-549" rx="33.5181" ry="18"/>
<text text-anchor="middle" x="2112" y="-544.8" font-family="Times,serif" font-size="14.00">Object</text>
</g>
<!-- Object&#45;&gt;Permission -->
<g id="edge57" class="edge"><title>Object&#45;&gt;Permission</title>
<path fill="none" stroke="black" d="M2112,-530.884C2112,-514.614 2112,-490.284 2112,-474.04"/>
</g>
</g>
</svg>
